<?xml version="1.0" encoding="UTF-8" standalone="no"?>
<!-- Created with Inkscape (http://www.inkscape.org/) -->

<svg
   version="1.1"
   id="svg282014"
   width="400"
   height="400"
   viewBox="0 0 400 400"
   sodipodi:docname="sfaCadetAverageFemale.svg"
   inkscape:version="1.4.4 (dcaf3e7, 2026-05-05)"
   xml:space="preserve"
   xmlns:inkscape="http://www.inkscape.org/namespaces/inkscape"
   xmlns:sodipodi="http://sodipodi.sourceforge.net/DTD/sodipodi-0.dtd"
   xmlns="http://www.w3.org/2000/svg"
   xmlns:svg="http://www.w3.org/2000/svg"><defs
     id="defs282018"><inkscape:path-effect
       effect="fillet_chamfer"
       id="path-effect22"
       is_visible="true"
       lpeversion="1"
       nodesatellites_param="F,0,0,1,0,0.25,0,1 @ F,0,0,1,0,0.25,0,1 @ F,0,0,1,0,0.25,0,1 @ F,0,0,1,0,0.25,0,1 | F,0,0,1,0,0.25,0,1 @ F,0,0,1,0,0.25,0,1 @ F,0,0,1,0,0.25,0,1 @ F,0,0,1,0,0.25,0,1 | F,0,0,1,0,0.25,0,1 @ F,0,0,1,0,0.25,0,1 @ F,0,0,1,0,0.25,0,1 @ F,0,0,1,0,0.25,0,1 | F,0,0,1,0,0.25,0,1 @ F,0,0,1,0,0.25,0,1 @ F,0,0,1,0,0.25,0,1 @ F,0,0,1,0,0.25,0,1"
       radius="0.25"
       unit="px"
       method="auto"
       mode="F"
       chamfer_steps="1"
       flexible="false"
       use_knot_distance="true"
       apply_no_radius="true"
       apply_with_radius="true"
       only_selected="false"
       hide_knots="false" /></defs><sodipodi:namedview
     id="namedview282016"
     pagecolor="#ffffff"
     bordercolor="#666666"
     borderopacity="1.0"
     inkscape:showpageshadow="2"
     inkscape:pageopacity="0.0"
     inkscape:pagecheckerboard="0"
     inkscape:deskcolor="#d1d1d1"
     showgrid="false"
     inkscape:zoom="2"
     inkscape:cx="200"
     inkscape:cy="200"
     inkscape:window-width="1776"
     inkscape:window-height="1055"
     inkscape:window-x="2542"
     inkscape:window-y="52"
     inkscape:window-maximized="0"
     inkscape:current-layer="g282022"><inkscape:page
       x="0"
       y="0"
       id="page282020"
       width="400"
       height="400"
       margin="0"
       bleed="0" /></sodipodi:namedview><g
     id="g282022"
     inkscape:groupmode="layer"
     inkscape:label="Base Uniform"><path
       style="fill:#d30000;stroke:none;stroke-width:1px;stroke-linecap:butt;stroke-linejoin:miter;stroke-opacity:1;fill-opacity:1"
       d="m 248.5,264.5 4.1875,12.4375 14.125,-0.6875 -1.4375,-9.875 0.0625,-2.0625 -7.1875,1.6875 -5.0625,-0.5625 z"
       id="path16" /><path
       id="path283350"
       style="fill:#808889;fill-opacity:1;fill-rule:nonzero;stroke:none;stroke-width:1.33333"
       d="m 192.6582,202.07227 c -1.54022,3.0071 -3.36833,7.35845 -4.32422,10.36328 -2.7947,6.33017 -4.54784,8.50829 -6.52148,12.02734 -14.34654,6.4495 -26.45644,10.66795 -50.14844,24.25195 -16.34721,4.40719 -36.791847,9.0153 -54.478513,19.41797 -3.369333,1.98133 -12.234859,6.10026 -15.736328,8.22657 -9.936686,13.29957 -10.876243,22.36923 -14.429688,38.74609 -3.757217,17.31599 -6.124879,32.92972 -8.042969,50.56445 -0.958666,5.632 -0.927686,10.68976 -1.84375,18.00196 -0.776811,5.36027 -0.367952,11.53731 -0.146484,15.56054 0.01467,0.24667 0.03406,0.49038 0.05273,0.73438 H 381.71875 c -0.20025,-12.17983 -0.9014,-24.58833 -1.40039,-31.04688 -0.0238,-0.30798 -0.20618,-0.65433 -0.51953,-1.0293 0.90751,-9.75063 1.08513,-17.22273 -1.13672,-24.70117 -1.22133,-4.10533 -1.94086,-13.74684 -3.1582,-17.85351 -4.57851,-18.15856 -5.33719,-32.57907 -13.4961,-41.93946 -2.89662,-3.32318 -7.69664,-5.10149 -12.89062,-6.82617 -12.8914,-3.90462 -34.60406,-14.01999 -47.00977,-15.45898 -5.24834,-0.67437 -13.42524,-7.33614 -17.09375,-9.26563 -3.29362,-1.73231 -6.49193,-4.54418 -8.97851,-6.31836 -1.38326,-4.00554 -2.35514,-8.1372 -3.44727,-12.22851 l -5.55859,6.01367 c -0.0245,0.0208 -0.0478,0.0419 -0.0723,0.0625 L 265.5,264.5 l 1.3125,11.75 -14.125,0.375 L 249,266.5 240.79688,238.61133 c -6.70848,-2.44714 -13.15044,-6.10458 -18.83204,-10.27735 -10.58557,-7.77327 -28.33729,-26.38484 -29.30664,-26.26171 z"
       sodipodi:nodetypes="ccccccscccccscccsccsccccccccccc" /><path
       style="baseline-shift:baseline;display:inline;overflow:visible;opacity:1;vector-effect:none;fill:#2d2d2d;enable-background:accumulate;stop-color:#000000;stop-opacity:1"
       d="m 163.71289,266.61133 -7.67578,2.77734 c 0,0 21.09776,48.77358 31.23242,73.08399 5.14344,12.33776 9.24152,27.38474 12.98828,40.60742 1.46634,5.17483 3.57813,16.91992 3.57813,16.91992 h 6.93164 c 0,0 -1.90895,-12.24323 -3.77539,-18.83008 -3.73044,-13.16508 -7.85172,-28.41538 -13.26172,-41.39258 -10.1827,-24.42565 -30.01758,-73.16601 -30.01758,-73.16601 z"
       id="path6"
       sodipodi:nodetypes="ccssccssc" /><path
       style="baseline-shift:baseline;display:inline;overflow:visible;opacity:1;vector-effect:none;fill-opacity:0.2;enable-background:accumulate;stop-color:#000000;stop-opacity:1;fill:#000000"
       d="m 260.90039,277.03125 -0.97266,0.23633 c 0,0 5.99677,24.58225 9.08789,36.85547 3.77964,15.00692 7.89163,29.92002 11.55665,44.9375 1.90985,7.82569 4.10599,17.24886 5.25585,25.1914 0.78312,5.40919 1.52735,15.7119 1.52735,15.7119 h 0.99609 c 0,0 -0.73733,-10.3592 -1.5332,-15.85647 -1.15965,-8.01012 -3.36359,-17.44953 -5.27539,-25.2832 -3.66971,-15.03671 -7.78259,-29.95479 -11.5586,-44.94727 -3.08869,-12.26352 -9.08398,-36.8457 -9.08398,-36.8457 z"
       id="path19"
       sodipodi:nodetypes="ccsssccssscc" /><path
       style="baseline-shift:baseline;display:inline;overflow:visible;opacity:1;vector-effect:none;fill-opacity:0.2;enable-background:accumulate;stop-color:#000000;stop-opacity:1;fill:#000000"
       d="m 322.59375,276.64648 -2.1875,0.70704 c 0,0 23.11551,71.6231 29.46094,108.34179 0.70319,4.06915 0.98242,14.26954 0.98242,14.26954 h 2.30078 c 0,0 -0.24059,-10.16397 -1.01758,-14.66014 C 345.71358,348.15898 322.59375,276.6465 322.59375,276.6465 Z"
       id="path11"
       sodipodi:nodetypes="ccsccscc" /><path
       style="fill:#d30000;stroke:none;stroke-width:1px;stroke-linecap:butt;stroke-linejoin:miter;stroke-opacity:1;fill-opacity:1"
       d="m 365.5,335 3.375,44.25 -7,-20.125 2.0625,-12.5625 z"
       id="path18" /><path
       id="path75"
       style="baseline-shift:baseline;display:inline;overflow:visible;vector-effect:none;fill:#d30000;enable-background:accumulate;stop-color:#000000"
       d="M 209.15234 219.47461 L 202.09766 242.52734 L 91.457031 296.85742 L 94.542969 303.14258 L 163.42969 269.3125 C 167.81138 279.07956 185.33231 318.32713 193.66992 339.88477 C 199.13512 354.01553 202.99908 366.39951 206.9375 381.08398 C 208.32895 386.27205 210.30982 397.40083 210.76562 400 L 217.68945 400 C 217.26328 397.30422 215.33914 385.384 213.69922 379.26953 C 209.7189 364.42881 205.76076 351.73921 200.19922 337.35938 C 191.64299 315.23651 173.93554 275.61875 169.7168 266.22461 L 207.90234 247.47266 L 215.84766 221.52539 L 209.15234 219.47461 z M 272.73242 232.77344 L 270.81055 234.88867 L 273.93359 255.63672 L 275.01172 256.37891 C 275.01172 256.37891 288.86373 265.99586 297.69336 270.57227 C 321.14955 282.72962 364.61133 305.41602 364.61133 305.41602 L 364.15625 297.86523 C 364.15625 297.86523 324.4602 276.56038 300.91602 264.35742 C 293.55298 260.54115 281.72534 252.47406 280.05859 251.33398 L 275.89062 248.75781 L 272.73242 232.77344 z " /><path
       id="path76"
       style="baseline-shift:baseline;display:inline;overflow:visible;vector-effect:none;enable-background:accumulate;stop-color:#000000;fill:#000000;fill-opacity:1"
       d="M 208.91992 219.03711 L 201.80664 242.2793 L 90.988281 296.69727 L 94.382812 303.61133 L 163.25781 269.78711 C 167.75518 279.81418 185.05889 318.59046 193.34375 340.01172 C 198.80415 354.13008 202.66327 366.49713 206.59961 381.17383 C 207.97011 386.28378 209.93506 397.29514 210.41016 400 L 211.11914 400 C 210.81654 398.26078 208.75 386.49224 207.27539 380.99414 C 203.33489 366.3019 199.46609 353.90097 193.99609 339.75781 C 185.65053 318.17961 168.13239 278.93855 163.75 269.16992 L 163.60156 268.83789 L 94.703125 302.67383 L 91.925781 297.01758 L 202.38867 242.77539 L 209.38477 219.91016 L 215.41016 221.75781 L 207.61133 247.22461 L 169.25977 266.05859 L 169.39844 266.36719 C 173.61646 275.75974 191.32471 315.38387 199.87305 337.48633 C 205.42975 351.85367 209.38312 364.52652 213.36133 379.35938 C 215.06692 385.71873 217.04407 398.16368 217.33203 400 L 218.04297 400 C 217.63485 397.41173 215.69972 385.37875 214.03711 379.17969 C 210.05468 364.33111 206.09177 351.62476 200.52539 337.23242 C 192.00419 315.20013 174.50414 276.03945 170.17188 266.39062 L 208.19336 247.7207 L 216.28516 221.29297 L 208.91992 219.03711 z M 272.94141 232.02344 L 270.43945 234.77539 L 273.60938 255.83984 L 274.8125 256.66797 L 274.8125 256.66602 C 274.8125 256.66602 288.6585 266.28304 297.5332 270.88281 C 320.98828 283.03958 364.44922 305.72656 364.44922 305.72656 L 364.99805 306.01172 L 364.49414 297.64844 L 364.32227 297.55664 C 364.32227 297.55664 324.62542 276.25246 301.07617 264.04688 C 293.75609 260.25288 281.92078 252.18375 280.25586 251.04492 L 280.25 251.04102 L 276.20508 248.54102 L 272.94141 232.02344 z M 272.52344 233.52539 L 275.57617 248.97461 L 279.875 251.63086 C 281.55825 252.78219 293.35571 260.83246 300.75586 264.66797 C 324.23088 276.83508 363.60319 297.96655 363.81836 298.08203 L 364.22461 304.82031 C 363.52212 304.45363 321.11853 282.31998 297.85352 270.26172 C 289.06896 265.70867 275.21094 256.0918 275.21094 256.0918 L 274.25781 255.43359 L 271.18164 235.00195 L 272.52344 233.52539 z " /><path
       d="m 37.722,399.96667 h 21.767 c 0.196,-3.43334 0.216103,-6.15552 0.293433,-9.45018 0.142667,-6.028 0.625418,-12.72712 1.533418,-18.68179 1.664043,-10.89316 1.52185,-15.92025 4.69467,-29.71773 2.758727,-11.99673 5.567538,-16.6545 10.750636,-25.94543 8.061621,-9.83474 8.681112,-10.66445 17.276729,-16.04664 9.830784,-5.05831 15.433984,-7.8084 26.708774,-12.5209 12.06134,-4.93733 26.01867,-8.93733 38.75867,-12.128 2.82667,-0.80533 5.532,-1.54666 8.11733,-2.22666 28.43467,-7.48134 51.85018,-12.94155 51.85018,-12.94155 0,0 -7.81593,-5.17767 -18.83997,-15.09838 -3.77167,-3.39419 -5.84537,-5.61503 -10.24435,-10.19351 -3.46901,-3.61057 -4.26085,-4.8532 -8.73873,-9.84982 -6.75333,2.5483 -27.43479,10.35363 -49.02279,22.6483 -18.69995,5.86575 -35.845712,11.49837 -55.441672,20.31762 -6.939001,2.88838 -12.359196,4.7333 -15.263196,7.33997 -9.815593,11.6216 -9.475789,21.85662 -14.372132,40.35778 -3.949413,17.25627 -6.465631,34.88594 -8.052515,49.71932 z"
       style="opacity:0.199997;fill:#000000;fill-opacity:1;fill-rule:nonzero;stroke:none;stroke-width:1.33333"
       id="path283392"
       sodipodi:nodetypes="ccccsccccccssccccccc" /><path
       d="m 203.92085,245.03401 c -3.10501,-2.26324 -4.65854,-4.85691 -8.11054,-8.33291 -9.57334,-13.50887 -15.72103,-7.74528 -6.96705,-23.79813 3.5985,-6.47393 4.92744,-9.91038 4.92744,-9.91038 l 2.05459,4.26669 c 9.36013,10.82175 14.27483,15.40027 23.1093,23.09499 7.79328,6.78787 9.11049,8.82758 21.75182,11.98758 4.20667,1.052 2.49025,16.17615 2.27425,18.55349 -0.216,2.37733 -8.29331,6.19242 -22.44264,-3.76358 0,0 -11.06478,-8.06517 -16.59717,-12.09775 z"
       style="opacity:0.199997;fill:#000000;fill-opacity:1;fill-rule:nonzero;stroke:none;stroke-width:1.33333"
       id="path283456"
       sodipodi:nodetypes="sccccscscs" /><path
       d="m 111.33562,330.41322 7.76352,26.86486 c 0,0 0.60202,20.67247 0.81871,42.72192 H 133.917 c -2.41933,-24.21582 -3.77567,-29.81609 -7.87467,-42.09981 -3.7728,-11.30615 -14.70671,-27.48697 -14.70671,-27.48697 z"
       style="opacity:0.199997;fill:#000000;fill-opacity:1;fill-rule:nonzero;stroke:none;stroke-width:1.33333"
       id="path283476"
       sodipodi:nodetypes="ccccsc" /><path
       id="path1"
       style="color:#000000;display:inline;fill:#000000;-inkscape-stroke:none"
       d="m 364.85547,325.46289 c 0,0 -0.51194,14.53864 -1.02735,21.63281 -0.20476,2.81845 -0.91809,7.43803 -1.38281,10.29883 -0.85612,-2.40593 -1.68043,-4.81181 -2.36133,-7.24023 -2.23763,-7.98055 -6.85351,-24.30469 -6.85351,-24.30469 0,0 1.9406,16.78278 4.25391,25.0332 2.10991,7.52499 5.30085,14.575 7.36328,21.83203 1.55841,5.48362 3.09887,10.94537 3.83398,16.46875 0.4375,3.28725 0.37695,10.81641 0.37695,10.81641 h 2.69922 c 0,0 0.10748,-7.37057 -0.39843,-11.17188 -1.19843,-7.91545 -3.33427,-15.60729 -5.94923,-23.16017 0.35883,-0.73745 2.12746,-4.40533 2.86914,-6.64844 0.86885,-2.62769 1.11038,-5.31988 1.8164,-7.77734 0.85876,-2.98907 2.37891,-9.24805 2.37891,-9.24805 0,0 -2.91971,5.69929 -3.82031,8.83398 -0.7588,2.64113 -1.00427,5.31175 -1.80078,7.72071 -0.46187,1.39684 -1.45463,3.59515 -2.16211,5.11523 -0.42045,-1.1669 -0.70416,-1.96226 -1.12696,-3.12109 0.91356,-3.8561 1.70687,-9.39258 2.0586,-13.31836 0.53275,-7.33303 -0.76758,-21.76172 -0.76758,-21.76172 z"
       sodipodi:nodetypes="cscscsssccscsscssccscc" /><path
       id="path15"
       style="display:inline;fill:#000000;fill-opacity:0.2;stroke:none;stroke-width:1px;stroke-linecap:butt;stroke-linejoin:miter;stroke-opacity:1"
       d="m 364.20898,316.29297 c 0,0 -0.72611,15.99443 -1.9375,23.89258 -0.29449,1.92007 -0.39779,5.55828 -1.29101,5.68359 -0.66356,0.0931 -2.09091,-3.38508 -2.9707,-5.16602 -1.3846,-2.80278 -3.61719,-8.65429 -3.61719,-8.65429 l 2.45508,11.23633 4.00195,14.20703 6.58789,17.04883 0.61523,4.31444 2.17579,10.18556 0.18164,5.6621 V 400 h 5.11523 c 0,0 -0.25866,-7.75494 -0.73047,-11.32422 -0.41721,-3.1562 -1.57937,-8.07662 -2.19531,-11.60937 -0.76039,-4.3613 -1.68875,-7.79882 -2.78506,-11.74022 0,0 0.64214,-7.71008 1.2394,-10.15774 0.89273,-3.65854 1.83083,-7.09062 2.0664,-10.84912 0.2293,-3.65845 -0.25902,-10.46191 -0.25902,-10.46191 0,0 -0.78894,3.45331 -1.54883,5.03711 -0.63015,1.31339 -2.02252,4.69199 -2.32617,4.65039 -0.97262,-0.13322 -0.64076,-2.21571 -0.77344,-2.8418 -0.95761,-4.51891 -0.23329,-9.27082 -1.0332,-13.82031 -0.6349,-3.61099 -2.97071,-10.58984 -2.97071,-10.58984 z"
       sodipodi:nodetypes="cssscccccccccsscsscssssc" /><path
       style="color:#000000;fill:#000000;-inkscape-stroke:none"
       d="m 363.76682,302.30813 c 0.74094,13.60196 0.34879,25.96462 -0.41368,39.53218 -0.36643,6.52043 -2.3553,19.78856 -2.3553,19.78856 l 2.37368,0.35744 c 0,0 1.99436,-13.192 2.37752,-20.01033 0.76931,-13.68918 0.496,-27.42495 -0.24797,-41.08233 -0.24596,-4.51517 -3.23678,-16.5759 -3.23678,-16.5759 0,0 1.26919,13.70691 1.50253,17.99038 z"
       id="path2"
       sodipodi:nodetypes="ssccsscs" /><path
       style="baseline-shift:baseline;display:inline;overflow:visible;opacity:1;vector-effect:none;fill:#000000;fill-opacity:0.3;enable-background:accumulate;stop-color:#000000;stop-opacity:1"
       d="m 261.6613,275.71659 -3.39258,0.86133 c 0,0 8.83363,33.85656 13.71175,54.44747 4.68113,19.75938 9.60491,35.4848 13.00769,55.35615 0.42979,2.50989 1.28567,13.61846 1.28567,13.61846 h 3.48633 c 0,0 -0.82905,-11.33841 -1.32082,-14.21025 -3.44128,-20.09617 -8.38609,-35.87324 -13.05262,-55.571 -4.89512,-20.66267 -13.72542,-54.50216 -13.72542,-54.50216 z"
       id="path3"
       sodipodi:nodetypes="ccssccssc" /><path
       style="baseline-shift:baseline;display:inline;overflow:visible;opacity:1;vector-effect:none;fill-opacity:0.2;enable-background:accumulate;stop-color:#000000;stop-opacity:1;fill:#000000"
       d="m 264.2253,275.57812 -1.60849,0.64258 c 0,0 10.29787,35.32968 15.86523,58.05274 4.15425,16.95549 8.97185,33.75134 11.48047,50.89258 0.6818,4.65865 1.34375,14.81932 1.34375,14.81932 h 1.69443 c 0,0 -0.64194,-10.22251 -1.36328,-15.15136 -2.53845,-17.34506 -7.38159,-34.21051 -11.52148,-51.10742 -5.5922,-22.82444 -15.89063,-58.14844 -15.89063,-58.14844 z m -9.60075,1.7129 c 0,0 10.70209,42.65162 17.36134,68.99023 3.36705,13.31736 6.62784,27.34204 9.20117,40.81836 0.77508,4.05906 1.15039,12.88573 1.15039,12.88573 h 1.79668 c 0,0 -0.3232,-8.7911 -1.1875,-13.31738 -2.58533,-13.53918 -5.85781,-27.60202 -9.23242,-40.94922 -6.65763,-26.33221 -17.16992,-68.39063 -17.16992,-68.39063 z"
       id="path9"
       sodipodi:nodetypes="ccssccssccssccsscc" /><path
       id="path10"
       style="baseline-shift:baseline;display:inline;overflow:visible;opacity:1;vector-effect:none;enable-background:accumulate;stop-color:#000000;stop-opacity:1;fill:#000000;fill-opacity:1"
       d="m 192.67969,199.00195 c -0.26366,0.0623 -0.51022,0.19709 -0.71289,0.39844 -4.83261,10.71265 -6.07201,13.44473 -10.0586,21.94727 -4.51159,3.17721 -9.36001,5.71356 -14.36328,8.01562 -4.70589,2.14462 -12.46308,6.36179 -21.5957,10.50195 -9.13262,4.1402 -17.97778,6.15144 -29.99024,10.17188 -12.01241,4.02044 -39.269549,15.33508 -51.14648,20.48633 -1.801456,1.21501 -3.931006,1.84123 -5.560547,3.04101 -15.771595,29.05003 -20.106466,66.9963 -21.945312,97.73828 -0.73296,9.53919 -1.116622,19.1361 -1.744141,28.66407 h 4.427734 c 0.557379,-0.25223 0.453154,-11.42022 0.794922,-14.96875 0.774839,-8.04504 0.958299,-24.96496 3.648438,-44.79102 2.638991,-19.4491 7.67911,-41.69563 19.214844,-61.10547 2.249763,-0.30739 10.618695,-0.0626 14.988281,3.52149 3.130037,2.811 8.891036,8.71813 11.429687,11.38476 -3.599328,-6.2342 -6.747697,-10.29857 -11.697265,-14.91601 -5.483182,-3.3559 -7.511421,-4.20862 -11.900391,-3.90821 6.410482,-3.26283 36.20188,-15.30402 43.25781,-17.86718 16.21592,-5.04977 32.14608,-9.3186 47.16602,-17.29493 5.39776,-2.79403 9.10585,-4.54353 13.46875,-7.09765 3.3198,-1.94348 8.67017,-4.94641 12.25195,-7.15039 1.44727,1.54483 5.85524,6.20571 11.2832,11.50781 6.66224,6.50774 14.81945,13.9751 21.14649,17.96875 6.44408,4.06753 13.32058,7.85059 20.11719,10.30078 4.28319,1.53379 8.28024,3.08239 12.79101,3.77144 l 3.33103,8.97215 17.32718,-0.60692 -1.3418,-11.01953 c 3.81776,-2.42102 6.16709,-5.89898 8.04687,-9.98242 0.85023,-1.84693 1.11912,-4.35601 1.28516,-6.53516 0.0556,-0.72932 0.0915,-1.41621 0.11523,-2.00781 l 2.92188,1.55469 c 0.30905,0.19623 5.14048,3.38531 8.16016,5.55664 3.12133,2.24442 7.50313,7.1096 10.50781,8.13671 16.65057,3.90378 26.95728,7.00348 42.03515,11.86329 4.7694,1.61358 16.71952,5.23259 19.38282,6.73437 2.46171,0.65733 4.60064,5.08659 6.03125,8.98633 2.16885,5.91214 4.15758,13.28606 5.76953,21.39062 3.59213,18.06052 6.526,39.9955 7.72851,57.51368 C 380.09376,380.79609 380.23434,400 380.23438,400 h 3 c 0,0 -0.32338,-21.30363 -1.09961,-32.27344 -1.35728,-19.18136 -3.81929,-36.48149 -7.72071,-56.16406 -1.63883,-8.26784 -3.49181,-14.47159 -6.3457,-22.26953 -1.55648,-4.2529 -2.8878,-6.95109 -6.29883,-9.94922 -15.43354,-6.77409 -45.0211,-15.61905 -62.36328,-19.59766 -7.13234,-5.81349 -14.90345,-9.96337 -18.94531,-12.5664 -4.04188,-2.60307 -4.13435,-2.71247 -4.24024,-3.10742 -0.95618,-3.56631 -1.06559,-5.41536 -1.89843,-7.89063 l -0.73829,-6.75586 c -0.40333,0.55043 -2.96219,3.38409 -3.36328,3.8711 -0.86892,1.05499 -2.4768,2.48151 -4.11914,3.7871 l -0.16408,3.53321 c 0.0273,-0.0219 -1.5469,25.92579 -1.5469,25.92579 l 1.13868,8.74023 -12.17578,0.55274 -2.71875,-6.82813 -8.10938,-31.34179 c -10.92933,-3.74844 -18.9288,-10.26653 -26.75195,-16.4668 -13.05283,-10.34508 -20.89649,-20.08008 -20.89649,-20.08008 l 0.80664,-1.83984 c -0.27333,-0.0907 -1.8506,-0.23361 -2.22656,-0.24805 z m 1.54492,6.12891 c 2.78579,3.15063 5.85349,6.19624 9.43945,9.73633 6.76112,6.67462 10.35983,9.4515 16.97071,13.99804 4.76872,3.27962 8.20405,5.40908 12.21093,7.3711 2.43659,1.19462 4.96561,2.1913 7.43016,3.32712 l 6.65334,26.68996 c -4.16594,-0.8225 -7.94053,-2.07006 -13.48384,-4.38427 -6.07385,-2.53569 -11.62054,-5.64874 -16.9082,-8.98633 -5.90378,-3.72648 -14.07578,-11.15088 -20.68359,-17.60547 -5.71553,-5.58298 -10.29048,-10.445 -11.42188,-11.65625 2.97388,-5.78308 6.86874,-13.98144 9.79297,-18.49023 z m 78.16992,29.2207 c 0.47157,1.30009 0.92562,5.41351 1.14649,7.08985 0.3312,2.5137 0.68845,3.82645 0.55273,4.28125 0,0 -0.12877,2.15786 -0.28516,4.21484 -0.15672,2.05698 -0.54682,4.51309 -1.03711,5.57812 -1.42452,3.09451 -3.19059,5.65825 -5.61328,7.66211 l 1.75449,-25.02751 c 0.62364,-0.73064 2.51337,-2.53269 3.48184,-3.79866 z M 99.759766,310.43555 c 0,0 2.004974,4.49658 4.289064,10.875 3.00901,8.4028 5.53582,14.47056 7.2207,21.94336 2.12989,9.44653 3.33514,16.45125 3.92383,21.11718 0.54003,4.28017 3.15051,19.4418 2.92187,35.62891 h 5.29297 c -0.18394,-6.26654 -0.39763,-15.1296 -0.66601,-19.4707 -0.61574,-9.97037 -1.56622,-16.21007 -3.67188,-27.3086 -1.18861,-6.26494 -4.66688,-17.53648 -9.03711,-25.95312 -1.62365,-3.12928 -3.32539,-6.20455 -5.05664,-9.06446 -1.73275,-2.86103 -3.48924,-5.50685 -5.216794,-7.76757 z"
       sodipodi:nodetypes="ccccsscccccsscccccccscsssccccssccscccsscscsssccssccscccccccscccccsssccsssccccccsccccssscccscccs" /><g
       id="g12"
       transform="translate(-0.62520019,-0.625)"><path
         d="m 263.26408,280.84545 -0.88967,-3.67855 -3.58423,0.10502 0.88967,3.67855 -1.99264,0.0594 3.1553,13.05026 7.56847,-0.22249 -3.15396,-13.05025 z"
         style="clip-rule:evenodd;fill:#d7d7d7;fill-opacity:1;fill-rule:nonzero;stroke-width:1.33333;stroke-miterlimit:10"
         id="path327"
         sodipodi:nodetypes="ccccccccc" /><path
         d="m 267.58872,293.19033 -6.2434,0.18377 -2.83349,-11.71828 0.66786,-0.0194 0.53714,2.22126 c 0.0767,0.31865 0.36498,0.56641 0.67849,0.62344 -0.28161,0.0736 -0.44737,0.33386 -0.36968,0.65385 l 1.5878,6.56646 c 0.0893,0.36799 0.45633,0.65701 0.82359,0.6473 l 3.58261,-0.10637 c 0.36608,-0.009 0.59103,-0.31667 0.50149,-0.68599 l -1.58781,-6.56646 c -0.0767,-0.31866 -0.36499,-0.56642 -0.67821,-0.62211 0.28131,-0.075 0.44707,-0.33519 0.36968,-0.65385 l -0.53743,-2.2226 0.66785,-0.0194 z m -7.97391,-15.27245 2.25917,-0.0663 1.26466,5.23449 -2.25784,0.0663 z m 4.15578,7.77743 1.26467,5.23449 -2.25918,0.0663 -1.26467,-5.23449 z m 1.32509,-5.5759 -1.33011,0.0401 -0.72888,-3.01324 c -0.0872,-0.36799 -0.45632,-0.65699 -0.82197,-0.64596 l -3.58422,0.10503 c -0.36609,0.009 -0.5897,0.31669 -0.50148,0.686 l 0.7286,3.0119 -1.3304,0.0387 c -0.36562,0.0111 -0.59075,0.31802 -0.50148,0.686 l 3.15558,13.05158 c 0.0893,0.36799 0.45766,0.657 0.8233,0.64597 l 7.56875,-0.22114 c 0.36563,-0.0111 0.58941,-0.31802 0.50149,-0.68601 l -3.15558,-13.05157 c -0.0893,-0.36799 -0.45766,-0.65702 -0.82359,-0.6473"
         style="clip-rule:evenodd;fill:#000000;fill-opacity:1;fill-rule:nonzero;stroke-width:1.33333;stroke-miterlimit:10"
         id="path328"
         sodipodi:nodetypes="cccccccccccccccccccccccccccccccccccccccccc" /></g><path
       style="fill:#808889;stroke:#4a4a4a;stroke-width:1px;stroke-linecap:butt;stroke-linejoin:miter;stroke-opacity:1;fill-opacity:1"
       d="m 319.625,363.875 0.875,8.625 16.25993,-9.65433 2.43177,-4.44377 13.3083,-7.9018 -0.875,-6.6251 z"
       id="path13"
       sodipodi:nodetypes="ccccccc" /><path
       style="baseline-shift:baseline;display:inline;overflow:visible;vector-effect:none;enable-background:accumulate;stop-color:#000000;stop-opacity:1;opacity:1;fill:#000000;fill-opacity:1"
       d="m 265.39062,263.59961 c 0,0 -1.40105,0.46209 -3.0957,0.91601 -1.69464,0.45393 -3.73132,0.88214 -4.71484,0.85938 -3.04005,-0.0703 -9.32227,-1.72461 -9.32227,-1.72461 l -0.39062,1.44922 c 0,0 6.17056,1.69431 9.67773,1.77539 1.40215,0.0324 3.39653,-0.44403 5.13672,-0.91016 1.74019,-0.46612 3.17774,-0.93945 3.17773,-0.93945 z"
       id="path14" /><path
       style="baseline-shift:baseline;display:inline;overflow:visible;vector-effect:none;fill-opacity:0.30000001;enable-background:accumulate;stop-color:#000000;stop-opacity:1;opacity:1;fill:#000000"
       d="m 265.80078,269.51953 c 0,0 -5.19992,1.45315 -7.69336,1.54297 -2.33658,0.0842 -7.31836,-0.92773 -7.31836,-0.92773 l -0.20312,0.98046 c 0,0 4.89888,1.04299 7.55664,0.94727 2.8146,-0.10138 7.93164,-1.58203 7.93164,-1.58203 z"
       id="path17" /><path
       id="path69"
       style="baseline-shift:baseline;display:inline;overflow:visible;vector-effect:none;enable-background:accumulate;stop-color:#000000;stop-opacity:1;opacity:1;fill:#000000;fill-opacity:0.2"
       d="M 209.14648 219.49414 L 208.32031 222.19336 L 212.97656 230.90234 L 213.80273 228.20508 L 209.14648 219.49414 z M 212.17773 220.40039 L 214.73047 225.17578 L 215.55664 222.47852 L 214.88867 221.23242 L 212.17773 220.40039 z M 207.39453 225.21875 L 206.56836 227.91602 L 211.22461 236.625 L 212.05078 233.92773 L 207.39453 225.21875 z M 205.64258 230.94531 L 204.81641 233.64258 L 209.4707 242.34961 L 210.29688 239.65234 L 205.64258 230.94531 z M 272.32031 233.22852 L 270.81055 234.88867 L 270.83008 235.02344 L 279.35352 259.32617 L 279.35547 259.32617 C 280.19295 259.88579 281.12177 260.50256 282.11523 261.1543 L 278.28711 250.23828 L 275.89062 248.75781 L 273.4707 236.50781 L 272.32031 233.22852 z M 203.88867 236.67188 L 203.06445 239.37109 L 207.36328 247.41602 L 207.5 247.66992 L 207.90234 247.47266 L 208.54297 245.37891 L 203.88867 236.67188 z M 207.36328 247.41602 L 205.71875 246.07422 L 204.65234 249.06836 L 207.22461 247.80469 L 207.36328 247.41602 z M 202.22656 243.22461 L 199.19336 251.75 L 201.76367 250.48633 L 203.87109 244.56641 L 202.22656 243.22461 z M 199.66797 243.7207 L 197.0957 244.98438 L 193.73438 254.42969 L 196.30664 253.16797 L 199.66797 243.7207 z M 194.20703 246.40234 L 191.63477 247.66602 L 188.27344 257.11328 L 190.8457 255.84961 L 194.20703 246.40234 z M 272.61914 246.90039 L 273.93359 255.63672 L 275.01172 256.37891 C 275.01172 256.37891 275.45671 256.68704 276.23828 257.2207 L 272.61914 246.90039 z M 188.74609 249.08398 L 186.17578 250.3457 L 182.81445 259.79297 L 185.38477 258.5293 L 188.74609 249.08398 z M 183.28906 251.76367 L 180.71484 253.02734 L 177.35352 262.47461 L 179.92773 261.21094 L 183.28906 251.76367 z M 281.36133 252.2207 L 285.19531 263.15234 C 286.08328 263.7216 286.9965 264.30124 287.91992 264.87891 L 284.13281 254.07812 L 284.13086 254.07812 C 283.02686 253.34452 282.08023 252.70727 281.36133 252.2207 z M 177.82812 254.44531 L 175.25586 255.70898 L 171.89258 265.15625 L 174.4668 263.89258 L 177.82812 254.44531 z M 287.22461 256.11328 L 290.95508 266.74609 C 291.85594 267.29028 292.75123 267.81993 293.62891 268.32812 L 289.96289 257.875 C 289.02023 257.2747 288.10003 256.68293 287.22461 256.11328 z M 172.36914 257.125 L 169.79688 258.38867 L 164.8125 272.39844 C 165.17254 273.20384 165.56783 274.08877 165.99414 275.04492 L 172.36914 257.125 z M 293.01367 259.79102 L 296.58984 269.98828 C 296.96495 270.19046 297.33364 270.38582 297.69336 270.57227 C 298.1822 270.82563 298.6799 271.08349 299.18555 271.3457 L 295.70703 261.42578 L 295.70508 261.42578 C 294.8164 260.89646 293.91455 260.34755 293.01367 259.79102 z M 166.91016 259.80664 L 164.33594 261.07031 L 160.97461 270.51758 L 163.42969 269.3125 C 163.44752 269.35225 163.4661 269.39287 163.48438 269.43359 L 166.91016 259.80664 z M 161.44922 262.48828 L 158.87891 263.75 L 155.51758 273.19922 L 158.08789 271.93555 L 161.44922 262.48828 z M 298.69336 263.1543 L 302.0957 272.85547 C 302.94232 273.29487 303.8058 273.74431 304.68555 274.20117 L 301.30469 264.55859 C 301.17493 264.4913 301.04482 264.42418 300.91602 264.35742 C 300.2115 263.99227 299.46682 263.58749 298.69336 263.1543 z M 155.99023 265.16797 L 153.41797 266.43164 L 150.05664 275.88086 L 152.62891 274.61719 L 155.99023 265.16797 z M 304.21289 266.07031 L 307.59375 275.71094 C 308.44667 276.15411 309.3118 276.6044 310.18555 277.05859 L 306.80664 267.42383 C 305.92742 266.96448 305.0626 266.51287 304.21289 266.07031 z M 150.53125 267.84961 L 147.95703 269.11328 L 144.5957 278.5625 L 147.16797 277.29883 L 150.53125 267.84961 z M 170.71875 268.45703 L 167.31641 278.01758 C 167.69336 278.86536 168.08759 279.75286 168.49609 280.67383 L 171.90039 271.10352 C 171.46639 270.13172 171.07164 269.245 170.71875 268.45703 z M 309.7207 268.94922 L 313.0957 278.57031 C 313.95375 279.01653 314.81743 279.46731 315.6875 279.91992 L 312.31836 270.31055 C 311.44364 269.85121 310.57723 269.39801 309.7207 268.94922 z M 145.07031 270.53125 L 142.5 271.79297 L 139.13672 281.24219 L 141.70703 279.98047 L 145.07031 270.53125 z M 315.23438 271.84375 L 318.59766 281.43359 C 319.45983 281.88224 320.32444 282.33195 321.19141 282.7832 L 317.83594 273.21484 C 316.96419 272.7553 316.0964 272.2974 315.23438 271.84375 z M 139.61133 273.21094 L 137.03906 274.47461 L 133.67578 283.92383 L 136.25 282.66016 L 139.61133 273.21094 z M 173.22656 274.07422 L 169.81641 283.65625 C 170.19893 284.521 170.59112 285.40944 170.99219 286.31836 L 174.40625 276.72656 C 173.99567 275.80229 173.60165 274.9165 173.22656 274.07422 z M 320.75391 274.75391 L 324.09961 284.29688 C 324.96474 284.74729 325.83009 285.1989 326.69336 285.64844 L 323.35547 276.12891 C 322.48711 275.66975 321.61977 275.21112 320.75391 274.75391 z M 134.15234 275.89258 L 131.58008 277.15625 L 128.2168 286.60547 L 130.78906 285.3418 L 134.15234 275.89258 z M 326.27539 277.67383 L 329.60352 287.16406 L 329.60547 287.16406 C 330.47356 287.61621 331.3379 288.06598 332.19727 288.51367 L 328.87891 279.05273 C 328.01353 278.594 327.14522 278.1344 326.27539 277.67383 z M 128.69336 278.57227 L 126.12109 279.83594 L 122.75781 289.28711 L 125.33008 288.02344 L 128.69336 278.57227 z M 175.72852 279.70898 L 172.3125 289.31055 C 172.69731 290.18512 173.08812 291.07553 173.48438 291.97852 L 176.9043 282.36523 C 176.50242 281.45575 176.10998 280.57011 175.72852 279.70898 z M 331.80273 280.60352 L 335.10938 290.03125 C 335.98171 290.48578 336.84554 290.93691 337.70117 291.38281 L 334.40625 281.98633 C 333.54455 281.52856 332.67639 281.06718 331.80273 280.60352 z M 123.23438 281.25391 L 120.66016 282.51758 L 117.29688 291.96875 L 119.87109 290.70508 L 123.23438 281.25391 z M 337.33203 283.54102 L 340.61328 292.90039 C 341.49087 293.35781 342.35663 293.80864 343.20703 294.25195 L 339.93555 284.92578 C 339.07809 284.4694 338.21063 284.00824 337.33203 283.54102 z M 117.77344 283.93555 L 115.20312 285.19727 L 111.83984 294.64844 L 114.41016 293.38672 L 117.77344 283.93555 z M 178.22266 285.35547 L 174.79883 294.97852 C 175.18533 295.86203 175.57549 296.75661 175.96875 297.6582 L 179.39648 288.02344 C 178.99902 287.11894 178.60745 286.22879 178.22266 285.35547 z M 342.86133 286.48438 L 346.11914 295.76953 C 347.00467 296.23123 347.86856 296.68184 348.71094 297.12109 L 345.46875 287.87305 C 344.61747 287.41918 343.74665 286.95602 342.86133 286.48438 z M 112.31445 286.61523 L 109.74219 287.87891 L 106.37891 297.33008 L 108.95117 296.06641 L 112.31445 286.61523 z M 106.85352 289.29688 L 104.28125 290.56055 L 100.91797 300.01172 L 103.49219 298.74805 L 106.85352 289.29688 z M 348.39648 289.43555 L 351.625 298.64062 C 352.52528 299.11015 353.39149 299.56265 354.21875 299.99414 L 351.00391 290.82617 L 351.00195 290.82617 C 350.16169 290.37746 349.29219 289.91351 348.39648 289.43555 z M 180.71289 291.02148 L 177.28125 300.66797 L 177.28125 300.66992 C 177.66842 301.5607 178.05698 302.45649 178.44727 303.35742 L 181.88477 293.69922 L 181.88477 293.69727 C 181.49105 292.79589 181.09894 291.90275 180.71289 291.02148 z M 101.39258 291.97852 L 98.822266 293.24023 L 95.460938 302.69141 L 98.03125 301.42969 L 101.39258 291.97852 z M 353.93164 292.39062 L 357.13086 301.51172 C 358.07197 302.00267 358.93967 302.4557 359.72461 302.86523 L 356.53906 293.78516 C 355.722 293.34813 354.85135 292.8822 353.93164 292.39062 z M 95.935547 294.6582 L 93.363281 295.92188 L 92.369141 298.71484 L 93.599609 301.22266 L 95.935547 294.6582 z M 359.4668 295.35156 L 362.63477 304.38477 C 363.9091 305.04977 364.61133 305.41602 364.61133 305.41602 L 364.50586 303.67578 L 362.07812 296.75 C 361.36879 296.36989 360.49096 295.89986 359.4668 295.35156 z M 183.19531 296.70898 L 179.75391 306.38086 C 180.1411 307.2783 180.5289 308.1793 180.91602 309.08008 L 184.36328 299.39258 C 183.97281 298.49255 183.58188 297.59708 183.19531 296.70898 z M 185.66992 302.41406 L 182.21875 312.11523 L 182.21875 312.11719 C 182.60614 313.02296 182.99083 313.92756 183.375 314.83008 L 186.83398 305.11133 C 186.44596 304.20992 186.05723 303.31037 185.66992 302.41406 z M 188.13672 308.14648 L 184.67188 317.88477 C 185.05901 318.79966 185.44377 319.71076 185.82422 320.61523 L 189.29688 310.85547 C 188.91193 309.95289 188.524 309.05038 188.13672 308.14648 z M 190.5918 313.9043 L 187.11133 323.6875 C 187.49805 324.61392 187.88013 325.53027 188.25586 326.4375 L 191.74609 316.63086 C 191.36468 315.72634 190.9788 314.81688 190.5918 313.9043 z M 193.03711 319.70117 L 189.53516 329.54297 C 189.92138 330.48536 190.29885 331.41336 190.66797 332.32422 L 194.18164 322.44922 C 193.80461 321.54194 193.42364 320.62448 193.03711 319.70117 z M 195.46289 325.54492 L 191.93359 335.46484 L 191.93359 335.4668 C 192.31932 336.43375 192.69046 337.37613 193.04883 338.29102 L 196.59766 328.31836 C 196.22674 327.40793 195.84859 326.48203 195.46289 325.54492 z M 197.86719 331.45117 L 194.29102 341.5 C 194.66237 342.47286 195.02574 343.43763 195.38281 344.39648 L 198.98828 334.26562 C 198.62609 333.34988 198.25253 332.41032 197.86719 331.45117 z M 200.23633 337.45508 L 196.59375 347.69336 L 196.59375 347.69531 C 196.95442 348.69304 197.30873 349.68509 197.65625 350.67383 L 201.33594 340.33398 C 200.97643 339.38162 200.60981 338.42148 200.23633 337.45508 z M 202.55469 343.60547 L 198.83008 354.07227 C 199.17864 355.09733 199.52007 356.11978 199.85742 357.14258 L 203.62305 346.56055 C 203.27287 345.58048 202.918 344.59547 202.55469 343.60547 z M 204.80859 349.92969 L 200.99414 360.64844 C 201.32987 361.70238 201.66294 362.75661 201.99023 363.81641 L 205.84766 352.97461 C 205.50694 351.96117 205.16095 350.9475 204.80859 349.92969 z M 206.99609 356.44531 L 203.08594 367.43359 C 203.40897 368.51589 203.7289 369.60431 204.04688 370.70117 L 208.00195 359.58789 C 207.67122 358.53902 207.33619 357.49161 206.99609 356.44531 z M 209.10938 363.16406 L 205.10742 374.41406 C 205.41845 375.52034 205.72755 376.6367 206.03711 377.76562 L 210.08203 366.39844 C 209.76118 365.31442 209.43666 364.23773 209.10938 363.16406 z M 211.1543 370.08203 L 207.06641 381.57227 L 207.06641 381.57422 C 207.33359 382.61197 207.61806 383.84285 207.9082 385.17188 L 212.0957 373.40625 C 211.78364 372.28906 211.46951 371.18116 211.1543 370.08203 z M 213.13477 377.17969 L 208.78711 389.39844 C 209.04812 390.70746 209.30084 392.01907 209.53516 393.25781 L 214.03906 380.60156 C 213.9248 380.1338 213.81139 379.68777 213.69922 379.26953 C 213.51119 378.56846 213.32287 377.87156 213.13477 377.17969 z M 214.95703 384.7207 L 210.34961 397.66797 C 210.53408 398.69079 210.67814 399.50199 210.76562 400 L 211.64258 400 L 215.71289 388.5625 L 215.71289 388.56055 C 215.4689 387.2688 215.21538 385.9704 214.95703 384.7207 z M 216.51953 392.99219 L 214.02539 400 L 216.14844 400 L 217.20703 397.0293 C 217.01442 395.86732 216.78129 394.4848 216.51953 392.99219 z " /><g
       id="g76"><path
         id="path38"
         style="display:inline;fill:#000000;fill-opacity:1;fill-rule:evenodd;stroke:#000000;stroke-width:1.32849;stroke-miterlimit:20;stroke-dasharray:none;stroke-opacity:1"
         d="m 318.20606,306.98256 c -4.9355,4.7e-4 -8.07312,4.50869 -6.9909,9.60181 1.31344,5.22935 2.94845,10.45818 4.28458,15.68684 l 7.52707,14.83429 3.18654,2.47053 -6.11139,-23.3894 c 0,0 1.45357,0.9564 2.21826,1.04529 0.79816,0.0928 2.16015,-0.57083 2.16015,-0.57083 l 5.93163,22.535 2.21706,-2.09059 -0.0894,-14.73792 -2.59823,-13.12179 -0.37602,-2.66142 c -1.08309,-5.09387 -6.42313,-9.60239 -11.35933,-9.60181 z"
         sodipodi:nodetypes="ccccccsccccccc" /><path
         style="fill:#c8c8c8;fill-opacity:1;stroke:#000000;stroke-width:0.428765;stroke-linecap:butt;stroke-linejoin:miter;stroke-dasharray:none;stroke-opacity:1"
         d="m 312.16604,318.93587 c 0.0363,0.13675 3.82291,13.31788 3.82291,13.31788 l 0.1722,0.89227 3.09469,6.0758 0.0317,0.24101 4.01132,7.82983 3.0826,2.26265 -5.631,-22.92937 2.13887,0.16336 2.16636,-0.46219 5.76264,23.06104 1.00849,-0.81652 1.09957,-1.44545 -0.0194,-8.21598 -0.22681,-0.61198 0.0796,-5.89831 -0.21317,-0.68205 -3.10979,-13.66794 z"
         id="path53"
         sodipodi:nodetypes="ccccccccccccccccccc" /><path
         id="path54"
         style="fill:#c8c8c8;fill-rule:evenodd;stroke:#000000;stroke-width:0.40018;stroke-miterlimit:20;stroke-dasharray:none"
         d="m 317.75343,306.99946 c -4.8808,0.26017 -7.42077,5.81081 -5.62522,12.57974 1.50882,5.68799 5.57154,10.32204 9.72666,11.50265 0.005,0.001 0.009,0.003 0.0142,0.005 l -1.11877,-4.21755 c 0,0 1.34353,0.4139 2.24768,0.33088 0.70628,-0.0648 2.01243,-0.55797 2.01243,-0.55797 l 1.11804,4.30272 c 0.0175,-0.007 0.0349,-0.0142 0.0523,-0.0215 3.55068,-1.49073 5.15804,-6.49686 3.62241,-12.28593 -1.79556,-6.76893 -7.16895,-11.89776 -12.04975,-11.63759 z"
         sodipodi:nodetypes="sssccscccss" /><ellipse
         style="fill:#c8c8c8;fill-opacity:1;fill-rule:evenodd;stroke:#000000;stroke-width:0.288915;stroke-linecap:round;stroke-linejoin:round;stroke-miterlimit:20;stroke-dasharray:none"
         id="circle2"
         cx="233.35632"
         cy="340.28946"
         transform="matrix(0.99858231,-0.05322935,0.25639688,0.96657159,0,0)"
         rx="8.8553543"
         ry="9.8387537" /><path
         id="path52"
         style="fill:#d30000;fill-opacity:1;fill-rule:evenodd;stroke:#000000;stroke-width:0.185422;stroke-linecap:butt;stroke-linejoin:miter;stroke-dasharray:none;stroke-opacity:1"
         d="m 318.1496,308.48264 c -4.11063,0.21911 -6.4961,3.98639 -5.32344,8.40711 0.20708,0.78063 0.51154,1.5299 0.89486,2.23316 -0.12682,0.0145 -0.19868,0.0219 -0.19868,0.0219 l 0.8809,1.37952 c 0,0 0.067,-0.0213 0.18525,-0.0593 0.94714,1.25222 2.15403,2.28896 3.48203,2.99964 0.0185,0.0792 0.029,0.12266 0.029,0.12266 -1.6e-4,-5.9e-4 0.0114,-0.0328 0.0331,-0.0899 1.34832,0.70917 2.81855,1.08267 4.26648,1.00549 4.11063,-0.21912 6.49659,-3.98642 5.32393,-8.40714 -0.22822,-0.86033 -0.57458,-1.68267 -1.01464,-2.44723 0.0356,-0.0306 0.055,-0.047 0.055,-0.047 l -0.50157,-0.73355 c 0,0 -0.01,0.01 -0.0289,0.0284 -1.90259,-2.75087 -5.04214,-4.57577 -8.08337,-4.41366 z m 0.14401,0.54291 c 0.0519,-0.003 0.10372,-0.005 0.15569,-0.007 -0.15959,0.46921 -0.5507,1.63682 -0.72647,2.3126 -0.3008,1.15643 -0.35073,2.39979 -0.4722,3.62927 -0.14289,1.44632 -0.0855,2.09544 -0.0116,3.30362 0.40927,-0.10333 0.77535,-0.21352 1.04808,-0.3274 1.80775,-0.75484 3.29707,-1.38384 4.77687,-2.32902 -1.40788,1.01093 -2.84788,1.85982 -4.64345,2.60957 -0.95481,0.39868 -3.08104,0.70488 -4.19173,0.84446 -0.38721,-0.68911 -0.69316,-1.42755 -0.89783,-2.19912 -1.09482,-4.12731 1.12482,-7.63272 4.96262,-7.83729 z m 0.39552,-0.009 c 2.74663,0.0175 5.5187,1.71694 7.2034,4.21377 -0.49773,0.48406 -1.37933,1.32744 -1.8842,1.72909 -0.30874,0.24563 -0.63348,0.42589 -0.94384,0.64876 -0.22896,-0.44662 -0.46679,-0.89002 -0.71176,-1.32994 -0.56199,-1.00921 -1.15922,-2.00836 -1.83131,-2.96073 -0.48282,-0.68417 -1.44297,-1.8379 -1.83229,-2.30095 z m 7.6532,4.94632 c 0.37697,0.67798 0.67512,1.40288 0.87594,2.15997 1.09483,4.1273 -1.12531,7.63274 -4.96311,7.83732 -1.33866,0.0714 -2.69622,-0.26838 -3.94283,-0.91628 0.22391,-0.54827 0.59516,-1.40108 0.96876,-2.02871 0.36801,-0.61824 1.57295,-2.23497 2.13212,-2.66605 0.3839,-0.29594 0.82607,-0.23235 1.40056,0.0721 0.65002,0.34452 0.93452,0.89201 1.42149,1.56846 0.51391,0.71387 1.59465,2.35502 1.59465,2.35502 0,0 -0.31333,-1.0509 -0.58681,-1.71835 -0.41874,-1.02193 -0.79282,-2.0151 -1.18918,-2.92991 -0.19729,-0.45535 -0.40602,-0.9081 -0.62463,-1.35769 0.12131,-0.11055 0.81898,-0.63114 0.96269,-0.74547 0.51926,-0.4131 1.42107,-1.17829 1.95035,-1.63045 z m -9.01859,5.59735 c 0.11006,0.98518 0.40852,2.40624 0.60154,3.27039 -1.08238,-0.62993 -2.06739,-1.49298 -2.8648,-2.51797 0.57651,-0.18726 1.44781,-0.47334 2.26326,-0.75242 z" /><path
         id="path24"
         style="fill:#c8c8c8;fill-opacity:1;fill-rule:evenodd;stroke:#000000;stroke-width:0.343012;stroke-linecap:round;stroke-linejoin:round;stroke-miterlimit:20;stroke-dasharray:none"
         d="m 327.67126,316.09845 a 8.6791912,6.874955 49.374421 0 1 -5.28656,8.34886 8.6791912,6.874955 49.374421 0 1 -9.50669,-7.56031 8.6791912,6.874955 49.374421 0 1 5.28656,-8.34886 8.6791912,6.874955 49.374421 0 1 9.50669,7.56031 z m 1.44618,-0.0771 a 10.376135,8.2191365 49.374421 0 1 -6.32018,9.98123 10.376135,8.2191365 49.374421 0 1 -11.36542,-9.0385 10.376135,8.2191365 49.374421 0 1 6.32017,-9.98122 10.376135,8.2191365 49.374421 0 1 11.36543,9.03849 z" /><path
         style="baseline-shift:baseline;display:inline;overflow:visible;vector-effect:none;fill:#ffffff;fill-rule:evenodd;stroke-width:0.285843;stroke-linecap:round;stroke-linejoin:round;stroke-miterlimit:20;enable-background:accumulate;stop-color:#000000"
         d="m 317.7909,307.13029 c -0.0274,10e-4 -0.0544,0.003 -0.0816,0.005 4.78452,-0.20704 9.74299,3.75899 11.10729,8.90215 1.36429,5.14317 -1.38115,9.51986 -6.14056,9.82156 0.0274,-10e-4 0.0546,-0.002 0.082,-0.004 4.80978,-0.25638 7.59484,-4.6539 6.22272,-9.82651 -1.3721,-5.17261 -6.37998,-9.15473 -11.18976,-8.89835 z"
         id="path35-3" /><path
         style="fill:none;stroke:#000000;stroke-width:0.285843px;stroke-linecap:butt;stroke-linejoin:miter;stroke-opacity:1"
         d="m 315.94566,326.98608 0.27449,6.2608"
         id="path57"
         sodipodi:nodetypes="cc" /><path
         style="fill:none;stroke:#000000;stroke-width:0.285843px;stroke-linecap:butt;stroke-linejoin:miter;stroke-opacity:1"
         d="m 317.42552,328.43271 1.87567,10.96005"
         id="path58"
         sodipodi:nodetypes="cc" /><path
         style="fill:none;stroke:#000000;stroke-width:0.285843px;stroke-linecap:butt;stroke-linejoin:miter;stroke-opacity:1"
         d="m 320.73972,330.71769 4.33426,17.79784"
         id="path59" /><path
         style="fill:none;stroke:#000000;stroke-width:0.285843px;stroke-linecap:butt;stroke-linejoin:miter;stroke-opacity:1"
         d="m 326.89781,330.35476 4.95172,18.18099"
         id="path60" /><path
         style="fill:none;stroke:#000000;stroke-width:0.285843px;stroke-linecap:butt;stroke-linejoin:miter;stroke-opacity:1"
         d="m 329.22391,327.94249 3.44719,10.32154"
         id="path61"
         sodipodi:nodetypes="cc" /><path
         style="fill:none;stroke:#000000;stroke-width:0.285843px;stroke-linecap:butt;stroke-linejoin:miter;stroke-opacity:1"
         d="m 329.80577,326.48996 2.86329,5.56808"
         id="path62" /></g></g></svg>
