<?xml version="1.0" encoding="UTF-8" standalone="no"?>
<!-- Created with Inkscape (http://www.inkscape.org/) -->

<svg
   version="1.1"
   id="svg171226"
   width="400"
   height="400"
   viewBox="0 0 400 400"
   sodipodi:docname="sfaCadetAverageMale.svg"
   inkscape:version="1.4.4 (dcaf3e7, 2026-05-05)"
   xml:space="preserve"
   xmlns:inkscape="http://www.inkscape.org/namespaces/inkscape"
   xmlns:sodipodi="http://sodipodi.sourceforge.net/DTD/sodipodi-0.dtd"
   xmlns="http://www.w3.org/2000/svg"
   xmlns:svg="http://www.w3.org/2000/svg"><defs
     id="defs171230">
                
            
                
            </defs><sodipodi:namedview
     id="namedview171228"
     pagecolor="#ffffff"
     bordercolor="#666666"
     borderopacity="1.0"
     inkscape:showpageshadow="2"
     inkscape:pageopacity="0.0"
     inkscape:pagecheckerboard="0"
     inkscape:deskcolor="#d1d1d1"
     showgrid="false"
     inkscape:zoom="2.495"
     inkscape:cx="200"
     inkscape:cy="200"
     inkscape:window-width="2432"
     inkscape:window-height="1217"
     inkscape:window-x="2048"
     inkscape:window-y="30"
     inkscape:window-maximized="0"
     inkscape:current-layer="g171234"><inkscape:page
       x="0"
       y="0"
       id="page171232"
       width="400"
       height="400"
       margin="0"
       bleed="0" /></sodipodi:namedview><g
     id="g171234"
     inkscape:groupmode="layer"
     inkscape:label="Male"
     style="display:inline"><path
       id="path171962"
       style="fill:#808889;fill-opacity:1;fill-rule:nonzero;stroke:none;stroke-width:1.33333"
       d="m 191.41016,197.28711 c -4.82761,3.95585 -5.19968,9.61584 -10.20508,20.61719 l -45.73633,16.89843 -40.712891,17.39063 -11.703125,4.52539 -9.455078,4.20117 -7.96875,4.08203 c -11.834754,12.45087 -17.973375,30.12222 -23.748047,45.73047 l -7.46289,22.85547 0.96289,1.04102 L 25.664062,400 l 360.025388,-0.0332 -1.00976,-30.86133 -3.70703,-47.49805 c -0.50861,-6.70017 -2.70772,-16.60706 -5.83594,-31.64648 -2.78933,-9.06531 -4.292,-11.15775 -12.44531,-16.03906 -8.15467,-4.88133 -35.88429,-14.40296 -46.30664,-18.88868 -9.84364,-4.23663 -26.9479,-9.27451 -37.17188,-13.61718 l -3.32422,-10.49024 c -0.88102,0.33898 -2.97251,1.04019 -4.16212,1.71006 l -5.99441,35.29912 -4.81026,2.50645 -8.2168,-0.20118 -9.3711,-33.29101 c -7.06498,-2.05279 -12.76181,-5.61755 -19.58789,-10.63086 -9.03865,-6.63732 -26.18164,-23.75781 -26.18164,-23.75781 -1.27569,-1.46118 -5.22453,-4.07823 -6.15429,-5.27344 z"
       sodipodi:nodetypes="ccccccccccccccccscccccccccc" /><path
       style="baseline-shift:baseline;display:inline;overflow:visible;opacity:1;vector-effect:none;enable-background:accumulate;stop-color:#000000;stop-opacity:1;fill:#2d2d2d;fill-opacity:1"
       d="m 174.21094,262.71875 -7.74024,2.01758 c 0,0 10.71677,41.22486 13.94141,62.90625 2.67136,17.96138 4.92442,35.87464 6.26367,53.9082 0.40678,5.47744 1.72656,18.44922 1.72656,18.44922 h 7.96485 c 0,0 -1.32784,-13.82984 -1.71485,-19.04102 -1.35932,-18.30382 -3.63721,-36.41449 -6.32617,-54.49414 -3.3839,-22.75223 -14.11523,-63.74609 -14.11523,-63.74609 z"
       id="path7"
       sodipodi:nodetypes="ccssccssc" /><path
       style="baseline-shift:baseline;display:inline;overflow:visible;opacity:1;vector-effect:none;fill:#000000;fill-opacity:0.2;enable-background:accumulate;stop-color:#000000;stop-opacity:1"
       d="m 260.01873,281.09766 -1.19727,0.0898 c 0,0 1.96951,26.35245 2.69141,39.66406 0.57334,10.57208 1.05241,21.14994 1.41602,31.73047 0.53834,15.66499 1.13476,47.40631 1.13476,47.40631 h 1.19922 c 0,0 -0.59557,-31.75769 -1.13476,-47.44728 -0.36391,-10.58929 -0.8423,-21.17475 -1.41602,-31.75391 -0.72366,-13.34393 -2.69336,-39.68945 -2.69336,-39.68945 z"
       id="path34"
       sodipodi:nodetypes="ccssccssc" /><path
       style="baseline-shift:baseline;display:inline;overflow:visible;opacity:1;vector-effect:none;fill:#000000;fill-opacity:0.2;enable-background:accumulate;stop-color:#000000;stop-opacity:1"
       d="m 264.22967,281.33398 -0.99805,0.0566 c 0,0 1.98856,35.26595 2.80469,52.9004 0.66455,14.35928 1.38813,28.71387 1.70312,43.07421 0.16808,7.66269 0.0996,22.59862 0.0996,22.59862 h 1 c 0,0 0.0692,-14.92216 -0.0996,-22.62 -0.3154,-14.3793 -1.04065,-28.74112 -1.70507,-43.09766 -0.81676,-17.64789 -2.80469,-52.91211 -2.80469,-52.91211 z m -8.01758,0.39063 -0.99609,0.0781 c 0,0 2.8251,36.85626 3.60546,55.29297 0.60429,14.27659 0.86391,28.87822 1.13672,43.17383 0.12492,6.54581 0.36719,19.6943 0.36719,19.6943 h 0.99805 c 0,0 -0.24029,-13.16641 -0.36524,-19.7138 -0.27279,-14.29467 -0.53172,-28.90394 -1.13672,-43.19727 -0.78229,-18.48231 -3.60937,-55.32812 -3.60937,-55.32812 z"
       id="path33"
       sodipodi:nodetypes="ccssccssccccssccsscc" /><path
       style="fill:#d30000;fill-opacity:1;stroke:none;stroke-width:1px;stroke-linecap:butt;stroke-linejoin:miter;stroke-opacity:1"
       d="m 252.60521,269.03808 c 0,0 5.22573,0.49018 7.81563,0.2004 2.2944,-0.25672 6.24681,-2.03336 6.14661,-1.63256 -0.1002,0.4008 -2.37043,14.09284 -2.37043,14.09284 l -8.7862,0.26517 z"
       id="path13"
       sodipodi:nodetypes="cssccc" /><path
       style="fill:none;stroke:#000000;stroke-width:2;stroke-linecap:butt;stroke-linejoin:miter;stroke-dasharray:none;stroke-opacity:0.2"
       d="m 331.86373,278.55711 c 0,0 3.22872,42.16879 4.80961,63.32666 C 338.11845,361.22449 338.27655,400 338.27655,400"
       id="path9"
       sodipodi:nodetypes="csc" /><path
       id="path6"
       style="baseline-shift:baseline;display:inline;overflow:visible;opacity:1;fill:#d30000;enable-background:accumulate;stop-color:#000000;stop-opacity:1;stroke:#000000;stroke-opacity:1;stroke-width:0.7;stroke-dasharray:none"
       d="M 210.32227 216.93359 L 199.64258 243.24805 L 102.72266 295.07031 L 106.49609 302.125 L 174.27148 265.88672 C 177.89395 278.97387 186.07631 309.64697 188.82422 329.21289 C 191.35068 347.202 193.11206 365.34779 194.81445 383.53906 C 195.28017 388.51554 196.00586 399.77148 196.00586 399.77148 L 203.99414 399.77148 C 203.99414 399.77148 203.28742 388.22265 202.7793 382.79297 C 201.07521 364.58358 199.30432 346.31686 196.74609 328.10156 C 193.72881 306.61764 184.86777 273.99002 181.50781 262.01758 L 205.96875 248.9375 L 217.73438 219.94141 L 210.32227 216.93359 z M 274.45312 231.30273 L 279.4043 254.06641 L 369.37305 301.52148 L 369.93945 293.79297 L 280.82422 246.07617 L 277.47852 231.43164 L 274.45312 231.30273 z " /><path
       id="path11"
       style="fill:#d30000;fill-opacity:1;stroke:none;stroke-width:1px;stroke-linecap:butt;stroke-linejoin:miter;stroke-opacity:1"
       d="M 365.53106,400 368.73747,345.89178 374.3487,400 Z m -252.10421,0 1.20241,-70.94188 L 122.24449,400 Z"
       sodipodi:nodetypes="cccccccc" /><path
       d="m 179.81154,217.96614 c -14.59807,5.14857 -31.24974,13.41454 -46.61806,18.65808 l -38.085451,15.15412 -12.055068,4.9418 -11.702333,5.00066 -6.341162,4.13161 -6.747171,10.66639 -18.386504,37.68383 C 33.495726,340.01066 28.912069,364.86061 26.4841,391.98601 L 26.678065,400 H 62.401 c 10.895089,-62.95662 27.966123,-92.52242 34.705153,-98.36756 6.739027,-5.84515 15.611687,-9.92638 23.283687,-12.71571 67.72267,-24.62667 99.84217,-27.94269 99.84217,-27.94269 -23.41857,-16.92422 -29.44454,-24.11106 -40.42047,-43.0079 z"
       style="display:inline;opacity:0.199997;fill:#000000;fill-opacity:1;fill-rule:nonzero;stroke:none;stroke-width:1.33333"
       id="path172176"
       sodipodi:nodetypes="ccccccccccczccc" /><path
       d="M 110.18714,310.1889 C 114.1857,325.5041 119.94482,371.03711 122.56,400 h 11.214 c -2.40119,-27.29665 -6.51044,-41.67161 -9.00981,-52.18742 -3.41615,-14.37315 -11.94825,-33.78614 -14.57705,-37.62368 z"
       style="display:inline;opacity:0.199997;fill:#000000;fill-opacity:1;fill-rule:nonzero;stroke:none;stroke-width:1.33333"
       id="path172192"
       sodipodi:nodetypes="cccsc" /><path
       style="opacity:0.2;fill:#000000;fill-opacity:1;stroke:none;stroke-width:0.911631px;stroke-linecap:butt;stroke-linejoin:miter;stroke-opacity:1"
       d="m 368.8468,341.20934 c 0,0 4.77388,36.55841 5.6867,45.51056 0.91282,8.95215 1.28756,13.2801 1.28756,13.2801 H 366.379 Z"
       id="path2"
       sodipodi:nodetypes="czccc" /><path
       id="path172002"
       style="fill:#000000;fill-opacity:1;fill-rule:nonzero;stroke:none;stroke-width:1.33333"
       d="m 191.85742,194.47461 c -0.93449,0 -2.01107,0.76116 -2.58789,1.64453 -1.35812,2.07992 -6.70585,18.5728 -8.82617,20.96875 -4.60037,1.52065 -20.34814,7.44364 -53.84766,20.75586 -18.5084,7.35497 -32.431224,12.80491 -37.216794,14.72266 -8.372227,3.35506 -24.52952,8.95895 -26.029297,9.84375 -1.360739,2.05438 -5.950768,7.47477 -8.318359,11.41211 -7.745642,12.88111 -12.175325,22.25211 -18.044922,41.48437 C 31.209846,334.2338 24.036081,390.94615 23.314453,400 l 4.236328,-0.21484 9.425781,-61.22071 0.916016,-5.30859 c 2.378181,-14.18773 6.905709,-28.61152 11.769531,-38.09766 4.886233,-9.52984 10.555217,-21.65774 16.490235,-28.54687 2.80985,-3.26156 23.930438,8.31432 27.982422,13.87695 0.306663,-1.03467 -0.956041,-2.43091 -1.470704,-3.3789 -2.46799,-4.544 -5.555297,-7.03406 -9.960937,-10.32032 -1.37981,-1.02923 -9.731582,-3.07237 -10.767578,-4.48437 -0.306667,-0.42 17.537941,-6.29746 18.585937,-6.68946 4.258651,-1.5973 19.289016,-7.26131 40.445316,-15.76757 21.1563,-8.50627 37.37405,-15.39141 41.5664,-16.79688 4.03509,-1.35274 5.88638,-2.4855 8.14063,-3.24023 2.46992,3.7825 12.79162,19.30639 20.40625,26.46289 8.99439,8.45325 18.95469,17.0953 30.95312,21.13867 1.14745,0.38668 3.80042,1.05521 7.48828,1.78125 3.34498,0.65853 7.48327,1.34214 11.86329,1.80469 l 3.17773,12.3125 10.92023,-0.3998 1.13494,-13.37577 0.0312,-0.20118 c 1.87321,-0.92411 5.66826,-2.37115 7.11475,-3.71466 2.73129,-2.53684 5.63588,-4.6718 7.06055,-9.58398 0.86508,-2.98276 0.90815,-6.33778 1.02344,-10.48047 2.52983,1.11042 10.69371,3.30134 14.2207,4.6582 9.02221,3.47092 11.66634,4.3847 22.69726,9.00391 9.99075,4.18363 41.09785,13.80582 49.11329,21.5039 0.5048,5.21499 1.71127,23.39105 1.41992,37.79688 l -0.16602,2.47265 c -0.10396,1.99614 0.15602,3.9796 -0.0351,5.83594 0,0 0.28552,-2.3125 0.625,-5.77539 l 0.24023,-2.35351 c 0.71017,-8.23175 1.42569,-21.62798 0.25781,-35.03125 9.53267,20.14647 11.80299,58.40013 12.19141,83.93945 0.17459,11.47886 0.56554,19.79071 0.35351,32.36133 h 4.39063 c -0.50644,-23.28742 -0.81785,-38.92338 -2.77344,-60.10352 -1.5253,-16.51985 -7.14127,-54.01361 -13.22656,-60.71094 -7.53596,-8.29863 -41.39566,-19.06155 -51.5625,-23.42382 -8.09012,-3.47122 -11.24442,-4.4984 -19.64258,-7.57032 -6.60023,-2.41426 -12.62988,-4.19864 -18.53906,-6.01367 -0.21565,-0.0662 -1.21137,-3.56101 -1.83984,-5.81641 -1.01139,-3.62959 -1.92557,-6.48689 -2.31055,-7.71289 -1.30132,0.81705 -6.30298,2.99073 -8.9547,4.38059 -0.88445,7.84469 -1.86488,14.66117 -3.11812,22.55 -0.71403,4.49469 -0.84374,9.15287 -1.54583,13.59658 l -0.86933,10.87382 -5.91241,0.20058 -2.90821,-11.26758 c -3.34072,-11.18324 -5.97809,-22.58183 -9.40039,-33.73828 -8.53136,-1.90985 -12.79214,-5.20865 -20.32226,-11.23633 -17.21634,-13.78129 -30.08244,-27.71447 -30.24219,-28.01953 -0.34373,-0.77113 -1.19637,-1.48047 -2.13086,-1.48047 z m -0.45312,4.14844 c 0.11396,-0.005 0.2289,0.005 0.34375,0.0293 0.45936,0.096 0.86606,0.4534 1.26172,0.9336 8.21735,9.97316 16.74563,17.31303 28.21093,26.63672 7.77277,6.32088 12.543,9.66153 20.92578,11.74414 l 8.48047,30.23047 c -3.89621,-0.4466 -7.57283,-1.06148 -10.58398,-1.6543 -3.61408,-0.71152 -6.34202,-1.41835 -7.14649,-1.68945 -11.31888,-3.81437 -21.03326,-12.14899 -29.96875,-20.54688 -7.20384,-6.77043 -17.8828,-22.77249 -20.11328,-26.16211 3.78059,-4.73679 4.92068,-16.12305 7.64063,-19.05859 0.27635,-0.29825 0.60733,-0.44765 0.94922,-0.46289 z m 84.54599,33.46308 c 0.6994,0.45593 1.19654,3.54982 1.67276,4.83965 l 1.97505,6.88721 c 0.13011,3.552 -0.52666,8.57073 -1.36758,11.47016 -1.21833,4.20074 -3.42848,5.68779 -6.30274,8.35742 -0.74894,0.69563 -3.55563,1.7961 -4.64735,2.43791 0,0 0.48742,-6.84777 0.95646,-10.2456 1.02506,-7.42573 3.23424,-21.18276 3.23424,-21.18276 0,0 2.68326,-1.82421 3.21522,-2.05219 0.53196,-0.22797 0.97475,-0.74958 1.26394,-0.5118 z M 108.375,307.01172 c 2.74128,7.12543 3.88484,9.0885 6.17188,30.93945 2.28704,21.85095 3.07041,31.81547 5.24023,62.04883 h 3.92383 c -1.17913,-16.44993 -5.00141,-54.93036 -6.5,-62.73828 -1.30028,-6.77468 -4.72985,-24.18487 -8.83594,-30.25 z m 260.72266,25.07422 c -0.82447,7.33018 -1.20056,11.63615 -1.55664,16.15234 -1.18566,15.03802 -1.88906,16.90032 -4.48243,51.76172 h 5.375 c 0.78239,-14.89761 0.3287,-27.03836 0.5293,-51.49805 0.0648,-7.90657 0.13477,-16.41601 0.13477,-16.41601 z"
       sodipodi:nodetypes="sscsscssccccssccsccsscssscccccsscsscccccccsccscssssccscccccscsssssccssscssssccsccsccsscsccsccscsc" /><path
       style="baseline-shift:baseline;display:inline;overflow:visible;vector-effect:none;enable-background:accumulate;stop-color:#000000;fill:#000000;fill-opacity:1"
       d="m 266.43945,267.17383 c 0,0 -1.06698,0.4488 -2.41992,0.93359 -1.35294,0.4848 -3.00472,1.00243 -4.0625,1.13672 -1.105,0.14028 -2.90388,0.047 -4.39453,-0.0898 -1.49065,-0.13681 -2.68555,-0.31055 -2.68555,-0.31055 l -0.14258,0.99023 c 0,0 1.2171,0.17698 2.73633,0.31641 1.51923,0.13943 3.32895,0.24899 4.61328,0.0859 1.23712,-0.15706 2.89153,-0.69303 4.27149,-1.1875 1.37995,-0.49448 2.4707,-0.95313 2.4707,-0.95313 z"
       id="path37" /><path
       d="m 192.73003,234.86425 c -12.10594,-14.48609 -10.19147,-17.60897 -10.19147,-17.60897 l 4.91402,-13.51916 3.37994,-5.90674 3.71829,2.29411 c 5.12839,10.34467 15.63474,17.75196 23.97874,25.97596 7.41067,7.304 12.25917,11.27937 21.22081,14.21176 4.20667,1.052 3.4263,18.20679 3.2103,20.58413 -0.216,2.37733 -9.3,8.028 -23.44933,-1.928 -4.76,-3.34934 -14.58897,-9.51363 -26.7813,-24.10309 z"
       style="opacity:0.199997;fill:#000000;fill-opacity:1;fill-rule:nonzero;stroke:none;stroke-width:1.33333"
       id="path172060"
       sodipodi:nodetypes="sccccccscs" /><path
       id="path1"
       style="baseline-shift:baseline;display:inline;overflow:visible;opacity:1;vector-effect:none;fill:#000000;fill-opacity:0.3;enable-background:accumulate;stop-color:#000000;stop-opacity:1"
       d="m 261.51719,281.43297 -3.39063,0.25976 c 1.38341,17.98949 1.65575,29.34834 2.70467,47.46352 1.3444,23.2183 1.93277,66.13843 1.99414,70.84375 h 3.40234 c -0.0578,-4.47813 -0.64271,-47.56656 -2.00195,-71.04102 -1.04448,-18.03864 -1.31526,-29.40773 -2.70857,-47.52601 z"
       sodipodi:nodetypes="ccsccsc" /><path
       style="baseline-shift:baseline;display:inline;overflow:visible;vector-effect:none;fill-opacity:0.30000001;enable-background:accumulate;stop-color:#000000;stop-opacity:1;opacity:1;fill:#000000"
       d="m 265.39648,272.50391 c 0,0 -0.76118,0.40359 -1.73437,0.83984 -0.9732,0.43625 -2.17435,0.89871 -2.91602,1.01172 -1.01868,0.15522 -2.55669,0.0893 -3.87304,-0.0508 -0.65818,-0.07 -1.26302,-0.1576 -1.73047,-0.23828 -0.46746,-0.0807 -0.85203,-0.18261 -0.84961,-0.18164 l -0.3711,0.92773 c 0.25293,0.10117 0.55718,0.15537 1.04883,0.24023 0.49166,0.0849 1.11663,0.1737 1.79688,0.2461 1.3605,0.1448 2.92916,0.22773 4.1289,0.0449 0.9629,-0.14672 2.16836,-0.63717 3.17383,-1.08789 1.00548,-0.45072 1.79492,-0.86719 1.79492,-0.86719 z"
       id="path15" /><path
       style="fill:#808889;fill-opacity:1;stroke:#000000;stroke-width:1px;stroke-linecap:butt;stroke-linejoin:miter;stroke-opacity:1"
       d="m 304.60922,351.1022 v 7.61523 l 50.9018,-4.80961 0.1002,-7.51503 z"
       id="path12"
       sodipodi:nodetypes="ccccc" /><path
       id="path25"
       style="baseline-shift:baseline;display:inline;overflow:visible;opacity:1;vector-effect:none;fill-opacity:0.2;enable-background:accumulate;stop-color:#000000;stop-opacity:1;fill:#000000"
       d="M 211.63477 217.46484 L 209.81641 218.18164 L 205.66211 228.41406 L 215.9375 224.36914 L 217.73438 219.94141 L 211.63477 217.46484 z M 212.02148 234.02148 L 201.74414 238.06836 L 199.80664 242.8457 L 203.03125 246.1582 L 207.86914 244.25391 L 212.02148 234.02148 z M 199.72461 243.04492 L 199.64258 243.24805 L 195.5332 245.44531 L 191.76562 256.53125 L 202.0918 251.00977 L 203.50391 246.85547 L 199.72461 243.04492 z M 280.78516 245.8457 L 280.51953 251.48242 L 283.02148 255.97461 L 295.98828 262.81445 L 289.14844 250.5332 L 280.82422 246.07617 L 280.78516 245.8457 z M 186.80469 250.11328 L 176.48047 255.63281 L 172.71484 266.71875 L 174.27148 265.88672 C 175.12244 268.96102 176.22652 273.0052 177.45117 277.64844 L 182.07227 264.04297 L 182.07227 264.04102 C 181.87011 263.3138 181.68199 262.63821 181.50781 262.01758 L 183.03906 261.19922 L 186.80469 250.11328 z M 298.51953 255.55078 L 305.29883 267.72461 L 318.26758 274.56445 L 311.56836 262.53711 L 298.51953 255.55078 z M 165.91992 261.2793 L 155.31641 266.94922 L 151.17188 278.23828 L 161.77539 272.56836 L 165.91992 261.2793 z M 321.70898 267.96875 L 328.3457 279.88086 L 341.3125 286.7207 L 334.75977 274.95508 L 321.70898 267.96875 z M 144.68164 272.63477 L 134.07617 278.30469 L 129.92969 289.5957 L 140.53516 283.92383 L 144.68164 272.63477 z M 185.51758 276.77148 L 180.78906 290.6875 L 180.78906 290.68945 C 181.93815 295.32141 183.09648 300.16045 184.17969 304.96875 L 189.08594 290.80273 C 187.86743 285.83206 186.64767 281.06631 185.51758 276.77148 z M 345.74219 280.83594 L 352.22656 292.47656 L 365.19141 299.31641 L 358.78906 287.82227 L 345.74219 280.83594 z M 125.87109 282.69336 L 115.30273 288.34375 L 111.20898 299.60547 L 121.77539 293.95508 L 125.87109 282.69336 z M 105.83008 293.4082 L 102.72266 295.07031 L 104.20312 297.83789 L 105.83008 293.4082 z M 192.66797 306.19531 L 187.5293 321.24414 C 188.03575 324.04104 188.47379 326.71775 188.82422 329.21289 C 189.26094 332.32244 189.67567 335.43635 190.07031 338.55469 L 195.76758 321.87305 C 194.91532 316.91655 193.84544 311.58845 192.66797 306.19531 z M 198.12109 338.46094 L 192.02148 355.31445 L 192.02148 355.31641 C 192.68926 361.50992 193.30958 367.71457 193.90625 373.92773 L 200.18555 356.42188 L 200.18555 356.41992 C 199.54999 350.43256 198.87142 344.4455 198.12109 338.46094 z M 201.71289 371.55664 L 195.26758 389.36914 L 195.26758 389.37109 C 195.64423 394.79119 196.00586 399.89648 196.00586 399.89648 L 199.63086 399.89648 L 203.36719 390.5 L 203.36719 390.49805 C 203.1741 387.63219 202.96329 384.75906 202.7793 382.79297 C 202.42898 379.04957 202.07512 375.30394 201.71289 371.55664 z " /><g
       id="g11"
       style="clip-rule:evenodd;display:inline;fill-rule:evenodd"
       transform="translate(-0.78063478,10.928935)"><path
         d="m 262.84507,274.73916 -0.10777,-3.67855 -3.60655,0.10502 0.10777,3.67855 -2.00527,0.0594 0.38138,13.05026 7.61576,-0.22248 -0.38004,-13.05025 z"
         style="clip-rule:evenodd;fill:#d7d7d7;fill-opacity:1;fill-rule:nonzero;stroke-width:1.33333;stroke-miterlimit:10"
         id="path327"
         sodipodi:nodetypes="ccccccccc" /><path
         d="m 264.54572,287.08405 -6.28246,0.18377 -0.34269,-11.71828 0.67198,-0.0194 0.065,2.22126 c 0.009,0.31865 0.24458,0.56641 0.54597,0.62344 -0.29725,0.0736 -0.51833,0.33386 -0.50866,0.65385 l 0.19206,6.56646 c 0.0111,0.36799 0.31668,0.65701 0.686,0.6473 l 3.60522,-0.10637 c 0.36799,-0.009 0.65834,-0.31667 0.6473,-0.68599 l -0.19207,-6.56646 c -0.009,-0.31866 -0.24459,-0.56642 -0.54597,-0.62211 0.29725,-0.075 0.51832,-0.33519 0.50866,-0.65385 l -0.065,-2.2226 0.67197,-0.0194 z m -4.72765,-15.27245 2.27326,-0.0663 0.15204,5.23449 -2.27193,0.0663 z m 2.50264,7.77742 0.15204,5.23449 -2.27327,0.0663 -0.15204,-5.23449 z m 2.51028,-5.5759 -1.33863,0.0401 -0.0884,-3.01323 c -0.009,-0.36799 -0.31667,-0.657 -0.68466,-0.64597 l -3.60655,0.10504 c -0.368,0.009 -0.65701,0.31668 -0.64729,0.686 l 0.0884,3.0119 -1.33863,0.0387 c -0.36798,0.0111 -0.65834,0.31801 -0.64729,0.686 l 0.38138,13.05158 c 0.0111,0.36799 0.31801,0.657 0.68599,0.64597 l 7.61576,-0.22114 c 0.36799,-0.0111 0.65701,-0.31802 0.6473,-0.68601 l -0.38138,-13.05157 c -0.0111,-0.36799 -0.31801,-0.65702 -0.686,-0.6473"
         style="clip-rule:evenodd;fill:#000000;fill-opacity:1;fill-rule:nonzero;stroke-width:1.33333;stroke-miterlimit:10"
         id="path328"
         sodipodi:nodetypes="cccccccccccccccccccccccccccccccccccccccccc" /></g><path
       style="baseline-shift:baseline;display:inline;overflow:visible;opacity:1;vector-effect:none;enable-background:accumulate;stop-color:#000000;stop-opacity:1;fill:#000000;fill-opacity:1"
       d="m 114.0293,329.65625 c 0,0 -0.1672,38.21169 -0.30078,56.01172 -0.0268,3.57076 -0.5,14.35355 -0.5,14.35355 h 0.99804 c 0,0 0.47458,-10.70224 0.50196,-14.3457 0.13361,-17.80451 0.30078,-56.01367 0.30078,-56.01367 z"
       id="path35"
       sodipodi:nodetypes="csccccc" /><g
       id="g38"
       transform="matrix(0.29170893,-0.01537531,0.0163499,0.31019943,202.75191,242.84071)"><path
         style="fill:#c8c8c8;fill-opacity:1;stroke:#000000;stroke-width:1.5;stroke-linecap:butt;stroke-linejoin:miter;stroke-dasharray:none;stroke-opacity:1"
         d="m 360.45107,244.688 c 0,0.46458 1.04529,45.29617 1.04529,45.29617 l -0.23229,3.01975 5.34263,20.90592 -0.11615,0.81301 6.96864,26.94541 8.94309,8.13008 1.62602,-77.81649 7.54936,0.92915 8.24622,-1.16144 -1.27758,78.28107 4.41347,-2.55517 5.34263,-4.64576 7.78165,-27.52613 -0.23229,-2.09059 5.92334,-19.74449 -0.11614,-2.32288 1.8583,-46.34146 z"
         id="path53"
         sodipodi:nodetypes="ccccccccccccccccccc" /><path
         id="path54"
         style="fill:#c8c8c8;fill-rule:evenodd;stroke:#000000;stroke-width:1.4;stroke-miterlimit:20;stroke-dasharray:none"
         d="m 391.98711,205.7 c -17.83219,0 -32.28711,18.14053 -32.28711,41.13636 0,19.3236 10.20784,35.57262 24.04882,40.26953 0.0161,0.005 0.0308,0.0122 0.0469,0.0176 v -14.32813 c 0,0 4.44466,1.62643 7.78125,1.50977 2.60641,-0.0911 7.7832,-1.50977 7.7832,-1.50977 l -0.084,14.61328 c 0.0697,-0.0207 0.13947,-0.0412 0.20898,-0.0625 14.21629,-4.35975 24.79102,-20.84274 24.79102,-40.50976 0,-22.99583 -14.45687,-41.13636 -32.28906,-41.13636 z"
         sodipodi:nodetypes="sssccscccss" /><circle
         style="fill:#c8c8c8;fill-opacity:1;fill-rule:evenodd;stroke:#000000;stroke-width:1;stroke-linecap:round;stroke-linejoin:round;stroke-miterlimit:20;stroke-dasharray:none"
         id="circle2"
         cx="391.99792"
         cy="237.95166"
         r="32.307495" /><path
         id="path52"
         style="fill:#d30000;fill-opacity:1;fill-rule:evenodd;stroke:#000000;stroke-width:0.648685;stroke-linecap:butt;stroke-linejoin:miter;stroke-dasharray:none;stroke-opacity:1"
         d="m 391.99695,210.73923 c -15.01833,0 -27.21237,12.19403 -27.21237,27.21236 0,2.65203 0.38083,5.21635 1.08972,7.64065 -0.4707,0.0258 -0.73669,0.0378 -0.73669,0.0378 l 1.85523,4.77855 c 0,0 0.26168,-0.0593 0.72408,-0.16571 2.21548,4.36393 5.57269,8.05242 9.67779,10.67024 -0.009,0.26862 -0.0126,0.41608 -0.0126,0.41608 -3e-5,-0.002 0.0723,-0.10769 0.20533,-0.2954 4.17973,2.61641 9.11946,4.13013 14.40952,4.13013 15.01834,0 27.21417,-12.19402 27.21417,-27.21237 -1e-5,-2.92277 -0.46194,-5.73936 -1.31668,-8.37913 0.15729,-0.096 0.24316,-0.1477 0.24316,-0.1477 l -1.10592,-2.54688 c 0,0 -0.0455,0.0309 -0.13149,0.0901 -4.22542,-9.55485 -13.79201,-16.22871 -24.90324,-16.22871 z m 0,1.84441 c 0.18971,0 0.37866,0.001 0.56738,0.005 -1.02333,1.54331 -3.54815,5.38483 -4.8272,7.61723 -2.18878,3.82024 -3.55687,7.97644 -5.16941,12.07337 -1.89695,4.81952 -2.31064,7.00424 -3.19891,11.0647 1.57319,-0.27306 2.99731,-0.5768 4.0887,-0.9096 7.23393,-2.20581 13.20047,-4.04696 19.43483,-6.94898 -6.03812,3.1351 -12.03707,5.72166 -19.22229,7.91262 -3.82078,1.16505 -11.77335,1.81111 -15.90811,2.08037 -0.73641,-2.37761 -1.13294,-4.90592 -1.13294,-7.52717 0,-14.02153 11.34641,-25.36794 25.36795,-25.36795 z m 1.43375,0.0396 c 9.87826,0.54909 18.24087,6.73702 21.92407,15.40197 -2.25569,1.53265 -6.2377,4.20047 -8.44038,5.4558 -1.34702,0.7677 -2.68918,1.31359 -4.02025,2.00473 -0.39804,-1.53701 -0.83114,-3.06482 -1.29325,-4.58223 -1.06017,-3.48111 -2.25695,-6.93479 -3.76809,-10.24516 -1.08557,-2.3781 -3.44205,-6.41442 -4.4021,-8.03511 z m 22.84447,17.93624 c 0.71016,2.33849 1.09153,4.82005 1.09153,7.39208 0,14.02155 -11.3482,25.36796 -25.36975,25.36796 -4.89085,-1e-5 -9.45691,-1.3805 -13.3288,-3.7735 1.33061,-1.79666 3.48305,-4.58717 5.42878,-6.62297 1.91659,-2.00531 7.80251,-7.20605 10.22895,-8.55025 1.66583,-0.92283 3.19804,-0.63085 4.97669,0.49173 2.01253,1.27018 2.51426,3.15502 3.62219,5.50803 1.16921,2.48314 3.49431,8.1738 3.49431,8.1738 0,0 -0.1245,-3.57633 -0.47192,-5.86106 -0.53194,-3.49815 -0.93049,-6.89195 -1.48417,-10.02723 -0.2756,-1.56061 -0.59491,-3.11456 -0.95283,-4.65967 0.54266,-0.34866 3.55361,-1.96803 4.18056,-2.32534 2.26549,-1.29113 6.24559,-3.69341 8.58446,-5.11358 z m -37.83938,17.14012 c -0.54498,3.3199 -0.82776,8.13361 -0.95823,11.0629 -3.29736,-2.3035 -6.02119,-5.3705 -7.91442,-8.9465 2.25588,-0.52437 5.66821,-1.32712 8.87265,-2.1164 z" /><path
         id="path24"
         style="fill:#c8c8c8;fill-opacity:1;fill-rule:evenodd;stroke:#000000;stroke-width:1.2;stroke-linecap:round;stroke-linejoin:round;stroke-miterlimit:20;stroke-dasharray:none"
         d="m 419.02166,237.95165 a 27.023833,27.023833 0 0 1 -27.02383,27.02383 27.023833,27.023833 0 0 1 -27.02382,-27.02383 27.023833,27.023833 0 0 1 27.02382,-27.02382 27.023833,27.023833 0 0 1 27.02383,27.02382 z m 5.28367,0 a 32.307495,32.307495 0 0 1 -32.3075,32.3075 32.307495,32.307495 0 0 1 -32.30749,-32.3075 32.307495,32.307495 0 0 1 32.30749,-32.30749 32.307495,32.307495 0 0 1 32.3075,32.30749 z" /><path
         style="baseline-shift:baseline;display:inline;overflow:visible;vector-effect:none;fill:#ffffff;fill-rule:evenodd;stroke-linecap:round;stroke-linejoin:round;stroke-miterlimit:20;enable-background:accumulate;stop-color:#000000"
         d="m 391.99707,206.14495 c -0.10004,0 -0.199,0.001 -0.29883,0.002 17.43455,0.1608 31.50781,14.33202 31.50782,31.80468 0,17.47268 -14.07327,31.6439 -31.50782,31.80469 0.0998,9.2e-4 0.19879,0.002 0.29883,0.002 17.57272,10e-6 31.8086,-14.23392 31.80859,-31.80664 0,-17.57271 -14.23587,-31.80664 -31.80859,-31.80664 z"
         id="path35-3" /><path
         style="fill:none;stroke:#000000;stroke-width:1px;stroke-linecap:butt;stroke-linejoin:miter;stroke-opacity:1"
         d="m 366.37441,272.33028 -4.9942,21.02207"
         id="path57"
         sodipodi:nodetypes="cc" /><path
         style="fill:none;stroke:#000000;stroke-width:1px;stroke-linecap:butt;stroke-linejoin:miter;stroke-opacity:1"
         d="m 370.3233,277.44062 -3.7166,37.04994"
         id="path58"
         sodipodi:nodetypes="cc" /><path
         style="fill:none;stroke:#000000;stroke-width:1px;stroke-linecap:butt;stroke-linejoin:miter;stroke-opacity:1"
         d="m 380.0794,285.68684 -1.39373,60.39489"
         id="path59" /><path
         style="fill:none;stroke:#000000;stroke-width:1px;stroke-linecap:butt;stroke-linejoin:miter;stroke-opacity:1"
         d="m 402.61134,285.5707 0.46458,61.78862"
         id="path60" /><path
         style="fill:none;stroke:#000000;stroke-width:1px;stroke-linecap:butt;stroke-linejoin:miter;stroke-opacity:1"
         d="m 413.29659,277.9052 2.55517,35.19163"
         id="path61"
         sodipodi:nodetypes="cc" /><path
         style="fill:none;stroke:#000000;stroke-width:1px;stroke-linecap:butt;stroke-linejoin:miter;stroke-opacity:1"
         d="m 416.78091,273.14329 4.99419,19.16376"
         id="path62" /></g></g></svg>
