<?xml version="1.0" encoding="UTF-8" standalone="no"?>
<!-- Created with Inkscape (http://www.inkscape.org/) -->

<svg
   version="1.1"
   id="svg22045"
   width="400"
   height="400"
   viewBox="0 0 400 400"
   sodipodi:docname="AdmiraltyRankPip.svg"
   inkscape:version="1.4 (e7c3feb1, 2024-10-09)"
   xml:space="preserve"
   xmlns:inkscape="http://www.inkscape.org/namespaces/inkscape"
   xmlns:sodipodi="http://sodipodi.sourceforge.net/DTD/sodipodi-0.dtd"
   xmlns="http://www.w3.org/2000/svg"
   xmlns:svg="http://www.w3.org/2000/svg"><defs
     id="defs22049"><clipPath
       clipPathUnits="userSpaceOnUse"
       id="clipPath22061"><path
         d="M 0,300 H 300 V 0 H 0 Z"
         id="path22059" /></clipPath><clipPath
       clipPathUnits="userSpaceOnUse"
       id="clipPath22089"><path
         d="m 146.006,277.969 h 73.146 v -152.59 h -73.146 z"
         id="path22087" /></clipPath><clipPath
       clipPathUnits="userSpaceOnUse"
       id="clipPath22173"><path
         d="m 134.842,154.031 h 47.503 v -52.522 h -47.503 z"
         id="path22171" /></clipPath><clipPath
       clipPathUnits="userSpaceOnUse"
       id="clipPath22189"><path
         d="M 60.0336,143.884 H 196.46 V 44.6548 H 60.0336 Z"
         id="path22187" /></clipPath><clipPath
       clipPathUnits="userSpaceOnUse"
       id="clipPath22209"><path
         d="m 207.998,124.034 h 66.869 V 41.9517 h -66.869 z"
         id="path22207" /></clipPath><clipPath
       clipPathUnits="userSpaceOnUse"
       id="clipPath22225"><path
         d="M 12.7352,96.1307 H 87.7785 V 13.8165 H 12.7352 Z"
         id="path22223" /></clipPath><clipPath
       clipPathUnits="userSpaceOnUse"
       id="clipPath22241"><path
         d="M 39.6054,99.692 H 60.994 V 87.9429 H 39.6054 Z"
         id="path22239" /></clipPath><clipPath
       clipPathUnits="userSpaceOnUse"
       id="clipPath22257"><path
         d="M 19.9327,73.8295 H 27.238 V 56.2568 h -7.3053 z"
         id="path22255" /></clipPath><clipPath
       clipPathUnits="userSpaceOnUse"
       id="clipPath22273"><path
         d="m 279.351,83.9444 h 8.991 V 28.2746 h -8.991 z"
         id="path22271" /></clipPath><clipPath
       clipPathUnits="userSpaceOnUse"
       id="clipPath22289"><path
         d="M 10.2357,145.507 H 158.769 V 0.0249023 H 10.2357 Z"
         id="path22287" /></clipPath><clipPath
       clipPathUnits="userSpaceOnUse"
       id="clipPath22305"><path
         d="M 91.6411,35.1519 H 116.994 V 0.0249023 H 91.6411 Z"
         id="path22303" /></clipPath><clipPath
       clipPathUnits="userSpaceOnUse"
       id="clipPath22321"><path
         d="m 180.793,115.392 h 31.003 V 47.7004 h -31.003 z"
         id="path22319" /></clipPath><clipPath
       clipPathUnits="userSpaceOnUse"
       id="clipPath22337"><path
         d="M 0,300 H 300 V 0 H 0 Z"
         id="path22335" /></clipPath><clipPath
       clipPathUnits="userSpaceOnUse"
       id="clipPath22365"><path
         d="m 145.568,277.969 h 89.357 V 124.543 h -89.357 z"
         id="path22363" /></clipPath><clipPath
       clipPathUnits="userSpaceOnUse"
       id="clipPath22381"><path
         d="M 0,300 H 300 V 0 H 0 Z"
         id="path22379" /></clipPath><clipPath
       clipPathUnits="userSpaceOnUse"
       id="clipPath22453"><path
         d="m 207.998,124.034 h 66.7 V 44.4077 h -66.7 z"
         id="path22451" /></clipPath><clipPath
       clipPathUnits="userSpaceOnUse"
       id="clipPath22469"><path
         d="m 279.351,83.9444 h 8.991 V 28.2746 h -8.991 z"
         id="path22467" /></clipPath><clipPath
       clipPathUnits="userSpaceOnUse"
       id="clipPath22485"><path
         d="M 11.9564,107.989 H 87.3171 V 30.6538 H 11.9564 Z"
         id="path22483" /></clipPath><clipPath
       clipPathUnits="userSpaceOnUse"
       id="clipPath22501"><path
         d="m 59.217,151.573 h 134.48 V 47.8951 H 59.217 Z"
         id="path22499" /></clipPath><clipPath
       clipPathUnits="userSpaceOnUse"
       id="clipPath22517"><path
         d="M 9.51097,151.818 H 154.199 V 0.0248718 H 9.51097 Z"
         id="path22515" /></clipPath><clipPath
       clipPathUnits="userSpaceOnUse"
       id="clipPath22533"><path
         d="M 91.4501,40.3777 H 116.418 V 2.48105 H 91.4501 Z"
         id="path22531" /></clipPath><clipPath
       clipPathUnits="userSpaceOnUse"
       id="clipPath22549"><path
         d="m 129.811,158.672 h 52.534 v -57.163 h -52.534 z"
         id="path22547" /></clipPath><clipPath
       clipPathUnits="userSpaceOnUse"
       id="clipPath22565"><path
         d="m 180.793,115.392 h 31.003 V 47.7004 h -31.003 z"
         id="path22563" /></clipPath><clipPath
       clipPathUnits="userSpaceOnUse"
       id="clipPath22581"><path
         d="M 0,300 H 300 V 0 H 0 Z"
         id="path22579" /></clipPath><clipPath
       clipPathUnits="userSpaceOnUse"
       id="clipPath22597"><path
         d="M 0,300 H 300 V 0 H 0 Z"
         id="path22595" /></clipPath><clipPath
       clipPathUnits="userSpaceOnUse"
       id="clipPath22621"><path
         d="M 0,300 H 300 V 0 H 0 Z"
         id="path22619" /></clipPath><clipPath
       clipPathUnits="userSpaceOnUse"
       id="clipPath22633"><path
         d="m 143,265.641 h 99.11 V 192.667 H 143 Z"
         id="path22631" /></clipPath><clipPath
       clipPathUnits="userSpaceOnUse"
       id="clipPath22653"><path
         d="M 0,300 H 300 V 0 H 0 Z"
         id="path22651" /></clipPath><clipPath
       clipPathUnits="userSpaceOnUse"
       id="clipPath22665"><path
         d="m 141.195,284.065 h 63.787 v -91.398 h -63.787 z"
         id="path22663" /></clipPath><clipPath
       clipPathUnits="userSpaceOnUse"
       id="clipPath22689"><path
         d="M 0,300 H 300 V 0 H 0 Z"
         id="path22687" /></clipPath><clipPath
       clipPathUnits="userSpaceOnUse"
       id="clipPath22705"><path
         d="m 146.5,205.084 h 11.643 v -17.52 H 146.5 Z"
         id="path22703" /></clipPath><clipPath
       clipPathUnits="userSpaceOnUse"
       id="clipPath22737"><path
         d="M 0,300 H 300 V 0 H 0 Z"
         id="path22735" /></clipPath><clipPath
       clipPathUnits="userSpaceOnUse"
       id="clipPath22749"><path
         d="m 146.09,214.922 h 12.566 V 183.669 H 146.09 Z"
         id="path22747" /></clipPath><clipPath
       clipPathUnits="userSpaceOnUse"
       id="clipPath22765"><path
         d="m 152.488,184.652 h 12.163 v -10.1 h -12.163 z"
         id="path22763" /></clipPath><clipPath
       clipPathUnits="userSpaceOnUse"
       id="clipPath22805"><path
         d="M 0,300 H 300 V 0 H 0 Z"
         id="path22803" /></clipPath><clipPath
       clipPathUnits="userSpaceOnUse"
       id="clipPath22813"><path
         d="m 222.339,150.153 h 22.222 v -6.115 h -22.222 z"
         id="path22811" /></clipPath><clipPath
       clipPathUnits="userSpaceOnUse"
       id="clipPath22829"><path
         d="m 215.718,157.202 h 31.66 v -3.736 h -31.66 z"
         id="path22827" /></clipPath><clipPath
       clipPathUnits="userSpaceOnUse"
       id="clipPath22857"><path
         d="M 0,300 H 300 V 0 H 0 Z"
         id="path22855" /></clipPath><clipPath
       clipPathUnits="userSpaceOnUse"
       id="clipPath22865"><path
         d="m 226.053,200.386 h 5.424 v -23.865 h -5.424 z"
         id="path22863" /></clipPath><clipPath
       clipPathUnits="userSpaceOnUse"
       id="clipPath22881"><path
         d="M 226.053,173.927 H 245.28 V 163.448 H 226.053 Z"
         id="path22879" /></clipPath><clipPath
       clipPathUnits="userSpaceOnUse"
       id="clipPath22913"><path
         d="M 0,300 H 300 V 0 H 0 Z"
         id="path22911" /></clipPath><clipPath
       clipPathUnits="userSpaceOnUse"
       id="clipPath22921"><path
         d="m 241.123,195.281 h 13.732 v -7.154 h -13.732 z"
         id="path22919" /></clipPath><clipPath
       clipPathUnits="userSpaceOnUse"
       id="clipPath22937"><path
         d="M 239.614,208.359 H 260.74 V 197.448 H 239.614 Z"
         id="path22935" /></clipPath><clipPath
       clipPathUnits="userSpaceOnUse"
       id="clipPath22953"><path
         d="m 230.007,205.743 v 0 0 z"
         id="path22951" /></clipPath><clipPath
       clipPathUnits="userSpaceOnUse"
       id="clipPath22965"><path
         d="m 195.859,210.494 h 36.375 v -22.692 h -36.375 z"
         id="path22963" /></clipPath><clipPath
       clipPathUnits="userSpaceOnUse"
       id="clipPath23057"><path
         d="M 0,300 H 300 V 0 H 0 Z"
         id="path23055" /></clipPath><clipPath
       clipPathUnits="userSpaceOnUse"
       id="clipPath23141"><path
         d="m 241.123,195.281 h 13.732 v -7.154 h -13.732 z"
         id="path23139" /></clipPath><clipPath
       clipPathUnits="userSpaceOnUse"
       id="clipPath23157"><path
         d="M 239.614,212.099 H 260.74 V 197.448 H 239.614 Z"
         id="path23155" /></clipPath><clipPath
       clipPathUnits="userSpaceOnUse"
       id="clipPath23173"><path
         d="m 207.905,207.836 h 22.102 v -2.093 h -22.102 z"
         id="path23171" /></clipPath><clipPath
       clipPathUnits="userSpaceOnUse"
       id="clipPath23189"><path
         d="m 198.531,212.167 h 33.086 v -24.365 h -33.086 z"
         id="path23187" /></clipPath></defs><sodipodi:namedview
     id="namedview22047"
     pagecolor="#ffffff"
     bordercolor="#666666"
     borderopacity="1.0"
     inkscape:showpageshadow="2"
     inkscape:pageopacity="0.0"
     inkscape:pagecheckerboard="0"
     inkscape:deskcolor="#d1d1d1"
     showgrid="false"
     inkscape:zoom="2.305"
     inkscape:cx="200.43384"
     inkscape:cy="200"
     inkscape:window-width="1936"
     inkscape:window-height="1141"
     inkscape:window-x="2420"
     inkscape:window-y="52"
     inkscape:window-maximized="0"
     inkscape:current-layer="svg22045"><inkscape:page
       x="0"
       y="0"
       id="page22051"
       width="400"
       height="400"
       margin="0"
       bleed="0" /></sodipodi:namedview><g
     inkscape:groupmode="layer"
     id="g18"
     inkscape:label="Rear Admiral - Border Pips"
     style="display:none"
     sodipodi:insensitive="true"><rect
       style="fill:#000000;fill-opacity:1;fill-rule:evenodd;stroke:#fbb03b;stroke-width:2;stroke-miterlimit:40;stroke-dasharray:none;stroke-opacity:1"
       id="rect16"
       width="70.543617"
       height="30.446129"
       x="251.14888"
       y="222.14812"
       rx="0"
       ry="0"
       transform="rotate(34.627047)" /><circle
       style="fill:#fbb03b;fill-opacity:1;fill-rule:evenodd;stroke:#fbb03b;stroke-width:2;stroke-miterlimit:40;stroke-dasharray:none;stroke-opacity:1"
       id="circle16"
       cx="111.18644"
       cy="365.93219"
       r="8.8999996" /><circle
       style="fill:#fbb03b;fill-opacity:1;fill-rule:evenodd;stroke:#fbb03b;stroke-width:2;stroke-miterlimit:40;stroke-dasharray:none;stroke-opacity:1"
       id="circle18"
       cx="90.169495"
       cy="351.01694"
       r="8.8999996" /></g><g
     id="g13"
     inkscape:groupmode="layer"
     inkscape:label="Vice Admiral - Collar Pips"
     style="display:none"
     sodipodi:insensitive="true"><path
       id="path5"
       style="display:inline;fill:#000000;fill-opacity:1;fill-rule:evenodd;stroke:#fbb03b;stroke-width:0.7;stroke-miterlimit:40;stroke-dasharray:none"
       d="m 224.64414,243.62787 22.56353,10.05494 -3.17407,7.11397 -22.50355,-10.37679 z"
       sodipodi:nodetypes="ccccc" /><path
       id="path6"
       style="fill:#fbb03b;fill-opacity:1;fill-rule:nonzero;stroke:none;stroke-width:0.884636"
       d="m 226.55859,246.42578 c -1.33108,0.18417 -2.26229,1.41306 -2.07812,2.74414 0.18417,1.33109 1.41305,2.2623 2.74414,2.07813 1.33108,-0.18417 2.2623,-1.41306 2.07813,-2.74414 -0.2054,-1.48453 -1.58274,-2.23882 -2.74415,-2.07813 z m 7.37305,3.29297 c -1.33109,0.18417 -2.26229,1.41305 -2.07812,2.74414 0.18417,1.33108 1.41304,2.26035 2.74414,2.07617 1.33107,-0.18417 2.26229,-1.41305 2.07812,-2.74414 -0.20565,-1.4863 -1.58284,-2.23685 -2.74414,-2.07617 z m 7.67969,3.42968 c -1.33108,0.18418 -2.26035,1.41306 -2.07617,2.74415 0.18417,1.33108 1.41306,2.26034 2.74414,2.07617 1.33108,-0.18417 2.26034,-1.41306 2.07617,-2.74414 -0.20567,-1.48642 -1.58298,-2.23684 -2.74414,-2.07618 z"
       sodipodi:nodetypes="sssssssssssssss" /></g><g
     inkscape:groupmode="layer"
     id="g16"
     inkscape:label="Vice Admiral - Border Pips"
     style="display:none"
     sodipodi:insensitive="true"><rect
       style="fill:#000000;fill-opacity:1;fill-rule:evenodd;stroke:#fbb03b;stroke-width:2;stroke-miterlimit:40;stroke-dasharray:none;stroke-opacity:1"
       id="rect13"
       width="91.35611"
       height="30.045582"
       x="230.33636"
       y="222.54866"
       rx="0"
       ry="0"
       transform="rotate(34.627047)" /><circle
       style="fill:#fbb03b;fill-opacity:1;fill-rule:evenodd;stroke:#fbb03b;stroke-width:2;stroke-miterlimit:40;stroke-dasharray:none;stroke-opacity:1"
       id="circle13"
       cx="111.18644"
       cy="365.93219"
       r="8.8999996" /><circle
       style="fill:#fbb03b;fill-opacity:1;fill-rule:evenodd;stroke:#fbb03b;stroke-width:2;stroke-miterlimit:40;stroke-dasharray:none;stroke-opacity:1"
       id="circle14"
       cx="69.152542"
       cy="336.27118"
       r="8.8999996" /><circle
       style="fill:#fbb03b;fill-opacity:1;fill-rule:evenodd;stroke:#fbb03b;stroke-width:2;stroke-miterlimit:40;stroke-dasharray:none;stroke-opacity:1"
       id="circle15"
       cx="90.169495"
       cy="351.01694"
       r="8.8999996" /></g><g
     id="2Pips"
     inkscape:groupmode="layer"
     inkscape:label="Admiral - Collar Pips"
     style="display:none;opacity:1"
     sodipodi:insensitive="true"><path
       id="rect1"
       style="fill:#000000;fill-opacity:1;fill-rule:evenodd;stroke:#fbb03b;stroke-width:0.7;stroke-miterlimit:40;stroke-dasharray:none"
       d="m 217.48045,240.35996 29.81245,13.36375 -3.20155,7.14218 -29.81245,-13.36374 z" /><path
       id="path27070"
       style="fill:#fbb03b;fill-opacity:1;fill-rule:nonzero;stroke:none;stroke-width:0.888834"
       d="m 219.32517,243.15242 c -1.33772,0.18272 -2.27337,1.4164 -2.09065,2.75412 0.18272,1.33771 1.41471,2.2736 2.75244,2.09088 1.33771,-0.18272 2.27528,-1.41495 2.09255,-2.75267 -0.18272,-1.33772 -1.41662,-2.27505 -2.75434,-2.09233 z m 7.23197,3.24349 c -1.33772,0.18272 -2.27337,1.41639 -2.09065,2.75412 0.18272,1.33772 1.41494,2.27528 2.75267,2.09256 1.33772,-0.18272 2.27505,-1.41662 2.09233,-2.75434 -0.18272,-1.33773 -1.41663,-2.27506 -2.75435,-2.09234 z m 7.40361,3.32111 c -1.33773,0.18273 -2.27505,1.41664 -2.09233,2.75435 0.18272,1.33773 1.41638,2.27338 2.75412,2.09065 1.33771,-0.18271 2.2736,-1.4147 2.09088,-2.75243 -0.18272,-1.33772 -1.41496,-2.27529 -2.75267,-2.09257 z m 7.71026,3.45912 c -1.33772,0.18272 -2.27338,1.41638 -2.09065,2.75412 0.18272,1.33772 1.41471,2.27359 2.75243,2.09087 1.33772,-0.18272 2.27529,-1.41493 2.09257,-2.75265 -0.18273,-1.33774 -1.41664,-2.27506 -2.75435,-2.09234 z" /></g><g
     id="g24"
     inkscape:groupmode="layer"
     inkscape:label="Rear Admiral - Collar Pips"
     style="display:inline"><path
       id="path18"
       style="fill:#000000;fill-opacity:1;fill-rule:evenodd;stroke:#fbb03b;stroke-width:0.706982;stroke-miterlimit:40;stroke-dasharray:none"
       d="m 231.96588,246.92001 15.3157,6.81286 -3.2181,7.09763 -15.38775,-6.88777 z"
       sodipodi:nodetypes="ccccc" /><path
       id="path19"
       style="fill:#fbb03b;fill-opacity:1;fill-rule:nonzero;stroke:none;stroke-width:0.891843"
       d="m 234.12148,249.66381 c -0.0927,0.002 -0.1857,0.009 -0.28012,0.0216 -1.34288,0.17867 -2.28818,1.41225 -2.10951,2.75513 0.17868,1.34287 1.41421,2.28818 2.75709,2.10951 1.34287,-0.17867 2.28622,-1.41423 2.10754,-2.7571 -0.16192,-1.21698 -1.19134,-2.10602 -2.38229,-2.12913 -0.0308,-7.1e-4 -0.0618,-6.3e-4 -0.0927,-2e-5 z m 7.72568,3.49769 c -0.0927,0.002 -0.18569,0.009 -0.28011,0.0216 -1.34288,0.17867 -2.28818,1.41223 -2.10951,2.75512 0.17867,1.34288 1.41421,2.28819 2.75709,2.10952 1.34287,-0.17867 2.28621,-1.41225 2.10754,-2.75513 -0.16192,-1.21698 -1.19135,-2.10799 -2.38229,-2.1311 -0.0308,-7.1e-4 -0.0618,-6.3e-4 -0.0927,-2e-5 z" /></g><g
     inkscape:groupmode="layer"
     id="layer3"
     inkscape:label="Admiral - Border Pips"
     sodipodi:insensitive="true"
     style="display:none"><rect
       style="fill:#000000;fill-opacity:1;fill-rule:evenodd;stroke:#fbb03b;stroke-width:2;stroke-miterlimit:40;stroke-dasharray:none;stroke-opacity:1"
       id="rect34812"
       width="123.12957"
       height="30.247999"
       x="198.5629"
       y="222.34625"
       rx="0"
       ry="0"
       transform="rotate(34.627047)" /><circle
       style="fill:#fbb03b;fill-opacity:1;fill-rule:evenodd;stroke:#fbb03b;stroke-width:2;stroke-miterlimit:40;stroke-dasharray:none;stroke-opacity:1"
       id="path40811"
       cx="111.18644"
       cy="365.93219"
       r="8.8999996" /><circle
       style="fill:#fbb03b;fill-opacity:1;fill-rule:evenodd;stroke:#fbb03b;stroke-width:2;stroke-miterlimit:40;stroke-dasharray:none;stroke-opacity:1"
       id="use40813"
       cx="69.152542"
       cy="336.27118"
       r="8.8999996" /><circle
       style="fill:#fbb03b;fill-opacity:1;fill-rule:evenodd;stroke:#fbb03b;stroke-width:2;stroke-miterlimit:40;stroke-dasharray:none;stroke-opacity:1"
       id="use40815"
       cx="90.169495"
       cy="351.01694"
       r="8.8999996" /><circle
       style="fill:#fbb03b;fill-opacity:1;fill-rule:evenodd;stroke:#fbb03b;stroke-width:2;stroke-miterlimit:40;stroke-dasharray:none;stroke-opacity:1"
       id="use40817"
       cx="48.135593"
       cy="321.52542"
       r="8.8999996" /></g></svg>
