<?xml version="1.0" encoding="UTF-8" standalone="no"?>
<svg
   width="100%"
   height="100%"
   viewBox="0 0 400 400"
   version="1.1"
   xml:space="preserve"
   style="fill-rule:evenodd;clip-rule:evenodd;stroke-linejoin:round;stroke-miterlimit:2;"
   id="svg13"
   sodipodi:docname="TellariteTusks.svg"
   inkscape:version="1.4 (e7c3feb1, 2024-10-09)"
   xmlns:inkscape="http://www.inkscape.org/namespaces/inkscape"
   xmlns:sodipodi="http://sodipodi.sourceforge.net/DTD/sodipodi-0.dtd"
   xmlns="http://www.w3.org/2000/svg"
   xmlns:svg="http://www.w3.org/2000/svg"><defs
   id="defs13">
        
        
    
                
            
                
            
                
            
                    
                
            
            
            
            
            
            
        
                
            
                
            
                
            
                
            
                
            
                
            
                    
                
                    
                
            
            
            
        </defs><sodipodi:namedview
   id="namedview13"
   pagecolor="#ffffff"
   bordercolor="#666666"
   borderopacity="1.0"
   inkscape:showpageshadow="2"
   inkscape:pageopacity="0.0"
   inkscape:pagecheckerboard="0"
   inkscape:deskcolor="#d1d1d1"
   inkscape:zoom="2.1875"
   inkscape:cx="200.22857"
   inkscape:cy="200"
   inkscape:window-width="1888"
   inkscape:window-height="1094"
   inkscape:window-x="2557"
   inkscape:window-y="162"
   inkscape:window-maximized="0"
   inkscape:current-layer="svg13" />
    
<g
   id="g13"
   inkscape:label="Left Tusk"><path
     d="m 307.54585,197.61417 c 0.144,-0.32533 0.29866,-0.64533 0.488,-0.94133 0.43466,-0.684 0.86666,-1.68533 1.49466,-2.21999 1.032,-0.87867 2.60933,-1.052 3.87466,-1.18933 -0.384,-0.26267 -0.98933,-0.31867 -1.30267,-0.64667 0.352,-0.38933 1.08667,-0.43733 1.576,-0.59066 0.64133,-0.20134 1.31866,-0.37334 1.96133,-0.46934 1.22933,-0.18533 2.46932,-0.29199 3.71065,-0.33466 0.89334,-0.0293 1.736,0.15866 2.63867,0.14 1.84932,-0.036 3.69599,-0.26133 5.50931,-0.62667 3.384,-0.68133 6.74665,-1.83999 9.70131,-3.64399 2.284,-1.39466 4.65599,-3.36799 5.38266,-6.05998 1.75466,-6.50532 5.96932,4.26399 2.84266,9.09731 -3.128,4.83199 -9.72665,11.88397 -21.38262,14.72663 -4.52399,1.10266 -9.75864,1.94266 -14.28529,0.37866 -1.65467,-0.57066 -4.29333,-3.22266 -3.93466,-5.42798 0.46666,-0.228 0.608,-0.072 0.91466,-0.53467 0.33334,-0.504 0.55734,-1.08933 0.81067,-1.65733"
     style="clip-rule:evenodd;fill:#000000;fill-opacity:1;fill-rule:nonzero;stroke-width:1.33333;stroke-linejoin:round;stroke-miterlimit:2"
     id="path1" /><path
     d="m 315.46983,203.60749 c 2.59999,0 5.57332,-0.39066 8.59998,-1.12933 11.55463,-2.81733 17.38129,-8.66531 20.23461,-13.07463 1.67867,-2.59466 0.68667,-7.24265 -0.208,-8.71998 -0.0693,0.16933 -0.148,0.396 -0.22933,0.69466 -1.8,6.67332 -13.2493,11.32264 -22.39994,11.32264 -0.464,0 -1.01733,0.0573 -1.472,-0.0413 -0.368,-0.08 -0.65733,-0.28267 -1.032,-0.37867 -0.8,-0.20533 -1.66266,-0.076 -2.47732,-0.076 -1.76933,0 -3.37866,0.256 -5.15599,-0.0373 0.25333,0.23333 0.53333,0.46533 0.84133,0.62933 -0.964,-0.02 -1.84533,-0.12133 -2.76933,-0.33333 0.128,0.1 0.19334,0.27333 0.28934,0.38 -0.26934,0.0387 -0.54134,-0.0267 -0.79867,-0.0413 0.10933,0.31067 0.47333,0.44934 0.43333,0.80534 -0.83866,0.13466 -2.35866,-0.0333 -3.14399,-0.52934 0.48667,0.544 0.92933,1.11067 1.40933,1.648 -0.51066,0.048 -1.01866,-0.0853 -1.524,-0.0413 0.18267,0.27733 0.372,0.58266 0.61334,0.82133 -0.41734,-0.10667 -0.86267,-0.12267 -1.28667,-0.18 0.0173,0.212 0.11334,0.43066 0.23734,0.57733 -0.16267,-0.0573 -0.364,-0.0573 -0.51734,-0.10667 -0.096,0.612 0.26,1.15733 0.74,1.47733 -0.16266,-0.0933 -0.35733,-0.15733 -0.51733,-0.22266 -0.003,0.41466 0.0547,0.828 0.21467,1.21066 -0.11334,-0.104 -0.24934,-0.10133 -0.36667,-0.172 -0.0467,0.39467 0.29733,0.83333 0.52133,1.15867 -0.11866,-0.11334 -0.28,-0.164 -0.41333,-0.25734 -0.14667,0.25867 -0.104,0.58 0.11733,0.78533 -0.0613,-0.0493 -0.13333,-0.0867 -0.19333,-0.136 0.20267,1.78 2.49466,2.72133 3.94266,3.23066 2.01333,0.71067 4.18399,0.736 6.31065,0.736"
     style="clip-rule:evenodd;fill:#efeae2;fill-rule:nonzero;stroke-width:1.33333;stroke-linejoin:round;stroke-miterlimit:2"
     id="path2" /><path
     d="m 315.46983,203.60749 c 2.59999,0 5.57332,-0.39066 8.59998,-1.12933 11.55463,-2.81733 17.38129,-8.66531 20.23461,-13.07463 1.67867,-2.59466 0.68667,-7.24265 -0.208,-8.71998 0.0747,0.12266 -0.29066,1.53866 -0.33733,1.74399 -0.16267,0.73467 -0.37467,1.45733 -0.632,2.164 -0.51866,1.41599 -1.22133,2.77466 -2.13466,3.97599 -1.25466,1.65333 -2.61333,3.02399 -4.31199,4.25065 -1.42399,1.02934 -2.77732,2.21733 -4.41332,2.864 0.53333,-0.32267 1.044,-0.95733 1.516,-1.39067 0.31599,-0.288 0.68133,-0.58933 0.95999,-0.91599 -2.46932,2.12932 -6.12665,3.45199 -9.28797,4.03332 -2.076,0.38267 -4.00533,0.91333 -6.14932,0.916 0.66266,-0.0853 1.284,-0.508 1.95599,-0.64 0.54134,-0.10667 1.10533,-0.192 1.64267,-0.29867 1.00933,-0.2 2.04666,-0.32 3.04932,-0.46133 0.52133,-0.0733 1.21333,-0.0173 1.61333,-0.41866 -1.408,-0.048 -2.58666,-0.0267 -3.90666,0.33199 -1.72399,0.468 -3.51332,0.676 -5.28665,0.84 -1.97199,0.18267 -3.94666,0.34933 -5.92532,0.42533 -1.65333,0.064 -3.27999,0.35067 -4.87865,-0.22533 -0.472,-0.16933 -1.404,-0.86266 -1.908,-0.75866 -0.4,0.084 -0.48666,0.79733 -0.11066,1.14266 -0.11334,-0.104 -0.24934,-0.10133 -0.36667,-0.172 -0.0467,0.39467 0.29733,0.83333 0.52133,1.15867 -0.11866,-0.11334 -0.28,-0.164 -0.41333,-0.25734 -0.14667,0.25867 -0.104,0.58 0.11733,0.78533 -0.0613,-0.0493 -0.13333,-0.0867 -0.19333,-0.136 0.20267,1.78 2.49466,2.72133 3.94266,3.23066 2.01333,0.71067 4.18399,0.736 6.31065,0.736"
     style="clip-rule:evenodd;opacity:0.2;fill:#000000;fill-opacity:1;fill-rule:nonzero;stroke-width:1.33333;stroke-linejoin:round;stroke-miterlimit:2"
     id="path3" /></g><g
   inkscape:groupmode="layer"
   id="layer4"
   inkscape:label="Right Tusk"><path
     d="m 243.56201,198.32217 c -2.48533,-1.18667 -5.57065,-2.476 -8.35198,-2.46933 -2.26666,0.005 -5.12132,-0.69066 -6.73598,1.40266 -1.00133,1.29733 -0.85067,2.88666 -0.0947,4.26133 0.34533,0.62666 0.77467,1.22533 1.30933,1.70266 0.22533,0.20133 0.47067,0.47333 0.73067,0.61733 0.27333,0.14933 0.55066,0.11733 0.75333,0.392 0.17066,0.23333 0.176,0.37866 0.42533,0.53333 0.39867,0.248 0.90933,0.21333 1.28266,0.49867 0.224,0.172 0.37867,0.43733 0.63334,0.592 0.40266,0.24399 0.78666,0.18133 1.25199,0.22799 0.68533,0.068 1.34667,0.38534 2.00533,0.556 1.23866,0.32267 2.70933,0.452 3.94266,0.136 1.44666,-0.37066 2.82932,-1.03999 3.99999,-1.96799 0.764,-0.60533 1.05599,-1.544 1.65733,-2.27466 0.48,-0.58267 1.48933,-1.32933 0.82533,-2.228 -0.68133,-0.924 -2.66133,-1.51466 -3.63466,-1.97999"
     style="clip-rule:evenodd;fill:#000000;fill-opacity:1;fill-rule:nonzero;stroke-width:1.33333;stroke-linejoin:round;stroke-miterlimit:2"
     id="path4" /><path
     d="m 244.52201,198.9515 c -2.16533,-0.98267 -4.85199,-2.05066 -7.27465,-2.044 -1.97333,0.004 -4.45865,-0.57199 -5.86665,1.16133 -0.84267,1.03867 -0.75067,2.31867 -0.13067,3.44133 0.58534,1.06133 1.64667,1.61733 2.26533,2.60933 0.3,0.48133 0.78533,0.58933 1.29733,0.91466 0.0667,0.0413 0.21067,-0.004 0.29467,0.048 0.0573,0.036 0.0507,0.15867 0.116,0.20133 0.212,0.144 0.27066,0.18 0.536,0.25334 0.48799,0.13333 0.87333,0.35066 1.40533,0.40799 0.48266,0.0507 0.81466,0.28267 1.31466,0.31867 2.43866,0.17333 5.07599,-0.45866 7.04665,-1.94533 0.66533,-0.50133 0.92,-1.27733 1.44266,-1.88266 0.41733,-0.48267 1.29733,-1.1 0.71867,-1.84533 -0.59334,-0.764 -2.31733,-1.25333 -3.16533,-1.63866"
     style="clip-rule:evenodd;fill:#cd976d;fill-rule:nonzero;stroke-width:1.33333;stroke-linejoin:round;stroke-miterlimit:2"
     id="path5" /><path
     d="m 244.52201,198.9515 c -2.16533,-0.98266 -4.85199,-2.05066 -7.27465,-2.044 -1.97333,0.004 -4.45865,-0.57199 -5.86665,1.16133 -0.84,1.03467 -0.752,2.312 -0.13467,3.43333 0.212,0.38533 0.52534,0.69466 0.76133,1.06266 0.18267,0.28534 0.24267,0.576 0.39067,0.88533 0.30267,0.632 1.05066,1.46533 1.67333,1.78667 0.71333,0.368 1.57333,0.38666 2.31333,0.71066 0.744,0.328 1.29466,0.45867 2.13199,0.59067 0.65733,0.10266 1.32667,0.13466 1.992,-0.0253 0.84933,-0.20266 1.75999,-0.58266 2.58399,-0.88399 0.868,-0.31734 1.696,-0.75334 2.43333,-1.31067 0.66533,-0.50133 0.92,-1.27733 1.44266,-1.88266 0.41733,-0.48266 1.29733,-1.1 0.71867,-1.84533 -0.59334,-0.764 -2.31733,-1.25333 -3.16533,-1.63866"
     style="clip-rule:evenodd;opacity:0.2;fill-rule:nonzero;stroke-width:1.33333;stroke-linejoin:round;stroke-miterlimit:2"
     id="path6" /><path
     d="m 248.154,197.61417 c -0.132,-0.32533 -0.27067,-0.64533 -0.44267,-0.94133 -0.39599,-0.684 -0.78799,-1.68533 -1.35866,-2.22 -0.93733,-0.87866 -2.37066,-1.05199 -3.52132,-1.18933 0.34933,-0.26266 0.89999,-0.31866 1.18399,-0.64666 -0.32,-0.38933 -0.98666,-0.43733 -1.43066,-0.59067 -0.58266,-0.20133 -1.2,-0.37333 -1.78266,-0.46933 -1.11733,-0.18533 -2.244,-0.292 -3.37199,-0.33466 -0.812,-0.0293 -1.57733,0.15866 -2.396,0.13999 -1.68133,-0.036 -3.35866,-0.26133 -5.00665,-0.62666 -3.07466,-0.68133 -6.12932,-1.84 -8.81465,-3.64399 -2.07466,-1.39466 -4.23065,-3.36799 -4.88932,-6.05999 -1.59466,-6.50531 -5.42532,4.26399 -2.58399,9.09731 2.84133,4.83199 8.52398,10.80264 19.11462,13.6453 4.10932,1.104 8.55331,1.93733 12.6653,0.37334 1.504,-0.57067 4.52799,-2.136 4.20266,-4.34133 -0.424,-0.228 -0.55334,-0.072 -0.832,-0.53466 -0.30267,-0.504 -0.50667,-1.08933 -0.736,-1.65733"
     style="clip-rule:evenodd;fill:#000000;fill-opacity:1;fill-rule:nonzero;stroke-width:1.33333;stroke-linejoin:round;stroke-miterlimit:2"
     id="path8" /><path
     d="m 240.95535,203.60749 c -2.36133,0 -5.06399,-0.39066 -7.81331,-1.12933 -10.49864,-2.81732 -15.79196,-8.66531 -18.38529,-13.07463 -1.52533,-2.59466 -0.624,-7.24265 0.18933,-8.71998 0.0627,0.16933 0.13467,0.396 0.208,0.69466 1.636,6.67332 12.03864,11.32264 20.35195,11.32264 0.42267,0 0.92533,0.0573 1.33733,-0.0413 0.33467,-0.08 0.59733,-0.28267 0.93733,-0.37867 0.72667,-0.20533 1.512,-0.076 2.25066,-0.076 1.608,0 3.07066,0.256 4.68532,-0.0373 -0.22933,0.23333 -0.48533,0.46533 -0.76399,0.62933 0.87599,-0.02 1.67599,-0.12133 2.51599,-0.33333 -0.11733,0.1 -0.176,0.27333 -0.26267,0.38 0.244,0.0387 0.49067,-0.0267 0.72534,-0.0413 -0.0987,0.31066 -0.42934,0.44933 -0.39334,0.80533 0.76267,0.13466 2.14266,-0.0333 2.856,-0.52933 -0.44267,0.54399 -0.844,1.11066 -1.28,1.64799 0.46266,0.048 0.924,-0.0853 1.38533,-0.0413 -0.16667,0.27733 -0.34,0.58266 -0.55733,0.82133 0.37733,-0.10667 0.78266,-0.12267 1.16799,-0.18 -0.016,0.212 -0.10266,0.43067 -0.216,0.57733 0.148,-0.0573 0.33067,-0.0573 0.46934,-0.10666 0.0893,0.61199 -0.236,1.15733 -0.67067,1.47733 0.148,-0.0933 0.324,-0.15734 0.46933,-0.22267 0.003,0.41466 -0.0493,0.828 -0.19466,1.21066 0.10266,-0.104 0.22666,-0.10133 0.33333,-0.172 0.0427,0.39467 -0.26933,0.83333 -0.47333,1.15867 0.10666,-0.11334 0.25333,-0.164 0.37466,-0.25734 0.13334,0.25867 0.0947,0.58 -0.10666,0.78534 0.056,-0.0493 0.12133,-0.0867 0.176,-0.136 -0.18534,1.77999 -2.26666,2.72132 -3.58133,3.23065 -1.83066,0.71067 -3.80265,0.736 -5.73465,0.736"
     style="clip-rule:evenodd;fill:#efeae2;fill-rule:nonzero;stroke-width:1.33333;stroke-linejoin:round;stroke-miterlimit:2"
     id="path9" /><path
     d="m 240.95535,203.60749 c -2.36133,0 -5.06399,-0.39066 -7.81331,-1.12933 -10.49864,-2.81732 -15.79196,-8.66531 -18.38529,-13.07463 -1.52533,-2.59466 -0.624,-7.24265 0.18933,-8.71998 -0.068,0.12267 0.264,1.53866 0.30533,1.744 0.148,0.73466 0.34134,1.45733 0.576,2.16399 0.47067,1.416 1.10933,2.77466 1.93866,3.97599 1.14,1.65333 2.37467,3.02399 3.91733,4.25066 1.29466,1.02933 2.52399,2.21732 4.01065,2.86399 -0.48399,-0.32267 -0.94799,-0.95733 -1.37866,-1.39066 -0.28666,-0.288 -0.61733,-0.58934 -0.87066,-0.916 2.24266,2.12933 5.56532,3.45199 8.43864,4.03332 1.88533,0.38267 3.63866,0.91333 5.58666,0.916 -0.60134,-0.0853 -1.16667,-0.508 -1.77733,-0.64 -0.492,-0.10667 -1.004,-0.192 -1.492,-0.29867 -0.91733,-0.19999 -1.86,-0.31999 -2.77066,-0.46133 -0.47333,-0.0733 -1.10266,-0.0173 -1.46533,-0.41866 1.27866,-0.048 2.34933,-0.0267 3.54799,0.332 1.568,0.468 3.19199,0.67599 4.80399,0.83999 1.792,0.18267 3.58532,0.34934 5.38399,0.42534 1.50133,0.064 2.97999,0.35066 4.43199,-0.22534 0.42933,-0.16933 1.27599,-0.86266 1.73466,-0.75866 0.36266,0.084 0.44266,0.79733 0.1,1.14266 0.10266,-0.104 0.22666,-0.10133 0.33333,-0.172 0.0427,0.39467 -0.26933,0.83333 -0.47333,1.15867 0.10666,-0.11334 0.25333,-0.164 0.37466,-0.25734 0.13334,0.25867 0.0947,0.58 -0.10666,0.78534 0.056,-0.0493 0.12133,-0.0867 0.176,-0.136 -0.18534,1.77999 -2.26666,2.72132 -3.58133,3.23065 -1.83066,0.71067 -3.80265,0.736 -5.73465,0.736"
     style="clip-rule:evenodd;opacity:0.2;fill:#000000;fill-opacity:1;fill-rule:nonzero;stroke-width:1.33333;stroke-linejoin:round;stroke-miterlimit:2"
     id="path10" /></g></svg>
