<?xml version="1.0" encoding="UTF-8" standalone="no"?>
<!-- Created with Inkscape (http://www.inkscape.org/) -->

<svg
   version="1.1"
   id="svg147711"
   width="400"
   height="400"
   viewBox="0 0 400 400"
   sodipodi:docname="FerengiNose.svg"
   inkscape:version="1.4 (e7c3feb1, 2024-10-09)"
   xmlns:inkscape="http://www.inkscape.org/namespaces/inkscape"
   xmlns:sodipodi="http://sodipodi.sourceforge.net/DTD/sodipodi-0.dtd"
   xmlns="http://www.w3.org/2000/svg"
   xmlns:svg="http://www.w3.org/2000/svg">
  <defs
     id="defs147715" />
  <sodipodi:namedview
     id="namedview147713"
     pagecolor="#ffe0e0"
     bordercolor="#666666"
     borderopacity="1.0"
     inkscape:showpageshadow="2"
     inkscape:pageopacity="0.0"
     inkscape:pagecheckerboard="0"
     inkscape:deskcolor="#d1d1d1"
     showgrid="false"
     inkscape:zoom="1.845"
     inkscape:cx="200"
     inkscape:cy="200"
     inkscape:window-width="1984"
     inkscape:window-height="1053"
     inkscape:window-x="2409"
     inkscape:window-y="122"
     inkscape:window-maximized="0"
     inkscape:current-layer="g147719">
    <inkscape:page
       x="0"
       y="0"
       id="page147717"
       width="400"
       height="400"
       margin="0"
       bleed="0" />
  </sodipodi:namedview>
  <g
     id="g147719"
     inkscape:groupmode="layer"
     inkscape:label="Page 1">
    <path
       style="fill:#ffffff;fill-opacity:0.3;stroke:none;stroke-width:1px;stroke-linecap:butt;stroke-linejoin:miter;stroke-opacity:1"
       d="m 324.49709,127.28579 c 0,0 -7.21187,6.04991 -7.9695,8.23838 -0.25168,0.72699 0.79255,8.7288 2.99101,14.6346 0.26854,0.72139 -3.51247,0.98547 -3.72516,1.78069 -0.20045,0.74944 0.15665,1.85048 1.39619,2.02942 2.07535,0.2996 7.44555,3.25342 9.16207,7.19912 0.4851,1.11509 1.27207,4.32014 1.10501,5.98956 -0.20191,2.01764 -2.38308,5.39153 -2.38308,5.39153 l 3.12118,-3.04741 1.71461,-3.15758 -1.00433,-7.23726 c 0,0 -1.24799,-2.51409 -2.86315,-4.46999 -1.18293,-1.43248 -2.55622,-3.07613 -2.89646,-3.73493 -1.83721,-3.55732 -2.76724,-5.78674 -3.55369,-9.07142 -0.73164,-3.05572 -0.98546,-7.17958 -0.98546,-7.17958 l 2.92842,-3.78745 z"
       id="path1"
       sodipodi:nodetypes="cssssssccccsssccc" />
    <path
       id="path168893"
       style="opacity:0.199997;fill:#000000;fill-opacity:1;fill-rule:nonzero;stroke:none;stroke-width:1.33333"
       d="M 313.70898 123.45703 C 313.4938 123.45439 313.28213 123.46686 313.07812 123.50586 C 312.41546 123.63253 311.73452 123.9093 311.11719 124.16797 C 310.27052 124.52397 309.3858 124.96733 308.61914 125.47266 C 307.47514 126.22733 306.29079 126.96986 305.18945 127.7832 C 304.56279 128.24586 304.04941 128.78563 303.58008 129.4043 C 303.44941 129.5763 303.4704 129.80586 303.42773 130.00586 C 303.37843 130.22986 303.32489 130.43464 303.35156 130.66797 C 303.38886 131.0053 303.56464 131.55753 303.83398 131.76953 C 304.25131 132.09753 304.88805 132.34406 305.38672 132.52539 C 305.74672 132.65606 306.11008 132.79893 306.46875 132.93359 C 307.00742 133.13759 307.57443 133.12553 308.12109 133.26953 C 308.60776 133.39753 309.07589 133.581 309.58789 133.625 C 310.15055 133.6743 310.685 133.87479 311.26367 133.82812 C 311.389 133.81913 311.88081 133.79261 311.77148 133.58594 C 311.31814 133.51924 310.80247 133.30515 310.36914 133.14648 C 309.98247 133.00648 309.58394 132.88814 309.19727 132.74414 C 308.85594 132.61747 308.51889 132.508 308.18555 132.36133 C 307.96689 132.26533 307.61327 132.18533 307.47461 132 C 307.82661 131.9733 308.18378 131.97852 308.53711 131.95312 C 309.03578 131.91843 309.51714 131.79698 310.00781 131.70898 C 310.92514 131.54498 311.83896 131.2813 312.76562 131.16797 C 312.92962 131.14797 313.09381 131.1343 313.25781 131.125 C 313.83381 131.0943 314.40733 131.1307 314.97266 131.23438 C 315.64333 131.35837 316.32081 131.4961 316.99414 131.63477 C 317.47948 131.73477 317.96389 131.84817 318.44922 131.9375 C 318.62255 131.9695 319.28606 132.18627 319.41406 132.01562 C 319.27806 132.1983 319.04871 132.40988 318.85938 132.56055 C 318.29003 133.01522 317.31981 133.12151 316.86914 133.71484 C 317.54514 133.73484 318.21742 133.62646 318.85742 133.42383 C 319.75876 133.13716 320.62683 132.37976 321.16016 131.62109 C 321.46283 131.19176 321.71265 130.7913 321.83398 130.2793 C 322.14998 128.94196 321.72501 127.68342 320.90234 126.60742 C 319.95968 125.37275 318.74938 124.46933 317.24805 124 C 316.41338 123.74 315.64081 123.62902 314.77148 123.54102 C 314.43232 123.50683 314.06762 123.46144 313.70898 123.45703 z M 304.62109 132.38477 C 304.62109 132.38477 302.15367 135.56312 302.15234 135.56445 C 301.683 136.16979 302.12815 139.59928 302.05078 140.50195 C 301.92811 141.93128 301.94786 143.00334 302.11719 144.38867 C 302.51986 147.67401 303.15823 151.49013 302.1582 154.7168 C 300.93154 158.67146 296.06165 159.85693 294.45898 163.68359 C 293.53098 165.89826 293.30008 169.05056 293.94141 171.36523 C 294.85208 174.64523 298.67336 174.08173 301.19336 174.67773 C 304.32936 175.41773 307.876 177.42881 310.22266 179.63281 C 310.99466 180.35814 311.9025 181.18856 312.83984 181.61523 C 314.24917 182.25523 315.68637 181.60803 317.0957 181.3457 C 320.62104 180.69103 323.85222 179.293 326.32422 176.625 C 327.20022 175.67834 327.80764 174.48561 328.6543 173.57227 C 329.4983 172.66161 330.48145 172.1975 330.55078 170.79883 C 330.63748 169.06683 330.5355 167.44803 330.1582 165.83203 C 329.8942 164.70537 329.70273 163.5224 329.30273 162.42773 C 329.5574 163.1264 328.61961 164.90964 328.32227 165.54297 C 327.58094 167.12164 326.75297 168.5595 325.1543 169.32617 C 323.6703 170.03683 321.9555 170.25454 320.32617 170.17188 C 319.75017 170.14257 319.35455 170.06008 318.81055 169.85742 C 318.37455 169.69342 317.88364 169.28683 317.43164 169.29883 C 317.56897 170.58416 319.20811 170.44922 320.05078 170.94922 C 319.41211 171.59589 318.42069 171.37077 317.66602 171.13477 C 317.36069 171.03877 315.168 170.34879 315.22266 169.93945 C 315.064 171.13012 313.94924 171.10558 313.00391 171.01758 C 311.58124 170.88558 310.36655 171.03572 308.94922 171.34375 C 308.46789 171.44775 303.60669 171.51649 303.55469 171.67383 C 304.19069 169.76983 307.41052 168.84 309.11719 168 C 311.49452 166.83067 313.2958 167.18852 315.36914 168.72852 C 315.06647 168.50452 315.32911 166.65269 314.73047 166.08203 C 314.11181 165.49136 313.29076 165.51627 312.49609 165.57227 C 310.85476 165.68961 309.50244 166.5015 308.03711 167.16016 C 306.94778 167.65083 305.83955 168.09547 304.71289 168.49414 C 303.73555 168.83947 302.49601 168.90525 301.63867 169.50391 C 301.12001 169.86658 301.36583 170.31395 301.3125 170.86328 C 300.7045 170.05528 299.925 169.337 300.26367 168.26367 C 300.89967 166.24767 303.22697 165.79191 304.68164 164.64258 C 304.24564 164.64358 303.80768 164.91884 303.40234 165.07617 C 301.70634 165.73084 299.99392 165.73006 298.80859 167.27539 C 298.38192 167.83139 298.81627 168.75409 299.19727 169.24609 C 298.36793 168.50209 297.16015 167.31281 297.02148 166.13281 C 296.87348 164.88215 298.72119 163.78836 299.61719 163.20703 C 300.44919 162.66703 301.35086 162.24886 302.26953 161.88086 C 302.77486 161.67819 304.15194 160.87022 304.69727 161.07422 C 302.34127 160.19688 297.25615 161.52088 295.88281 163.79688 C 297.51481 161.09153 300.16952 159.84995 302.99219 158.72461 C 306.19619 157.44861 309.09203 156.02089 312.55469 155.49023 C 308.08803 155.52623 304.23632 156.44012 300.45898 158.82812 C 302.58165 156.56947 305.29576 153.94392 307.98242 152.41992 C 309.21976 151.71859 310.65705 151.18986 311.87305 151.36719 C 310.82905 151.21386 309.84336 150.85988 308.94336 150.31055 C 308.5887 150.09455 307.86525 149.68706 308.14258 149.17773 C 308.34391 148.80706 308.91977 148.87722 309.25977 148.94922 C 310.2171 149.15056 311.09372 149.51339 312.12305 149.52539 C 311.71505 149.25739 311.20243 149.21373 310.75977 149.03906 C 310.19577 148.81639 309.61734 148.52292 309.13867 148.15625 C 308.724 147.84025 307.39952 146.87133 307.74219 146.25 C 308.34886 146.52067 308.93945 146.78956 309.57812 146.96289 C 310.04212 147.08822 310.60531 147.41048 311.08398 147.36914 C 310.21464 146.75581 309.10361 146.37887 308.32227 145.54688 C 307.93294 145.1322 307.12139 144.27022 307.38672 143.71289 C 308.30672 143.89955 309.3362 144.85167 310.26953 144.76367 C 309.7482 144.57034 309.25963 144.06333 308.79297 143.75 C 308.3863 143.478 308.0626 143.27939 307.69727 142.91406 C 307.17994 142.39673 306.4183 141.66061 306.43164 140.86328 C 306.73564 140.96328 306.98813 141.43171 307.32812 141.37305 C 307.04012 140.64505 306.7399 139.85625 306.36523 139.15625 C 306.18123 138.81359 305.93239 138.49138 305.76172 138.13672 C 305.594 137.7893 305.51351 137.41836 305.45703 137.04102 C 305.66316 137.36099 306.01764 137.59921 306.38672 137.77539 C 307.01872 138.07676 307.71192 138.29384 308.41992 138.08984 C 308.23859 137.5725 307.19173 137.35258 306.78906 137.03125 C 306.37039 136.69792 306.07303 136.414 305.5957 136.25 C 305.51459 136.22179 305.42924 136.19858 305.33594 136.17773 C 305.32177 136.08736 305.31108 135.99538 305.29297 135.90625 C 305.23074 135.60178 305.16361 135.22279 305.09766 134.86523 C 305.35674 135.09905 305.71568 135.22656 306.04492 135.30273 C 306.66358 135.44539 307.32741 135.47952 307.96875 135.57422 C 308.85675 135.70489 310.77164 136.34216 311.57031 135.91016 C 310.49964 135.69416 309.31276 135.31442 308.24609 134.98242 C 307.55409 134.76642 306.90858 134.40761 306.25391 134.09961 C 305.79723 133.88547 305.29371 133.47467 304.80859 133.35156 C 304.74611 133.02129 304.6819 132.66756 304.62109 132.38477 z M 318.8457 134.05469 C 317.64036 135.34669 315.64881 135.47272 314.13281 136.13672 C 315.23147 136.44206 316.97389 136.26216 318.06055 135.91016 C 318.62989 135.72616 319.29636 134.82535 318.8457 134.05469 z M 318.51367 135.68359 C 318.26567 136.38626 318.28118 137.22008 317.97852 137.94141 C 317.59852 138.84408 316.69911 139.28887 315.92578 139.79688 C 314.93378 140.44887 314.3993 140.4674 313.2793 140.05273 C 311.95396 139.56073 310.97544 139.08744 309.52344 138.99414 C 310.09944 139.42481 310.95266 139.60197 311.61133 139.91797 C 311.99266 140.10063 312.32989 140.31172 312.69922 140.51172 C 314.35655 141.40639 316.07378 141.08134 317.42578 139.77734 C 317.99244 139.23201 318.44924 138.55253 318.64258 137.7832 C 318.73728 137.4072 318.76442 137.02081 318.73242 136.63281 C 318.72042 136.47815 318.48297 135.76759 318.51367 135.68359 z M 318.89648 137.3125 C 318.88582 137.92583 318.53528 138.72894 318.36328 139.32227 C 318.15128 140.05027 317.88928 140.77211 317.47461 141.41211 C 316.76261 142.50944 315.68048 143.01786 314.39648 143.14453 C 314.27115 143.15793 314.13423 143.16688 313.99023 143.17188 C 313.25156 143.1972 312.32295 143.11495 311.76562 142.84961 C 312.42163 143.18961 313.25765 143.44712 313.95898 143.70312 C 314.47098 143.89112 315.05666 144.1424 315.61133 144.0957 C 317.66466 143.9197 318.23552 142.00037 318.74219 140.3457 C 319.03419 139.3937 318.88048 138.31117 318.89648 137.3125 z M 306.66992 138.96094 C 306.89925 140.3756 308.45096 141.8469 309.76562 142.24023 C 310.94329 142.59184 312.31587 142.25936 313.4707 142.57617 C 311.96621 142.12181 310.34995 142.23485 309.13867 141.11914 C 308.356 140.39914 307.48325 139.66627 306.66992 138.96094 z M 319.27539 141.35938 C 319.05272 142.07137 318.87559 142.71912 318.54492 143.42578 C 318.25292 144.04845 318.10372 144.57117 317.51172 144.95117 C 316.90772 145.3405 316.38691 145.53561 315.65625 145.57031 C 314.84025 145.60897 314.03402 145.64044 313.30469 145.28711 C 312.63269 144.96044 311.90639 144.82877 311.15039 144.85547 C 312.05172 145.0008 312.97665 145.52447 313.83398 145.8418 C 314.71265 146.1658 315.56896 146.26415 316.51562 146.18945 C 317.12896 146.14012 318.00606 146.1232 318.41406 145.64453 C 318.93273 145.03786 319.29692 143.89018 319.40625 143.10352 C 319.48892 142.51418 319.24739 141.94737 319.27539 141.35938 z M 320.16602 143.33789 C 319.81002 143.71655 319.74211 144.52021 319.52344 145.04688 C 319.26077 145.67755 318.83525 146.68104 318.30859 147.0957 C 317.70592 147.56904 316.91892 147.81092 316.15625 147.76562 C 314.87225 147.68828 313.56864 147.30826 312.2793 147.43359 C 312.43664 147.56826 312.71636 147.71603 312.92969 147.83203 C 313.74302 148.27203 314.6887 148.26024 315.58203 148.37891 C 316.20603 148.46291 316.85789 148.75059 317.47656 148.55859 C 317.97656 148.40259 318.57958 147.98408 318.90625 147.58008 C 319.24492 147.16142 319.53688 146.71977 319.79688 146.25977 C 320.04479 145.82219 320.23766 145.4143 320.33398 144.99805 C 320.23762 146.0158 319.94863 147.069 319.75195 147.96094 C 319.51862 149.01961 318.87569 150.17038 317.67969 150.23438 C 316.01436 150.32237 314.41003 149.72939 312.80469 149.38672 C 313.46069 149.52672 313.91075 150.1273 314.58008 150.2793 C 315.35341 150.4553 316.09537 150.67853 316.85938 150.89453 C 317.60604 151.10523 318.67772 151.32616 319.40039 150.91016 C 319.97239 150.58216 320.13188 149.85414 320.31055 149.27148 C 320.54677 148.50059 320.79227 147.82637 320.80859 147.04297 C 320.93796 147.7174 321.19885 148.37473 321.22656 149.09375 C 321.26122 150.00708 321.0105 150.59145 320.28516 151.16211 C 319.36516 151.88345 318.77625 152.18972 317.65625 151.90039 C 316.60959 151.63105 315.55467 151.49973 314.5 151.28906 C 313.90533 151.16903 313.35111 150.99024 312.78711 151.12891 C 312.60711 151.17291 312.42423 151.24781 312.24023 151.36914 C 312.6629 151.09047 314.36452 151.6965 314.86719 151.7832 C 315.81919 151.94587 316.77111 152.16222 317.64844 152.57422 C 318.49511 152.97155 319.07289 153.1208 319.99023 152.85547 C 321.06623 152.54213 321.38444 151.92516 321.64844 150.92383 C 321.99767 149.59805 321.39694 147.96928 320.80078 146.74805 C 320.79931 146.72061 320.79894 146.69377 320.79688 146.66602 C 320.71955 145.59402 320.50011 144.43914 320.27344 143.39648 C 320.30976 143.56412 320.33278 143.7361 320.34766 143.91211 C 320.30915 143.72777 320.25049 143.53741 320.16602 143.33789 z M 321.36719 146.75977 C 321.43786 147.43177 321.61548 147.84 321.77148 148.5 C 321.96215 149.30533 322.20086 150.10448 322.38086 150.89648 C 322.50346 151.43381 322.49089 151.5558 322.46289 152.0918 C 322.42556 152.81846 322.18125 153.53302 321.64258 154.04102 C 320.90258 154.73969 320.25012 154.58403 319.30078 154.33203 C 317.97412 153.98003 316.62209 153.66524 315.24609 153.50391 C 314.34609 153.39724 312.28583 153.25323 311.67383 154.22656 C 312.3205 154.22396 312.99616 154.15159 313.66016 154.18359 C 314.95083 154.24492 316.31159 154.63739 317.54492 155.02539 C 318.07959 155.19339 318.53025 155.49842 319.04492 155.70508 C 319.65025 155.94775 320.34162 156.08141 320.98828 156.21875 C 322.20828 156.47741 322.8441 156.11968 323.27344 154.90234 C 324.30277 151.99168 322.80719 149.22244 321.36719 146.75977 z M 311.14648 152.50781 C 311.08157 152.50756 311.01522 152.51091 310.94922 152.51758 C 310.48655 152.56558 310.01092 152.77188 309.65625 152.94922 C 309.25758 153.14922 308.85028 153.3425 308.46094 153.5625 C 308.17561 153.7225 307.70063 154.17385 307.41797 154.22852 C 308.19263 154.07918 308.87228 153.67204 309.62695 153.4707 C 310.31761 153.28537 311.16189 153.13495 311.69922 152.62695 C 311.52922 152.54295 311.34123 152.50856 311.14648 152.50781 z M 324.25195 152.96484 C 325.18262 155.49551 324.79388 159.02397 321.42188 158.5293 C 319.21922 158.20664 317.33366 156.57967 315.09766 156.26367 C 312.57232 155.905 309.94527 157.11961 307.97461 158.59961 C 308.43461 158.25427 309.27178 158.09363 309.81445 157.9043 C 310.51045 157.66163 311.21493 157.44144 311.93359 157.27344 C 312.77759 157.07744 314.29413 156.77338 315.07812 157.24805 C 314.13013 157.51872 313.09366 157.57633 312.23633 158.09766 C 311.27668 158.67982 310.29057 159.19028 309.28711 159.69922 C 310.06787 159.34339 310.95491 159.10619 311.76172 158.86328 C 313.01506 158.48728 315.24462 157.65177 316.50195 158.25977 C 318.15929 159.0611 318.7538 160.2618 320.8418 160.3125 C 322.7378 160.35917 324.6807 160.37853 325.2207 158.39453 C 325.6687 156.74653 324.99995 154.39551 324.25195 152.96484 z M 309.28711 159.69922 C 309.1079 159.78089 308.93115 159.86681 308.76562 159.96289 C 308.93994 159.87475 309.11387 159.78708 309.28711 159.69922 z M 326.53906 155.68555 C 327.03906 159.49888 324.38902 162.39171 320.31836 161.37305 C 318.70902 160.96905 318.13341 159.50649 316.44141 159.28516 C 314.48275 159.02916 312.44706 159.59688 310.53906 160.29688 C 309.72573 160.59554 308.93622 160.91761 308.18555 161.21094 C 310.52289 161.06294 312.42378 160.35919 314.81445 160.50586 C 318.23445 160.71786 319.90055 163.30034 323.56055 162.375 C 327.02055 161.50034 327.95372 158.81088 326.53906 155.68555 z M 328.39453 159.36719 C 328.04786 161.35786 328.07675 163.01452 325.96875 163.97852 C 322.23008 165.68785 319.95317 164.67628 316.70117 163.12695 C 313.7185 161.70561 309.69817 161.90267 307.04883 163.86133 C 309.30617 163.588 311.80275 162.64164 314.08008 163.32031 C 318.09208 164.51631 317.78111 168.123 322.81445 167.375 C 324.72111 167.091 327.05841 166.23784 328.06641 164.58984 C 329.09575 162.90318 328.12919 161.16986 328.39453 159.36719 z " />
    <path
       id="path168919"
       style="fill:#000000;fill-opacity:1;fill-rule:nonzero;stroke:none;stroke-width:1.33333"
       d="M 326.77539 124.73047 C 326.77539 124.73047 323.82383 127.72675 321.82812 130.50195 C 324.18375 127.73558 326.77539 124.73047 326.77539 124.73047 z M 321.82812 130.50195 C 319.95045 132.70703 318.20347 134.78211 318.1875 134.90039 C 318.1168 135.43505 318.10935 135.94047 318.08398 136.48047 C 318.06128 136.9778 317.70025 137.69048 317.79492 138.14648 C 317.85092 138.42381 318.17363 138.63192 318.26562 138.91992 C 318.32833 139.11992 318.25268 139.34635 318.33398 139.54102 C 318.41128 139.72635 318.61856 139.85606 318.72656 140.02539 C 318.86922 140.24806 318.89198 140.52987 318.94531 140.7832 C 318.99461 141.01254 319.04911 141.21719 319.03711 141.47852 C 319.02811 141.67319 318.85639 142.03584 318.90039 142.20117 C 318.99639 142.5545 319.45837 142.95348 319.5957 143.38281 C 319.78503 143.97348 319.67695 144.64667 319.70898 145.27734 C 320.29565 145.24664 320.167 146.13706 320.23633 146.51172 C 320.32703 147.00906 320.5219 147.51168 320.61523 148.04102 C 321.03923 147.96232 321.22442 148.82605 321.23242 149.13672 C 321.72309 148.95805 322.33149 150.39592 322.41016 150.78125 C 322.43816 150.91725 322.39554 151.21675 322.46094 151.33008 C 322.56228 151.50475 322.80856 151.52059 322.97656 151.66992 C 323.24056 151.90859 323.38996 152.25057 323.64062 152.50391 C 323.72035 152.58457 323.98857 152.89181 324.17773 153.06641 C 324.52459 153.7616 324.98359 154.46969 325.09961 154.64844 C 325.57561 155.38444 326.24297 156.00048 326.68164 156.75781 C 327.04697 157.38581 327.3879 158.06737 327.72656 158.7207 C 328.50656 160.23137 328.99219 161.93263 328.99219 163.64062 C 328.99219 169.69128 324.17244 172.79297 320.50977 172.79297 C 318.92044 172.79297 314.82715 172.47711 313.75781 171.17578 C 313.16048 170.44911 313.77775 169.0703 312.87109 168.6543 C 312.28175 168.3823 309.18245 170.09994 308.31445 170.33594 C 307.16779 170.6466 303.10711 171.99854 305.06445 173.67188 C 306.40845 174.81987 310.08557 176.03265 311.87891 175.69531 C 311.73624 175.72198 312.44661 173.55687 312.75195 173.29688 C 313.42395 172.72355 314.29372 172.52775 315.12305 173.06641 C 316.01372 173.64641 316.19125 174.93064 315.66992 175.80664 C 315.22859 176.55064 314.41361 177.00135 314.37891 177.91602 C 314.47757 177.48668 315.3497 177.05909 315.70703 176.87109 C 316.2777 176.57243 316.86113 176.28263 317.45312 176.0293 C 318.25979 175.68263 319.00331 175.371 319.83398 175.15234 C 321.41798 174.73634 323.09383 174.75155 324.67383 174.21289 C 326.2765 173.66622 327.72148 172.63656 328.52148 171.11523 C 328.97986 170.24377 329.57171 169.60581 329.99023 168.19141 C 330.02035 170.51104 329.49187 173.05341 327.47266 174.64844 C 327.47266 174.64844 332.67266 172.43861 331.97266 168.11328 C 331.6014 165.81997 331.06157 164.82898 330.50195 164.21289 C 330.50849 163.95003 330.51367 163.68081 330.51367 163.39258 C 330.51367 160.57391 329.5743 158.18417 328.1543 155.79883 C 327.45697 154.62817 326.32276 153.54947 325.35742 152.60547 C 325.2472 152.49748 324.92203 152.13442 324.5918 151.86328 C 324.08247 150.92471 323.59337 149.97846 322.84375 149.22266 C 322.33175 148.708 322.44337 148.29211 322.2207 147.68945 C 322.0687 147.28145 321.74036 146.98342 321.56836 146.60742 C 321.37103 146.17676 321.5673 145.63717 321.4043 145.20117 C 321.24164 144.76783 320.77675 144.50738 320.74609 143.99805 C 320.70739 143.33938 321.00419 143.08702 320.63086 142.42969 C 320.37086 141.97102 320.29878 141.76284 320.27344 141.21484 C 320.24544 140.59884 319.93014 140.10644 319.85547 139.53711 C 319.80617 139.16111 319.88742 138.66819 319.74609 138.26953 C 319.65809 138.02419 319.44964 137.81906 319.4043 137.53906 C 319.29897 136.89773 319.60459 136.37464 319.80859 135.80664 C 320.01659 135.22531 319.98278 134.58031 320.05078 133.95898 C 320.14815 133.08561 320.88151 131.8183 321.82812 130.50195 z M 295.86133 161.67188 C 295.86133 161.67188 286.61588 172.02236 297.17188 174.54102 C 297.17188 174.54102 294.38973 172.69781 294.03906 168.75781 C 293.8764 166.92847 295.356 163.53054 295.86133 161.67188 z " />
  </g>
</svg>
