<?xml version="1.0" encoding="UTF-8" standalone="no"?>
<!-- Created with Inkscape (http://www.inkscape.org/) -->

<svg
   version="1.1"
   id="svg24601"
   width="400"
   height="400"
   viewBox="0 0 400 400"
   sodipodi:docname="Nose9.svg"
   inkscape:version="1.4 (e7c3feb1, 2024-10-09)"
   xmlns:inkscape="http://www.inkscape.org/namespaces/inkscape"
   xmlns:sodipodi="http://sodipodi.sourceforge.net/DTD/sodipodi-0.dtd"
   xmlns="http://www.w3.org/2000/svg"
   xmlns:svg="http://www.w3.org/2000/svg">
  <defs
     id="defs24605" />
  <sodipodi:namedview
     id="namedview24603"
     pagecolor="#ffe0e0"
     bordercolor="#666666"
     borderopacity="1.0"
     inkscape:showpageshadow="2"
     inkscape:pageopacity="0.0"
     inkscape:pagecheckerboard="0"
     inkscape:deskcolor="#d1d1d1"
     showgrid="false"
     inkscape:zoom="25.82354"
     inkscape:cx="322.47709"
     inkscape:cy="164.32681"
     inkscape:window-width="1872"
     inkscape:window-height="1132"
     inkscape:window-x="2557"
     inkscape:window-y="111"
     inkscape:window-maximized="0"
     inkscape:current-layer="g24609">
    <inkscape:page
       x="0"
       y="0"
       id="page24607"
       width="400"
       height="400"
       margin="0"
       bleed="0" />
  </sodipodi:namedview>
  <g
     id="g24609"
     inkscape:groupmode="layer"
     inkscape:label="Page 1">
    <path
       style="fill:#ffffff;fill-opacity:0.3;stroke:none;stroke-width:1px;stroke-linecap:butt;stroke-linejoin:miter;stroke-opacity:1"
       d="m 324.63549,126.99611 c 0,0 -6.42619,4.56016 -7.79777,7.706 -0.92847,2.12953 -0.51443,12.41467 0.48354,19.40475 0.1088,0.76203 -3.25394,3.50695 -3.15683,5.23156 0.0436,0.77456 1.69321,1.60042 2.9449,1.64239 1.99782,0.067 5.23643,-0.23441 7.26227,1.88976 0.83927,0.87999 2.12422,2.80794 1.95716,4.47736 -0.20191,2.01764 -0.75542,3.60945 -0.75542,3.60945 l 2.16287,-4.19073 -2.2061,-5.72536 c 0,0 -5.02604,-2.8924 -5.55143,-4.56574 -1.11691,-3.55732 -1.05188,-7.1697 -1.82413,-11.08396 -0.69515,-3.52348 0.95348,-11.5199 0.95348,-11.5199 z"
       id="path1"
       sodipodi:nodetypes="csssssscccsscc" />
    <path
       d="m 308.27866,150.41267 c -0.72533,-2.904 -1.64133,-5.77733 -1.92267,-8.77066 -0.18,-1.91334 -0.68,-3.852 -1.064,-5.73467 -0.20933,-1.03067 -0.42133,-2.06133 -0.644,-3.08933 0,0 -2.48533,2.73466 -2.49466,2.74533 -0.664,0.732 0.34266,2.952 0.468,3.76933 0.432,2.81467 1.38666,5.52267 1.77066,8.34667 0.388,2.84533 0.32267,5.74133 -0.17333,8.568 -0.41867,2.388 -0.608,4.05733 -1.40267,6.22133 1.19867,-3.264 4.42934,-1.728 5.744,-6.27466 0.292,-1.01334 0.49734,-2.05467 0.30934,-3.092 -0.16267,-0.90267 -0.368,-1.79734 -0.59067,-2.68934"
       style="opacity:0.199997;fill:#000000;fill-opacity:1;fill-rule:nonzero;stroke:none;stroke-width:1.33333"
       id="path30971" />
    <path
       d="m 302.14399,172.80161 c 0.75867,-1.12934 3.14267,-2.43734 3.54,-2.58134 1.88934,-0.684 3.98934,-0.83466 5.98267,-0.692 1.696,0.12134 3.36667,0.468 5.01067,0.888 1.572,0.40267 3.07866,0.94134 4.728,0.74667 1.72533,-0.20533 3.244,-1.068 4.444,-2.304 0.0213,-0.0227 0.10933,1.108 0.104,1.284 -0.0253,0.83067 -0.14,1.65333 -0.364,2.45467 -0.51467,1.84533 -1.968,2.44533 -3.45867,3.44 -1.532,1.024 -3.524,2.12266 -4.616,3.652 -1.16133,1.62533 -2.55467,3.36666 -3.832,1.044 -0.82667,-1.504 -2.436,-2.568 -3.84667,-3.46534 -0.75866,-0.48133 -1.54,-0.948 -2.34266,-1.352 -0.39867,-0.20133 -1.70134,-0.45066 -1.87734,-0.79466 -1.11866,-0.16134 -2.6,-0.45334 -3.46533,-1.20934 -0.34533,-0.30133 -0.28667,-0.69333 -0.007,-1.11066"
       style="opacity:0.199997;fill:#000000;fill-opacity:1;fill-rule:nonzero;stroke:none;stroke-width:1.33333"
       id="path30987" />
    <path
       d="m 311.64999,176.21507 c 0,0 3.44,-2.164 3.68667,-3.93466 0.24533,-1.77067 -3.68667,-1.77067 -6.51333,-0.59067 -2.82534,1.18 -2.088,3.34533 0,3.148 2.08933,-0.196 4.916,-0.196 2.82666,1.37733"
       style="fill:#000000;fill-opacity:1;fill-rule:nonzero;stroke:none;stroke-width:1.33333"
       id="path30997" />
    <path
       d="m 318.47959,136.27214 c 2.40667,-4.48933 4.72667,-7.85333 8.29734,-11.54133 -1.484,1.448 -2.94267,2.924 -4.372,4.42666 -1.26534,1.33067 -3.03067,3.16934 -4.116,4.93867 -1.204,1.96133 -1.63334,4 -0.56,7.22 0,0 0.0827,-3.79333 0.75066,-5.044"
       style="fill:#000000;fill-opacity:1;fill-rule:nonzero;stroke:none;stroke-width:1.33333"
       id="path31001" />
    <path
       d="m 320.87026,158.95961 c -0.39559,-0.28375 -0.6898,-0.63653 -0.96933,-1.056 -0.12667,-0.204 -0.36267,-0.724 -0.32267,-0.968 0.20933,0.41333 0.50667,0.76933 0.88133,1.05333 1.084,0.824 2.492,0.936 3.656,1.59467 1.00134,0.56666 1.83734,1.51866 2.444,2.48133 1.248,1.97867 1.772,4.54533 1.02267,6.80133 -0.792,2.384 -3.06533,4.12134 -5.31733,5.02534 -2.19067,0.88 -4.72134,1.18133 -6.53734,2.80133 -0.476,0.424 -1.444,0.70533 -1.716,1.28933 1.00534,-2.152 2.16667,-2.31333 3.992,-3.50133 0.796,-0.51867 1.30267,-1.41333 2.132,-1.876 0.748,-0.41733 1.65067,-0.42533 2.46667,-0.68533 2.568,-0.82134 3.636,-4.11867 3.51733,-6.564 -0.0707,-1.47067 -0.67866,-2.77734 -1.68666,-3.82534 -0.57334,-0.596 -1.26534,-1.04533 -1.968,-1.47066 -0.53734,-0.324 -1.06134,-0.75334 -1.59467,-1.1"
       style="fill:#000000;fill-opacity:1;fill-rule:nonzero;stroke:none;stroke-width:1.33333"
       id="path31005"
       sodipodi:nodetypes="ccccsccccccsccscc" />
    <path
       d="m 304.52626,174.69761 c 0,0 -4.99333,-3.17067 -2.70533,-8.83067 0,0 -5.35067,7.844 2.70533,8.83067"
       style="fill:#000000;fill-opacity:1;fill-rule:nonzero;stroke:none;stroke-width:1.33333"
       id="path31009" />
    <path
       d="m 319.23546,174.60107 c 0,0 2.85067,0.0733 3.168,0.496 0.31733,0.424 1.32267,-0.21066 1.852,-1.004 0.528,-0.79333 0.68667,-2.69733 -0.212,-2.116 -0.9,0.58134 -4.808,2.624 -4.808,2.624"
       style="fill:#000000;fill-opacity:1;fill-rule:nonzero;stroke:none;stroke-width:1.33333"
       id="path31013" />
  </g>
  <g
     inkscape:groupmode="layer"
     id="layer7"
     inkscape:label="Bolian Seam"
     style="display:inline">
    <path
       style="color:#000000;fill:#000000;-inkscape-stroke:none"
       d="m 313.38812,133.92383 c 0.1067,2.80059 0.39928,6.10475 1.05901,10.92617 0.51803,3.78588 1.61681,7.51633 2.45734,9.84178 1.75063,4.8434 4.41191,5.76491 4.97262,7.67304 0.58162,1.97928 0.36555,3.52281 -0.0258,4.97042 -0.36301,1.04802 -0.85906,1.83171 -1.58826,2.76165 -0.7292,0.92994 -2.0242,2.08971 -1.93393,2.19218 0,0 1.32151,-0.80511 2.29812,-1.82801 0.97661,-1.0229 1.46301,-1.87262 1.99555,-2.91683 0.43437,-1.6067 0.68579,-3.25343 0.0336,-5.35715 -0.70053,-2.25964 -3.2916,-3.04571 -4.99801,-7.76679 -0.80627,-2.23067 -1.87686,-5.92376 -2.41178,-9.69141 -0.71343,-5.02497 -0.96072,-8.01375 -1.06745,-10.92419 C 314.00151,128.96089 314,125 314,125 c 0,0 -0.79889,4.01546 -0.61188,8.92383 z"
       id="path6062"
       sodipodi:nodetypes="ssssczczcsssscs" />
    <path
       style="color:#000000;fill:#000000;fill-opacity:0.2;-inkscape-stroke:none"
       d="m 312,125 c 0,0 -0.59691,3.85159 -0.31315,8.75531 0.13665,2.36147 0.34453,6.24289 0.89478,10.1631 0.57408,4.08996 1.72071,8.22214 2.62157,10.7145 1.75063,4.8434 4.18027,6.35261 4.86101,8.22129 0.80093,2.19858 0.53004,3.19386 0.13863,4.64147 -0.40717,0.99956 -0.96348,1.69787 -1.70347,2.771 -0.73999,1.07314 -1.63577,2.06293 -1.70896,2.00369 l 0.1939,0.1804 c 0,0 1.22691,-0.93926 2.10771,-1.86746 0.8808,-0.9282 1.38457,-1.63755 1.88381,-2.54565 0.4961,-1.58872 0.90508,-3.19861 0.3078,-5.19267 -0.67883,-2.26625 -3.18389,-3.59396 -4.89031,-8.31504 -0.86521,-2.39372 -2.003,-6.49448 -2.57696,-10.57614 -0.54898,-3.90394 -0.76409,-7.73559 -0.90032,-10.14911 C 312.64289,128.96533 313.1,125 313.1,125 Z"
       id="path6064"
       sodipodi:nodetypes="cssssczcczcsssscc" />
  </g>
</svg>
