<?xml version="1.0" encoding="UTF-8" standalone="no"?>
<!-- Created with Inkscape (http://www.inkscape.org/) -->

<svg
   version="1.1"
   id="svg24601"
   width="400"
   height="400"
   viewBox="0 0 400 400"
   sodipodi:docname="Nose7.svg"
   inkscape:version="1.4 (e7c3feb1, 2024-10-09)"
   xmlns:inkscape="http://www.inkscape.org/namespaces/inkscape"
   xmlns:sodipodi="http://sodipodi.sourceforge.net/DTD/sodipodi-0.dtd"
   xmlns="http://www.w3.org/2000/svg"
   xmlns:svg="http://www.w3.org/2000/svg">
  <defs
     id="defs24605" />
  <sodipodi:namedview
     id="namedview24603"
     pagecolor="#ffe0e0"
     bordercolor="#666666"
     borderopacity="1.0"
     inkscape:showpageshadow="2"
     inkscape:pageopacity="0.0"
     inkscape:pagecheckerboard="0"
     inkscape:deskcolor="#d1d1d1"
     showgrid="false"
     inkscape:zoom="25.795256"
     inkscape:cx="319.78748"
     inkscape:cy="157.41267"
     inkscape:window-width="2136"
     inkscape:window-height="1322"
     inkscape:window-x="2057"
     inkscape:window-y="27"
     inkscape:window-maximized="0"
     inkscape:current-layer="g24609">
    <inkscape:page
       x="0"
       y="0"
       id="page24607"
       width="400"
       height="400"
       margin="0"
       bleed="0" />
  </sodipodi:namedview>
  <g
     id="g24609"
     inkscape:groupmode="layer"
     inkscape:label="Nose">
    <path
       style="fill:#ffffff;fill-opacity:0.3;stroke:none;stroke-width:1px;stroke-linecap:butt;stroke-linejoin:miter;stroke-opacity:1"
       d="m 324.49709,127.28579 c 0,0 -7.21187,6.04991 -7.9695,8.23838 -0.25168,0.72699 0.79255,8.7288 2.99101,14.6346 0.26854,0.72139 -3.51247,0.98547 -3.72516,1.78069 -0.20045,0.74944 0.15665,1.85048 1.39619,2.02942 2.07535,0.2996 7.44555,3.25342 9.16207,7.19912 0.4851,1.11509 1.27207,4.32014 1.10501,5.98956 -0.20191,2.01764 -2.38308,5.39153 -2.38308,5.39153 l 3.12118,-3.04741 1.71461,-3.15758 -1.00433,-7.23726 c 0,0 -1.24799,-2.51409 -2.86315,-4.46999 -1.18293,-1.43248 -2.19415,-1.94707 -2.41627,-2.6545 -1.11692,-3.55732 -3.24743,-6.86717 -4.03388,-10.15185 -0.73164,-3.05572 -0.98546,-7.17958 -0.98546,-7.17958 l 2.92842,-3.78745 z"
       id="path1"
       sodipodi:nodetypes="cssssssccccsssccc" />
    <path
       d="m 307.98279,152.42081 c 1.23734,-0.70134 2.67334,-1.232 3.88934,-1.05467 -1.22534,-0.17867 -2.084,-0.53733 -3.10267,-1.16133 -1.89067,-1.15734 -2.22,-5.24134 -2.46667,-7.35334 -0.27066,-2.324 -0.54266,-4.64933 -1.01066,-6.944 -0.20934,-1.03066 -0.44934,-2.49466 -0.67067,-3.52266 l -2.468,3.17866 c 0.152,2.456 0.28267,4.91334 0.40133,7.36934 0.0907,1.90533 0.32,3.63466 0.468,5.39466 0.152,1.82934 0.29734,3.59734 0.36934,5.428 0.0387,0.96934 0.34533,1.89067 0.44533,2.812 -0.092,-0.86533 1.616,-2.308 2.24,-2.82933 0.50667,-0.42533 1.172,-0.90133 1.90533,-1.31733"
       style="opacity:0.199997;fill:#000000;fill-opacity:1;fill-rule:nonzero;stroke:none;stroke-width:1.33333"
       id="path30859" />
    <path
       d="m 300.80479,174.70441 c -1.05733,-0.33067 -2.30666,-0.776 -2.98933,-1.456 -0.47467,-0.47467 -1.736,-2.38534 -1.87733,-2.95467 -0.39734,-1.604 0.43733,-3.60533 0.96266,-5.13067 0.67867,-1.972 1.824,-3.836 3.336,-5.27733 -0.84133,1.04 -0.772,2.57333 -0.784,3.83333 -0.0147,1.47334 -0.22,3.048 0.45867,4.416 0.676,1.36267 2.004,1.96134 3.47467,1.69867 2.36666,-0.42133 1.97333,-3.26 2.39733,-5.02533 -0.0333,0.13733 0.45733,0.77066 0.54933,0.89333 1.232,1.63867 3.82534,2.428 5.716,2.94933 4.04667,1.11334 9.00134,1.944 13.12,0.81467 1.09734,-0.3 3.264,-1.89333 3.624,-2.71067 -0.59066,1.34 0.376,2.84667 0.512,4.18534 0.2,1.968 -1.736,4.34 -2.98,5.684 -2.472,2.668 -5.704,4.06666 -9.22933,4.72133 -1.40933,0.26133 -2.84533,0.90933 -4.25467,0.26933 -0.93733,-0.42666 -1.84533,-1.256 -2.61733,-1.98133 -2.372,-2.228 -5.532,-3.724 -8.62,-4.684 -0.24267,-0.0747 -0.51333,-0.156 -0.79867,-0.24533"
       style="opacity:0.199997;fill:#000000;fill-opacity:1;fill-rule:nonzero;stroke:none;stroke-width:1.33333"
       id="path30875" />
    <path
       id="path30885"
       style="fill:#000000;fill-opacity:1;fill-rule:nonzero;stroke:none;stroke-width:1.33333"
       d="M 326.77539 124.73047 C 326.77539 124.73047 323.81223 127.73639 321.81641 130.51562 C 324.17517 127.74547 326.77539 124.73047 326.77539 124.73047 z M 321.81641 130.51562 C 319.94311 132.71564 318.20225 134.78353 318.1875 134.90039 C 317.69942 138.80377 320.52769 148.27489 323.63672 152.35352 C 321.68722 151.37326 320.08203 151.08203 320.08203 151.08203 C 326.61137 153.9567 328.99219 159.26063 328.99219 163.64062 C 328.99219 169.69129 324.17244 172.79297 320.50977 172.79297 C 318.60577 172.79297 314.30481 171.49786 311.13281 171.00586 C 309.50348 170.75386 309.6055 170.95389 308.07617 171.47656 C 307.2215 171.76856 304.60336 171.93173 304.94336 173.28906 C 305.20336 174.32506 307.30152 174.61282 308.13086 174.57812 C 309.29752 174.52746 310.49361 174.01993 311.48828 173.55859 C 312.51494 173.08129 314.03239 172.35841 315.12305 173.06641 C 316.01372 173.64641 316.19125 174.93064 315.66992 175.80664 C 315.22859 176.55064 314.41361 177.00135 314.37891 177.91602 C 314.47757 177.48668 315.3497 177.05909 315.70703 176.87109 C 316.2777 176.57243 316.86113 176.28263 317.45312 176.0293 C 318.25979 175.68263 319.00331 175.371 319.83398 175.15234 C 321.41798 174.73634 323.09383 174.75155 324.67383 174.21289 C 326.2765 173.66622 327.72148 172.63656 328.52148 171.11523 C 329.31748 169.60189 330.51367 168.80591 330.51367 163.39258 C 330.51367 158.29454 328.02039 155.24318 325.47266 153.45117 C 324.92201 152.61319 319.00375 143.35933 320.05078 133.95898 C 320.1478 133.0888 320.87482 131.8268 321.81641 130.51562 z " />
    <path
       d="m 300.30986,174.19187 c 0,0 -2.78133,-1.84266 -3.132,-5.78266 -0.16267,-1.82934 1.31733,-5.228 1.82267,-7.08667 0,0 -9.24667,10.35067 1.30933,12.86933"
       style="fill:#000000;fill-opacity:1;fill-rule:nonzero;stroke:none;stroke-width:1.33333"
       id="path30889" />
    <path
       d="m 328.46546,167.15414 c 0,0 1.716,5.08933 -0.94667,7.27867 0,0 3.07734,-1.36134 2.66267,-4.024 -0.41467,-2.66267 -1.184,-2.48534 -1.716,-3.25467"
       style="fill:#000000;fill-opacity:1;fill-rule:nonzero;stroke:none;stroke-width:1.33333"
       id="path30893" />
  </g>
  <g
     inkscape:groupmode="layer"
     id="layer5"
     inkscape:label="Bolian Seam">
    <path
       style="color:#000000;fill:#000000;-inkscape-stroke:none"
       d="m 313.60742,133.92383 c 0.72732,4.82521 3.5111,14.7432 4.50799,16.76686 0.9969,2.02366 3.0394,3.37441 4.42961,5.38301 1.39021,2.0086 2.21991,4.84964 2.20901,6.745 -0.012,2.09252 -0.85322,4.26043 -1.64272,5.42536 -0.37867,0.55874 -1.02761,1.03005 -1.36606,1.34197 -0.45137,0.41599 -1.0033,0.7908 -1.4235,1.30501 -0.90525,1.10778 -1.69526,1.76076 -1.60499,1.86323 0,0 0.83415,-0.56593 1.96918,-1.49906 0.52801,-0.43408 0.85139,-0.56861 1.4744,-1.08834 0.50886,-0.42451 1.30168,-1.04612 1.72245,-1.71382 0.81936,-1.30021 1.75056,-3.73108 1.65053,-5.81209 -0.0959,-1.99571 -0.75288,-4.80147 -2.25446,-6.90018 -1.50158,-2.09871 -3.42425,-3.73909 -4.40955,-5.32158 -0.98529,-1.58248 -3.74363,-11.78975 -4.47087,-16.61451 C 313.67602,129.01177 314,125 314,125 c 0,0 -1.12468,4.06677 -0.39258,8.92383 z"
       id="path6062"
       sodipodi:nodetypes="szzsssscsssszzscs" />
    <path
       style="color:#000000;fill:#000000;fill-opacity:0.2;-inkscape-stroke:none"
       d="m 312,125 c 0,0 -1.04525,3.89825 -0.31315,8.75531 0.72731,4.82521 2.71976,12.4143 4.48408,17.29557 0.50691,1.40245 2.5933,3.40246 3.77977,4.78534 2.06626,2.40832 2.94976,4.77827 2.98237,6.65684 0.0342,1.97286 -0.62436,3.72029 -1.49093,4.90542 -0.31996,0.43758 -1.2754,1.4105 -1.65622,1.89191 -0.38083,0.48141 -0.85703,1.00096 -1.26654,1.52372 -0.8198,1.04651 -1.50066,1.90316 -1.57385,1.84392 l 0.1939,0.1804 c 0,0 0.86206,-0.62651 1.82857,-1.59334 0.48326,-0.48341 1.0969,-1.06513 1.56207,-1.53711 0.39292,-0.39867 1.37124,-1.11156 2.05333,-1.98879 0.68209,-0.87722 1.64914,-2.99641 1.56907,-5.23535 -0.0812,-2.27031 -1.1217,-4.623 -3.21636,-7.16619 -0.94171,-1.14336 -3.133,-3.14665 -3.57508,-4.36974 -1.69274,-4.68322 -3.71777,-12.31846 -4.44501,-17.14322 C 312.1936,129.01177 313.1,125 313.1,125 Z"
       id="path6064"
       sodipodi:nodetypes="csssssssccsszsssscc" />
  </g>
</svg>
