<?xml version="1.0" encoding="UTF-8" standalone="no"?>
<!-- Created with Inkscape (http://www.inkscape.org/) -->

<svg
   version="1.1"
   id="svg282014"
   width="400"
   height="400"
   viewBox="0 0 400 400"
   sodipodi:docname="averageFemaleDisco.svg"
   inkscape:version="1.4.3 (0d15f75, 2025-12-25)"
   xml:space="preserve"
   xmlns:inkscape="http://www.inkscape.org/namespaces/inkscape"
   xmlns:sodipodi="http://sodipodi.sourceforge.net/DTD/sodipodi-0.dtd"
   xmlns="http://www.w3.org/2000/svg"
   xmlns:svg="http://www.w3.org/2000/svg"><defs
     id="defs282018" /><sodipodi:namedview
     id="namedview282016"
     pagecolor="#ffffff"
     bordercolor="#666666"
     borderopacity="1.0"
     inkscape:showpageshadow="2"
     inkscape:pageopacity="0.0"
     inkscape:pagecheckerboard="0"
     inkscape:deskcolor="#d1d1d1"
     showgrid="false"
     inkscape:zoom="8"
     inkscape:cx="320"
     inkscape:cy="391.5"
     inkscape:window-width="1776"
     inkscape:window-height="1055"
     inkscape:window-x="2683"
     inkscape:window-y="219"
     inkscape:window-maximized="0"
     inkscape:current-layer="layer6"><inkscape:page
       x="0"
       y="0"
       id="page282020"
       width="400"
       height="400"
       margin="0"
       bleed="0" /></sodipodi:namedview><g
     inkscape:groupmode="layer"
     id="layer4"
     inkscape:label="Neck"
     sodipodi:insensitive="true"
     style="display:none"><path
       d="m 213.63253,151.29441 -5.49067,30.848 -9.21193,18.45217 c 0,0 13.57993,22.69982 22.61726,29.33716 9.03734,6.636 24.148,15.816 35.02134,17.228 l 3.67066,3.67066 2.82534,-2.824 5.224,-2.25866 1.832,-12.39334 13.08133,-27.18533 z"
       style="fill:#cd976d;fill-opacity:1;fill-rule:nonzero;stroke:none;stroke-width:1.33333"
       id="path283414"
       sodipodi:nodetypes="ccccccccccc" /><path
       d="m 199.16985,199.75598 c 0,0 11.14568,18.87824 18.74974,25.74882 16.89748,4.64849 35.91739,5.03279 53.5,5.14934 l 11.78267,-24.48534 -69.56933,-54.87466 -5.69867,31.472 z"
       style="opacity:0.199997;fill:#000000;fill-opacity:1;fill-rule:nonzero;stroke:none;stroke-width:1.33333"
       id="path283424"
       sodipodi:nodetypes="ccccccc" /><path
       d="m 211.64493,149.52841 c -1.01067,4.99733 -2.99139,25.24509 -4.128,30.15333 -1.11614,3.58085 -2.42213,8.10992 -4.32571,11.82632 -1.90358,3.7164 -2.7377,5.49633 -4.27987,8.42311 l 2.35504,3.10823 c 4.22257,-7.93797 7.1452,-15.38433 8.95587,-21.62566 1.29067,-4.45067 3.76533,-24.06133 5.256,-28.47867 l -3.83333,-3.40666"
       style="fill:#000000;fill-opacity:1;fill-rule:nonzero;stroke:none;stroke-width:1.33333"
       id="path283434"
       sodipodi:nodetypes="cczccccc" /><path
       d="m 285.86613,207.63814 c -2.232,2.508 -11.62934,23.48 -13.308,26.58266 -1.36534,2.52267 -2.372,12.41734 -5.128,12.788 -1.86267,0.25067 -2.084,-3.988 -1.828,-5.81866 0.124,-0.87467 14.504,-36.10934 14.504,-36.10934 0,0 5.76,2.55734 5.76,2.55734"
       style="fill:#000000;fill-opacity:1;fill-rule:nonzero;stroke:none;stroke-width:1.33333"
       id="path283438" /></g><g
     id="g282022"
     inkscape:groupmode="layer"
     inkscape:label="Discovery Uniform"><path
       id="path283350"
       style="fill:#1b3f7e;fill-opacity:1;fill-rule:nonzero;stroke:none;stroke-width:1.33333"
       d="m 192.6582,202.07227 c -0.27856,-0.007 -0.60577,0.12151 -1.13086,0.32421 l -4.32773,9.59758 c -2.85389,6.13107 -6.44344,9.47619 -8.51211,12.59383 -14.47154,9.1995 -23.33144,10.54295 -47.02344,24.12695 -16.34721,4.40719 -32.791847,9.0153 -50.478513,19.41797 -3.369333,1.98133 -12.234859,6.10027 -15.736328,8.22657 -10.506541,14.4677 -13.315376,32.55525 -18.671875,49.28906 -4.402769,16.19096 -7.371058,25.52682 -8.900391,40.02148 -1.319273,11.39152 -2.628074,22.8131 -2.537953,34.29691 h 346.37975 c -0.20025,-12.17983 -0.9014,-24.58833 -1.40039,-31.04688 -0.0238,-0.30798 -0.20618,-0.65435 -0.51953,-1.0293 0.90751,-9.75063 1.08513,-17.22273 -1.13672,-24.70117 -1.22133,-4.10533 -1.94086,-13.74684 -3.1582,-17.85351 -6.204,-24.60533 -8.49985,-38.30916 -26.38672,-48.76563 -12.8914,-3.90462 -37.47906,-12.14499 -50.00977,-15.20898 -7.65065,-5.41957 -15.10015,-10.32829 -22.94531,-16.25781 l -2.05338,-6.77241 -3.18881,-3.36431 -6.87656,6.18716 c -3.30721,2.4094 -6.35756,3.32885 -10.43601,2.9568 -10.91929,-0.99608 -24.04072,-6.26835 -33.07805,-12.90568 -9.03867,-6.63734 -26.72852,-28.30469 -26.72852,-28.30469 -0.50744,-0.58576 -0.78443,-0.81882 -1.14258,-0.82812 z"
       sodipodi:nodetypes="cccccccccccscccccccccsccsc" /><path
       style="baseline-shift:baseline;display:inline;overflow:visible;vector-effect:none;enable-background:accumulate;stop-color:#000000;stop-opacity:1;opacity:1;fill:#000000;fill-opacity:0.2"
       d="m 125.22461,384.58203 -0.48633,0.875 27.57617,15.37891 0.48828,-0.87305 z"
       id="path59" /><path
       id="path47"
       style="baseline-shift:baseline;display:inline;overflow:visible;opacity:1;vector-effect:none;fill:#122850;fill-opacity:1;enable-background:accumulate;stop-color:#000000;stop-opacity:1"
       d="m 62.798828,277.96094 -1.75,4.16015 c 1.364828,1.07399 2.743438,1.99793 4.16211,2.73633 3.336719,1.73674 7.028865,2.36532 10.736328,1.20508 2.514411,-0.7869 4.641203,-2.68543 6.640625,-4.99023 C 81.27216,280.02903 80.25,279.25 80.25,279.25 l -1.28125,-0.71094 c -1.723082,1.81162 -3.366924,3.10703 -4.310547,3.40235 -2.574133,0.80556 -4.828284,0.45019 -7.453125,-0.91602 -1.400205,-0.7288 -2.869751,-1.76939 -4.40625,-3.06445 z m 21.136719,4.1914 c -0.439539,0.57062 -0.887844,1.13408 -1.341797,1.67969 -2.536368,3.04849 -5.418796,5.4735 -6.955078,5.92383 -2.805431,0.82235 -5.303154,0.45084 -8.13086,-0.92774 -2.232447,-1.08836 -4.604453,-2.84995 -7.130859,-5.10742 l -1.767578,4.19922 c 2.311641,1.97724 4.610783,3.62335 7.005859,4.79102 3.521526,1.71683 7.355589,2.32815 11.240235,1.18945 3.443507,-1.0094 6.309483,-4.00245 9.058593,-7.30664 0.443298,-0.5328 0.879268,-1.07525 1.304688,-1.62305 -0.851569,-0.8076 -2.088126,-1.84808 -3.283203,-2.81836 z m 275.251953,0.39844 -2.04297,1.30078 c 0.76007,1.97882 1.59498,4.24981 2.31055,6.42383 0.48501,0.72868 0.99816,1.49418 1.52734,2.27539 2.80409,4.13959 5.86392,8.56845 8.00196,10.63672 0.68376,0.66146 1.40556,1.34081 2.11914,1.99609 L 369.75,301 l -2.62891,-6.62891 c -0.94588,-1.32151 -1.91976,-2.72152 -2.82812,-4.0625 -2.76685,-4.08462 -5.10547,-7.75781 -5.10547,-7.75781 z m -270.65625,3.69531 c -1.315755,1.79982 -2.834155,3.7276 -4.412109,5.48047 -2.738179,3.04171 -5.808653,5.4704 -7.597657,5.95508 -3.100803,0.84007 -5.906225,0.45281 -8.996093,-0.93945 -3.030924,-1.3657 -6.259685,-3.75725 -9.75,-6.8418 l -1.763672,4.19141 c 3.253308,2.79083 6.422761,5.0959 9.738281,6.58984 3.759028,1.69378 7.784627,2.28496 11.900391,1.16992 3.58268,-0.97063 6.714481,-3.94264 9.677734,-7.23437 1.521654,-1.69034 2.958728,-3.48876 4.232422,-5.19922 -0.983547,-1.08302 -1.992678,-2.14104 -3.029297,-3.17188 z m 4.0625,4.33008 c -1.734635,2.50524 -4.436291,6.04585 -7.330078,9.06836 -2.907578,3.03692 -6.140593,5.47199 -8.136719,5.98047 -3.345275,0.85216 -6.399909,0.45469 -9.708984,-0.94727 -3.309075,-1.40195 -6.808296,-3.86247 -10.597657,-7.02929 -0.454802,-0.38009 -1.01126,-0.93984 -1.625,-1.61524 l -1.822265,4.33203 c 0.227566,0.2116 0.452606,0.41115 0.675781,0.59766 3.941953,3.29435 7.726412,6.01487 11.683594,7.69141 3.957181,1.67653 8.149879,2.25442 12.460937,1.15625 3.702899,-0.94326 7.050117,-3.89671 10.191407,-7.17774 2.760529,-2.88332 5.260527,-6.08186 7.076172,-8.62304 -0.927383,-1.16603 -1.88379,-2.31233 -2.867188,-3.4336 z m 267.69727,2.44141 0.82031,3.24023 c 0.32552,1.40452 0.82273,4.14091 1.22656,6.88477 0.25801,0.36968 0.52138,0.74679 0.78906,1.12695 2.80339,3.98131 5.88902,8.26788 7.98243,10.29297 0.88936,0.86035 1.91621,1.90917 2.89257,2.90234 l -1.34961,-7.15625 c -1.65361,-1.98455 -4.12627,-5.32017 -6.2539,-8.34179 -2.76755,-3.93041 -6.10742,-8.94922 -6.10742,-8.94922 z m -263.896489,2.18359 c -0.724148,1.12612 -1.447532,2.18827 -2.158203,3.15235 -1.843275,2.50053 -4.729087,6.04966 -7.824219,9.08203 -3.095132,3.03236 -6.513793,5.47331 -8.734375,6.0039 -7.225141,1.72637 -13.732453,-1.66703 -21.798828,-7.99023 -0.829656,-0.65036 -1.963157,-1.81026 -3.173828,-3.17188 l -1.396484,4.86524 c 0.647554,0.64246 1.287342,1.22187 1.90625,1.70703 8.375245,6.56532 16.409772,10.9551 25.466797,8.79101 3.839268,-0.91734 7.417196,-3.85009 10.753906,-7.11914 3.33671,-3.26904 6.318464,-6.94811 8.277344,-9.60546 0.465867,-0.63199 0.932169,-1.29619 1.398437,-1.98438 -0.867849,-1.27072 -1.777974,-2.51261 -2.716797,-3.73047 z m 3.683589,5.1875 c -1.42206,2.29657 -2.877481,4.46832 -4.287104,6.29102 -1.900879,2.4579 -4.876208,5.77618 -8.078125,8.58593 -3.201918,2.80978 -6.709541,5.06322 -9.19336,5.62891 -7.776143,1.77101 -14.733188,-0.87231 -23.101562,-7.125 -1.181923,-0.88311 -2.93131,-2.6818 -4.675781,-4.65234 l -1.40625,4.90429 c 1.18885,1.25005 2.376531,2.37247 3.496093,3.20899 8.845852,6.60945 17.377303,9.98649 26.648438,7.875 3.860789,-0.87929 7.613353,-3.5516 11.080078,-6.59375 3.466725,-3.04215 6.568495,-6.50197 8.648437,-9.19141 1.109736,-1.43493 2.227296,-3.03278 3.324216,-4.71289 -0.21181,-0.41444 -0.43121,-0.82564 -0.6582,-1.23242 -0.56588,-1.01409 -1.16752,-2.00894 -1.79688,-2.98633 z m 262.58204,5.0918 c 0.34742,2.69677 0.61486,5.39712 0.84179,8.09375 2.59181,3.53706 5.45177,7.3216 7.7168,9.21094 1.25839,1.04965 3.12638,2.54343 4.39844,3.55468 L 375,322.75 l -0.45312,-2.4043 c -0.27383,-0.22418 -0.53233,-0.43625 -0.76563,-0.63086 -1.40079,-1.16843 -4.60811,-5.16389 -7.18164,-8.67968 -1.64346,-2.2452 -3.10053,-4.33633 -3.93945,-5.55469 z M 103.25,306.07617 c -2.28877,3.77326 -4.849134,7.38846 -7.220703,9.5918 -4.883121,4.53674 -11.886737,11.5598 -17.009766,12.72656 -7.860632,1.79025 -15.18603,-0.30547 -23.476562,-6.5 -1.705935,-1.27463 -4.356113,-3.90453 -6.646485,-6.3418 l -1.380859,4.81446 c 1.846969,1.90016 3.769924,3.73938 5.441406,4.98828 8.923694,6.66761 17.836792,9.34225 27.023438,7.25 7.566187,-1.7232 14.339023,-9.45216 18.990234,-13.77344 2.268037,-2.10715 4.414127,-4.91158 6.367187,-7.9043 -0.67061,-1.62945 -1.34184,-3.25946 -2.08789,-4.85156 z m 2.80078,6.57422 c -2.97805,4.05425 -6.759504,8.82162 -10.285155,12.1543 -4.731578,4.4726 -11.414234,10.50051 -16.746094,11.71484 -7.860632,1.79025 -15.18603,-0.30547 -23.476562,-6.5 -1.878258,-1.40339 -4.901058,-4.44887 -7.328125,-7.07226 -0.380241,-0.411 -0.746895,-0.81288 -1.095703,-1.19727 l -1.394532,4.86133 c 2.34181,2.50487 5.009562,5.20826 7.232422,6.86914 8.923694,6.66761 17.836792,9.34225 27.023438,7.25 7.357356,-1.67563 14.027912,-8.31784 18.753906,-12.78516 3.239165,-3.06187 6.523105,-7.02398 9.296875,-10.67383 -0.50466,-1.18286 -0.97944,-2.28742 -1.40625,-3.27148 -0.1944,-0.44821 -0.38544,-0.89845 -0.57422,-1.34961 z m 257.51367,1.67773 c 0.22037,2.70541 0.4029,5.40526 0.58594,8.0918 1.91095,2.732 4.00161,5.49556 5.94336,7.11524 2.18337,1.82122 5.89844,4.36328 5.89844,4.36328 l 0.73828,-1.07422 -0.64649,-3.75977 c -1.15411,-0.83141 -2.51742,-1.84029 -3.42773,-2.59961 -1.41595,-1.18108 -4.10894,-4.68592 -6.20703,-7.75195 -1.17267,-1.71368 -2.20354,-3.31011 -2.88477,-4.38477 z m -254.51757,5.33399 c -3.51815,4.00032 -8.78038,9.78686 -13.125005,13.74023 -4.695291,4.27246 -10.888713,8.833 -16.527344,10.11719 -8.003838,1.82287 -15.671121,0.61227 -23.851562,-5.5 -2.852816,-2.13156 -7.828194,-6.92065 -10.386719,-9.43164 L 44.25,331.75 l -0.316406,1.70312 c 2.675878,2.59398 6.358386,6.03608 9.023437,8.02735 9.033785,6.74987 18.354998,8.30963 27.398438,6.25 7.050585,-1.60577 13.542355,-6.64651 18.472656,-11.13281 4.024055,-3.66168 8.620775,-8.62082 12.085935,-12.51368 -0.62799,-1.49376 -1.25991,-2.98888 -1.86718,-4.42187 z m 255.18945,4.01172 c 0.0495,0.7209 0.0992,1.44159 0.15039,2.16015 0.0969,1.36028 0.13809,3.01157 0.13867,4.85157 1.63569,2.04781 3.47131,4.16319 5.19336,5.59961 1.28797,1.07433 3.04132,2.02604 4.55859,2.81054 1.51727,0.78451 2.77539,1.35157 2.77539,1.35157 l 0.71485,-1.58399 -0.4668,-2.72266 c -0.35643,-0.1746 -0.7611,-0.37718 -1.1875,-0.59765 -1.4152,-0.73174 -3.0999,-1.71743 -3.83203,-2.32813 -1.57382,-1.31276 -3.89844,-4.05857 -5.71289,-6.4082 -0.94302,-1.22117 -1.76232,-2.34033 -2.33203,-3.13281 z m -3.94531,0.95898 -0.1875,0.12891 c 0,0 0.0765,0.11199 0.21875,0.31445 -0.0103,-0.14747 -0.0211,-0.2959 -0.0312,-0.44336 z m -248.1504,2.37696 c -3.72217,3.81776 -11.42868,11.54892 -16.585932,15.53125 -4.95991,3.82993 -11.395134,7.39391 -17.222657,8.19336 -7.931643,1.08809 -15.343605,-0.0505 -23.023437,-4.36719 -2.018995,-1.13484 -5.251284,-3.72878 -7.839844,-5.98633 -1.83863,-1.60352 -3.385327,-3.04148 -4.126953,-3.74024 l -0.931641,5.01954 c 0.658402,0.59789 1.412502,1.2717 2.220703,1.97656 2.673896,2.33198 5.879366,4.98905 8.560547,6.49609 8.44983,4.74948 17.011264,6.07842 25.726563,4.88281 7.065869,-0.96931 13.936621,-4.93265 19.277343,-9.05664 5.024468,-3.87978 11.734288,-10.50574 15.759768,-14.60937 -0.56376,-1.35179 -1.17868,-2.82201 -1.81446,-4.33984 z"
       sodipodi:nodetypes="ccsscccssccsssccssscccccsscccsccsssccssscccssssccsssscccccssccsccssssccsssscccssssccsssscscccscccssccsssccssscccssssccssscscccscccssccssscccssscccscsscccsssccccccssssccsssscc" /><path
       id="path283456"
       style="opacity:0.199997;fill:#000000;fill-opacity:1;fill-rule:nonzero;stroke:none;stroke-width:1.33333"
       d="M 193.24023 202.46289 C 193.24023 202.46289 191.46959 205.98701 187.87109 212.46094 C 179.11711 228.51379 181.33291 226.66105 190.90625 240.16992 C 194.35825 243.64592 196.89752 245.33049 199.85352 247.78516 L 219.68164 261.67773 C 220.11051 261.9795 220.53397 262.26441 220.95312 262.5332 L 220.08789 245.27734 L 219.72461 237.03711 C 217.6576 235.29802 215.66208 233.38953 213.55273 231.31055 C 205.20873 223.08655 202.79396 219.63654 195.82617 207.25977 L 193.24023 202.46289 z M 275.24219 245.45508 L 268.70117 251.19922 L 265.69531 256.23828 L 265.16602 262.33594 C 265.16602 262.33594 268.27846 258.04072 270.20312 256.23828 C 271.82057 254.72354 275.5957 252.34961 275.5957 252.34961 L 275.24219 245.45508 z " /><path
       style="baseline-shift:baseline;display:inline;overflow:visible;opacity:1;vector-effect:none;fill:#d30000;fill-opacity:1;stroke-width:1.0025;enable-background:accumulate;stop-color:#000000;stop-opacity:1"
       d="m 99.687576,258.25969 -2.414063,4.40086 c 0,0 2.544353,1.38299 11.943367,8.90183 8.8849,7.10758 14.76212,18.31941 18.84375,29.06099 4.48757,11.80992 5.9833,21.69304 6.62695,35.88214 0.24583,5.41939 -2.00504,21.36992 -4.38281,35.4071 -0.42965,2.53641 -0.45358,2.42255 -0.87305,4.79345 0.59058,-4.28889 0.79099,-5.24003 1.49219,-11.21415 1.4921,-12.71256 2.87934,-26.67019 2.02343,-33.66992 -1.56828,-12.82571 -5.34436,-26.35269 -7.67773,-31.83853 -4.68813,-11.02191 -11.87496,-23.2324 -20.55664,-30.05619 -8.227848,-6.46706 -13.433597,-8.6015 -13.433597,-8.6015 l -1.861329,4.66389 c 0,0 4.355979,1.71781 12.214846,7.89485 7.40502,5.82034 14.56611,17.55763 19.03906,28.07365 1.89521,4.45568 5.81419,18.22279 7.3125,30.47625 0.43707,3.57442 -0.0643,11.34421 -0.80468,19.72144 0.12764,-6.82096 0.048,-13.84769 -0.98047,-18.93038 -2.5311,-12.50883 -6.18891,-25.95866 -8.53125,-31.46557 -4.69462,-11.03716 -11.74875,-22.55076 -20.181646,-29.32794 -8.247992,-6.62859 -15.023438,-7.87523 -15.023438,-7.87523 l -0.845703,4.95244 c 0,0 5.260938,0.83113 12.746094,6.84666 7.300253,5.86693 14.240573,16.87801 18.707033,27.37877 1.88624,4.43461 5.74935,18.24173 8.22852,30.49392 1.09242,5.39882 1.13278,15.08411 0.82031,23.2115 -0.31247,8.12739 -0.92188,14.7847 -0.92188,14.7847 l 3.74024,0.34743 c -0.95284,7.18545 -2.13086,16.02918 -2.13086,16.02918 l 4.33984,0.66152 C 126.66452,391.80005 125.12309,400 125.12309,400 h 4.90625 c 0,0 2.81435,-13.12946 5.20511,-27.24333 2.39077,-14.11387 4.76694,-29.43182 4.44727,-36.47886 -0.65519,-14.44334 -2.26041,-25.10194 -6.95117,-37.44658 -4.23316,-11.14038 -10.37016,-23.17677 -20.40039,-31.20057 -9.51613,-7.61254 -12.642584,-9.37097 -12.642584,-9.37097 z m -25.277344,10.19147 -0.648438,4.98188 c 0,0 5.769637,0.68059 13.939454,6.87414 8.021974,6.08146 14.186922,16.11203 18.677742,25.97333 2.11899,4.65304 4.63191,13.38048 6.52343,20.79318 1.89152,7.4127 3.21485,13.5775 3.21485,13.5775 l 5.0635,3.3816 c 0,0 -0.45609,-7.13836 -3.4346,-18.20752 -2.01544,-7.49006 -4.36071,-16.23198 -6.82226,-21.63723 -4.67026,-10.25535 -11.085556,-20.97313 -20.210944,-27.8911 -8.977545,-6.80589 -16.302734,-7.84578 -16.302734,-7.84578 z"
       id="path6"
       sodipodi:nodetypes="ccsssscssssccssscsssccssssccccccsssscccsssccsssc" /><path
       style="baseline-shift:baseline;display:inline;overflow:visible;opacity:1;vector-effect:none;fill-opacity:1;enable-background:accumulate;stop-color:#000000;stop-opacity:1;fill:#12284e"
       d="m 240.90625,278.97656 -2.8125,1.04688 c 0,0 15.96845,42.90364 23.49023,64.4707 5.22107,14.97026 9.82057,25.81119 14.33789,41.87891 C 276.87296,389.756 278.51563,400 278.51562,400 h 2.96875 c 0,0 -1.67854,-10.55685 -2.65625,-14.37305 -3.95585,-15.4407 -9.21949,-27.23243 -14.4121,-42.12109 -7.5491,-21.64536 -23.50977,-64.5293 -23.50977,-64.5293 z"
       id="path9"
       sodipodi:nodetypes="ccssccssc" /><path
       id="path29"
       style="baseline-shift:baseline;display:inline;overflow:visible;opacity:1;vector-effect:none;enable-background:accumulate;stop-color:#000000;stop-opacity:1;fill:#12284f;fill-opacity:1"
       d="M 178.56641 225.5293 L 176.04688 229.84961 C 176.04688 229.84961 178.49941 231.28114 181.36133 233.14453 C 182.98559 234.20208 184.75903 235.43377 186.22461 236.55078 L 178.79297 225.66211 C 178.64855 225.57678 178.56641 225.5293 178.56641 225.5293 z M 171.75977 227.65039 L 169.24023 231.9707 C 169.24023 231.9707 171.69472 233.40226 174.55664 235.26562 C 177.41856 237.12902 180.74247 239.53549 182.0293 240.89648 C 188.34587 247.57712 191.29252 252.24822 194.60547 258.86133 C 196.23022 262.10456 198.80864 268.4032 200.50195 272.64062 L 205.14844 270.76953 C 203.46314 266.53528 200.88615 260.23798 199.07422 256.62109 C 195.64433 249.77454 192.25785 244.43673 185.66406 237.46289 C 183.60945 235.28986 180.2612 233.01191 177.28516 231.07422 C 174.30911 229.13654 171.75977 227.65039 171.75977 227.65039 z M 165.04297 230.48047 L 162.52344 234.79883 C 162.52344 234.79883 164.97792 236.23036 167.83984 238.09375 C 170.70176 239.95713 174.02568 242.36557 175.3125 243.72656 C 181.62907 250.4072 184.57377 255.07633 187.88672 261.68945 C 189.49794 264.90568 192.04792 271.12549 193.74219 275.36133 L 198.39062 273.49023 C 196.70476 269.25749 194.15423 263.0359 192.35742 259.44922 C 188.92753 252.60268 185.5391 247.26486 178.94531 240.29102 C 176.8907 238.11799 173.54245 235.84199 170.56641 233.9043 C 167.59036 231.96661 165.04297 230.48047 165.04297 230.48047 z M 158.05859 233.39648 L 155.54102 237.71484 C 155.54102 237.71484 157.99355 239.14639 160.85547 241.00977 C 163.71739 242.87316 167.04326 245.28159 168.33008 246.64258 C 174.64665 253.32322 177.59135 257.99236 180.9043 264.60547 C 182.50405 267.79881 185.02902 273.95343 186.72266 278.1875 L 191.37109 276.31641 C 189.68511 272.08646 187.15902 265.92833 185.375 262.36719 C 181.94511 255.52065 178.55668 250.18087 171.96289 243.20703 C 169.90828 241.034 166.56003 238.758 163.58398 236.82031 C 160.60794 234.88262 158.05859 233.39648 158.05859 233.39648 z M 151.51953 236.40234 L 149 240.7207 C 149 240.7207 151.45449 242.15226 154.31641 244.01562 C 157.17833 245.87902 160.50224 248.28745 161.78906 249.64844 C 168.10563 256.32908 171.05033 260.99822 174.36328 267.61133 C 175.9232 270.72514 178.36339 276.65457 180.05469 280.87305 L 184.70312 279.00195 C 183.01932 274.78586 180.57351 268.84342 178.83398 265.37109 C 175.40409 258.52454 172.01568 253.18673 165.42188 246.21289 C 163.36728 244.03986 160.01901 241.76386 157.04297 239.82617 C 154.06693 237.88848 151.51953 236.40234 151.51953 236.40234 z M 144.44727 239.58398 L 141.92969 243.90234 C 141.92969 243.90234 144.38222 245.33389 147.24414 247.19727 C 150.10606 249.06066 153.43193 251.46909 154.71875 252.83008 C 161.03532 259.51072 163.98002 264.17986 167.29297 270.79297 C 168.81772 273.8366 171.18241 279.571 172.86719 283.76758 L 177.51758 281.89453 C 175.83897 277.70012 173.4638 271.94839 171.76367 268.55469 C 168.33378 261.70815 164.94535 256.36837 158.35156 249.39453 C 156.29695 247.2215 152.9487 244.9455 149.97266 243.00781 C 146.99661 241.07012 144.44727 239.58398 144.44727 239.58398 z M 137.11133 242.5 L 134.5918 246.82031 C 134.5918 246.82031 137.04628 248.25184 139.9082 250.11523 C 142.77012 251.97862 146.09599 254.3851 147.38281 255.74609 C 153.69938 262.42673 156.64408 267.09783 159.95703 273.71094 C 161.48553 276.76203 163.85936 282.51557 165.54492 286.71484 L 170.19336 284.84375 C 168.51402 280.6466 166.13227 274.87318 164.42773 271.4707 C 160.99784 264.62415 157.60942 259.28439 151.01562 252.31055 C 148.96103 250.13752 145.61276 247.86152 142.63672 245.92383 C 139.66068 243.98614 137.11133 242.5 137.11133 242.5 z M 129.6875 246.21289 L 127.16797 250.53125 C 127.16797 250.53125 129.62245 251.96278 132.48438 253.82617 C 135.34631 255.68955 138.67021 258.09799 139.95703 259.45898 C 146.2736 266.13962 149.2183 270.80876 152.53125 277.42188 C 153.98556 280.32488 156.20485 285.67645 157.86914 289.80664 L 162.51758 287.93359 C 160.85802 283.80342 158.62367 278.42077 157.00195 275.18359 C 153.57206 268.33704 150.18363 262.99728 143.58984 256.02344 C 141.53524 253.85041 138.18698 251.57441 135.21094 249.63672 C 132.2349 247.69904 129.6875 246.21289 129.6875 246.21289 z M 275.8457 248.0293 L 276.125 255.75 L 275.80859 257.36328 C 277.9631 261.9801 280.22757 266.89615 281.41211 269.66211 C 282.07573 271.21171 282.9204 273.38318 283.73438 275.54297 L 283.73438 275.54492 L 288.78906 277.66016 C 287.67275 274.61251 286.19068 270.66297 285.08789 268.08789 C 283.09534 263.43517 278.37306 253.3789 275.8457 248.0293 z M 279.75586 248.18164 L 278.06836 248.98438 C 278.06836 248.98438 286.23932 266.17101 288.91211 272.41211 C 289.6232 274.07254 290.54175 276.44672 291.4082 278.75586 L 291.4082 278.75781 L 296.45898 280.87109 C 295.32705 277.77083 293.74714 273.5448 292.58789 270.83789 C 290.58032 266.15011 285.80186 255.97606 283.28906 250.6582 L 283.28906 250.65625 L 279.75586 248.18164 z M 122.26172 249.57227 L 119.74414 253.89062 C 119.74414 253.89062 122.19667 255.32217 125.05859 257.18555 C 127.92051 259.04894 131.24638 261.45737 132.5332 262.81836 C 138.84977 269.49901 141.79447 274.16813 145.10742 280.78125 C 146.52479 283.6105 148.66829 288.76475 150.31641 292.84766 L 154.9668 290.97461 C 153.32172 286.88899 151.15855 281.69577 149.57812 278.54102 C 146.14823 271.69448 142.75981 266.35665 136.16602 259.38281 C 134.11141 257.20978 130.76315 254.93378 127.78711 252.99609 C 124.81107 251.0584 122.26172 249.57227 122.26172 249.57227 z M 198.00586 250.50195 C 199.19662 252.45997 200.28174 254.48776 201.41016 256.74023 C 202.96783 259.84959 205.40469 265.76706 207.0957 269.98438 L 211.74219 268.11328 C 210.29849 264.4988 208.29825 259.62381 206.66211 256.12109 L 206.66211 256.11914 L 206.66016 256.11914 L 198.00586 250.50195 z M 115.01367 252.48828 L 112.49609 256.80664 C 112.49609 256.80664 114.94863 258.23817 117.81055 260.10156 C 120.67247 261.96494 123.99833 264.37337 125.28516 265.73438 C 131.60173 272.41501 134.54641 277.08611 137.85938 283.69922 C 139.27678 286.52856 141.42023 291.68266 143.06836 295.76562 L 147.71875 293.89258 C 146.0736 289.80729 143.91067 284.61408 142.33008 281.45898 C 138.90019 274.61243 135.51176 269.27267 128.91797 262.29883 C 126.86336 260.1258 123.5151 257.8498 120.53906 255.91211 C 117.56302 253.97443 115.01367 252.48828 115.01367 252.48828 z M 287.96875 253.9375 L 286.81836 254.48438 C 286.81836 254.48438 294.98932 271.67101 297.66211 277.91211 C 298.14873 279.0484 298.7325 280.5192 299.33008 282.07422 L 304.41016 284.20117 C 303.40554 281.49371 302.24328 278.45202 301.33789 276.33789 C 299.44341 271.91417 295.08141 262.60516 292.48438 257.10156 L 292.48438 257.09961 L 287.96875 253.9375 z M 108.03125 255.31641 L 105.51367 259.63672 C 105.51367 259.63672 107.96622 261.06631 110.82812 262.92969 C 113.69004 264.79308 117.01591 267.2015 118.30273 268.5625 C 124.6193 275.24314 127.564 279.91423 130.87695 286.52734 C 132.2927 289.35338 134.43272 294.49939 136.08008 298.58008 L 140.73047 296.70703 C 139.08604 292.62393 136.9264 287.43852 135.34766 284.28711 C 131.91777 277.44057 128.52934 272.10079 121.93555 265.12695 C 119.88094 262.95392 116.53268 260.67792 113.55664 258.74023 C 110.5806 256.80254 108.03125 255.31641 108.03125 255.31641 z M 209.53516 257.98438 C 210.85142 260.98615 212.3231 264.58803 213.45898 267.42188 L 218.10742 265.55078 C 217.74551 264.64479 217.34913 263.65979 216.93164 262.63672 L 214.60742 261.27539 L 209.53516 257.98438 z M 275.18945 260.51953 L 274.875 262.125 L 272.71094 264.72852 C 273.33316 266.10552 273.87563 267.32629 274.28711 268.28711 C 274.75357 269.37632 275.3093 270.77242 275.88086 272.25586 L 280.96289 274.38281 C 279.97507 271.72485 278.84679 268.77685 277.96289 266.71289 C 277.28817 265.13737 276.29894 262.9418 275.18945 260.51953 z M 300.4082 260.5957 L 296.8418 262.4043 C 296.8418 262.4043 303.12541 274.82189 305.78711 281.03711 C 306.30801 282.25344 306.94068 283.85329 307.58203 285.5293 L 312.65625 287.65234 C 311.62486 284.8654 310.40499 281.66275 309.46289 279.46289 C 306.66613 272.93231 300.4082 260.5957 300.4082 260.5957 z M 307.2832 262.7207 L 303.7168 264.5293 C 303.7168 264.5293 310.00041 276.94689 312.66211 283.16211 C 313.27529 284.59392 314.0417 286.55506 314.79688 288.54883 L 319.85938 290.66797 C 318.76749 287.69756 317.38207 284.0261 316.33789 281.58789 C 313.54113 275.05731 307.2832 262.7207 307.2832 262.7207 z M 314.6582 264.8457 L 311.0918 266.6543 C 311.0918 266.6543 317.37541 279.07189 320.03711 285.28711 C 320.76747 286.99254 321.71665 289.45081 322.60352 291.81836 L 327.65039 293.93164 C 326.51442 290.81639 324.89535 286.47399 323.71289 283.71289 C 320.91613 277.18231 314.6582 264.8457 314.6582 264.8457 z M 321.0332 265.5957 L 317.4668 267.4043 C 317.4668 267.4043 323.75041 279.82189 326.41211 286.03711 C 327.38218 288.30227 328.73819 291.89432 329.82227 294.83984 L 334.84375 296.94336 C 333.82794 294.11479 331.60057 287.99509 330.08789 284.46289 C 327.29113 277.93231 321.0332 265.5957 321.0332 265.5957 z M 271.78711 265.84375 L 268.89844 269.32031 C 268.9265 269.39027 268.95408 269.46023 268.98242 269.53125 L 269 269.375 L 274.03125 271.48047 C 273.27023 269.47424 272.4877 267.48022 271.83789 265.96289 C 271.82091 265.92325 271.80448 265.88417 271.78711 265.84375 z " /><path
       id="path30"
       style="baseline-shift:baseline;display:inline;overflow:visible;opacity:1;vector-effect:none;fill:#d30000;fill-opacity:1;enable-background:accumulate;stop-color:#000000;stop-opacity:1"
       d="m 328.99805,268.32617 -3.56836,1.8086 c 0,0 7.54269,14.90996 9.6582,20.01367 3.55707,8.58149 7.38396,17.82607 11.63086,29.77929 3.56019,10.02045 15.41895,42.31641 15.41895,42.31641 l 0.49997,0.77336 0.33714,-0.32032 c 0.0238,-2.96801 2.09941,-27.21428 1.41191,-36.8632 -0.72703,-10.2036 -1.20732,-20.66003 -3.58203,-30.89257 -1.41645,-6.10346 -5.9375,-16.76172 -5.9375,-16.76172 l -3.68946,1.54687 c 0,0 4.51785,10.89396 5.73047,16.11914 2.26509,9.76018 2.75663,20.0049 3.48828,30.27344 0.2878,4.03914 0.43314,10.07378 0.50196,15.99024 -0.89549,-6.97166 -1.82,-14.75111 -2.16797,-19.63477 -0.7468,-10.48109 -3.39146,-20.57817 -5.70313,-30.53906 -1.41645,-6.10346 -5.9375,-16.75977 -5.9375,-16.75977 l -3.68945,1.54688 c 0,0 4.51784,10.892 5.73047,16.11718 2.02846,8.74057 4.23951,17.37916 5.24609,26.06641 -2.99163,-11.81223 -6.23484,-20.42705 -8.99023,-29.23633 -1.86833,-5.97322 -7.87891,-18.63867 -7.87891,-18.63867 l -3.61914,1.70313 c 0,0 6.0763,13.00466 7.67969,18.13085 2.3938,7.65323 5.0759,14.95846 7.63867,24.16211 -3.77669,-10.36554 -7.22457,-18.69189 -10.42383,-26.41015 -2.33765,-5.63963 -9.78515,-20.29102 -9.78515,-20.29102 z"
       sodipodi:nodetypes="ccsscccssccsscssccscsccscsc" /><path
       style="color:#000000;fill:#000000;-inkscape-stroke:none"
       d="m 355.50776,301.23235 c 2.68191,13.35551 4.06488,25.64683 5.25396,39.18367 0.57146,6.50567 0.5039,19.92187 0.5039,19.92187 l 2.4004,0.0137 c 0,0 0.0839,-13.34164 -0.51368,-20.14453 -1.19973,-13.65819 -3.43801,-27.21312 -6.13086,-40.62305 -0.89026,-4.43336 -5.57805,-15.94122 -5.57805,-15.94122 0,0 3.21975,13.3837 4.06433,17.58956 z"
       id="path2"
       sodipodi:nodetypes="ssccsscs" /><path
       id="path283442"
       style="fill:#000000;fill-opacity:1;fill-rule:nonzero;stroke:none;stroke-width:1.33333"
       d="m 192.67969,199.00195 c -0.26366,0.0623 -0.51022,0.19709 -0.71289,0.39844 -6.33261,10.58765 -9.19701,15.82754 -14.1836,22.83008 -1.29333,1.3167 -0.43724,2.07661 -1.5039,2.72461 -1.47333,0.896 -4.04427,2.22917 -8.73438,4.4082 -15.6167,7.25554 -30.80182,13.56656 -47.58594,20.17383 -11.78693,4.64007 -39.269549,15.33508 -51.14648,20.48633 -1.801456,1.21501 -3.931006,1.84123 -5.560547,3.04101 -15.771595,29.05003 -24.623222,71.03071 -28.144531,97.73828 -1.286847,11.80771 -1.337818,24.33328 -1.540979,29.19727 -0.03067,0.17466 4.224573,0 4.224573,0 0.343257,-8.5721 0.614443,-15.2397 1.501953,-22.54883 4.076703,-33.57389 11.107186,-69.82792 28.355469,-98.84961 2.249763,-0.30739 10.618695,-0.0626 14.988281,3.52149 3.130037,2.811 8.891036,8.71813 11.429687,11.38476 -3.599328,-6.2342 -6.747697,-10.29857 -11.697265,-14.91601 -5.483182,-3.3559 -7.511421,-4.20862 -11.900391,-3.90821 6.410482,-3.26283 36.25469,-15.16305 43.25781,-17.86718 25.82653,-9.97245 53.91331,-22.42517 58.69727,-25.04493 1.49828,-0.82048 4.75143,-2.55875 5.78906,-2.83593 2.14571,3.33196 6.31763,9.82689 9.37891,13.04297 4.68176,4.91849 9.78263,9.40534 15.02734,13.64062 5.48702,4.43095 17.48633,11.08203 17.48633,11.08203 0.53429,1.1942 0.72102,2.41114 0.8418,3.17774 0.43072,2.7011 0.88862,5.16198 1.3457,7.07031 0.22854,0.95416 0.45373,1.76823 0.69531,2.4375 0.24158,0.66927 0.31682,1.17224 1.06836,1.7793 0.93278,0.75345 2.02021,0.96758 3.26172,1.12109 1.24151,0.15351 2.65243,0.17387 4.14258,0.11914 2.98029,-0.10945 6.26418,-0.52617 8.77539,-0.92578 8.58955,-1.36686 17.37769,-3.69452 25.02344,-8.1875 5.53998,-3.25555 9.15001,-7.64364 11.48437,-13.59961 0.97742,-2.49384 0.9597,-5.72673 0.81641,-8.4668 -0.0524,-1.002 -0.13262,-1.93524 -0.21289,-2.71484 0.76059,0.41693 1.53504,0.83074 2.28906,1.18555 0.30905,0.19623 5.14048,3.38531 8.16016,5.55664 3.12133,2.24442 7.50313,7.10961 10.50781,8.13671 16.65057,3.90378 26.95728,7.00348 42.03515,11.86329 4.7694,1.61358 10.45975,3.70915 13.12305,5.21093 3.4767,2.34898 5.9856,5.94634 8.40039,9.32618 4.53973,6.70527 7.45091,14.6117 9.66016,22.57421 4.82327,17.38408 5.95903,35.73341 7.48437,53.95704 l 0.24414,3.55664 C 380.09376,380.79609 380.23434,400 380.23438,400 h 3 c 0,0 -0.16547,-21.31595 -1.09961,-32.27344 -1.59481,-18.7063 -2.63514,-37.8348 -7.72071,-56.16406 -2.25346,-8.12187 -5.2481,-16.33632 -10.0664,-23.45312 -2.94579,-3.43978 -5.42686,-7.29094 -8.83789,-10.28907 -15.43354,-6.77409 -38.76134,-14.09561 -56.10352,-18.07422 -7.13234,-5.81349 -14.90345,-9.96337 -18.94531,-12.5664 l -3.49219,-2.29102 c -0.66099,-0.4711 -0.71516,-0.6003 -0.74805,-0.8164 -0.19102,-1.25524 0.0655,-2.57294 -0.0276,-3.48611 -0.19806,-1.94232 -0.73195,-2.98893 -1.76137,-4.27955 -1.18335,-1.48362 -5.10359,-3.26364 -5.1036,-3.26364 -9.9e-4,0.0492 -0.1178,0.59956 -3.52929,3.93555 -1.99668,1.95248 -4.59056,4.0292 -5.90821,4.48828 -7.55653,2.6328 -15.84308,-0.74964 -23.98632,-3.95118 -3.04142,-1.19571 -6.3857,-3.30177 -9.04102,-5.09374 -1.32766,-0.896 -2.48444,-1.71025 -3.39062,-2.31055 -0.4531,-0.30015 -0.83763,-0.54469 -1.19727,-0.73828 -0.17982,-0.0968 -0.34973,-0.18298 -0.57031,-0.25977 -0.22059,-0.0768 -0.48252,-0.24535 -1.13477,-0.0508 -0.25656,0.0765 -0.46007,0.19279 -0.625,0.32422 -16.36672,-12.7073 -25.06836,-28.26758 -25.06836,-28.26758 l 0.80664,-1.83984 c -0.27333,-0.0907 -1.8506,-0.23361 -2.22656,-0.24805 z m 0.40273,5.98667 c 3.29328,4.84227 6.635,10.08601 10.07383,13.76919 5.78442,6.23239 9.61681,9.87078 15.51172,14.41407 -0.16705,1.66411 -0.22649,3.795 -0.22461,6.13867 0.004,4.79133 0.27733,10.43846 0.56055,14.29883 0.19152,2.6105 0.52154,5.8201 0.93164,9.10546 -3.623,-1.76919 -11.43829,-6.46172 -15.30469,-9.58398 -5.17413,-4.1783 -10.1713,-8.57789 -14.72266,-13.35938 -3.10502,-3.26202 -7.61889,-10.55808 -9.76758,-14.20507 l 0.38282,-1.18946 c 4.16944,-5.90005 9.37025,-14.47171 12.55898,-19.38833 z m 28.71055,27.60904 c 0.01,0.007 0.0134,0.007 0.0234,0.0137 0.84131,0.55732 2.01027,1.38114 3.36718,2.29687 2.71384,1.83147 6.17394,4.04242 9.62305,5.39844 8.0952,3.18264 17.14995,7.10212 26.07031,3.99414 2.46622,-0.85926 4.91668,-3.12142 7.01953,-5.17773 0.81624,-0.79817 1.559,-1.57081 2.16211,-2.2168 0.52205,0.16179 1.72404,0.31838 2.1954,0.91598 0.93443,1.18472 1.35435,2.10167 1.75585,3.74414 0.30041,1.2289 -1.0288,3.19657 -1.85945,4.6348 -0.792,1.37467 -4.74495,3.82561 -5.59375,5.63867 -1.00577,2.14834 -2.05595,4.70621 -2.25195,7.01954 -0.19333,2.27066 0.13581,3.42977 1.00781,5.64843 1.08334,-5.25687 1.85122,-7.43247 3.67383,-11.2832 0.42361,-0.89499 4.85034,-3.95918 5.36133,-4.55273 0.0808,0.76336 0.16384,1.7002 0.21679,2.71289 0.13448,2.57154 -0.005,5.66224 -0.61328,7.21484 -2.14146,5.46381 -5.17608,9.14871 -10.21094,12.10742 -7.16785,4.21216 -15.59757,6.47914 -23.97656,7.8125 -2.42666,0.38616 -5.63197,0.78657 -8.41211,0.88867 -1.39007,0.051 -2.67716,0.0246 -3.66601,-0.0977 -0.75929,-0.0939 -1.3347,-0.28715 -1.59571,-0.40039 -0.0539,-0.088 -0.18662,-0.28617 -0.27929,-0.54297 -0.17804,-0.49324 -0.38854,-1.22585 -0.60157,-2.11524 -0.42605,-1.77876 -0.87559,-4.19151 -1.29882,-6.8457 -0.84648,-5.30837 -1.59088,-11.61061 -1.91407,-16.01563 -0.27788,-3.78756 -0.54898,-9.40405 -0.55273,-14.08203 -0.002,-2.33898 0.0657,-4.45134 0.2207,-5.93359 0.0367,-0.3507 0.084,-0.50781 0.12891,-0.77734 z m -118.0332,77.33789 c 0,0 2.00497,4.49658 4.28906,10.875 3.00901,8.4028 5.59737,14.45695 7.2207,21.94336 2.08983,9.6378 3.01992,14.44575 3.91406,20.375 0.77479,5.13784 2.69705,25.13237 2.53125,36.87109 h 5.29297 c 0,0 0.0203,-14.36141 -0.43554,-21.66211 -0.43991,-7.04524 -2.2168,-21.06055 -2.2168,-21.06055 -1.34754,-7.88494 -3.82388,-17.99449 -10.32227,-30.50976 -1.62365,-3.12928 -3.32539,-6.20458 -5.05664,-9.06446 -1.73275,-2.86103 -3.48924,-5.50685 -5.21679,-7.76757 z"
       sodipodi:nodetypes="ccccsscccccscccccsscsscssssssssssccsccccsccscsscccccssscsssssssscccccccccscsscccccsssscsscsccscscsssscsssscsccssscccscccs" /><path
       id="path15"
       style="display:inline;fill:#000000;fill-opacity:0.2;stroke:none;stroke-width:1px;stroke-linecap:butt;stroke-linejoin:miter;stroke-opacity:1"
       d="m 364.20898,316.29297 c 0,0 -0.72611,15.99443 -1.9375,23.89258 -0.29449,1.92007 -0.39779,5.55828 -1.29101,5.68359 -0.66356,0.0931 -2.09091,-3.38508 -2.9707,-5.16602 -1.3846,-2.80278 -3.61719,-8.65429 -3.61719,-8.65429 l 2.45508,11.23633 4.00195,14.20703 6.58789,17.04883 0.61523,4.31444 2.17579,10.18556 0.18164,5.6621 V 400 h 5.11523 c 0,0 -0.25866,-7.75494 -0.73047,-11.32422 -0.41721,-3.1562 -1.57937,-8.07662 -2.19531,-11.60937 -0.76039,-4.3613 -1.68875,-7.79882 -2.78506,-11.74022 0,0 0.64214,-7.71008 1.2394,-10.15774 0.89273,-3.65854 1.83083,-7.09062 2.0664,-10.84912 0.2293,-3.65845 -0.25902,-10.46191 -0.25902,-10.46191 0,0 -0.78894,3.45331 -1.54883,5.03711 -0.63015,1.31339 -2.02252,4.69199 -2.32617,4.65039 -0.97262,-0.13322 -0.64076,-2.21571 -0.77344,-2.8418 -0.95761,-4.51891 -0.23329,-9.27082 -1.0332,-13.82031 -0.6349,-3.61099 -2.97071,-10.58984 -2.97071,-10.58984 z"
       sodipodi:nodetypes="cssscccccccccsscsscssssc" /><path
       id="path1"
       style="color:#000000;display:inline;fill:#000000;-inkscape-stroke:none"
       d="m 364.85547,325.46289 c 0,0 -0.51194,14.53864 -1.02735,21.63281 -0.20476,2.81845 -0.91809,7.43803 -1.38281,10.29883 -0.85612,-2.40593 -1.68043,-4.81181 -2.36133,-7.24023 -2.23763,-7.98055 -6.85351,-24.30469 -6.85351,-24.30469 0,0 1.9406,16.78278 4.25391,25.0332 2.10991,7.52499 5.30085,14.575 7.36328,21.83203 1.55841,5.48362 3.09887,10.94537 3.83398,16.46875 0.4375,3.28725 0.37695,10.81641 0.37695,10.81641 h 2.69922 c 0,0 0.10748,-7.37057 -0.39843,-11.17188 -1.19843,-7.91545 -3.33427,-15.60729 -5.94923,-23.16017 0.35883,-0.73745 2.12746,-4.40533 2.86914,-6.64844 0.86885,-2.62769 1.11038,-5.31988 1.8164,-7.77734 0.85876,-2.98907 2.37891,-9.24805 2.37891,-9.24805 0,0 -2.91971,5.69929 -3.82031,8.83398 -0.7588,2.64113 -1.00427,5.31175 -1.80078,7.72071 -0.46187,1.39684 -1.45463,3.59515 -2.16211,5.11523 -0.42045,-1.1669 -0.61041,-1.74351 -1.03321,-2.90234 0.29606,-1.08823 1.66553,-9.41724 1.96485,-13.53711 0.53275,-7.33303 -0.76758,-21.76172 -0.76758,-21.76172 z"
       sodipodi:nodetypes="cscscsssccscsscssccscc" /><path
       d="m 35.823,399.96667 h 22.166 c 0.341305,-10.0935 0.465384,-18.78679 1.82723,-28.13197 1.664043,-10.89316 1.578673,-18.23982 5.717099,-29.65937 4.194148,-11.57331 5.170872,-17.25741 11.227828,-26.00379 7.239844,-10.4545 10.181112,-11.91445 18.776729,-17.29664 9.830784,-5.05831 13.933984,-6.5584 25.208774,-11.2709 12.06134,-4.93733 26.01867,-8.93733 38.75867,-12.128 2.82667,-0.80533 5.532,-1.54666 8.11733,-2.22666 28.43467,-7.48134 48.85975,-10.78844 48.85975,-10.78844 0,0 -11.6028,-5.51607 -20.87346,-16.6534 -3.08933,-3.71334 -5.02725,-4.512 -7.25392,-8.99734 -2.228,-4.484 -3.54315,-5.33167 -8.02103,-10.32829 -6.75333,2.5483 -26.119,9.03784 -47.707,21.33251 -18.69995,5.86575 -35.845712,11.49837 -55.441672,20.31762 -6.939001,2.88838 -8.359196,4.7333 -11.263196,7.33997 -9.815593,11.6216 -13.675677,21.85662 -18.57202,40.35778 -3.949413,17.25627 -7.765364,34.88594 -9.352248,49.71932 z"
       style="opacity:0.199997;fill:#000000;fill-opacity:1;fill-rule:nonzero;stroke:none;stroke-width:1.33333"
       id="path283392"
       sodipodi:nodetypes="cccsscccccccccccccc" /><g
       id="g64"><path
         style="display:inline;fill:#000000;fill-opacity:1;stroke:#000000;stroke-width:0.955981;stroke-linecap:butt;stroke-linejoin:miter;stroke-dasharray:none;stroke-opacity:1"
         d="m 327.81058,397.41754 c 0,0 -1.24957,-15.9159 -1.0119,-24.49665 0.12446,-4.49341 1.19682,-9.69511 2.53062,-13.58469 1.43045,-4.17142 3.12428,-6.87584 3.12428,-6.87584 0,0 0.18542,-0.53733 0.60494,-0.14014 1.01993,0.96563 3.11661,3.7719 5.06837,6.51436 2.45352,3.44748 5.24304,8.67603 6.88778,12.30204 2.39541,5.28094 4.57759,14.50403 5.27822,17.61856 0.15162,0.674 0.29636,1.24943 0.29636,1.24943 0,0 -0.3265,-0.51855 -0.63767,-0.90413 -0.77378,-0.95883 -2.41896,-3.02778 -4.48449,-5.79894 -2.83612,-3.80499 -3.68764,-3.09457 -5.36355,-2.63652 -3.80843,1.04091 -11.57113,16.85789 -11.67086,16.84333 z"
         id="path64"
         sodipodi:nodetypes="csscsssscssscc" /><path
         style="display:inline;fill:#d30000;fill-opacity:1;stroke:#000000;stroke-width:0.955981;stroke-linecap:butt;stroke-linejoin:miter;stroke-dasharray:none;stroke-opacity:1"
         d="m 328.7979,396.44879 c 0,0 -1.43707,-14.94715 -1.1994,-23.5279 0.12446,-4.49341 1.19682,-9.69511 2.53062,-13.58469 1.43045,-4.17142 3.12428,-6.87584 3.12428,-6.87584 0,0 2.91874,2.50372 5.67331,6.37422 2.45351,3.44749 5.24304,8.67603 6.88778,12.30204 2.91379,6.42376 5.41833,18.55549 5.41833,18.55549 0,0 -2.06975,-2.50503 -4.96591,-6.39057 -2.83612,-3.80499 -3.68764,-3.09457 -5.36355,-2.63652 -4.35172,1.1894 -12.10546,15.78377 -12.10546,15.78377 z"
         id="path1-8"
         sodipodi:nodetypes="csscsscssc" /><path
         style="fill:none;stroke:#000000;stroke-width:0.382392px;stroke-linecap:butt;stroke-linejoin:miter;stroke-opacity:1"
         d="m 338.58438,358.11748 4.18069,22.11285"
         id="path2-1" /><path
         id="path3"
         style="baseline-shift:baseline;display:inline;overflow:visible;vector-effect:none;fill:#000000;fill-opacity:0.3;stroke-width:0.382392;enable-background:accumulate;stop-color:#000000"
         d="m 342.41537,378.41722 c 0,0 -0.68755,0.21186 -1.16795,0.36292 -0.48039,0.15104 -0.99523,0.31377 -1.34442,0.49431 -1.62592,0.84058 -2.68828,2.24977 -3.81615,3.38592 -1.97058,1.98506 -3.70686,4.57901 -5.12472,6.94633 -1.12196,1.8733 -2.5609,4.85987 -2.5609,4.85987 l 1.22927,0.71387 c 0,0 1.44449,-2.98645 2.51358,-4.77146 1.39583,-2.33056 3.10115,-4.86379 4.96221,-6.73851 1.1944,-1.20317 2.20421,-2.49299 3.54169,-3.18444 0.14718,-0.0761 0.6995,-0.27386 1.16171,-0.41919 0.46221,-0.14535 0.85661,-0.11393 0.85661,-0.11393 z m 0.16935,0.70398 0.12432,0.76074 c 0,0 0.19115,0.0211 0.42676,0.0657 0.23562,0.0446 0.52429,0.12832 0.61292,0.17564 0.658,0.35133 1.09759,0.87469 1.79295,1.62656 0.44843,0.4849 1.64494,2.03636 2.69236,3.42811 1.04743,1.39176 1.97122,2.64937 1.97122,2.64937 l 0.59793,-0.39436 c 0,0 -0.92572,-1.2612 -1.97714,-2.65825 -1.05141,-1.39705 -2.20268,-2.90563 -2.75342,-3.50114 -0.67809,-0.7332 -1.20056,-1.36902 -2.03827,-1.8163 -0.28298,-0.15109 -0.59094,-0.21219 -0.8594,-0.26302 -0.26847,-0.0508 -0.59021,-0.0731 -0.59022,-0.0731 z" /></g><path
       id="path63"
       style="fill:#d30000;fill-opacity:1;stroke:none;stroke-width:0.24205;stroke-linecap:butt;stroke-linejoin:miter;stroke-miterlimit:20;stroke-dasharray:none;stroke-opacity:1"
       d="M 133.05859 389.38086 C 132.22673 391.12716 131.68618 393.00622 131.29297 395.33398 C 132.08315 393.90788 133.12913 392.32436 133.92969 392.31836 C 134.4802 392.31442 135.30773 394.09226 135.8418 395.30469 C 135.60835 393.5244 135.26019 391.92256 134.73438 390.33594 L 133.05859 389.38086 z M 138.76172 392.82812 C 137.51194 394.94196 136.77779 397.13004 136.27734 400 L 136.35352 400 C 137.12882 398.62849 138.11474 397.18541 138.87891 397.17969 C 139.40477 397.17592 140.18263 398.79798 140.7168 400 L 140.76953 400 C 140.41698 397.40818 139.81296 395.18787 138.76172 392.82812 z M 142.05078 394.50977 C 141.99867 394.77874 141.94794 395.05248 141.90039 395.33398 C 142.0261 395.1071 142.15834 394.8763 142.29492 394.64844 L 142.05078 394.50977 z M 133.8125 395.92188 C 133.05202 397.20813 132.48169 398.52187 132.03906 400 L 135.23047 400 C 134.88325 398.62073 134.42417 397.2949 133.8125 395.92188 z M 144.41992 395.92188 C 143.65944 397.20812 143.08911 398.52187 142.64648 400 L 145.83789 400 C 145.49122 398.62073 145.03159 397.2949 144.41992 395.92188 z M 148.02734 397.91992 C 147.86364 398.57595 147.71828 399.26503 147.58984 400 L 147.66602 400 C 147.99633 399.41592 148.36484 398.81976 148.73828 398.32617 L 148.02734 397.91992 z " /></g><g
     inkscape:groupmode="layer"
     id="layer3"
     inkscape:label="Operations Insignia"
     style="display:none"
     sodipodi:insensitive="true"><path
       style="display:inline;fill:#000000;fill-opacity:1;stroke:none;stroke-width:0.658469px;stroke-linecap:butt;stroke-linejoin:miter;stroke-opacity:1"
       d="m 334.8163,367.05216 1.37333,1.80305 2.63945,-0.55735 -0.44762,-4.08414 -3.12715,-1.59721 -3.43701,2.40442 1.30877,4.94331 c 0,0 2.97059,1.02322 4.08857,1.23882 1.11798,0.21558 2.57483,0.2985 2.57483,0.2985 l -0.0234,-0.16625 c 0,0 -3.31701,-1.21226 -4.45338,-1.93973 -1.13638,-0.72749 -1.79941,-1.49083 -2.005,-2.50783 -0.20553,-1.01702 0.20283,-2.15119 0.85651,-2.64381 0.65367,-0.49262 1.42882,-0.52522 2.11774,-0.22321 0.68894,0.30201 1.20443,0.7747 1.41098,1.43114 0.20654,0.65643 0.29756,1.25672 -0.004,1.86048 -0.30201,0.60375 -0.99978,0.45146 -1.49212,0.17887 -0.49236,-0.27259 -1.09851,-0.97301 -1.09851,-0.97301 z"
       id="path18493"
       sodipodi:nodetypes="ccccccczcczzzzzzzcc" /></g><g
     inkscape:groupmode="layer"
     id="layer5"
     inkscape:label="Science Insignia"
     style="display:none"
     sodipodi:insensitive="true"><path
       id="path18248"
       style="color:#000000;display:inline;fill:#000000;stroke-width:0.550463;stroke-miterlimit:40;-inkscape-stroke:none"
       d="m 334.67912,361.76296 c -2.2233,0.0777 -3.77409,1.96472 -3.45977,4.2012 0.31431,2.23648 2.37764,3.99629 4.60094,3.91865 2.22329,-0.0777 3.77423,-1.96366 3.45991,-4.20013 -0.31431,-2.23648 -2.37779,-3.99736 -4.60108,-3.91972 z m 0.10326,0.73466 c 1.50137,-0.0524 2.90608,0.90977 3.49983,2.2801 -0.21488,-0.1994 -0.48274,-0.37096 -0.78199,-0.51048 -0.69331,-0.32326 -1.58438,-0.4965 -2.53426,-0.46333 -0.94988,0.0331 -1.78379,0.26664 -2.37991,0.63493 -0.2573,0.15896 -0.47455,0.34746 -0.63155,0.55985 0.20465,-1.39822 1.32649,-2.44864 2.82788,-2.50107 z m 0.25172,1.79107 c 0.87964,-0.0307 1.70059,0.13553 2.2966,0.41341 0.59601,0.27789 0.93785,0.64559 0.98963,1.01409 0.0518,0.3685 -0.184,0.75532 -0.69647,1.07191 -0.51244,0.31658 -1.27888,0.53826 -2.15852,0.56898 -0.87966,0.0307 -1.7006,-0.13553 -2.29662,-0.41341 -0.59599,-0.27789 -0.9377,-0.64452 -0.98949,-1.01302 -0.0518,-0.36851 0.18388,-0.75639 0.69633,-1.07298 0.51246,-0.31658 1.27888,-0.53826 2.15854,-0.56898 z m -2.81702,2.57828 c 0.21492,0.19943 0.4826,0.37191 0.78212,0.51156 0.69332,0.32326 1.58438,0.4965 2.53427,0.46333 0.94987,-0.0331 1.78378,-0.26664 2.3799,-0.63493 0.25754,-0.15911 0.47433,-0.34851 0.63142,-0.56093 -0.20392,1.39898 -1.32564,2.44969 -2.82773,2.50215 -1.5021,0.0524 -2.90679,-0.91005 -3.49998,-2.28118 z" /></g><g
     inkscape:groupmode="layer"
     id="layer6"
     inkscape:label="Medical Insignia"><path
       id="rect5"
       style="display:inline;fill:#000000;fill-opacity:1;fill-rule:evenodd;stroke:none;stroke-width:0.863513;stroke-linejoin:round;stroke-miterlimit:20;stroke-dasharray:none;stroke-opacity:0.3"
       d="m 333.70683,362.67478 0.29143,2.07359 -2.07359,0.0724 0.40066,2.85087 2.07359,-0.0724 0.29143,2.07359 2.85087,-0.0996 -0.29143,-2.07359 2.07359,-0.0724 -0.40066,-2.85087 -2.07359,0.0724 -0.29143,-2.07359 z" /></g><g
     inkscape:groupmode="layer"
     id="layer2"
     inkscape:label="Command Insignia"
     style="display:none"
     sodipodi:insensitive="true"><path
       d="m 334.28013,355.48762 3.39469,13.68032 2.40048,0.0398 -1.51282,1.7088 1.24277,3.12692 -2.63534,-2.18439 -1.76903,2.38851 0.15043,-3.2744 -2.35687,-1.6147 2.4746,-0.11797 z m 0,0 3.39469,13.68032 2.40048,0.0398 -1.51282,1.7088 1.24277,3.12692 -2.63534,-2.18439 -1.76903,2.38851 0.15043,-3.2744 -2.35687,-1.6147 2.4746,-0.11797 z"
       style="display:inline;fill:#000000;fill-opacity:1;fill-rule:nonzero;stroke:none;stroke-width:0.671477"
       id="path2508"
       sodipodi:nodetypes="ccccccccccc" /></g></svg>
