<?xml version="1.0" encoding="UTF-8" standalone="no"?>
<!-- Created with Inkscape (http://www.inkscape.org/) -->

<svg
   version="1.1"
   id="svg171226"
   width="400"
   height="400"
   viewBox="0 0 400 400"
   sodipodi:docname="stoAverageMaleEnlisted.svg"
   inkscape:version="1.4 (e7c3feb1, 2024-10-09)"
   xml:space="preserve"
   xmlns:inkscape="http://www.inkscape.org/namespaces/inkscape"
   xmlns:sodipodi="http://sodipodi.sourceforge.net/DTD/sodipodi-0.dtd"
   xmlns="http://www.w3.org/2000/svg"
   xmlns:svg="http://www.w3.org/2000/svg"><defs
     id="defs171230" /><sodipodi:namedview
     id="namedview171228"
     pagecolor="#ffffff"
     bordercolor="#666666"
     borderopacity="1.0"
     inkscape:showpageshadow="2"
     inkscape:pageopacity="0.0"
     inkscape:pagecheckerboard="0"
     inkscape:deskcolor="#d1d1d1"
     showgrid="false"
     inkscape:zoom="2.495"
     inkscape:cx="200.2004"
     inkscape:cy="200"
     inkscape:window-width="2432"
     inkscape:window-height="1217"
     inkscape:window-x="1920"
     inkscape:window-y="25"
     inkscape:window-maximized="0"
     inkscape:current-layer="g171234"><inkscape:page
       x="0"
       y="0"
       id="page171232"
       width="400"
       height="400"
       margin="0"
       bleed="0" /></sodipodi:namedview><g
     id="g171234"
     inkscape:groupmode="layer"
     inkscape:label="Uniform"
     style="display:inline"><path
       d="M 384.67959,369.10547 385.69026,399.9668 25.664768,400 35.482889,333.94153 c 0,0 13.301843,17.23559 15.841776,17.3496 3.543486,0.15905 35.879451,-14.97391 64.102465,-28.15851 0,0 81.61182,-9.82586 157.46382,-8.25653 75.85333,1.56933 96.76434,4.88962 96.76434,4.88962 l 11.82508,8.54139 z"
       style="fill:#423f3f;fill-opacity:1;fill-rule:nonzero;stroke:none;stroke-width:1.33333"
       id="path171962"
       sodipodi:nodetypes="ccccscsccc" /><path
       id="path171958"
       style="fill:#d30000;fill-opacity:1;fill-rule:nonzero;stroke:none;stroke-width:1.33333"
       d="m 191.48003,198.27899 c -4.82761,3.95585 -5.26984,8.6245 -10.27524,19.62585 l -45.73608,16.89865 -40.712247,17.38969 -11.252827,5.47747 -7.193089,5.32544 -9.458985,6.82422 c -11.834754,12.45087 -19.196031,25.30386 -24.970703,40.91211 l -7.311877,25.96137 17.669065,16.1917 c 0,0 37.46611,-17.65617 61.569973,-29.92078 l 2.57522,0.0358 c 53.72766,-5.36401 104.8349,-7.25304 160.40197,-8.7558 l 90.80653,4.94883 3.09318,1.36905 10.99048,6.91199 c -1.21253,-12.5683 -3.41046,-22.47421 -6.53868,-37.51363 -2.78933,-9.06531 -4.292,-11.15774 -12.44531,-16.03906 -8.15467,-4.88133 -35.88518,-14.40212 -46.30753,-18.88784 -9.84364,-4.23663 -27.72552,-8.63848 -37.9495,-12.98115 l -4.95391,-8.50601 c -2.22554,2.58105 -3.83219,5.65555 -5.71116,8.55599 -0.35171,0.54293 0.96977,4.88807 0.59313,5.41442 -2.95755,0.95691 -4.03376,1.52228 -9.46194,1.77459 -3.70283,0.17211 -6.04873,-0.24627 -9.9137,-1.06309 -0.28325,-0.0599 0.0972,-3.96709 -0.26708,-4.08633 -9.43088,-3.08702 -19.9979,-8.94273 -27.17089,-14.21082 -9.03865,-6.63732 -26.53516,-28.7168 -26.53516,-28.7168 -0.49631,-1.46118 -2.60388,-1.74064 -3.53364,-2.93585 z"
       sodipodi:nodetypes="ccccccccccccccccccsccscssscccc" /><path
       id="path16"
       style="fill:#2d2d2d;fill-opacity:1;stroke:none;stroke-width:1px;stroke-linecap:butt;stroke-linejoin:miter;stroke-opacity:1"
       d="m 268.95508,246.84961 -6.51758,2.26758 -6.94336,0.2832 -7.22656,-1.13281 1.13281,18.2793 2.125,1.41601 9.07031,1.27539 7.36719,-2.6914 1.98438,-2.125 z m -4.10848,67.734 -150.06509,8.36169 -63.625467,29.61662 -15.754003,-14.78187 -5.219891,25.5517 21.964335,16.8624 65.609996,-30.46757 148.6248,-8.01404 z m 0.2825,0.28341 1.39344,27.10482 102.06068,4.45982 c 0,0 15.86117,12.3641 15.86117,11.79728 0,-0.56682 -2.83368,-30.18249 -2.83368,-30.18249 l -12.1856,-8.07705 z"
       sodipodi:nodetypes="ccccccccccccccccccccccsccc" /><path
       style="opacity:0.2;fill:#000000;fill-opacity:1;stroke:none;stroke-width:0.911631px;stroke-linecap:butt;stroke-linejoin:miter;stroke-opacity:1"
       d="m 368.8468,341.20934 c 0,0 4.77388,36.55841 5.6867,45.51056 0.91282,8.95215 1.28756,13.2801 1.28756,13.2801 H 366.379 Z"
       id="path2"
       sodipodi:nodetypes="czccc" /><path
       id="path18"
       style="fill:#2d2d2d;fill-opacity:1;stroke:none;stroke-width:1px;stroke-linecap:butt;stroke-linejoin:miter;stroke-opacity:1"
       d="m 191.44336,197.96094 -2.125,1.27539 -1.55859,3.11719 10.91015,14.45507 11.19531,11.19532 19.83789,15.16211 14.16993,5.38476 1.27539,21.53906 2.41015,1.8418 8.92774,2.26758 0.81848,0.31418 7.61979,-0.17713 0.6301,-0.27963 3.54297,-2.4082 4.39257,-3.54297 -0.99218,-22.53125 2.69336,-3.82617 0.5664,-3.9668 -3.68554,-3.25977 -3.9668,7.08594 0.56641,11.47656 0.5664,11.9043 -2.6914,2.26758 -5.81055,1.55859 -7.65235,-0.2832 -3.82617,-1.98437 -1.41601,-22.67383 -2.125,-0.42383 -14.3125,-6.80274 -16.86328,-12.46875 c 0,0 -13.32098,-13.60398 -13.7461,-14.3125 -0.42511,-0.70853 -9.35156,-11.90429 -9.35156,-11.90429 z"
       sodipodi:nodetypes="ccccccccccccccccccccccccccccccscc" /><path
       d="m 166.13752,318.60573 c -16.61171,1.02229 -33.79394,2.24272 -50.32061,4.18441 0,0 4.8626,53.87369 6.74309,77.20986 h 26.61447 c 1.04,-22.69333 1.14319,-35.26003 3.72295,-45.71763 2.13712,-8.66324 9.49218,-33.53955 13.2401,-35.67664 z"
       style="display:inline;opacity:0.199997;fill:#000000;fill-opacity:1;fill-rule:nonzero;stroke:none;stroke-width:1.33333"
       id="path172192"
       sodipodi:nodetypes="ccccsc" /><path
       id="path2-4"
       style="color:#000000;display:inline;fill:#000000;-inkscape-stroke:none"
       d="m 191.1543,196.47852 c -0.93449,0 -2.01107,0.76116 -2.58789,1.64453 -1.35812,2.07992 -6.00273,16.56889 -8.12305,18.96484 -4.60037,1.52065 -20.06688,7.00074 -53.3457,20.85547 -17.9072,7.45517 -33.892806,13.55884 -37.718754,15.47266 -8.654979,4.32939 -14.804243,8.9594 -15.878906,10.55273 -1.077329,0.63733 -5.047707,1.38449 -8.318359,3.61914 -9.855832,5.31259 -21.475281,23.52657 -28.478516,46.72656 C 30.984404,333.25918 24.036081,390.94615 23.314453,400 l 4.236328,-0.21484 4.677735,-32.47657 19.15039,15.64258 64.832034,-31.36133 c 1.16372,14.33949 2.20025,29.2387 3.57617,48.41016 h 3.92383 c -0.67807,-9.45961 -2.45867,-31.35112 -4.07813,-49.16016 5.89395,-0.31284 99.02357,-7.20941 147.10157,-7.2832 33.03786,-0.0507 98.89317,3.68212 100.58984,3.75586 -1.0623,12.69651 -1.83645,20.0333 -4.26563,52.6875 h 4.67579 c 0.74524,-14.19037 0.73863,-29.85941 1.27539,-52.07617 l 13.22265,10.25195 c 0.43534,11.98629 0.72166,21.22052 0.83399,41.79102 h 4.08984 c -0.50644,-23.28742 -0.81785,-38.92338 -2.77344,-60.10352 -1.5253,-16.51985 -7.14127,-54.01361 -13.22656,-60.71094 -7.53596,-8.29863 -41.39566,-19.06155 -51.5625,-23.42382 -8.09012,-3.47122 -11.24442,-4.4984 -19.64258,-7.57032 -6.60023,-2.41426 -13.05942,-4.38815 -18.89453,-6.15625 -4.37005,-1.32418 -2.44605,-3.97676 -3.97266,-5.75195 -2.69048,-3.12859 -5.26923,-5.04658 -5.99023,-3.32422 -1.07594,2.72441 -1.43588,3.58205 -1.91211,4.58399 l -2.05859,4.41796 c 0.0792,1.72094 0.17133,2.94515 0.25195,4.66602 -1.59433,0.39328 -5.94477,1.42192 -8.28711,1.50977 -2.62263,0.0984 -7.56334,-0.53742 -9.63281,-0.82422 -0.0285,-1.50592 -0.0937,-3.74414 -0.0937,-3.74414 -0.0586,-0.74778 -0.14338,-1.24109 -1.06445,-1.39454 -10.55837,-2.67312 -18.19011,-8.15107 -26.07032,-14.45898 -17.21634,-13.78129 -28.78165,-29.4176 -28.9414,-29.72266 -0.34373,-0.77113 -1.19637,-1.48046 -2.13086,-1.48046 z m 65.51764,76.87694 c 0,0 -1.66946,-0.20271 -3.69141,-0.61133 -2.02195,-0.40862 -4.41383,-1.06265 -5.63086,-1.77734 -0.57571,-0.33809 -0.99496,-0.73713 -1.02344,-0.89063 -0.47933,-2.58375 -0.81677,-7.93246 -1.01562,-12.5625 -0.19885,-4.63003 -0.27149,-8.58203 -0.27149,-8.58203 -0.0557,-0.85386 -0.51702,-1.14762 -1.41992,-1.4082 -8.47782,-2.34289 -14.39895,-6.38945 -21.70508,-11.36328 -6.94327,-4.72681 -12.9999,-10.88055 -19.16992,-16.9668 -2.84032,-2.80176 -10.56782,-13.20092 -13.16211,-16.76563 -0.15938,-0.21899 -0.22956,-0.43917 -0.26758,-0.65039 0.14852,-0.22211 0.27688,-0.51203 0.43946,-0.6875 0.36847,-0.39767 0.83355,-0.52963 1.29297,-0.43359 l -6e-5,1e-5 c 0.45936,0.096 0.91242,0.41868 1.26171,0.93359 7.43797,10.96509 15.44291,19.01616 26.90821,28.33985 8.41366,6.84206 16.62985,12.33014 27.60742,15.18359 0.0582,4.25716 0.26151,15.57317 0.88086,21.45508 0.0843,0.80079 0.58371,1.34643 1.00195,1.67383 0.41825,0.3274 0.82966,0.51907 1.13086,0.66406 3.41649,1.6446 7.50998,1.69436 10.60938,1.63281 2.67063,-0.0531 6.41216,-1.29556 9.00781,-3.39648 0.52001,-0.42089 1.45769,-1.10998 1.38281,-2.48438 -0.45438,-8.34097 -1.06856,-21.83943 -1.08594,-22.2207 0.83725,-1.53732 1.80282,-3.36892 2.44336,-4.86133 0.1573,-0.36648 0.98913,0.59398 1.64453,1.62305 0.31631,1.34871 -0.15997,2.31624 -2.09765,4.71289 9.1e-4,0.0154 0.0115,0.0344 0.002,0.0469 -0.62751,0.8173 -0.60825,1.31816 -0.54687,2.10938 0,0 0.38092,4.47954 0.74023,9.41406 0.35931,4.93452 0.68863,10.42597 0.61133,12.06055 -0.005,0.0993 -0.29728,0.64922 -0.90039,1.18359 -0.60312,0.53437 -1.50902,1.21989 -2.18804,1.66932 -1.55282,1.02779 -2.86783,1.89536 -4.44478,2.53185 -1.39826,0.56436 -6.44388,0.7763 -8.34373,0.4277 z m 7.6951,1.44138 c 2.19947,-0.40779 4.49424,-1.91288 6.08224,-3.03119 0.72157,-0.50815 1.64579,-1.02974 2.39258,-1.6914 0.7221,-0.6398 1.39443,-1.34213 1.48437,-2.34961 l 0.15039,0.0957 c 0,0 3.09259,-4.79143 4.19727,-8.16211 0.87057,-2.65637 0.83984,-6.8789 0.83984,-6.8789 v -0.0469 l -0.70117,-8.13867 c 0.66528,0.20186 1.39327,0.41497 2.72266,0.81445 2.23318,0.67107 10.84368,3.3853 14.5332,4.80469 9.02221,3.47092 11.66636,4.3847 22.69726,9.00391 9.99075,4.18363 41.09785,13.80582 49.11329,21.5039 0.5048,5.21499 1.71127,23.39105 1.41992,37.79688 -39.37743,-3.23946 -85.40161,-5.80379 -104.47852,-5.33594 -22.11792,0.54243 -114.3145,5.58328 -149.26367,8.20703 -1.71387,-3.93876 -3.07555,-8.31182 -7.18164,-14.37695 2.74128,7.12543 3.7843,10.3916 5.01172,14.82031 -12.36293,6.15148 -38.752016,18.02951 -62.308595,29.1582 -5.013287,-4.64594 -8.858841,-8.1384 -14.177734,-13.48242 1.75796,-11.66184 7.472115,-33.71308 12.335937,-43.19922 4.886233,-9.52984 10.972276,-16.48063 17.289063,-23.02148 7.085305,-7.33662 23.557391,3.63854 27.609375,9.20117 0.306663,-1.03467 -0.15526,-2.13012 -0.669922,-3.07812 -2.467992,-4.544 -6.364402,-7.99576 -10.761719,-10.6211 -1.478663,-0.88133 -3.620254,-1.56847 -4.65625,-2.98047 -0.306667,-0.42 11.426613,-7.80136 12.474609,-8.19336 4.258651,-1.5973 19.288686,-7.26051 38.205076,-14.85351 22.14615,-8.88942 39.45502,-16.25208 43.80664,-17.71094 4.29381,-1.43948 6.11501,-2.63004 8.58008,-3.38086 4.14218,-2.39614 5.22118,-10.58925 7.04492,-15.5332 0.48167,0.69332 9.27154,13.32571 12.83008,16.83594 6.11946,6.03639 12.28434,12.36851 19.63086,17.32617 7.63398,5.15164 14.19185,8.90871 22.63867,11.27344 0.01,0.50479 0.068,3.69224 0.25391,8.01953 0.19992,4.65505 0.51414,9.95143 1.04492,12.8125 0.22573,1.21676 1.25483,1.74759 1.88086,2.11523 2.03875,1.12749 4.3396,1.60993 6.60156,2.07028 1.71296,0.22288 3.06775,0.44401 4.65874,0.52582 2.45941,0.12645 4.39203,0.10339 6.66918,-0.3188 z m 11.59976,-31.93746 c 0.19485,0.20445 0.50657,0.38735 0.73828,0.58007 l 0.80664,9.35547 c -0.001,0.052 -0.0922,4.26897 -0.73828,6.24024 -0.4951,1.51069 -1.59537,3.59899 -2.51758,5.22851 -0.10171,-2.53738 -0.28334,-5.61488 -0.52344,-8.91211 -0.32231,-4.42645 -0.59607,-7.63537 -0.66406,-8.4414 1.32067,-1.73877 2.19714,-3.0007 2.89844,-4.05078 z m -8.51172,5.86718 c 0.25297,5.35851 0.50042,10.71729 0.78515,16.07422 -0.0144,-0.26426 -0.0757,0.0418 -0.41992,0.32031 -1.95615,1.58332 -5.64768,2.78303 -7.42578,2.81836 -2.99903,0.0596 -6.75986,-0.0898 -9.42969,-1.375 -0.27376,-0.13178 -0.53158,-0.27308 -0.65429,-0.36914 -0.0307,-0.024 -0.0225,-0.0156 -0.0312,-0.0234 -0.47438,-4.61319 -0.6752,-11.60046 -0.78907,-16.76954 2.24998,0.31475 6.88346,0.89899 9.65821,0.79493 2.47882,-0.093 6.42373,-1.00354 8.30664,-1.47071 z m 102.76562,34.93946 c 3.46633,7.32579 7.69101,26.42255 10.05469,42.83203 l -10.3125,-7.80078 c 0.71017,-8.23175 1.42569,-21.62798 0.25781,-35.03125 z m -102.10937,32.14453 c 17.39239,0.10892 51.9305,1.95274 101.02148,5.17968 -0.003,2.59155 -0.10124,4.09465 -0.1582,5.96289 0.40423,-1.6936 0.52901,-3.71347 0.74805,-5.90234 l 10.83203,7.47266 c 0.47866,9.85948 1.58959,18.37606 1.91992,27.16601 L 368.9707,345.33984 c -0.076,-4.63012 0.055,-6.04429 -0.0234,-14.00586 -0.63014,6.44671 -0.82379,7.72962 -1.32422,13.79493 -1.2351,-0.0538 -67.76515,-4.37148 -101.0918,-4.32032 -48.29645,0.0742 -141.70435,6.89957 -147.4707,7.19532 -1.2428,-11.56809 -1.89941,-15.90234 -2.875,-24.09961 2.45818,-0.10321 115.68797,-7.48797 144.23633,-7.83399 z m -154.19141,8.91211 c 0.90971,12.63465 1.3103,16.85361 2.05078,23.83789 L 51.792969,379.01562 32.8125,363.26367 c 1.149717,-7.74773 1.905297,-13.42848 3.587891,-23.04883 0,0 9.986319,9.46688 14.800781,14.06446 9.477252,-5.004 38.302882,-17.43356 62.718748,-29.55664 z"
       sodipodi:nodetypes="sscssccsccccccccscccccccscssssccccscccscssssssccssscssccscsssssscsccccscsssssssccscccsssccscccccsscccccssccssccsssssscscscccccsssccsccccccccccccccscccccccccccccc" /><path
       id="path172060"
       style="opacity:0.199997;fill:#000000;fill-opacity:1;fill-rule:nonzero;stroke:none;stroke-width:1.33333"
       d="m 192.73003,234.86425 c -12.10594,-14.48609 -9.62465,-16.54618 -9.62465,-16.54618 l 7.72714,-20.48869 3.71829,2.29411 c 1.44407,13.03706 11.95042,21.57799 20.29442,29.80199 7.41067,7.304 15.80179,14.11347 24.76343,17.04586 4.20667,1.052 3.568,11.54666 3.352,13.924 -0.216,2.37733 -9.3,8.028 -23.44933,-1.928 -4.76,-3.34934 -14.58897,-9.51363 -26.7813,-24.10309 z m -12.91849,-16.89811 c -14.59807,5.14857 -31.24974,13.41454 -46.61806,18.65808 l -37.577328,15.04385 -12.279781,5.9023 -7.026076,5.42577 -9.458667,6.824 -8.589333,6.69866 -18.386504,37.68383 C 33.495726,340.01066 28.912069,364.86061 26.4841,391.98601 L 26.678065,400 H 62.401 c 10.895089,-62.95662 27.966123,-92.52242 34.705153,-98.36756 6.739027,-5.84515 15.611687,-9.92638 23.283687,-12.71571 67.72267,-24.62667 99.84217,-27.94269 99.84217,-27.94269 -23.41857,-16.92422 -29.44454,-24.11106 -40.42047,-43.0079 z"
       sodipodi:nodetypes="scccccssscccccccccccsccc" /><path
       id="path4-6"
       style="clip-rule:evenodd;fill:#ffffff;fill-opacity:0.1;fill-rule:evenodd;stroke:none;stroke-width:1px;stroke-linecap:butt;stroke-linejoin:miter;stroke-opacity:1"
       d="m 289.94115,315.573 0.0495,1.58781 c 0,0 22.38695,1.4207 29.26298,1.82642 6.26104,0.36942 15.00923,0.79206 16.48542,1.82672 2.37572,1.66516 2.6837,5.67122 3.83011,6.03675 5.23703,1.66979 17.08985,3.07074 18.77368,1.33471 1.52312,-1.57031 -0.53618,-7.83703 -0.53618,-7.83703 z m -1.47069,12.72954 0.0501,1.99845 c 0,0 25.50788,1.49777 32.38391,1.90349 6.26104,0.36942 15.00923,0.79205 16.48541,1.82671 2.37573,1.66516 2.68305,5.26058 3.82947,5.62611 5.23703,1.66981 17.08985,3.07076 18.77368,1.33473 1.5231,-1.57034 -0.53619,-7.83703 -0.53619,-7.83703 z"
       sodipodi:nodetypes="ccssssccccsssscc" /><path
       id="path4"
       style="fill:none;stroke:#000000;stroke-width:1.5;stroke-linecap:butt;stroke-linejoin:miter;stroke-dasharray:none;stroke-opacity:0.3"
       d="m 274.05702,266.74559 91.54128,50.38968 c 0,0 0.43931,-10.41029 0,-15.58753 -0.47405,-5.58657 -0.89495,-11.25124 -2.12558,-16.72116 -0.96234,-4.27746 -2.97579,-10.62786 -2.97579,-10.62786 M 80.771717,260.16995 c 0,0 9.340501,4.75693 13.178543,8.7857 5.205187,5.46384 9.17771,12.05959 12.75343,18.70503 3.48296,6.47305 6.00066,13.444 8.36058,20.40548 0.92704,2.73466 2.40898,9.63593 2.40898,9.63593 0,0 49.12926,-17.02004 73.12826,-26.73923 16.87024,-6.83217 53.68769,-21.50621 53.68769,-21.50621"
       sodipodi:nodetypes="ccssccssscsc" /><path
       id="rect10"
       style="clip-rule:evenodd;fill:#ffffff;fill-opacity:0.1;fill-rule:evenodd;stroke:none;stroke-width:3.56618;stroke-miterlimit:20;stroke-dasharray:none;stroke-opacity:0.3"
       d="m 264.52188,315.59962 c -0.0244,-0.44025 -0.34659,-0.78066 -0.73842,-0.79965 l 3.7e-4,1.5e-4 c -0.0261,-10e-4 -0.0534,4.1e-4 -0.0801,0.001 l -0.66169,0.039 c -0.42678,0.0267 -0.75022,0.42728 -0.72414,0.89688 l 1.52471,24.89326 c 0.0212,0.46988 0.38141,0.83223 0.80847,0.8109 l 0.66346,-0.0326 c 0.42707,-0.0214 0.75299,-0.4181 0.73174,-0.88798 z"
       sodipodi:nodetypes="ccccccccccc" /><path
       d="M 261.76953,269.37695 260.27539,269.5 c 0,0 2.55252,31.25566 3.9082,46.79687 1.30118,14.91642 2.02292,29.89117 2.80274,44.86524 0.6668,12.80385 1.60351,38.83789 1.60351,38.83789 h 1.49805 c 0,0 -0.93509,-26.08106 -1.60352,-38.91604 -0.77962,-14.97026 -1.50209,-29.96095 -2.80664,-44.91601 -1.35471,-15.53014 -3.9082,-46.79102 -3.9082,-46.79102 z"
       id="path8"
       sodipodi:nodetypes="ccssccsscc"
       style="fill:#000000;fill-opacity:1" /><path
       d="m 118.85938,352.08594 -0.84375,1.24023 c 0,0 2.73868,1.86252 5.8457,4.43164 3.10702,2.56913 6.57013,5.88702 7.9375,8.51953 3.60884,6.9479 5.90791,13.91875 7.3457,21.24219 0.74882,3.81411 1.18945,12.48047 1.18945,12.48047 h 1.49805 c 0,0 -0.41362,-8.67851 -1.2168,-12.7695 -1.46137,-7.44356 -3.80631,-14.56339 -7.48437,-21.64453 -1.59516,-3.07106 -5.14613,-6.36618 -8.3125,-8.98438 -3.16638,-2.6182 -5.95899,-4.51562 -5.95898,-4.51562 z"
       id="path9"
       sodipodi:nodetypes="ccsssccssssc" /><g
       inkscape:groupmode="layer"
       id="layer2"
       inkscape:label="Base Insignia"
       transform="matrix(0.34514113,0,0,0.34514113,220.97863,258.05129)"><path
         style="color:#000000;fill:#d7d7d7;stroke:#000000;stroke-width:2;stroke-dasharray:none;stroke-opacity:1"
         d="m 290.91837,389.42235 c -3.22268,0.54853 2.4601,-28.00259 13.54601,-63.45034 6.30303,-20.15426 19.90035,-53.08761 25.47659,-53.13512 6.88568,-0.0587 23.16948,29.87298 31.60379,54.29761 9.47596,27.44109 19.05887,57.84849 16.81926,58.68593 -3.97026,1.48459 -19.12683,-29.37752 -34.16256,-29.345 -14.3644,0.0311 -48.84341,32.19125 -53.28309,32.94692 z"
         id="path2-8"
         sodipodi:nodetypes="sssssss" /><path
         id="path1"
         style="fill:#ffffff"
         d="m 331.03906,280.6748 c 0,0 0.76264,12.98042 1.08594,20.73145 0.36767,8.81436 1.91458,24.82146 2.06252,26.33607 -2.81596,0.37442 -5.50279,1.9264 -7.90041,3.19323 -7.87389,4.16035 -13.4673,11.59722 -18.44531,18.55468 -6.40845,8.9567 -13.15821,29.24609 -13.15821,29.24609 0,0 9.24575,-19.48112 15.19141,-27.79101 4.94895,-6.91685 10.36818,-13.99124 17.57812,-17.80078 3.61895,-1.91214 7.94527,-3.91242 11.69263,-3.04617 4.11787,0.95188 8.59781,4.2327 11.95195,7.6865 6.97896,7.18634 17.79878,26.10869 17.79878,26.10869 0,0 -9.4012,-18.78342 -16.94726,-26.55371 -3.29185,-3.38966 -7.00702,-8.19974 -12.18358,-9.39635 -1.01626,-0.23492 -1.625,-0.46617 -2.6583,-0.48044 -0.12583,-1.29137 -1.55154,-17.50144 -2.48429,-26.16032 -0.84986,-7.88937 -3.58399,-20.62793 -3.58399,-20.62793 z"
         sodipodi:nodetypes="cscsscsssscsscsc" /><path
         id="path5"
         style="fill:#000000;fill-opacity:0.2;stroke:none;stroke-width:1px;stroke-linecap:butt;stroke-linejoin:miter;stroke-opacity:1"
         d="m 330.14258,272.83203 -4.60742,3.50586 -14.00782,29.18555 c 0,0 -8.51793,24.72413 -11.83984,37.35742 -3.91491,14.88845 -9.50781,45.19336 -9.50781,45.19336 0,0 2.50965,-5.57863 5.45117,-12.05664 0.003,-0.009 0.0105,-0.0262 0.0137,-0.0352 0.4557,-1.28855 0.95569,-2.66213 1.71875,-4.66992 1.45292,-3.84595 3.37376,-8.59085 5.55664,-13.12109 0.19257,-0.40053 0.38476,-0.79225 0.58008,-1.18555 0.2456,-0.49326 0.48666,-0.98771 0.73633,-1.4668 0.004,-0.008 0.008,-0.0158 0.0117,-0.0234 0.4805,-0.92435 0.9662,-1.80131 1.45507,-2.64843 0.26313,-0.45435 0.5262,-0.90104 0.79102,-1.32813 0.0708,-0.11458 0.14009,-0.23338 0.21094,-0.3457 0.37811,-0.59768 0.75794,-1.17373 1.13672,-1.70313 3.11125,-4.34841 6.46238,-8.88347 10.46093,-12.68945 0.79971,-0.76119 1.62576,-1.49397 2.48047,-2.18945 1.70943,-1.39097 3.53544,-2.6357 5.50391,-3.67578 2.39762,-1.26683 5.08443,-2.81894 7.90039,-3.19336 -0.14794,-1.51461 -1.69483,-17.52158 -2.0625,-26.33594 -0.16169,-3.87653 -0.43295,-9.05886 -0.66406,-13.27344 -0.23107,-4.21422 -0.42188,-7.45898 -0.42188,-7.45898 0,0 0.36284,1.48928 0.81641,3.45703 -0.41528,-2.64566 -0.87815,-5.24419 -1.30859,-7.25781 -0.36084,-1.68793 8.29431,3.50745 6.61328,1.95312 -2.14225,-1.98079 -7.01758,-5.99414 -7.01758,-5.99414 z m 7.71289,57.08399 -0.56445,0.0547 c 2.49799,7.56322 4.65355,16.15372 4.92578,25.77149 5.51995,0.73524 9.69782,0.98699 13.35156,5.11914 3.863,4.36878 20.65345,22.92905 21.31055,23.78515 -3.38585,-11.25115 -7.38137,-23.34127 -25.78125,-46.86132 -0.83888,-0.8638 -1.74864,-1.71696 -2.70508,-2.52539 -0.4778,-0.40406 -0.96623,-0.79616 -1.46485,-1.17383 -0.49865,-0.37761 -1.00603,-0.73931 -1.51953,-1.08203 -1.02681,-0.68535 -2.07761,-1.29366 -3.1289,-1.78907 -1.05148,-0.4954 -2.10335,-0.87921 -3.13282,-1.11718 -0.21416,-0.0495 -0.43072,-0.0859 -0.64843,-0.11719 -0.21279,-0.029 -0.42705,-0.0502 -0.64258,-0.0645 z"
         sodipodi:nodetypes="cccscccccccccccsssscssccssccccscccsssscc" /></g><path
       style="fill:#000000;fill-opacity:0.3;stroke:none;stroke-width:1px;stroke-linecap:butt;stroke-linejoin:miter;stroke-opacity:1"
       d="m 117.99857,352.13487 c 0.99193,0.70853 5.28458,3.71011 5.8514,4.13523 0.56681,0.42511 7.51035,7.76944 7.51035,7.76944 l 5.38478,10.91127 2.83409,10.48615 1.41705,14.02878 H 121.01587 L 119.032,365.31489 Z"
       id="path20"
       sodipodi:nodetypes="csccccccc" /><path
       id="path8-7"
       style="clip-rule:evenodd;fill:#ffffff;fill-opacity:0.1;fill-rule:evenodd;stroke:none;stroke-width:1px;stroke-linecap:butt;stroke-linejoin:miter;stroke-opacity:1"
       d="m 291.07522,316.21858 0.69849,0.75277 29.79362,1.57852 20.67516,1.9996 5.90208,1.03728 c 0.41396,1.93161 1.16267,3.4952 2.63269,4.78718 1.86865,1.64232 6.02446,1.89218 7.23573,0.82612 2.04603,-1.80076 -0.20636,-6.85167 -0.20636,-6.85167 l -7.88706,-0.80456 -32.01589,-3.13643 z m 0.45055,13.17748 0.69849,0.75472 29.79362,1.57656 20.67711,1.9996 7.08993,1.24824 c 0.44974,1.88981 0.92711,2.54708 2.25371,3.71299 1.86865,1.64234 6.02446,1.89219 7.23571,0.82613 2.04605,-1.80077 0.0409,-6.35931 0.0409,-6.35931 l -9.04796,-0.66106 -31.91103,-2.90907 z"
       sodipodi:nodetypes="cccccsscccccccccsscccc" /><path
       style="fill:none;stroke:#000000;stroke-width:2.9;stroke-linecap:butt;stroke-linejoin:miter;stroke-dasharray:none;stroke-opacity:1"
       d="m 31.663327,349.0982 19.238477,18.03607 65.330666,-30.86172 c 0,0 98.50312,-8.73215 148.69739,-8.81764 34.66047,-0.059 104.00801,6.41282 104.00801,6.41282 l 12.62526,8.01604"
       id="path3"
       sodipodi:nodetypes="cccscc" /><g
       id="g11"
       style="clip-rule:evenodd;fill-rule:evenodd"
       transform="translate(0.91934395,2.1113)"><path
         d="m 262.84507,274.73916 -0.10777,-3.67855 -3.60655,0.10502 0.10777,3.67855 -2.00527,0.0594 0.38138,13.05026 7.61576,-0.22248 -0.38004,-13.05025 z"
         style="clip-rule:evenodd;fill:#d7d7d7;fill-opacity:1;fill-rule:nonzero;stroke-width:1.33333;stroke-miterlimit:10"
         id="path327"
         sodipodi:nodetypes="ccccccccc" /><path
         d="m 264.54572,287.08405 -6.28246,0.18377 -0.34269,-11.71828 0.67198,-0.0194 0.065,2.22126 c 0.009,0.31865 0.24458,0.56641 0.54597,0.62344 -0.29725,0.0736 -0.51833,0.33386 -0.50866,0.65385 l 0.19206,6.56646 c 0.0111,0.36799 0.31668,0.65701 0.686,0.6473 l 3.60522,-0.10637 c 0.36799,-0.009 0.65834,-0.31667 0.6473,-0.68599 l -0.19207,-6.56646 c -0.009,-0.31866 -0.24459,-0.56642 -0.54597,-0.62211 0.29725,-0.075 0.51832,-0.33519 0.50866,-0.65385 l -0.065,-2.2226 0.67197,-0.0194 z m -4.72765,-15.27245 2.27326,-0.0663 0.15204,5.23449 -2.27193,0.0663 z m 2.50264,7.77742 0.15204,5.23449 -2.27327,0.0663 -0.15204,-5.23449 z m 2.51028,-5.5759 -1.33863,0.0401 -0.0884,-3.01323 c -0.009,-0.36799 -0.31667,-0.657 -0.68466,-0.64597 l -3.60655,0.10504 c -0.368,0.009 -0.65701,0.31668 -0.64729,0.686 l 0.0884,3.0119 -1.33863,0.0387 c -0.36798,0.0111 -0.65834,0.31801 -0.64729,0.686 l 0.38138,13.05158 c 0.0111,0.36799 0.31801,0.657 0.68599,0.64597 l 7.61576,-0.22114 c 0.36799,-0.0111 0.65701,-0.31802 0.6473,-0.68601 l -0.38138,-13.05157 c -0.0111,-0.36799 -0.31801,-0.65702 -0.686,-0.6473"
         style="clip-rule:evenodd;fill:#000000;fill-opacity:1;fill-rule:nonzero;stroke-width:1.33333;stroke-miterlimit:10"
         id="path328"
         sodipodi:nodetypes="cccccccccccccccccccccccccccccccccccccccccc" /></g></g><g
     inkscape:groupmode="layer"
     id="layer3"
     inkscape:label="Command Symbol"
     sodipodi:insensitive="true"
     style="display:none"><path
       d="m 335.65547,357.33047 2.14042,15.07184 2.63029,0.0442 -1.85864,1.88237 1.00166,3.44504 -2.63947,-2.40683 -2.21867,2.63117 0.54468,-3.60736 -2.39986,-1.77917 2.72993,-0.12963 z"
       style="display:inline;fill:#000000;fill-opacity:1;fill-rule:nonzero;stroke:none;stroke-width:0.738414"
       id="path2508"
       sodipodi:nodetypes="ccccccccccc" /></g><g
     inkscape:groupmode="layer"
     id="layer4"
     inkscape:label="Operations Symbol"
     style="display:none"
     sodipodi:insensitive="true"><path
       style="display:inline;fill:#000000;fill-opacity:1;stroke:none;stroke-width:0.808353px;stroke-linecap:butt;stroke-linejoin:miter;stroke-opacity:1"
       d="m 335.34145,371.00446 1.37148,2.26679 3.32825,-0.56967 0.15476,-5.02066 -3.55469,-2.08971 -4.62285,2.79752 0.75196,6.10966 c 0,0 3.46173,1.38008 4.79374,1.69191 1.33199,0.31182 3.10182,0.47566 3.10182,0.47566 v -0.20459 c 0,0 -3.85344,-1.62639 -5.11986,-2.56588 -1.26642,-0.93949 -1.94701,-1.90265 -2.02374,-3.15689 -0.0767,-1.25424 0.61863,-2.6257 1.50391,-3.20102 0.88529,-0.57533 1.84017,-0.58209 2.63186,-0.18278 0.79169,0.39931 1.34163,1.00022 1.48159,1.81294 0.13996,0.81271 0.14811,1.55174 -0.32564,2.27818 -0.47375,0.72645 -1.30204,0.51013 -1.85806,0.15525 -0.55603,-0.35488 -1.17779,-1.23854 -1.17779,-1.23854 z"
       id="path18493"
       sodipodi:nodetypes="ccccccczcczzzzzzzcc" /></g><g
     inkscape:groupmode="layer"
     id="layer5"
     inkscape:label="Science Symbol"
     sodipodi:insensitive="true"><path
       id="path18248"
       style="color:#000000;display:inline;fill:#000000;stroke-width:0.703247;stroke-miterlimit:40;-inkscape-stroke:none"
       d="m 336.46068,367.13843 c -2.84734,0 -5.16171,2.33594 -5.16171,5.20017 0,2.86421 2.31437,5.19879 5.16171,5.19879 2.84734,0 5.16171,-2.33458 5.16171,-5.19879 0,-2.86423 -2.31437,-5.20017 -5.16171,-5.20017 z m 0,0.94086 c 1.9228,0 3.54066,1.28877 4.05191,3.06159 -0.23814,-0.2637 -0.54877,-0.49425 -0.90516,-0.68539 -0.82567,-0.4428 -1.93026,-0.70325 -3.14675,-0.70325 -1.21649,0 -2.32108,0.26045 -3.14675,0.70325 -0.35639,0.19114 -0.66701,0.42169 -0.90515,0.68539 0.51125,-1.77282 2.1291,-3.06159 4.0519,-3.06159 z m 0,2.29379 c 1.12655,0 2.14303,0.24841 2.85282,0.62908 0.70979,0.38066 1.07958,0.8645 1.07958,1.33644 0,0.47193 -0.36979,0.9544 -1.07958,1.33507 -0.70979,0.38066 -1.72627,0.62907 -2.85282,0.62907 -1.12655,0 -2.14301,-0.24841 -2.85281,-0.62907 -0.70979,-0.38067 -1.07959,-0.86314 -1.07959,-1.33507 0,-0.47194 0.3698,-0.95578 1.07959,-1.33644 0.7098,-0.38067 1.72626,-0.62908 2.85281,-0.62908 z m -4.0519,3.16048 c 0.23822,0.26372 0.54843,0.49545 0.90515,0.68677 0.82567,0.44281 1.93026,0.70324 3.14675,0.70324 1.21649,0 2.32108,-0.26043 3.14675,-0.70324 0.35672,-0.19132 0.66693,-0.42305 0.90516,-0.68677 -0.51044,1.77382 -2.1282,3.06297 -4.05191,3.06297 -1.92371,0 -3.54147,-1.28915 -4.0519,-3.06297 z" /></g></svg>
