<?xml version="1.0" encoding="UTF-8" standalone="no"?>
<!-- Generator: Adobe Illustrator 27.5.0, SVG Export Plug-In . SVG Version: 6.00 Build 0)  -->

<svg
   version="1.1"
   id="Layer_1"
   x="0px"
   y="0px"
   viewBox="0 0 400 400"
   enable-background="new 0 0 400 400"
   xml:space="preserve"
   sodipodi:docname="stoDelta.svg"
   inkscape:version="1.4 (e7c3feb1, 2024-10-09)"
   xmlns:inkscape="http://www.inkscape.org/namespaces/inkscape"
   xmlns:sodipodi="http://sodipodi.sourceforge.net/DTD/sodipodi-0.dtd"
   xmlns="http://www.w3.org/2000/svg"
   xmlns:svg="http://www.w3.org/2000/svg"><defs
   id="defs214">
	
	
</defs><sodipodi:namedview
   id="namedview212"
   pagecolor="#ffffff"
   bordercolor="#666666"
   borderopacity="1.0"
   inkscape:showpageshadow="2"
   inkscape:pageopacity="0.0"
   inkscape:pagecheckerboard="0"
   inkscape:deskcolor="#d1d1d1"
   showgrid="false"
   inkscape:zoom="2.065"
   inkscape:cx="200"
   inkscape:cy="199.75787"
   inkscape:window-width="1920"
   inkscape:window-height="1080"
   inkscape:window-x="2381"
   inkscape:window-y="138"
   inkscape:window-maximized="0"
   inkscape:current-layer="Layer_1" />

<g
   inkscape:groupmode="layer"
   id="layer2"
   inkscape:label="Base Insignia"><path
     style="color:#000000;fill:#d7d7d7;stroke:#000000;stroke-width:2;stroke-dasharray:none;stroke-opacity:1"
     d="m 290.91837,389.42235 c -3.22268,0.54853 2.4601,-28.00259 13.54601,-63.45034 6.30303,-20.15426 19.90035,-53.08761 25.47659,-53.13512 6.88568,-0.0587 23.16948,29.87298 31.60379,54.29761 9.47596,27.44109 19.05887,57.84849 16.81926,58.68593 -3.97026,1.48459 -19.12683,-29.37752 -34.16256,-29.345 -14.3644,0.0311 -48.84341,32.19125 -53.28309,32.94692 z"
     id="path2"
     sodipodi:nodetypes="sssssss" /><path
     id="path1"
     style="fill:#ffffff"
     d="m 331.03906,280.6748 c 0,0 0.76264,12.98042 1.08594,20.73145 0.36767,8.81436 1.91458,24.82146 2.06252,26.33607 -2.81596,0.37442 -5.50279,1.9264 -7.90041,3.19323 -7.87389,4.16035 -13.4673,11.59722 -18.44531,18.55468 -6.40845,8.9567 -13.15821,29.24609 -13.15821,29.24609 0,0 9.24575,-19.48112 15.19141,-27.79101 4.94895,-6.91685 10.36818,-13.99124 17.57812,-17.80078 3.61895,-1.91214 7.94527,-3.91242 11.69263,-3.04617 4.11787,0.95188 8.59781,4.2327 11.95195,7.6865 6.97896,7.18634 17.79878,26.10869 17.79878,26.10869 0,0 -9.4012,-18.78342 -16.94726,-26.55371 -3.29185,-3.38966 -7.00702,-8.19974 -12.18358,-9.39635 -1.01626,-0.23492 -1.625,-0.46617 -2.6583,-0.48044 -0.12583,-1.29137 -1.55154,-17.50144 -2.48429,-26.16032 -0.84986,-7.88937 -3.58399,-20.62793 -3.58399,-20.62793 z"
     sodipodi:nodetypes="cscsscsssscsscsc" /><path
     id="path5"
     style="fill:#000000;fill-opacity:0.2;stroke:none;stroke-width:1px;stroke-linecap:butt;stroke-linejoin:miter;stroke-opacity:1"
     d="m 330.14258,272.83203 -4.60742,3.50586 -14.00782,29.18555 c 0,0 -8.51793,24.72413 -11.83984,37.35742 -3.91491,14.88845 -9.50781,45.19336 -9.50781,45.19336 0,0 2.50965,-5.57863 5.45117,-12.05664 0.003,-0.009 0.0105,-0.0262 0.0137,-0.0352 0.4557,-1.28855 0.95569,-2.66213 1.71875,-4.66992 1.45292,-3.84595 3.37376,-8.59085 5.55664,-13.12109 0.19257,-0.40053 0.38476,-0.79225 0.58008,-1.18555 0.2456,-0.49326 0.48666,-0.98771 0.73633,-1.4668 0.004,-0.008 0.008,-0.0158 0.0117,-0.0234 0.4805,-0.92435 0.9662,-1.80131 1.45507,-2.64843 0.26313,-0.45435 0.5262,-0.90104 0.79102,-1.32813 0.0708,-0.11458 0.14009,-0.23338 0.21094,-0.3457 0.37811,-0.59768 0.75794,-1.17373 1.13672,-1.70313 3.11125,-4.34841 6.46238,-8.88347 10.46093,-12.68945 0.79971,-0.76119 1.62576,-1.49397 2.48047,-2.18945 1.70943,-1.39097 3.53544,-2.6357 5.50391,-3.67578 2.39762,-1.26683 5.08443,-2.81894 7.90039,-3.19336 -0.14794,-1.51461 -1.69483,-17.52158 -2.0625,-26.33594 -0.16169,-3.87653 -0.43295,-9.05886 -0.66406,-13.27344 -0.23107,-4.21422 -0.42188,-7.45898 -0.42188,-7.45898 0,0 0.36284,1.48928 0.81641,3.45703 -0.41528,-2.64566 -0.87815,-5.24419 -1.30859,-7.25781 -0.36084,-1.68793 8.29431,3.50745 6.61328,1.95312 -2.14225,-1.98079 -7.01758,-5.99414 -7.01758,-5.99414 z m 7.71289,57.08399 -0.56445,0.0547 c 2.49799,7.56322 4.65355,16.15372 4.92578,25.77149 5.51995,0.73524 9.69782,0.98699 13.35156,5.11914 3.863,4.36878 20.65345,22.92905 21.31055,23.78515 -3.38585,-11.25115 -7.38137,-23.34127 -25.78125,-46.86132 -0.83888,-0.8638 -1.74864,-1.71696 -2.70508,-2.52539 -0.4778,-0.40406 -0.96623,-0.79616 -1.46485,-1.17383 -0.49865,-0.37761 -1.00603,-0.73931 -1.51953,-1.08203 -1.02681,-0.68535 -2.07761,-1.29366 -3.1289,-1.78907 -1.05148,-0.4954 -2.10335,-0.87921 -3.13282,-1.11718 -0.21416,-0.0495 -0.43072,-0.0859 -0.64843,-0.11719 -0.21279,-0.029 -0.42705,-0.0502 -0.64258,-0.0645 z"
     sodipodi:nodetypes="cccscccccccccccsssscssccssccccscccsssscc" /></g><g
   id="g41081"
   inkscape:label="Science"
   style="display:inline"><path
     id="path18248"
     style="color:#000000;display:inline;fill:#000000;stroke-width:1.85433;stroke-miterlimit:40;-inkscape-stroke:none"
     d="m 333.80329,316.98745 c -7.50792,0 -13.61047,6.15944 -13.61047,13.71187 0,7.55239 6.10255,13.70826 13.61047,13.70826 7.5079,0 13.61046,-6.15587 13.61046,-13.70826 0,-7.55243 -6.10256,-13.71187 -13.61046,-13.71187 z m 0,2.48089 c 5.07005,0 9.33604,3.39824 10.68411,8.07282 -0.62793,-0.69531 -1.447,-1.30323 -2.38672,-1.80724 -2.17714,-1.16759 -5.08974,-1.85433 -8.29739,-1.85433 -3.20766,0 -6.12026,0.68674 -8.29739,1.85433 -0.93973,0.50401 -1.7588,1.11193 -2.38671,1.80724 1.34807,-4.67458 5.61404,-8.07282 10.6841,-8.07282 z m 0,6.04829 c 2.97049,0 5.65075,0.65501 7.52234,1.65875 1.87159,1.00375 2.84667,2.27954 2.84667,3.52394 0,1.2444 -0.97508,2.51658 -2.84667,3.52033 -1.87159,1.00374 -4.55185,1.65875 -7.52234,1.65875 -2.9705,0 -5.65073,-0.65501 -7.52233,-1.65875 -1.87158,-1.00375 -2.84669,-2.27593 -2.84669,-3.52033 0,-1.2444 0.97511,-2.52019 2.84669,-3.52394 1.8716,-1.00374 4.55183,-1.65875 7.52233,-1.65875 z m -10.6841,8.3336 c 0.62813,0.69536 1.44611,1.30641 2.38671,1.81087 2.17713,1.1676 5.08973,1.85432 8.29739,1.85432 3.20765,0 6.12025,-0.68672 8.29739,-1.85432 0.94059,-0.50446 1.75857,-1.11551 2.38672,-1.81087 -1.34592,4.67721 -5.61164,8.07646 -10.68411,8.07646 -5.07248,0 -9.3382,-3.39925 -10.6841,-8.07646 z" /></g><g
   id="g41844"
   inkscape:label="Engineering"
   style="display:none"
   sodipodi:insensitive="true"><path
     style="display:inline;fill:#000000;fill-opacity:1;stroke:none;stroke-width:2.05242px;stroke-linecap:butt;stroke-linejoin:miter;stroke-opacity:1"
     d="m 332.22662,328.30681 3.48221,5.75541 8.45048,-1.4464 0.39294,-12.74753 -9.02541,-5.3058 -11.73749,7.10295 1.90923,15.51251 c 0,0 8.7894,3.50406 12.17137,4.29578 3.38196,0.79173 7.87558,1.20773 7.87558,1.20773 v -0.51947 c 0,0 -9.78395,-4.12943 -12.9994,-6.5148 -3.21547,-2.38539 -4.94349,-4.83086 -5.13831,-8.0154 -0.19477,-3.18454 1.5707,-6.6667 3.81846,-8.12745 2.24775,-1.46076 4.6722,-1.47793 6.68232,-0.46408 2.01013,1.01386 3.40643,2.53957 3.76179,4.60308 0.35536,2.0635 0.37606,3.93989 -0.8268,5.78435 -1.20286,1.84447 -3.30592,1.29522 -4.71766,0.39418 -1.41176,-0.90105 -2.99043,-3.14468 -2.99043,-3.14468 z"
     id="path18493"
     sodipodi:nodetypes="ccccccczcczzzzzzzcc" /></g><g
   id="g6426"
   inkscape:label="Command"
   style="display:none"
   transform="matrix(1.1952857,0,0,1.1952857,-65.479435,-61.674841)"
   sodipodi:insensitive="true"><path
     d="m 332.69916,288.54111 5.64986,39.78369 6.94293,0.11658 -4.90609,4.9687 2.64401,9.09355 -6.96718,-6.35307 -5.8564,6.94524 1.43774,-9.522 -6.33469,-4.6963 7.20595,-0.34219 z"
     style="display:inline;fill:#000000;fill-opacity:1;fill-rule:nonzero;stroke:none;stroke-width:1.94912"
     id="path2508"
     sodipodi:nodetypes="ccccccccccc" /></g></svg>
