<?xml version="1.0" encoding="UTF-8" standalone="no"?>
<svg
   width="100%"
   height="100%"
   viewBox="0 0 400 400"
   version="1.1"
   xml:space="preserve"
   style="fill-rule:evenodd;clip-rule:evenodd;stroke-linejoin:round;stroke-miterlimit:2;"
   id="svg63"
   sodipodi:docname="Edosian.svg"
   inkscape:export-filename="/Users/bcholmes/Downloads/Edosian.png"
   inkscape:export-xdpi="150.041"
   inkscape:export-ydpi="150.041"
   inkscape:version="1.4 (e7c3feb1, 2024-10-09)"
   xmlns:inkscape="http://www.inkscape.org/namespaces/inkscape"
   xmlns:sodipodi="http://sodipodi.sourceforge.net/DTD/sodipodi-0.dtd"
   xmlns="http://www.w3.org/2000/svg"
   xmlns:svg="http://www.w3.org/2000/svg"><defs
   id="defs63">
        
    
            
            
            
            
            
            
            
            
            
            
            
            
            
            
            
            
            
            
            
            
            
            
            
            
            
            
            
            
            
            
            
            
            
            
            
            
            
            
            
            
            
            
            
        
                
            
                
            
                
            
                
            
                
            
                
            
                
            
                
            
                
            
                
            
                
            
                
            
                
            
                
            
                
            
                
            
                
            
                
            
                
            
                
            
                
            
                
            
                
            
                
            
                
            
                
            
                
            
                
            
                
            
                
            
                
            
                
            
                
            
                
            
                
            
                
            
                
            
                
            
                
            
                
            
                
            
                
            
                
            
                    
                
                    
                
                    
                
                    
                
                    
                
                    
                
                    
                
                    
                
                    
                
                    
                
                    
                
                    
                
                    
                
                    
                
                    
                
                    
                
                    
                
                    
                
                    
                </defs><sodipodi:namedview
   id="namedview63"
   pagecolor="#ffffff"
   bordercolor="#666666"
   borderopacity="1.0"
   inkscape:showpageshadow="2"
   inkscape:pageopacity="0.0"
   inkscape:pagecheckerboard="0"
   inkscape:deskcolor="#d1d1d1"
   showgrid="false"
   inkscape:zoom="2.1525"
   inkscape:cx="200"
   inkscape:cy="200"
   inkscape:window-width="1920"
   inkscape:window-height="1080"
   inkscape:window-x="2100"
   inkscape:window-y="142"
   inkscape:window-maximized="0"
   inkscape:current-layer="layer1" />
    
<g
   inkscape:groupmode="layer"
   id="layer1"
   inkscape:label="Edosian Head"><path
     d="m 207.11148,120.0597 c 0,0 -0.73733,42.21856 -3.08133,46.61322 -2.34399,4.39598 -8.14531,20.12795 -8.14531,20.12795 0,0 0.29333,11.42797 9.37731,19.63195 9.08265,8.20531 38.39457,23.10261 69.1625,20.46528 l 6.14265,-15.48396 4.12932,-14.16263 -9.96264,-41.31457 -68.7945,-43.20256 z"
     style="clip-rule:evenodd;fill:#cd976d;fill-rule:nonzero;stroke-width:1.33333;stroke-linejoin:round;stroke-miterlimit:2"
     id="path1" /><path
     d="m 207.11148,120.0597 c 0,0 -0.73733,42.21856 -3.08133,46.61322 -2.34399,4.39598 -8.14531,20.12795 -8.14531,20.12795 0,0 0.29333,11.42797 9.37731,19.63195 9.08265,8.20531 38.39457,23.10261 69.1625,20.46528 l 6.14265,-15.48396 4.12932,-14.16263 -9.96264,-41.31457 -68.7945,-43.20256 z"
     style="clip-rule:evenodd;display:inline;opacity:0.2;fill:#000000;fill-rule:nonzero;stroke-width:1.33333;stroke-linejoin:round;stroke-miterlimit:2"
     id="path2" /><path
     d="m 291.13794,187.7982 c 0,0 8.78664,18.57595 9.64931,20.50661 0.86266,1.932 2.63599,8.84398 3.85732,12.2493 1.22133,3.40666 5.53999,15.1893 6.53865,15.91863 0.99867,0.72933 5.26266,3.18133 7.79598,1.67866 2.53333,-1.50266 5.23732,-3.46932 6.84665,-6.16532 1.60933,-2.69466 24.61594,-17.97995 24.61594,-17.97995 l -51.51054,-30.71859 z"
     style="clip-rule:evenodd;fill:#cd976d;fill-rule:nonzero;stroke-width:1.33333;stroke-linejoin:round;stroke-miterlimit:2"
     id="path3" /><path
     d="m 334.8925,217.75826 c -0.968,0 -1.83066,-0.0293 -2.56133,-0.0893 -5.47865,-0.444 -10.5173,-6.47998 -13.85196,-10.47464 -0.76933,-0.92133 -1.44267,-1.72799 -2.004,-2.32533 -2.33732,-2.48399 -8.83064,-6.53865 -13.57063,-9.49997 -1.43733,-0.89867 -2.73066,-1.70666 -3.72399,-2.35333 -4.55999,-2.97466 -19.88262,-14.96263 -31.33326,-17.91729 -11.35197,-2.93066 -26.79193,-21.95994 -26.9466,-22.15061 l -21.41061,-16.16663 c -8.00398,-5.76265 -15.78129,-19.75328 -18.71062,-25.01993 -0.47866,-0.86133 -0.832,-1.49733 -1.04133,-1.83733 -1.36666,-2.22 0.18933,-15.859962 1.16266,-18.971954 0.91467,-2.929326 7.58265,-15.723961 7.65065,-15.85196 0.0373,-0.072 0.0507,-0.153333 0.0387,-0.233333 -0.34667,-2.251994 0.528,-10.63464 1.85066,-14.034632 1.27333,-3.274658 8.33731,-19.841283 11.78664,-27.313265 3.30666,-7.165315 15.47329,-10.845306 41.99456,-12.699968 3.72666,-0.259999 7.49198,-0.391999 11.19331,-0.391999 21.15061,0 36.49857,4.230656 41.20523,6.897316 5.55998,3.150659 32.87591,13.895965 36.62124,14.645297 0.48133,0.096 0.956,0.145333 1.41066,0.145333 1.16,0 2.044,-0.309333 2.82533,-0.581332 0.616,-0.216 1.14799,-0.401332 1.70666,-0.401332 0.47466,0 0.92933,0.133333 1.432,0.421332 0.83466,0.475999 1.59466,1.583996 2.55866,2.987992 1.94266,2.831993 4.60532,6.711984 10.55464,9.934642 8.91464,4.827988 10.3773,7.99598 11.4453,10.309308 1.152,2.495994 0.71333,7.902647 -2.97466,13.871965 -1.86133,3.014659 -3.73866,4.15999 -5.39465,5.170654 -1.77066,1.079997 -3.29999,2.013328 -4.01199,4.858654 -1.128,4.513322 -0.12,6.317318 3.21599,12.295972 0.65733,1.17599 1.40666,2.51866 2.24799,4.07865 4.17599,7.73198 2.62133,9.75465 0.82267,12.09597 -0.336,0.43734 -0.67867,0.88267 -0.99466,1.372 -1.048,1.61866 -2.87066,3.52266 -4.47999,5.20132 -1.57067,1.64 -2.928,3.05599 -3.40399,4.00932 -0.99867,1.99733 -1.53733,12.17597 -1.53733,15.89596 0,4.13999 1.28266,33.52792 2.40399,37.26124 0.408,1.364 0.98533,2.60266 1.544,3.79999 0.99066,2.12133 1.92532,4.12399 1.81066,6.55866 -0.036,0.73333 -0.052,1.48666 -0.0667,2.22932 -0.0613,2.964 -0.124,6.02665 -1.52799,6.40932 -2.224,0.60667 -4.67066,4.02532 -7.89999,9.34264 -2.89332,4.76533 -4.34532,7.15732 -7.07731,7.15732 -0.196,0 -0.39867,-0.0107 -0.608,-0.0347 -0.27333,-0.0307 -0.61733,-0.044 -1.02266,-0.044 -1.78133,0 -4.72799,0.26934 -8.14132,0.584 -4.38665,0.40267 -9.35597,0.85867 -13.18663,0.85867"
     style="clip-rule:evenodd;fill:#cd976d;fill-rule:nonzero;stroke-width:1.33333;stroke-linejoin:round;stroke-miterlimit:2"
     id="path6" /><path
     d="m 334.8925,215.10466 c 3.70799,0 8.61465,-0.45066 12.9413,-0.848 3.47866,-0.31999 6.48265,-0.59466 8.38665,-0.59466 0.52133,0 0.96399,0.0213 1.31466,0.06 0.10933,0.012 0.21333,0.0187 0.31467,0.0187 1.13199,0 2.21866,-1.612 4.80932,-5.87999 3.45732,-5.69465 5.95465,-9.11864 8.75731,-10.28131 0.22,-0.91333 0.26133,-2.89732 0.28666,-4.14932 0.016,-0.76666 1.00134,-2.14933 1.03734,-2.90533 0.084,-1.77999 -0.64267,-3.33865 -1.564,-5.31065 -0.57067,-1.224 -1.15466,-3.43866 -1.61866,-4.98665 -1.28,-4.26399 -2.516,-34.39992 -2.516,-38.02391 0,-0.13466 0.22267,-13.89063 1.81867,-17.08396 0.62399,-1.24933 1.87466,-2.58399 3.86132,-4.65732 1.52666,-1.59333 2.22533,-1.96799 3.13599,-3.37466 0.356,-0.55066 0.74,-1.05466 1.11733,-1.54666 1.43733,-1.87066 3.83333,-3.95332 0.476,-10.17197 -0.836,-1.548 -1.57866,-2.87866 -2.23066,-4.04533 -3.43466,-6.154648 -6.38398,-7.747977 -5.00132,-13.279963 0.976,-3.901324 3.31999,-5.331987 5.20399,-6.481317 1.53732,-0.938665 2.99065,-1.823996 4.51865,-4.29999 3.77066,-6.102651 3.28933,-10.355974 2.82266,-11.365305 -0.96266,-2.085328 -2.15999,-4.679988 -10.29864,-9.087977 -6.51198,-3.526658 -9.50131,-7.88398 -11.47997,-10.76664 -0.57067,-0.830664 -2.688,-3.079992 -3.02266,-3.295991 -0.076,-0.044 -0.124,-0.064 -0.12933,-0.07067 -0.148,0.01733 -0.53334,0.152 -0.81734,0.252 -0.88266,0.307999 -2.09066,0.729331 -3.70132,0.729331 -0.628,0 -1.27733,-0.06533 -1.93066,-0.195999 -4.03466,-0.806665 -30.25993,-10.533307 -36.07324,-13.827966 -3.77333,-2.138661 -19.78529,-7.694647 -41.19323,-7.694647 -3.63866,0 -7.34265,0.129333 -11.00664,0.386665 -24.74128,1.729329 -37.00658,5.173321 -39.7719,11.163972 -3.43333,7.438649 -10.11598,25.263937 -11.38131,28.515929 -1.12266,2.889326 -1.03333,10.593307 -0.74666,12.457302 0.0987,0.638665 -0.009,1.291997 -0.308,1.865329 -2.55733,4.902654 -8.43198,13.639966 -9.05465,15.634628 -0.904,2.890659 -2.10933,14.599969 -1.36533,16.905289 0.22667,0.37867 0.57467,1.004 1.03067,1.82267 2.84932,5.12532 12.0013,18.51995 19.57328,23.97194 l 21.34395,16.10129 c 0.19866,0.14933 0.37866,0.324 0.53466,0.51733 4.15199,5.14799 16.83329,18.99995 25.54394,21.24795 11.90797,3.07332 27.2986,15.11863 32.11992,18.26395 0.98133,0.64 2.25999,1.43867 3.67999,2.32533 5.13465,3.20799 11.52397,7.19865 14.09596,9.93198 0.592,0.62799 1.30133,1.47466 2.11067,2.44399 2.86532,3.43199 7.65998,9.17598 12.02797,9.52931 0.65999,0.0547 1.44933,0.0813 2.34666,0.0813 z M 219.26079,137.08352 c -9.36131,-6.73998 -18.34796,-24.5266 -19.84662,-26.96126 -1.49733,-2.43333 0.188,-16.287961 1.124,-19.283954 0.936,-2.995992 7.67598,-15.914626 7.67598,-15.914626 -0.37467,-2.433328 0.56133,-10.85864 1.872,-14.229298 1.31066,-3.369325 8.42531,-20.033283 11.79597,-27.334599 3.36932,-7.301315 15.53996,-11.046639 42.31322,-12.918634 26.77327,-1.871995 46.99322,3.369325 52.61054,6.553317 5.61732,3.182659 32.76525,13.854632 36.50924,14.60263 3.74399,0.749332 4.86799,-1.871995 7.48932,-0.373332 2.62132,1.497329 4.11865,8.050646 13.1053,12.918634 8.98797,4.867988 10.4853,8.050647 11.60797,10.483974 1.12399,2.434661 0.93733,7.86398 -2.99466,14.229298 -3.93199,6.36665 -8.05065,4.681321 -9.36131,9.922642 -1.31067,5.242653 0.37466,6.741316 5.42932,16.102628 5.05465,9.36131 1.87199,10.67197 -0.188,13.85463 -2.05866,3.18266 -6.92665,7.30132 -7.86265,9.17331 -0.936,1.87333 -1.49866,11.98264 -1.49866,15.72796 0,3.74399 1.26533,33.40792 2.38799,37.15191 1.124,3.74399 3.55733,6.55332 3.37066,10.48397 -0.188,3.93199 0.18667,8.42531 -1.872,8.98798 -2.05999,0.56133 -4.49465,3.93199 -7.67731,9.17331 -3.18266,5.24265 -4.67999,7.67731 -8.05065,7.30265 -3.36932,-0.37467 -17.97328,1.87199 -24.90127,1.31066 -6.92665,-0.56266 -13.1053,-9.73597 -16.10129,-12.91863 -2.99599,-3.18399 -12.91863,-8.98798 -17.22529,-11.79597 -4.30532,-2.808 -19.61195,-14.87197 -31.21992,-17.86796 -11.60797,-2.99466 -27.14793,-22.27994 -27.14793,-22.27994 z"
     style="clip-rule:evenodd;fill:#000000;fill-rule:nonzero;stroke-width:1.33333;stroke-linejoin:round;stroke-miterlimit:2"
     id="path7" /><path
     d="m 221.13278,129.96901 c 0,0 2.05999,15.35196 4.11866,17.59995 2.05999,2.24666 13.10663,5.80399 17.22529,5.61599 4.11865,-0.18667 7.67598,-1.49733 10.11064,-4.30666 2.43333,-2.80799 -27.7106,-22.09194 -27.7106,-22.09194 z"
     style="clip-rule:evenodd;fill:#cd976d;fill-rule:nonzero;stroke-width:1.33333;stroke-linejoin:round;stroke-miterlimit:2"
     id="path8" /><path
     d="m 350.69379,95.144695 c 0,0 -0.008,10.333305 0.92933,12.579965 0.936,2.24666 11.05331,14.75463 13.67463,16.81463 2.62133,2.05999 7.48932,5.05465 7.48932,6.73998 0,1.68533 -7.67732,13.4813 -11.04664,15.1653 -3.37066,1.68533 -18.34796,3.55732 -24.15194,0.93599 -5.80399,-2.61999 -10.48531,-6.55198 -8.23865,-12.91863 2.24666,-6.36532 5.80399,-13.85463 10.48531,-14.79063 4.67999,-0.936 -2.24666,-41.563895 -3.74532,-42.874559 -1.49733,-1.310663 7.48931,-5.055987 9.92397,-1.871995 2.43333,3.182659 4.67999,20.219949 4.67999,20.219949"
     style="clip-rule:evenodd;fill:#cd976d;fill-rule:nonzero;stroke-width:1.33333;stroke-linejoin:round;stroke-miterlimit:2"
     id="path10" /><path
     id="path13"
     style="clip-rule:evenodd;fill:#000000;fill-rule:nonzero;stroke-width:1.33333;stroke-linejoin:round;stroke-miterlimit:2"
     d="M 323.97266 37.525391 C 322.5627 37.490182 321.29928 37.525683 320.36328 37.666016 C 316.61795 38.228681 314.37161 39.163995 311.37695 41.222656 C 308.38096 43.282651 283.29348 44.967631 278.79883 45.154297 C 274.30551 45.342297 266.25481 46.090779 264.38281 49.273438 C 264.38281 49.273438 271.12122 46.465964 279.17188 46.279297 C 287.22253 46.091298 305.75829 45.343532 309.87695 43.658203 C 313.99694 41.972874 317.36626 38.414396 323.54492 38.789062 C 329.72357 39.163728 336.27878 39.912661 339.27344 41.972656 C 342.26944 44.03265 354.43772 54.516061 356.12305 57.886719 C 357.80838 61.256044 357.80859 65.376953 357.80859 65.376953 C 357.80859 65.376953 361.36498 59.009397 354.625 53.580078 C 347.88501 48.150758 346.38672 44.40625 346.38672 44.40625 C 346.38672 44.40625 357.80837 44.780867 360.42969 43.658203 L 357.83398 42.675781 C 355.00065 43.09578 347.32363 43.282869 344.51562 42.908203 C 341.70763 42.533538 338.33617 39.350394 335.71484 38.789062 C 333.74885 38.368063 328.20252 37.631015 323.97266 37.525391 z M 237.98438 62.193359 C 237.98438 62.193359 246.2222 75.2975 247.53125 83.537109 C 248.84264 91.773767 243.03906 106.75195 243.03906 106.75195 C 248.84327 98.701135 248.65525 90.276023 248.65625 81.851562 C 248.65591 73.425929 237.98438 62.193359 237.98438 62.193359 z M 344.83594 73.046875 C 344.61849 73.037981 344.38833 73.041068 344.14258 73.052734 L 338.71289 73.800781 C 344.32888 72.864783 346.20117 77.170024 346.20117 80.166016 C 346.20117 83.162009 349.9395 105.29 350.6875 108.47266 C 351.43683 111.65532 368.10769 127.90954 370.54102 129.4082 C 372.97568 130.90553 370.53996 135.39821 368.66797 138.01953 C 366.79597 140.64086 364.92383 143.07422 364.92383 143.07422 C 364.92383 143.07422 370.35328 139.14293 372.97461 135.21094 C 375.59594 131.27895 374.47312 130.53127 369.23047 126.22461 C 363.98915 121.91929 353.86926 110.71977 352.55859 107.53711 C 351.24793 104.35445 349.00944 86.157836 348.63477 80.728516 C 348.28352 75.638529 348.09768 73.180282 344.83594 73.046875 z M 278.05078 105.25391 C 278.05078 105.25391 282.35664 111.43398 282.91797 112.55664 C 283.4793 113.68064 279.54827 125.66204 277.48828 127.7207 C 275.42828 129.7807 264.56904 129.21925 261.01172 129.03125 C 257.4544 128.84458 254.64698 130.90457 254.45898 133.33789 C 254.27232 135.77122 255.76987 136.89553 256.14453 138.01953 C 256.5192 139.14219 254.27279 147.56667 249.2168 150 C 244.16215 152.43466 237.79655 151.87478 233.11523 150.18945 C 228.43524 148.50412 223.56736 146.07008 222.44336 135.02344 C 221.3207 123.9768 221.5077 114.99114 222.81836 113.11914 C 224.12902 111.24582 228.99609 106.18945 228.99609 106.18945 C 225.81343 107.12545 220.75776 108.24962 220.00977 119.29492 C 219.26043 130.34156 223.37874 144.38486 223.94141 147.38086 C 224.50274 150.37551 227.68647 150.56388 235.17578 152.81055 C 242.6651 155.05721 249.40512 155.80606 253.89844 148.69141 C 258.39176 141.57676 258.39062 140.82812 258.39062 140.82812 C 258.39062 140.82812 266.62917 152.06057 269.0625 157.11523 C 269.0625 157.11523 260.26374 139.14153 258.20508 137.26953 C 256.14508 135.39754 256.70641 133.33879 258.20508 131.4668 C 259.70241 129.5948 270.18648 130.7168 273.36914 130.7168 C 276.5518 130.7168 277.67509 132.77692 281.23242 125.09961 C 284.78974 117.42363 285.91301 112.18092 284.04102 110.68359 C 282.16769 109.18626 279.54944 107.68724 278.05078 105.25391 z M 352.00391 133.14258 C 349.76658 133.17324 345.97734 133.22703 344.27734 134.79102 C 342.76535 136.18302 342.48614 138.32108 340.77148 139.70508 C 341.53148 139.47174 340.45739 140.31056 339.80273 141.22656 C 342.34006 140.47989 344.39539 138.73901 347.13672 139.15234 C 349.80604 139.55634 351.55964 139.62096 353.29297 137.1543 C 354.68097 135.17964 354.93056 133.10388 352.00391 133.14258 z M 365.31445 133.33984 C 363.41062 133.35239 361.42943 134.20296 360.32031 135.48438 C 358.87156 137.15954 358.45801 137.56722 360.36328 138.19141 C 360.84788 138.35087 365.0241 139.06665 363.98242 140.57617 C 365.37787 138.55245 367.80446 136.76181 368.45312 134.3125 C 367.57191 133.62662 366.45675 133.33231 365.31445 133.33984 z M 374.0625 189.21875 C 373.89093 189.19685 372.74023 190.52539 372.74023 190.52539 C 372.74023 190.52539 372.60926 191.00407 372.25391 191.77344 C 372.71046 191.35063 373.13508 190.88803 373.49023 190.33594 C 374.0169 189.51677 374.14049 189.2287 374.0625 189.21875 z M 372.25391 191.77344 C 371.46782 192.50141 370.5832 193.11132 369.76758 193.84766 C 368.62492 194.87965 367.46478 196.21363 366.43945 197.4043 C 365.34745 198.67096 363.89814 199.7907 362.49414 200.69336 C 359.61681 202.54269 355.3473 202.98798 352.05664 203.66797 C 347.35265 204.63864 342.14796 204.29758 337.5293 203.37891 C 335.86264 203.04825 334.18989 202.7783 332.61523 202.1543 C 330.97523 201.50364 329.62635 200.37231 328.04102 199.68164 C 325.73703 198.67898 322.43047 197.52398 320.00781 197.61328 C 319.41848 197.63595 317.50375 197.95248 316.62109 198.61914 C 316.32242 198.84448 316.14117 199.11192 316.17188 199.41992 C 316.29453 200.68125 319.91541 199.19272 320.69141 199.13672 C 323.31273 198.95005 333.6097 203.81796 338.29102 205.50195 C 342.97234 207.18728 346.53027 205.50274 354.76758 204.94141 C 363.00623 204.38008 363.56689 201.19599 367.68555 197.63867 C 370.3069 195.37458 371.63179 193.12039 372.25391 191.77344 z " /><path
     id="path22"
     style="clip-rule:evenodd;opacity:0.2;fill:#000000;fill-rule:nonzero;stroke-width:1.33333;stroke-linejoin:round;stroke-miterlimit:2"
     d="M 350.74609 58.273438 C 348.06919 58.284258 344.65648 58.775816 340.58398 60.320312 C 329.72534 64.438969 330.66022 72.301901 314.93359 72.115234 C 299.20697 71.927235 283.10419 69.306126 279.54688 73.800781 C 275.98955 78.294104 271.8704 91.400026 275.42773 99.638672 C 276.73039 96.824013 278.27881 94.090848 279.9668 91.492188 C 281.26947 89.489525 282.54282 87.464599 284.02148 85.585938 C 284.65615 84.77794 287.07993 81.04725 288.05859 82.892578 C 288.41993 83.572577 288.09052 84.385565 288.47852 85.101562 C 289.43319 86.862892 289.94107 87.885327 290.78906 89.722656 C 291.1824 90.577321 292.8802 91.870809 293.54688 92.244141 C 293.21488 91.669476 292.74543 91.143529 292.49609 90.519531 C 292.12943 89.6022 292.12281 88.438023 292.02148 87.443359 C 291.83481 85.58603 291.92373 83.876693 292.31836 82.082031 C 292.8157 79.824703 295.32453 81.07738 297.00586 81.248047 C 300.55785 81.610712 304.10379 82.066693 307.67578 82.193359 C 309.84911 82.269359 313.97723 81.580009 313.86523 85 C 313.81593 86.50533 312.76158 87.454231 311.65625 88.351562 C 310.49092 89.296893 309.39754 90.424663 308.04688 91.111328 C 306.86422 91.711326 305.88195 92.660929 304.64062 93.183594 C 303.88063 93.503594 302.12978 93.457897 301.64844 93.976562 C 303.36844 93.81923 305.34011 93.902591 307.05078 93.419922 C 309.29744 92.78659 310.4912 92.182467 312.00586 91.230469 C 314.75652 89.499807 316.8805 87.497781 319.03516 85.064453 C 320.63915 83.253791 321.78517 79.217181 324.20117 78.478516 C 325.80783 77.987851 327.25613 78.739516 328.82812 78.603516 C 329.96679 78.504846 331.16915 77.790187 332.14648 77.242188 C 334.58114 75.875524 336.77449 73.971947 339.64648 73.613281 C 341.05048 73.438615 342.83195 72.718027 344.25195 72.943359 C 346.04928 73.228692 346.7454 74.968194 348.30273 75.630859 C 349.41073 76.102858 350.37536 75.587158 351.44336 75.673828 C 353.34335 75.827161 354.73031 77.072377 356.29297 77.984375 C 356.47964 78.093708 356.66995 78.197588 356.86328 78.294922 C 357.63795 78.684254 358.48276 79.144964 359.35742 79.154297 C 360.00409 79.160997 360.66006 79.120547 361.30273 79.060547 C 362.49739 78.948548 363.76609 78.999387 364.96875 78.998047 C 366.11809 78.998047 367.2408 79.242048 368.35547 79.498047 C 369.28613 79.71138 369.6775 80.529497 370.16016 81.298828 C 370.37083 81.633494 370.30564 81.918731 370.68164 82.164062 C 370.99364 82.368062 371.19573 82.45947 371.15039 82.855469 C 371.09748 83.321107 370.87082 83.722256 370.62305 84.113281 C 370.52665 84.243785 370.42946 84.372223 370.33594 84.511719 C 369.84261 85.253051 369.41289 86.014845 368.85156 86.714844 C 367.79156 88.03884 366.38192 89.545464 364.66992 89.966797 C 361.81526 90.666795 358.17046 90.149553 355.73047 88.462891 C 354.94247 87.917559 354.22799 87.276249 353.5 86.65625 C 353.11466 86.328251 352.87461 86.157452 352.69727 85.689453 C 352.56127 85.328121 352.33686 84.921202 352.51953 84.533203 C 352.76086 84.018538 353.58534 83.802649 353.13867 83.083984 C 353.11737 83.050654 351.52275 84.227881 351.35742 84.310547 C 350.47875 84.749213 349.79063 84.229393 348.89062 84.164062 C 348.63862 84.145392 349.26396 87.81886 349.39062 88.130859 C 349.58929 88.622858 349.85792 89.108173 350.16992 89.576172 C 350.70592 90.381503 351.36886 91.131147 352.01953 91.757812 C 354.26752 93.920473 357.47859 95.38839 360.64258 94.900391 C 363.47765 94.463933 369.54627 92.34014 370.91992 89.28125 C 370.92932 89.26053 370.93828 89.239671 370.94727 89.21875 C 371.00899 89.073951 371.06374 88.928154 371.10352 88.779297 C 371.19702 88.428131 371.34213 88.076351 371.5293 87.728516 C 371.71053 87.391993 371.93236 87.059801 372.17969 86.732422 C 372.1984 86.707641 372.2173 86.682913 372.23633 86.658203 C 372.48542 86.334875 372.75914 86.017075 373.05078 85.708984 C 373.35502 85.387587 373.67628 85.075718 374.00391 84.777344 C 374.33227 84.478296 374.66582 84.193133 374.99414 83.923828 C 375.06247 83.867785 375.12564 83.822159 375.19336 83.767578 C 376.09887 83.03759 376.94471 82.430973 377.4668 82.039062 C 377.46712 82.038823 377.46843 82.039303 377.46875 82.039062 C 379.05083 80.851956 381.28782 77.795679 381.8418 75.365234 C 382.15171 74.755704 382.46406 74.138021 382.70898 73.613281 C 384.01965 70.805288 380.46262 68.932926 378.0293 68.183594 C 375.59464 67.434263 371.28858 67.434146 367.16992 69.494141 C 363.05127 71.552802 364.36189 70.805473 362.11523 70.244141 C 359.86857 69.681476 358.36914 61.818359 358.36914 61.818359 L 357.62109 59.572266 C 357.62109 59.572266 355.20761 58.255404 350.74609 58.273438 z M 210.46094 74.548828 L 207.08984 79.603516 C 206.90318 82.974174 211.58398 95.519531 211.58398 95.519531 C 209.52398 89.715546 210.46094 74.548828 210.46094 74.548828 z M 199.78906 109 C 199.78906 109 211.39582 129.59304 214.95312 131.83984 C 218.51041 134.08664 221.88086 137.08398 221.88086 137.08398 L 221.13281 115.92773 C 221.13281 115.92773 213.08216 117.61243 199.78906 109 z M 256.89453 137.26953 L 256.89453 140.64062 C 256.89453 140.64063 254.83456 145.88292 252.58789 148.87891 C 250.34123 151.8749 242.47852 153.18555 242.47852 153.18555 C 245.47318 158.80153 257.45584 167.97471 261.20117 170.9707 C 264.94516 173.96536 271.12408 175.27706 277.30273 177.15039 C 283.48138 179.02239 314.51367 200.44727 314.51367 200.44727 C 314.51367 200.44727 318.07203 199.32339 320.69336 199.13672 C 323.31468 198.94872 333.61103 203.81662 338.29102 205.50195 C 342.97234 207.18728 346.53027 205.50274 354.76758 204.94141 C 363.00622 204.37874 363.5669 201.19599 367.68555 197.63867 C 370.31844 195.36536 371.56853 193.19453 372.1875 191.84961 C 369.8883 194.10075 365.67937 196.61829 360.19727 199.51172 C 353.45596 203.06904 349.52509 202.31869 340.53711 202.69336 C 331.55047 203.06802 323.12601 195.57896 319.94336 195.76562 C 316.7607 195.95362 315.82467 198.7625 314.88867 198.20117 C 313.95267 197.6385 288.6772 182.28618 282.31055 179.10352 C 275.94523 175.92086 273.37055 167.60165 271.31055 161.23633 C 269.25189 154.87102 256.89453 137.26953 256.89453 137.26953 z M 372.1875 191.84961 C 372.71505 191.33308 373.17595 190.82515 373.49023 190.33594 C 375.17556 187.71461 372.74219 190.52344 372.74219 190.52344 C 372.74219 190.52344 372.5371 191.08998 372.1875 191.84961 z " /><path
     d="m 289.55128,186.89019 c 0,0 10.88931,22.25062 11.89064,27.13727 1.00266,4.88665 7.44931,18.86529 8.12398,20.89061 0.67466,2.02667 3.48265,4.30799 6.28798,4.46533 2.80399,0.15733 8.08131,-0.44934 9.70264,-4.89999 1.62267,-4.45066 26.54927,-19.93862 26.54927,-19.93862 l -9.50131,1.01733 c 0,0 -18.46129,13.4853 -18.75595,15.42796 -0.29334,1.94267 -3.84933,6.31999 -6.16265,6.34266 -2.31333,0.0227 -5.14532,-0.688 -6.44132,-3.632 -1.296,-2.94399 -7.67732,-17.56928 -8.09331,-20.24528 -0.416,-2.67466 -10.14265,-24.84394 -10.14265,-24.84394 z"
     style="clip-rule:evenodd;fill:#000000;fill-rule:nonzero;stroke-width:1.33333;stroke-linejoin:round;stroke-miterlimit:2"
     id="path43" /><path
     d="m 294.22993,79.558068 c 0,0 -1.02533,4.810654 -0.788,5.835985 0.236,1.025331 0.63067,5.44132 2.28666,6.150651 1.656,0.709332 7.17598,1.182664 9.54131,-0.551998 2.36666,-1.734663 8.35998,-6.545317 8.35998,-6.545317 l -1.65599,-3.311992 -6.15199,-0.630665 -4.88932,0.157333 z"
     style="clip-rule:evenodd;fill:#ffffb0;fill-rule:nonzero;stroke-width:1.33333;stroke-linejoin:round;stroke-miterlimit:2"
     id="path48" /><path
     d="m 294.22993,79.558068 c 0,0 -1.02533,4.810655 -0.788,5.835985 0.23067,1.003998 0.1,2.747993 0.89467,3.465325 0.25733,-0.722665 0.25733,-1.51333 0.464,-2.250661 0.25599,-0.905331 0.63466,-1.826662 1.07999,-2.661327 0.21334,-0.397332 0.30534,-0.695998 0.77733,-0.714665 0.51467,-0.01867 1.112,0.288 1.58933,0.413333 2.556,0.673331 5.63599,0.871998 8.31198,0.658665 1.296,-0.102667 2.79066,-0.269333 3.99466,-0.638665 0.84533,0.734664 0.0667,2.309327 -0.156,3.163992 0.36933,-0.124 3.32532,-2.195995 3.23199,-2.382661 l -1.65599,-3.311992 -6.15199,-0.630665 -4.88932,0.157333 z"
     style="clip-rule:evenodd;opacity:0.2;fill:#000000;fill-rule:nonzero;stroke-width:1.33333;stroke-linejoin:round;stroke-miterlimit:2"
     id="path49" /><path
     d="m 289.57794,77.192207 c 1.04133,0.767998 2.73866,1.003997 3.98799,1.38933 2.45199,0.755998 5.11999,0.970664 7.67998,1.12933 5.55332,0.345332 10.93197,0.590665 16.31063,-1.081331 0.76799,-0.238666 1.51866,-0.533332 2.32132,-0.714664 1.532,-0.345333 3.416,-0.338666 4.84533,-0.886665 -3.09866,0.737332 -6.32532,1.151997 -9.20798,2.551994 -0.512,0.247999 -1.228,0.461332 -1.65066,0.825331 -0.55734,0.481332 -0.36934,0.515999 -0.0533,1.123997 0.45467,0.871998 0.77733,1.961329 0.368,2.915993 -0.0947,0.222666 -0.476,0.931998 -0.764,0.969331 -0.384,0.04933 -0.55333,-0.559999 -0.71199,-0.903998 -1.08934,-2.358661 -2.59733,-3.277325 -5.30266,-3.139992 -1.93733,0.09867 -3.90399,0.282666 -5.85998,-0.016 -2.03066,-0.310666 -4.11866,-0.797331 -6.16665,-1.165331 -2.61866,-0.469332 -6.11732,-1.062664 -7.75999,-3.375991 0.93067,-0.03333 2.00267,0.361332 1.964,0.378666"
     style="clip-rule:evenodd;fill:#000000;fill-rule:nonzero;stroke-width:1.33333;stroke-linejoin:round;stroke-miterlimit:2"
     id="path51" /><path
     d="m 295.37393,79.425268 c -0.688,1.794662 -0.98266,3.399992 -0.98533,5.33732 -10e-4,1.674663 0.044,3.96799 1.20133,5.279987 1.632,1.850662 5.26665,2.041328 7.39731,1.226663 1.84533,-0.706664 3.70266,-1.519996 5.14932,-2.874659 0.94134,-0.882664 1.996,-1.654663 2.97066,-2.507994 0.72534,-0.635998 1.33867,-1.538663 2.208,-1.998661 1.78933,1.35333 -4.22132,5.326653 -4.89732,5.814652 -1.12667,0.810664 -2.06933,1.651996 -3.38399,2.137328 -1.56133,0.577332 -3.26,0.851998 -4.90799,1.04533 -1.95866,0.229333 -3.69599,-0.419999 -5.18266,-1.675995 -1.78532,-1.506663 -2.26666,-3.159992 -2.04932,-5.46132 0.22266,-2.367994 0.50399,-4.342656 -0.0747,-6.65065 0.87333,0 1.70533,0.285333 2.55466,0.327999"
     style="clip-rule:evenodd;fill:#000000;fill-rule:nonzero;stroke-width:1.33333;stroke-linejoin:round;stroke-miterlimit:2"
     id="path52" /><path
     d="m 302.27391,80.898598 c 1.30133,0.810664 0.604,3.355991 0.256,4.494655 -0.23467,0.767998 -0.57867,1.52933 -0.94266,2.243994 -0.38934,0.763999 -1.26,1.475997 -1.50933,2.243995 1.66132,-0.802665 2.90799,-1.163997 3.98932,-2.835993 0.54533,-0.842665 1.02533,-1.757329 1.276,-2.715993 0.18666,-0.715998 0.74266,-2.461327 0.40133,-3.155992 -0.35333,-0.718665 -2.464,-0.697332 -3.47066,-0.274666"
     style="clip-rule:evenodd;fill:#000000;fill-rule:nonzero;stroke-width:1.33333;stroke-linejoin:round;stroke-miterlimit:2"
     id="path53" /><path
     d="m 362.12843,89.336576 c 1.89866,0 5.36265,-1.339996 6.54532,-4.179989 1.18266,-2.83866 1.65599,-5.125321 1.65599,-5.125321 0,0 -6.22931,-1.734662 -9.77864,-1.182663 -3.54799,0.551998 -7.64931,3.390658 -7.64931,3.390658 l 1.10399,3.075992 c 0,0 2.12933,4.021323 8.12265,4.021323"
     style="clip-rule:evenodd;fill:#ffffb0;fill-rule:nonzero;stroke-width:1.33333;stroke-linejoin:round;stroke-miterlimit:2"
     id="path54" /><path
     d="m 364.18309,88.428045 c 2.04133,0.0053 3.71999,-1.423996 4.48932,-3.270658 1.184,-2.83866 1.656,-5.126654 1.656,-5.126654 0,0 -6.22932,-1.734662 -9.77731,-1.182664 -3.54933,0.551999 -7.64932,3.390658 -7.64932,3.390658 0.25867,0.721332 0.51734,1.442664 0.776,2.163995 0.416,1.159997 1.32667,1.842662 2.24933,2.659993 -0.33333,-0.967997 -1.26933,-1.815995 -0.636,-2.882659 0.65067,-1.093331 1.752,-1.805329 2.97733,-2.121328 1.38133,-0.357332 3.63332,-0.963998 5.01999,-0.314666 1.10133,0.514665 1.59066,1.845329 1.74799,2.933326 0.21067,1.443996 -0.18666,2.53066 -0.85333,3.750657"
     style="clip-rule:evenodd;opacity:0.2;fill:#000000;fill-rule:nonzero;stroke-width:1.33333;stroke-linejoin:round;stroke-miterlimit:2"
     id="path55" /><path
     d="m 350.77246,84.289523 c 0.95733,-1.482663 2.71333,-2.847993 3.97332,-4.102656 1.17867,-1.173331 2.47333,-1.627996 4.06799,-1.869329 2.41733,-0.363999 5.20132,-0.156 7.60665,0.07467 1.76266,0.169333 3.69732,0.270666 5.32665,0.850665 1.404,0.499999 2.34533,1.098664 3.91733,0.703998 -0.864,0.986664 -2.26933,1.159997 -3.52266,1.031998 -1.95466,-0.198667 -3.94932,-0.713332 -5.98265,-0.947998 -3.17999,-0.366666 -7.71998,-1.093331 -10.49731,0.929331 -1.53733,1.118664 -3.13199,3.295992 -4.95599,3.794657 -0.0493,-0.287999 0.0307,-0.562665 0.0667,-0.465332"
     style="clip-rule:evenodd;fill:#000000;fill-rule:nonzero;stroke-width:1.33333;stroke-linejoin:round;stroke-miterlimit:2"
     id="path57" /><path
     d="m 363.15509,79.161535 c 1.184,0.731998 0.62933,3.031993 0.34933,4.062657 -0.18933,0.693331 -0.476,1.382663 -0.78266,2.027995 -0.32667,0.690665 -1.08533,1.335996 -1.288,2.029328 1.46266,-0.726665 2.56666,-1.054664 3.48799,-2.56666 0.464,-0.762665 0.868,-1.58933 1.06533,-2.455994 0.148,-0.646665 0.59867,-2.225328 0.27467,-2.851993 -0.33467,-0.649332 -2.22,-0.627998 -3.10666,-0.245333"
     style="clip-rule:evenodd;fill:#000000;fill-rule:nonzero;stroke-width:1.33333;stroke-linejoin:round;stroke-miterlimit:2"
     id="path58" /><path
     d="m 353.29645,82.712327 c 0,0 2.68133,6.229317 8.12265,6.229317 5.44132,0 7.64931,-5.046654 8.04398,-8.753311 l 1.73466,0.158666 c 0,0 -2.208,9.383977 -9.69998,9.383977 -7.49198,0 -8.59598,-7.018649 -8.59598,-7.018649 z"
     style="clip-rule:evenodd;fill:#000000;fill-rule:nonzero;stroke-width:1.33333;stroke-linejoin:round;stroke-miterlimit:2"
     id="path59" /><path
     id="path60"
     style="clip-rule:evenodd;fill:#000000;fill-rule:nonzero;stroke-width:1.33333;stroke-linejoin:round;stroke-miterlimit:2"
     d="M 205.35352 117.7168 C 207.40552 176.61266 192.07617 185.62891 192.07617 185.62891 L 193.28516 190.56055 C 193.28516 190.56055 199.6106 181.17883 203.41992 173.85352 C 207.22925 166.52687 209.74805 122.99023 209.74805 122.99023 L 205.35352 117.7168 z M 275.90625 177.03516 C 275.90625 177.03516 281.0029 197.01481 274.37891 219.49609 C 267.75626 241.97603 277.34375 226.94531 277.34375 226.94531 C 279.68774 219.91333 282.32532 215.22363 284.08398 209.07031 C 285.84131 202.91699 282.31055 179.10352 282.31055 179.10352 L 275.90625 177.03516 z " /><path
     id="path4"
     style="clip-rule:evenodd;opacity:0.2;fill:#000000;fill-rule:nonzero;stroke-width:1.33333;stroke-linejoin:round;stroke-miterlimit:2"
     d="M 221.92383 34.181641 C 218.38251 41.917622 211.67811 57.646706 210.43945 60.832031 C 209.11679 64.232023 208.24122 72.613859 208.58789 74.867188 C 208.59989 74.947187 208.58848 75.027609 208.55078 75.099609 C 208.48408 75.227608 201.81506 88.023799 200.90039 90.953125 C 199.92706 94.065117 198.36967 107.70251 199.73633 109.92383 C 199.94566 110.26383 200.29931 110.90039 200.7793 111.76172 C 203.7073 117.02838 211.4843 131.0186 219.48828 136.78125 L 222.7168 139.21875 C 223.5352 143.21295 225.81477 149.43982 232.17969 150.9375 C 241.729 153.18416 251.71188 152.94719 255.39453 144.19922 C 256.8932 140.64189 257.26953 138.39453 257.26953 138.39453 C 257.26953 138.39453 255.58253 134.83639 255.39453 133.90039 C 255.20787 132.96439 255.76929 130.5312 258.39062 129.7832 C 260.41142 129.20554 268.53595 130.07096 273.10352 130.15625 C 272.63957 130.29139 272.18245 130.41555 271.75391 130.52539 C 274.00857 132.68939 279.11773 133.43209 282.17773 133.71875 C 288.38971 134.30142 294.96968 134.92981 300.375 138.3418 C 303.93366 140.5898 306.76259 144.58442 309.28125 147.95508 C 311.97325 151.55641 314.8204 154.7299 317.03906 158.61523 C 317.71906 159.80456 318.28651 162.37205 319.92383 162.37305 C 318.95317 161.12372 318.83454 158.66086 318.17188 157.1582 C 317.01455 154.53554 315.51541 152.03474 314.33008 149.44141 C 313.15408 146.86942 311.86044 144.08174 310.14844 141.81641 C 308.66311 139.84975 308.50745 137.53333 307.93945 135.13867 C 307.41149 132.91734 307.55306 130.7873 307.42773 128.41797 C 307.3664 127.27664 307.30356 126.10714 307.07422 124.98047 C 306.78889 123.58181 306.53567 123.60178 305.125 123.28711 C 303.82101 122.99645 302.68331 122.56059 301.33398 122.80859 C 300.16998 123.02459 299.10186 123.36992 297.92188 123.53125 C 296.62588 123.70858 295.25981 123.77725 294.00781 124.00391 C 291.83582 124.39858 289.73604 125.12242 287.60938 124.12109 C 287.01976 123.84455 282.90152 120.7215 282.97852 119.42969 C 283.0191 119.32322 283.06602 119.21784 283.10547 119.11133 C 284.97747 114.05534 283.66797 111.62109 283.66797 111.62109 C 283.66797 111.62109 277.86239 123.6034 275.42773 124.91406 C 272.9944 126.22473 253.52317 126.41083 251.08984 127.16016 C 248.65518 127.90816 245.84815 134.0872 249.9668 137.64453 C 254.08679 141.20185 252.77596 144.01115 250.5293 146.25781 C 248.2813 148.50447 239.6682 149.44141 237.04688 149.44141 C 234.52586 149.44141 229.40298 147.51051 223.01953 137.03906 C 222.77406 135.368 222.15273 133.68325 221.85352 132.18359 C 221.21219 128.9796 220.45266 125.71222 220.61133 122.32422 C 220.82066 117.86157 221.30037 112.66623 224.3457 109.12891 C 227.91502 104.98492 232.2189 105.82074 237.04688 106.19141 C 237.04688 106.19141 240.97711 108.25062 243.03711 106.75195 C 245.0971 105.25462 246.59475 96.268379 247.71875 91.400391 C 248.84141 86.532403 247.53115 77.545268 244.53516 72.113281 C 243.10583 69.525288 241.95558 66.828483 240.04492 64.535156 C 237.98893 62.065829 235.42796 60.035634 233.5293 57.431641 C 228.80664 50.959657 223.49049 42.432287 221.92383 34.181641 z M 350.74609 58.273438 C 348.06938 58.284492 344.65597 58.775816 340.58398 60.320312 C 329.72401 64.438969 330.66022 72.303854 314.93359 72.117188 C 299.20696 71.929187 283.10615 69.307459 279.54883 73.800781 C 275.9915 78.294103 271.8704 91.399406 275.42773 99.636719 C 275.42773 99.636719 280.11087 89.528977 285.35352 84.847656 C 285.35352 84.847656 288.1611 88.592281 291.34375 92.710938 C 293.61575 95.650931 296.5999 99.005115 300.58789 99.175781 C 304.86921 99.358448 308.46823 97.909764 312.60156 97.009766 C 315.86955 96.299101 319.25383 95.708686 322.53516 95.304688 C 328.25647 94.599356 328.3711 86.909859 330.87109 82.783203 C 332.38576 80.284543 334.23862 78.028599 336.47461 76.085938 C 338.70394 74.14861 344.45234 70.761172 346.01367 74.923828 C 347.27767 78.294486 347.8985 82.099581 348.28516 85.628906 C 348.4505 87.150235 349.1787 88.281643 350.19336 89.181641 C 351.58936 90.418971 353.52931 91.216283 355.30664 91.988281 C 357.87464 93.101612 361.81201 94.226519 364.63867 93.617188 C 366.68267 93.177188 370.51756 90.968625 371.10156 88.779297 C 371.85089 85.971304 375.97009 83.161726 377.46875 82.039062 C 378.96608 80.915065 381.39832 76.421274 382.70898 73.613281 C 384.01965 70.805288 380.46263 68.931592 378.0293 68.183594 C 375.59464 67.434262 371.28991 67.434146 367.16992 69.494141 C 363.05126 71.552803 364.36189 70.804854 362.11523 70.242188 C 359.86857 69.680856 358.37109 61.818359 358.37109 61.818359 L 357.62109 59.570312 C 357.62109 59.570312 355.20728 58.255013 350.74609 58.273438 z M 349.96875 100.26562 C 349.96875 100.26563 351.73582 109.98352 355.5625 113.86914 C 358.50095 116.85054 369.60352 126.97266 369.60352 126.97266 L 379.90039 113.30469 C 368.10624 116.11453 349.96875 100.26562 349.96875 100.26562 z M 340.24414 119.4082 C 338.56869 119.44337 336.43038 120.79377 335.5293 122.85352 C 335.5293 122.85352 340.9578 121.72962 344.70312 125.84961 C 344.70312 125.84961 343.39269 122.10442 342.08203 120.23242 C 341.67245 119.64742 341.00571 119.39222 340.24414 119.4082 z M 355.23047 130.10938 C 349.21879 130.07444 343.81447 130.67085 341.14648 132.21484 C 337.58915 134.27484 335.52875 137.64531 333.46875 137.08398 C 331.41009 136.52265 330.66016 131.6543 330.66016 131.6543 C 328.78816 135.77296 327.29045 136.89708 329.53711 139.70508 C 331.78511 142.51307 331.59631 145.13439 334.4043 144.01172 C 337.21363 142.88772 361.74117 137.45885 364.92383 143.07617 C 364.92383 143.07617 372.41295 137.27138 372.59961 134.27539 C 372.78761 131.27939 369.60387 130.90508 361.36523 130.34375 C 359.30557 130.20342 357.23436 130.12102 355.23047 130.10938 z M 368.67578 142.67188 C 366.27179 142.75717 364.02365 143.19606 363.34766 144.16406 C 360.62766 148.05871 363.5202 157.08245 364.26953 161.39844 C 365.05486 165.92243 365.22624 174.16111 367.99023 177.89844 C 368.81156 179.0091 370.17087 181.33545 371.63086 182.43945 C 371.42953 181.93678 371.22774 181.43311 371.06641 180.89844 C 369.94641 177.16512 368.66406 147.77538 368.66406 143.63672 C 368.66406 143.35405 368.66908 143.02388 368.67578 142.67188 z M 298.93164 183.28711 L 291.13867 187.79883 C 291.816 189.22949 292.49197 190.6598 293.16797 192.0918 C 293.63463 193.08113 293.97515 194.59067 294.89648 195.27734 C 295.69114 195.86933 296.80817 195.91586 297.71484 196.25586 C 299.30417 196.85186 300.94673 197.42295 302.52539 198.12695 C 309.98804 201.45494 315.69829 207.95168 319.37695 214.84766 C 320.56628 217.07566 320.99021 219.11659 319.79688 221.30859 C 318.96621 222.83392 317.76272 224.96566 316.38672 226.09766 C 314.06806 228.00432 310.41569 224.74521 308.45703 223.17188 C 307.24903 222.20254 306.27986 221.11197 305.47852 219.80664 C 304.79719 218.69864 303.64361 217.42416 303.37695 216.16016 C 303.63695 217.66016 304.1232 219.10403 304.64453 220.55469 C 305.86586 223.96135 310.18493 235.74333 311.18359 236.47266 C 312.18226 237.20199 316.4452 239.65501 318.97852 238.15234 C 321.51185 236.64968 324.21684 234.68233 325.82617 231.98633 C 327.04332 229.94834 340.42786 220.7593 346.91406 216.37695 C 352.02033 216.16234 357.70176 216.01826 358.88672 215.42578 C 360.75872 214.48978 363.00446 207.56178 365.06445 206.06445 C 367.12311 204.56712 371.24219 200.07422 371.24219 200.07422 C 371.24219 200.07422 366.74896 202.13359 360.57031 205.87891 C 354.39166 209.6229 346.52799 209.43522 342.22266 209.06055 C 342.19644 209.05827 342.15943 209.05315 342.13281 209.05078 L 314.86523 192.78906 C 316.18207 192.27073 317.73739 190.95224 318.36719 189.82031 C 319.27919 188.17632 319.27441 185.32811 318.70508 183.55078 C 317.83708 185.59877 316.79594 187.63865 314.83594 188.80664 C 314.07828 189.25808 311.84515 189.59507 311.01953 190.49609 L 298.93164 183.28711 z " /></g></svg>
