<?xml version="1.0" encoding="UTF-8" standalone="no"?>
<svg
   width="100%"
   height="100%"
   viewBox="0 0 400 400"
   version="1.1"
   xml:space="preserve"
   style="fill-rule:evenodd;clip-rule:evenodd;stroke-linejoin:round;stroke-miterlimit:2;"
   id="svg1"
   sodipodi:docname="GrazeriteFemale.svg"
   inkscape:version="1.4 (e7c3feb1, 2024-10-09)"
   xmlns:inkscape="http://www.inkscape.org/namespaces/inkscape"
   xmlns:sodipodi="http://sodipodi.sourceforge.net/DTD/sodipodi-0.dtd"
   xmlns="http://www.w3.org/2000/svg"
   xmlns:svg="http://www.w3.org/2000/svg"><defs
   id="defs1">
        
        
        
        
        
        
        
        
        
        
        
        
        
        
        
        
        
        
        
        
        
        
        
        
        
        
        
        
        
        
        
        
        
        
        
        
        
        
        
        
        
        
        
        
        
        
        
        
        
        
        
        
        
    </defs><sodipodi:namedview
   id="namedview1"
   pagecolor="#ffffff"
   bordercolor="#666666"
   borderopacity="1.0"
   inkscape:showpageshadow="2"
   inkscape:pageopacity="0.0"
   inkscape:pagecheckerboard="0"
   inkscape:deskcolor="#d1d1d1"
   inkscape:zoom="1.175"
   inkscape:cx="200"
   inkscape:cy="191.06383"
   inkscape:window-width="1440"
   inkscape:window-height="810"
   inkscape:window-x="2859"
   inkscape:window-y="206"
   inkscape:window-maximized="0"
   inkscape:current-layer="layer3" />
    
<g
   inkscape:groupmode="layer"
   id="layer3"
   inkscape:label="Grazerite Head Female"><path
     d="m 242.29139,247.19938 c -0.176,0.0867 -19.10528,-15.53463 -22.30661,-18.06395 -8.42398,-6.65332 -12.94263,-27.23993 -12.94263,-27.23993 6.28398,4.34132 12.68663,8.50797 19.12528,12.5853 11.13598,7.05331 20.55595,12.92663 31.11593,20.10795 -1.25067,1.91066 -0.57734,2.47999 -2.24533,3.82532 -1.88,1.516 -2.59999,4.17999 -4.63332,5.53599 -2.25333,1.50533 -5.63199,2.03199 -8.11332,3.24932"
     style="clip-rule:evenodd;fill:#cd976d;fill-rule:nonzero;stroke-width:1.33333;stroke-linejoin:round;stroke-miterlimit:2"
     id="path1" /><path
     d="m 313.43655,207.42335 c -0.228,3.22532 -0.55333,6.51065 -1.608,9.28397 -3.24265,2.62 -6.44398,5.90399 -9.76664,8.55732 -1.97466,1.57866 -3.71999,3.58932 -4.91999,5.80932 -1.15599,2.13999 -0.77866,3.73332 -1.25066,5.82265 -0.596,2.63599 -3.15199,8.29864 -5.37865,9.99064 -3.67733,2.78533 -10.47331,3.94799 -14.6093,2.42266 -3.57466,-1.31733 -6.35865,-3.81066 -8.52931,-6.90132 -1.00533,-1.43066 -1.58,-2.87199 -2.98799,-3.83599 -1.81067,-1.24133 -4.60266,-1.85866 -6.67065,-2.57732 -2.02133,-0.704 -3.43466,-1.44933 -4.71866,-3.06666 -1.28533,-1.61733 -2.96666,-2.828 -4.69065,-3.94133 -2.64533,-1.71066 -5.45332,-3.18665 -8.13732,-4.85732 -2.83999,-1.76666 -5.70532,-3.16932 -8.63064,-4.76532 -3.13866,-1.71066 -6.23732,-3.61999 -9.29598,-5.58132 -2.40799,-1.54399 -5.43199,-2.48532 -7.38398,-4.65865 -1.724,-1.91733 -3.48533,-3.82399 -5.32265,-5.67999 -4.53866,-4.58932 -6.29599,-10.74931 -8.28532,-16.79862 -1.23999,-3.76666 -2.46932,-7.59598 -3.33065,-11.47331 -0.34934,-1.56933 -5.03466,-4.34932 -8.73465,-8.25731 -3.69999,-3.90799 -7.13332,-13.53863 -10.09864,-20.68795 -2.268,-5.47065 -2.48933,-11.96397 -2.85199,-17.79062 -0.252,-4.06399 -0.38534,-8.13465 -0.47867,-12.20397 -0.0373,-1.636 0.156,-3.22266 0.18667,-4.83066 0.0307,-1.61599 -1.03733,-3.14932 -1.51067,-4.66532 -3.17865,-10.151971 -4.81998,-21.40661 -1.01733,-31.618584 0.85333,-2.291995 1.93866,-4.497323 3.23866,-6.569317 4.54399,-7.235982 11.43864,-12.681302 18.61196,-17.322624 7.60931,-4.922654 15.68396,-9.107977 24.00394,-12.699968 5.16265,-2.227994 10.45064,-4.266656 15.96529,-5.431986 2.77066,-0.585332 5.59598,-0.945331 8.43064,-0.965331 2.73066,-0.01867 5.23199,0.869331 7.98932,0.873331 0.54933,0.0013 1.07733,-0.101333 1.61999,-0.08933 2.992,0.06133 6.03999,0.979997 8.94131,1.667996 3.104,0.735998 6.18932,1.555996 9.24931,2.45866 3.56,1.049331 7.09332,2.214661 10.48398,3.721324 5.06132,2.251994 9.90531,5.207987 14.55063,8.193313 3.94666,2.537327 7.38798,5.634653 11.02797,8.575979 1.688,1.365329 3.67466,2.774659 4.68532,4.755988 0.70533,1.385329 1.29067,2.801326 2.04,4.187989 1.47733,2.731993 2.66266,5.57332 3.92932,8.431979 1.12933,2.54666 2.92933,4.809321 3.56533,7.535981 0.49866,2.145328 1.02266,3.782657 1.87732,5.891985 0.47334,1.166664 1.23467,2.198662 1.82933,3.318659 2.008,3.77999 2.936,8.670646 3.072,12.987966 0.052,1.64933 -0.69467,3.00266 -0.88667,4.61065 -0.64533,5.39866 1.79866,11.47331 2.66399,16.81996 0.95734,5.90932 1.352,12.5493 -2.55466,17.54796 -1.48933,1.90533 -3.16399,2.94932 -2.51866,5.45465 0.43334,1.68133 1.112,3.28399 1.6,4.94799 0.54133,1.84933 0.524,3.49466 0.44533,5.40132 -0.036,0.844 0.0373,1.69333 -0.10533,2.52533 -0.264,1.54132 -0.952,2.93732 -1.516,4.40398 -0.488,1.26933 -0.88266,2.584 -1.09733,3.91066 -0.34933,2.14666 -1.24533,4.42132 -2.21733,6.41332 -0.56533,1.16266 -1.11466,2.32666 -1.71466,3.46932 -0.86933,1.64933 -1.88933,3.22666 -2.13466,5.05199 -0.464,3.45999 -2.19466,7.19865 -3.09733,10.70664 -0.57066,2.21999 -1.38799,4.47332 -1.60799,6.78532 -0.14533,1.51466 -0.23333,3.11599 -0.348,4.73332"
     style="clip-rule:evenodd;fill:#cd976d;fill-rule:nonzero;stroke-width:1.33333;stroke-linejoin:round;stroke-miterlimit:2"
     id="path3" /><path
     id="path8"
     style="clip-rule:evenodd;fill:#000000;fill-rule:nonzero;stroke-width:1.33333;stroke-linejoin:round;stroke-miterlimit:2"
     d="m 317.01172,131.53906 c -0.62933,0.19863 -1.32931,0.0735 -1.94531,0.26953 -0.648,0.20534 -1.27188,0.62098 -1.89453,0.93164 -0.57734,0.288 -1.04112,0.47357 -1.67579,0.60157 -1.08266,0.21733 -2.24801,0.29348 -3.27734,0.66015 -2.60666,0.928 -5.19982,2.40625 -6.50781,5.12891 -0.92667,1.92799 -0.99981,4.27619 -1.03711,6.35352 -0.0187,1.06132 -0.0884,2.20333 0.0449,3.25 0.32,2.516 1.02772,4.84971 2.01172,7.20703 0.664,1.592 1.35392,3.22148 1.80859,4.88281 0.66266,2.42399 1.03265,4.95484 1.19532,7.4375 0.0773,1.16399 -0.0877,2.321 -0.1504,3.48633 -0.0148,0.28038 -0.008,0.5664 0.008,0.85547 -0.16367,0.35597 -0.36215,0.69979 -0.56446,1.02539 -0.37067,0.59466 -0.58351,1.17573 -1.10351,1.65039 -0.57333,0.52 -1.16736,0.99154 -1.58203,1.6582 -0.52666,0.848 -0.40858,1.93094 -0.36328,2.84961 0.0547,1.06533 0.11263,1.96698 -0.44336,2.95898 0.31866,-0.568 0.77395,-1.07514 1.14062,-1.61914 0.37866,-0.56133 0.91816,-0.98497 1.27149,-1.57031 0.68667,-1.13599 0.78604,-2.55526 1.13671,-3.80859 0.15858,-0.56716 0.41101,-1.24742 0.61914,-1.94727 0.0486,0.40663 0.10116,0.81656 0.13868,1.20899 0.08,0.83333 0.0355,1.58937 -0.0898,2.33203 -0.124,0.73866 -0.32783,1.46352 -0.5625,2.24218 -0.52,1.73067 1.55418,3.72008 1.96485,5.30274 0.296,1.14133 0.24773,2.33281 0.42773,3.49414 -0.0773,-0.5 0.17133,-1.23387 0.14063,-1.7832 -0.04,-0.704 -0.17838,-1.39428 -0.20508,-2.09961 -0.0573,-1.548 0.38918,-2.19183 1.47851,-3.28516 -0.32267,0.324 -1.44415,-0.38442 -1.66015,-0.59375 -0.37333,-0.36267 -0.44122,-0.584 -0.47852,-1.13867 -0.0667,-0.99466 0.1755,-2.00009 0.1875,-2.99609 0.0227,-2.08267 -0.29308,-4.12447 -0.20508,-6.20313 0.044,-1.01733 0.0511,-1.98623 -0.0156,-2.99023 -0.15466,-2.27999 -0.48219,-4.79372 -1.24219,-6.98438 -0.59066,-1.704 -1.26908,-3.43136 -1.70508,-5.16602 -0.32,-1.276 -0.6305,-2.59512 -1.0625,-3.84179 -0.344,-0.99466 -0.43283,-1.97223 -0.6875,-2.96289 -0.26666,-1.03866 -0.48037,-2.07963 -0.51367,-3.1543 -0.0693,-2.22266 0.6275,-4.34435 1.91016,-6.15234 0.748,-1.05467 1.49263,-2.28477 2.64062,-2.88477 1.28133,-0.66933 2.70533,-0.9537 4.08399,-1.3457 1.31467,-0.37466 2.54114,-0.93691 3.86914,-1.26758 0.23733,-0.0587 0.65492,-0.0737 0.79492,-0.29102 0.088,-0.13467 -0.0242,-0.41164 0.0625,-0.57031 0.45067,-0.81866 1.34778,-0.77753 2.03711,-1.13086 z m -20.01367,34.61524 c 0.31467,3.00666 0.1129,6.07162 -0.14844,9.09961 -0.148,1.70133 -0.12442,3.4449 -0.45508,5.1289 -0.284,1.45066 -0.67862,2.8602 -1.11328,4.26953 -0.33467,1.088 -0.55047,2.2063 -1.23047,3.1543 -0.72933,1.01599 -1.66136,1.88266 -2.69336,2.58398 -2.15866,1.46533 -3.52297,2.3133 -6.04297,2.16797 -1.11999,-0.0653 -2.34537,0.13673 -3.4707,0.27539 -2.07066,0.25734 -4.13175,0.62242 -6.20508,0.84375 -2.19999,0.23467 -5.09645,-0.50688 -7.14844,0.53711 -2.25333,1.14667 -3.36535,3.82863 -5.77734,4.91797 1.34933,1.48533 4.65798,-1.41272 5.69531,-2.27539 2.35466,-1.95733 4.3794,-1.27037 7.27539,-1.5957 2.34399,-0.26267 4.65397,-0.87946 7.00196,-1.07813 1.05866,-0.088 2.07796,0.0388 3.14062,-0.004 1.212,-0.048 2.42811,-0.141 3.63477,-0.34766 1.83066,-0.31467 3.69054,-0.10372 5.5332,-0.15039 1.94399,-0.0507 3.90309,-0.12812 5.81641,0.17188 1.03734,0.16266 2.10878,0.46699 2.80078,1.23632 0.52533,0.58666 0.7674,1.37435 1.1914,2.04102 0.872,1.37199 2.56994,2.15712 4.22461,1.95312 -1.52533,-1.71467 -2.56709,-3.96659 -4.59375,-5.05859 -1.32,-0.71333 -2.88777,-0.83066 -4.39843,-1 -2.14933,-0.24 -4.40656,-0.67334 -5.94922,-2.13867 0.724,-1.00399 1.33884,-2.07284 1.85351,-3.1875 1.29066,-2.79466 1.95449,-5.87078 2.14649,-8.91211 0.26933,-4.25599 -0.33055,-8.48082 -1.08789,-12.63281 z m -59.51953,4.83593 c -0.3705,0.0104 -0.50152,0.32235 -0.60352,0.98438 -0.348,2.24932 1.77053,6.36589 3.61719,7.47656 0.0773,0.048 0.15704,0.0839 0.23437,0.11328 0.972,0.368 1.89987,-0.57734 2.03321,-1.63867 0.23333,-1.868 -1.00949,-3.88392 -2.24415,-5.14258 -0.68666,-0.70133 -1.76479,-1.43308 -2.57812,-1.70508 -0.18467,-0.0617 -0.33548,-0.0914 -0.45898,-0.0879 z m 42.98437,1.64063 c -0.476,0.31733 -0.51583,1.47914 -0.5625,1.98047 -0.0827,0.88533 -0.0304,1.74726 0.32031,2.53125 0.59067,1.32133 2.365,1.78328 3.625,2.36328 0.624,0.288 1.28086,0.52464 1.74219,1.05664 0.52666,0.60666 0.82141,1.52144 1.08008,2.27344 0.007,-1.38399 -0.0931,-2.68314 -0.51172,-3.98047 -0.38266,-1.18799 -1.48364,-1.83259 -2.43164,-2.53125 -1.35066,-0.99466 -2.33906,-2.3667 -3.26172,-3.69336 z m 20.06641,25.30664 c -3.416,1.80266 -6.61358,0.10561 -10.24024,0.62695 -3.61497,0.52111 -7.58387,1.88833 -10.91406,0.0508 1.62452,0.91934 3.36585,1.68825 5.125,2.33008 1.81199,0.66134 2.83214,0.79733 4.74414,0.5 2.34399,-0.3653 4.73862,0.3054 6.83594,-0.33593 1.54933,-0.47333 3.31988,-1.98655 4.44922,-3.17188 z m -21.1543,0.67773 c -0.0291,-0.0165 -0.0589,-0.0323 -0.0879,-0.0488 v 0.002 c 0.0291,0.0166 0.0587,0.0308 0.0879,0.0469 z m -43.80273,20.01954 c 4.80666,4.24666 12.3585,4.28646 18.42382,5.95312 2.08799,0.57333 1.55566,1.10717 3.70899,1.3125 1.35466,0.12933 2.70179,0.30961 4.06445,0.34961 1.21867,0.0373 2.52283,0.49021 3.66016,0.93555 1.992,0.77999 4.22846,0.87034 6.34179,1.17968 1.99066,0.292 5.78103,1.75477 6.31836,3.9961 0.22667,0.94533 0.32598,1.86279 0.36328,2.82812 0.04,1.064 -0.0678,2.14642 -0.17578,3.20508 -0.112,1.07733 -0.42439,2.21893 -0.40039,3.29492 0.59866,-0.556 0.94255,-1.3899 1.31055,-2.11523 1.51333,-2.99066 -1.54876,-11.49416 2.47656,-13.27149 -4.95066,2.18533 -8.37052,0.31208 -13.0625,-0.91992 -2.00133,-0.524 -4.00657,-1.10159 -6.0039,-1.57226 -1.28533,-0.30397 -1.97058,-0.35494 -3.14258,-0.0723 -0.284,0.068 -0.56571,0.12397 -0.8457,0.16797 -4.32133,0.67733 -5.71139,-1.66601 -9.85938,-2.02734 -4.52798,-0.396 -8.81641,-2.08547 -13.17773,-3.24414 z m 69.04101,0.91015 c 0.0405,0.11604 0.0688,0.24334 0.10547,0.36328 -0.0263,-0.13875 -0.0597,-0.26379 -0.10547,-0.36328 z m 3.42969,0.0547 c -3.17466,1.812 -6.43928,2.98715 -9.36328,5.25781 -1.67066,1.29733 -4.43522,3.98522 -6.69922,2.58789 2.02,1.24666 1.68756,3.53464 1.85156,5.5293 0.156,1.90399 -0.37712,3.68867 -0.95312,5.47266 -0.59066,1.82533 -1.20675,3.84988 -2.08008,5.56054 1.48533,-0.592 3.01103,-1.56181 3.56836,-3.11914 1.04933,-2.93066 1.29967,-5.70989 1.90234,-8.69922 0.43466,-2.15733 2.8236,-4.08948 4.54492,-5.38281 2.37067,-1.77733 6.32852,-4.36437 7.22852,-7.20703 z" /><path
     d="m 199.49683,190.01552 c 1.41333,4.51599 3.48533,9.48265 8.69732,10.76931 -2.47866,-1.84399 -4.09199,-5.89065 -5.20266,-8.57731 -1.39999,-3.38666 -2.27866,-7.40265 -2.89866,-11.09197 -0.344,-2.04266 -0.64933,-4.09733 -1.06399,-6.08132 -3.49066,4.47199 -0.99467,10.30664 0.46799,14.98129"
     style="clip-rule:evenodd;fill:#000000;fill-rule:nonzero;stroke-width:1.33333;stroke-linejoin:round;stroke-miterlimit:2"
     id="path11" /><path
     d="m 315.73788,72.289153 c 0.092,0.283999 0.184,0.571998 0.27466,0.861331 0.576,1.831995 1.768,3.437325 2.45866,5.222653 2.692,6.947983 5.93332,13.6133 8.32532,20.697282 0.89199,2.638661 1.61866,5.867981 -0.232,7.947981 -0.49467,0.55466 -1.148,0.98533 -1.48933,1.64533 -0.54,1.04533 -0.13867,2.30799 0.26933,3.41199 1.76666,4.78132 3.53066,9.61864 4.16532,14.67596 0.63467,5.05732 0.052,10.42531 -2.60932,14.77197 -1.372,2.24132 -3.328,4.34399 -3.46933,6.96931 -0.132,2.46266 1.38533,4.67732 2.06533,7.04932 1.504,5.23598 -1.12933,10.64664 -3.25733,15.66263 -5.63731,13.2893 -8.06531,27.70926 -9.67864,42.05456 4.69466,-11.72797 5.19066,-24.83727 10.15598,-36.45325 2.92399,-6.83998 7.47331,-13.85063 5.79732,-21.09861 -0.58267,-2.52133 -1.91867,-4.94665 -1.696,-7.52398 0.24933,-2.87333 2.35733,-5.18532 3.64666,-7.76531 2.66666,-5.33599 1.76799,-11.70931 0.41066,-17.51729 -0.71733,-3.06933 -1.53866,-6.12266 -1.99999,-9.24531 -0.45733,-3.09733 0.0827,-6.04532 -0.10134,-9.09065 -0.28533,-4.723986 -1.44133,-9.626641 -3.03599,-14.07463 -1,-2.787993 -1.96799,-5.673319 -3.16399,-8.361312 -0.944,-2.122661 -1.82666,-4.267989 -2.78399,-6.383984 -0.80533,-1.777329 -2.03066,-3.389325 -2.62533,-5.271987 -0.66,-2.086661 -1.20133,-4.086656 -2.27866,-6.010651 -0.428,-0.762665 -1.15866,-1.171998 -1.65866,-1.839996 -0.50667,-0.674665 -0.77333,-1.47333 -1.35067,-2.135995 -1.16933,-1.343996 -2.63999,-2.383994 -4.01999,-3.497324 -3.46932,-2.799993 -7.21998,-5.065321 -10.67597,-7.843981 -1.74533,-1.403996 -3.47866,-2.845326 -5.39332,-4.015989 -5.43199,-3.321326 -11.2253,-6.055985 -17.24529,-8.130647 -1.99866,-0.687998 -4.02132,-1.302663 -6.06532,-1.842662 -0.97466,-0.257333 -1.97866,-0.438665 -2.94932,-0.691998 -0.97333,-0.252 -1.90267,-0.630665 -2.89333,-0.839998 -1.90933,-0.403999 -3.82399,-0.789331 -5.75199,-1.085331 -0.96666,-0.147999 -1.93732,-0.273332 -2.91065,-0.366665 -0.43334,-0.04133 -0.90267,-0.02533 -1.30933,-0.164 -0.34134,-0.117333 -0.64134,-0.249333 -1.016,-0.325333 -0.98933,-0.201332 -1.964,-0.319999 -2.97466,-0.474665 -0.77067,-0.117333 -1.552,-0.09333 -2.32933,-0.174666 -1.47733,-0.154667 -3.00666,-0.134667 -4.47065,-0.339999 -1.24933,-0.174667 -2.38533,-0.096 -3.65733,0.0093 -2.93732,0.243999 -9.93731,-3.197325 -12.42663,-2.061328 -14.84397,6.766649 -29.7146,20.374615 -40.50124,34.107914 -3.43465,4.374656 -12.13997,4.539989 -13.98263,9.934642 -1.96133,5.743986 -2.50933,12.213303 -3.14799,18.218621 -0.424,3.982657 0.84266,8.431979 1.084,12.479974 0.27733,4.65199 0.44666,9.30797 0.76933,13.95596 0.64666,9.32265 1.89066,18.76396 5.76398,27.35993 1.97733,4.38799 4.61333,8.49998 6.04266,13.09464 0.75733,2.43066 1.17733,4.99999 2.39999,7.23331 1.22133,2.23467 3.53866,4.13066 6.07198,3.88266 0.29867,-1.97733 -0.93733,-3.81332 -1.92799,-5.55065 -2.16933,-3.80399 -3.35599,-8.07065 -4.87999,-12.17597 -3.25999,-8.77865 -8.14664,-17.03729 -9.86531,-26.24127 -1.60533,-8.59864 -0.33466,-17.44929 -0.67333,-26.18927 -0.21867,-5.623986 -1.10133,-11.295972 -0.16,-16.843958 1.60933,-9.470643 12.61997,-13.3733 18.96262,-20.387949 5.88265,-6.507984 12.65864,-12.215969 19.16529,-17.790622 5.85998,-5.021321 15.85862,-8.373312 23.91727,-9.553309 2.26933,-0.332 4.55999,-0.553332 6.85598,-0.473333 0.79067,0.028 1.57733,-0.123999 2.36266,-0.072 1.07067,0.07067 2.17733,0.155999 3.24133,0.307999 0.868,0.125333 1.68799,0.151999 2.56666,0.147999 0.636,-0.0027 1.264,-0.072 1.90533,-0.04667 1.27333,0.052 2.53199,0.271999 3.80799,0.274666 1.29466,0.004 2.60799,-0.0093 3.88265,0.253333 0.96134,0.197332 1.89467,0.517332 2.84133,0.762664 1.72266,0.445333 3.49599,0.654665 5.21599,1.145331 2.16799,0.618665 4.25732,1.467996 6.41598,2.109328 2.20533,0.655998 4.37866,1.423996 6.51332,2.281327 5.63065,2.263995 10.82397,5.510653 15.61329,9.215977 1.004,0.775999 1.95733,1.61333 2.932,2.423994 -0.036,-0.0013 -0.0733,0 -0.108,-0.0013 -3.19733,-0.190666 -6.43732,-1.282663 -9.15731,-3.107992 -2.14,-1.43733 -3.184,-4.24799 -5.25999,-5.795986 -3.06133,-2.282661 -8.43065,-1.874662 -12.25597,-1.874662 -4.45732,0 -8.79731,-0.502665 -12.7453,1.499997 -2.692,1.366663 -5.12932,3.518657 -7.81065,5.16132 -3.44266,2.110661 -7.03865,3.673324 -11.0613,4.214656 -4.58666,0.617332 -11.00931,-2.777326 -15.15063,-2.577327 -5.67599,0.272 -8.46265,5.29332 -10.06131,11.417305 -0.836,3.197325 -3.14133,4.851988 -2.96799,8.026647 2.02266,-4.02399 4.90398,-9.603976 7.78398,-13.102634 2.59866,-3.158659 8.31864,-1.935995 12.14397,-1.683996 4.78132,0.313333 7.71198,-0.346666 12.3173,-1.471996 2.74132,-0.669332 5.93998,-1.394664 8.48931,-2.701327 2.34533,-1.20133 4.30132,-3.201325 6.73732,-4.389322 4.60932,-2.249328 14.99196,-3.815991 20.13461,-1.771996 2.58666,1.026664 3.304,3.837324 5.39466,5.502653 1.88799,1.50533 4.44265,3.003993 6.98265,3.913324 1.03999,0.371999 2.07866,0.646665 3.06799,0.779998 1.33466,0.181333 2.81332,0.225332 4.15332,0.06667 1.01067,-0.12 1.732,-0.410665 2.73333,-0.02267 1.74533,0.678664 3.07866,2.31466 4.39199,3.581324 0.84666,0.817331 1.83866,1.557329 2.60666,2.422661 1.03066,1.162663 1.56933,2.702659 2.52266,3.910656 1.83333,2.323995 2.96666,4.989321 3.87599,7.786648"
     style="clip-rule:evenodd;fill:#000000;fill-rule:nonzero;stroke-width:1.33333;stroke-linejoin:round;stroke-miterlimit:2"
     id="path12" /><path
     d="m 301.61258,143.28764 c 0.0973,-0.4 0.18933,-0.80133 0.25067,-1.21866 0.19199,-1.316 0.41066,-2.66533 0.63599,-3.94266 -2.27866,-0.44533 -4.78932,-0.9 -6.76131,-2.08399 1.01866,0.39066 2.11333,0.56266 3.19866,0.61733 0.96266,0.0493 2.37732,0.18533 3.27999,-0.19333 0.98266,-0.412 1.93199,-1.08267 2.92132,-1.53067 2.42133,-1.09733 4.87066,-1.57866 7.28399,-2.61999 2.98532,-1.28666 5.89731,-2.76666 9.18664,-3.08133 6.92132,-0.66133 8.70531,5.05999 8.37065,10.73198 -0.0827,1.39333 -0.96534,2.40799 -1.81733,3.43465 -0.59067,0.712 -1.508,1.488 -2.40533,1.79333 -2.048,0.696 -4.74266,0.716 -6.87332,0.59067 0.11334,0.007 1.11867,-5.25599 1.03733,-5.79732 -0.28933,-1.90933 -1.73999,-2.98666 -3.65332,-3.31733 -1.472,-0.25599 -2.98133,-0.12133 -4.46799,0.028 -3.79866,0.38134 -6.27198,2.10133 -8.31465,5.34532 -0.52266,0.83067 -1.23333,1.572 -0.47466,2.372 0.624,0.66 2.06133,1.07866 2.85733,1.432 2.66532,1.18266 5.51731,2.25599 8.24797,3.00932 1.26133,0.348 2.77466,0.81333 4.06533,0.516 0.656,-0.15067 1.19999,-0.628 1.83333,-0.75866 0.13333,1.16933 -1.328,2.61199 -2.32133,3.10265 -1.51733,0.752 -4.28932,1.12667 -5.93999,0.672 -1.34266,-0.37066 -2.66932,-1.28266 -3.87732,-2.01066 -1.10533,-0.66666 -2.21333,-1.22533 -3.38666,-1.78799 -1.38933,-0.66667 -3.30932,-0.796 -3.30932,-2.708 0,-0.92133 0.228,-1.75199 0.43333,-2.59466"
     style="clip-rule:evenodd;opacity:0.2;fill:#000000;fill-rule:nonzero;stroke-width:1.33333;stroke-linejoin:round;stroke-miterlimit:2"
     id="path15" /><path
     d="m 301.71791,143.28178 c -0.132,-1.63733 0.54267,-3.804 0.78133,-5.15733 -2.27999,-0.44399 -4.78932,-0.89866 -6.76265,-2.08266 1.02,0.39067 2.11467,0.56267 3.2,0.61734 0.96266,0.0493 2.37732,0.18533 3.27999,-0.19334 0.98266,-0.412 1.93199,-1.084 2.92132,-1.53199 2.42133,-1.096 4.87066,-1.57733 7.28399,-2.61866 2.98532,-1.288 5.89731,-2.76666 9.18664,-3.08133 5.13732,-0.49067 10.60264,5.09732 7.66798,10.34664 -2.45199,-4.30399 -7.65598,-4.29065 -12.01064,-4.08132 -3.48665,0.168 -10.2013,1.06933 -12.45597,3.98132 -1.17066,1.51333 -1.18799,3.77333 -2.78266,4.98932 -0.17866,-0.34 -0.27333,-0.744 -0.30933,-1.18799"
     style="clip-rule:evenodd;opacity:0.2;fill:#000000;fill-rule:nonzero;stroke-width:1.33333;stroke-linejoin:round;stroke-miterlimit:2"
     id="path17" /><path
     d="m 287.74461,158.57294 c 0.0773,0.052 0.14,0.116 0.19067,0.188 -0.0467,-0.0773 -0.11067,-0.14267 -0.19067,-0.188"
     style="clip-rule:evenodd;opacity:0.2;fill:#000000;fill-rule:nonzero;stroke-width:1.33333;stroke-linejoin:round;stroke-miterlimit:2"
     id="path19" /><path
     d="m 280.92463,136.70232 c -0.17733,-0.076 -0.35066,-0.16399 -0.52,-0.26933 -1.032,-0.63733 -2.21466,-1.04666 -3.27199,-1.66399 -2.25733,-1.31467 -3.44666,-3.41066 -5.45332,-4.87599 -2.71066,-1.97733 -6.38532,-3.22399 -9.75597,-3.25599 -6.60265,-0.064 -11.27731,1.74533 -17.1213,4.75598 -5.59331,2.88133 -11.08263,6.20266 -17.27195,7.65199 -0.62533,2.91066 7.53731,3.00132 9.29464,3.49465 3.52533,0.99067 5.77599,3.076 8.66265,4.98532 3.26532,2.16 8.18131,3.3 12.01597,3.72266 4.05999,0.44667 8.38398,0.51467 12.4173,-0.164 4.19999,-0.70533 8.53598,-3.50799 10.93464,-7.01598 0.364,-0.532 0.69466,-1.06666 1.048,-1.61866 0.39066,-0.60933 0.87599,-1.04533 1.39999,-1.51733 0.63867,-0.57333 1.132,-1.292 1.796,-1.84533 0.81333,-0.67867 1.91599,-1.00533 2.92666,-1.31733 0.83866,-0.25733 1.78799,-0.56133 2.63199,-0.716 1.37466,-0.252 2.77999,-0.168 4.13999,-0.52933 -0.32267,-0.144 -0.53333,-0.31467 -0.876,-0.37067 -0.80533,-0.132 -1.78933,-0.0413 -2.60666,0 -1.36666,0.0693 -2.79599,0.52933 -4.04532,1.06667 -1.13467,0.488 -2.00133,0.26 -3.28533,0.0747 -1.05066,-0.15066 -2.10532,-0.184 -3.05999,-0.592"
     style="clip-rule:evenodd;opacity:0.2;fill:#000000;fill-rule:nonzero;stroke-width:1.33333;stroke-linejoin:round;stroke-miterlimit:2"
     id="path21" /><path
     d="m 280.92463,136.70259 c -0.17733,-0.076 -0.35066,-0.164 -0.52,-0.26933 -1.032,-0.63733 -2.21466,-1.04667 -3.27199,-1.664 -2.25733,-1.31466 -3.44666,-3.41066 -5.45332,-4.87598 -2.71066,-1.97733 -6.38532,-3.224 -9.75597,-3.256 -2.848,-0.028 -5.67732,0.32267 -8.41865,1.1 -1.03333,0.29333 -2.41066,0.48667 -3.35733,0.96133 -0.34933,0.176 -2.31199,2.156 -2.26399,2.16 2.01333,0.16 7.83998,-0.668 8.70131,1.79466 0.82267,2.35199 -3.67599,3.31999 -5.13999,3.84799 6.07599,-0.81467 14.44664,-0.82267 20.21729,1.236 2.51599,0.89733 4.24532,3.35065 6.73465,4.34398 3.27466,1.30667 4.39465,-1.06933 6.70265,-2.99465 0.81333,-0.67867 1.91599,-1.00534 2.92666,-1.31733 0.83866,-0.25734 1.78799,-0.56134 2.63199,-0.716 1.37466,-0.252 2.77999,-0.168 4.13999,-0.52933 -0.32267,-0.144 -0.53333,-0.31467 -0.876,-0.37067 -0.80533,-0.132 -1.78933,-0.0413 -2.60666,0 -1.36666,0.0693 -2.79599,0.52933 -4.04532,1.06666 -1.13467,0.488 -2.00133,0.26 -3.28533,0.0747 -1.05066,-0.15067 -2.10532,-0.184 -3.05999,-0.592"
     style="clip-rule:evenodd;opacity:0.2;fill:#000000;fill-rule:nonzero;stroke-width:1.33333;stroke-linejoin:round;stroke-miterlimit:2"
     id="path23" /><path
     d="m 277.66464,147.12897 c 0,0 -6.45198,3.99599 -13.17197,4.63865 0,0 9.82798,1.596 13.17197,-4.63865"
     style="clip-rule:evenodd;fill:#000000;fill-rule:nonzero;stroke-width:1.33333;stroke-linejoin:round;stroke-miterlimit:2"
     id="path39" /><path
     d="m 304.9539,146.97297 c 0,0 2.79733,3.40132 8.58265,3.97332 0,0 -3.84666,0.25467 -5.78532,-0.85867 -1.93866,-1.11199 -2.79733,-3.11465 -2.79733,-3.11465"
     style="clip-rule:evenodd;fill:#000000;fill-rule:nonzero;stroke-width:1.33333;stroke-linejoin:round;stroke-miterlimit:2"
     id="path40" /><path
     d="m 316.61121,78.753536 c 0.16266,0.136 0.32666,0.273333 0.46533,0.414666 -0.13333,-0.149333 -0.29467,-0.285333 -0.46533,-0.414666"
     style="clip-rule:evenodd;opacity:0.2;fill:#000000;fill-rule:nonzero;stroke-width:1.33333;stroke-linejoin:round;stroke-miterlimit:2"
     id="path41" /><path
     d="m 218.87412,213.10347 c 9.93597,6.89465 21.81061,12.94663 30.92259,19.08395 2.54399,1.71333 4.25332,2.83333 2.69333,5.78132 -0.53067,1.004 -1.368,1.88666 -1.68933,2.99866 -0.0973,0.33733 -0.084,3.41199 0.11733,3.25332 1.52,-1.19199 3.34266,-2.93466 5.07465,-3.82932 2.32133,-1.19866 2.756,-1.076 5.21732,-0.568 2.89866,0.6 2.392,2.22666 3.79466,4.59332 2.69866,4.55466 9.73864,7.28265 14.72263,8.04665 3.69732,0.56666 7.58265,-0.55333 10.68131,-2.85866 1.41199,-1.052 2.74532,-2.36133 3.67599,-3.85999 1.48133,-2.38666 2.64132,-4.25066 3.14532,-7.00398 0.26267,-1.42933 -0.009,-2.884 0.32667,-4.29999 0.31467,-1.32533 1.14,-2.43066 1.95999,-3.50399 1.848,-2.41866 3.87333,-4.74666 6.02666,-6.89999 2.81866,-2.81732 6.79865,-5.56265 8.09064,-9.40131 0.83733,-2.48799 0.93067,-5.00265 1.508,-7.51598 0.52533,-2.28399 1.13333,-4.51332 1.11066,-6.88131 -0.003,-0.23467 -0.012,-0.47467 -0.028,-0.72134 -0.13066,-1.97866 -0.15466,-4.26132 -0.29333,-6.39731 -0.0653,-1.00533 -0.0587,-2.06266 -0.29333,-3.008 -0.23734,-0.95999 -0.428,-1.94666 -0.584,-2.93599 -0.26533,-1.69199 0.0347,-2.77599 1.00133,-4.17599 0.34667,-0.50133 0.82133,-0.948 1.12266,-1.47999 0.38,-0.66934 0.63467,-1.55467 0.86133,-2.284 0.45734,-1.47733 0.832,-2.96399 1.23334,-4.44932 0.25866,-0.956 0.63066,-1.932 0.66799,-2.90799 -0.70533,1.10133 -1.04266,2.38532 -1.82933,3.47199 -0.93599,1.29333 -2.12132,2.37333 -3.02132,3.68799 -0.668,0.97333 -1.27066,2.01599 -1.728,3.10132 -0.85866,2.03333 -0.44,3.91466 0.25734,5.71199 0.69999,1.804 1.25333,3.88399 1.08533,5.95599 -0.576,7.12131 -1.48133,14.98262 -4.00399,21.13861 -2.15866,5.26799 -7.75865,6.94665 -11.78531,10.67064 -1.74933,1.61733 -2.83999,3.41332 -3.59732,5.59999 -0.86,2.48132 -0.86667,5.14665 -1.94933,7.57198 -1.29466,2.89999 -3.03599,6.18398 -5.79332,7.98931 -3.38532,2.21466 -8.72931,2.31333 -12.4013,1.39066 -1.83333,-0.46 -3.65999,-1.49733 -5.06132,-2.69466 -1.788,-1.53066 -2.32933,-4.05732 -3.54133,-5.99732 -1.01733,-1.63199 -2.06266,-3.22932 -3.19332,-4.76398 -0.79067,-1.07333 -1.62266,-2.11333 -2.51866,-3.11333 -1.09733,-1.22266 -2.26133,-2.27866 -3.63866,-3.20132 0.92933,0.62266 1.69466,4.69598 1.792,5.75465 0.0307,0.332 0.032,0.70266 -0.192,0.948 -0.30534,0.33333 -0.84667,0.25466 -1.26933,0.0973 -2.29333,-0.85733 -3.68533,-3.11733 -5.27866,-4.97732 -5.60798,-6.55065 -16.07329,-9.69331 -24.2226,-13.99997 -5.26399,-2.78132 -10.43598,-5.98265 -14.6453,-10.02531 -4.15466,-3.98932 -6.47065,-9.75197 -11.19597,-13.1893 0.472,0.34267 1.20399,2.504 1.59466,3.09466 1.756,2.66133 2.80799,5.42266 4.87199,7.97598 2.03733,2.52266 4.51599,4.79466 7.18265,6.83332 0.98799,0.75466 1.99333,1.484 3.01599,2.19333"
     style="clip-rule:evenodd;fill:#000000;fill-rule:nonzero;stroke-width:1.33333;stroke-linejoin:round;stroke-miterlimit:2"
     id="path45" /><path
     d="m 273.62598,132.66234 c -0.52666,-0.388 -0.97066,-0.9 -1.54533,-1.22534 -0.99199,-0.56266 -2.00666,-1.06399 -3.04932,-1.53866 1.00666,0.18933 2.36266,0.42 3.26799,0.89467 0.30133,0.15866 0.53066,0.43866 0.80266,0.63066 0.36667,0.25867 0.772,0.44267 1.13333,0.71733 1.26267,0.956 2.53333,1.796 3.93599,2.54266 1.988,1.056 4.26266,1.37467 6.46266,1.68533 1.59732,0.22667 3.29999,0.22667 4.90665,0.0147 -0.272,0.036 -0.74,0.504 -1.05866,0.608 -2.32533,0.756 -4.96933,0.552 -7.32665,0.005 -1.44,-0.33333 -2.84933,-0.84533 -4.12933,-1.592 -1.29733,-0.75466 -2.21866,-1.87332 -3.39999,-2.74265"
     style="clip-rule:evenodd;fill:#000000;fill-rule:nonzero;stroke-width:1.33333;stroke-linejoin:round;stroke-miterlimit:2"
     id="path54" /><path
     d="m 255.83187,128.02681 c -3.97055,-0.37002 -8.74867,1.3742 -12.19552,3.27692 -2.00175,1.10351 -6.12198,3.30077 -6.6992,5.64978 5.56472,-5.43232 16.55572,-7.35714 23.83028,-8.262 -2.42444,-0.61826 -5.66449,0.0616 -4.93556,-0.6647"
     style="clip-rule:evenodd;fill:#000000;fill-rule:nonzero;stroke-width:1.33333;stroke-linejoin:round;stroke-miterlimit:2"
     id="path55" /><path
     d="m 231.75009,111.41132 c 1.05599,-2.35466 -0.87733,-4.56265 -1.544,-6.73465 -1.04266,-3.39066 -1.53466,-7.822645 -1.61199,-11.438636 -0.128,-6.098652 3.48665,-10.167975 8.69731,-12.745302 -1.69867,2.379994 -4.73732,4.326656 -6.03865,6.975983 -1.24,2.52266 -0.80534,6.245317 -0.67334,9.167977 0.20134,4.502658 2.91333,9.151978 1.17067,14.774628"
     style="clip-rule:evenodd;fill:#000000;fill-rule:nonzero;stroke-width:1.33333;stroke-linejoin:round;stroke-miterlimit:2"
     id="path56" /><path
     d="m 224.43011,66.028235 c -3.19066,3.146659 -7.89198,12.426636 -4.08533,16.591958 -0.0747,-6.465317 2.08266,-10.833306 5.22666,-16.261292 -0.49867,-0.194666 -0.41334,0.153333 -1.14133,-0.330666"
     style="clip-rule:evenodd;fill:#000000;fill-rule:nonzero;stroke-width:1.33333;stroke-linejoin:round;stroke-miterlimit:2"
     id="path57" /><path
     d="m 230.87142,63.685841 c 4.72932,-6.414651 13.77597,-2.717327 19.70929,-0.579999 6.01198,2.165328 13.97996,0.745332 18.02529,-4.587988 -2.292,4.439989 -7.87065,8.315979 -12.98264,7.814647 -2.90799,-0.286666 -6.21332,-2.221328 -9.09064,-3.199992 -3.21866,-1.094664 -12.33864,-5.113321 -15.6613,0.553332"
     style="clip-rule:evenodd;fill:#000000;fill-rule:nonzero;stroke-width:1.33333;stroke-linejoin:round;stroke-miterlimit:2"
     id="path58" /><path
     d="m 260.73577,49.338874 c -1.6884,1.378029 -2.90563,3.492146 -4.68305,4.834163 -1.23097,0.928399 -2.70941,1.476985 -3.77763,2.44128 3.99583,-1.471806 10.14221,-4.168647 11.64416,-8.393371 -1.12032,0.03664 -2.05093,0.592453 -2.88885,1.411471"
     style="clip-rule:evenodd;fill:#000000;fill-rule:nonzero;stroke-width:1.33333;stroke-linejoin:round;stroke-miterlimit:2"
     id="path59" /><path
     d="m 290.26327,97.733622 c 0.36934,1.611996 0.58134,3.781328 1.45467,5.198658 0.57733,0.93733 2.18266,1.34799 2.50532,2.42266 0.45734,1.52533 -0.85599,2.75732 -0.81599,4.34665 0.112,4.34132 2.68532,7.85598 1.22799,12.51064 -0.86533,-2.20133 -1.30399,-4.58399 -1.41466,-6.94265 -0.0493,-1.06533 0.0267,-1.92133 -0.32267,-2.88533 -0.41466,-1.14266 -0.80533,-2.24266 -1.35199,-3.33599 -0.61733,-1.23733 -1.484,-1.19066 -2.56,-1.91066 -0.61466,-0.41067 -1.57199,-1.196 -1.69332,-1.98266 -0.128,-0.82667 0.77599,-1.19333 0.97999,-1.988 0.504,-1.96666 0.324,-3.918655 0.59067,-5.895983 0.24133,-1.777329 0.088,-3.441325 -0.32267,-5.21332 -0.204,-0.882665 -0.50933,-1.71733 -0.60133,-2.602661 -0.12133,-1.179997 -0.0787,-2.341327 -0.32667,-3.513324 -0.22533,-1.057331 -0.90399,-1.30933 -1.41866,-2.195995 -0.43733,-0.747998 -0.24133,-2.118661 -0.37066,-3.011992 -0.16934,-1.159997 -0.52267,-2.178661 -0.97334,-3.251992 -0.78799,-1.878662 -2.10532,-3.070659 -3.61199,-4.381322 -1.90932,-1.66133 -5.14398,-1.931996 -6.49065,-3.009326 3.12933,-0.397333 6.51199,0.774665 9.07331,2.525327 1.47333,1.007997 2.092,1.841329 2.63066,3.522658 0.47734,1.486663 0.89333,3.145325 2.09067,4.238656 0.94133,0.858664 2.36666,1.541329 1.70266,2.817326 -0.63467,1.21733 -1.056,2.041328 -1.224,3.418658 -0.456,3.733324 0.404,7.463981 1.24266,11.119972"
     style="clip-rule:evenodd;fill:#000000;fill-rule:nonzero;stroke-width:1.33333;stroke-linejoin:round;stroke-miterlimit:2"
     id="path60" /><path
     d="m 246.68205,61.636379 c 4.75865,0 12.44664,0.198666 14.87996,-4.874654 -1.21333,2.879993 -2.76132,6.806649 -6.23198,7.521314 -2.65333,0.545332 -7.82932,-1.395996 -8.64798,-2.64666"
     style="clip-rule:evenodd;opacity:0.2;fill:#000000;fill-rule:nonzero;stroke-width:1.33333;stroke-linejoin:round;stroke-miterlimit:2"
     id="path61" /><path
     d="m 256.63757,46.118373 c -1.53053,4.090279 -5.6795,6.036715 -8.38859,9.164554 3.28912,1.272564 7.81595,0.403668 10.58071,-1.541501 3.87605,-2.726727 2.18123,-4.857312 3.33091,-8.457937 -1.91872,-0.467958 -3.05115,0.577732 -5.52303,0.834884"
     style="clip-rule:evenodd;opacity:0.2;fill:#000000;fill-rule:nonzero;stroke-width:1.33333;stroke-linejoin:round;stroke-miterlimit:2"
     id="path63" /><path
     d="m 182.64088,54.267598 c -1.03733,0.016 -2.076,0.04133 -3.11066,0.04933 1.17999,0 2.18133,0.0027 3.11066,-0.04933"
     style="clip-rule:evenodd;fill:#7d7d7d;fill-rule:nonzero;stroke-width:1.33333;stroke-linejoin:round;stroke-miterlimit:2"
     id="path65" /><path
     d="m 199.4835,42.675493 c -0.42933,0.04933 -0.86133,0.104 -1.288,0.146667 0.43334,-0.02267 0.86134,-0.07867 1.288,-0.146667"
     style="clip-rule:evenodd;fill:#7d7d7d;fill-rule:nonzero;stroke-width:1.33333;stroke-linejoin:round;stroke-miterlimit:2"
     id="path66" /><path
     d="m 239.64873,35.455511 c -0.78399,-0.303999 -1.53866,-0.527998 -2.17732,-0.581332 0.488,0.206667 1.30133,0.417333 2.17732,0.581332"
     style="clip-rule:evenodd;fill:#7d7d7d;fill-rule:nonzero;stroke-width:1.33333;stroke-linejoin:round;stroke-miterlimit:2"
     id="path67" /><path
     d="m 273.58065,34.208181 c -1.60266,0.1 -3.21199,0.281333 -4.84266,0.423999 -4.07065,0.355999 -7.40264,1.741329 -10.47464,4.611989 -1.31333,1.226663 -2.18399,2.553327 -2.24132,4.377322 -0.0627,2.001328 0.79999,2.809326 1.53866,4.487989 0.14133,0.319999 0.36667,0.594665 0.36933,0.971997 -0.18266,-0.07467 -0.32933,-0.266666 -0.48533,-0.399999 -0.50667,-0.431999 -1.02133,-0.855998 -1.512,-1.311996 -0.268,-0.248 -0.53466,-0.601332 -0.83733,-0.781332 0.66133,1.743996 2.19733,3.166659 3.43199,4.374656 0.86667,0.846664 1.88133,1.518663 2.62666,2.515994 0.34667,0.463998 0.508,1.006664 0.84,1.486663 0.416,0.601331 0.83467,1.199997 1.25467,1.798662 1.99332,2.839993 3.30932,6.113318 5.53331,8.567978 0.948,1.043998 2.52933,2.167995 2.476,3.918657 0.25866,-0.213333 0.52666,-0.409332 0.812,-0.549332 0.17066,0.462666 0.476,0.846665 0.61066,1.306664 0.276,-0.249333 0.56667,-0.719999 0.80533,-0.258666 0.21734,-0.08133 0.33467,-0.01067 0.49867,-0.285333 0.028,0.238666 0.18133,0.474665 0.23733,0.703998 0.052,-0.09867 0.144,-0.155999 0.18933,-0.322666 0.17067,0.429333 0.41467,0.781332 0.54,1.226664 0.0573,-0.270666 0.21467,-0.474665 0.33334,-0.702665 0.0493,0.102666 0.13066,0.168 0.17999,0.285333 0.392,-0.309333 0.60934,0.072 0.81067,0.497332 0.0733,-0.088 0.25467,-0.141333 0.32667,-0.225333 0.11466,0.156 0.26133,0.261333 0.32533,0.446666 0.23866,0.08133 0.428,0.421332 0.66133,0.659998 0.104,-0.158666 0.36933,-0.278666 0.48133,-0.427999 0.16133,0.286666 0.30133,0.673332 0.43467,1.005331 0.0827,-0.145333 0.30266,-0.256 0.38266,-0.410666 0.19067,0.174666 0.36934,0.375999 0.52933,0.593332 0.044,-0.05733 0.15867,-0.133333 0.22134,-0.231999 0.204,0.217332 0.39733,0.481332 0.62666,0.642665 0.19067,-0.201333 0.43467,-0.371999 0.664,-0.473332 0.06,0.254666 0.24133,0.446665 0.37333,0.646665 0.116,-0.138667 0.32267,-0.176 0.44134,-0.3 0.33466,0.323999 0.42666,0.845332 0.75066,1.199997 0.0547,-0.072 0.156,-0.119999 0.21867,-0.235999 0.57333,0.558665 1.13999,1.765329 2.11199,1.39333 0.788,-0.301333 1.30266,-2.037328 1.57733,-2.79466 0.404,-1.110664 1.10933,-1.957328 1.58266,-3.041326 0.31867,-0.729331 0.904,-1.437329 1.06933,-2.207994 -0.34933,0.084 -0.66399,0.466665 -1.00133,0.638665 0.068,-0.741332 0.81467,-1.586663 1.1,-2.291994 0.48533,-1.199997 0.81733,-2.515994 1.14266,-3.793324 0.452,-1.778662 1.02667,-3.571991 1.48267,-5.303987 -0.21334,0.295999 -0.52133,0.526665 -0.79733,0.702665 0.244,-1.111997 0.80666,-2.215994 1.18666,-3.277325 0.60533,-1.689329 1.78,-3.609324 1.93733,-5.39732 -0.35067,0.369332 -0.94533,1.070664 -1.44266,1.027997 -0.012,-1.250663 0.54666,-2.399994 0.68266,-3.609324 0.36133,-3.217325 -0.70666,-5.561319 -3.46266,-7.293315 -2.76132,-1.734662 -6.09998,-3.363992 -9.26131,-4.130656 -2.36266,-0.573332 -4.69465,-0.601332 -7.03998,-0.454666"
     style="clip-rule:evenodd;fill:#000000;fill-rule:nonzero;stroke-width:1.33333;stroke-linejoin:round;stroke-miterlimit:2"
     id="path68" /><path
     d="m 271.42865,66.079968 c -0.41199,-0.522665 -0.90399,-0.859998 -1.42799,-1.226663 -0.18267,-0.128 -0.396,-0.230667 -0.572,-0.372 -0.38267,-0.307999 -0.68933,-0.798664 -1.00533,-1.191997 -0.37333,-0.463998 -0.73333,-0.929331 -1.08267,-1.418663 -0.43733,-0.613331 -0.93466,-1.203997 -1.41732,-1.775995 -0.26134,-0.309333 -0.72934,-0.729332 -0.8,-1.173331 0.49733,0.399999 1.01733,0.797332 1.47999,1.239997 -0.29066,-0.901331 -0.80933,-1.513329 -1.39866,-2.170661 -2.84533,-3.181325 -4.83065,-6.919983 -3.34399,-11.250639 1.456,-4.243989 6.05998,-6.59865 9.85731,-8.365312 2.53332,-1.178664 4.84932,-1.653329 7.64131,-1.450663 3.29066,0.239999 7.34132,0.334666 10.27731,1.874662 1.86799,0.978664 2.85466,3.393325 2.38799,5.342653 0.18,-0.191999 0.388,-0.487998 0.42534,-0.758664 0.16133,0.437332 -0.028,1.274663 -0.104,1.706662 -0.0893,0.510665 -0.304,1.033331 -0.388,1.539996 0.29333,-0.505332 0.55333,-1.051997 0.81333,-1.574663 -0.088,0.901331 -0.41333,1.763996 -0.69333,2.623994 -0.21867,0.670665 -0.71067,1.457329 -0.748,2.150661 -0.007,0.105333 0.003,1.25733 0.012,1.258664 l 0.59333,0.04933 c -0.0787,0.178666 -0.15867,0.358666 -0.23867,0.535998 -0.37466,0.833332 -0.62266,1.634663 -0.89333,2.506661 -0.104,0.333332 -0.29866,0.649332 -0.376,0.978664 0.27467,-0.382666 0.51734,-0.794665 0.77734,-1.186664 -0.0973,0.573332 -0.3,1.146664 -0.46534,1.707996 -0.28933,0.983998 -0.59333,1.959995 -0.92399,2.926659 -0.248,0.727999 -0.76134,1.455997 -0.912,2.211995 0.48533,-0.929331 1.22666,-1.673329 1.74399,-2.555994 -0.016,0.317333 -0.13733,0.658665 -0.22533,0.957331 -0.21733,0.739998 -0.44,1.51733 -0.71466,2.230661 -0.23067,0.597332 -0.43867,1.201331 -0.656,1.799996 -0.36267,1.006664 -0.756,1.997328 -1.104,3.010659 -0.21467,0.623998 -0.57067,1.171997 -0.85866,1.735996 0.12,-0.110667 0.26399,-0.177333 0.37066,-0.306666 0.0373,0.598665 -0.5,1.098664 -0.72133,1.589329 0.168,-0.112 0.37467,-0.337332 0.58267,-0.315999 0.15066,0.01467 -0.13467,0.889331 -0.19734,0.986664 -0.18933,0.298666 -0.48133,0.509332 -0.73466,0.733332 -0.13067,0.114666 -0.27334,0.223999 -0.404,0.335999 -0.248,0.210666 -0.696,0.407999 -0.84933,0.686665 0.12,-0.311999 0.28666,-0.721332 0.3,-1.071998 -0.29467,0.218667 -0.744,0.378666 -0.98533,0.677332 0.148,-0.473332 0.22399,-0.971998 0.23999,-1.46933 -0.44399,0.534666 -1.00933,0.987998 -1.59466,1.331997 0.168,-0.463999 0.38,-0.950664 0.5,-1.45733 -0.32133,0.755998 -1.004,1.167997 -1.55066,1.693329 0.34533,-0.669331 0.756,-1.310663 0.9,-2.083994 -0.452,0.539998 -1.03867,0.902664 -1.496,1.423996 0.068,-0.345332 0.18,-0.683998 0.248,-1.025331 -0.224,0.122667 -0.42533,0.481332 -0.61733,0.674665 -0.29067,0.290666 -0.604,0.554666 -0.88933,0.847998 0.70933,-1.462663 0.99066,-3.011992 1.26933,-4.670655 -0.284,0.778665 -0.83067,1.46933 -1.26933,2.137328 -0.364,0.557332 -0.69467,1.134664 -1.04933,1.698663 0.10666,-0.671999 0.12933,-1.42533 0.35199,-2.071995 -0.24266,0.433332 -0.58666,0.799998 -0.77866,1.274663 0.0347,-0.631998 0.096,-1.23733 0.22,-1.865328 -0.32,0.891997 -0.9,1.679995 -1.41333,2.45066 -0.0707,-0.145333 -0.076,-0.350666 -0.0827,-0.522665 -0.04,0.139999 -0.15333,0.357332 -0.256,0.439999 -0.0253,-0.505332 0.032,-1.009331 0.024,-1.51333 -0.0147,0.391999 -0.0707,1.071997 -0.29333,1.38933 -0.152,-0.495999 -0.18133,-1.031997 -0.29866,-1.535996 -0.0627,0.326666 -0.224,0.889331 -0.49734,1.073331 -0.048,-0.277333 -0.156,-0.557332 -0.21866,-0.825332 -0.17734,0.319999 -0.37067,0.657332 -0.58933,0.942665 -0.10667,-0.217333 -0.0773,-0.490666 -0.12267,-0.735999 -0.0307,0.197333 -0.096,0.522666 -0.23333,0.643999 -0.0813,-0.397333 -0.11067,-0.793332 -0.14534,-1.198664 -0.0907,0.261333 -0.19733,0.525332 -0.33866,0.770665 -0.12134,-0.442666 -0.18934,-0.978664 -0.21067,-1.451997 -0.13867,0.369333 -0.16533,0.979998 -0.48,1.222664 -0.15333,-0.333332 -0.10933,-0.794665 -0.13866,-1.163997 -0.132,0.311999 -0.272,0.731998 -0.46667,1.014664 -0.0347,-0.202666 -0.10533,-0.421332 -0.16267,-0.613332 -0.0973,0.137333 -0.19066,0.282666 -0.28933,0.421333 -0.23866,-0.306666 -0.31866,-0.882665 -0.48266,-1.254664 -0.0733,0.076 -0.13067,0.169333 -0.16,0.277333 -0.088,-0.250666 -0.0667,-0.550666 -0.15734,-0.791998 -0.0947,-0.253333 -0.33066,-0.505332 -0.492,-0.709332"
     style="clip-rule:evenodd;fill:#c7b799;fill-rule:nonzero;stroke-width:1.33333;stroke-linejoin:round;stroke-miterlimit:2"
     id="path69" /><path
     d="m 285.14995,72.238486 c -0.32666,0.124 -0.64666,0.243999 -0.95599,0.447999 -0.164,0.108 -0.332,0.294666 -0.51467,0.357332 -0.32267,0.110667 -0.79066,-0.127999 -1.09466,-0.234666 -0.64667,-0.226666 -1.28267,-0.563998 -1.88267,-0.870664 -0.76533,-0.389333 -1.57466,-0.562665 -2.35999,-0.893331 -1.29333,-0.545332 -2.56666,-1.111998 -3.89466,-1.55733 -0.67733,-0.227999 -1.36799,-0.445332 -1.98932,-0.842664 -0.27467,-0.174667 -0.58534,-0.531999 -0.688,-0.873331 -0.10534,-0.346666 -0.0333,-0.649332 -0.22934,-0.978665 -0.41199,-0.687998 -1.06666,-1.16933 -1.67999,-1.597329 -0.10667,-0.07333 -0.18133,-0.118666 -0.256,-0.162666 -0.12667,-0.07733 -0.256,-0.156 -0.37067,-0.248 -0.30933,-0.249332 -0.56,-0.585332 -0.80133,-0.909331 -0.0867,-0.115999 -0.172,-0.229332 -0.25733,-0.335999 -0.37733,-0.469332 -0.74133,-0.939998 -1.09466,-1.434663 -0.364,-0.510665 -0.67467,-1.207997 -0.65867,-1.881329 0.14933,0.06133 0.28933,0.276 0.396,0.399999 0.24133,0.278666 0.968,0.963998 1.04666,1.301331 -0.27066,-1.166664 -0.91999,-2.369328 -0.97466,-3.550658 0.24,0.285332 0.58266,0.566665 0.74266,0.994664 -1.37599,-2.593327 -2.50266,-5.442653 -2.05732,-8.434646 0.45199,-3.042659 2.74132,-5.962651 4.96932,-8.033313 2.13732,-1.986662 4.88265,-3.462658 7.36265,-4.981321 1.68266,-1.030664 3.36132,-2.023995 5.12932,-2.930659 1.18933,-0.610665 2.71999,-1.695996 4.04265,-1.907995 3.08399,-0.493332 5.03866,2.282661 5.46132,4.911987 0.12667,0.795998 0.20667,1.49333 0.24533,2.153328 l 0.104,0.837332 c 0.048,0.510665 0.072,0.947997 -0.0947,1.534662 -0.0413,0.148 -0.0893,0.297333 -0.13733,0.449333 l 0.1,0.271999 c 0.096,0.259999 0.10534,0.579998 0.072,0.931998 l 0.45467,-0.914665 -0.18133,1.838662 c -0.0813,0.810665 -0.33734,1.58133 -0.58533,2.325328 l -0.12667,0.386665 c -0.08,0.246667 -0.196,0.509333 -0.31467,0.777332 -0.19333,0.438665 -0.39466,0.891998 -0.41466,1.266663 -0.003,0.07867 -10e-4,0.557332 0.004,0.887998 l 0.78666,0.06533 -0.45866,1.037331 c -0.124,0.275999 -0.23467,0.550665 -0.33734,0.826665 l 0.14534,-0.217333 -0.26934,1.589329 c -0.0787,0.462666 -0.21866,0.915998 -0.35466,1.354664 l -0.12133,0.401332 c -0.22934,0.775998 -0.46667,1.546663 -0.71867,2.311994 0.0107,-0.01733 0.71067,-1.210664 0.71067,-1.210664 l -0.068,1.38533 c -0.016,0.315999 -0.112,0.627999 -0.196,0.903998 l -0.10267,0.342666 c -0.20267,0.690665 -0.41333,1.407996 -0.66933,2.069328 -0.16267,0.421332 -0.31333,0.846665 -0.46533,1.270663 0,0 -0.48267,1.327997 -0.63467,1.729329 -0.22267,0.595999 -0.44666,1.191998 -0.65466,1.795996 -0.12934,0.375999 -0.30134,0.718665 -0.47867,1.047997 l 0.0133,0.22 c 0.0227,0.366666 -0.1,0.682665 -0.25866,0.966664 l 0.12266,0.205333 c 0.40534,0.677332 -0.62533,1.370663 -0.81066,1.859995 -0.084,0.22 -0.0387,0.518666 -0.15467,0.730665 -0.20933,0.382666 -0.81999,0.519999 -1.17866,0.670665 -0.12133,0.05067 -0.24267,0.096 -0.36267,0.141333"
     style="clip-rule:evenodd;opacity:0.2;fill:#000000;fill-rule:nonzero;stroke-width:1.33333;stroke-linejoin:round;stroke-miterlimit:2"
     id="path70" /><path
     d="m 291.65794,52.668935 0.144,-0.217333 -0.268,1.58933 c -0.0787,0.462665 -0.21867,0.915997 -0.35467,1.354663 l -0.12266,0.402666 c -0.228,0.774664 -0.46534,1.545329 -0.71734,2.31066 0.0107,-0.01733 0.70934,-1.210663 0.70934,-1.210663 l -0.068,1.38533 c -0.016,0.315999 -0.11067,0.627998 -0.196,0.903997 l -0.10134,0.342666 c -0.20266,0.691998 -0.41466,1.407997 -0.66933,2.070662 -0.16266,0.419999 -0.31466,0.845331 -0.46666,1.26933 0,0 -0.48267,1.327997 -0.63334,1.730662 -0.224,0.594665 -0.44666,1.190664 -0.65466,1.794662 -0.12933,0.375999 -0.30133,0.718665 -0.48,1.047998 l 0.0147,0.219999 c 0.0227,0.367999 -0.10134,0.682665 -0.26,0.966664 0,0 0.12266,0.205333 0.124,0.205333 0.40533,0.677332 -0.62533,1.371997 -0.812,1.859996 -0.0827,0.219999 -0.0387,0.519998 -0.15333,0.730664 -0.20934,0.382666 -0.82,0.519999 -1.18,0.670665 -0.12133,0.05067 -0.24133,0.096 -0.36133,0.141333 -0.32667,0.124 -0.648,0.244 -0.95733,0.447999 -0.16267,0.108 -0.33067,0.294666 -0.51334,0.357333 -0.32266,0.110666 -0.79199,-0.128 -1.09466,-0.234666 -0.648,-0.226666 -1.28266,-0.563999 -1.884,-0.869332 -0.76399,-0.390665 -1.57332,-0.562665 -2.35999,-0.894664 -1.292,-0.545332 -2.56666,-1.111997 -3.89466,-1.557329 -0.67599,-0.226666 -1.36666,-0.445333 -1.98799,-0.842665 -0.27467,-0.174666 -0.58533,-0.531999 -0.68933,-0.871998 -0.10534,-0.346666 -0.032,-0.650665 -0.22934,-0.979997 -0.41066,-0.687999 -1.06533,-1.167997 -1.67999,-1.59733 -0.10533,-0.07333 -0.18,-0.117333 -0.25467,-0.162666 -1.74799,-1.051997 -3.03599,-2.233328 -4.08399,-4.038656 -0.676,-1.162664 -1.17199,-2.366661 -1.74533,-3.573325 -0.43733,-0.921331 -1.13999,-1.495996 -1.68666,-2.347994 -0.35066,-0.543999 -0.39733,-1.211997 -0.71466,-1.782662 -0.71333,-1.282664 -1.90533,-2.142662 -2.39866,-3.577325 0.54933,1.203997 2.01866,3.131993 3.17865,3.779991 0,-0.891998 -0.45466,-2.077328 -0.94799,-2.81866 0.26266,1.046664 0.93066,2.458661 1.78799,3.141326 0.19467,-0.303999 0.30934,-0.637332 0.34,-0.983998 0.436,1.323997 0.88267,2.154662 1.78533,3.181326 0.30933,-0.330666 0.43733,-0.831998 0.584,-1.194664 0.16533,0.190666 1.208,2.311994 0.948,2.497327 0.66666,-0.475999 1.33866,-1.579996 1.49599,-2.427994 0.384,1.058664 0.34134,2.865326 1.06667,3.790657 0.0707,0.09067 0.93466,-2.66266 0.94933,-2.935992 0.24133,0.730664 0.50666,1.667995 1.00933,2.33866 0.63866,-1.123997 1.31866,-2.954659 1.40266,-4.230656 1.436,2.959993 2.2,6.330651 3.30666,9.40931 0.20133,-1.603996 -0.0813,-3.486658 0.276,-4.995987 0.512,1.190663 0.884,2.583993 1.18,3.822657 0.36,-2.218661 1.40933,-4.410656 1.62266,-6.643984 -0.0427,1.551997 0.268,3.093326 0.30533,4.629322 1.04133,-2.389327 1.71866,-5.483986 2.14266,-8.033313 -0.51466,2.715993 0.336,5.581319 -0.0147,8.239979 1.31333,-3.526658 2.90799,-7.023982 4.33732,-10.383974 0.68,2.165328 0.98133,5.538653 0.764,7.559981 0.76,-2.815993 1.07733,-6.487983 2.47599,-9.018644 0.22933,0.599999 0.34667,1.263997 0.60533,1.861329 1.07467,-2.226661 1.664,-4.907988 2.34,-7.277315 0.45866,1.243997 0.492,2.846659 0.35866,4.149323 -0.0707,0.687998 -0.54133,1.246663 -0.632,1.833328 -0.12,0.763999 0.27467,0.970665 0.51734,1.602663 0.36266,0.946664 -0.192,1.219997 -0.504,2.063995"
     style="clip-rule:evenodd;opacity:0.2;fill:#000000;fill-rule:nonzero;stroke-width:1.33333;stroke-linejoin:round;stroke-miterlimit:2"
     id="path72" /><path
     d="m 331.42717,125.99382 c -0.416,-1.928 -0.944,-4.33199 -1.58933,-7.24932 -0.59733,-2.69599 -1.16133,-5.24265 -1.20799,-5.57198 -0.0267,-0.18534 0.024,-0.676 0.0787,-1.196 0.16667,-1.60133 0.44533,-4.28266 -0.0893,-8.59198 -0.748,-6.027983 -4.13199,-16.301291 -4.27466,-16.735957 l -0.0227,-0.06667 -0.032,-0.06267 C 316.06054,69.911292 285.40195,50.760673 284.10196,49.954008 l -0.24267,-0.150666 h -3.18933 c -4.07065,-4.823988 -9.9773,-13.142634 -9.33731,-16.042626 0.0707,-0.322666 0.21734,-0.509332 0.50667,-0.641332 5.02532,-2.295994 9.10664,-5.986652 16.16929,-14.62263 1.72133,-2.103995 4.45999,-3.170659 8.14265,-3.170659 5.55065,0 13.03863,2.335994 22.25728,6.945316 5.04265,2.521327 5.07998,16.417292 5.11065,27.581264 0.0107,3.719991 0.02,7.233316 0.19467,10.230641 0.47866,8.22798 2.82932,17.163958 4.71999,24.34394 0.99999,3.80399 1.86532,7.089315 2.16799,9.26131 0.864,6.195984 2.46666,20.219954 1.90533,24.017274 -0.25867,1.73733 -0.656,4.91199 -1.02267,7.83331 -0.0187,0.14934 -0.0373,0.30134 -0.0573,0.45467"
     style="clip-rule:evenodd;fill:#7d7d7d;fill-rule:nonzero;stroke-width:1.33333;stroke-linejoin:round;stroke-miterlimit:2"
     id="path76" /><path
     d="m 331.42717,125.99382 c -0.416,-1.928 -0.944,-4.33199 -1.58933,-7.24932 -0.59733,-2.69599 -1.16133,-5.24265 -1.20799,-5.57198 -0.0267,-0.18534 0.024,-0.676 0.0787,-1.196 0.16667,-1.60133 0.44533,-4.28266 -0.0893,-8.59198 -0.748,-6.027983 -4.13199,-16.301291 -4.27466,-16.735957 l -0.0227,-0.06667 -0.032,-0.06267 C 316.06054,69.911292 285.40195,50.760673 284.10196,49.954008 l -0.24267,-0.150666 h -3.18933 c -0.55733,0 -2.05866,-2.739993 -2.05866,-3.278658 1.64133,-0.092 3.22933,0.249332 4.81866,0.550665 2.03466,0.383999 4.36265,0.510665 6.31865,1.147997 1.69199,0.551999 3.42799,1.741329 5.23332,2.313328 0.84266,0.266666 1.76266,0.533332 2.62933,0.826664 2.06266,0.699999 3.31999,2.073328 5.09198,3.242659 2.17333,1.43333 4.24666,2.254661 6.07599,4.01999 1.06133,1.023997 3.22132,3.753324 3.44666,1.06933 0.16533,-1.961328 -0.688,-4.350655 -1.48,-6.161318 -0.924,-2.113328 -2.38933,-3.255991 -3.93199,-4.881321 -1.61466,-1.703995 -2.93733,-3.925323 -4.77599,-5.411986 -1.69733,-1.370663 -3.88132,-1.459996 -5.92798,-1.983995 -1.36667,-0.350666 -2.608,-0.799998 -3.93199,-1.211997 -1.29067,-0.399999 -3.388,-1.041331 -4.19066,0.518665 -0.6,1.165331 0.30133,3.107992 0.788,4.161323 0.59866,1.29733 2.19866,2.009328 2.71466,3.242659 -1.52266,-0.565332 -3.18133,-1.299997 -4.69199,-2.065328 -1.59333,-0.806665 -3.00666,-1.959996 -4.14932,-3.295992 -1.11333,-1.302664 -2.616,-2.014662 -3.75199,-3.249325 -0.99867,-1.085331 -1.60133,-3.329325 -2.052,-4.699989 -0.76266,-2.321327 -0.836,-3.153325 0.996,-4.901321 2.16399,-2.066661 5.21599,-1.717329 8.22664,-1.522663 -1.09199,0.717332 -3.55065,2.466661 -3.04399,4.150657 0.38267,1.26933 2.56266,1.773329 3.53866,2.243994 1.49066,0.719998 2.90533,1.678663 4.42532,2.329328 1.54,0.659998 3.33066,0.862664 4.94932,1.294663 3.67733,0.979998 7.28665,2.233328 10.60931,4.11199 1.82,1.027997 5.78932,5.042654 7.75065,3.194658 2.37466,-2.237327 -0.87333,-5.819985 -2.41733,-7.593314 -1.508,-1.731996 -3.35999,-3.090659 -5.28532,-4.309322 -1.46266,-0.926665 -3.58266,-1.973329 -4.82265,-3.138659 1.59999,0.211999 3.32265,1.274663 5.00398,1.457329 2.076,0.226666 3.97466,-0.706665 5.83332,-1.503996 0.444,-2.499994 -3.07599,-4.885321 -4.77465,-6.171984 1.45866,0.313332 2.39066,-1.35733 2.37466,-2.617327 -0.016,-1.150664 -0.76133,-2.235995 -1.06267,-3.275992 1.68267,-0.281333 2.75733,0.855998 4.20533,1.48933 1.70666,0.746664 3.39199,1.543996 5.05732,2.377327 5.04265,2.521327 5.07998,16.417292 5.11065,27.581264 0.0107,3.719991 0.02,7.233316 0.19467,10.230641 0.47866,8.22798 2.82932,17.163958 4.71999,24.34394 0.99999,3.80399 1.86532,7.089315 2.16799,9.26131 0.864,6.195984 2.46666,20.219954 1.90533,24.017274 -0.25867,1.73733 -0.656,4.91199 -1.02267,7.83331 -0.0187,0.14934 -0.0373,0.30134 -0.0573,0.45467"
     style="clip-rule:evenodd;opacity:0.45;fill:#000000;fill-rule:nonzero;stroke-width:1.33333;stroke-linejoin:round;stroke-miterlimit:2"
     id="path77" /><path
     d="m 326.70452,88.002047 c -0.21867,-1.355997 -0.11467,-2.97066 -0.61334,-4.258656 -0.40533,-1.049331 -1.09999,-2.233328 -1.74399,-3.162659 -0.90933,-1.311997 -1.83333,-2.61466 -2.75466,-3.906657 -1.352,-1.897329 -3.10266,-3.523991 -4.41999,-5.48132 -1.23333,-1.830662 -2.43733,-3.658657 -3.64932,-5.493319 -0.776,-1.174664 -1.45067,-2.523994 -2.07867,-3.782657 -0.32533,-0.654665 -1.05866,-1.850662 -0.90799,-2.563994 1.21866,0.738665 2.03999,1.975995 2.89599,3.081326 1.116,1.442663 2.36666,2.733326 3.61999,3.994656 2.99199,3.014659 5.45999,6.555984 8.43731,9.56131 -0.18533,-1.098664 -0.536,-2.411994 -0.99199,-3.473325 -1.16933,-2.71866 -3.21866,-5.094654 -4.91999,-7.458648 -1.87466,-2.60266 -3.14933,-5.559986 -4.50932,-8.465312 -0.91867,-1.961329 -2.604,-4.405322 -2.01067,-6.69065 0.66134,0.330666 1.41067,1.327997 1.88533,1.887995 0.988,1.166664 1.96933,2.375994 2.764,3.706658 0.72933,1.22133 1.42266,2.473327 2.30132,3.589324 0.64134,0.817331 1.37733,2.83466 2.43066,3.051992 -0.61466,-2.923992 -1.35066,-5.793319 -1.78132,-8.738644 -0.32667,-2.225328 -0.72667,-4.403989 -1.45067,-6.557317 -0.664,-1.973329 -1.75599,-3.969324 -2.13733,-5.998652 1.08667,1.589329 1.98933,3.667991 3.28933,5.091987 1.63999,1.794662 1.86666,-1.243997 1.67066,-2.49466 -0.336,-2.138662 -0.73466,-4.562656 -1.60399,-6.534651 -0.86,-1.949328 -2.096,-3.72399 -3.11333,-5.619986 -0.728,-1.355996 -1.43333,-2.890659 -2.52666,-3.97999 -0.47333,-0.471998 -1.15333,-0.899997 -1.476,-1.394663 1.252,0.497332 3.24533,1.905329 4.60533,1.746663 -0.744,-6.022652 -8.51332,-7.819981 -13.3253,-9.230644 -0.72934,-0.214666 -8.77598,-2.334661 -8.24265,-0.401332 0.0973,0.350665 2.34533,1.26133 2.69199,1.449329 1.72666,0.941331 3.48399,1.794662 5.15332,2.819993 1.21467,0.746665 3,1.38133 3.73733,2.633327 -2.008,-0.895998 -4.41066,-1.586663 -6.54665,-2.189328 -0.97733,-0.274666 -2.02,-0.426665 -3.03466,-0.566665 -2.416,-0.334666 -4.83199,-1.025331 -7.28132,-1.077331 -1.39999,-0.03067 -2.89199,0.393333 -3.92399,1.34533 -0.888,0.818665 -3.01332,2.721327 -2.82932,4.022657 2.16932,0.561332 4.75598,-0.362666 7.02531,-0.246666 3.48133,0.177333 6.96532,1.017331 10.33331,1.843995 1.67999,0.413332 2.99466,0.437332 4.24799,1.599996 1.36933,1.26933 2.69066,2.565327 4.07332,3.817324 1.92,1.738662 3.23866,2.765326 3.83199,5.403986 -1.20933,-0.529332 -2.43199,-1.802662 -3.55466,-2.589326 -1.75332,-1.230664 -3.53332,-2.249328 -5.43865,-3.205326 -3.61066,-1.811995 -7.46931,-4.423989 -11.65997,-4.650655 -2.94799,-0.159999 -6.40265,0.257333 -9.21064,1.042664 -2.372,0.663999 -5.17866,1.442663 -7.12399,3.027993 -0.79333,0.646665 -1.90932,1.330663 -2.09599,2.327994 -0.13867,0.742665 0.176,1.927995 0.492,2.58266 1.23066,2.547994 6.82665,1.40133 9.00398,1.175997 1.59733,-0.165333 3.08932,-0.004 4.66132,0.189333 2.80266,0.346666 5.79332,0.667998 8.48264,1.515996 2.436,0.766665 4.26933,2.157328 6.14399,3.843991 1.52799,1.37333 2.83866,2.339994 3.13866,4.491988 -1.79733,-1.594662 -3.97333,-2.910659 -6.06665,-4.047989 -4.64266,-2.521327 -10.30131,-5.56932 -15.7413,-4.022657 -2.22533,0.633332 -6.56798,2.434661 -4.71999,5.44532 1.256,-0.265333 2.55733,-0.530666 3.87333,-0.587999 2.99732,-0.129333 6.19865,1.198664 8.94264,2.297328 2.06533,0.825331 4.18399,1.662662 6.17065,2.65066 1.29867,0.645331 3.61466,1.770662 3.29466,3.525324 -1.93466,-1.03333 -4.02266,-1.842662 -5.99865,-2.751993 -1.324,-0.609332 -2.48399,-0.850664 -3.87466,-1.25733 -1.37466,-0.401332 -2.75066,-0.403999 -4.19999,-0.471999 -0.76133,-0.036 -1.21333,-0.104 -1.88266,0.341333 3.08533,2.009328 6.21198,3.857323 9.21731,6.025318 3.55866,2.567993 7.04532,5.23732 10.42397,8.038646 3.30266,2.737327 6.56265,5.535987 9.59865,8.569312 1.54399,1.543997 3.11199,3.134659 4.44932,4.863988 1.19333,1.54133 2.02133,3.438658 3.05599,5.094654 0.93067,1.48933 1.764,3.038659 2.71866,4.511989 0.24933,0.386666 0.508,0.769331 0.77867,1.142664 M 280.2073,50.803473 c 0,0 -13.90797,-16.250626 -8.78398,-18.593287 5.12399,-2.341327 9.13731,-6.186651 15.81196,-14.346631 6.67332,-8.1599793 24.30127,-0.146666 31.62126,3.513325 7.31998,3.659991 5.12398,26.058601 5.85598,38.649237 0.732,12.590635 6.00265,27.229265 6.87998,33.525249 0.87867,6.294651 2.48933,20.349284 1.904,24.301274 -0.58533,3.95332 -1.904,15.37196 -1.904,14.2013 0,-1.172 -3.80532,-17.71463 -3.95199,-18.73996 -0.14666,-1.02399 0.732,-3.80532 -0.0133,-9.80531 -0.744,-5.99998 -4.23199,-16.545287 -4.23199,-16.545287 -8.19864,-16.542626 -39.8199,-36.15991 -39.8199,-36.15991 z"
     style="clip-rule:evenodd;fill:#000000;fill-rule:nonzero;stroke-width:1.33333;stroke-linejoin:round;stroke-miterlimit:2"
     id="path79" /><path
     d="m 200.96883,193.39338 c -9.74931,-4.55465 -22.43861,-11.79463 -22.97994,-15.93996 l -0.24,-1.89066 c -0.73733,-5.92265 -1.376,-11.0373 -5.44799,-18.09729 -4.89999,-8.49198 -7.51465,-17.88795 -7.77198,-27.92659 -0.104,-4.07466 -0.872,-40.125237 4.29199,-50.77721 1.29866,-2.67866 3.34799,-6.453317 5.71999,-10.823973 6.20398,-11.426638 15.19063,-24.470606 15.13196,-31.449255 -0.0733,-8.639978 6.18532,-23.990607 14.65196,-26.6825998 1.68266,-0.5359987 3.63733,-0.9159978 5.81065,-1.1293306 8.62532,-0.8453312 26.44661,6.7586494 31.68659,12.9106344 6.38532,7.495981 25.23461,10.098641 28.79593,10.529307 l 9.51731,19.585284 c -3.15333,2.126662 -10.73064,8.574646 -10.81997,8.653312 -4.89466,4.257323 -9.13465,8.250646 -12.96397,12.209303 -2.14933,2.222661 -4.27066,4.543989 -6.32265,6.787983 -5.14666,5.629319 -10.47064,11.451971 -16.61463,16.134626 -8.02131,6.115989 -13.71063,13.867969 -17.90395,24.397269 -1.344,3.37466 -2.504,6.77999 -3.83199,10.85464 -0.54267,1.66267 -1.09067,3.32266 -1.64,4.98532 -2.66133,8.05998 -5.41332,16.39596 -7.37998,24.82794 -1.288,5.52132 -2.11333,10.52264 -2.52266,15.29196 l -0.02,0.216 c -0.412,4.77599 -0.87866,10.18798 0.28,14.90663 0.0333,0.13467 0.0733,0.324 0.124,0.54933 0.15333,0.70534 0.3,1.32933 0.44933,1.87733"
     style="clip-rule:evenodd;fill:#7d7d7d;fill-rule:nonzero;stroke-width:1.33333;stroke-linejoin:round;stroke-miterlimit:2"
     id="path80" /><path
     d="m 189.67286,36.488175 c -0.0387,-4.605321 1.35733,-9.22931 3.04666,-13.2253 1.58666,-3.753324 3.66799,-9.090644 7.22531,-10.317307 0.13734,1.661329 0.652,2.329327 1.93067,2.563993 1.26933,0.234666 2.77332,0.669332 3.99999,0.714665 -2.43867,2.393327 -8.29732,4.210656 -7.49999,8.737312 0.36534,2.077328 2.136,2.61866 4.02133,1.938661 -2.5,1.747996 -4.71066,3.961324 -6.61199,6.298651 -1.31999,1.623996 -3.19199,3.249326 -3.74932,5.342654 -0.244,0.915997 -0.416,2.101328 0.46133,2.673326 0.336,0.218666 2.42266,0.323999 2.636,-0.09333 -1.184,2.307994 -3.12666,4.170656 -3.98133,6.89065 -0.77733,2.473327 -2.13733,6.755983 -1.05333,9.399976 3.76399,-2.869326 7.27998,-6.52665 10.99997,-9.619976 -2.05466,2.235995 -4.56532,4.253323 -6.57598,6.625317 -1.99733,2.353327 -4.24666,4.590655 -6.07332,7.009316 -1.97066,2.61066 -9.63464,3.294658 -8.01864,6.873316 5.62265,0.265333 14.54263,-0.402666 18.70528,-3.458658 2.19066,-1.607996 4.52132,-3.169326 6.79065,-4.689322 1.45466,-0.973331 5.23466,-4.439989 7.02398,-3.77199 -2.40532,1.326663 -4.49732,3.557324 -6.59731,5.422653 -3.80266,3.373325 -10.73198,3.549324 -14.97063,6.862649 -2.05066,1.60133 -3.89866,3.250659 -5.73465,5.110654 -2.472,2.503994 -5.19866,4.731988 -7.95598,6.907983 -2.43333,1.922662 -5.17599,3.182659 -7.53865,5.195987 -1.42133,1.210664 -2.40133,2.809326 -1.83466,4.703988 0.37199,1.243997 2.42932,4.527989 3.79865,4.745322 0.764,0.119999 2.39866,-1.057331 3.08666,-1.395997 1.17867,-0.582665 2.34666,-1.186664 3.50666,-1.802662 2.32266,-1.235997 4.61466,-2.527994 6.90532,-3.821324 1.93199,-1.087997 3.86399,-2.178661 5.71865,-3.393325 4.51465,-2.959992 8.43998,-7.266648 13.2773,-9.662642 1.33066,-0.659998 2.80666,-1.049331 4.17599,-1.633329 1.32933,-0.566666 2.52933,-1.48533 3.88799,-1.985329 -1.32533,0.781332 -2.552,1.910662 -3.82799,2.833326 -1.56666,1.131998 -3.17999,2.361328 -4.43066,3.823991 -1.13066,1.322663 -1.98933,2.643993 -3.38532,3.710657 -1.59333,1.215997 -3.17999,2.438661 -4.73466,3.705324 -3.05199,2.486661 -6.51331,4.389323 -9.33597,7.047983 -3.04266,2.865326 -6.49865,5.127987 -9.81865,7.585312 -2.63466,1.94933 -5.89465,4.58265 -5.08132,8.27998 0.524,2.38133 2.916,3.30799 5.15466,2.64799 1.44666,-0.42666 2.95599,-1.60933 4.25332,-2.32133 2.31466,-1.26933 4.69599,-2.46932 6.90532,-3.91465 3.63732,-2.37733 7.23731,-5.259986 11.11597,-7.078649 -0.83067,2.158659 -3.56266,3.969319 -5.19999,5.490649 -4.40665,4.09599 -8.87064,7.98531 -13.4893,11.89064 -3.42932,2.89866 -6.20132,6.38532 -9.40531,9.42931 -2.17466,2.06533 -4.61332,3.66266 -6.81198,5.67465 -0.57067,-1.636 -0.12533,-4.44799 -0.14,-6.21998 -0.0213,-2.40266 -0.02,-4.80533 0.003,-7.20799 0.068,-7.07598 0.29466,-14.16263 0.93866,-21.21194 0.51067,-5.587986 0.948,-11.906637 3.43599,-17.038624 1.29866,-2.67866 3.34799,-6.453317 5.71999,-10.823973 6.20398,-11.425305 15.19063,-24.470605 15.13196,-31.449255"
     style="clip-rule:evenodd;opacity:0.45;fill:#000000;fill-rule:nonzero;stroke-width:1.33333;stroke-linejoin:round;stroke-miterlimit:2"
     id="path81" /><path
     d="m 270.61666,32.11592 c -0.228,-0.469332 -5.10799,-0.771998 -5.70399,-0.882665 -3.17599,-0.585332 -6.33065,-1.310663 -9.41998,-2.251994 -7.55998,-2.302661 -12.81463,-6.751983 -19.03728,-11.426638 -1.924,-1.44533 -4.24532,-2.210661 -6.42265,-3.042659 -2.64133,-1.010664 -6.25065,-3.253325 -8.99865,-2.390661 1.15467,2.795993 6.03466,5.545319 2.64133,8.578645 1.132,0.601332 3.17733,1.865329 3.04666,3.366658 -0.17467,2.014662 -2.60399,2.041329 -3.98932,2.106662 -2.05067,0.096 -4.08533,0.373332 -6.12799,0.674665 -3.79999,0.561332 -7.37598,2.729326 -10.95997,4.130656 -1.288,0.503999 -15.3253,4.17199 -13.73197,7.170649 0.47867,0.899998 5.69999,-2.082662 6.70799,-2.454661 2.96532,-1.095997 6.03198,-2.39866 9.05197,-3.274658 3.79599,-1.099997 7.59732,-2.147995 11.31998,-3.589324 3.74532,-1.44933 10.94797,2.069328 15.30929,2.281327 4.46799,0.217333 9.08131,0.671999 13.5253,0.2 2.48799,-0.264 5.86265,-0.734665 8.08798,0.995997 1.47333,1.146664 1.63466,2.875993 0.416,4.265323 -1.348,1.535996 -3.64666,1.255997 -5.49065,1.255997 -9.13198,0 -21.51328,-2.961326 -29.56126,-0.943998 -6.92665,1.735996 -14.43197,2.054662 -20.34795,6.895983 -2.288,1.873329 -4.21599,3.479991 -5.99999,5.942652 -0.74266,1.02533 -1.59733,2.066661 -1.73199,3.471991 4.16532,-1.42933 7.08398,-6.477317 11.33197,-8.190646 2.66666,-1.077331 5.25599,-1.761329 8.01998,-2.457327 2.26933,-0.571999 4.50799,-1.197331 6.71065,-2.021329 1.74533,-0.653331 3.15466,-1.210663 5.07199,-1.402663 2.22932,-0.223999 7.28798,3.009326 9.72797,3.126659 6.37465,0.306666 12.77064,0.0053 19.12795,-0.327999 1.264,-0.06533 10.59598,-1.821329 10.77731,-0.494666 0.17067,1.251997 -5.74532,1.306664 -6.17998,1.322664 -4.31333,0.149333 -8.64532,0.942664 -12.96797,1.579996 -1.948,0.286666 -3.87866,0.146666 -5.77199,0.549332 -1.95466,0.415999 -3.90799,0.934664 -5.86265,1.435996 -4.63865,1.187997 -11.05997,0.569332 -14.80396,3.038659 2.28532,-0.381332 4.84665,-2.247994 7.11331,-3.105325 2.36266,-0.893331 7.43598,0.615998 10.20531,0.333332 4.68666,-0.477332 9.48264,-0.566665 14.18663,-0.566665 2.21333,0 4.46799,-0.08933 6.67199,0.02533 -0.812,2.637327 -6.42399,3.96399 -8.72398,4.609322 -2.08133,0.583999 -4.01999,1.311997 -5.99865,2.201328 -3.82533,1.718662 -7.35465,4.387989 -10.61598,7.087982 -1.76799,1.463996 -3.27332,2.75066 -4.75732,4.393322 0.86667,-0.959997 2.27999,-2.315994 3.23733,-3.139992 1.07733,-0.927997 3.33465,-0.721331 4.60932,-1.487996 3.15599,-1.897329 6.18532,-3.461325 9.81331,-4.357322 3.72265,-0.918665 7.53198,-1.418663 11.26397,-2.295995 3.78666,-0.889331 8.07731,-1.529329 11.99463,-1.279996 0.009,1.707995 0.0667,2.319994 -1.30933,3.286658 -1.75999,1.234664 -4.09065,1.714662 -6.11598,2.463994 -4.69199,1.734662 -9.20131,3.80799 -13.9613,5.514653 -9.47731,3.397325 -20.64661,7.410648 -28.17859,14.389297 -1.452,1.346663 -2.32133,3.339992 -3.48266,4.942654 -1.48533,2.047995 -3.10399,3.889324 -4.85599,5.678653 -5.13732,5.243987 -12.8493,8.855978 -16.22263,15.633293 2.712,-1.62399 4.91066,-3.763989 7.42398,-5.631985 2.736,-2.034661 5.89599,-3.90399 8.75332,-5.753319 2.53599,-1.641329 3.98799,-2.845326 6.17598,-5.06532 2.268,-2.301328 4.68132,-4.462656 7.23998,-6.435984 1.552,-1.195997 4.81199,-4.674655 6.90932,-4.426656 0.524,3.921324 -3.89732,7.639981 -6.32665,10.161308 -2.86933,2.977326 -5.91999,6.017318 -9.52131,7.985313 -4.02799,2.198662 -7.86265,5.094654 -11.46531,7.921313 -3.39465,2.66266 -6.47198,5.87599 -8.73331,9.55198 -2.29333,3.72932 -5.35065,7.04132 -7.98531,10.58931 -2.81066,3.78665 -5.70799,7.76264 -9.41464,10.66797 -1.22,0.95733 -2.572,1.81333 -3.77066,2.78399 -2.176,1.76133 -5.78399,3.31599 -5.19066,6.47065 0.30667,1.62133 0.69334,3.93999 2.85466,3.56266 2.11867,-0.37066 3.57466,-3.49199 4.80799,-5.01465 2.14533,-2.65066 4.38799,-5.04399 6.91065,-7.43865 2.256,-2.14266 4.93466,-3.22933 7.44665,-4.97599 2.83733,-1.97333 5.52665,-5.41332 7.60798,-8.19864 3.79199,-5.07466 7.42798,-9.63865 12.33864,-13.6213 0.34,2.96132 -2.31866,7.04398 -3.69199,9.65197 -1.12,2.128 -1.88933,4.56532 -3.38533,6.47465 -1.44933,1.85066 -3.69599,3.03066 -5.36399,4.80666 -4.13599,4.40532 -7.99864,9.05731 -12.0173,13.5693 -1.68933,1.89866 -3.42132,3.91332 -5.23599,5.71998 -1.28133,1.27467 -3.63065,2.98399 -4.14399,4.56132 3.164,0.204 5.31199,-1.05466 8.06665,-2.30532 2.004,-0.90933 3.95199,-1.564 5.58265,-2.99333 1.97067,-1.72933 3.84266,-3.56399 5.67999,-5.43199 1.37466,-1.39599 3.40799,-4.58265 5.58799,-4.68798 1.31333,2.10132 -0.81334,5.38798 -1.768,7.29064 -1.016,2.02667 -1.80133,4.75733 -3.36399,6.43599 -1.31333,1.41333 -2.94933,2.39466 -4.22532,3.94932 -2.256,2.74666 -4.73333,5.52532 -8.36665,6.26932 -2.23199,0.45733 -4.59199,1.48933 -6.44665,0.3 -1.052,-0.67333 -2.14666,-1.73733 -3.05199,-2.67866 -0.792,-0.824 -1.512,-1.732 -2.172,-2.70399 0.42,0.81333 0.84,1.62666 1.3,2.42532 4.07199,7.05999 4.71065,12.17464 5.44932,18.09729 l 0.23867,1.88933 c 0.54133,4.14532 13.23196,11.3853 22.97994,15.93996 -0.14934,-0.54667 -0.29467,-1.172 -0.44933,-1.87733 -0.0493,-0.22533 -0.0907,-0.41466 -0.124,-0.548 -1.15867,-4.71865 -0.692,-10.13197 -0.27867,-14.90796 l 0.0187,-0.216 c 0.40933,-4.76799 1.23466,-9.77064 2.52266,-15.29196 1.96666,-8.43065 4.71865,-16.76663 7.37998,-24.82794 0.54933,-1.66133 1.09733,-3.32266 1.63999,-4.98399 1.32933,-4.07465 2.48933,-7.48131 3.83199,-10.85597 4.19333,-10.52931 9.88265,-18.28129 17.90396,-24.395942 6.14532,-4.683988 11.46797,-10.505307 16.61462,-16.134626 2.052,-2.245328 4.17333,-4.566655 6.32266,-6.787983 3.82932,-3.958657 8.07064,-7.953314 12.96396,-12.210636 0.0893,-0.07733 7.66665,-6.526651 10.81998,-8.653312 L 270.61666,32.11592"
     style="clip-rule:evenodd;opacity:0.45;fill:#000000;fill-rule:nonzero;stroke-width:1.33333;stroke-linejoin:round;stroke-miterlimit:2"
     id="path83" /><path
     d="m 261.50868,34.391914 c -5.55732,-1.659996 -11.6253,-1.949328 -17.33996,-1.43733 -2.63866,0.236 -5.40798,0.293333 -8.02664,0.281333 -4.05733,-0.01867 -11.43731,-5.134654 -14.94397,-5.133321 3.77733,-1.469329 12.35464,3.791991 16.7013,2.937326 1.70532,-0.335999 3.37865,-1.18933 5.12265,-1.466663 2.05599,-0.326665 4.19732,-0.028 6.25732,-0.486665 -0.74533,-3.046659 -7.52665,-3.618658 -10.16798,-4.041323 -4.72132,-0.754665 -14.18796,-5.010654 -18.48262,-4.30399 -2.51599,0.414666 -5.21465,1.915996 -7.73198,1.70133 3.46399,-0.747999 6.57732,-2.538661 10.03331,-3.563992 3.27866,-0.971997 11.96797,4.126657 15.51596,3.114659 0.012,-3.125325 -11.55197,-7.982646 -13.57197,-7.846647 -4.94132,0.333333 -12.10663,-1.494663 -16.38262,1.234664 2.51733,-1.551996 6.41865,-1.797329 8.44531,-3.685324 -1.63866,-2.1373282 -4.56799,-1.394663 -6.62932,-1.193331 -2.05599,0.202667 -3.97599,0.574666 -5.55198,1.075998 -2.536,0.806664 -4.64399,2.818659 -6.40132,5.06532 -0.64933,0.829332 -2.53733,5.68532 -2.64666,5.745319 2.71466,-1.502663 5.69999,-3.025325 8.28531,-4.939987 -3.97999,3.84399 -9.15997,6.997316 -10.09064,13.615966 4.47332,-1.715996 9.41598,-3.877324 13.4053,-6.801317 -3.03199,2.290661 -15.69729,9.030644 -14.84929,14.062632 7.35998,-3.281325 14.77463,-6.417317 22.60661,-8.342646 -5.68666,3.414658 -11.97464,5.39732 -17.38263,9.466643 -2.60132,1.957328 -4.96799,4.367989 -6.69065,7.453315 -0.81866,1.463996 -1.74399,3.227992 -2.29866,4.859988 -0.34266,1.006664 -0.64133,5.530652 -1.27066,5.993318 4.58799,-3.373325 8.63331,-7.747981 13.3933,-10.889306 2.38666,-1.57333 4.88265,-2.938659 7.51065,-3.855991 1.90399,-0.665331 5.53732,-0.254666 7.10264,-1.32133 -1.60532,1.094664 -3.95465,1.59733 -5.84931,2.433328 -3.012,1.32933 -5.76399,3.589324 -8.35865,5.986651 -4.56665,4.21999 -8.78798,8.682645 -12.69863,13.747966 -4.43466,5.741319 -18.50796,9.545309 -17.32929,17.942622 2.82265,-0.941331 5.91331,-4.193323 8.43864,-6.045318 3.19999,-2.345328 6.40798,-4.817322 9.63998,-7.091983 5.33732,-3.757324 14.08796,-5.877318 19.53328,-8.614645 -2.45466,2.346661 -6.79865,2.785327 -9.43598,5.111987 -5.02665,4.434656 -10.69597,8.345313 -16.19195,12.474636 -4.48399,3.371991 -9.25865,6.645317 -12.77464,11.086639 -1.22266,1.543996 -7.17998,13.209305 -1.60133,12.953305 1.90933,-0.0867 4.27066,-2.071999 5.86265,-3.07333 15.98663,-10.053308 29.01726,-24.819938 46.75055,-31.358588 -4.10799,2.43866 -7.69864,3.715991 -11.26264,7.061316 -10.21197,9.582642 -20.47861,19.447951 -31.59592,27.721262 -2.93599,2.184 -7.16131,3.58799 -9.76131,5.86532 -1.71866,1.504 -2.38666,5.03732 -2.71199,7.20132 -0.28666,1.91732 1.18267,8.46797 0.14,9.76397 1.77066,-2.20266 3.45066,-4.10666 5.83199,-6.00932 5.64665,-4.51199 11.4213,-8.83731 17.18929,-13.2253 4.50265,-3.42532 8.54798,-7.934644 13.19596,-11.081303 -3.07466,4.294656 -6.62665,8.579983 -10.2173,12.543973 -5.25332,5.80131 -11.41864,10.6893 -16.98929,16.15196 -2.424,2.37732 -4.37733,4.90265 -5.66132,7.76531 -0.928,2.06799 -1.50667,4.31332 -1.66,6.80798 -0.248,4.04933 2.17999,9.99598 5.94265,4.34532 1.944,-2.91865 3.64133,-5.69065 6.13599,-8.18931 4.29999,-4.30799 10.00531,-6.93731 14.83863,-10.43197 -5.82132,6.08798 -13.68797,10.79064 -17.64129,18.45329 -1.59733,3.09732 -3.31466,6.85598 -3.41599,10.37864 -0.0413,1.40799 0.91733,6.17998 2.31066,6.90931 1.98399,1.04 3.13999,-1.40533 4.27865,-2.77599 1.98266,-2.384 4.79066,-4.29199 6.32132,-6.92132 -0.70266,2.83066 -2.40799,5.35999 -3.83199,7.92265 -2.40666,4.33332 -5.54265,9.65864 -4.39999,14.9693 0.32667,1.51866 1.96933,4.86132 3.96799,4.52932 1.78533,-0.296 3.20133,-4.56266 4.20532,-6.06265 -0.77733,2.54532 -2.26266,6.26665 -2.01332,8.98931 0.39599,4.32799 4.54398,2.82132 6.40531,0.0867 -0.50533,1.168 -0.76933,2.64266 -0.50533,3.96799 1.12666,-0.1 2.05866,-0.46666 2.82266,-1.02533 2.61733,-1.91599 3.25066,-6.10665 2.93866,-9.67464 -1.476,0.96133 -2.48666,2.50533 -3.48399,3.91999 -0.84133,-9.96931 10.73864,-15.51996 9.04664,-26.22393 -6.06265,1.33733 -9.32931,10.08797 -13.6733,13.85463 0.78667,-3.19866 2.59866,-6.16399 4.68399,-8.72398 2.37733,-2.92133 4.79466,-5.80932 7.26132,-8.65598 2.17199,-2.50799 5.57465,-5.16399 7.13731,-8.07465 1.048,-1.95066 1.47066,-4.68665 2.208,-6.82398 0.14666,-0.42933 1.60133,-7.08265 0.99599,-6.80798 -3.29732,1.5 -6.01998,6.38932 -8.37731,9.14931 -1.53999,1.80399 -3.12132,3.57999 -4.91065,5.14399 -1.43467,1.25199 -3.95733,2.23066 -5.12799,3.60932 4.51466,-5.32132 8.49598,-10.88264 12.60264,-16.57062 3.03199,-4.20133 6.86131,-7.80665 10.17464,-11.78264 2.80666,-3.36533 4.66265,-7.34132 7.32798,-10.86264 1.66799,-2.20533 3.52266,-4.21466 5.47465,-6.169319 0.70933,-0.709332 3.20133,-5.561319 3.19999,-5.559986 -11.74263,6.186651 -24.12127,15.770625 -33.05458,25.910605 5.53599,-10.73731 12.8013,-17.58796 22.95327,-24.197276 5.16399,-3.361325 10.62398,-5.933319 15.87997,-9.107977 3.15999,-1.907995 6.49865,-3.826657 9.46264,-5.997319 2.33333,-1.709329 4.88799,-3.70399 7.04931,-5.541319 1.54933,-1.315997 3.73066,-7.199982 4.95332,-7.709314 -3.03332,1.263997 -6.50265,2.099995 -9.73997,3.521324 -6.58798,2.893326 -13.59863,5.52532 -19.86795,8.957311 -5.70265,3.122659 -12.0893,6.130652 -16.26929,11.387972 2.07866,-3.067992 5.05998,-5.013321 7.78798,-7.573315 6.64131,-6.235984 13.20263,-10.951972 22.00128,-13.615966 7.48531,-2.266661 14.53596,-5.695985 21.73994,-8.691978 2.67066,-1.111997 8.84265,-2.838659 8.70398,-6.555983 -7.15198,-2.197328 -19.49462,-0.266666 -26.5306,1.995995 -4.44666,1.430663 -8.90798,3.397324 -13.1413,5.29332 6.33065,-5.734653 14.97729,-6.347984 22.90127,-8.667979 3.58,-1.047997 7.09865,-2.242661 10.64798,-3.363991 1.62133,-0.511999 8.11998,-1.879995 6.37998,-4.603989 -1.71466,-2.685326 -9.11864,-2.085328 -11.7893,-2.218661 -4.97466,-0.247999 -9.96664,-0.134666 -14.9253,0.343999 -4.08665,0.394666 -8.26798,1.045331 -12.35463,0.296 -2.952,-0.539999 -9.45731,-4.665322 -12.10664,-3.907991 2.86266,-0.818664 8.75464,2.187995 11.9973,2.503994 10.00664,0.975998 19.93862,-0.833331 29.87859,-1.18933 1.77467,-0.064 5.42666,0.178666 6.76665,-1.171997 -0.33333,-0.787998 -1.21333,-1.48133 -2.31466,-2.078662 -2.04799,-1.11333 -4.85732,-1.893328 -6.31198,-2.327994 M 203.05683,195.44351 c -0.0373,-0.016 -25.18127,-11.13064 -26.05861,-17.85995 -0.87866,-6.73465 -1.17199,-12.00531 -5.56398,-19.61729 -4.39199,-7.61331 -7.61198,-16.98262 -7.90532,-28.40126 -0.29333,-11.41864 -0.29333,-41.57723 4.39199,-51.238539 4.68533,-9.662643 20.92128,-32.481252 20.84128,-41.862562 -0.0787,-9.379977 6.47999,-24.914605 15.30397,-27.7212642 8.82264,-2.807993 31.78258,4.2906562 38.51723,12.1959692 6.73465,7.905314 28.69327,10.247975 28.69327,10.247975 0,0 10.0533,20.689281 10.1333,20.851948 -0.14533,-0.297333 -10.5453,8.294645 -11.43863,9.071977 -4.45866,3.877324 -8.79332,7.902647 -12.90131,12.150636 -7.54264,7.798647 -14.37329,16.407959 -23.05061,23.022609 -8.35064,6.365321 -13.69863,14.221301 -17.57995,23.970611 -1.412,3.54665 -2.62933,7.16798 -3.81199,10.79597 -3.20799,9.84131 -6.64132,19.63595 -8.99598,29.72926 -1.16266,4.98799 -2.06133,10.04531 -2.50133,15.15063 -0.404,4.69732 -0.89999,10.1693 0.236,14.79863 0.22667,0.92266 0.836,4.33732 1.69067,4.71465"
     style="clip-rule:evenodd;fill:#000000;fill-rule:nonzero;stroke-width:1.33333;stroke-linejoin:round;stroke-miterlimit:2"
     id="path85" /><path
     d="m 287.89116,48.234999 c 0.43903,6.775669 -4.45794,10.053739 -10.93552,7.320441 -6.47809,-2.732069 -12.08433,-10.442095 -12.52283,-17.218993 -0.43851,-6.776897 4.45792,-10.053739 10.93673,-7.319922 6.47636,2.73278 12.08434,10.442095 12.52162,17.218474"
     style="clip-rule:evenodd;fill:#fbb03b;fill-rule:nonzero;stroke-width:1.33333;stroke-linejoin:round;stroke-miterlimit:2"
     id="path86" /><path
     d="m 272.26599,53.096401 c 1.03733,0.413332 1.02666,1.847995 1.07599,2.825326 0.0733,1.450663 0.0933,2.331994 1.00933,3.565324 1.544,2.078662 4.82266,3.871991 6.15466,0.341333 0.27866,0.667998 0.25333,1.483996 0.22933,2.241327 0.65333,-0.851997 1.35866,-1.837328 1.61866,-2.882659 0.24,1.131997 0.296,1.15333 1.22133,0.710665 0.91333,-0.437332 2.24533,-1.930662 2.41733,-2.993326 0.032,0.575999 0.184,1.137331 0.292,1.694663 1.024,-0.863998 1.79066,-4.00799 1.56533,-5.321321 -2.312,1.438664 -4.06533,3.433325 -7.21465,3.05466 -1.74,-0.209333 -3.80133,-1.029331 -5.28532,-1.893329 -0.88,-0.513332 -1.85866,-1.258664 -3.08399,-1.342663"
     style="clip-rule:evenodd;opacity:0.2;fill:#000000;fill-rule:nonzero;stroke-width:1.33333;stroke-linejoin:round;stroke-miterlimit:2"
     id="path87" /><path
     d="m 278.0553,33.260317 c -0.94933,-0.653332 -1.93732,-1.20533 -2.94665,-1.630663 -2.98933,-1.26133 -5.67066,-1.219997 -7.54932,0.116 -1.77866,1.263997 -2.65333,3.589324 -2.46266,6.54665 0.42267,6.541317 5.86399,14.010632 12.1173,16.649292 2.98933,1.26133 5.67066,1.219997 7.55065,-0.116 1.77866,-1.263997 2.65199,-3.590657 2.46133,-6.547983 -0.35467,-5.483987 -4.23599,-11.621305 -9.17065,-15.017296 m -4.49732,21.17328 c -5.26932,-3.625324 -9.41197,-10.186641 -9.79064,-16.054626 -0.22267,-3.435992 0.84933,-6.177318 3.01999,-7.719981 2.26933,-1.614663 5.40932,-1.705329 8.83998,-0.258666 6.67598,2.817326 12.4773,10.79864 12.9293,17.790622 0.22267,3.437325 -0.85066,6.178651 -3.01999,7.721314 -2.27066,1.614663 -5.40932,1.705329 -8.83998,0.257333 -1.076,-0.453332 -2.12799,-1.041331 -3.13866,-1.735996"
     style="clip-rule:evenodd;fill:#000000;fill-rule:nonzero;stroke-width:1.33333;stroke-linejoin:round;stroke-miterlimit:2"
     id="path89" /><path
     d="m 287.33679,47.034056 c 0.3741,5.801713 -3.81806,8.610304 -9.36528,6.268396 -5.54827,-2.33945 -10.34971,-8.942574 -10.72504,-14.744806 -0.37604,-5.80398 3.81805,-8.610305 9.36632,-6.270853 5.546,2.341388 10.34917,8.943801 10.724,14.747263"
     style="clip-rule:evenodd;fill:#666666;fill-rule:nonzero;stroke-width:1.33333;stroke-linejoin:round;stroke-miterlimit:2"
     id="path90" /><path
     d="m 278.0908,39.201917 c 0.172,2.668793 -1.7566,3.960639 -4.30756,2.882796 -2.55201,-1.075386 -4.76205,-4.113555 -4.93527,-6.782867 -0.17148,-2.670021 1.75782,-3.96012 4.30983,-2.884735 2.55096,1.077843 4.76152,4.114784 4.933,6.784806"
     style="clip-rule:evenodd;fill:#c7c7c7;fill-rule:nonzero;stroke-width:1.33333;stroke-linejoin:round;stroke-miterlimit:2"
     id="path91" /><path
     d="m 275.55863,36.34297 c 0.10293,1.59472 -1.04836,2.365147 -2.5717,1.72254 -1.52405,-0.644353 -2.84274,-2.458168 -2.9467,-4.050432 -0.1024,-1.59595 1.05011,-2.365857 2.57345,-1.723251 1.52333,0.642607 2.84254,2.455194 2.94495,4.051143"
     style="clip-rule:evenodd;fill:#fafafa;fill-rule:nonzero;stroke-width:1.33333;stroke-linejoin:round;stroke-miterlimit:2"
     id="path92" /><path
     id="path2"
     style="clip-rule:evenodd;opacity:0.2;fill:#000000;fill-rule:nonzero;stroke-width:1.33333;stroke-linejoin:round;stroke-miterlimit:2"
     d="m 288.49219,53.265625 c -0.24622,-0.009 -0.49216,7.5e-4 -0.73633,0.03125 -1.01866,0.126667 -1.60076,0.724576 -1.60742,1.753906 -0.007,1.281331 0.13925,2.135602 -0.46875,3.322266 -0.58933,1.150664 -1.73136,2.202361 -2.80469,2.818359 -1.17866,0.675999 -2.34293,1.347445 -3.43359,2.16211 -0.91067,0.679998 -1.43358,0.743454 -2.51758,0.939453 -0.2609,0.04724 -0.52146,0.108185 -0.78125,0.173828 -1.42242,-2.582132 -4.90108,-4.156313 -7.6211,-5.060547 -0.54667,-0.181332 -1.19148,-0.177475 -1.77148,-0.244141 -1.344,-0.156 -2.60618,-0.539552 -3.96484,-0.574218 -1.048,-0.02667 -2.10916,0.295181 -3.14649,0.228515 -0.87466,-0.056 -1.59057,-0.264645 -2.5039,-0.195312 -2.23332,0.168 -4.45643,0.600913 -6.59375,1.267578 -3.58933,1.119997 -7.26663,2.471873 -10.75196,4.033203 -12.73063,5.702652 -19.57843,19.33316 -25.84375,31.091797 -1.69199,3.177326 -4.14076,6.309678 -5.24609,9.874998 -1.48533,4.79599 -0.97353,9.96471 -2.13086,14.72071 -0.988,4.06399 -2.47711,8.10257 -3.17578,12.22656 -0.35199,2.06933 -0.42766,4.39476 -0.625,6.49609 -0.164,1.74666 -0.20113,3.61428 -0.0625,5.46094 -0.29867,0.92533 -0.54625,1.79919 -0.76758,2.36719 -1.95866,5.05332 -4.88298,9.82841 -4.68164,15.45507 0.256,7.17998 0.0504,14.07357 1.70508,21.04688 1.00533,4.23733 2.4178,8.92526 4.34179,12.78125 0.81333,1.62933 1.56484,3.45506 2.6875,4.90039 1.072,1.38267 2.64348,2.26589 3.99415,3.33789 0.58093,0.46232 1.13671,0.8986 1.67578,1.35742 -1.54542,-1.03919 -3.08469,-2.08579 -4.61719,-3.14453 0,0 4.51742,20.58692 12.94141,27.24024 3.20133,2.52932 22.13064,18.15115 22.30664,18.06445 2.48133,-1.21733 5.85995,-1.74467 8.11328,-3.25 2.03333,-1.356 2.75281,-4.01916 4.63281,-5.53516 1.51402,-1.22114 1.11515,-1.81396 1.96094,-3.33984 0.44529,0.44716 0.93882,0.90401 1.57812,1.37695 2.27066,1.67999 5.35191,4.06922 8.36524,2.94922 1.64399,-0.612 -2.59447,-6.07244 -2.73047,-6.64844 -0.75067,-3.17732 2.69298,-1.60183 4.07031,-0.8125 1.12,0.64267 2.19192,1.35833 2.55859,2.70899 0.43066,1.584 -0.76012,3.13796 -0.32812,4.86328 1.35067,5.39866 8.56571,5.21258 11.70703,1.30859 2.144,-2.66399 -0.88551,-4.77071 -1.21484,-7.60937 -0.17467,-1.50667 -0.13516,-3.13009 0.32617,-4.60742 0.47334,-1.51599 1.76365,-2.66044 2.20898,-4.00977 -1.75466,0.56 -3.69585,0.73339 -5.61718,0.74805 -3.68667,0.028 -14.54149,-0.90883 -15.38282,-5.63282 -0.36133,-2.03066 1.51721,-3.65554 1.31055,-5.79687 -2.26,1.05466 -3.72072,1.49481 -4.99805,3.52148 -1.07333,1.70399 -1.68515,3.18244 -4.00781,3.48243 -4.24399,0.54534 -9.09722,-3.08648 -11.31055,-6.36914 -2.23866,-3.31866 -6.14529,-4.35621 -9.11328,-6.76954 -2.25466,-1.83333 -5.2132,-4.67218 -6.89453,-6.99218 -1.63332,-2.25199 -2.26064,-4.30752 -4.2793,-6.46485 -5.90399,-6.31332 -10.8314,-15.66289 -10.1914,-24.54687 6.10532,3.54133 13.39691,5.28846 19.85156,8.34179 -0.56266,-1.85066 -1.13045,-3.78382 -2.53711,-5.28515 -1.78666,-1.90933 -4.51582,-2.88713 -6.64648,-4.3418 -2.15333,-1.46799 -4.25432,-3.11465 -6.43164,-4.58398 -1.92267,-1.29866 -3.66808,-2.59058 -5.16407,-4.36524 -4.58266,-5.43865 -2.47838,-11.64904 2.57227,-16.0957 1.09867,-0.96799 2.6394,-2.43835 4.05273,-2.90234 1.64267,-0.54 3.61895,-0.24236 5.34961,-0.67969 -2.45332,-0.46267 -4.1225,-2.23765 -5.92383,-3.82031 -1.92,-1.68533 -3.98699,-2.77694 -3.73632,-5.6836 0.16267,-1.88799 1.34014,-4.18563 2.24414,-5.9043 1.57333,-2.99733 4.56685,-5.00569 7.21484,-7.06835 3.70532,-2.88399 7.29848,-5.93431 11.00781,-8.79297 1.81866,-1.40133 3.97073,-2.34368 6.02539,-3.40235 1.71067,-0.88133 3.52123,-1.63798 5.44922,-2.33398 2.83999,-1.02399 6.46403,-1.2608 8.83203,-2.85547 0.71333,-0.479998 -5.47211,-2.972058 -5.55078,-3.025391 -1.176,-0.810665 -1.66784,-1.591368 -1.97851,-3.082031 -0.63866,-3.063992 1.00364,-6.48861 2.43164,-9.085937 3.98399,-7.242649 9.91055,-14.994737 18.5332,-15.802735 1.03094,-0.09721 2.06792,-0.128915 3.10352,-0.164062 1.84302,1.182874 5.37084,2.873157 5.72461,3.107422 1.76267,1.163998 3.71307,2.81688 4.5664,4.796875 0.93466,2.165328 0.25908,4.454155 -2.40625,3.910156 -1.53866,-0.313332 -3.02254,-0.857345 -4.5332,-1.277344 -2.50266,-0.697331 -5.13984,-1.101053 -7.70117,-1.511719 -1.95999,-0.314666 -3.9479,-0.672187 -5.94922,-0.492187 -0.97467,0.08667 -6.90069,0.725598 -6.80469,2.433594 1.28533,-0.354666 2.6952,-0.169683 4.00586,-0.291016 3.11066,-0.287999 6.27023,-0.482246 9.35156,0.09375 3.02399,0.566665 5.93568,1.61979 8.76367,2.814453 2.75599,1.162664 6.64755,3.519101 7.93555,6.371094 1.46133,3.234659 0.89354,9.689819 -1.81445,12.257808 -2.03067,1.92533 -6.28773,1.00093 -8.65039,0.1836 -2.69466,-0.93333 -4.83959,-3.065488 -7.54492,-4.021486 -2.74266,-0.969331 -5.70994,0.349639 -7.94727,2.042968 -0.7,0.529332 -0.68584,1.031688 0.1875,1.179688 1.75599,0.29466 3.22428,-0.760131 4.84961,-0.966797 1.48933,-0.189333 3.34225,0.400284 4.62891,1.126957 1.308,0.74 2.62415,1.80599 3.88281,2.61132 2.52799,1.61733 4.83007,2.64532 7.91406,2.94532 1.88266,0.18266 3.85356,0.18496 5.32422,1.51562 1.52933,1.38133 3.03225,3.54125 4.01758,5.36524 0.724,1.336 1.00162,2.95933 1.76562,4.25 0.69333,1.17066 1.88471,1.8889 2.35938,3.26757 0.32266,0.93599 0.6989,1.9505 0.8789,2.92383 0.98,-2.49066 0.43448,-5.24661 0.86914,-7.83594 0.308,-1.82532 0.73704,-3.67046 2.09571,-4.95312 1.38933,-1.312 3.13765,-2.17834 4.59765,-3.40234 2.83199,-2.37333 6.45231,-4.43992 10.18164,-4.78125 1.80666,-0.16667 3.94271,0.33832 5.60938,0.84765 2.86265,0.87333 4.87306,3.45971 6.15039,5.95703 0.22267,0.43734 0.56964,1.61922 1.04297,1.83789 0.792,0.36533 1.6354,-0.50803 1.91406,-1.19336 0.54933,-1.35332 0.93776,-4.34593 0.73242,-5.80859 -1.35999,1.04133 -1.4239,1.37928 -3.22656,0.50195 -1.55066,-0.75466 -2.71484,-2.03599 -4.29883,-2.72265 -1.53867,-0.66667 -3.10698,-1.39581 -4.68164,-2.007814 -3.41199,-1.32533 -6.19133,0.301904 -8.97265,2.337894 -1.28267,0.93867 -2.81514,2.1528 -4.48047,1.99414 -2.22933,-0.21334 -5.35736,-1.36975 -7.41602,-2.31641 -1.92,-0.88267 -2.84899,-2.612557 -2.84766,-4.699218 10e-4,-1.867996 0.67784,-3.56599 1.17383,-5.333984 0.428,-1.52533 -0.13847,-3.142676 0.26953,-4.638672 0.472,-1.733329 2.13351,-2.979435 3.57618,-3.884766 4.07732,-2.55866 8.85461,-4.338869 13.69726,-3.908203 2.19466,0.194666 3.66847,0.567414 5.48047,1.830078 0.584,0.405332 6.03352,3.983187 5.99219,4.367187 0.24158,-2.214426 -1.12801,-4.032311 -2.99805,-5.474609 0.8613,-0.781511 0.80835,-3.385543 0.43555,-4.166015 -0.68133,-1.423997 -2.602,-2.866498 -3.75,-3.923829 -3.25999,-3.001326 -6.92117,-5.519996 -10.42383,-8.222656 -1.83733,-1.417329 -3.63336,-3.072066 -5.33203,-4.664062 -1.95199,-1.829329 -4.14654,-3.02694 -6.5332,-4.210938 -1.45133,-0.720997 -3.20032,-1.673127 -4.92383,-1.736328 z m 9.17773,14.865234 c 1.47136,-0.08343 2.95871,0.399712 4.64453,1.734375 1.95466,1.545329 3.94732,3.738607 6.19532,4.835938 0.73999,0.361332 1.54573,0.301412 2.3164,0.580078 1.20533,0.438666 2.2403,1.301272 3.4043,1.835938 0.99866,0.459383 1.87733,1.050512 2.70703,1.710937 -1.55509,-0.877817 -3.17739,-1.555614 -4.41797,-2.021484 -4.35466,-1.635996 -7.94052,-0.183823 -11.72851,2.076171 -1.68666,1.006665 -3.10964,2.231159 -4.9043,3.035157 -2.84933,1.274664 -6.64786,-0.941576 -7.61719,-3.740235 -1.27467,-3.679991 0.40226,-5.676775 3.40625,-7.523437 2.235,-1.373997 4.10239,-2.41617 5.99414,-2.523438 z m -3.1543,56.083981 c -0.0493,0.74266 -0.29164,1.48399 -0.43164,2.22266 -0.11867,0.62266 -0.17182,1.29505 -0.28515,1.90039 -0.18267,0.97733 -0.61464,2.20228 -0.94531,3.09961 -0.37199,1.01467 -0.48208,1.44812 -1.69141,1.68945 -1.712,0.34134 -3.47934,0.3086 -5.25,0.3086 -2.83333,0 -5.75839,0.27411 -8.51172,-0.56055 -2.94533,-0.89333 -5.26986,-3.18675 -7.72851,-4.94141 -5.00399,-3.57066 -12.47887,-3.42776 -18.35352,-2.39843 -2.32933,0.408 -4.62033,1.01567 -6.95898,1.40234 -2.75599,0.45599 -4.06926,0.92393 -5.91993,2.91992 -1.72533,1.86266 -3.6141,3.98237 -6.02343,4.95703 -3.41733,1.38133 -7.76003,0.88736 -11.41602,0.44336 1.41599,2.37866 3.2614,5.00884 5.30273,6.91016 4.88932,4.55333 14.24501,8.63095 20.70899,9.76562 3.24533,0.56933 6.56752,0.66187 9.82617,1.14453 4.66266,0.69068 9.01471,-0.50845 13.69336,-0.20312 0.17734,1.56933 -1.22288,3.73358 -0.32422,5.01758 1.52533,2.17866 7.03928,-3.81793 8.36328,-5.16992 2.19599,-2.23733 11.11009,-19.63816 14.96875,-11.32618 0.75599,1.62933 1.21152,3.37506 1.60352,5.12305 0.176,0.79067 0.51461,1.71011 0.47461,2.52344 -0.0387,0.78134 -0.10418,1.50869 -0.0469,2.30469 0.272,3.82666 1.18039,7.57816 1.40039,11.41015 0.364,-1.196 0.30541,-2.78802 0.30274,-4.05469 -0.003,-1.15333 -0.05,-2.30574 -0.0527,-3.45507 -0.007,-2.19199 -0.10457,-4.35455 0.10742,-6.53321 0.14401,-1.492 0.29429,-3.34399 0.87696,-4.72265 0.92266,-2.17866 2.53273,-4.72408 4.6914,-5.85742 0.11066,1.55467 -0.83604,3.23346 -1.24804,4.60546 -0.576,1.91466 -1.12586,4.07116 -0.64453,5.89649 0.33733,1.27867 0.86161,2.49342 1.34961,3.71875 0.37067,0.92933 0.63026,2.36368 1.82226,2.54101 1.284,0.18934 2.75284,0.11124 4.04883,0.11524 1.04667,0.003 2.05348,-0.27855 3.02148,-0.58789 0.67333,-0.21466 2.15239,-0.52463 2.62305,-1.14063 -0.524,-0.61999 -1.64064,-0.82351 -1.41797,-1.96484 0.11333,-0.58933 0.74299,-0.67647 1.23633,-0.75781 0.62666,-0.104 1.18726,-0.31366 1.80859,-0.45899 1.064,-0.24933 2.43387,-0.7034 2.28321,-2.05273 -0.0173,-0.16133 3.66645,-0.96502 4.09179,-1.04102 1.24933,-0.224 2.94352,-0.19668 4.10352,-0.66601 1.372,-0.556 1.66815,-1.96133 2.02148,-3.22266 1.34933,-4.81332 4.60827,-8.81599 0.84961,-13.44531 -1.10266,-1.35866 -2.23904,-3.30839 -3.8457,-4.03906 -3.83466,-1.74533 -7.14792,-0.30396 -10.41992,1.38671 -2.99732,1.54933 -5.62246,3.74713 -8.67578,5.20313 -0.39333,0.188 -0.8233,0.39542 -1.2793,0.60742 -2.28933,1.06667 -5.20873,2.19898 -7.27539,0.95899 -3.01866,-1.81067 -2.72728,-4.35234 -2.72461,-7.59766 0,-0.628 0.0213,-1.36519 -0.10938,-1.97852 z m 32.28711,35.35547 c -0.628,0.95733 -1.39637,1.8187 -1.98437,2.83203 -1.19333,2.05333 -2.86487,3.72488 -4.6582,5.29688 -0.52667,0.46266 -1.16116,0.81814 -1.78516,1.13281 -1.43866,0.72666 -3.24717,1.15952 -4.8125,1.46485 -1.388,0.27065 -2.83725,-0.0302 -4.14258,-0.43555 -1.112,-0.34533 -2.54518,-0.93455 -2.83984,-2.17188 -0.18667,1.30533 -0.36422,2.61378 -0.46289,3.92578 -0.048,0.64667 -0.0389,1.142 -0.29492,1.75 -0.23733,0.56133 -0.51499,1.10583 -0.73633,1.67383 -1.01466,-0.40933 -1.23654,-1.50868 -1.78321,-2.38867 -0.70266,-1.12934 -1.3112,-1.56196 -2.42187,-2.2793 -1.13066,-0.72933 -4.46067,-2.61225 -4.88867,-4.15625 -1.15333,0.728 -2.19802,0.78526 -3.52735,0.91993 -1.31999,0.132 -1.53309,0.53443 -2.48242,0.89843 -1.252,0.48 -2.8922,1.34042 -3.54687,2.59375 -0.24933,0.47867 -0.75248,3.32606 -0.25782,3.63672 -2.02799,-1.27199 -5.44371,-3.30067 -7.23437,0.0274 -2.45199,4.55732 4.56228,5.32631 4.73828,8.93164 0.332,6.79598 -7.17682,4.10282 -10.77148,4.16015 0.0187,0.476 0.88609,0.88083 1.24609,1.04883 0.63333,0.29733 1.38294,0.47801 0.48828,1.02734 -0.58267,0.35734 -1.32989,0.65175 -1.97656,0.84375 -2.08666,0.62133 -4.1337,0.45394 -6.20703,1.16993 -1.92933,0.66667 -3.96236,0.70525 -5.90235,0.28125 -3.92266,-0.85733 -6.52635,-3.46171 -8.90234,-6.70703 -0.812,-1.10933 -1.80558,-2.18952 -2.51758,-3.35352 -2.89066,1.96399 3.5116,7.99459 5.04492,9.05859 1.94667,1.34933 8.32717,3.66787 4.95118,6.89453 -2.17333,2.07866 -5.68486,0.63514 -7.96485,-0.38086 -2.46666,-1.09865 -5.41903,-3.01107 -7.20703,-5.03906 1.02,5.67732 6.67801,9.17871 12.11133,9.60938 2.43199,0.19466 4.06365,-0.1902 6.29297,-1.38086 2.85733,-1.528 4.36624,-4.75691 7.85156,-5.26758 2.72933,-0.39866 6.28919,0.0645 8.97852,0.45117 1.27866,0.18266 2.59196,0.0859 3.89062,0.0312 2.06933,-0.088 3.792,-0.0776 5.72266,0.65039 0.576,0.21867 1.14224,0.55071 1.76757,0.60938 1.86933,0.17467 3.4047,-0.79494 5.16602,-1.21094 1.61467,-0.38267 3.50341,-0.63481 5.05274,-0.0215 1.38666,0.54933 3.19495,2.45195 2.12695,4.11328 -1.63466,2.54532 -7.87828,0.25209 -10.09961,0.0254 -1.4,-0.144 -2.82715,-0.15244 -4.25781,-0.14844 -0.544,0.001 -1.08686,0.005 -1.63086,0.002 -2.03733,-0.008 -3.66901,-0.844 -5.625,-1.27734 -2.724,-0.60399 -7.58664,-2.06083 -10.30664,-1.1875 -0.0613,0.0693 -0.10305,0.14833 -0.12305,0.23633 1.85332,2.01999 3.29046,4.12673 3.5918,7.02539 0.244,2.35199 1.05534,4.75079 1.16601,7.05078 3.64532,-0.91999 6.99959,-1.61809 10.76758,-1.74609 2.32533,-0.08 5.42681,-0.64183 7.60547,0.1875 2.78533,1.06 4.30828,3.64173 4.62695,6.53906 0.24,2.17332 1.06685,6.02431 -1.14648,7.54297 -2.79066,1.91067 -4.82322,-0.37954 -6.78321,-1.65821 0.91999,1.62267 0.96033,3.69355 1.23633,5.54688 0.48667,3.26532 1.29257,7.51991 -1.10742,10.36523 -0.57867,0.68534 -1.28212,1.28003 -2.07812,1.69336 -0.38933,0.20267 -0.80185,0.36228 -1.22852,0.46094 -0.24,0.0547 -0.98908,0.25622 -1.20508,0.10156 1.28933,0.924 2.64147,0.71336 4.10547,0.69336 -1.76267,1.69199 -3.77602,2.89217 -5.91602,3.79883 0.51601,0.52534 1.04941,0.77839 1.80274,0.78906 -1.92666,-0.028 -3.42878,2.69252 -5.43945,3.08985 -2.36399,0.468 -5.47151,-0.27172 -7.6875,-1.09571 4.29732,2.64932 10.85309,3.78708 14.98242,0.59375 2.29332,-1.77199 5.12025,-4.66079 5.79492,-7.57812 0.772,-3.34399 -1.03399,-6.52943 1.02734,-9.85742 1.21867,-1.968 2.66395,-3.7791 4.33594,-5.3711 2.24533,-2.13866 5.85914,-3.55237 7.70313,-5.98437 1.968,-2.59599 2.8249,-7.75629 2.76757,-10.84961 -0.0733,-4.00133 -2.39387,-7.19622 -4.50585,-10.32422 0.99732,0.86533 3.5811,0.48603 4.89843,0.44336 -0.89866,-1.744 -2.1488,-2.83133 -1.35547,-5.11133 0.732,-2.10133 2.68024,-3.15061 4.37891,-1.61328 2.16932,1.96266 1.60899,6.18129 0.0957,8.39062 0.448,0.26667 1.49053,-0.26627 1.89453,-0.5996 1.35199,-1.11066 1.51647,-3.691 1.61914,-5.23633 0.128,-1.91733 -0.0304,-3.87635 0.26563,-5.79102 0.62267,-4.02532 1.59658,-7.17923 3.25391,-11.06055 0.90933,-2.128 2.12832,-4.13073 3.23632,-6.16406 0.64,-1.17466 1.26466,-2.35841 1.83399,-3.5664 0.484,-1.02667 1.03118,-1.8286 1.22851,-2.94727 0.128,-0.72666 0.37193,-1.40085 0.5586,-2.10352 0.23733,-0.89466 0.62431,-2.89559 -0.40235,-3.54492 z m -48.21875,4.64844 c -1.33353,3.25744 -3.61438,6.04064 -4.35937,9.49609 -0.51513,2.39063 1.6105,4.27142 3.39453,5.58008 -1.72147,-1.26324 -2.21582,-3.87601 -2.03711,-6.04101 0.26189,-3.17241 3.29422,-5.75379 3.00195,-9.03516 z m -41.40429,4.58203 c -0.89059,-7.1e-4 -1.69826,0.32056 -1.98242,1.35547 -0.36933,1.34933 0.39553,3.65929 0.79687,5.14063 0.304,1.11866 0.86696,2.13866 1.26563,3.22265 0.31733,0.86267 0.47409,1.77809 0.88476,2.60742 0.82,1.65999 1.73937,1.7771 2.7207,0.89844 1.192,-1.068 0.1436,-3.13326 0.1543,-4.78125 0.012,-1.82133 0.9996,-3.49056 0.32227,-5.44922 -0.63333,-1.83199 -1.41084,-2.45808 -2.9375,-2.83008 -0.39834,-0.0975 -0.8198,-0.16374 -1.22461,-0.16406 z m 7.71875,57.60156 c 2.09141,1.24511 4.1222,2.63233 6.35937,3.64063 2.21996,1.00061 3.20929,2.11691 4.22071,3.33008 -3.60097,-2.42828 -7.09401,-4.71748 -10.58008,-6.97071 z" /><path
     id="path26"
     style="clip-rule:evenodd;fill:#ffffff;fill-rule:nonzero;stroke-width:1.33333;stroke-linejoin:round;stroke-miterlimit:2"
     d="m 312.81055,136.35938 c 0,0 -6.24859,1.47385 -7.53125,2.72851 -1.28267,1.256 -1.9095,4.01108 -1.9375,4.09375 0,0 0.13696,0.8438 0.65429,0.95313 0.51867,0.10933 3.35652,1.91208 4.36719,1.85742 0.724,-0.04 5.63747,-0.0281 6.4668,-0.21875 0.83066,-0.192 1.74609,-0.63867 1.74609,-0.63867 0.58266,-0.172 1,-0.70118 1,-0.70118 l 2.37695,-2.60156 -0.29492,-4.59961 z m -56.85157,0.61132 -4.40039,2.05274 -0.2539,0.50781 4.86523,4.38086 c 0,0 10.78279,1.73673 13.05078,1.91406 2.26933,0.176 4.39649,-1.42773 4.39649,-1.42773 l 3.27734,-0.0273 1.11719,-1.40039 -2.75586,-2.96289 -5.17578,-2.78515 z" /><path
     d="m 260.03268,136.90099 c -0.336,0.76133 -0.52666,1.60133 -0.52666,2.48666 0,2.06266 1.04133,4.08532 2.60132,5.20799 l 5.83866,0.54666 c 2.31332,-0.89599 3.95599,-3.13199 3.95599,-5.75465 0,-0.77333 -0.148,-1.50933 -0.408,-2.19199 -2.86399,-0.88667 -8.16931,-0.59733 -11.46131,-0.29467"
     style="clip-rule:evenodd;fill:#754324;fill-rule:nonzero;stroke-width:1.33333;stroke-linejoin:round;stroke-miterlimit:2"
     id="path28" /><path
     d="m 262.26601,144.18364 5.61732,0.52533 c 2.18533,-0.888 3.59199,-2.96532 3.59199,-5.32132 0,-0.62266 -0.104,-1.24266 -0.30933,-1.84399 -2.81466,-0.78534 -7.86798,-0.504 -10.83731,-0.24134 -0.26266,0.668 -0.39466,1.368 -0.39466,2.08533 0,1.856 0.91199,3.72533 2.33199,4.79599 m 5.73999,1.392 -6.05332,-0.56667 -0.0947,-0.068 c -1.68799,-1.21333 -2.77866,-3.39332 -2.77866,-5.55332 0,-0.91866 0.18934,-1.81333 0.56267,-2.65733 l 0.10266,-0.22933 0.24934,-0.0227 c 3.73865,-0.34267 8.78797,-0.56667 11.62663,0.31199 l 0.19867,0.0613 0.0747,0.19333 c 0.28933,0.75867 0.436,1.548 0.436,2.34266 0,2.74266 -1.66,5.15732 -4.22933,6.15199 z"
     style="clip-rule:evenodd;fill:#000000;fill-rule:nonzero;stroke-width:1.33333;stroke-linejoin:round;stroke-miterlimit:2"
     id="path30" /><path
     d="m 279.4833,139.41298 c -0.39866,-0.61866 -1.05866,-1.07733 -1.58133,-1.61066 -0.59333,-0.60533 -1.20533,-1.19199 -1.84133,-1.75199 -1.26533,-1.11333 -2.69599,-2.29066 -4.33065,-2.804 -3.28399,-1.02933 -12.4933,-2.21332 -14.47197,-1.47066 0,0 11.18798,0.44133 13.64397,2.44666 0.27333,0.22267 0.552,0.44133 0.83066,0.656 1.47067,1.13466 2.984,2.21999 4.53333,3.24399 0.77199,0.51067 1.78532,0.788 2.19599,1.692 0.144,0.32 0.22267,0.66533 0.3,1.00666 0.13067,0.58533 0.46667,1.37333 0.36667,1.968 -0.064,0.37866 -0.41334,0.54133 -0.64934,0.79999 -0.12533,0.136 -0.61333,0.56534 -0.57466,0.72934 0.04,0.168 0.396,0.244 0.556,0.232 0.29466,-0.024 0.87333,-0.348 1.08666,-0.58934 0.85333,-0.96399 0.36267,-2.20399 0.25333,-3.33465 -0.0453,-0.464 -0.0413,-0.77334 -0.31733,-1.21334"
     style="clip-rule:evenodd;fill:#000000;fill-rule:nonzero;stroke-width:1.33333;stroke-linejoin:round;stroke-miterlimit:2"
     id="path33" /><path
     d="m 312.00855,136.90766 c -1.08133,0.468 -3.02132,0.45866 -3.78132,0.86666 -1.38533,0.74267 -1.956,0.93733 -3.19066,3.08933 0.25733,2.37199 1.58,4.07065 3.32933,4.79999 l 6.01331,-0.22134 c 1.536,-1.18799 2.44,-3.32266 2.44,-5.50798 0,-0.93733 -0.23333,-2.456 -0.564,-3.23466 -1.21333,0.001 -2.70666,0.19866 -4.24666,0.208"
     style="clip-rule:evenodd;fill:#754324;fill-rule:nonzero;stroke-width:1.33333;stroke-linejoin:round;stroke-miterlimit:2"
     id="path34" /><path
     id="path29"
     style="clip-rule:evenodd;fill:#000000;fill-rule:nonzero;stroke-width:1.33333;stroke-linejoin:round;stroke-miterlimit:2"
     d="m 265.70508,136.75977 c -1.456,0 -2.63867,1.17496 -2.63867,2.62695 0,1.452 1.18267,2.6289 2.63867,2.6289 1.456,0 2.63672,-1.1769 2.63672,-2.6289 0,-1.45199 -1.18072,-2.62695 -2.63672,-2.62695 z m 45.63086,1.0957 c -1.53732,0 -2.78125,1.2465 -2.78125,2.78515 0,1.53734 1.24393,2.78321 2.78125,2.78321 1.53733,0 2.78515,-1.24588 2.78515,-2.78321 0,-1.53866 -1.24782,-2.78515 -2.78515,-2.78515 z" /><path
     id="path31"
     style="clip-rule:evenodd;fill:#ffffff;fill-rule:nonzero;stroke-width:1.33333;stroke-linejoin:round;stroke-miterlimit:2"
     d="m 309.10742,137.19727 c -0.84267,0 -1.52734,0.68468 -1.52734,1.52734 0,0.84267 0.68467,1.52539 1.52734,1.52539 0.84266,0 1.52735,-0.68272 1.52735,-1.52539 0,-0.84266 -0.68469,-1.52734 -1.52735,-1.52734 z m -45.70117,0.0723 c -0.79867,0 -1.44727,0.64541 -1.44727,1.44141 0,0.796 0.6486,1.4414 1.44727,1.4414 0.79866,0 1.44727,-0.6454 1.44727,-1.4414 0,-0.796 -0.64861,-1.44141 -1.44727,-1.44141 z" /><path
     id="path32"
     style="clip-rule:evenodd;fill:#000000;fill-rule:nonzero;stroke-width:1.33333;stroke-linejoin:round;stroke-miterlimit:2"
     d="m 254.67578,135.26562 c -2.796,-0.15199 -6.66601,2.35352 -6.66601,2.35352 0,0 5.88698,6.04511 8.68164,6.53711 l -3.48633,-4.57617 c 0,0 1.54837,-1.82055 4.3457,-1.83789 2.79866,-0.0173 10.36664,0.39794 12.66797,0.86328 1.28666,0.26133 2.51442,1.05917 3.62109,1.72851 0.67733,0.41066 1.34329,0.84125 2.00196,1.28125 0.588,0.392 1.28126,0.76614 1.69726,1.35547 0.20666,0.292 0.0685,0.61703 0.0645,0.95703 0.25066,-0.196 0.43103,-0.41729 0.48437,-0.66796 0.0387,-0.18533 0.009,-0.38743 -0.11719,-0.60743 -0.184,-0.32 -0.47172,-0.55943 -0.65039,-0.88476 -0.17067,-0.30934 -0.41752,-0.59758 -0.63086,-0.87891 -0.51333,-0.67466 -1.07035,-1.31754 -1.67968,-1.9082 -1.312,-1.26933 -2.93263,-2.35066 -4.7793,-2.58399 -4.76932,-0.60133 -12.75737,-0.97753 -15.55469,-1.13086 z m 62.07617,0.10157 c -1.25774,0.009 -2.63684,0.0447 -4.07617,0.125 -2.37066,0.13334 -6.17045,2.16979 -6.95312,2.70312 -0.78133,0.532 -2.16797,4.03321 -2.16797,4.03321 0,0 2.95289,-3.62927 4.35156,-4.19727 1.39733,-0.56666 4.91581,-1.43138 8.36914,-0.99805 2.83199,0.35467 2.34028,1.43656 2.34961,3.69922 0.009,2.26399 -2.30664,4.4668 -2.30664,4.4668 3.40932,-0.71333 5.22852,-4.14844 5.22852,-4.14844 l 1.66601,-5.49023 c 0,0 -2.6877,-0.21942 -6.46094,-0.19336 z" /><path
     d="m 305.4859,140.95698 c 0.256,1.97733 1.35333,3.55999 2.96133,4.26799 l 5.77198,-0.21067 c 1.33867,-1.10133 2.16533,-3.03199 2.16533,-5.07865 0,-0.76666 -0.176,-2.10266 -0.43466,-2.79333 -1.36533,0.005 -5.03066,0.192 -5.72666,0.304 -0.65866,0.108 -1.47333,0.544 -1.78932,0.712 l -0.268,0.144 c -1.14933,0.608 -1.63867,0.868 -2.68,2.65466 m 2.80133,5.14532 -0.088,-0.036 c -1.992,-0.82933 -3.33466,-2.75599 -3.59599,-5.15465 l -0.0147,-0.14134 0.0707,-0.12266 c 1.21466,-2.11733 1.88399,-2.472 3.09866,-3.11466 l 0.26533,-0.14133 c 0.46,-0.24667 1.19466,-0.328 1.968,-0.45334 0.67866,-0.11066 1.38132,-0.22533 1.86132,-0.43199 l 0.0813,-0.036 h 0.0893 c 1.32266,-0.009 2.76133,-0.208 4.27466,-0.20934 h 0.25866 l 0.1,0.23334 c 0.364,0.85866 0.59867,2.47332 0.59867,3.44132 0,2.36533 -1,4.60799 -2.60933,5.85199 l -0.11067,0.0853 z"
     style="clip-rule:evenodd;fill:#000000;fill-rule:nonzero;stroke-width:1.33333;stroke-linejoin:round;stroke-miterlimit:2"
     id="path37" /></g></svg>
