<?xml version="1.0" encoding="UTF-8" standalone="no"?>
<svg
   width="100%"
   height="100%"
   viewBox="0 0 400 400"
   version="1.1"
   xml:space="preserve"
   style="fill-rule:evenodd;clip-rule:evenodd;stroke-linejoin:round;stroke-miterlimit:2;"
   id="svg18"
   sodipodi:docname="NapeanForehead.svg"
   inkscape:version="1.4 (e7c3feb1, 2024-10-09)"
   xmlns:inkscape="http://www.inkscape.org/namespaces/inkscape"
   xmlns:sodipodi="http://sodipodi.sourceforge.net/DTD/sodipodi-0.dtd"
   xmlns="http://www.w3.org/2000/svg"
   xmlns:svg="http://www.w3.org/2000/svg"><defs
   id="defs18">
                
            
                
            
                
            
                
            
                
            
                
            
                
            
                
            
                
            
                    
                
                    
                
                    
                
                    
                
                    
                
                    
                
                    
                
                    
                
            
            
            
            
            
            
            
            
            
        
        
    </defs><sodipodi:namedview
   id="namedview18"
   pagecolor="#ffffff"
   bordercolor="#666666"
   borderopacity="1.0"
   inkscape:showpageshadow="2"
   inkscape:pageopacity="0.0"
   inkscape:pagecheckerboard="0"
   inkscape:deskcolor="#d1d1d1"
   inkscape:zoom="4.7"
   inkscape:cx="275.74468"
   inkscape:cy="98.617021"
   inkscape:window-width="1440"
   inkscape:window-height="810"
   inkscape:window-x="2817"
   inkscape:window-y="185"
   inkscape:window-maximized="0"
   inkscape:current-layer="layer5" />
    
<g
   inkscape:groupmode="layer"
   id="layer5"
   inkscape:label="Napean Forehead"><path
     d="m 249.10471,34.863913 c -1.496,0.942664 -3.00799,2.229328 -4.68532,3.934657 -5.54665,5.641319 -9.93464,11.99997 -12.4013,19.579951 -2.06133,6.333317 -2.932,12.994634 -3.36799,19.639951 -0.47067,7.171982 -0.44534,14.365297 -0.248,21.547946 0.172,6.295982 1.60666,13.347962 0.37466,19.546622 -0.98933,4.97865 -2.58266,11.2613 1.58266,15.28262 3.58133,3.45733 6.27999,0.952 19.71862,-2.37866 13.43997,-3.33066 26.17594,-0.476 29.2506,1.06133 3.07465,1.53733 5.92931,3.29333 9.44264,1.09733 3.51332,-2.19599 14.93196,-4.17199 13.83463,-1.53732 -1.09866,2.63599 3.95199,0.21999 7.68531,-0.43867 3.73333,-0.65867 10.97998,-1.75733 12.95597,-1.31733 1.97733,0.43867 3.73333,-4.39199 3.73333,-9.66264 0,-5.27066 -4.39199,-31.402591 -7.68532,-40.845234 -2.29199,-6.567984 -8.13331,-12.415969 -12.9053,-17.237291 -1.77466,-1.791995 -3.81599,-3.381324 -5.53065,-5.219986 -1.276,-1.36933 -1.724,-3.074659 -3.03999,-4.417323 -4.87599,-4.966654 -24.41994,-18.801286 -35.17992,-20.337282 -6.02131,-0.861331 -9.72131,-0.701332 -13.53463,1.701329"
     style="fill-rule:nonzero;clip-rule:evenodd;stroke-linejoin:round;stroke-miterlimit:2;fill:#cd976d;stroke-width:1.33333"
     id="path1" /><path
     id="path2"
     style="fill-rule:nonzero;clip-rule:evenodd;stroke-linejoin:round;stroke-miterlimit:2;opacity:0.2;fill:#000000;stroke-width:1.33333"
     d="M 262.39844 37.265625 C 259.17984 37.254102 256.41781 38.458211 254.78906 41.720703 C 251.25707 48.794018 250.67456 55.760092 250.72656 63.441406 C 250.7679 69.532058 252.00346 76.828671 257.43945 80.611328 C 259.15678 81.805992 262.31873 83.34778 263.30273 80.814453 C 264.22273 78.446459 261.69615 74.889677 260.88281 72.791016 C 259.12815 68.26036 256.98815 64.141535 258.02148 59.185547 C 259.37081 52.717564 263.3936 44.885337 270.43359 44.138672 C 276.54691 43.490674 283.99443 48.82137 287.84375 53.193359 C 291.42641 57.262683 292.00461 62.786768 292.72461 67.857422 C 292.89794 69.073419 292.40522 70.026992 292.44922 71.097656 C 292.51588 72.712318 293.56264 73.51832 294.89062 74.708984 C 293.40263 77.071644 294.19408 77.004119 295.83008 79.050781 C 295.46208 79.321447 295.18525 80.034792 294.78125 80.328125 C 295.18258 81.226789 295.87349 82.090387 296.66016 82.511719 C 295.95883 82.737052 295.81872 83.239668 295.38672 83.625 C 296.02405 84.044999 296.67877 84.504601 297.27344 84.947266 C 294.18411 86.320596 297.58994 88.279696 298.22461 89.818359 C 299.21258 92.214353 297.56384 95.175824 298.20117 97.646484 C 301.03583 94.225159 305.59603 90.587186 306.33203 86.144531 C 309.00402 70.007238 295.68547 54.39538 283.07617 46.052734 C 278.77059 43.203741 269.47936 37.290976 262.39844 37.265625 z M 248.80469 38.431641 C 248.80469 38.431641 242.43577 49.852406 240.89844 64.345703 C 239.36111 78.839 240.89895 88.808672 243.97461 93.111328 C 247.04927 97.413983 254.30629 102.13938 270.54492 109.58203 C 275.88224 112.02869 280.18227 117.75223 282.18359 123.18555 C 282.89959 125.12954 283.69476 129.35806 280.63477 129.13672 C 278.73344 128.99806 277.53361 127.53241 275.48828 127.59375 C 270.10296 124.62442 264.28943 123.3727 257.55078 124.08203 C 248.50547 125.03536 240.7061 130.73321 232.57812 134.17188 C 234.34878 138.22386 247.41279 132.67757 250.07812 132.01758 C 263.5181 128.68692 276.25346 131.5408 279.32812 133.07812 C 280.61879 133.72346 289.36154 136.94788 286.54688 133.94922 C 286.76288 130.8799 286.29316 127.66051 285.28516 124.50586 C 282.7865 116.68721 277.03557 109.27957 270.54492 105.62891 C 260.00494 99.69959 248.1457 91.575477 247.70703 84.548828 C 247.26703 77.520846 241.55804 52.266273 248.80469 38.431641 z M 306.0957 64.203125 C 306.51093 65.338744 307.07943 66.368988 307.70703 67.359375 C 307.28269 66.271294 306.78602 65.206299 306.0957 64.203125 z M 307.70703 67.359375 C 308.61372 69.684281 309.16043 72.12725 310.3457 74.390625 C 313.19636 79.831944 315.85597 86.908677 313.80664 93.111328 C 312.93864 95.735321 310.94873 98.239185 309.41406 100.58984 C 307.58607 103.38717 307.321 106.95973 305.125 109.51172 C 302.68234 112.35305 301.84353 116.30456 300.1582 119.56055 C 298.71953 122.34054 296.09523 127.993 298.47656 130.84766 C 301.76188 129.64367 301.51988 126.41872 302.17188 123.52539 C 303.58653 117.25074 307.23754 113.813 311.35352 109.26367 C 316.49485 103.58369 319.24999 93.514128 316.61133 86.132812 C 315.10467 81.916822 314.00005 77.520365 311.80273 73.484375 C 310.61609 71.305868 309.01813 69.428351 307.70703 67.359375 z M 228.33984 85.658203 C 228.23717 90.292858 228.27564 94.931751 228.40234 99.566406 C 228.57567 105.86239 230.00934 112.91462 228.77734 119.11328 C 228.40934 120.96394 227.95862 122.99606 227.75195 125.02539 C 229.30128 122.6934 231.19042 120.56718 231.98242 117.86719 C 233.28508 113.43253 233.40073 108.67284 232.91406 104.10352 C 232.37273 99.020858 231.27857 93.691737 229.64258 88.84375 C 229.50791 88.445084 229.00517 87.196866 228.33984 85.658203 z M 265.75586 89.181641 C 265.12386 92.970965 267.10581 96.419773 271.20312 99.259766 C 277.38844 104.09975 284.71472 110.28881 287.02539 118.07812 C 286.26405 112.57948 284.56291 108.24107 281.15625 103.70508 C 278.02825 99.539759 273.68941 97.538981 269.99609 94.097656 C 268.37209 92.584327 267.16786 90.701637 265.75586 89.181641 z M 326.91992 122.87109 C 326.59326 123.31509 326.32157 123.78395 325.87891 124.11328 C 325.00557 124.76794 324.08271 125.35166 323.10938 125.84766 C 322.58405 126.11699 322.04862 126.35875 321.50195 126.58008 C 320.04329 127.17075 318.51737 127.5973 316.9707 127.89062 C 315.42271 128.18397 313.85201 128.34811 312.27734 128.41211 C 309.23068 128.53611 306.18551 128.45233 303.35352 129.73633 C 303.14819 129.82963 302.98131 129.93075 302.80664 130.08008 C 302.31731 130.49741 301.86817 130.97214 301.4375 131.4668 C 302.3815 131.62147 302.87613 131.98801 302.60547 132.63867 C 301.50814 135.27333 306.5577 132.85789 310.29102 132.19922 C 314.02435 131.54056 321.27206 130.44415 323.24805 130.88281 C 325.01471 131.27481 326.60259 127.45241 326.91992 122.87109 z " /><path
     id="path5"
     style="fill-rule:nonzero;clip-rule:evenodd;stroke-linejoin:round;stroke-miterlimit:2;fill:#000000;stroke-width:1.33333"
     d="M 273.00781 36.769531 L 272.91211 37.019531 C 281.40942 41.166187 288.88599 46.852923 295.19531 53.628906 C 303.65929 62.788883 313.79187 77.306724 313.5332 90.193359 C 313.41987 92.47602 312.77845 94.835119 311.31445 96.425781 C 309.67312 98.25111 308.35046 100.2615 307.0918 102.29883 C 302.39847 110.56814 298.84524 119.63492 297.64258 129.10156 L 297.90625 129.14844 C 300.86091 120.25779 304.96451 111.75709 308.95117 103.31445 C 309.9485 101.21045 311.02118 99.127574 312.33984 97.267578 C 313.86784 95.135584 314.2439 92.617035 314.36523 90.234375 C 314.30656 75.753078 307.0522 62.010422 297.24023 51.675781 C 290.53491 44.798465 282.17178 39.376192 273.00781 36.769531 z M 248.67188 86.957031 C 248.4212 88.193028 248.83187 89.504232 249.39453 90.601562 C 252.40386 95.905549 257.74482 99.329031 262.85547 102.31836 C 266.79813 104.81035 271.50111 106.11156 274.75977 109.57422 C 276.4051 111.21822 277.61752 113.25293 278.85352 115.18359 C 281.41484 119.00358 283.99787 122.68237 286.00586 126.95703 L 286.26562 126.90039 C 286.06029 122.06707 283.65889 117.49031 280.60156 113.84766 C 275.54957 108.83433 270.11082 104.15453 264.21484 100.17188 L 258.51172 96.185547 C 255.30373 93.884219 251.77605 91.816669 249.52539 88.527344 C 249.26139 88.047346 249.0495 87.536129 248.9375 86.966797 L 248.67188 86.957031 z " /></g></svg>
