<?xml version="1.0" encoding="UTF-8" standalone="no"?>
<svg
   width="100%"
   height="100%"
   viewBox="0 0 400 400"
   version="1.1"
   xml:space="preserve"
   style="fill-rule:evenodd;clip-rule:evenodd;stroke-linejoin:round;stroke-miterlimit:2;"
   id="svg86"
   sodipodi:docname="Tzenkethi.svg"
   inkscape:version="1.4 (e7c3feb1, 2024-10-09)"
   xmlns:inkscape="http://www.inkscape.org/namespaces/inkscape"
   xmlns:sodipodi="http://sodipodi.sourceforge.net/DTD/sodipodi-0.dtd"
   xmlns="http://www.w3.org/2000/svg"
   xmlns:svg="http://www.w3.org/2000/svg"><defs
   id="defs86">
            
            
            
            
            
            
            
            
            
            
            
            
            
            
            
            
            
            
            
            
            
            
            
            
            
            
            
            
            
            
            
            
            
            
            
            
            
            
            
            
            
            
            
            
            
            
            
            
            
            
            
        
                
            
                
            
                
            
                
            
                
            
                
            
                
            
                
            
                
            
                
            
                
            
                
            
                
            
                
            
                
            
                
            
                
            
                
            
                
            
                
            
                
            
                
            
                
            
                
            
                
            
                
            
                
            
                
            
                
            
                
            
                
            
                
            
                
            
                
            
                
            
                
            
                
            
                
            
                
            
                
            
                
            
                
            
                
            
                
            
                
            
                
            
                
            
                
            
                
            
                
            
                
            
                    
                
                    
                
                    
                
                    
                
                    
                
                    
                
                    
                
                    
                
                    
                
                    
                
                    
                
                    
                
                    
                
                    
                
                    
                
                    
                
                    
                
                    
                
                    
                
                    
                
                    
                
                    
                
                    
                
                    
                
                    
                
                    
                
                    
                
                    
                
                    
                
                    
                
                    
                
                    
                
                    
                
                    
                
        
    </defs><sodipodi:namedview
   id="namedview86"
   pagecolor="#ffffff"
   bordercolor="#666666"
   borderopacity="1.0"
   inkscape:showpageshadow="2"
   inkscape:pageopacity="0.0"
   inkscape:pagecheckerboard="0"
   inkscape:deskcolor="#d1d1d1"
   inkscape:zoom="2.38"
   inkscape:cx="201.68067"
   inkscape:cy="220.16807"
   inkscape:window-width="2072"
   inkscape:window-height="1171"
   inkscape:window-x="2408"
   inkscape:window-y="105"
   inkscape:window-maximized="0"
   inkscape:current-layer="layer3" />
    
<g
   inkscape:groupmode="layer"
   id="layer3"
   inkscape:label="Tzenkethi"><path
     d="m 375.17906,400.1062 c -1.06133,-3.60266 -2.87599,-7.11865 -4.68132,-10.21464 -2.97199,-5.09866 -5.89598,-9.93064 -9.15331,-14.82663 -1.31333,-1.97333 -2.62266,-3.90266 -4.16799,-5.66132 -2.91599,-3.31733 0.74267,-7.32798 2.44799,-10.35731 1.03467,-1.83733 2.77066,-3.95999 3.38933,-5.98798 0,0 5.35599,-17.59063 5.44665,-21.46795 0.0893,-3.87732 1.80266,-21.37061 1.352,-26.05993 -0.45067,-4.68799 -1.08267,-11.45064 -3.15599,-18.84529 -2.07333,-7.39331 -9.55865,-17.31196 -9.55865,-17.31196 0,0 -3.51599,-15.05863 -5.77065,-20.19861 -2.25333,-5.13999 -19.20528,-18.03329 -19.20528,-18.03329 l 1.71199,-23.89594 c 12.71464,-9.10665 11.54264,-23.08261 11.54264,-30.20659 0,-7.12398 -3.06666,-20.91995 -3.06666,-20.91995 7.66532,-13.3453 11.00131,-30.47726 11.45197,-33.36258 1.93733,-12.39864 -8.65598,-25.878606 -25.33727,-37.23991 -16.68129,-11.361305 -61.31584,-11.361305 -61.31584,-11.361305 0,0 -52.74921,-0.09067 -76.82515,4.687988 -24.07594,4.779988 -44.90522,19.747951 -47.60921,22.903947 -2.70533,3.15599 -38.32257,59.87318 -40.48657,62.66784 -2.16399,2.79466 -18.305283,0.36133 -34.174577,-0.18 -15.870627,-0.54133 -67.13716519,31.85192 -67.13716519,31.85192 l -0.93199767,2.25999 -0.08399979,201.7595 z"
     style="clip-rule:evenodd;fill:#cd976d;fill-rule:nonzero;stroke-width:1.33333;stroke-linejoin:round;stroke-miterlimit:2"
     id="path1" /><path
     d="m 370.49774,389.89103 c -2.97333,-5.09866 -5.89732,-9.93065 -9.15331,-14.8253 -1.31333,-1.97333 -2.62399,-3.90399 -4.16932,-5.66265 -2.91466,-3.31733 0.744,-7.32799 2.44932,-10.35731 1.03467,-1.83733 2.76933,-3.95999 3.38933,-5.98799 0,0 5.35465,-17.59062 5.44532,-21.46794 0.0907,-3.87733 1.80399,-21.37062 1.352,-26.0586 -0.45067,-4.68933 -1.08134,-11.45198 -3.15466,-18.84662 -2.07466,-7.39332 -9.55865,-17.31196 -9.55865,-17.31196 0,0 -3.51732,-15.05863 -5.77065,-20.19862 -0.92666,-2.11066 -4.33199,-5.52932 -8.02398,-8.82664 l 12.09864,41.86389 -6.93865,1.12533 c 0.97866,1.812 2.08666,3.57733 3.37999,5.37199 5.30399,7.36398 10.03331,16.24663 7.92531,25.44927 -2.63732,11.51597 -7.97331,22.72928 -15.65596,31.62926 -4.19065,4.85598 -9.35597,10.92797 -15.01329,14.21329 -8.45731,4.90932 -20.25062,8.21465 -24.70661,-3.10666 -2.29199,-5.82398 -4.50799,-11.77197 -6.61198,-17.68262 -1.31733,-3.69866 -2.29066,-7.50798 -3.76266,-11.15064 -1.26666,-3.13066 -1.18266,-5.64532 -1.54533,-8.98664 -0.9,-8.30931 -2.08799,-16.61863 -3.99199,-24.76261 -0.38266,-1.63599 -0.79733,-3.45332 -1.29333,-5.28665 -5.29998,-2.75466 -12.33463,-6.53065 -14.48396,-8.24931 -3.58799,-2.86933 -12.35997,-6.78398 -19.01462,-9.86664 -6.65598,-3.08133 -32.11059,-10.22398 -40.0039,-11.47998 -7.89331,-1.25599 -27.26793,-11.12263 -34.80125,-14.53063 -7.53465,-3.40799 -14.17196,-23.49994 -15.42796,-27.80526 -1.256,-4.30532 -4.30532,-23.49994 -3.76666,-27.08793 0.53734,-3.58799 0,-11.48131 -4.84398,-15.78663 -2.67066,-2.37333 -7.27199,-9.05331 -10.86531,-14.57196 -1.49866,-1.296 -3.03466,-2.36133 -4.57866,-2.864 -1.79999,7.57865 -2.17866,15.85463 -1.51466,23.63728 0.41733,4.88799 0.39333,9.82931 0.988,14.67996 0.38267,3.12533 1.01333,7.91065 -0.12667,10.81864 -0.77066,1.96266 -2.37332,3.81466 -3.30666,5.75332 -1.29466,2.69066 -3.46532,3.97999 -5.21998,6.31065 -1.83866,2.44266 -1.25333,5.23866 -2.76133,7.83732 -1.29733,2.23732 -3.79599,3.93865 -5.24399,6.06398 -1.93599,2.83866 -4.06532,2.99866 -6.84131,4.35066 -0.92267,5.96665 -7.44398,3.83465 -11.52664,3.66799 -0.18933,3.02132 -1.712,3.06666 -4.167989,3.17999 -0.117333,1.71733 0.599999,3.80266 -0.024,5.33599 -8.759978,-1.11067 -16.747958,-5.29466 -25.267937,-7.37599 -4.606655,-1.12399 -7.687981,-1.17466 -11.679971,-3.88532 -3.742657,-2.54133 -7.427981,-5.18132 -11.355971,-7.43598 -8.602646,-4.93866 -17.563956,-9.38264 -26.358601,-14.0213 -6.386651,-3.37066 -10.77064,-5.77198 -14.89063,-11.61597 -2.2559939,-3.19733 -2.8879924,-7.57065 -5.1466534,-10.52131 -2.5586603,1.564 -4.08132312,2.524 -4.08132312,2.524 l -0.93199767,2.25999 -0.08266646,201.7595 H 375.17906 c -1.06133,-3.60266 -2.87599,-7.11865 -4.68132,-10.21464"
     style="clip-rule:evenodd;display:inline;opacity:0.2;fill:#000000;fill-rule:nonzero;stroke-width:1.33333;stroke-linejoin:round;stroke-miterlimit:2"
     id="path2" /><path
     id="path10"
     style="clip-rule:evenodd;fill:#ffffff;fill-rule:nonzero;stroke-width:1.33333;stroke-linejoin:round;stroke-miterlimit:2;fill-opacity:0.25"
     d="m 352.18445,119.91837 c -0.14933,1.51999 -1.14133,3.12532 -2.12533,4.26399 -1.22799,1.41866 -2.63732,0.78399 -3.97332,1.57733 -0.96,0.57066 -0.83333,1.61466 -1.332,2.56932 -0.65866,1.26133 -1.45066,1.71333 -2.72666,2.22133 -2.96132,1.17866 -0.71066,2.27733 0.832,3.92399 0.448,0.48 0.25734,0.63067 0.90533,0.836 1.10933,0.352 3.364,-0.45733 4.28799,-1.04133 1.98933,-1.26133 1.39467,-2.31066 1.76933,-4.04533 0.668,-3.09065 3.27866,-4.26798 2.94399,-7.83731 z m -8.71331,-19.60289 c 2.35333,1.39333 1.34133,5.28132 0.25467,7.11465 -0.74267,1.25333 -1.26533,1.676 -0.94933,3.19599 0.27066,1.29867 0.47466,2.13866 0.0773,3.47999 -0.29733,1.00667 -1.14133,2.08133 0.46133,2.15333 0.95067,0.0427 3.99866,-1.48933 4.62132,-2.29466 1.16667,-1.51066 -0.49333,-1.17066 -0.69333,-2.61066 -0.18266,-1.32533 1.34667,-2.45199 1.31067,-3.77866 -0.0573,-2.05599 -2.77066,-5.05998 -5.08266,-7.25998 m -5.99729,-6.653847 c -0.90399,-1.60533 -2.40932,-4.986655 -4.58132,-5.085321 -0.12133,2.493327 -0.24666,5.10932 1.42533,7.130649 0.54,0.651998 1.232,1.126664 1.69866,1.847995 0.69733,1.079997 0.78133,2.389327 1.36267,3.502654 1.90799,-1.822658 1.24799,-5.347983 0.0947,-7.395977 M 263.75134,82.60006 c 3.46533,-1.049331 5.90932,-0.874664 9.49198,-0.253333 3.53465,0.613332 7.05598,1.40533 10.4413,2.603994 1.86667,0.661332 3.96799,1.533329 5.61999,2.727993 1.71466,1.239997 2.84266,3.007993 4.24932,4.511989 0.85333,0.911998 2.668,1.918662 2.43333,3.333325 -0.404,2.44666 -4.40399,-0.232 -5.61999,-0.978664 -2.12932,-1.306664 -3.36932,-2.518661 -4.79865,-4.539989 -1.36533,-1.930662 -2.96133,-2.865326 -5.16799,-3.782657 -3.52799,-1.463997 -7.82398,-2.651994 -11.68264,-2.895993 -1.97599,-0.125333 -4.09865,0.06667 -5.98265,-0.435999 m -5.95332,6.534117 c 2.73866,-0.545332 5.52266,0.310666 8.13865,0.862665 2.19866,0.463998 4.60266,0.945331 6.66665,1.981328 2.31733,1.162664 4.26532,2.531994 6.26265,4.197323 2.97466,2.479994 6.18399,4.891991 9.24931,7.342651 2.78933,2.23066 5.99465,5.38665 9.45065,6.55865 -1.23867,1.56266 -6.31199,-0.46133 -7.93198,-1.08533 -3.3,-1.26933 -6.20266,-3.1 -9.13598,-5.20132 2.56799,1.16399 1.98399,5.27998 -0.77333,4.16665 -1.32533,-0.53466 -6.56799,-4.11599 -5.46399,-5.61598 0.66,-0.89733 2.84533,-0.10934 3.43332,-1.00267 0.67334,-1.01866 -0.72799,-2.414658 -1.42932,-3.037323 -2.42667,-2.154661 -5.33732,-4.18799 -8.26932,-5.579986 -3.41199,-1.619996 -7.87598,-2.219995 -11.47997,-2.885326 -0.33733,-0.910665 0.856,-0.922665 1.28266,-0.701332 m -20.03861,15.827827 c 1.58933,-1.14533 5.02532,-0.376 6.82398,-0.14533 3.50266,0.44933 7.08132,1.09466 10.57331,1.79599 2.02266,0.40667 4.04132,0.72133 6.01065,1.31867 2.29999,0.69733 3.67332,2.19199 5.63332,3.56399 4.12132,2.88532 9.58531,7.26798 14.7413,7.55464 3.95465,0.22134 7.99998,-0.0347 11.81063,-0.83333 -0.444,4.19466 4.91999,7.10799 8.42531,8.11598 0.18667,1.91867 -1.73732,2.78 -3.30532,3.17333 -1.16666,0.29333 -2.35866,0.108 -3.50132,-0.0773 -0.76267,-0.124 -2.016,-0.744 -2.75866,-0.66 -1.87733,0.21333 -0.74267,2.73599 -3.07866,2.30266 -2.80133,-0.52133 -3.104,-4.82532 -4.68933,-6.57999 -2.59732,-2.87199 -7.40798,-2.94799 -10.79597,-4.61598 -3.10799,-1.53067 -6.07732,-3.55999 -9.02931,-5.36532 -3.73332,-2.28266 -6.77598,-4.44933 -11.1333,-5.62399 -7.34932,-1.97999 -15.25063,-1.40533 -22.68128,-2.34799 0.46133,-0.996 2.35999,-1.08267 3.32399,-1.28533" /><path
     d="M 0.48506545,195.36618 C 14.84503,185.88354 50.610273,163.93559 67.138232,163.39426 c 16.527959,-0.54133 31.430588,4.33465 36.849238,-2.97999 5.41866,-7.31599 33.05592,-57.17053 42.53856,-63.673179 9.48265,-6.50265 30.88793,-21.675945 77.76248,-22.489277 46.87321,-0.811998 72.88515,-4.063989 101.33441,8.670645 28.44926,12.734635 30.88792,36.307911 28.1786,44.977221 -2.70933,8.67065 -9.21198,27.90793 -9.21198,27.90793 0,0 0.54133,2.168 1.89599,11.65064 1.35467,9.48397 1.084,27.90793 -4.33465,34.13991 -5.41999,6.23199 -8.94131,6.50265 -7.31598,10.56664 1.62533,4.06399 -1.62533,15.1733 -1.35467,23.84394 0.27067,8.66931 1.35467,32.24259 1.084,37.93191 -0.27067,5.69065 -8.67064,27.3666 -18.15329,27.0946 -9.48397,-0.27067 -27.90793,-7.58532 -36.57857,-14.9013 -8.67065,-7.31598 -53.3772,-22.21861 -68.2785,-26.0106 -14.90263,-3.79332 -36.03591,-13.54797 -40.64256,-22.48928 -4.60666,-8.94131 -13.54797,-32.78525 -13.0053,-45.51988 0.54133,-12.73331 -2.168,-14.9013 -10.29598,-24.11328 -8.12931,-9.21331 -17.88262,-28.45059 -7.04531,-27.63726 10.83863,0.81333 15.17329,1.89733 17.07062,-2.168 1.89599,-4.06399 6.50265,-12.46263 14.0893,-15.71462 7.58665,-3.25066 18.69462,-6.77332 34.41058,0.54266 15.71463,7.31465 30.88792,21.94661 30.88792,21.94661 0,0 -25.73993,-18.15462 -32.51458,-20.86394 -6.77332,-2.70933 -26.55194,-5.95999 -34.41059,1.62666 -7.85731,7.58665 -9.48264,13.8173 -10.56664,15.71463 -1.08399,1.89599 -8.39864,1.89599 -12.73463,1.08399 -4.33466,-0.81333 -11.10797,-0.54266 -9.21198,2.98 1.896,3.52265 10.02531,21.13461 17.06929,27.0946 7.04532,5.96131 6.23199,17.34129 5.69066,22.21861 -0.54267,4.87598 9.7533,42.80922 16.52795,46.87321 6.77332,4.06399 19.23729,13.81863 48.22788,19.23729 28.99193,5.41865 45.51989,16.79862 49.04255,18.69595 3.52132,1.896 9.48264,6.23199 12.19197,7.85731 2.70932,1.62533 25.1986,12.19197 30.34659,10.83731 5.14799,-1.35466 14.35996,-13.8173 15.17329,-23.84261 0.812,-10.0253 -1.35466,-38.2039 -0.54266,-44.16522 0.81333,-5.95998 1.084,-19.77862 0.54266,-23.03061 -0.54266,-3.25066 -2.98132,-10.8373 -2.98132,-10.8373 0,0 5.41998,4.87732 5.96132,8.39864 0,0 7.85731,-7.04398 8.94131,-13.54663 1.08399,-6.50265 0,-27.90793 -1.35467,-31.70126 l -7.85731,4.60666 c 0,0 13.81863,-18.69595 16.52796,-37.93324 2.70933,-19.23728 -19.23729,-39.829233 -26.55327,-41.725228 -7.31598,-1.897329 -33.59725,-12.193303 -97.81175,-8.399979 -64.21584,3.793324 -83.18113,26.281267 -87.51712,31.971917 -4.33465,5.68932 -28.17859,48.22922 -31.42925,52.29321 -3.25199,4.06399 -1.35467,7.58664 -10.838642,7.31464 -9.482643,-0.27066 -24.667939,-2.57999 -28.719929,-2.16666 -13.275966,1.35467 -68.27849553,32.78392 -68.27849553,32.78392 z"
     style="clip-rule:evenodd;fill-rule:nonzero;stroke-width:1.33333;stroke-linejoin:round;stroke-miterlimit:2;fill:#000000;"
     id="path13" /><path
     d="m 359.22044,353.05778 c 0.0133,-0.0213 9.7533,-15.46529 9.48264,-45.24788 -0.27067,-29.80526 -14.35997,-33.59859 -14.35997,-38.20391 0,-4.60665 -2.16799,-15.71462 -3.25065,-18.42395 -1.084,-2.71066 -18.96662,-18.42529 -18.96662,-18.42529 v -4.87732 c 0,0 17.88262,12.73464 20.86261,23.03061 2.97999,10.29597 5.41865,17.88262 8.67065,21.67595 3.25065,3.79332 9.75464,27.36659 9.75464,35.49457 0,8.12798 -1.356,27.63593 -3.52266,33.32659 -2.16799,5.68932 -4.87732,11.65063 -4.87732,11.65063 -1.71466,3.77066 -3.12133,7.69598 -4.73199,11.51331 -1.98133,4.69732 -4.92265,8.74931 -7.87731,12.89863 -1.736,2.44 -3.39866,5.02532 -5.18266,7.36798 -1.39333,1.83067 -3.04132,4.23599 -4.96532,5.44532 0.0987,-1.76932 1.81733,-3.93065 2.64933,-5.51598 2.62133,-4.99466 5.92398,-9.75998 8.74798,-14.67197 3.08399,-5.36665 4.29065,-11.84663 7.56665,-17.03729"
     style="clip-rule:evenodd;fill-rule:nonzero;stroke-width:1.33333;stroke-linejoin:round;stroke-miterlimit:2;fill:#000000;"
     id="path14" /><path
     d="m 269.26466,279.6313 c 0,0 -15.44396,-0.81333 -17.88262,-0.54133 -2.43866,0.27066 -3.79333,25.19727 -4.87732,32.24258 -1.084,7.04399 -7.58665,21.40395 -19.50795,22.48795 0,0 15.71462,-5.68932 18.15328,-28.44926 2.43866,-22.75995 2.43866,-26.28127 2.43866,-26.28127 0,0 -9.75464,1.08266 -19.23728,-1.89733 0,0 28.44926,0.27067 33.05592,-1.084 z"
     style="clip-rule:evenodd;fill-rule:nonzero;stroke-width:1.33333;stroke-linejoin:round;stroke-miterlimit:2;fill:#000000;"
     id="path15" /><path
     d="m 137.58499,175.58623 c 0,4.33465 7.85731,21.40528 8.67064,24.65594 0.812,3.25199 -7.58664,30.07592 -13.0053,39.01723 0,0 10.56664,-33.05592 9.75331,-37.93324 -0.812,-4.87732 -4.33465,-11.1093 -5.41865,-14.90263 -1.084,-3.79332 0,-10.8373 0,-10.8373"
     style="clip-rule:evenodd;fill-rule:nonzero;stroke-width:1.33333;stroke-linejoin:round;stroke-miterlimit:2;fill:#000000;"
     id="path16" /><path
     d="m 254.30336,216.44346 c -1.34666,-1.844 -9.8013,-4.76932 -5.95598,-8.39198 1.54933,-1.46 3.97599,-0.068 5.42265,0.78266 3.17733,1.86533 6.79465,3.32266 9.68931,5.67466 1.684,1.36799 3.18399,3.04399 4.48666,4.79332 -2.56,-0.67867 -13.24397,-10.67197 -13.4893,-3.06666 -0.40534,0.004 -0.884,-0.0933 -0.15334,0.208"
     style="clip-rule:evenodd;fill-rule:nonzero;stroke-width:1.33333;stroke-linejoin:round;stroke-miterlimit:2;fill:#000000;"
     id="path17" /><path
     d="m 283.27396,264.71534 c 3.44132,4.50265 5.46665,10.31464 7.50931,15.44529 1.31467,3.30266 3.27333,6.50799 5.02132,9.56531 0.656,1.14667 1.74133,2.54133 1.716,3.89599 -1.78266,0.29067 -3.87199,-1.15733 -5.43065,-1.87999 -1.24533,-0.57867 -2.492,-1.16267 -3.70266,-1.80933 -3.49199,-1.86133 -19.78262,-12.91597 -28.04393,-15.94129 -8.26131,-3.02533 -35.25725,-11.86931 -48.40655,-15.01063 -13.14796,-3.14133 -36.30391,-15.35997 -38.6319,-19.43196 -2.32666,-4.07332 -9.89064,-24.90127 -9.89064,-24.90127 0.11866,0.32667 1.73999,0.872 2.03866,1.02667 1.53733,0.79466 3.05066,1.63333 4.55332,2.49332 2.82399,1.61333 6.09865,2.14267 9.17998,3.112 1.94666,0.612 4.00399,1.14666 6.00665,1.67199 3.29066,0.86133 5.11465,2.476 7.69065,4.63866 2.41466,2.02799 4.60932,4.16132 6.25332,6.84531 0.53999,0.88 1.23599,2.28666 2.11332,2.77333 1.48533,0.82533 4.50533,0.52 6.20532,0.628 0.88667,0.056 1.77466,0.16533 2.65999,0.20133 0.61334,0.024 1.24533,-0.0667 1.856,-0.0107 1.824,0.164 3.52799,0.47734 5.17065,1.384 1.492,0.82267 2.70666,2.13733 3.98133,3.24399 1.34399,1.16533 2.90399,1.89733 4.27865,2.948 1.22,0.93333 2.00266,1.90799 3.47599,2.58132 1.31733,0.60267 2.708,1.00267 4.06666,1.492 1.08933,0.392 2.48399,0.90533 3.62399,0.46266 0.868,1.19467 1.788,4.96933 3.94133,4.88933 2.69999,-0.1 1.70266,-3.96799 3.63332,-4.41199 1.44266,1.77199 1.10266,5.34798 3.05733,6.75331 1.51199,1.08667 2.38399,-1.84933 4.04665,-2.21999 1.43733,1.71599 2.664,2.77733 3.54666,4.94932 0.20533,0.508 0.73066,2.56266 1.428,2.83866 1.51599,0.6 2.29332,-2.52399 2.95466,-3.26133 1.28933,-1.43466 2.67866,-0.34933 3.50532,0.90934 0.57467,0.87599 1.076,2.04666 1.96133,2.58666 0.42933,0.26266 1.30133,0.25866 1.68399,0.62799 1.09067,1.052 0.136,3.40533 1.368,4.71066 3.75999,-1.324 3.83599,3.35866 6.37465,4.55999 1.55333,0.736 3.24533,-0.91067 4.19332,-2.13866 2.336,-3.02666 0.116,-6.79065 1.51067,-9.84798 1.31866,1.05733 2.47199,2.28533 3.49999,3.63066"
     style="clip-rule:evenodd;opacity:0.1;fill-rule:nonzero;stroke-width:1.33333;stroke-linejoin:round;stroke-miterlimit:2;fill:#000000;"
     id="path22" /><path
     d="m 283.27396,264.71534 c 3.44132,4.50265 5.46665,10.31464 7.50931,15.44529 1.31467,3.30266 3.27333,6.50799 5.02132,9.56531 0.656,1.14667 1.74133,2.54133 1.716,3.89599 -1.78266,0.29067 -3.87199,-1.15733 -5.43065,-1.87999 -1.24533,-0.57867 -2.492,-1.16267 -3.70266,-1.80933 -3.49199,-1.86133 -19.78262,-12.91597 -28.04393,-15.94129 -8.26131,-3.02533 -35.25725,-11.86931 -48.40655,-15.01063 -13.14796,-3.14133 -36.30391,-15.35997 -38.6319,-19.43196 -5.42399,-9.49464 -9.19464,-21.50794 -12.32664,-31.90258 -1.31599,-4.37066 -1.58266,-9.65598 -2.15332,-14.29997 -0.524,-4.25332 -0.448,-8.73997 -1.072,-12.86263 -0.42933,-2.84266 -1.74266,-4.68532 -3.64399,-6.87465 -3.99066,-4.59599 -8.88665,-8.13198 -11.01331,-14.13463 -0.69733,-1.96666 -2.20666,-5.48399 -1.14399,-7.72265 2.20932,-4.65065 9.67597,-2.12799 13.46529,-2.14266 3.99066,-0.0147 8.81598,-1.19066 10.88798,-4.79332 0.976,-1.69866 1.51466,-3.97333 2.74666,-5.44399 0.672,-0.80266 1.61333,-1.48133 2.61466,-1.68933 1.85999,-0.38533 4.92399,0.81867 6.69198,1.10267 3.07733,0.49466 6.17465,0.97333 9.27731,1.29199 1.22,-1.11599 1.60533,-3.00799 3.73866,-3.19199 2.29866,-0.19867 5.18399,2.396 7.48931,3.11466 0.18534,-0.66 0.69067,-1.20266 0.98533,-1.848 2.68533,0.36267 5.35999,1.92 8.12265,1.60933 -0.40933,-6.89465 6.84798,-0.35733 8.88531,1.71733 3.03199,3.08666 5.63065,6.51065 8.60265,9.53331 3.19466,3.24933 6.99065,5.47866 10.3293,8.35731 2.704,2.332 3.32933,6.27332 4.47466,9.68131 1.26,3.74666 2.37199,9.69331 -0.23733,13.2893 -1.116,1.536 -3.03066,2.27467 -4.74666,2.93066 -3.05466,1.16533 -3.05999,2.45866 -3.13466,5.95732 -9.38264,-2.43866 -0.0427,12.77997 -0.0133,16.28263 -0.936,-0.30133 -1.97333,-0.484 -3.02533,-0.424 -0.66266,5.30532 5.49466,13.86263 -2.31066,16.00129 -2.36266,0.648 -1.31733,-0.068 -2.87866,1.99733 -0.77733,1.02666 -1.10933,1.15466 -2.02799,1.83066 -2.80266,2.06266 -2.18933,2.83466 -2.91333,6.22265 -0.492,-0.21333 -1.36533,-0.0293 -1.83733,-0.204 -0.22,3.96399 -0.0747,5.89332 3.18133,8.33332 4.23999,3.17866 7.63998,6.61331 12.6253,8.40931 1.08933,0.392 2.48399,0.90533 3.62399,0.46266 0.868,1.19467 1.788,4.96933 3.94133,4.88933 2.69999,-0.1 1.70266,-3.96799 3.63332,-4.41199 1.44266,1.77199 1.10266,5.34798 3.05733,6.75331 1.51199,1.08667 2.38399,-1.84933 4.04665,-2.21999 1.43733,1.71599 2.664,2.77733 3.54666,4.94932 0.20533,0.508 0.73066,2.56266 1.428,2.83866 1.51599,0.6 2.29332,-2.52399 2.95466,-3.26133 1.28933,-1.43466 2.67866,-0.34933 3.50532,0.90934 0.57467,0.87599 1.076,2.04666 1.96133,2.58666 0.42933,0.26266 1.30133,0.25866 1.68399,0.62799 1.09067,1.052 0.136,3.40533 1.368,4.71066 3.75999,-1.324 3.83599,3.35866 6.37465,4.55999 1.55333,0.736 3.24533,-0.91067 4.19332,-2.13866 2.336,-3.02666 0.116,-6.79065 1.51067,-9.84798 1.31866,1.05733 2.47199,2.28533 3.49999,3.63066"
     style="clip-rule:evenodd;display:inline;opacity:0.1;fill:#000000;fill-rule:nonzero;stroke-width:1.33333;stroke-linejoin:round;stroke-miterlimit:2"
     id="path24" /><path
     id="path26"
     style="clip-rule:evenodd;opacity:0.2;fill-rule:nonzero;stroke-width:1.33333;stroke-linejoin:round;stroke-miterlimit:2;fill:#000000;"
     d="m 174.11956,176.59689 c 0.976,-0.59866 3.89866,1.21067 4.79599,1.73866 1.32533,0.78134 2.28666,1.87333 3.11599,3.208 2.45467,3.94532 2.51333,8.74797 3.25333,13.1733 0.19067,1.13999 0.576,2.28799 0.84533,3.40799 0.16667,0.69066 0.21067,1.90399 0.57867,2.53466 0.48,0.82 1.76399,1.50799 2.54132,1.97333 2.984,1.78799 6.28265,2.15066 8.28398,5.49198 0.67067,1.12 1.02933,2.37733 1.72,3.46799 0.924,1.46 2.23866,2.58266 3.46932,3.75466 1.40933,1.34 4.84266,2.83066 5.14666,4.99599 0.324,2.29866 -3.71199,3.74799 -5.03466,5.21599 -1.10933,1.23066 -2.04799,2.38266 -3.69199,1.53466 -0.976,-0.50267 -1.63999,-1.188 -2.32799,-1.96933 -2.16,-2.44799 -4.55332,-4.82265 -7.20398,-6.74398 -2.364,-1.712 -4.80666,-3.44666 -7.46532,-4.63866 -0.944,-0.42266 -1.97733,-0.81333 -2.95466,-1.22933 -0.41733,-0.17866 -2.02266,-0.59866 -2.14933,-0.99866 -0.70799,-2.24133 5.86266,-0.0867 6.48932,0.13333 2.30933,0.81467 4.16399,1.176 5.81732,3.01199 2.20133,2.444 4.27999,5.74799 7.40265,7.03065 1.61333,0.66267 4.98265,-0.492 3.59866,-2.67999 -1.59067,-2.51466 -4.61466,-4.49732 -6.73599,-6.52665 -2.46666,-2.36133 -5.41732,-4.22532 -8.79598,-5.10799 -1.48399,-0.38666 -3.73065,-0.51333 -5.03998,-1.33866 -1.07333,-0.676 -1.92,-2.05333 -2.908,-2.89999 -2.88799,-2.47466 -6.42531,-3.94399 -9.44931,-6.17599 -0.82399,-0.608 -1.77466,-1.34266 -2.30666,-2.27333 -2.05599,-3.59999 3.39733,-2.96399 5.50399,-2.96399 1.13066,0 2.69733,0.31867 3.32933,-0.868 0.64666,-1.21333 -0.28934,-2.24932 -1.036,-3.08532 -1.31067,-1.46933 -3.15999,-3.75199 -3.55999,-5.70132 -0.25867,-1.26533 0.53333,-2.6 0.92399,-3.79866 0.916,2.29333 2.21067,4.66666 4.23199,6.23332 0.776,0.60266 1.812,0.78666 2.47466,1.51866 1.08667,1.19733 1.392,3.31333 1.85867,4.84532 0.96933,3.17733 0.36133,5.92265 0.51466,9.12398 0.0507,1.05466 0.83333,3.53466 2.18533,2.08799 0.51866,-0.55599 0.29067,-1.15999 0.36667,-1.84399 0.12933,-1.16666 0.44133,-2.20933 0.47333,-3.38666 0.052,-1.87199 0.088,-3.81066 0,-5.68132 -0.144,-3.03999 -0.43067,-5.77865 -2.29866,-8.29064 -1.54,-2.07067 -3.60799,-2.98666 -5.79599,-4.17466 -1.09733,-0.59733 -2.73199,-1.7 -0.16667,-2.10533 M 332.7205,226.9821 c 0,0 -1.04666,8.26131 -0.46533,11.75197 0.58133,3.49199 1.04666,30.60392 0.69866,34.67591 -0.34933,4.07333 -6.39998,24.66927 -14.07996,26.06527 -7.67998,1.396 -26.99593,-7.67998 -30.48659,-9.54131 -3.49199,-1.86266 -19.78262,-12.91597 -28.04393,-15.94129 -8.26131,-3.02533 -35.25725,-11.86931 -48.40655,-15.01063 -13.14796,-3.14266 -36.30391,-15.35996 -38.6319,-19.43329 -2.32666,-4.07199 -9.89064,-24.90127 -9.89064,-24.90127 0.11866,0.32667 1.73999,0.87333 2.03866,1.02667 1.53733,0.796 3.05066,1.63466 4.55332,2.49332 2.82399,1.61467 6.09865,2.144 9.17998,3.11333 1.94666,0.61067 4.00399,1.14666 6.00798,1.67066 3.28933,0.86133 5.11332,2.476 7.68932,4.63999 2.41466,2.02666 4.60932,4.15999 6.25332,6.84398 0.53999,0.88 1.23599,2.288 2.11332,2.77466 1.48533,0.824 4.50666,0.51867 6.20532,0.628 0.88667,0.056 1.77466,0.16533 2.65999,0.2 0.61334,0.0253 1.24533,-0.0653 1.856,-0.0107 1.824,0.164 3.52799,0.47734 5.17065,1.384 3.272,1.804 8.17732,9.12265 12.83731,5.63865 0.56399,-0.42133 0.93999,-1.07466 1.26133,-1.72399 0.18266,-0.36933 0.37466,-0.74133 0.39066,-1.18533 0.0493,-1.40933 -0.74533,-0.96 -2.20933,-1.13333 -2.41332,-0.28667 -4.91865,-0.75067 -6.89598,-2.188 -1.31066,-0.95333 -1.75066,-1.72266 -1.63733,-3.44399 0.13067,-1.98799 1.08267,-4.70265 2.77466,-5.90265 0.49333,0.56 0.67333,1.41466 0.97067,2.10399 0.51999,1.20533 1.24266,2.27467 2.13066,3.22933 0.85333,0.91733 2.93466,2.91599 3.96799,1.66 0.94399,-1.148 1.09733,-3.75866 0.27733,-4.99066 -0.944,-1.42133 -2.94666,-1.94266 -4.42266,-2.51466 -1.29733,-0.50266 -2.99466,-0.30533 -2.00799,-2.05466 -1.54,-0.076 -3.12399,0.78133 -4.67066,0.648 -3.46932,-0.29867 -5.75198,-3.93733 -6.84265,-6.88665 -0.79333,-2.14533 -1.50533,-3.57333 -3.01999,-5.31866 -1.83199,-2.11066 -3.83332,-3.71865 -4.56665,-6.48665 -0.45734,-1.72399 -0.868,-4.84932 0.61733,-6.18798 0.70666,1.808 1.81066,2.24799 3.13732,3.58799 1.88267,1.90133 2.876,4.76132 3.93733,7.23332 1.16666,2.71599 3.15199,5.62532 5.16798,7.78531 0.98267,1.05333 3.46933,3.22799 5.02932,2.47199 1.39067,-0.67466 1.07867,-2.98799 1.444,-4.34532 0.62933,-2.34266 2.11066,-3.66666 1.528,-6.16265 -0.62933,-2.69733 -3.88666,-4.03466 -6.25865,-4.91332 -0.51734,-0.19067 -1.31867,-0.22267 -1.75067,-0.44933 -0.94666,-0.49734 -1.93466,-2.21333 -2.43732,-3.116 -0.736,-1.32266 -0.82133,-2.48666 -2.42533,-3.05865 -1.176,-0.42 -2.50933,-0.21334 -3.71999,-0.0987 -1.92133,0.18133 -4.23599,1.32533 -6.07332,0.472 -1.41333,-0.65733 -2.82399,-2.608 -3.90399,-3.77199 -1.75866,-1.89466 -3.22932,-4.16133 -4.87999,-6.20399 -1.37599,-1.70533 -2.93732,-3.26666 -4.36799,-4.95598 -1.07599,-1.272 -2.75199,-2.668 -3.37999,-4.22399 0.436,0.63066 1.00667,0.88533 1.64133,1.25866 1.93466,1.14 4.15332,2.19866 6.04932,3.49732 1.97999,1.35467 4.06132,3.04933 5.58399,4.93999 1.21066,1.504 2.23999,3.60533 4.31332,3.96799 2.73332,0.47733 5.62665,-0.58266 8.27864,-0.20933 1.97067,0.276 2.92933,2.11599 4.25999,3.29332 1.308,1.15867 3.32266,1.52267 4.93732,2.028 0.77067,0.24 1.39333,0.60666 2.18133,0.556 0.332,-0.0227 1.09733,-0.51067 1.39867,-0.42267 1.01333,0.29333 2.07332,3.37466 2.34132,4.07466 0.72267,1.88666 1.01867,3.87599 1.37333,5.85065 0.372,2.08 0.4,4.26666 1.31067,6.14665 0.38666,0.796 0.75466,1.304 0.78933,2.29466 0.0533,1.54933 -0.524,3.21866 -0.46533,4.80266 0.0467,1.23866 0.63466,2.25733 1.23599,3.31999 0.78533,1.388 1.88133,4.31599 3.86399,4.26399 0.68533,2.35333 3.01866,4.76265 5.19866,5.86798 1.42666,0.72134 5.49865,1.51067 6.82398,0.39867 -2.57599,-1.43866 -5.12932,-5.42132 -4.91332,-8.57331 1.35466,1.28533 2.80266,2.41732 4.48665,3.27599 1.88267,0.96 4.63466,2.29999 6.80799,2.03999 4.48265,-0.53599 -1.15733,-6.01865 -2.27066,-7.38798 -1.184,-1.45599 -2.284,-2.97866 -3.27733,-4.57065 -0.916,-1.46667 -1.44666,-2.98666 -2.24266,-4.51999 -0.74133,-1.42666 -3.95199,-6.70132 -5.03599,-3.91732 -1.00533,2.58266 -0.39066,6.50931 0.70933,8.97331 -1.13199,-1.42267 -2.60266,-2.88133 -3.47332,-4.57733 -0.712,-1.38799 -0.96933,-2.96532 -1.28,-4.47732 -0.78666,-3.81865 -0.94533,-7.57598 -2.64132,-11.1773 -1.12,-2.37466 -1.71867,-4.60133 -2.50533,-7.09465 -1.13467,-3.59999 -3.52666,-6.11065 -5.64265,-9.10531 -0.85067,-1.20267 -1.976,-3.16666 -0.40667,-4.30133 5.65599,2.424 7.88265,8.02265 9.80798,13.41997 0.58533,1.64266 1.10133,3.32799 1.67732,5.02532 0.55734,1.63866 1.03867,4.60399 2.62266,5.31066 1.156,0.51733 2.55733,0.40399 3.71733,1.05466 1.324,0.74266 1.02266,1.82266 1.27733,3.25466 0.52266,2.94666 3.32532,4.71465 5.70932,6.30932 2.01599,1.34799 4.22399,2.91465 5.84532,4.71332 1.19466,1.32533 3.83865,3.79065 3.91199,5.59998 -2.552,-0.0493 -5.30399,-2.61999 -7.10799,-4.26132 -1.89332,-1.72533 -3.36665,-3.87599 -5.30932,-5.49065 1.164,4.73065 5.67999,9.05997 9.41331,11.9533 0.66267,0.51467 1.624,1.37066 2.43333,1.6 3.14533,0.89466 7.36798,-3.81599 8.26531,-6.34399 1.28,-3.60799 8.37865,-8.37864 10.58931,-3.95599 2.21066,4.42132 6.16665,15.12663 9.19198,13.26397 3.02532,-1.86133 4.53865,-9.07598 8.61064,-12.1013 4.07333,-3.02533 14.4293,-5.58532 17.91996,-9.30798 3.49066,-3.72399 6.16665,-9.77464 8.49464,-5.81865 2.32667,3.95599 9.42531,15.12663 9.07598,19.31595" /><path
     d="m 136.76766,143.89964 c 0.62133,1.076 2.16799,1.36133 3.25066,1.79466 2.52666,1.012 4.82398,1.22 7.50664,1.34667 1.68533,0.08 3.19066,0.34533 4.89466,0.34933 2.83333,0.008 6.02932,-1.44666 8.34798,-3.02533 1.024,-0.69733 1.97999,-3.10399 3.09199,-1.12933 1.03333,1.83866 -1.85466,5.21066 -2.90266,6.53065 -0.79066,0.99867 -1.57066,1.98933 -2.65333,2.68266 -0.51866,0.332 -1.22133,0.53867 -1.63466,1.016 -1.1,1.26666 -0.30933,2.44133 0.74933,3.40932 2.168,1.98133 1.912,3.40533 1.228,6.32399 -0.344,1.47333 -0.81466,2.59599 -0.35467,4.09599 0.19867,0.64933 0.67467,1.24133 0.68,1.95733 -0.33466,-0.1 -0.39333,-0.30534 -0.64533,-0.56267 -0.976,-0.99066 -2.06666,-2.54266 -2.91333,-3.66932 -0.71866,-0.95467 -0.83333,-1.79333 -1.09733,-2.87066 -0.58266,-2.372 -1.59866,-4.89066 -2.80132,-6.99332 -0.68,-1.18666 -0.912,-1.69333 -2.152,-1.94133 -1.70266,-0.34 -3.44532,-0.37066 -5.16532,-0.57199 -1.29866,-0.152 -2.91866,-1.10667 -4.12399,-1.02267 -0.048,1.08666 0.36934,2.68266 1.19867,3.45999 1.11599,1.04667 3.91599,1.272 5.39332,2.056 1.50666,0.79866 2.56399,1.99999 3.52532,3.41866 1.80533,2.66666 3.04533,5.65731 3.98532,8.69731 -1.20933,-0.672 -2.58799,-2.732 -3.67065,-3.82266 -1.55733,-1.568 -3.112,-3.36666 -4.83732,-4.70132 -1.94533,-1.50533 -3.81866,-3.05466 -5.17999,-5.13599 -1.37333,-2.09733 -2.01733,-4.65065 -3.04799,-6.91198 -0.364,-0.8 -0.95467,-1.98133 -0.99467,-2.82799 -0.0413,-0.83467 0.44667,-2.21067 0.32267,-1.952"
     style="clip-rule:evenodd;opacity:0.2;fill-rule:nonzero;stroke-width:1.33333;stroke-linejoin:round;stroke-miterlimit:2;fill:#000000;"
     id="path30" /><path
     id="path50"
     style="clip-rule:evenodd;opacity:0.2;fill-rule:nonzero;stroke-width:1.33333;stroke-linejoin:round;stroke-miterlimit:2;fill:#000000;"
     d="m 278.72864,231.86875 c -1.41467,5.83599 -4.11999,11.59464 -4.18933,17.71196 -0.028,2.48533 -0.13066,6.44132 1.74533,8.36131 1.85733,1.89866 3.65199,-3.36399 4.17599,-4.68132 0.7,-1.756 1.73866,-2.71866 1.40933,-4.71332 -0.364,-2.21066 -1.24533,-4.29466 -1.27999,-6.55465 -0.0187,-1.29867 0.39599,-2.47333 0.47199,-3.72399 0.084,-1.38533 0.304,-2.95599 0.02,-4.30532 -0.14533,-0.68667 -1.20533,-2.952 -2.35332,-2.09467 m 7.79598,11.17064 c 1.28933,4.23599 2.67599,9.94264 -0.23867,13.85597 -0.96666,1.29866 -1.74133,2.12666 -2.20799,3.79732 -0.368,1.316 -0.46267,2.28266 0.116,3.50133 0.168,0.352 0.65466,1.49333 1.07333,1.62799 0.53866,0.17467 1.53599,-0.66 1.93866,-0.93866 1.35066,-0.93733 2.49333,-2.06266 3.71866,-3.17866 1.80399,-1.644 4.76132,-3.05466 5.75198,-5.39732 1.144,-2.70533 -0.54133,-6.08132 -2.41733,-8.03465 -0.95866,-0.99866 -1.98532,-1.68533 -2.67332,-2.91866 -0.83733,-1.50399 -1.376,-2.94666 -2.73733,-4.10532 -0.56266,-0.47867 -1.02533,-0.90933 -1.68399,-0.536 -0.65734,0.37067 -0.81467,1.3 -0.64,2.32666 m 45.49722,29.67193 c -3.06266,3.38932 -5.45999,7.60398 -7.84932,11.50664 -0.81866,1.33599 -1.59066,2.70799 -2.29999,4.10532 -0.42267,0.832 -0.63067,2.27866 -1.69333,2.29333 -1.044,-1.504 -1.352,-3.71733 -2.21066,-5.42532 -0.95733,-1.9 -2.14133,-3.63333 -3.31333,-5.38532 -0.89866,-1.34267 -1.89333,-3.32533 -3.43599,-4.04266 -1.93333,-0.89866 -3.86666,-0.036 -5.61465,0.81733 -1.82266,0.88933 -3.20399,2.58133 -1.72266,4.34799 0.93733,1.11866 2.04799,2.16666 2.97999,3.30533 0.44667,0.54666 0.73066,1.26133 1.19066,1.79066 0.86533,0.996 0.88267,0.172 2.22133,0.29866 0.64667,0.0613 1.34266,0.612 1.87733,0.99334 1.21333,0.86266 3.52799,2.57199 2.50266,4.21332 -1.36533,2.18933 -4.88799,-0.0173 -5.09199,-1.91866 -0.084,-0.77067 0.42134,-2.11333 -0.33866,-2.70666 -1.02,-0.796 -2.576,0.26933 -3.37466,1.01733 -0.99333,-1.79467 -3.04399,-2.93333 -4.22532,-4.56933 -0.868,-1.20133 -1.70267,-2.31199 -2.03733,-3.80799 -0.63733,-2.84666 3.19332,-4.64398 1.50933,-7.78931 -0.736,-1.37466 -1.876,-2.64799 -2.74533,-3.99066 -0.80933,-1.25066 -1.36266,-2.63732 -1.99333,-4.05865 -0.60266,-1.36 -0.91466,-2.44133 -2.20799,-1.11467 -1.236,1.268 -1.956,3.01466 -3.06533,4.38133 -0.69866,0.85866 -2.13199,1.42266 -2.69199,2.29466 -1.88933,2.94399 3.95732,8.66264 5.17865,10.60797 1.47467,2.35199 2.012,5.02665 2.764,7.67331 0.43733,1.53867 0.82133,3.13866 1.56533,4.50533 1.25999,2.31332 3.15599,3.06266 5.64131,3.96132 2.72533,0.98533 5.80132,1.79466 8.59598,2.53199 1.39067,0.36667 2.84533,0.18134 4.26666,-0.0293 3.27332,-0.488 5.71332,-3.95999 8.10931,-6.09598 3.03199,-2.704 5.43732,-5.67732 6.87198,-9.52931 1.032,-2.76666 1.15867,-5.74399 1.452,-8.66798 0.0547,-0.55333 0.22,-1.15867 -0.81466,-1.51333 m -11.63597,-18.03599 c -0.24134,1.09333 -0.61334,1.952 -0.58134,3.10666 0.0413,1.49467 0.6,3.21066 0.20934,4.69732 -0.46934,1.78267 -2.312,3.49466 -3.69466,4.67599 -1.52133,1.29867 -2.78399,2.332 -2.45199,4.62266 0.22799,1.57466 1.91732,2.80799 2.90799,3.86799 0.98266,1.04933 1.77733,2.35199 2.88399,3.26132 0.8,0.65867 2.15066,0.88 3.23466,0.54667 1.16533,-0.35733 1.27733,-1.45067 1.81999,-2.40666 0.76267,-1.33867 1.684,-2.596 2.69733,-3.73999 1.09067,-1.23333 3.09866,-2.78533 3.76666,-4.34399 1.268,-2.95866 0.16666,-6.74399 0.0293,-9.78531 -0.0653,-1.46533 -0.15333,-2.76266 -0.684,-4.14399 -0.67733,-1.768 -1.32133,-1.896 -3.18399,-1.99333 -1.39999,-0.0747 -7.37465,0.22133 -6.95331,1.63466 m -15.0106,-9.42531 c -0.792,1.12133 -1.23067,2.82933 -1.62933,4.18266 -1.00133,3.40132 -1.90933,6.86798 -3.25199,10.15864 -0.80267,1.96533 -2.088,3.43733 -0.54,5.38265 0.95066,1.19467 2.36532,2.06933 3.44799,3.12266 0.768,0.74533 1.63466,1.60133 2.55599,2.17066 2.292,1.41867 3.05999,-0.0533 4.61732,-1.81332 1.028,-1.16267 2.93333,-2.84133 1.92933,-4.58666 -0.608,-1.05733 -2.31466,-1.70133 -3.17599,-2.55333 -0.96266,-0.95333 -1.93066,-2.39999 -2.57199,-3.54132 -0.48934,-0.87067 -1.59067,-3.85732 0.37066,-2.77733 1.83866,1.01467 2.464,3.70533 4.25466,4.91599 1.67733,1.13333 3.44532,1.75866 4.88532,-0.14267 -0.97333,-1.41466 -2.19466,-2.15466 -2.40133,-3.97332 -0.22,-1.92133 0.196,-3.33332 -1.42133,-4.84265 -1.19199,-1.112 -2.34799,-1.144 -3.08132,-2.644 -0.61734,-1.26399 -0.98,-2.78932 -1.92267,-3.84399 -1.19999,-1.34266 -2.58666,0.0947 -2.06532,0.78533 m 6.39998,-10.12264 c -1.51066,2.74666 -0.98933,7.70532 1.24,9.85064 1.47199,1.41733 2.52266,2.912 3.84799,4.36933 1.01466,1.11466 2.96132,1.34133 4.45065,1.54666 1.992,0.27467 5.59999,-0.0173 7.04532,-1.508 1.66799,-1.71999 1.2,-5.48265 1.452,-7.74264 0.19599,-1.74533 0.56533,-3.404 0.47199,-5.23599 -0.044,-0.83733 -0.51466,-5.34799 -1.63332,-5.47332 -1.04667,-0.11867 -1.788,6.81198 -3.028,7.78798 -1.24666,-1.72666 -2.06266,-3.89732 -2.70532,-5.92132 -0.236,-0.74533 -0.3,-2.12399 -1.224,-1.83999 -2.22266,0.68399 -0.076,5.43998 -1.66,6.51065 -1.25599,-1.75467 -2.41332,-3.59866 -3.16266,-5.47732 -0.70799,0.90266 -0.53333,2.69732 -0.58266,3.85732 -0.088,2.12533 -0.85467,4.05199 -1.28,6.13465 -2.35466,-2.77466 -0.84666,-7.20131 -2.32133,-10.22131 -1.05599,0.57467 -0.94133,1.95067 -0.91066,3.36266 m 12.21864,-20.71195 c 1.51199,1.064 2.48266,3.492 3.51732,4.97466 1.092,1.56533 2.97466,2.90266 3.66799,4.68399 0.64667,1.66133 -0.15466,4.57599 -1.71733,5.58798 -2.36799,1.53333 -2.95066,-4.09065 -3.34799,-5.73065 -0.40266,-1.664 -1.10933,-1.56266 -1.30533,0.168 -0.19733,1.73866 -0.17466,3.38666 -0.724,5.06665 -0.65333,-1.93732 -1.25333,-3.74665 -1.25466,-5.78398 0,-1.452 0.12267,-2.86799 0.11733,-4.31199 -0.007,-1.49733 -0.024,-4.99999 1.97733,-3.02533 m -11.3773,7.44665 c -0.23467,1.22266 0.35733,1.776 1.00133,2.68933 1.19599,1.69599 2.23199,3.63732 4.65065,2.51732 0.83333,-0.38533 1.26533,-1.19066 1.51333,-2.08132 0.73467,-2.63066 0.21867,-5.80132 0.46267,-8.51998 0.076,-0.852 0.38533,-2.412 -0.204,-3.10266 -1.44533,-1.69466 -6.02132,1.88799 -7.30132,2.67466 -2.76399,1.70133 -5.43732,3.56799 -7.88264,5.70532 -1.7,1.48666 -2.92666,3.59599 -4.18399,5.46265 -1.624,2.41333 -3.57733,4.59599 -5.49332,6.75198 -0.86133,0.96934 -1.83867,1.952 -2.89866,2.748 -0.90933,0.68266 -2.23866,1.38266 -2.828,2.34799 1.54267,1.88933 9.34531,-4.95599 9.98798,-5.74532 3.17332,-3.89465 6.34398,-7.88264 9.80131,-11.56397 1.09733,-1.16933 2.75999,-2.17066 4.37732,-2.42933 -0.032,0.964 -0.82933,1.64 -1.00266,2.54533 m -7.93934,6.86581 c -2.15324,3.23562 -0.30715,6.50986 1.80784,9.47791 2.01219,2.82491 2.16759,-2.70193 2.37845,-4.25703 0.21727,-1.59613 1.75928,-6.00965 0.14814,-6.9959 -1.31797,-0.80605 -3.52268,0.72421 -4.33443,1.77502 m -4.42063,4.42083 c -1.612,2.48799 -2.83866,4.85599 -4.85466,7.00532 -1.89999,2.02399 -0.83866,3.86399 0.31067,6.08531 0.316,0.61067 0.98133,2.22933 1.62533,2.50666 1.66666,0.716 3.22532,-2.64132 3.82799,-3.70665 0.988,-1.744 2.17466,-3.60933 1.77066,-5.71732 -0.244,-1.26933 -0.7,-2.55466 -1.07866,-3.81599 -0.572,-1.90266 -0.86667,-1.268 -2.648,-0.844" /><path
     id="path56"
     style="clip-rule:evenodd;opacity:0.2;fill-rule:nonzero;stroke-width:1.33333;stroke-linejoin:round;stroke-miterlimit:2;fill:#000000;"
     d="m 189.38086,119.78103 c 0,0 17.49329,1.804 22.72261,7.03332 5.23065,5.22932 14.42796,9.91864 16.59196,11.3613 2.16399,1.44267 10.45997,4.86933 29.57592,7.57465 19.11596,2.70533 28.31327,7.21332 35.88658,12.80397 7.57465,5.59065 14.42797,12.08264 28.3146,10.81997 13.8853,-1.26266 20.19728,-16.41062 21.82128,-19.11595 1.62266,-2.70533 9.55731,-22.54261 8.83597,-29.39459 -0.72133,-6.85332 -2.52532,-9.01731 -2.52532,-9.01731 0,0 -4.68799,26.50926 -17.13196,29.93592 -12.44264,3.42666 -56.98786,-5.59065 -78.6278,-12.80397 -21.64128,-7.21331 -40.75724,-10.63997 -65.46384,-9.19731 m 150.81696,51.69987 c -0.54134,2.44267 -1.228,4.85733 -2.332,7.10932 -1.26933,2.58933 -3.15599,4.97999 -5.63865,6.49598 -0.81867,0.5 -2.06933,1.324 -3.03599,1.17333 -0.38134,-0.06 -2.16533,-1.04133 -1.7,-1.57599 -1.56666,1.79866 -0.42,4.68265 -0.004,6.71198 0.34267,1.67066 0.52267,3.22533 1.27733,4.75066 1,2.02132 1.74533,3.80932 2.472,6.05598 0.37999,1.17066 0.95866,3.22133 2.30532,3.60133 1.756,0.49466 4.64266,-1.692 5.81065,-2.90933 1.70133,-1.77333 2.984,-3.87332 4.10266,-6.04532 1.33066,-2.57999 2.90399,-5.32399 2.62399,-8.33731 -0.27333,-2.95066 -1.19733,-5.83199 -0.76533,-8.79598 0.43467,-2.97466 0.72,-6.22665 0.116,-9.17198 -0.588,-2.87199 -1.62133,-5.94798 -2.25866,-8.80931 0.17867,0.80133 -1.27999,3.30933 -1.55466,4.18133 -0.416,1.32799 -0.80133,2.55866 -1.07466,3.92665 -0.10934,0.54667 -0.22267,1.09333 -0.344,1.63866 m -44.01456,33.04392 c 3.85732,-3.41332 8.15598,-6.64265 12.19064,-9.91597 1.92932,-1.564 4.29198,-3.00266 5.73598,-5.12532 0.288,-0.42267 0.95867,-1.61867 0.69467,-2.12533 -0.28534,-0.54933 -2.89866,0.0973 -3.54533,0.42 -1.70399,0.85066 -2.50399,3.14799 -4.46932,3.81732 -0.11867,-1.264 0.928,-2.43333 1.34666,-3.58266 0.50267,-1.37999 0.89733,-2.81866 1.076,-4.27199 0.248,-2.01199 -1.02666,-3.66799 -2.78933,-4.57065 -1.06933,1.51733 -1.09866,4.52932 -1.50933,6.30798 -0.34266,1.48133 -0.97599,2.87066 -1.25733,4.37599 -0.70933,3.79333 -3.00665,7.68798 -5.08798,11.00664 -0.57333,0.91333 -2.32,2.464 -2.252,3.53066 0.15067,0.0253 0.29467,0.0147 -0.13333,0.13333 m -54.3892,-45.99988 c 0,0 2.272,29.27726 2.272,33.56791 0,4.29066 8.83331,9.97064 14.25996,13.75597 5.42665,3.78532 10.72664,10.97864 14.7653,10.09597 4.03732,-0.88399 17.54129,-6.56265 22.08394,-12.11463 4.54266,-5.55332 8.83331,-15.27063 6.56265,-22.96795 -2.27199,-7.69864 -11.73597,-17.66795 -22.84261,-24.60927 0,0 17.41596,21.83195 13.3773,31.92792 -4.03865,10.09598 -14.51196,13.50397 -19.30795,10.97998 -4.79599,-2.524 -25.11327,-46.56655 -27.0066,-49.46921 -1.89199,-2.90266 -16.15329,-10.22265 -16.15329,-10.22265 0,0 8.95998,9.84398 11.9893,19.05596 m -65.49717,9.21731 c 0.28934,0.61333 0.572,1.23066 0.856,1.84533 0.856,1.85466 1.05466,3.19199 2.80533,4.38665 3.51332,2.39733 7.69198,3.50933 11.47197,5.38799 3.04132,1.51066 5.12532,3.94132 8.17598,5.44798 2.84799,1.40533 6.44131,3.57066 9.75331,3.31333 1.89199,-0.148 3.83332,-0.564 5.45998,-1.54533 0.98933,-0.596 1.8,-1.548 2.816,-2.15599 1.30533,-0.78 2.79066,-1.09867 4.24665,-1.47467 1.07733,-0.27733 2.30133,-0.50933 3.40666,-0.53866 1.18933,-0.0293 1.256,0.31866 2.12399,1.07999 1.43733,1.25867 2.79733,-0.39199 4.65199,0.0867 1.83333,0.47333 2.408,2.22933 3.89599,3.31866 1.20133,0.87733 2.06666,1.90533 3.20133,2.74933 0.68533,-0.42667 0.792,-2.124 0.93066,-2.86933 0.57867,-3.08266 0.88933,-6.21065 1.284,-9.32798 0.32667,-2.59066 0.52667,-5.35998 -0.172,-7.88131 -0.712,-2.57066 -1.92933,-5.02665 -2.83599,-7.56398 -0.79067,-2.216 -1.80533,-4.48132 -2.10666,-6.77865 -0.536,1.24533 -0.64267,1.77599 -1.86533,1.128 -1.08267,-0.57467 -2.18266,-1.34667 -3.13866,-2.08267 -3.35999,-2.58799 -6.65198,-5.20798 -9.60531,-8.27331 -2.39066,-2.48133 -5.08532,-4.95465 -7.68665,-7.13998 -0.53733,-0.45067 -2.99199,-2.99333 -3.74799,-2.17466 -0.736,0.79733 0.79333,2.78932 1.17866,3.37332 1.83067,2.77866 3.97599,5.49599 6.46132,7.65465 3.30266,2.86533 6.97332,5.28799 10.13464,8.28798 1.68,1.59466 3.97733,3.46266 4.19066,5.85599 0.0813,0.90133 0.16533,2.46266 -0.79733,2.40132 -0.72933,-0.0453 -2.85199,-2.48399 -3.39599,-2.99332 -0.70267,-0.65867 -1.43733,-1.35467 -2.16266,-2.01333 -1.61733,-1.47066 -3.65866,-2.516 -5.47999,-3.74533 -2.16,-1.45599 -4.23999,-3.08799 -6.07199,-4.93065 -2.21066,-2.22533 -4.31198,-4.61465 -6.48531,-6.88932 -0.86133,-0.90266 -1.72933,-2.06932 -2.69866,-2.79732 -0.36934,1.50399 0.22533,3.13332 0.91066,4.53465 0.35333,0.72 0.836,1.38933 1.348,1.98533 1.89999,2.21733 4.12799,4.56132 6.35732,6.46132 1.84132,1.56666 3.71065,3.07732 5.59865,4.56399 1.49333,1.17599 3.15332,2.15733 4.17732,3.73599 0.88133,1.36133 2.02666,3.06266 1.81733,4.75732 -0.93733,0.168 -1.77733,-0.94933 -2.33866,-1.60933 -1.184,-1.392 -2.188,-2.47333 -3.69466,-3.62532 -3.04799,-2.32933 -6.31865,-4.40399 -9.46264,-6.63732 -2.66399,-1.892 -4.65999,-4.51466 -6.72265,-7.07998 -1.40666,-1.748 -2.68133,-3.58533 -4.36266,-5.04266 -1.95199,-1.69199 -4.27865,-2.34799 -6.27465,-3.79732 -1.03466,-0.752 -2.41866,-2.20266 -2.02666,0.40133 0.052,0.34267 0.34,0.724 0.48133,1.032 0.94,2.05066 1.91066,4.07599 2.964,6.05865 0.82133,1.54666 1.43466,2.60666 2.72932,3.89599 4.08666,4.07199 8.65065,7.87331 13.33997,11.18531 0.42666,0.30133 3.39732,2.10932 2.91199,2.65199 -0.77466,0.86533 -3.99199,-1.63866 -4.45865,-1.964 -1.92533,-1.34533 -3.92933,-2.60799 -5.84266,-3.97599 -2.26532,-1.61999 -4.60132,-3.25999 -6.72931,-5.03865 -2.984,-2.49466 -5.25866,-5.64665 -7.70798,-8.61465 -1.13867,-1.37866 -3.01733,-4.78398 -5.18132,-3.85065 -1.39067,0.60133 -1.9,1.88933 -3.4,2.28133 -2.15466,0.56266 -4.24398,0.56933 -6.44131,0.59333 -2.116,0.0227 -2.04933,2.15199 -3.37733,3.59065 -2.39599,2.59467 -2.24933,3.99466 -0.108,6.95065 1.92666,2.65866 2.436,5.94666 4.15733,8.65598 0.96666,1.52 1.77466,3.13066 2.54132,4.75866" /><path
     d="m 310.21922,96.394426 c -3.46132,2.193328 -6.18398,3.429324 -8.38264,7.105314 -2.488,4.15999 -3.08133,9.37731 -3.08799,14.15197 -0.007,4.33065 0.92133,6.43598 3.87465,9.53731 2.65066,2.78132 5.86532,4.90665 9.04931,7.03998 1.03733,0.69466 2.028,1.61333 3.26666,1.93999 3.84533,1.01467 6.78265,-0.70266 9.28931,-3.48266 3.10133,-3.43999 5.01199,-7.47464 5.01332,-12.11863 10e-4,-6.21332 -1.51199,-12.47064 -4.99732,-17.70396 -2.00533,-3.009323 -4.76399,-6.981313 -8.72531,-7.195979 -1.88133,-0.101333 -4.76265,0.210666 -5.29999,0.726665"
     style="clip-rule:evenodd;fill:#ffffff;fill-rule:nonzero;stroke-width:1.33333;stroke-linejoin:round;stroke-miterlimit:2;fill-opacity:0.1"
     id="path72" /><path
     id="path77"
     style="clip-rule:evenodd;opacity:0.2;fill-rule:nonzero;stroke-width:1.33333;stroke-linejoin:round;stroke-miterlimit:2;fill:#000000;"
     d="m 231.37275,360.0191 c 2.02933,2.43733 2.22533,7.37865 2.892,10.42664 0.67866,3.09999 0.61333,5.96132 0.001,8.96664 -1.46266,7.17065 -2.65466,17.23863 -10.37731,20.69329 h 17.39596 c 0.444,-0.40667 0.69733,-0.896 0.69867,-1.47867 0.012,-3.17866 -4.10933,-4.83332 -5.57199,-7.06798 4.83599,-2.99332 12.23464,-2.32933 17.70795,-3.51066 3.456,-0.74533 10.12131,-2.24399 10.81598,-6.57865 -6.77599,-0.97599 -12.90664,-2.54266 -18.25862,-6.86531 -0.89333,-0.72267 -2.71866,-1.68933 -3.16933,-2.72666 -1.07333,-2.468 0.46267,-2.04666 2.068,-2.47333 3.00932,-0.8 6.68531,-1.976 6.37731,-6.08132 -0.55066,-7.35865 -13.4333,-1.62799 -16.62395,-6.33598 1.40932,0.40933 0.53066,-0.0987 -0.23067,-0.792 2.95466,-3.95466 7.96265,-10.51597 7.89598,-15.75463 -3.98132,6.27999 -14.29997,13.97863 -21.82261,15.2213 2.93332,2.89199 7.54931,1.17199 10.2013,4.35732 m -29.40759,40.08657 c 4.11865,-4.33199 7.40798,-9.32398 8.71998,-14.83597 0.464,-1.95066 0.32533,-5.26265 -2.16666,-5.06132 -1.67333,0.136 -4.38799,3.43466 -5.63732,4.54132 -5.28666,4.68533 -10.33331,8.85865 -16.32663,12.55864 -1.50933,0.932 -2.94399,1.888 -4.39332,2.79733 z m -70.27236,-20.47195 c 1.91066,0.736 3.83866,1.66266 5.36532,2.02933 5.15465,1.23466 10.77997,2.17599 16.08663,1.97866 9.03731,-0.336 19.47862,-4.17599 27.75993,-7.91732 3.81465,-1.72399 7.75865,-3.51465 11.1173,-6.05731 -1.46533,-2.752 -2.84266,-5.34932 -3.90665,-8.42932 2.12666,0.95867 3.90665,2.67466 6.17865,3.63599 2.77332,1.17333 5.91865,2.156 8.74664,3.02533 -1.45733,5.35065 -6.71598,9.19864 -11.17464,11.83997 -6.24398,3.69866 -12.7133,7.28265 -19.55328,9.50131 -4.92932,1.6 -10.20531,3.88532 -15.15863,5.67599 -5.65999,2.04666 -9.17731,-1.81467 -14.10796,-4.40133 -5.71332,-2.99732 -12.67064,-6.19065 -16.23863,-11.8413 1.4,-0.22667 3.13599,0.28667 4.88532,0.96 m 42.1791,-80.9558 c 2.37866,2.95999 7.28798,4.29332 10.23197,6.71332 4.45599,3.66399 7.08532,9.69864 10.38397,14.41196 2.352,3.36266 5.09332,6.68398 8.60665,8.86798 1.66133,1.03333 3.50399,1.34799 5.15865,2.29599 -3.61332,-0.844 -7.52798,-2.35866 -10.80664,-4.19732 -3.73732,-2.09466 -6.33731,-5.02532 -9.33064,-7.98531 -2.37866,-2.352 -4.60399,-3.66399 -7.29598,-5.31332 -1.75866,-1.07867 -3.20533,-2.668 -3.99466,-4.56399 6.20399,-3.18933 -5.43465,-10.04398 -6.55998,-13.47597 z m -31.19859,-16.05063 c 4.02665,3.97066 9.53597,7.04132 14.87729,8.92931 4.66266,1.64667 6.48399,6.31999 9.14798,10.23065 1.67466,2.45866 3.56266,3.75599 5.62799,5.55465 -3.124,-0.488 -6.68932,-2.97999 -9.45731,-4.46932 -2.652,-1.42667 -4.77066,-3.18533 -6.71465,-5.41332 -1.19067,-1.36267 -2.74933,-2.22533 -4.27466,-3.15466 -3.39866,-2.072 -6.34932,-4.65066 -9.41998,-7.19732 -2.69999,-2.23866 -5.21998,-4.99332 -6.39198,-8.27998 2.58399,0.32134 5.56132,3.85066 6.60532,3.79999 M 120.67156,266.578 c 3.14933,6.78932 5.64132,13.96797 10.34798,19.93062 11.8173,14.97596 28.94659,26.23993 46.75855,32.75458 0.804,0.29333 1.63733,0.59333 2.26666,1.17467 1.10533,1.02133 1.33466,2.64932 1.58933,4.13199 0.62666,3.65599 1.79199,7.21864 3.44399,10.53997 1.288,2.59199 3.45333,6.97331 6.09199,8.40531 -2.61066,-1.41733 -4.60266,-4.25065 -7.00265,-6.04798 -2.392,-1.792 -4.57866,-3.82399 -6.64799,-5.96666 -5.27598,-5.46398 -12.8173,-8.80931 -19.23595,-12.7853 -8.05465,-4.99065 -16.16129,-10.3133 -22.46128,-17.48529 -4.91198,-5.59065 -7.89998,-12.99996 -10.8613,-19.75195 -2.08266,-4.75065 -3.74933,-9.71864 -4.28933,-14.89996 m -9.7289,33.00525 c -1.20267,-2.47599 -5.26532,-4.93199 -7.24532,-6.83998 -5.090653,-4.90266 -9.486642,-10.71198 -14.25063,-15.79463 1.08933,6.24399 0.783998,12.99997 -0.228,19.28262 -1.534663,9.53331 -8.805311,16.79462 -13.139967,25.1226 -4.255989,8.17465 -11.563971,13.1133 -18.377287,18.99462 -7.411982,6.39732 -16.362626,10.80531 -24.049273,16.96396 -7.323982,5.87065 -14.645297,11.90397 -23.334609,15.66529 -3.4519912,1.49333 -6.966649,2.87733 -10.45730698,4.32533 v 14.40796 c 2.38399408,-0.85466 4.45865548,-1.71466 5.75198558,-2.24133 3.7746573,-1.53733 7.5759814,-3.30266 11.1119724,-5.35465 2.097328,-1.21733 4.983987,-3.58799 7.454648,-3.71332 3.198659,-0.16267 3.411991,3.49999 4.599988,6.30131 1.326664,3.132 2.319995,6.37599 3.753324,9.44931 0.394666,0.84667 1.007998,2.32266 1.790663,3.95333 h 9.599976 c -1.181331,-3.41466 -3.307992,-6.93732 -4.033324,-8.51465 -1.439996,-3.12532 -10.227974,-17.46396 -4.975987,-20.16262 3.353325,4.41599 6.129318,9.14665 9.902642,13.21064 4.746654,5.11199 9.682642,9.73464 14.739963,14.54263 0.311999,0.296 0.613332,0.60666 0.911997,0.924 h 16.525293 c -0.282666,-0.20267 -0.562666,-0.408 -0.827998,-0.61867 -6.605317,-5.21999 -7.074649,-16.65996 -6.038652,-24.6426 1.038664,-7.98798 10.217308,-8.23998 11.129306,-16.75863 0.211999,-1.97466 -0.08667,-3.72132 -0.638666,-5.39199 -0.567998,-1.71732 -1.403996,-3.35332 -2.226661,-5.07065 -2.63866,-5.50665 -1.070664,-13.79063 0.622665,-19.36928 1.330664,-4.38399 3.946657,-9.63598 6.841317,-13.17864 2.066661,-2.52799 4.291989,-5.85332 7.083982,-7.69198 3.453325,-2.27199 20.539949,-2.57866 18.003959,-7.79998 m 31.73032,-197.83684 c -2.70533,3.15599 -38.32257,59.87319 -40.48657,62.66785 -2.16399,2.79599 -18.303953,0.36133 -34.17458,-0.18 -15.869294,-0.54134 -67.13716552,31.85325 -67.13716552,31.85325 l -0.93199767,2.25866 v 140.30498 c 0,1.07467 -0.0266666,2.088 -0.08266646,3.06133 v 29.46259 c 0.29199927,-0.11866 0.58133188,-0.22666 0.87599781,-0.348 5.60131934,-2.29332 11.30797184,-5.32132 15.84662684,-9.30931 4.583989,-4.02932 10.503974,-8.98931 12.002637,-15.12396 -2.809326,1.248 -6.351984,2.072 -9.550643,1.888 -6.422651,-0.37067 -7.755981,-7.04265 -8.470645,-12.19864 -1.9733288,-14.23196 2.891992,-27.19593 9.663975,-39.8999 1.815996,-3.40666 4.443989,-6.17999 7.159983,-8.93864 -4.953321,-6.62265 -9.734643,-13.07197 -10.425308,-22.19862 -0.742665,-9.78797 0.208,-24.62127 10.581307,-28.30393 4.689322,-1.66399 9.38931,-1.72399 14.390631,-1.72399 4.05999,-0.001 15.114629,2.00266 16.887958,-2.17466 0.995997,-2.344 -0.961331,-5.31599 -1.721329,-7.28398 -1.378664,-3.56799 -2.178662,-7.80665 -1.893329,-11.73864 0.542665,-7.49065 8.085313,-12.62797 14.177298,-16.17463 4.183989,-2.43466 8.473312,-4.81599 12.734635,-7.22265 5.497319,-3.10532 11.766637,-5.44132 16.891957,-9.16397 16.730628,-12.15464 18.965288,-36.66791 32.002588,-52.01587 10.93997,-12.87864 21.50928,-27.2226 35.18258,-37.21591 2.80532,-2.049328 5.79198,-3.679991 8.36264,-5.915985 1.22667,-1.066664 3.344,-2.753327 5.46532,-4.597322 -19.49461,6.219984 -35.03991,17.535956 -37.3519,20.231947 M 73.783149,245.29805 c 6.677317,3.48933 15.077296,5.02799 22.370611,6.71599 4.19332,0.97199 9.29198,2.62932 13.6733,2.45332 0.20933,-2.74132 -0.80533,-5.13732 -1.616,-7.63464 -0.30133,-0.92933 -1.09199,-3.03466 -0.12666,-3.85199 1.27466,-1.07867 5.44132,0.78933 6.95998,0.69333 1.91066,-0.12 1.72799,-0.70267 2.38133,-2.16266 0.84133,-1.88 1.71333,-1.93867 3.56799,-3.25466 2.37599,-1.68666 4.15199,-4.50266 6.19332,-6.64932 6.55465,-6.89198 11.58797,-14.96263 13.1413,-24.27461 0.35599,-2.12799 0.63733,-4.46132 0.85733,-6.71464 0.148,-1.50667 -0.28134,-4.97333 1.81733,-3.792 1.70532,0.96 2.39999,4.43866 2.02399,6.09199 -1.95066,8.59998 -5.68265,16.97462 -8.11998,25.4186 -1.93733,6.71332 -3.87066,13.91863 -7.09598,20.17062 -1.75733,3.40399 -4.73066,6.10932 -6.61332,9.46264 -0.936,1.66533 -0.82666,2.93199 -0.93466,4.79732 -1.31867,-0.276 -2.94933,-1.35066 -4.29732,-1.81999 -1.62267,-0.564 -3.51066,-2.01466 -5.23999,-2.08266 -1.00133,-0.04 -0.72133,0.18666 -1.70666,0.56933 -2.53466,0.98533 -4.25999,0.37733 -6.94799,-0.62533 -2.52932,-0.944 -5.293317,-1.40933 -7.919977,-1.97467 -1.714662,-0.36799 -3.631991,-1.02266 -5.387987,-0.88533 -0.389332,2.264 1.527997,4.04133 1.203997,6.23599 -2.58666,-1.42 -5.066654,-2.816 -7.83198,-3.74799 -2.293328,-0.77333 -6.289318,-2.69066 -8.511979,-1.772 -0.531998,0.22 -0.887998,0.828 -1.565329,1.09467 -1.705329,0.66666 -3.850657,0.72666 -5.649319,1.26799 -4.057324,1.22267 -8.133313,2.896 -12.24797,4.21999 -2.810659,0.904 -4.973321,1.724 -7.199982,3.53333 4.354656,-3.73066 9.195977,-6.60399 14.223965,-9.39998 2.647993,-1.47333 6.571983,-2.76933 6.45465,-6.35598 -0.07333,-2.26 -1.863995,-4.41199 -1.630662,-6.66799 0.302666,-2.94532 3.083992,-1.69466 5.774652,0.94133 M 299.82458,381.56438 c 0.70934,1.30933 0.808,2.88933 0.87867,4.38132 0.19333,4.09866 -0.724,8.40531 -1.46533,12.41864 -0.11067,0.59733 -0.25333,1.16933 -0.39467,1.74133 h 76.03981 c -0.44133,-1.38533 -1.22133,-2.79066 -1.79466,-4.02133 -1.62266,-3.48265 -3.32266,-6.94665 -4.97732,-10.4013 -1.21866,-2.548 -2.46533,-4.31599 -4.39866,-6.37199 -1.97199,-2.09733 -3.38932,-4.74932 -4.89332,-7.20265 -1.77066,-2.88666 -2.87066,-4.82665 -1.58399,-8.09731 1.15866,-2.94533 2.44532,-5.83865 3.75065,-8.74264 1.71867,-3.828 3.09733,-8.08132 4.31866,-12.15064 0.61467,-2.05066 1,-4.16266 1.63733,-6.20665 0.564,-1.812 1.472,-3.37999 1.51733,-5.32132 0.0907,-3.87733 1.80399,-21.37062 1.35333,-26.0586 -0.45067,-4.68933 -1.08267,-11.45198 -3.15599,-18.84529 -2.07466,-7.39465 -9.55865,-17.31329 -9.55865,-17.31329 0,0 -3.51599,-15.05863 -5.77065,-20.19862 -1.96533,-4.48265 -15.10796,-14.86129 -18.43729,-17.44129 -0.25333,0.79734 -0.38399,1.568 -0.33199,2.596 0.0693,1.40266 -0.324,2.68532 -0.39867,4.04665 -0.10533,1.928 0.18267,3.78266 0.272,5.67466 0.32933,6.95465 0.36,13.71996 0.25866,20.69728 -0.076,5.22265 -0.22933,10.6413 -1.05333,15.76796 -0.18266,1.13466 -0.46399,2.48266 -0.80133,3.65066 -0.28933,1.00399 -1.61733,2.88266 -1.31866,3.95199 0.4,1.43333 3.61199,3.02666 4.73599,3.79065 1.05333,0.716 2.19199,1.364 3.18666,2.15866 2.24399,1.79333 3.69999,4.62533 5.27598,6.97065 2.05733,3.06133 4.26799,6.09599 6.26399,9.17998 2.04933,3.16666 2.73999,8.75065 1.49866,12.35597 -0.98266,2.84799 -3.06399,4.98665 -5.09865,7.14132 -4.54133,4.80932 -10.82664,7.12264 -16.7053,9.84797 -1.21599,0.564 -3.90932,1.588 -4.44398,3.05599 -0.472,1.29333 0.3,3.76666 0.21066,5.27599 -1.26133,-0.66533 -2.37466,-1.78933 -3.26932,-2.77466 -0.0653,1.096 0.108,2.41333 -0.256,3.43866 -1.12933,3.17332 -7.82398,2.47466 -10.35864,2.25599 -3.60266,-0.312 -6.46932,-1.63733 -8.90531,-4.40799 -1.72133,-1.95866 -3.11066,-4.18665 -4.26533,-6.52931 -0.72799,-1.476 -1.09599,-3.79466 -2.52666,-4.81066 0.66133,2.44666 0.81333,5.01332 0.79467,7.53732 -0.02,2.59866 0.73733,4.21999 1.45866,6.69998 0.27733,0.95466 0.52667,1.91866 0.748,2.89066 0.93733,4.10799 1.37733,8.34265 1.37866,12.54663 0,5.89999 -0.54533,13.9533 -4.66932,18.64529 1.516,0.168 4.07199,-0.768 5.25465,-1.82266 M 138.79565,151.43029 c 0,0 -4.05732,7.84531 -1.35199,15.41863 2.70399,7.57464 9.73731,16.77195 11.3613,28.40393 1.62266,11.63197 2.43466,21.09994 4.32799,28.13326 1.89333,7.03331 25.42794,54.3732 55.72519,68.70916 0,0 -40.57723,-19.74662 -54.91452,-54.37186 0,0 6.76398,29.48526 28.94526,49.7732 0,0 -21.91195,-19.74661 -29.75593,-29.21459 -7.84531,-9.46798 19.20662,23.80527 22.72261,29.48526 3.51732,5.68132 14.87863,19.74795 20.01728,24.34661 5.13999,4.59865 16.5013,14.06663 24.07594,12.44263 0,0 -21.37061,-14.06663 -28.40393,-24.34527 -7.03331,-10.27997 -7.30398,-15.1493 -2.70532,-10.81997 4.59865,4.32799 27.3226,9.73731 35.70791,10.27864 8.38531,0.54133 -10.27998,-8.11465 -17.85329,-15.95996 -7.57465,-7.84532 18.93595,3.78665 41.11723,1.62266 l 1.08266,-6.22132 15.6893,-1.89333 c 0,0 -25.6986,-9.73864 -32.73192,-11.90263 -7.03332,-2.164 -54.3332,-15.8253 -58.54652,-25.76661 -4.21199,-9.9413 -13.67997,-35.91057 -14.49196,-42.40256 -0.81067,-6.49198 1.89466,-14.87729 0,-17.04129 -1.89333,-2.16399 -10.27864,-10.00931 -12.98397,-15.69062 -2.70533,-5.67999 -7.03332,-12.98397 -7.03332,-12.98397 m 95.2571,181.61688 c -1.87866,0.70933 -3.66399,0.97599 -4.96532,0.36266 1.88133,-3.33732 6.71998,-6.30798 9.26664,-9.68264 2.93066,-3.88399 5.39332,-7.69065 6.61598,-12.3933 2.18533,-8.39731 2.11867,-17.58396 3.92399,-26.18127 1.51867,-7.23598 1.55067,-7.63731 9.49331,-7.93465 4.79199,-0.17866 10.48531,-0.10666 14.6893,2.42666 1.83733,1.10667 3.42266,2.976 4.78799,4.60666 -3.53466,4.44132 -6.07332,8.65998 -10.41731,12.42663 -3.04932,2.644 -7.11731,5.11466 -9.36531,8.53732 -4.58399,6.98265 -9.09198,16.33062 -15.13996,22.13727 -1.62533,1.56133 -5.41599,4.38399 -8.88931,5.69466" /><path
     d="m 223.14744,178.08222 c 0,0 -7.70398,-7.31865 -10.52797,-9.24398 -2.82533,-1.92666 -10.78531,-6.29198 -10.78531,-6.29198 l -3.97999,4.36532 c 0,0 2.05466,8.85998 4.62266,10.52931 2.56799,1.668 11.81197,5.00665 15.66396,3.72266 3.85066,-1.284 5.00665,-3.08133 5.00665,-3.08133"
     style="clip-rule:evenodd;fill:#efeae2;fill-rule:nonzero;stroke-width:1.33333;stroke-linejoin:round;stroke-miterlimit:2"
     id="path79" /><path
     d="m 218.14079,181.16355 c 3.85199,-1.284 5.00665,-3.08133 5.00665,-3.08133 0,0 -7.70265,-7.31865 -10.52797,-9.24398 -2.82399,-1.92666 -10.78397,-6.29198 -10.78397,-6.29198 l -3.97999,4.36532 c -0.23734,0.26 0.73333,2.724 0.82933,3.03733 0.56933,1.86533 1.42133,3.29199 2.24799,5.00932 0.60933,-1.31866 0.66133,-3.17466 2.12266,-3.55199 1.65866,-0.42933 4.11999,0.61733 5.59599,1.32266 2.40933,1.14933 4.63732,2.53466 6.57598,4.37466 1.68933,1.60399 0.748,2.70932 -0.77066,4.16932 1.19733,0.228 2.51066,0.28133 3.68399,-0.10933"
     style="clip-rule:evenodd;opacity:0.2;fill-rule:nonzero;stroke-width:1.33333;stroke-linejoin:round;stroke-miterlimit:2;fill:#000000;"
     id="path80" /><path
     d="m 188.29953,162.70226 c 2.02533,0.98266 3.66666,2.97199 5.54532,4.19332 0.85333,0.55333 2.05199,1.67867 3.11466,1.58133 1.32266,-0.12133 2.56266,-2.00133 3.60266,-2.71332 3.00799,-2.05733 7.03198,0.76933 9.74797,2.49866 2.81599,1.79466 5.70532,5.16932 7.70931,7.97464 1.83333,2.56666 1.30534,5.36932 -0.98666,7.34932 1.41866,0.11733 2.092,-0.76533 3.32399,-1.09467 1.28133,-0.344 2.72,0.472 3.97066,0.088 1.408,-0.432 0.87333,-1.26933 0.22,-2.81999 -0.79467,-1.88533 -1.836,-3.88266 -3.10533,-5.51999 -2.19599,-2.83332 -5.87465,-4.45332 -8.79864,-6.39598 -2.82399,-1.87466 -5.47065,-3.91732 -8.31998,-5.85332 -2.60933,-1.77199 -6.91465,-3.31599 -8.27865,-6.44798 -0.26133,3.03999 3.168,6.37732 1.88267,9.05331 -1.48667,3.09332 -4.75733,-0.056 -6.92265,-0.81067"
     style="clip-rule:evenodd;fill-rule:nonzero;stroke-width:1.33333;stroke-linejoin:round;stroke-miterlimit:2;fill:#000000;"
     id="path82" /><path
     d="m 198.9395,166.48892 c 0.48533,2.88132 1.23333,6.97065 3.51733,9.10931 2.63866,2.47199 6.69465,4.80799 10.27864,5.13732 5.32532,0.49066 4.69065,-0.19333 6.00532,-1.01867 0.228,0.45467 1.67999,1.07733 1.58266,1.57467 -8.36131,1.97733 -20.21595,-1.68933 -22.96661,-10.47331 -0.64533,-2.06 -0.46133,-3.89199 1.54666,-5.03199 -0.052,0.32533 0.19334,0.568 0.036,0.70267"
     style="clip-rule:evenodd;fill-rule:nonzero;stroke-width:1.33333;stroke-linejoin:round;stroke-miterlimit:2;fill:#000000;"
     id="path83" /><path
     d="m 205.68615,164.72892 c 1.95066,1.784 2.06,4.63066 2.05466,7.12532 -0.004,1.24799 -0.70533,6.28665 0.34667,7.03598 1.26666,0.904 3.83732,-2.93199 4.53066,-3.82666 1.33333,-1.72399 2.93999,-3.76932 0.87466,-5.42398 -2.33199,-1.86933 -4.87199,-2.74666 -7.80665,-4.91066"
     style="clip-rule:evenodd;fill-rule:nonzero;stroke-width:1.33333;stroke-linejoin:round;stroke-miterlimit:2;fill:#000000;"
     id="path84" /></g></svg>
