<?xml version="1.0" encoding="UTF-8" standalone="no"?>
<svg
   width="100%"
   height="100%"
   viewBox="0 0 400 400"
   version="1.1"
   xml:space="preserve"
   style="fill-rule:evenodd;clip-rule:evenodd;stroke-linecap:round;stroke-linejoin:round;stroke-miterlimit:10;"
   id="svg121"
   sodipodi:docname="KlingonVest.svg"
   inkscape:version="1.4 (e7c3feb1, 2024-10-09)"
   xmlns:inkscape="http://www.inkscape.org/namespaces/inkscape"
   xmlns:sodipodi="http://sodipodi.sourceforge.net/DTD/sodipodi-0.dtd"
   xmlns="http://www.w3.org/2000/svg"
   xmlns:svg="http://www.w3.org/2000/svg"><defs
   id="defs121">
        
    
            
            
            
            
            
            
            
            
            
            
            
            
            
            
            
            
            
            
            
            
            
            
            
            
            
            
            
            
            
            
            
            
            
            
            
            
            
            
            
            
            
            
            
            
            
            
            
            
            
            
            
            
            
            
            
            
            
            
            
            
            
            
            
            
            
            
            
            
            
            
        
                
            
                
            
                
            
                
            
                
            
                
            
                
            
                
            
                
            
                
            
                
            
                
            
                
            
                
            
                
            
                
            
                
            
                
            
                
            
                
            
                
            
                
            
                
            
                
            
                
            
                
            
                
            
                
            
                
            
                
            
                
            
                
            
                
            
                
            
                
            
                
            
                
            
                
            
                
            
                
            
                
            
                
            
                
            
                
            
                
            
                
            
                
            
                
            
                
            
                
            
                
            
                
            
                
            
                
            
                
            
                
            
                
            
                
            
                
            
                
            
                
            
                
            
                
            
                
            
                
            
                
            
                
            
                
            
                
            
                
            
                    
                
                    
                
                    
                
                    
                
                    
                
                    
                
                    
                
                    
                
                    
                
                    
                
                    
                
                    
                
                    
                
                    
                
                    
                
                    
                
                    
                
                    
                
                    
                
                    
                
                    
                
                    
                
                    
                
                    
                
                    
                
                    
                
                    
                
                    
                
                    
                
                    
                
                    
                
                    
                
                    
                
                    
                
                    
                
                    
                
                    
                
                    
                
                    
                
                    
                
                    
                
                    
                
                    
                
                    
                
                    
                
                    
                
                    
                
                    
                
                    
                
                    
                </defs><sodipodi:namedview
   id="namedview121"
   pagecolor="#ffffff"
   bordercolor="#666666"
   borderopacity="1.0"
   inkscape:showpageshadow="2"
   inkscape:pageopacity="0.0"
   inkscape:pagecheckerboard="0"
   inkscape:deskcolor="#d1d1d1"
   inkscape:zoom="3.7052395"
   inkscape:cx="139.53214"
   inkscape:cy="352.06901"
   inkscape:window-width="1440"
   inkscape:window-height="810"
   inkscape:window-x="2629"
   inkscape:window-y="282"
   inkscape:window-maximized="0"
   inkscape:current-layer="layer2" />
    
<g
   inkscape:groupmode="layer"
   id="layer2"
   inkscape:label="Klingon Sash"><path
     d="m 306.11923,247.56239 c 0,0 1.75733,-6.88123 5.85599,-6.88123 4.09865,0 39.52656,7.1685 42.45456,8.31493 2.92799,1.14643 11.8093,10.38061 13.17596,15.19748 1.368,4.81556 -2.63466,79.56904 -15.22529,135.7693 h -62.65718 c 0,0 16.10263,-73.54829 19.03062,-91.61317 2.92799,-18.06357 4.39199,-56.19894 3.51466,-58.49312 z"
     style="clip-rule:evenodd;fill:#73423e;fill-rule:nonzero;stroke-width:1.31946;stroke-linecap:round;stroke-linejoin:round;stroke-miterlimit:10"
     id="path54" /><path
     id="path61"
     style="clip-rule:evenodd;opacity:0.2;fill-rule:nonzero;stroke-width:1.31946;stroke-linecap:round;stroke-linejoin:round;stroke-miterlimit:10;fill:#000000;fill-opacity:1"
     d="m 341.37648,385.25505 h -2.01066 l 5.61732,14.71305 h 2.01066 z m -14.37997,0 h -2.01066 l 5.61732,14.71305 h 2.01066 z m -14.37996,0 h -2.01066 l 5.61732,14.71305 h 2.01066 z m -14.37996,0 h -2.01066 l 5.61732,14.71305 h 2.01066 z" /><path
     d="m 355.47911,280.09747 c 0.128,0.56668 0.532,1.14382 0.78533,1.66611 0.89333,1.83848 1.724,3.68741 2.82933,5.42404 1.14933,1.80975 2.45332,3.51896 3.75599,5.22556 0.936,1.22479 3.17332,-2.54749 3.62932,-3.12332 0.268,0.75863 0.13067,1.69615 0.13067,2.48874 10e-4,0.52229 0.009,1.05895 -0.0893,1.57079 -0.1,0.52361 -0.468,1.40106 -0.91334,1.71183 -0.53866,0.37736 -1.56399,-0.0679 -2.19999,-0.14363 -0.70666,-0.0835 -1.29066,-0.0157 -1.95999,-0.35647 -0.656,-0.33297 -1.184,-0.83306 -1.60933,-1.44806 -0.89067,-1.28746 -1.60533,-2.83214 -2.24267,-4.24365 -0.89999,-1.98995 -1.77999,-4.06868 -2.92932,-5.91108 -0.32533,-0.52099 -0.61067,-0.83697 -0.216,-1.36579 0.40133,-0.53928 0.624,-1.09421 0.94133,-1.66743"
     style="clip-rule:evenodd;opacity:0.2;fill-rule:nonzero;stroke-width:1.31946;stroke-linecap:round;stroke-linejoin:round;stroke-miterlimit:10"
     id="path81" /><path
     id="path95"
     style="clip-rule:evenodd;opacity:0.2;fill-rule:nonzero;stroke-width:1.31946;stroke-linecap:round;stroke-linejoin:round;stroke-miterlimit:10;fill:#000000;fill-opacity:1"
     d="m 328.59785,265.36221 c 0.65067,0.88659 1.16133,1.75491 1.60266,2.76164 0.31067,0.71032 0.66267,1.42586 1.05333,2.09962 1.01867,1.751 1.8,3.65084 2.82,5.41228 0.63599,1.09944 1.27333,2.39734 2.09199,3.38709 0.35867,0.43219 0.37467,0.40477 0.72,0.0783 0.58666,-0.55363 1.044,-1.33969 1.44,-2.02128 0.99599,-1.71182 2.15066,-3.32572 2.96665,-5.13155 0.39467,-0.87092 0.83334,-1.73663 1.30533,-2.56838 0.18534,-0.32775 0.828,-1.24829 0.42934,-1.60998 -0.752,0.98452 -1.72933,1.98863 -2.692,2.80733 -0.86799,0.73644 -1.66266,1.53947 -2.79066,1.80453 -0.95733,0.2246 -2.02666,0.32121 -2.95332,-0.0705 -1.03333,-0.43742 -1.41466,-1.32009 -1.88933,-2.24064 -0.82133,-1.59431 -1.784,-3.17424 -2.71199,-4.7111 -0.26,-0.42829 -0.66534,-0.93753 -0.512,-1.44937 -0.12934,0.49096 -0.596,0.86571 -0.88,1.45198 m -9.19598,-13.48563 c 0.684,0.68812 1.24,1.56036 1.81466,2.34902 0.54267,0.74428 1.18133,1.43109 1.70133,2.18712 0.35733,0.51837 0.65333,1.10334 1.004,1.6165 0.49466,0.72207 0.80666,1.4337 1.15066,2.24195 0.36533,0.85917 0.916,1.68963 1.416,2.47959 0.19733,0.31338 0.72533,1.28877 1.09466,1.45198 0.76,0.33428 1.51333,-0.78997 1.816,-1.19866 0.88666,-1.19475 1.63466,-2.58145 2.39866,-3.8441 0.36666,-0.60586 0.79866,-1.17777 1.16666,-1.76666 0.34,-0.54188 0.32,-0.81608 0.112,-1.37755 -0.448,0.24679 -0.88133,0.90227 -1.19999,1.29007 -0.31734,0.3865 -0.65334,0.76647 -1.02134,1.10465 -0.97866,0.90096 -1.93599,0.7952 -2.94932,-0.0287 -0.82667,-0.67246 -1.59733,-1.47027 -2.41866,-2.17537 -1.58666,-1.36318 -3.71599,-2.31638 -5.09066,-3.87804 -0.44266,-0.50401 -0.42533,-0.89834 -0.47599,-1.52902 -0.53734,0.70641 -0.572,0.71686 -0.51867,1.07724 m -7.34665,12.49458 c -0.0187,0.33035 0.152,0.63067 0.25467,0.93491 0.20266,0.59803 0.356,1.21565 0.58266,1.80975 0.224,0.58497 0.612,1.10988 0.94667,1.64654 0.73866,1.183 1.34399,2.43258 2.20799,3.53724 0.48267,0.61762 1.00533,1.18562 1.46533,1.82151 0.29733,0.41391 0.61466,0.94796 1,1.29137 0.33733,0.30163 0.70666,0.22458 1.07466,-0.0953 0.23333,-0.20239 0.372,-0.52752 0.54933,-0.7743 0.504,-0.70641 1.13067,-1.34752 1.71867,-1.98603 1.14133,-1.23784 2.18666,-2.54619 3.34799,-3.76314 0.728,-0.76254 1.43733,-1.63348 2.03333,-2.49395 0.25599,-0.37084 0.84933,-1.37364 -0.016,-1.19606 -0.508,0.10315 -1.456,1.04459 -1.8,1.33316 -1.044,0.87614 -2.12933,1.61911 -3.33999,2.24587 -0.692,0.35907 -1.50666,0.73382 -2.272,0.51184 -0.60933,-0.17757 -1.37999,-0.48834 -1.90666,-0.85917 -1.62933,-1.15166 -3.04799,-2.6637 -4.30799,-4.18489 -0.412,-0.49748 -1.36933,-1.23784 -1.53866,0.22067 m 1.1,18.44092 c -0.2,0.81087 -0.088,1.67658 0.27333,2.42867 0.50267,1.05112 1.188,2.01345 1.74266,3.03715 0.18934,0.34864 0.65067,0.91663 0.70534,1.29269 -0.60534,0.0953 -1.21733,0.0757 -1.84133,0.12403 -0.58,0.0431 -1.224,0.20762 -1.79066,0 -0.956,-0.34993 -0.82934,-1.2744 -0.80534,-2.12574 0.0333,-1.16733 0.18,-2.54488 0.59334,-3.64953 0.14933,-0.40086 0.54133,-1.88418 1.12266,-1.10727 m 5.63065,-5.81706 c 0.56933,1.36449 1.776,2.47177 2.37199,3.83495 0.64534,1.47156 0.87867,3.18339 1.68267,4.56486 0.74399,1.27701 1.53466,2.48743 2.10132,3.85193 0.26,0.62675 0.60134,1.51595 1.27867,1.83064 0.47066,0.21936 1.25866,-0.0444 1.69733,-0.2507 0.61066,-0.28596 0.84266,-0.95058 1.19333,-1.48724 0.49866,-0.76124 0.93733,-1.60736 1.49066,-2.3216 0.96133,-1.23915 2.02133,-2.40125 2.95333,-3.6652 0.25733,-0.34994 0.524,-0.69858 0.75866,-1.06418 0.56533,-0.88398 1.72,-1.93118 1.93733,-2.94183 0.10667,-0.49748 -0.68533,-1.08898 -1.09866,-1.40888 -0.39067,0.40607 -0.62667,0.98974 -0.908,1.47809 -0.536,0.92707 -1.25867,1.62302 -1.96533,2.42475 -0.572,0.65026 -1.128,1.3423 -1.73466,1.95077 -0.524,0.52752 -1.16667,1.24046 -1.83733,1.58517 -0.64533,0.33165 -1.33066,-0.56669 -1.72533,-0.98714 -0.61467,-0.65548 -1.05866,-1.43892 -1.656,-2.11138 -1.42133,-1.59692 -3.01199,-3.2095 -4.09732,-5.03753 -0.444,-0.74949 -0.46933,-1.39975 -0.51333,-2.25501 -0.40267,0.26376 -0.73733,0.6385 -1.13733,0.92315 -0.316,0.22459 -1.35467,0.57322 -0.792,1.08638 m 25.0186,9.28771 c -0.54267,-0.59411 -1.04533,-1.27179 -1.65066,-1.80322 -1.76933,-1.54991 -3.39866,-2.89613 -4.02133,-5.23862 -0.176,-0.6594 -0.47199,-1.54469 -0.26,-2.2067 0.17467,-0.5471 0.396,-1.09812 0.70934,-1.58386 -1.18,0.41914 -1.76667,1.57864 -2.196,2.67677 -0.44933,1.14513 0.112,1.96905 0.652,2.97446 0.908,1.68702 2.064,3.22126 2.99599,4.89522 0.98133,1.76013 1.792,3.60383 2.608,5.44101 0.30266,0.68159 0.54133,1.80583 1.39733,2.0265 0.98533,0.25331 2.53066,0.38128 3.42932,-0.22981 0.336,-0.22851 0.58133,-0.51837 0.816,-0.83175 0.78133,-1.04982 1.5,-2.27329 2.17999,-3.38578 0.99733,-1.63217 1.62667,-3.40014 2.37866,-5.13286 0.208,-0.48182 0.38934,-1.0472 0.33867,-1.58778 -0.0613,-0.64242 -0.512,-1.14513 -0.748,-1.71313 -0.23733,0.30033 -0.35733,0.73644 -0.544,1.08638 -0.64933,1.2065 -1.42533,2.34118 -2.09599,3.53855 -0.5,0.89573 -1.03333,1.57603 -1.80133,2.25501 -0.66933,0.5915 -1.408,1.00673 -2.26533,0.51707 -0.70133,-0.40086 -1.39066,-1.1151 -1.92266,-1.69746 m 16.25063,-17.43029 c -0.132,0.50532 -0.49067,0.85787 -0.56933,1.38017 -0.08,0.53013 0.005,0.90487 0.18,1.4128 0.38133,1.10988 1.12399,2.13619 1.88799,3.02409 0.78,0.90488 1.44133,1.91291 2.24133,2.7995 0.18133,0.20108 0.376,0.44657 0.60667,0.55625 0.18266,-0.66593 -0.0347,-1.50682 -0.0347,-2.18973 0,-1.09029 -0.005,-2.1845 -0.0493,-3.27348 -1.51733,-0.0235 -1.91067,-1.71704 -2.332,-2.88437 -0.204,-0.56539 -0.47866,-1.12685 -0.56666,-1.7066 -0.048,-0.31338 -0.06,-0.62023 -0.20667,-0.88268 -0.46,0.63851 -0.97466,1.19083 -1.15733,1.76405 m -15.48663,-0.51708 c 0.388,0.28987 0.66667,0.82131 0.96,1.21042 1.24399,1.65046 2.47599,3.25782 3.62799,4.98008 0.78666,1.17647 1.55199,2.36861 2.26666,3.58947 0.66933,1.14383 1.17466,2.39343 2.20933,3.28132 0.452,-0.33165 0.74266,-1.14251 0.97999,-1.61388 0.492,-0.97801 0.75734,-2.05393 1.26,-3.0267 0.56,-1.08638 1.016,-2.208 1.61066,-3.2761 0.35067,-0.63068 1.216,-1.48985 0.808,-2.21192 -1.96799,0.39564 -2.36533,3.30352 -4.35199,3.58556 -0.484,0.0679 -0.85866,-0.23765 -1.27733,-0.47007 -1.39466,-0.77561 -2.56666,-2.00953 -3.62265,-3.17425 -0.80134,-0.88398 -1.57867,-1.90507 -2.18,-2.94052 -0.52933,-0.9114 -0.664,-1.68048 -0.84533,-2.64412 -0.44933,0.26899 -0.66933,1.05765 -1.01466,1.45981 -0.16134,0.18803 -0.472,0.39042 -0.56267,0.62154 -0.12,0.30423 0.092,0.51968 0.132,0.62936 m -9.76797,-11.76338 c 1.15733,0.95841 2.04266,2.50571 2.93466,3.70438 0.50133,0.67245 1.11733,1.25873 1.58533,1.9573 0.424,0.63197 0.744,1.32924 1.2,1.92335 0.44666,0.58497 1.01199,1.17386 1.53866,1.68832 0.628,0.61369 1.29066,1.72749 2.19066,0.76386 0.37733,-0.40478 0.61066,-0.98453 0.92933,-1.43632 0.44933,-0.6372 0.828,-1.27701 1.192,-1.96382 0.336,-0.63329 1.50266,-1.88549 1.22399,-2.54228 -0.85866,0.89182 -1.99066,2.56055 -3.46399,2.44565 -0.94266,-0.0731 -1.68533,-1.0459 -2.39466,-1.55906 -1.51066,-1.0942 -3.00399,-2.30593 -4.08265,-3.82188 -0.324,-0.45571 -0.652,-0.88268 -0.82667,-1.4089 -0.17466,-0.52229 -0.25066,-1.08898 -0.41066,-1.59953 -0.612,0.59412 -1.06667,0.84352 -1.616,1.84893 m 5.10398,-5.77267 c 0.21333,0.45179 0.80533,0.89182 1.17333,1.25874 0.552,0.55231 1.09066,1.14251 1.69733,1.64 1.87599,1.54338 3.45732,3.37533 5.21599,5.04276 0.33866,0.3199 0.57333,0.7299 0.94533,0.20108 0.26533,-0.37474 0.372,-0.86831 0.64933,-1.26134 0.988,-1.40106 1.99333,-2.88959 3.08666,-4.20708 0.396,-0.47922 0.972,-1.12555 0.26533,-1.5917 -0.29067,0.7743 -1.30933,1.43369 -1.98799,1.8894 -0.55467,0.37475 -1.16933,0.77039 -1.73733,1.0694 -0.81733,0.43089 -1.86133,0.10968 -2.672,-0.20892 -2.14932,-0.84742 -3.34665,-2.68329 -4.64665,-4.38206 -0.192,-0.252 -0.30667,-0.5249 -0.624,-0.48572 -0.296,0.0379 -0.824,0.57713 -1.36533,1.03544 m 10.82264,6.63445 h -0.044 c -0.39867,0.60717 -1.02533,1.32532 -1.24266,2.01475 -0.16267,0.51316 0.124,0.75211 0.484,1.16342 0.61999,0.70902 1.06933,1.53294 1.74666,2.19625 0.70666,0.69073 1.49733,1.30052 2.24799,1.94293 1.62,1.3867 2.76266,3.22518 3.91466,4.99185 0.11733,0.17888 0.352,0.67898 0.60266,0.69465 0.36934,0.0248 0.656,-0.71032 0.77067,-0.9545 0.568,-1.19606 1.316,-2.32029 1.94533,-3.49285 0.492,-0.91794 1.01733,-1.87243 1.41333,-2.83475 0.10533,-0.25724 0.248,-0.53666 0.25333,-0.80695 -1.00533,0.71032 -1.35466,1.89462 -2.57733,2.39995 -1.10799,0.45831 -2.44666,0.39564 -3.56932,-0.0326 -1.97066,-0.75472 -3.37599,-2.56447 -4.66266,-4.11438 -0.544,-0.65548 -1.27199,-2.21062 -1.28266,-3.16772 m 3.47599,-5.64345 c 0.36,0.58627 1.08133,1.02239 1.53733,1.55644 0.79733,0.93099 1.556,1.90508 2.34266,2.83736 0.672,0.7939 1.504,1.46243 2.28533,2.15316 0.53733,0.4753 1.10933,0.931 1.62133,1.42457 0.2,0.19325 0.472,0.5928 0.71733,0.71424 0.58933,0.28987 0.812,-0.51708 1,-0.93492 0.092,-0.20499 0.36933,-0.662 0.312,-0.90226 -0.26,-1.08767 -1.776,-1.22348 -2.556,-1.74707 -1.21466,-0.81478 -2.38533,-1.81889 -3.49999,-2.76948 -0.572,-0.48834 -1.072,-1.05764 -1.48533,-1.67917 -0.22667,-0.3421 -0.544,-1.24307 -0.952,-1.388 -0.28266,-0.0992 -0.88133,0.15277 -1.32266,0.73513 m -21.42528,-6.63575 c 0.81066,0.18672 1.436,0.93099 2.11199,1.38147 0.89067,0.59149 1.70667,1.28484 2.468,2.05 0.552,0.55625 1.404,2.31247 2.23733,1.46243 0.54799,-0.55885 1.06666,-1.15819 1.63199,-1.68309 0.23467,-0.21806 1.156,-0.92447 0.968,-1.24045 -0.096,-0.16061 -1.13866,-0.37997 -1.324,-0.33558 -0.16666,0.0404 -0.29466,0.24417 -0.416,0.34602 -0.324,0.2716 -0.68666,0.40217 -1.09599,0.56147 -0.37067,0.14494 -0.416,0.18542 -0.816,0.0183 -0.592,-0.24679 -1.24133,-0.64895 -1.76266,-1.01847 -0.78667,-0.56016 -1.38533,-1.33969 -2.292,-1.71574 -0.41066,-0.16975 -1.78799,-0.5445 -2.10266,-0.0522 0.20933,0.0483 0.47467,0.0679 0.392,0.22589 m -12.01197,-2.49924 c 0.43467,0.1136 0.87333,0.67115 1.23733,0.97147 0.464,0.38389 0.82133,0.79388 1.22933,1.22608 0.20133,0.21415 0.56533,0.64374 0.87333,0.69466 0.5,0.081 1.604,-0.50663 1.75866,-1.07854 -0.24,0.0849 -0.43466,-0.0509 -0.68799,-0.11099 -0.47067,-0.11099 -0.84267,-0.16583 -1.25067,-0.39956 -0.59733,-0.3421 -0.94133,-0.66461 -1.40133,-1.11248 -0.49466,-0.48182 -1.17466,-0.42829 -1.83999,-0.26899 -0.0413,0.14364 0.012,0.22067 0.0813,0.0784 m 4.84002,3.10239 c -0.472,0.24939 -0.72666,0.57713 -0.39733,1.03675 0.36533,0.50663 1.13066,0.97539 1.61866,1.37886 0.57333,0.47529 1.124,1.01587 1.628,1.5695 1.13066,1.24044 2.09066,2.5266 3.36532,3.62734 0.46533,0.40217 0.948,0.88399 1.32266,1.37363 0.39867,0.51838 0.71467,1.35274 1.216,1.73925 0.47867,-0.68682 1.232,-1.29269 1.764,-1.96775 0.54933,-0.69987 1.16666,-1.28093 1.73866,-1.94163 0.39733,-0.45962 0.78933,-0.96756 0.984,-1.54339 -1.84133,0.8422 -3.53466,1.83326 -5.59999,1.01586 -1.372,-0.54187 -2.77999,-1.27048 -3.84532,-2.29026 -1.10533,-1.05895 -2.20666,-2.17666 -3.17866,-3.35443 -0.19333,-0.23504 -0.25067,-0.36953 -0.35067,-0.60587 -0.064,0.0169 -0.052,0.0575 -0.26533,-0.0379 m -13.22263,0.29252 c 1.79066,0.74819 3.24533,2.11007 4.63732,3.41581 0.384,0.36169 0.70267,0.70118 0.988,1.14774 0.11867,0.18673 0.22533,0.44657 0.46266,0.49227 0.99467,0.19063 1.63467,-0.77822 2.20133,-1.35666 0.83467,-0.85265 1.74666,-1.62957 2.592,-2.47307 0.32,-0.31991 0.392,-0.33296 0.27733,-0.72077 -0.044,-0.15277 -0.19467,-0.54318 -0.388,-0.5928 -0.34267,-0.0888 -1.424,0.80563 -1.76,0.98974 -1.61999,0.88529 -3.37465,0.80956 -4.89332,-0.20238 -1.04533,-0.69596 -2.14932,-1.28355 -3.30266,-1.80714 -0.75333,-0.3421 -1.33999,-0.68682 -2.15066,-0.82914 -0.76933,-0.1345 -2.21999,-0.63329 -2.92399,-0.12667 -0.85866,0.61762 1.144,0.76386 1.50133,0.87746 0.95866,0.30163 1.836,0.80042 2.75866,1.18561" /><path
     d="m 311.97522,240.68116 c -4.09866,0 -5.85599,6.88124 -5.85599,6.88124 l 6.14932,2.29418 c 0.87733,2.29418 -0.58666,40.42955 -3.51466,58.49443 -2.92799,18.06357 -19.03061,91.61186 -19.03061,91.61186 h 6.29465 c 0,0 16.68929,-84.58699 18.44662,-94.47926 1.75599,-9.89227 3.51332,-56.77348 3.07332,-58.92402 -0.43866,-2.15056 -5.56265,-5.87843 -5.56265,-5.87843"
     style="clip-rule:evenodd;opacity:0.2;fill-rule:nonzero;stroke-width:1.31946;stroke-linecap:round;stroke-linejoin:round;stroke-miterlimit:10;fill:#000000;fill-opacity:1"
     id="path97" /><path
     d="m 291.3686,399.96287 h 59.93718 c 12.48664,-56.42093 16.23863,-131.10651 15.01463,-135.41936 -1.27733,-4.49957 -9.94664,-13.37989 -12.3853,-14.33438 -2.75999,-1.08116 -38.09857,-8.22223 -41.95989,-8.22223 -2.02267,0 -3.51466,2.8909 -4.21199,4.79205 l 4.97865,1.85807 c 0.35733,0.13318 0.64,0.41131 0.77466,0.76124 1.10134,2.88045 -0.67333,42.05128 -3.44532,59.15644 -2.66266,16.42488 -16.35063,80.57316 -18.70262,91.40817 m 62.31318,0 h -64.99584 c -0.25333,-0.30554 -0.352,0.38519 -0.268,0 0.16133,-0.73904 16.13063,-73.99354 19.01862,-91.81686 2.77333,-17.11169 4.17199,-52.01276 3.65199,-57.33103 l -5.44399,-2.03172 c -0.63199,-0.23504 -0.98266,-0.89573 -0.81999,-1.53686 0.0827,-0.32121 2.06932,-7.87098 7.15065,-7.87098 4.19332,0 39.96656,7.24031 42.94922,8.40895 3.32133,1.30051 12.5133,10.94208 13.9653,16.05927 1.58933,5.599 -2.66133,80.12267 -15.20796,136.11923 z"
     style="clip-rule:evenodd;fill-rule:nonzero;stroke-width:1.31946;stroke-linecap:round;stroke-linejoin:round;stroke-miterlimit:10;fill:#000000;fill-opacity:1"
     id="path99" /><path
     d="m 307.0282,308.93002 -15.91195,79.95279 65.40646,3.24218 11.20243,-77.35963 z"
     style="clip-rule:evenodd;fill:#73423e;fill-rule:nonzero;stroke-width:1.31946;stroke-linecap:round;stroke-linejoin:round;stroke-miterlimit:10"
     id="path100" /><path
     d="m 296.16326,385.8152 11.15731,-56.06446 18.88528,1.73925 8.55465,14.33308 13.91863,-14.82273 16.00796,0.85134 0.52133,-7.83834 -53.82653,-14.66605 -4.35199,-0.41784 -15.91196,79.95294 65.40517,3.24083 0.47733,-3.29307 z"
     style="clip-rule:evenodd;opacity:0.2;fill-rule:nonzero;stroke-width:1.31946;stroke-linecap:round;stroke-linejoin:round;stroke-miterlimit:10;fill:#000000;fill-opacity:1"
     id="path101" /><path
     d="m 307.6699,309.91659 -15.42929,77.92121 32.17725,0.75733 10.44264,-47.43615 -6.45332,46.99089 27.43193,2.88306 10.99731,-75.46118 z m -16.92129,80.04825 c -0.428,-0.0548 -0.66933,-0.48051 -0.56267,-1.01324 l 16.00263,-80.00778 c 0.052,-0.25592 0.20133,-0.50141 0.412,-0.67637 0.21067,-0.17366 0.46266,-0.25984 0.69333,-0.23765 l 60.61852,5.86276 c 0.39733,0.0392 0.64666,0.41784 0.58133,0.87486 l -11.12264,77.31011 c -0.0413,0.29248 -0.18133,0.57844 -0.384,0.78605 -0.204,0.20761 -0.452,0.31991 -0.68666,0.30816 l -65.49584,-3.20298 c -0.02,0 -0.0387,-0.003 -0.056,-0.004"
     style="clip-rule:evenodd;fill-rule:nonzero;stroke-width:1.31946;stroke-linecap:round;stroke-linejoin:round;stroke-miterlimit:10;fill:#000000;fill-opacity:1"
     id="path103" /><path
     d="m 309.18056,289.22979 -1.548,1.58256 -4.33599,35.02902 23.12661,1.46373 8.15865,15.35808 13.09597,-14.68954 18.59862,1.40497 c 0,0 4.53865,-25.08453 2.09866,-31.70201 l -3.51066,-2.6872 z"
     style="clip-rule:evenodd;fill:#73423e;fill-rule:nonzero;stroke-width:1.31946;stroke-linecap:round;stroke-linejoin:round;stroke-miterlimit:10"
     id="path104" /><path
     d="m 307.63256,290.81235 -4.33599,35.02902 4.22799,0.26768 3.74666,-34.29781 -1.084,-2.47699 -1.00666,-0.10446 z"
     style="clip-rule:evenodd;opacity:0.2;fill-rule:nonzero;stroke-width:1.31946;stroke-linecap:round;stroke-linejoin:round;stroke-miterlimit:10;fill:#000000;fill-opacity:1"
     id="path105" /><path
     d="m 326.71918,326.38716 c 0.19867,0.0326 0.364,0.15016 0.46,0.33166 l 7.68131,14.44015 12.29597,-13.76639 c 0.204,-0.2285 0.476,-0.35254 0.73067,-0.33296 l 17.77329,1.35405 c 0.78933,-4.58706 4.00532,-24.27105 2.06266,-30.14035 l -3.22133,-2.46653 -55.14653,-5.67344 -0.93199,0.95319 -4.15866,33.8617 22.38661,1.43109 c 0.0227,9.8e-4 0.0453,0.004 0.068,0.008 m 7.57331,17.22529 c -0.2,-0.0313 -0.36799,-0.15015 -0.46666,-0.33688 l -7.99198,-15.06429 -22.79594,-1.42978 c -0.41334,-0.0353 -0.672,-0.37997 -0.61467,-0.83698 l 4.37466,-35.05776 c 0.028,-0.22458 0.13866,-0.44786 0.30933,-0.62152 l 1.54933,-1.57995 c 0.21866,-0.22328 0.51066,-0.34079 0.77733,-0.31207 l 55.61453,5.78311 c 0.116,0.008 0.224,0.0548 0.316,0.12275 l 3.50665,2.68459 c 0.0987,0.0757 0.17334,0.17889 0.21867,0.30293 2.49199,6.74675 -1.84533,31.07917 -2.03599,32.14335 -0.0453,0.24548 -0.172,0.47659 -0.35334,0.64111 -0.18133,0.16452 -0.40266,0.2494 -0.612,0.23373 l -18.21328,-1.3658 -12.7613,14.34483 c -0.2,0.22328 -0.45867,0.35385 -0.708,0.35647 -0.04,0 -0.0773,-0.003 -0.11334,-0.008"
     style="clip-rule:evenodd;fill-rule:nonzero;stroke-width:1.31946;stroke-linecap:round;stroke-linejoin:round;stroke-miterlimit:10;fill:#000000;fill-opacity:1"
     id="path107" /><path
     id="path110"
     style="clip-rule:evenodd;opacity:0.4;fill-rule:nonzero;stroke-width:1.31946;stroke-linecap:round;stroke-linejoin:round;stroke-miterlimit:10;fill:#000000;fill-opacity:1"
     d="m 350.83379,313.23578 c 0.46,0.71685 0.608,1.69876 0.304,2.73291 -0.544,1.8424 -2.28133,3.12332 -3.88266,2.85303 -1.60266,-0.27159 -2.45066,-1.99517 -1.89199,-3.84147 0.50666,-1.67004 1.98933,-2.85043 3.44799,-2.84521 -2.06533,-0.26637 -4.28666,1.37887 -5.01199,3.76314 -0.74666,2.45609 0.376,4.74897 2.50933,5.10804 2.12799,0.35778 4.43599,-1.35013 5.15599,-3.801 0.45333,-1.54077 0.16799,-3.00711 -0.63067,-3.96944 m -18.83329,-1.07332 c 0.45733,0.72599 0.58933,1.71965 0.25467,2.76555 -0.596,1.86329 -2.40666,3.15727 -4.04399,2.88177 -1.64133,-0.27551 -2.476,-2.01998 -1.86267,-3.88718 0.55334,-1.68963 2.1,-2.88176 3.59733,-2.87524 -2.11466,-0.27029 -4.42799,1.39061 -5.22266,3.80231 -0.81866,2.48482 0.28667,4.80642 2.46933,5.16941 2.17733,0.3643 4.58399,-1.36318 5.37332,-3.84017 0.49733,-1.55906 0.236,-3.04237 -0.56533,-4.01645" /><path
     d="m 364.92309,286.50733 -20.75195,-2.72116 c -0.0133,-0.25723 0.0133,-0.63067 0.02,-0.79258 0.032,-0.71163 0.0107,-1.34622 -0.14,-2.11269 -0.16666,-0.8448 -0.44533,-1.47548 -1.15199,-2.26284 -0.36,-0.40086 -0.70934,-0.8409 -1.15334,-0.90488 -0.44666,-0.064 -0.75466,0.10185 -1.00533,0.3408 -1.29066,1.23001 -1.94399,3.16902 -2.55999,4.94613 l -1.25866,-0.16452 c -0.33067,-0.71946 -0.34134,-1.72749 -0.31867,-2.32029 0.0333,-0.89574 -0.008,-1.86982 0.21067,-2.67285 0.20266,-0.73904 0.94399,-1.06809 1.51199,-1.45721 0.89467,-0.61107 1.872,-1.21172 2.87866,-1.68048 1.10533,-0.51577 2.39466,-0.80694 3.39866,-1.44806 0.34667,-0.22067 0.63467,-0.50793 0.99466,-0.71424 0.188,-0.10707 1.05867,-0.5249 0.50134,-0.98061 -0.16267,-0.13187 -0.48267,-0.14494 -0.64667,-0.1815 -0.60666,-0.1384 -1.27066,-0.24939 -1.90799,-0.43741 -0.46934,-0.1371 -1.2,-0.48574 -1.57067,-0.95712 -0.40799,-0.51837 -0.27333,-0.8892 0.13067,-0.98321 1.084,-0.25332 2.39599,0.25331 3.64666,0.48574 0.98133,0.18149 1.93333,0.21675 2.90132,0.33948 0.972,0.12274 1.12667,0.63067 1.47733,1.53555 0.30267,0.77953 0.48134,1.62172 0.90267,2.3908 0.34933,0.63851 0.84266,1.45721 1.53866,1.77189 0.924,0.41914 1.99733,0.48182 2.87599,0.63198 1.39867,0.24026 2.892,0.60064 4.08133,0.32252 0.37866,-0.0888 0.36,-0.32383 0.36933,-0.7038 0.012,-0.54579 -0.21067,-1.47156 -0.89467,-1.86198 -0.94399,-0.53927 -2.01732,-0.38649 -2.90799,-1.38408 -0.15066,-0.16844 -0.216,-0.33688 -0.29866,-0.51838 -0.41467,-0.91271 -0.58,-1.83587 -0.92933,-2.74596 -0.33067,-0.85788 -1.02267,-1.62434 -1.72667,-2.32944 -1.07599,-1.07723 -2.31332,-2.16231 -3.27999,-3.31919 -0.1,-0.12012 -0.20133,-0.29248 -0.3,-0.41391 l 13.21464,1.71443 z m -50.16521,-27.81875 12.52664,1.62565 c -0.17334,0.19456 -0.356,0.51576 -0.54533,0.67115 -0.32134,0.26637 -0.66534,0.51707 -0.96267,0.80825 -0.24,0.23765 -0.288,0.63067 -0.448,0.95188 -0.228,0.4557 -0.492,0.87746 -0.70666,1.34361 -0.38133,0.83044 -0.82133,1.62172 -1.19467,2.46001 -0.54799,1.22609 -1.17199,2.66631 -2.27066,3.40927 -0.31866,0.21545 -0.66133,0.40217 -1.05599,0.51708 -0.46,0.13318 -1.15467,0.12404 -1.54533,0.34733 -0.29467,0.16713 -0.068,0.55101 0.268,0.89443 0.39333,0.40477 0.84133,0.54057 1.29466,0.66592 1.248,0.34341 2.38799,0.61239 3.58266,0.73905 0.74533,0.0796 1.52666,0.20239 2.12932,-9.8e-4 0.27867,-0.094 0.672,-0.25201 0.75334,-0.54972 0.0613,-0.22198 -0.009,-0.57583 -0.0107,-0.83045 -0.003,-0.74297 0.10533,-1.4128 0.24133,-2.09048 0.24667,-1.23654 0.652,-2.44695 1.29867,-3.40667 0.33333,-0.49488 0.63199,-0.93752 1.38933,-0.85004 1.39733,0.1606 3.29865,1.16733 4.70798,2.05784 0.63067,0.39826 1.312,0.78083 1.80133,1.42587 0.0907,0.12012 0.22934,0.27943 0.24267,0.41653 0.012,0.13449 -0.268,0.32905 -0.33467,0.39824 -0.33466,0.34603 -0.77333,0.55756 -1.22533,0.76256 -0.88933,0.40609 -2.01466,0.70771 -2.40266,1.65829 -0.12133,0.29379 -0.0667,0.64764 -0.064,1.00933 0.008,1.07332 0.056,2.17275 0.21067,3.2996 0.14,1.01848 0.45733,2.0931 0.572,3.0933 0.0573,0.51315 0.18666,0.77038 -0.31734,0.80172 -0.51199,0.0313 -0.80266,0.0575 -1.11866,-0.49879 -0.604,-1.06809 -0.96133,-2.26285 -1.228,-3.32311 -0.172,-0.68812 -0.49333,-1.87764 -1.16133,-2.49265 -0.30266,-0.27682 -0.58933,-0.27682 -0.78266,-0.10576 -0.35067,0.30946 -0.476,0.87746 -0.664,1.32271 -0.316,0.75472 -0.54667,1.60998 -0.66933,2.48482 -0.15867,1.12685 0.092,2.60624 0.64133,3.92373 l -12.57464,-1.64914 z m 28.75726,4.07652 c 1.08933,0.8213 2.95733,1.95208 3.68933,3.23823 0.20133,0.35385 0.22133,0.61109 -0.13467,0.62806 -0.43866,0.0196 -0.96266,-0.45962 -1.37066,-0.7939 -0.53867,-0.44263 -1.10533,-0.9127 -1.69866,-1.25481 -0.73334,-0.42175 -1.49733,-0.53796 -2.22533,-0.78735 -1.012,-0.34603 -2.01866,-0.55103 -2.99866,-0.70902 -1.10933,-0.17889 -2.13466,-0.11752 -3.19466,-0.15669 -0.80266,-0.0301 -1.63466,-0.10838 -2.40799,-0.0653 -0.72667,0.0404 -1.464,0.21153 -2.25466,0.1123 -0.648,-1.63217 2.04799,-0.64634 2.56932,-1.39714 0.088,-0.12666 0.0933,-0.35124 0.06,-0.45309 l 9.52798,1.23653 c 0.17066,0.12927 0.33066,0.31991 0.43866,0.40217 m -31.81592,-7.25729 0.34667,27.75345 56.77852,7.45838 0.29334,-1.14644 -3.26,-27.04835 -0.87733,-0.13319 -52.98786,-8.03029 z"
     style="clip-rule:evenodd;fill-rule:nonzero;stroke-width:1.31946;stroke-linecap:round;stroke-linejoin:round;stroke-miterlimit:10"
     id="path112" /><path
     d="m 364.92309,286.50733 -20.75195,-2.72116 c -0.0133,-0.25723 0.0133,-0.63067 0.02,-0.79258 0.032,-0.71163 0.0107,-1.34622 -0.14,-2.11269 -0.16666,-0.8448 -0.44533,-1.47548 -1.15199,-2.26284 -0.36,-0.40086 -0.70934,-0.8409 -1.15334,-0.90488 -0.44666,-0.064 -0.75466,0.10185 -1.00533,0.3408 -1.29066,1.23001 -1.94399,3.16902 -2.55999,4.94613 l -1.25866,-0.16452 c -0.33067,-0.71946 -0.34134,-1.72749 -0.31867,-2.32029 0.0333,-0.89574 -0.008,-1.86982 0.21067,-2.67285 0.20266,-0.73904 0.94399,-1.06809 1.51199,-1.45721 0.89467,-0.61107 1.872,-1.21172 2.87866,-1.68048 1.10533,-0.51577 2.39466,-0.80694 3.39866,-1.44806 0.34667,-0.22067 0.63467,-0.50793 0.99466,-0.71424 0.188,-0.10707 1.05867,-0.5249 0.50134,-0.98061 -0.16267,-0.13187 -0.48267,-0.14494 -0.64667,-0.1815 -0.60666,-0.1384 -1.27066,-0.24939 -1.90799,-0.43741 -0.46934,-0.1371 -1.2,-0.48574 -1.57067,-0.95712 -0.40799,-0.51837 -0.27333,-0.8892 0.13067,-0.98321 1.084,-0.25332 2.39599,0.25331 3.64666,0.48574 0.98133,0.18149 1.93333,0.21675 2.90132,0.33948 0.972,0.12274 1.12667,0.63067 1.47733,1.53555 0.30267,0.77953 0.48134,1.62172 0.90267,2.3908 0.34933,0.63851 0.84266,1.45721 1.53866,1.77189 0.924,0.41914 1.99733,0.48182 2.87599,0.63198 1.39867,0.24026 2.892,0.60064 4.08133,0.32252 0.37866,-0.0888 0.36,-0.32383 0.36933,-0.7038 0.012,-0.54579 -0.21067,-1.47156 -0.89467,-1.86198 -0.94399,-0.53927 -2.01732,-0.38649 -2.90799,-1.38408 -0.15066,-0.16844 -0.216,-0.33688 -0.29866,-0.51838 -0.41467,-0.91271 -0.58,-1.83587 -0.92933,-2.74596 -0.33067,-0.85788 -1.02267,-1.62434 -1.72667,-2.32944 -1.07599,-1.07723 -2.31332,-2.16231 -3.27999,-3.31919 -0.1,-0.12012 -0.20133,-0.29248 -0.3,-0.41391 l 13.21464,1.71443 z m -50.16521,-27.81875 12.52664,1.62565 c -0.17334,0.19456 -0.356,0.51576 -0.54533,0.67115 -0.32134,0.26637 -0.66534,0.51707 -0.96267,0.80825 -0.24,0.23765 -0.288,0.63067 -0.448,0.95188 -0.228,0.4557 -0.492,0.87746 -0.70666,1.34361 -0.38133,0.83044 -0.82133,1.62172 -1.19467,2.46001 -0.54799,1.22609 -1.17199,2.66631 -2.27066,3.40927 -0.31866,0.21545 -0.66133,0.40217 -1.05599,0.51708 -0.46,0.13318 -1.15467,0.12404 -1.54533,0.34733 -0.29467,0.16713 -0.068,0.55101 0.268,0.89443 0.39333,0.40477 0.84133,0.54057 1.29466,0.66592 1.248,0.34341 2.38799,0.61239 3.58266,0.73905 0.74533,0.0796 1.52666,0.20239 2.12932,-9.8e-4 0.27867,-0.094 0.672,-0.25201 0.75334,-0.54972 0.0613,-0.22198 -0.009,-0.57583 -0.0107,-0.83045 -0.003,-0.74297 0.10533,-1.4128 0.24133,-2.09048 0.24667,-1.23654 0.652,-2.44695 1.29867,-3.40667 0.33333,-0.49488 0.63199,-0.93752 1.38933,-0.85004 1.39733,0.1606 3.29865,1.16733 4.70798,2.05784 0.63067,0.39826 1.312,0.78083 1.80133,1.42587 0.0907,0.12012 0.22934,0.27943 0.24267,0.41653 0.012,0.13449 -0.268,0.32905 -0.33467,0.39824 -0.33466,0.34603 -0.77333,0.55756 -1.22533,0.76256 -0.88933,0.40609 -2.01466,0.70771 -2.40266,1.65829 -0.12133,0.29379 -0.0667,0.64764 -0.064,1.00933 0.008,1.07332 0.056,2.17275 0.21067,3.2996 0.14,1.01848 0.45733,2.0931 0.572,3.0933 0.0573,0.51315 0.18666,0.77038 -0.31734,0.80172 -0.51199,0.0313 -0.80266,0.0575 -1.11866,-0.49879 -0.604,-1.06809 -0.96133,-2.26285 -1.228,-3.32311 -0.172,-0.68812 -0.49333,-1.87764 -1.16133,-2.49265 -0.30266,-0.27682 -0.58933,-0.27682 -0.78266,-0.10576 -0.35067,0.30946 -0.476,0.87746 -0.664,1.32271 -0.316,0.75472 -0.54667,1.60998 -0.66933,2.48482 -0.15867,1.12685 0.092,2.60624 0.64133,3.92373 l -12.57464,-1.64914 z m 28.75726,4.07652 c 1.08933,0.8213 2.95733,1.95208 3.68933,3.23823 0.20133,0.35385 0.22133,0.61109 -0.13467,0.62806 -0.43866,0.0196 -0.96266,-0.45962 -1.37066,-0.7939 -0.53867,-0.44263 -1.10533,-0.9127 -1.69866,-1.25481 -0.73334,-0.42175 -1.49733,-0.53796 -2.22533,-0.78735 -1.012,-0.34603 -2.01866,-0.55103 -2.99866,-0.70902 -1.10933,-0.17889 -2.13466,-0.11752 -3.19466,-0.15669 -0.80266,-0.0301 -1.63466,-0.10838 -2.40799,-0.0653 -0.72667,0.0404 -1.464,0.21153 -2.25466,0.1123 -0.648,-1.63217 2.04799,-0.64634 2.56932,-1.39714 0.088,-0.12666 0.0933,-0.35124 0.06,-0.45309 l 9.52798,1.23653 c 0.17066,0.12927 0.33066,0.31991 0.43866,0.40217 z m -31.81592,-7.25729 0.34667,27.75345 56.77852,7.45837 0.29334,-1.14643 -3.26,-27.04835 -0.87733,-0.13319 -52.98786,-8.03029 z"
     style="clip-rule:evenodd;fill:#000000;fill-rule:nonzero;stroke:#000000;stroke-width:1.31946px;stroke-linecap:round;stroke-linejoin:round;stroke-miterlimit:10;fill-opacity:1"
     id="path113" /><path
     d="m 365.21509,285.36088 -20.75195,-2.72114 c -0.0133,-0.25724 0.0133,-0.63068 0.0213,-0.7926 0.0307,-0.71162 0.009,-1.34621 -0.14134,-2.11267 -0.16666,-0.84482 -0.44533,-1.47549 -1.15199,-2.26284 -0.36,-0.40087 -0.70934,-0.8409 -1.15334,-0.90488 -0.44666,-0.064 -0.75466,0.10185 -1.00533,0.3408 -1.29066,1.22999 -1.94399,3.16902 -2.55999,4.94613 l -1.25866,-0.16453 c -0.33067,-0.71945 -0.34134,-1.72748 -0.31867,-2.3203 0.0333,-0.89573 -0.008,-1.8698 0.21067,-2.67283 0.20266,-0.73906 0.94399,-1.0681 1.51199,-1.45721 0.89467,-0.61109 1.872,-1.21172 2.87866,-1.68048 1.10533,-0.51577 2.39466,-0.80695 3.39866,-1.44807 0.34667,-0.22067 0.63467,-0.50793 0.99466,-0.71424 0.188,-0.10706 1.05867,-0.5249 0.50134,-0.9806 -0.16267,-0.13189 -0.48267,-0.14494 -0.64667,-0.1815 -0.60666,-0.13841 -1.27066,-0.2494 -1.90799,-0.43743 -0.46934,-0.1371 -1.2,-0.48573 -1.57067,-0.9571 -0.40799,-0.51838 -0.27333,-0.88921 0.13067,-0.98322 1.084,-0.25331 2.39599,0.25331 3.64666,0.48573 0.98133,0.1815 1.93333,0.21675 2.90132,0.3395 0.972,0.12273 1.12667,0.63067 1.47733,1.53554 0.30267,0.77953 0.48134,1.62173 0.90267,2.39081 0.34933,0.63851 0.84266,1.4572 1.53999,1.77189 0.92267,0.41914 1.996,0.48181 2.87466,0.63197 1.39867,0.24025 2.892,0.60064 4.08133,0.32252 0.37866,-0.0888 0.36,-0.32382 0.36933,-0.70379 0.012,-0.5458 -0.21067,-1.47157 -0.89467,-1.86199 -0.94399,-0.53926 -2.01732,-0.3865 -2.90799,-1.38408 -0.15066,-0.16844 -0.216,-0.33688 -0.29866,-0.51837 -0.41467,-0.91272 -0.58,-1.83587 -0.92933,-2.74597 -0.33067,-0.85787 -1.02267,-1.62434 -1.72667,-2.32944 -1.07599,-1.07723 -2.31332,-2.1623 -3.27999,-3.31918 -0.1,-0.12013 -0.20133,-0.29249 -0.3,-0.41393 l 13.21464,1.71445 z m -50.16521,-27.81873 12.52664,1.62565 c -0.17334,0.19454 -0.356,0.51576 -0.54533,0.67114 -0.32134,0.26637 -0.66534,0.51708 -0.96267,0.80825 -0.24,0.23764 -0.288,0.63068 -0.448,0.95189 -0.228,0.4557 -0.492,0.87745 -0.70666,1.3436 -0.38133,0.83045 -0.82133,1.62173 -1.19467,2.46001 -0.54799,1.22608 -1.17199,2.66632 -2.27066,3.40928 -0.31866,0.21545 -0.66133,0.40217 -1.05599,0.51707 -0.46,0.13319 -1.15467,0.12405 -1.54533,0.34732 -0.29467,0.16714 -0.0667,0.55103 0.268,0.89444 0.39333,0.40478 0.84133,0.54057 1.29466,0.66592 1.248,0.34341 2.38799,0.6124 3.58266,0.73905 0.74533,0.0796 1.52666,0.2024 2.12932,-9.8e-4 0.27867,-0.094 0.672,-0.25201 0.75334,-0.54972 0.0613,-0.22197 -0.009,-0.57582 -0.0107,-0.83044 -0.003,-0.74297 0.10533,-1.41282 0.24133,-2.0905 0.24667,-1.23653 0.652,-2.44695 1.29867,-3.40666 0.33333,-0.49488 0.63199,-0.93752 1.39066,-0.85004 1.396,0.16061 3.29732,1.16734 4.70665,2.05785 0.63067,0.39824 1.312,0.78083 1.80133,1.42586 0.0907,0.12013 0.22934,0.27943 0.24267,0.41654 0.012,0.13448 -0.268,0.32903 -0.33467,0.39824 -0.33466,0.34602 -0.77333,0.55755 -1.22533,0.76256 -0.888,0.40608 -2.01466,0.7077 -2.40266,1.65828 -0.12133,0.29379 -0.0667,0.64765 -0.064,1.00934 0.008,1.07331 0.056,2.17274 0.21067,3.29959 0.14,1.01848 0.45733,2.0931 0.572,3.09329 0.0573,0.51316 0.18666,0.77039 -0.31734,0.80173 -0.51199,0.0313 -0.80266,0.0575 -1.11866,-0.49879 -0.604,-1.0681 -0.96133,-2.26285 -1.228,-3.32311 -0.172,-0.68811 -0.49333,-1.87765 -1.16133,-2.49265 -0.30266,-0.27681 -0.58933,-0.27681 -0.78266,-0.10577 -0.35067,0.30946 -0.476,0.87746 -0.664,1.32272 -0.316,0.75471 -0.54667,1.60997 -0.66933,2.48481 -0.15867,1.12686 0.092,2.60626 0.64133,3.92375 l -12.57464,-1.64915 z m 28.75726,4.07651 c 1.08933,0.82131 2.95733,1.95207 3.68933,3.23823 0.20133,0.35386 0.22133,0.61108 -0.13467,0.62806 -0.43866,0.0196 -0.96266,-0.45962 -1.37066,-0.79389 -0.53867,-0.44265 -1.10533,-0.91271 -1.69866,-1.25481 -0.73334,-0.42175 -1.49733,-0.53797 -2.22533,-0.78737 -1.012,-0.34601 -2.01866,-0.55101 -2.99866,-0.70901 -1.10933,-0.17888 -2.13466,-0.11751 -3.19466,-0.15668 -0.80266,-0.0301 -1.63466,-0.10838 -2.40799,-0.0653 -0.72667,0.0404 -1.464,0.21153 -2.25466,0.1123 -0.648,-1.63218 2.04799,-0.64635 2.56932,-1.39715 0.088,-0.12665 0.0933,-0.35124 0.06,-0.45309 l 9.52798,1.23653 c 0.17066,0.12927 0.33066,0.31991 0.43866,0.40218 m -31.81592,-7.2573 0.34667,27.75346 56.77852,7.45837 -2.96666,-28.1948 z"
     style="clip-rule:evenodd;fill:#fbb03b;fill-rule:nonzero;stroke-width:1.31946;stroke-linecap:round;stroke-linejoin:round;stroke-miterlimit:10"
     id="path114" /><path
     d="m 365.21509,285.36088 -20.75195,-2.72114 c -0.0133,-0.25724 0.0133,-0.63068 0.0213,-0.7926 0.0307,-0.71162 0.009,-1.34621 -0.14134,-2.11267 -0.16666,-0.84482 -0.44533,-1.47549 -1.15199,-2.26284 -0.36,-0.40087 -0.70934,-0.8409 -1.15334,-0.90488 -0.44666,-0.064 -0.75466,0.10185 -1.00533,0.3408 -1.29066,1.22999 -1.94399,3.16902 -2.55999,4.94613 l -1.25866,-0.16453 c -0.33067,-0.71945 -0.34134,-1.72748 -0.31867,-2.3203 0.0333,-0.89573 -0.008,-1.8698 0.21067,-2.67283 0.20266,-0.73906 0.94399,-1.0681 1.51199,-1.45721 0.89467,-0.61109 1.872,-1.21172 2.87866,-1.68048 1.10533,-0.51577 2.39466,-0.80695 3.39866,-1.44807 0.34667,-0.22067 0.63467,-0.50793 0.99466,-0.71424 0.188,-0.10706 1.05867,-0.5249 0.50134,-0.9806 -0.16267,-0.13189 -0.48267,-0.14494 -0.64667,-0.1815 -0.60666,-0.13841 -1.27066,-0.2494 -1.90799,-0.43743 -0.46934,-0.1371 -1.2,-0.48573 -1.57067,-0.9571 -0.40799,-0.51838 -0.27333,-0.88921 0.13067,-0.98322 1.084,-0.25331 2.39599,0.25331 3.64666,0.48573 0.98133,0.1815 1.93333,0.21675 2.90132,0.3395 0.972,0.12273 1.12667,0.63067 1.47733,1.53554 0.30267,0.77953 0.48134,1.62173 0.90267,2.39081 0.34933,0.63851 0.84266,1.4572 1.53999,1.77189 0.92267,0.41914 1.996,0.48181 2.87466,0.63197 1.39867,0.24025 2.892,0.60064 4.08133,0.32252 0.37866,-0.0888 0.36,-0.32382 0.36933,-0.70379 0.012,-0.5458 -0.21067,-1.47157 -0.89467,-1.86199 -0.94399,-0.53926 -2.01732,-0.3865 -2.90799,-1.38408 -0.15066,-0.16844 -0.216,-0.33688 -0.29866,-0.51837 -0.41467,-0.91272 -0.58,-1.83587 -0.92933,-2.74597 -0.33067,-0.85787 -1.02267,-1.62434 -1.72667,-2.32944 -1.07599,-1.07723 -2.31332,-2.1623 -3.27999,-3.31918 -0.1,-0.12013 -0.20133,-0.29249 -0.3,-0.41393 l 13.21464,1.71445 z m -50.16521,-27.81873 12.52664,1.62565 c -0.17334,0.19454 -0.356,0.51576 -0.54533,0.67114 -0.32134,0.26637 -0.66534,0.51708 -0.96267,0.80825 -0.24,0.23764 -0.288,0.63068 -0.448,0.95189 -0.228,0.4557 -0.492,0.87745 -0.70666,1.3436 -0.38133,0.83045 -0.82133,1.62173 -1.19467,2.46001 -0.54799,1.22608 -1.17199,2.66632 -2.27066,3.40928 -0.31866,0.21545 -0.66133,0.40217 -1.05599,0.51707 -0.46,0.13319 -1.15467,0.12405 -1.54533,0.34732 -0.29467,0.16714 -0.0667,0.55103 0.268,0.89444 0.39333,0.40478 0.84133,0.54057 1.29466,0.66592 1.248,0.34341 2.38799,0.6124 3.58266,0.73905 0.74533,0.0796 1.52666,0.2024 2.12932,-9.8e-4 0.27867,-0.094 0.672,-0.25201 0.75334,-0.54972 0.0613,-0.22197 -0.009,-0.57582 -0.0107,-0.83044 -0.003,-0.74297 0.10533,-1.41282 0.24133,-2.0905 0.24667,-1.23653 0.652,-2.44695 1.29867,-3.40666 0.33333,-0.49488 0.63199,-0.93752 1.39066,-0.85004 1.396,0.16061 3.29732,1.16734 4.70665,2.05785 0.63067,0.39824 1.312,0.78083 1.80133,1.42586 0.0907,0.12013 0.22934,0.27943 0.24267,0.41654 0.012,0.13448 -0.268,0.32903 -0.33467,0.39824 -0.33466,0.34602 -0.77333,0.55755 -1.22533,0.76256 -0.888,0.40608 -2.01466,0.7077 -2.40266,1.65828 -0.12133,0.29379 -0.0667,0.64765 -0.064,1.00934 0.008,1.07331 0.056,2.17274 0.21067,3.29959 0.14,1.01848 0.45733,2.0931 0.572,3.09329 0.0573,0.51316 0.18666,0.77039 -0.31734,0.80173 -0.51199,0.0313 -0.80266,0.0575 -1.11866,-0.49879 -0.604,-1.0681 -0.96133,-2.26285 -1.228,-3.32311 -0.172,-0.68811 -0.49333,-1.87765 -1.16133,-2.49265 -0.30266,-0.27681 -0.58933,-0.27681 -0.78266,-0.10577 -0.35067,0.30946 -0.476,0.87746 -0.664,1.32272 -0.316,0.75471 -0.54667,1.60997 -0.66933,2.48481 -0.15867,1.12686 0.092,2.60626 0.64133,3.92375 l -12.57464,-1.64915 z m 28.75726,4.07651 c 1.08933,0.82131 2.95733,1.95207 3.68933,3.23823 0.20133,0.35386 0.22133,0.61108 -0.13467,0.62806 -0.43866,0.0196 -0.96266,-0.45962 -1.37066,-0.79389 -0.53867,-0.44265 -1.10533,-0.91271 -1.69866,-1.25481 -0.73334,-0.42175 -1.49733,-0.53797 -2.22533,-0.78737 -1.012,-0.34601 -2.01866,-0.55101 -2.99866,-0.70901 -1.10933,-0.17888 -2.13466,-0.11751 -3.19466,-0.15668 -0.80266,-0.0301 -1.63466,-0.10838 -2.40799,-0.0653 -0.72667,0.0404 -1.464,0.21153 -2.25466,0.1123 -0.648,-1.63218 2.04799,-0.64635 2.56932,-1.39715 0.088,-0.12665 0.0933,-0.35124 0.06,-0.45309 l 9.52798,1.23653 c 0.17066,0.12927 0.33066,0.31991 0.43866,0.40218 z m -31.81592,-7.25729 0.34667,27.75346 56.77852,7.45837 -2.96666,-28.1948 z"
     style="clip-rule:evenodd;fill:none;fill-rule:nonzero;stroke:#000000;stroke-width:1.31946px;stroke-linecap:round;stroke-linejoin:round;stroke-miterlimit:10"
     id="path115" /><path
     d="m 131.21261,399.9681 c -1.13333,-10.88454 -9.62931,-89.59676 -23.82927,-109.21474 -3.14666,-4.34691 -6.13866,-8.54556 -8.961315,-12.50648 -10.561307,-14.825 -18.902619,-26.53265 -24.285272,-30.31719 -0.232,-0.1636 -0.509332,-0.24668 -0.787998,-0.24668 -0.188,0 -0.375999,0.0384 -0.551999,0.11503 l -8.862644,3.86122 -3.746658,-3.26305 V 247.444 c 0.310666,-1.05573 2.67866,-8.26309 10.087975,-10.74906 8.931978,-2.99721 57.229191,-12.1371 60.606511,-12.1371 4.02933,1.07747 35.41858,37.0606 48.43988,61.6096 12.46797,23.50348 20.49595,86.24295 22.59461,113.80066 z"
     style="clip-rule:evenodd;fill:#73423e;fill-rule:nonzero;stroke-width:1.30544;stroke-linecap:round;stroke-linejoin:round;stroke-miterlimit:10"
     id="path1" /><path
     id="path7"
     style="clip-rule:evenodd;opacity:0.2;fill:#000000;fill-opacity:1;fill-rule:nonzero;stroke-width:1.30544;stroke-linecap:round;stroke-linejoin:round;stroke-miterlimit:10"
     d="m 185.78753,385.56616 h -2.44932 l 6.84398,14.40194 h 2.44933 z m -17.52129,0 h -2.44932 l 6.84398,14.40194 h 2.44933 z m -17.52129,0 h -2.44932 l 6.84398,14.40194 h 2.44933 z m -17.51995,0 h -2.44932 l 6.84398,14.40194 h 2.44933 z" /><path
     d="m 70.275158,236.69494 c -7.701314,1.45323 -9.777309,9.69332 -10.086641,10.74905 v 0.95221 l 3.745324,3.26306 8.862644,-3.86122 c 0.176,-0.0766 0.363999,-0.11503 0.551999,-0.11503 0.278666,0 0.555998,0.0844 0.787998,0.24795 5.382653,3.78327 13.723965,15.49218 24.285272,30.31592 2.823996,3.96092 5.814656,8.15956 8.961316,12.50648 14.19996,19.61926 22.69594,98.3302 23.82927,109.21474 h 3.62266 c 0,0 -2.196,-83.2253 -21.95995,-111.8528 C 93.111101,259.48652 79.499135,234.95413 70.275158,236.69494"
     style="clip-rule:evenodd;opacity:0.2;fill:#000000;fill-opacity:1;fill-rule:nonzero;stroke-width:1.30544;stroke-linecap:round;stroke-linejoin:round;stroke-miterlimit:10"
     id="path9" /><path
     d="m 155.17961,288.61378 c 0.232,1.1682 1.04533,2.24949 2.01999,3.03042 -0.99333,0.34766 -2.22132,0.37834 -3.33999,0.32466 0.28134,-1.03784 1.07333,-2.04372 1.19867,-3.12248"
     style="clip-rule:evenodd;opacity:0.2;fill-rule:nonzero;stroke-width:1.30544;stroke-linecap:round;stroke-linejoin:round;stroke-miterlimit:10"
     id="path21" /><path
     id="path39"
     style="clip-rule:evenodd;opacity:0.2;fill:#000000;fill-opacity:1;fill-rule:nonzero;stroke-width:1.30544;stroke-linecap:round;stroke-linejoin:round;stroke-miterlimit:10"
     d="m 144.24764,247.6306 c 1.21466,1.52481 3.53999,2.6585 5.23199,3.66567 1.58533,0.94454 3.80132,2.07568 5.68398,2.02199 -0.496,-1.80216 -1.79066,-3.61453 -2.54266,-5.42053 -0.0973,2.03223 -4.51865,0.31953 -5.30932,-0.0601 -1.13333,-0.54577 -1.99199,-1.40467 -2.79066,-2.29297 -0.236,0.65312 -0.612,1.2564 -1.11066,1.71396 0.47333,-0.0103 0.704,0.21345 0.83733,0.37195 m -20.89022,-9.5463 c 2.24933,0.0179 5.09599,2.19966 7.03865,3.18637 2.34399,1.18994 4.81732,2.14982 7.19865,3.18766 1.18666,0.51763 3.90132,2.35686 4.92799,1.62961 1.06533,-0.7541 1.60932,-4.10407 1.87332,-5.23777 0.54267,-2.32492 -0.49733,-3.31291 -2.13199,-5.2071 -0.476,1.74337 -0.444,4.14114 -2.172,5.43972 -1.20933,0.90747 -2.71999,0.39366 -4.03865,-0.0243 -2.60533,-0.82567 -5.21466,-1.73313 -7.77065,-2.68151 -1.81599,-0.67485 -2.57199,-1.61427 -4.04799,-2.49235 -0.384,0.4499 -0.756,0.79755 -0.87733,2.19966 m -19.91888,-8.6159 c 1.97333,0.26841 3.89466,1.98366 5.64932,2.84511 2.54799,1.25129 5.20665,2.41694 7.84398,3.5647 1.22933,0.53425 2.90133,1.41873 4.23999,1.27685 2.01733,-0.21345 2.56799,-2.6355 3.12666,-4.12963 0.66266,-1.77021 1.20799,-3.56981 1.95733,-5.27101 -1.54133,2.09613 -3.392,6.71146 -6.72799,6.60409 -4.55732,-0.14443 -7.42931,-3.86122 -11.3853,-5.20964 -1.50666,-0.51381 -3.14133,0.0587 -4.70399,0.31953 m -32.307518,16.41627 c 3.017326,1.11708 5.767986,2.68279 8.903978,3.58515 1.423996,0.41028 2.773326,0.55088 4.273322,0.73237 1.674663,0.20322 2.498661,0.33742 3.770658,-1.00078 1.034664,-1.08769 1.822662,-2.40927 2.822659,-3.55574 0.953331,-1.09281 2.027995,-2.11404 3.159992,-3.01383 0.222666,1.91719 -1.517329,4.81343 -2.449327,6.46349 -0.955997,1.69352 -2.217328,2.80932 -4.211989,3.31162 -0.737332,0.18661 -1.57333,0.15977 -2.371994,0.23135 -0.943998,0.0831 -2.083995,0.47163 -3.02666,0.34893 -1.463996,-0.19172 -2.713326,-1.70758 -3.878656,-2.53453 -2.041329,-1.44556 -4.515989,-2.56904 -7.001316,-3.08796 -1.011998,-0.21217 -1.642663,-0.34126 -2.303995,0.45885 0.249333,-1.20399 0.942665,-2.1971 1.790663,-2.86172 0.178666,0.43711 0.459998,0.70296 0.522665,0.9228 m 19.554485,4.65749 c -0.072,2.4029 1.390663,2.56009 3.249325,3.28224 1.603996,0.62373 3.073326,1.68202 4.557322,2.5422 1.522666,0.8819 3.374656,1.86223 5.061316,2.31852 2.40533,0.65185 5.31332,-0.97648 7.34799,-2.1089 1.51733,-0.84357 2.01866,-1.87503 2.86666,-3.19916 0.15733,1.63728 -1.50133,3.40621 -2.31333,4.7278 -1.12667,1.83282 -2.15066,3.71679 -3.20666,5.58797 -0.50267,0.88829 -0.848,1.52097 -1.984,1.29474 -1.65866,-0.33103 -3.61732,-1.84945 -5.21598,-2.51791 -3.59466,-1.50564 -7.153318,-3.38193 -10.36131,-5.54836 -0.774664,-0.52403 -1.757329,-1.07362 -1.831995,-2.02072 -0.07333,-0.91769 0.735998,-1.92741 1.10133,-2.7288 m 15.061295,23.75145 c -0.73066,1.74081 -3.99866,5.12785 -1.91733,6.75363 2.80933,2.19455 7.11865,2.35047 10.20264,4.18203 1.848,1.09792 3.67199,2.1562 5.34266,3.47267 1.98132,1.56187 3.74932,2.59588 6.03731,3.51869 0.73867,-1.24618 1.13333,-1.82134 1.49467,-3.23111 0.34666,-1.35098 0.90266,-2.7224 1.40399,-4.07466 0.73334,-1.97855 1.80933,-4.22166 1.976,-6.28456 -0.73333,2.03734 -2.37866,3.53402 -3.97066,5.04988 -1.13733,1.08257 -1.69866,2.00793 -3.39999,2.02327 -4.26266,0.0384 -9.42931,-2.34153 -12.57063,-5.1074 -2.13733,-1.8814 -3.576,-3.12373 -4.59866,-6.30244 m 26.59913,0.93176 c -3.37999,2.82337 3.09466,4.17947 4.91332,5.7554 1.34533,1.16438 2.48533,2.54987 3.93732,3.54809 1.85067,1.27301 3.74933,2.34024 5.56266,3.68355 2.07066,1.53632 3.47199,3.01895 5.84265,1.45324 1.41733,-0.93687 1.84266,-2.88474 2.33599,-4.33669 0.79733,-2.35431 1.49467,-4.74185 2.06933,-7.0361 -1.70666,2.25078 -3.20799,5.96376 -6.49198,6.48268 -1.484,0.23389 -2.612,-0.59817 -3.82399,-1.28324 -1.308,-0.74005 -2.67466,-1.29603 -3.93599,-2.12809 -2.14266,-1.41361 -4.20399,-2.48852 -6.38799,-3.81904 -1.02799,-0.62628 -2.58266,-1.63601 -4.02132,-2.3198 m 27.08434,-2.09613 c -0.81333,1.73952 2.21733,2.9384 3.46666,4.02354 2.03866,1.77404 4.32132,3.21577 6.48665,4.87733 2.12399,1.62834 4.54399,2.94737 6.62532,4.54631 1.66799,1.28195 2.68399,1.30113 3.21199,-0.76305 0.44933,-1.75743 -0.256,-3.14803 -1.06267,-4.61277 0.024,0.34893 -0.0587,0.75283 -0.0453,1.10558 -3.55866,1.34715 -9.18531,-3.84333 -11.6413,-5.39624 -2.08133,-1.3152 -4.46933,-2.42462 -7.04132,-3.7807 m -20.64665,-13.62228 c -0.23067,2.82977 6.21332,5.06011 8.25065,5.98674 3.08799,1.40467 8.15598,4.45427 10.0013,-0.0487 1.008,-2.46294 2.02933,-5.67488 2.39467,-8.23241 -0.008,4.03888 -1.28667,7.92439 -2.188,11.72042 -0.66,2.7761 -1.344,3.68357 -4.69865,2.11147 -1.19333,-0.55981 -2.20667,-1.32542 -3.24533,-2.10636 -0.89866,-0.67612 -1.656,-0.84227 -2.71866,-1.2794 -2.42266,-0.99694 -4.33332,-2.83489 -6.58398,-4.11173 -1.60533,-0.91003 -3.34799,-2.33514 -1.45467,-4.04016 z m -20.76968,-8.9648 c 0.636,1.17971 4.16799,2.75181 5.36665,3.43433 1.83333,1.04295 3.61866,2.15875 5.41732,3.15953 1.124,0.62628 5.60799,3.96348 7.24132,3.4126 1.42799,-0.48185 2.49866,-5.59309 2.85999,-6.61942 0.67333,-1.91592 1.09867,-4.00566 1.83866,-5.78992 -0.52266,1.43917 -1.45066,2.76971 -2.34399,4.021 -0.668,0.93686 -1.71066,2.89879 -2.89066,3.24516 -2.29866,0.67485 -6.43598,-0.75793 -8.47198,-1.69479 -2.12133,-0.97522 -3.74399,-2.32876 -5.25199,-4.01589 -0.72266,-0.80777 -1.36533,-2.33897 -2.30132,-2.89752 -1.02267,1.03146 -1.632,2.23673 -1.464,3.74492 M 98.337354,238.54951 c -0.278666,1.08768 -1.086664,2.06161 -1.318663,3.11479 2.089328,1.82772 5.561319,2.57671 8.021309,4.02226 2.232,1.31137 4.59333,2.13448 6.74932,3.48035 1.43066,0.89341 2.21866,1.25512 3.62266,0.0856 1.20399,-1.00332 2.09066,-2.34152 2.75599,-3.71806 0.63067,-1.30242 1.288,-2.8988 1.584,-4.17438 -0.75067,1.0583 -1.50667,2.32237 -2.684,2.96271 -1.67199,0.90875 -4.58532,0.67486 -6.45998,0.40388 -2.95599,-0.42689 -6.23998,-1.73059 -8.92664,-3.02788 -1.088,-0.52659 -2.053333,-1.43278 -3.343996,-3.1493 m -15.667961,-4.42357 c -1.311997,0.93048 -3.881324,1.9044 -4.619988,3.35124 3.373324,1.1401 6.998649,1.59255 10.389307,2.57159 1.598663,0.4614 3.433325,1.65646 5.207987,1.43024 2.047995,-0.26202 3.273325,-3.34487 4.222656,-4.86968 -1.46933,1.39699 -2.261328,2.04884 -4.323989,2.52815 -2.002662,0.4665 -4.855988,0.86273 -6.867983,0.0882 -2.79466,-1.07619 -2.573327,-3.51485 -2.083995,-5.78609 -0.485332,0.19556 -0.953331,0.48186 -1.923995,0.68637 m 29.149657,25.61366 c -0.688,0.90237 -1.40933,1.91081 -1.92266,2.94482 -0.79733,1.60916 -1.08267,2.24311 0.076,3.67718 2.46666,3.05089 7.04665,4.20248 10.47064,5.92284 2.56666,1.29091 4.35732,3.51485 6.58532,5.23648 2.42799,1.87629 3.17732,-2.0565 4.07865,-3.73468 1.53066,-2.85151 2.464,-5.72857 3.41199,-8.77435 -1.09733,1.18355 -1.76133,2.96653 -2.64532,4.32518 -0.448,0.68764 -1.03333,2.03222 -1.736,2.48724 -1.49466,0.96754 -5.02265,-0.069 -6.64132,-0.49081 -2.92132,-0.75791 -5.80931,-2.11402 -8.12798,-3.9673 -0.99999,-0.80011 -2.42266,-1.55548 -2.94265,-2.73646 -1.32933,-0.25436 -1.40667,-1.46091 -2.088,-2.40034 -0.50533,0.29398 -0.91733,0.83334 -1.06933,1.35226 m 17.61129,26.42914 c 1.95866,1.613 4.90132,2.17409 7.15598,3.1148 -3.07199,0.76942 -6.55065,-0.28119 -9.48131,0.5726 0.33333,-0.73109 0.728,-1.38805 1.11067,-2.05778" /><path
     d="m 180.51022,285.58845 c -13.17597,-24.83914 -45.67589,-62.30874 -49.62921,-62.30874 -3.95199,0 -52.262535,9.26132 -61.046513,12.20868 -8.783978,2.94736 -10.979973,11.78818 -10.979973,11.78818 v 1.68457 l 4.830655,4.21015 9.662642,-4.21015 c 6.587984,4.63065 18.006622,21.89176 32.938589,42.52202 14.93329,20.62899 23.71727,108.48494 23.71727,108.48494 h 2.41333 c -1.53067,-14.35977 -9.98131,-90.66017 -23.93861,-109.94328 -3.14799,-4.3469 -6.13865,-8.54684 -8.961311,-12.50775 -11.046639,-15.5037 -19.026619,-26.7052 -24.593272,-30.61755 -0.465332,-0.32721 -1.018664,-0.49463 -1.575996,-0.49463 -0.374665,0 -0.750665,0.0755 -1.103997,0.22877 l -8.06398,3.51358 -2.65866,-2.31725 v -0.21472 c 0.410666,-1.34842 2.619994,-7.50773 9.19331,-9.71377 8.534646,-2.86429 54.258536,-11.56962 59.807846,-12.04636 4.88533,2.76715 34.50125,36.1774 47.61055,60.89129 12.17464,22.95133 20.09995,85.13481 22.34661,113.22167 h 2.868 c -1.756,-24.41863 -9.66131,-89.54052 -22.83728,-114.37965"
     style="clip-rule:evenodd;fill:#000000;fill-opacity:1;fill-rule:nonzero;stroke-width:1.30544;stroke-linecap:round;stroke-linejoin:round;stroke-miterlimit:10"
     id="path41" /><path
     d="m 114.33977,315.62083 13.46791,76.34246 75.24831,-4.48949 -11.71108,-76.62467 z"
     style="clip-rule:evenodd;fill:#73423e;fill-rule:nonzero;stroke-width:1.30544;stroke-linecap:round;stroke-linejoin:round;stroke-miterlimit:10"
     id="path42" /><path
     d="m 132.05327,387.89362 -9.09064,-51.52517 21.13194,-2.00282 16.79863,12.69053 11.71197,-17.40171 22.03328,-2.41183 -1.83067,-7.41186 -78.46913,-4.21015 13.4693,76.34257 75.24781,-4.49007 -0.57867,-3.78197 z"
     style="clip-rule:evenodd;opacity:0.2;fill:#000000;fill-opacity:1;fill-rule:nonzero;stroke-width:1.30544;stroke-linecap:round;stroke-linejoin:round;stroke-miterlimit:10"
     id="path43" /><path
     d="m 115.51011,316.50891 13.1333,74.44455 36.05591,-2.91924 -4.60799,-45.00287 8.99998,44.16058 32.81725,-0.61095 -11.41997,-74.71807 z m 12.2973,76.41287 c -0.48533,0 -0.904,-0.33486 -0.98533,-0.79883 l -13.46796,-76.34257 c -0.048,-0.26713 0.0253,-0.54193 0.20133,-0.7541 0.176,-0.21344 0.43733,-0.3451 0.72,-0.36171 l 77.0038,-4.77125 c 0.524,-0.0319 0.97867,0.32336 1.05467,0.81673 l 11.71197,76.62375 c 0.04,0.26585 -0.0373,0.53554 -0.21333,0.74387 -0.176,0.20706 -0.43467,0.33487 -0.71467,0.35277 l -75.24781,4.49006 c -0.0213,9.6e-4 -0.0427,9.6e-4 -0.0627,9.6e-4"
     style="clip-rule:evenodd;fill:#000000;fill-opacity:1;fill-rule:nonzero;stroke-width:1.30544;stroke-linecap:round;stroke-linejoin:round;stroke-miterlimit:10"
     id="path45" /><path
     d="m 108.48333,294.85104 -1.17066,1.96448 9.66131,36.2068 27.81593,-2.24567 15.51729,13.75266 10.54131,-16.55943 23.71594,-1.6833 c 0,0 -2.92799,-27.22539 -8.49065,-33.96112 l -5.56265,-2.24567 z"
     style="clip-rule:evenodd;fill:#73423e;fill-rule:nonzero;stroke-width:1.30544;stroke-linecap:round;stroke-linejoin:round;stroke-miterlimit:10"
     id="path46" /><path
     d="m 107.31213,296.81552 9.66264,36.2068 3.47466,-0.28119 c -1.328,-6.72806 -6.26932,-31.65027 -7.28131,-34.80342 -0.424,-1.31774 -1.65333,-2.37731 -3.04666,-3.19531 l -1.63867,0.10864 z"
     style="clip-rule:evenodd;opacity:0.2;fill:#000000;fill-opacity:1;fill-rule:nonzero;stroke-width:1.30544;stroke-linecap:round;stroke-linejoin:round;stroke-miterlimit:10"
     id="path47" /><path
     d="m 144.7903,329.81805 c 0.25067,0 0.49333,0.0907 0.67866,0.25434 l 14.62264,12.95896 9.90397,-15.56122 c 0.168,-0.26328 0.45867,-0.43327 0.78,-0.45629 l 22.68127,-1.61044 c -0.58133,-4.85433 -3.36932,-26.28342 -8.01597,-32.29446 l -5.09866,-2.05778 -71.25582,4.72013 -0.70533,1.18227 9.35331,35.04498 26.97193,-2.17793 c 0.028,-9.6e-4 0.056,-0.003 0.084,-0.003 m 15.51863,15.66985 c -0.25067,0 -0.49333,-0.0895 -0.68,-0.25436 l -15.19463,-13.46635 -27.37593,2.20989 c -0.492,0.0295 -0.932,-0.26457 -1.052,-0.71703 l -9.66264,-36.2068 c -0.064,-0.24157 -0.028,-0.4972 0.1,-0.7132 l 1.172,-1.96448 c 0.16533,-0.27864 0.46533,-0.45886 0.79866,-0.48058 l 72.02782,-4.77253 c 0.15333,-0.0154 0.312,0.0154 0.45733,0.0728 l 5.56266,2.24567 c 0.156,0.0626 0.292,0.16233 0.39599,0.28886 5.67866,6.87633 8.57998,33.33486 8.70132,34.45705 0.028,0.25818 -0.0547,0.51508 -0.228,0.71447 -0.17334,0.19811 -0.424,0.32081 -0.69333,0.33999 l -23.20395,1.6475 -10.27197,16.1402 c -0.156,0.2454 -0.41867,0.41028 -0.716,0.44989 -0.0453,0.007 -0.092,0.009 -0.13733,0.009"
     style="clip-rule:evenodd;fill:#000000;fill-opacity:1;fill-rule:nonzero;stroke-width:1.30544;stroke-linecap:round;stroke-linejoin:round;stroke-miterlimit:10"
     id="path49" /><path
     id="path52"
     style="clip-rule:evenodd;opacity:0.4;fill-rule:nonzero;stroke-width:1.30544;stroke-linecap:round;stroke-linejoin:round;stroke-miterlimit:10;fill:#000000;fill-opacity:1"
     d="m 169.35958,312.31281 c 0.84266,0.66463 1.392,1.66029 1.392,2.78887 0,2.00412 -1.69333,3.62733 -3.78399,3.62733 -2.08933,0 -3.78266,-1.62321 -3.78266,-3.62733 0,-1.82133 1.404,-3.31418 3.22932,-3.57364 -2.67999,0.0971 -4.82398,2.20477 -4.82398,4.79682 0,2.65467 2.24399,4.80703 5.01332,4.80703 2.76932,0 5.01332,-2.15236 5.01332,-4.80703 0,-1.67691 -0.89867,-3.15187 -2.25733,-4.01205 m -23.71728,2.2444 c 0.84266,0.66462 1.392,1.66028 1.392,2.78887 0,2.00411 -1.69333,3.62732 -3.78399,3.62732 -2.08933,0 -3.78266,-1.62321 -3.78266,-3.62732 0,-1.82133 1.404,-3.31418 3.22932,-3.57365 -2.67999,0.0971 -4.82398,2.20478 -4.82398,4.79681 0,2.65469 2.24399,4.80704 5.01332,4.80704 2.76932,0 5.01332,-2.15235 5.01332,-4.80704 0,-1.67689 -0.89867,-3.15185 -2.25733,-4.01203" /><path
     d="m 140.25298,274.20288 c -0.36,-0.65312 -0.74133,-1.22701 -1.35733,-1.89419 -0.68133,-0.73748 -1.38133,-1.25512 -2.70133,-1.82644 -0.67333,-0.29141 -1.35733,-0.62117 -1.94399,-0.58411 -0.59067,0.0357 -0.87467,0.25563 -1.04933,0.52915 -0.89333,1.40595 -0.59067,3.3193 -0.33733,5.06649 l -1.64267,0.12016 c -0.81866,-0.58283 -1.41199,-1.49797 -1.72533,-2.04246 -0.47466,-0.82695 -1.08933,-1.71013 -1.28266,-2.49491 -0.17733,-0.72341 0.55067,-1.18738 1.032,-1.66795 0.75866,-0.75793 1.62533,-1.5248 2.60666,-2.17665 1.07866,-0.71703 2.51732,-1.26663 3.39999,-2.07952 0.30533,-0.28118 0.49866,-0.61094 0.82933,-0.8819 0.17333,-0.1406 1.02133,-0.71831 0.064,-1.02633 -0.27733,-0.0882 -0.68533,-0.0306 -0.912,-0.0306 -0.83866,9.6e-4 -1.73199,0.0409 -2.63599,0.003 -0.66667,-0.0281 -1.784,-0.19812 -2.52266,-0.5611 -0.81333,-0.39878 -0.86133,-0.77838 -0.41067,-0.95476 1.212,-0.47419 3.152,-0.27991 4.85332,-0.33104 1.33467,-0.0409 2.54666,-0.21217 3.82666,-0.30675 1.28666,-0.0947 1.76933,0.35148 2.72133,1.12603 0.81733,0.66591 1.51466,1.41489 2.47066,2.04372 0.79333,0.52021 1.85999,1.1746 2.90132,1.31904 1.376,0.18916 2.73866,0.0179 3.91066,-0.0306 1.86266,-0.0779 3.90532,-0.0639 5.22532,-0.57643 0.42,-0.16361 0.26933,-0.37706 0.0747,-0.73237 -0.28,-0.50998 -1.06,-1.32541 -2.12266,-1.54398 -1.46667,-0.30036 -2.716,0.0728 -4.37333,-0.66847 -0.27999,-0.12652 -0.45599,-0.26968 -0.65999,-0.42305 -1.024,-0.76689 -1.74533,-1.6015 -2.692,-2.38499 -0.89466,-0.74131 -2.19599,-1.31903 -3.47866,-1.83667 -1.96532,-0.79244 -4.14398,-1.56059 -6.03198,-2.4604 -0.19467,-0.0933 -0.424,-0.23645 -0.61867,-0.33231 l 17.61729,-1.21933 14.2133,19.63077 -26.8306,1.95297 c -0.16,-0.23134 -0.336,-0.57515 -0.41733,-0.72342 m -18.29062,-17.40696 c -1.512,0.069 -2.77466,0.35277 -4.14132,0.54576 -1.036,0.14699 -2.13867,0.25308 -3.092,0.46269 -0.89733,0.19683 -1.72799,0.52275 -2.79332,0.59944 -1.82933,-1.42383 2.20399,-1.06597 2.40399,-1.90186 0.0347,-0.14059 -0.096,-0.35787 -0.20133,-0.44863 l 12.8373,-0.88829 c 0.29333,0.0869 0.60933,0.23517 0.79333,0.29014 1.86266,0.55215 4.88399,1.22828 6.55598,2.29679 0.45867,0.29398 0.632,0.53299 0.19334,0.62628 -0.53867,0.11504 -1.47733,-0.22879 -2.18533,-0.45884 -0.93733,-0.3042 -1.928,-0.63013 -2.87733,-0.82695 -1.17466,-0.2454 -2.20799,-0.19045 -3.27599,-0.26969 -1.48399,-0.1112 -2.88132,-0.0882 -4.21732,-0.0268 m 2.58533,17.43239 c -0.61467,0.13804 -0.96,0.22494 -1.67467,-0.21472 -1.37733,-0.84741 -2.52532,-1.86735 -3.48399,-2.78632 -0.624,-0.5969 -1.73333,-1.62834 -2.93599,-2.05268 -0.544,-0.19299 -0.90133,-0.13036 -1.04133,0.0703 -0.25067,0.36173 -0.0667,0.91642 -0.032,1.36888 0.0573,0.76432 0.284,1.60277 0.65333,2.43356 0.476,1.06724 1.66666,2.36326 3.12399,3.44455 l -16.57062,1.20528 -13.975968,-19.87489 17.050628,-1.18099 c -0.1,0.22495 -0.13067,0.57388 -0.27334,0.76559 -0.24266,0.32593 -0.52399,0.64162 -0.71866,0.988 -0.15733,0.2799 0.0293,0.66718 0.0267,1.00973 -0.004,0.48441 -0.076,0.94581 -0.056,1.43789 0.0347,0.87296 -0.028,1.72036 0.0213,2.59587 0.072,1.27812 0.18133,2.7697 -0.74133,3.70401 -0.26667,0.27097 -0.58267,0.5202 -1.008,0.7132 -0.49467,0.22623 -1.37333,0.3681 -1.72666,0.66079 -0.26533,0.21985 0.26,0.52915 0.89466,0.77711 0.74667,0.29141 1.39333,0.32081 2.03866,0.33869 1.77733,0.0486 3.37066,0.0525 4.94532,-0.0882 0.98134,-0.0882 2.03333,-0.14315 2.664,-0.46268 0.29066,-0.14699 0.688,-0.38089 0.60933,-0.67486 -0.0587,-0.21983 -0.36267,-0.53425 -0.51867,-0.77198 -0.45466,-0.69403 -0.72933,-1.3446 -0.97333,-2.00922 -0.44533,-1.21549 -0.67733,-2.44633 -0.45066,-3.49568 0.116,-0.5432 0.22133,-1.02762 1.23466,-1.11069 1.86266,-0.15082 4.87732,0.39111 7.19198,0.92792 1.03333,0.24028 2.12,0.45373 3.11866,0.95604 0.18534,0.0933 0.45467,0.21345 0.552,0.33999 0.096,0.12397 -0.14,0.36809 -0.18267,0.44733 -0.21466,0.39751 -0.63866,0.69019 -1.08133,0.98161 -0.87199,0.57387 -2.10399,1.09918 -2.02132,2.07184 0.024,0.30037 0.30266,0.61734 0.52266,0.95476 0.64667,0.99567 1.36133,2.00411 2.21866,3.01127 0.77467,0.90876 1.79866,1.82773 2.52533,2.71857 0.37067,0.4563 0.68133,0.66335 0.0747,0.80012 m 31.29592,-23.85753 -72.697154,3.18381 -0.562665,1.85584 18.193289,25.92427 73.61181,-5.40264 0.56267,-1.85457 z"
     style="clip-rule:evenodd;fill-rule:nonzero;stroke-width:1.30544;stroke-linecap:round;stroke-linejoin:round;stroke-miterlimit:10"
     id="path116" /><path
     d="m 140.25298,274.20288 c -0.36,-0.65312 -0.74133,-1.22701 -1.35733,-1.89419 -0.68133,-0.73748 -1.38133,-1.25512 -2.70133,-1.82644 -0.67333,-0.29141 -1.35733,-0.62117 -1.94399,-0.58411 -0.59067,0.0357 -0.87467,0.25563 -1.04933,0.52915 -0.89333,1.40595 -0.59067,3.3193 -0.33733,5.06649 l -1.64267,0.12016 c -0.81866,-0.58283 -1.41199,-1.49797 -1.72533,-2.04246 -0.47466,-0.82695 -1.08933,-1.71013 -1.28266,-2.49491 -0.17733,-0.72341 0.55067,-1.18738 1.032,-1.66795 0.75866,-0.75793 1.62533,-1.5248 2.60666,-2.17665 1.07866,-0.71703 2.51732,-1.26663 3.39999,-2.07952 0.30533,-0.28118 0.49866,-0.61094 0.82933,-0.8819 0.17333,-0.1406 1.02133,-0.71831 0.064,-1.02633 -0.27733,-0.0882 -0.68533,-0.0306 -0.912,-0.0306 -0.83866,9.6e-4 -1.73199,0.0409 -2.63599,0.003 -0.66667,-0.0281 -1.784,-0.19812 -2.52266,-0.5611 -0.81333,-0.39878 -0.86133,-0.77838 -0.41067,-0.95476 1.212,-0.47419 3.152,-0.27991 4.85332,-0.33104 1.33467,-0.0409 2.54666,-0.21217 3.82666,-0.30675 1.28666,-0.0947 1.76933,0.35148 2.72133,1.12603 0.81733,0.66591 1.51466,1.41489 2.47066,2.04372 0.79333,0.52021 1.85999,1.1746 2.90132,1.31904 1.376,0.18916 2.73866,0.0179 3.91066,-0.0306 1.86266,-0.0779 3.90532,-0.0639 5.22532,-0.57643 0.42,-0.16361 0.26933,-0.37706 0.0747,-0.73237 -0.28,-0.50998 -1.06,-1.32541 -2.12266,-1.54398 -1.46667,-0.30036 -2.716,0.0728 -4.37333,-0.66847 -0.27999,-0.12652 -0.45599,-0.26968 -0.65999,-0.42305 -1.024,-0.76689 -1.74533,-1.6015 -2.692,-2.38499 -0.89466,-0.74131 -2.19599,-1.31903 -3.47866,-1.83667 -1.96532,-0.79244 -4.14398,-1.56059 -6.03198,-2.4604 -0.19467,-0.0933 -0.424,-0.23645 -0.61867,-0.33231 l 17.61729,-1.21933 14.2133,19.63077 -26.8306,1.95297 c -0.16,-0.23134 -0.336,-0.57515 -0.41733,-0.72342 z m -18.29062,-17.40682 c -1.512,0.069 -2.77466,0.35276 -4.14132,0.54576 -1.036,0.14697 -2.13867,0.25306 -3.092,0.46268 -0.89733,0.19683 -1.72799,0.52275 -2.79332,0.59944 -1.82933,-1.42383 2.20399,-1.06596 2.40399,-1.90185 0.0347,-0.14059 -0.096,-0.35788 -0.20133,-0.44863 l 12.8373,-0.88829 c 0.29333,0.0869 0.60933,0.23517 0.79333,0.29013 1.86266,0.55214 4.88399,1.22829 6.55598,2.2968 0.45867,0.29397 0.632,0.53297 0.19334,0.62628 -0.53867,0.11503 -1.47733,-0.22879 -2.18533,-0.45884 -0.93733,-0.30421 -1.928,-0.63013 -2.87733,-0.82696 -1.17466,-0.2454 -2.20799,-0.19044 -3.27599,-0.26968 -1.48399,-0.1112 -2.88132,-0.0882 -4.21732,-0.0268 z m 2.58533,17.43239 c -0.61467,0.13803 -0.96,0.22494 -1.67467,-0.21473 -1.37733,-0.8474 -2.52532,-1.86735 -3.48399,-2.78633 -0.624,-0.59688 -1.73333,-1.62832 -2.93599,-2.05266 -0.544,-0.193 -0.90133,-0.13038 -1.04133,0.0703 -0.25067,0.36171 -0.0667,0.91642 -0.032,1.36888 0.0573,0.76432 0.284,1.60276 0.65333,2.43355 0.476,1.06723 1.66666,2.36327 3.12399,3.44455 l -16.57062,1.20527 -13.975968,-19.87488 17.050628,-1.18098 c -0.1,0.22494 -0.13067,0.57387 -0.27334,0.76559 -0.24266,0.32593 -0.52399,0.64162 -0.71866,0.98799 -0.15733,0.27991 0.0293,0.66719 0.0267,1.00973 -0.004,0.48441 -0.076,0.94582 -0.056,1.43789 0.0347,0.87297 -0.028,1.72035 0.0213,2.59587 0.072,1.27813 0.18133,2.76971 -0.74133,3.70402 -0.26667,0.27096 -0.58267,0.5202 -1.008,0.71319 -0.49467,0.22623 -1.37333,0.36811 -1.72666,0.6608 -0.26533,0.21984 0.26,0.52914 0.89466,0.7771 0.74667,0.29141 1.39333,0.32082 2.03866,0.3387 1.77733,0.0486 3.37066,0.0525 4.94532,-0.0882 0.98134,-0.0882 2.03333,-0.14315 2.664,-0.46268 0.29066,-0.14698 0.688,-0.38088 0.60933,-0.67485 -0.0587,-0.21983 -0.36267,-0.53425 -0.51867,-0.77198 -0.45466,-0.69403 -0.72933,-1.34461 -0.97333,-2.00923 -0.44533,-1.21549 -0.67733,-2.44634 -0.45066,-3.49568 0.116,-0.5432 0.22133,-1.02761 1.23466,-1.11068 1.86266,-0.15083 4.87732,0.3911 7.19198,0.92791 1.03333,0.24029 2.12,0.45374 3.11866,0.95604 0.18534,0.0933 0.45467,0.21346 0.552,0.33998 0.096,0.12399 -0.14,0.3681 -0.18267,0.44735 -0.21466,0.3975 -0.63866,0.69019 -1.08133,0.98161 -0.87199,0.57387 -2.10399,1.09918 -2.02132,2.07184 0.024,0.30036 0.30266,0.61733 0.52266,0.95476 0.64667,0.99566 1.36133,2.00409 2.21866,3.01127 0.77467,0.90875 1.79866,1.82771 2.52533,2.71857 0.37067,0.45629 0.68133,0.66335 0.0747,0.80012 z m 31.29592,-23.85754 -72.697154,3.18381 -0.562665,1.85585 18.193289,25.92426 73.61181,-5.40264 0.56267,-1.85458 z"
     style="clip-rule:evenodd;fill:#000000;fill-opacity:1;fill-rule:nonzero;stroke:#000000;stroke-width:1.30544px;stroke-linecap:round;stroke-linejoin:round;stroke-miterlimit:10"
     id="path117" /><path
     d="m 168.06358,271.11748 -26.8306,1.95298 c -0.16,-0.23134 -0.336,-0.57516 -0.41733,-0.72343 -0.36,-0.65312 -0.74133,-1.227 -1.35733,-1.89417 -0.68,-0.73621 -1.38133,-1.25513 -2.70133,-1.82645 -0.67333,-0.29141 -1.35733,-0.6199 -1.94399,-0.58411 -0.59067,0.0371 -0.87467,0.25563 -1.04933,0.53042 -0.89334,1.40594 -0.59067,3.31802 -0.33734,5.0665 l -1.64266,0.11887 c -0.81866,-0.58283 -1.41066,-1.49796 -1.72399,-2.04245 -0.476,-0.82567 -1.08934,-1.70885 -1.284,-2.49491 -0.17733,-0.72342 0.55066,-1.1861 1.032,-1.66666 0.75866,-0.75794 1.62666,-1.52483 2.60666,-2.17667 1.07866,-0.71703 2.51732,-1.26662 3.39999,-2.08079 0.30533,-0.28118 0.49866,-0.61095 0.82933,-0.88062 0.17333,-0.14188 1.02133,-0.7196 0.064,-1.02635 -0.27733,-0.0895 -0.68533,-0.0319 -0.912,-0.0319 -0.83866,9.6e-4 -1.73199,0.0409 -2.63599,0.003 -0.66667,-0.0281 -1.784,-0.19682 -2.52266,-0.55981 -0.81333,-0.40006 -0.86133,-0.77839 -0.41067,-0.95605 1.212,-0.4729 3.15199,-0.27863 4.85466,-0.33103 1.33333,-0.0396 2.54532,-0.21218 3.82532,-0.30547 1.28666,-0.0947 1.76933,0.3502 2.72133,1.12603 0.81733,0.6659 1.51466,1.41488 2.47066,2.04244 0.79333,0.5202 1.86133,1.17588 2.90132,1.31903 1.37733,0.19045 2.74,0.0179 3.91066,-0.0306 1.86399,-0.0766 3.90532,-0.0626 5.22532,-0.57643 0.42,-0.16232 0.26933,-0.37704 0.0747,-0.73108 -0.28,-0.51126 -1.06,-1.3267 -2.12133,-1.54399 -1.468,-0.30163 -2.71599,0.0728 -4.37466,-0.66973 -0.28,-0.12527 -0.456,-0.26969 -0.66,-0.42179 -1.02399,-0.76815 -1.74532,-1.60278 -2.69199,-2.38626 -0.89466,-0.74132 -2.19599,-1.31775 -3.47732,-1.8354 -1.96667,-0.79371 -4.14533,-1.56187 -6.03199,-2.46167 -0.196,-0.0933 -0.42533,-0.23645 -0.62,-0.33104 l 17.61729,-1.22061 z m -78.890469,-15.15092 17.050619,-1.181 c -0.1,0.22623 -0.13066,0.57516 -0.27333,0.76688 -0.24266,0.32592 -0.524,0.64162 -0.71866,0.98672 -0.15734,0.2799 0.0293,0.66718 0.0267,1.00972 -0.004,0.48567 -0.076,0.94709 -0.056,1.43788 0.0347,0.87424 -0.028,1.72164 0.0213,2.59716 0.072,1.27685 0.18133,2.76842 -0.74133,3.70402 -0.26667,0.27096 -0.58267,0.5202 -1.00667,0.71319 -0.496,0.22495 -1.37466,0.36683 -1.72799,0.66079 -0.26534,0.21984 0.26,0.52915 0.89466,0.77583 0.74667,0.29141 1.39333,0.32081 2.04,0.33869 1.77599,0.0498 3.36932,0.0525 4.94398,-0.0882 0.98133,-0.0869 2.03333,-0.14316 2.664,-0.46269 0.292,-0.14698 0.68799,-0.38088 0.60933,-0.67485 -0.0587,-0.21984 -0.36267,-0.53426 -0.51867,-0.77199 -0.45466,-0.69403 -0.728,-1.34459 -0.972,-2.00921 -0.44666,-1.2155 -0.67866,-2.44635 -0.45199,-3.49569 0.116,-0.54192 0.22133,-1.02761 1.23466,-1.10941 1.864,-0.15082 4.87732,0.38983 7.19198,0.92791 1.03333,0.24029 2.12,0.45246 3.11866,0.95477 0.18533,0.0933 0.45467,0.21345 0.55333,0.33998 0.0947,0.12398 -0.14133,0.3681 -0.184,0.44734 -0.21333,0.3975 -0.63866,0.69147 -1.08133,0.98288 -0.872,0.57261 -2.10399,1.09791 -2.02133,2.07185 0.0253,0.29908 0.30267,0.61734 0.52267,0.95476 0.648,0.99439 1.36133,2.00283 2.21866,3.00999 0.77467,0.90876 1.79866,1.82772 2.52533,2.71986 0.37066,0.4563 0.68133,0.66335 0.0747,0.79883 -0.61466,0.13931 -0.95999,0.22496 -1.67466,-0.21472 -1.37733,-0.84741 -2.52533,-1.86607 -3.48399,-2.78505 -0.624,-0.59688 -1.73333,-1.62834 -2.93599,-2.05395 -0.54267,-0.19172 -0.90133,-0.13037 -1.04133,0.0703 -0.25067,0.36298 -0.0667,0.9164 -0.032,1.36886 0.0573,0.76432 0.284,1.60406 0.65333,2.43484 0.476,1.06595 1.66666,2.36325 3.12399,3.44328 l -16.57062,1.20655 z m 39.158569,-2.36583 c 1.86399,0.55216 4.88399,1.22701 6.55598,2.29681 0.45867,0.29269 0.632,0.53296 0.19467,0.62499 -0.54,0.11503 -1.47866,-0.2275 -2.18666,-0.45757 -0.93733,-0.30419 -1.928,-0.63139 -2.87733,-0.82823 -1.17466,-0.24411 -2.20666,-0.18915 -3.27599,-0.26968 -1.484,-0.11119 -2.88133,-0.0882 -4.21599,-0.0268 -1.51333,0.0703 -2.77599,0.35404 -4.14266,0.54704 -1.03599,0.14571 -2.13866,0.25179 -3.09199,0.4614 -0.89733,0.19812 -1.72799,0.52403 -2.79199,0.60073 -1.83066,-1.42512 2.20266,-1.06596 2.40399,-1.90186 0.0333,-0.14187 -0.0973,-0.35915 -0.20266,-0.44862 l 12.8373,-0.88958 c 0.29333,0.0882 0.60933,0.23646 0.79333,0.29141 m -45.185221,-0.046 18.194621,25.92426 73.61048,-5.40137 -18.54528,-25.56127 z"
     style="clip-rule:evenodd;fill:#fbb03b;fill-rule:nonzero;stroke-width:1.30544;stroke-linecap:round;stroke-linejoin:round;stroke-miterlimit:10"
     id="path118" /><path
     d="m 168.06358,271.11748 -26.8306,1.95298 c -0.16,-0.23134 -0.336,-0.57516 -0.41733,-0.72343 -0.36,-0.65312 -0.74133,-1.227 -1.35733,-1.89417 -0.68,-0.73621 -1.38133,-1.25513 -2.70133,-1.82645 -0.67333,-0.29141 -1.35733,-0.6199 -1.94399,-0.58411 -0.59067,0.0371 -0.87467,0.25563 -1.04933,0.53042 -0.89334,1.40594 -0.59067,3.31802 -0.33734,5.0665 l -1.64266,0.11887 c -0.81866,-0.58283 -1.41066,-1.49796 -1.72399,-2.04245 -0.476,-0.82567 -1.08934,-1.70885 -1.284,-2.49491 -0.17733,-0.72342 0.55066,-1.1861 1.032,-1.66666 0.75866,-0.75794 1.62666,-1.52483 2.60666,-2.17667 1.07866,-0.71703 2.51732,-1.26662 3.39999,-2.08079 0.30533,-0.28118 0.49866,-0.61095 0.82933,-0.88062 0.17333,-0.14188 1.02133,-0.7196 0.064,-1.02635 -0.27733,-0.0895 -0.68533,-0.0319 -0.912,-0.0319 -0.83866,9.6e-4 -1.73199,0.0409 -2.63599,0.003 -0.66667,-0.0281 -1.784,-0.19682 -2.52266,-0.55981 -0.81333,-0.40006 -0.86133,-0.77839 -0.41067,-0.95605 1.212,-0.4729 3.15199,-0.27863 4.85466,-0.33103 1.33333,-0.0396 2.54532,-0.21218 3.82532,-0.30547 1.28666,-0.0947 1.76933,0.3502 2.72133,1.12603 0.81733,0.6659 1.51466,1.41488 2.47066,2.04244 0.79333,0.5202 1.86133,1.17588 2.90132,1.31903 1.37733,0.19045 2.74,0.0179 3.91066,-0.0306 1.86399,-0.0766 3.90532,-0.0626 5.22532,-0.57643 0.42,-0.16232 0.26933,-0.37704 0.0747,-0.73108 -0.28,-0.51126 -1.06,-1.3267 -2.12133,-1.54399 -1.468,-0.30163 -2.71599,0.0728 -4.37466,-0.66973 -0.28,-0.12527 -0.456,-0.26969 -0.66,-0.42179 -1.02399,-0.76815 -1.74532,-1.60278 -2.69199,-2.38626 -0.89466,-0.74132 -2.19599,-1.31775 -3.47732,-1.8354 -1.96667,-0.79371 -4.14533,-1.56187 -6.03199,-2.46167 -0.196,-0.0933 -0.42533,-0.23645 -0.62,-0.33104 l 17.61729,-1.22061 z m -78.890469,-15.15092 17.050619,-1.181 c -0.1,0.22623 -0.13066,0.57516 -0.27333,0.76688 -0.24266,0.32592 -0.524,0.64162 -0.71866,0.98672 -0.15734,0.2799 0.0293,0.66718 0.0267,1.00972 -0.004,0.48567 -0.076,0.94709 -0.056,1.43788 0.0347,0.87424 -0.028,1.72164 0.0213,2.59716 0.072,1.27685 0.18133,2.76842 -0.74133,3.70402 -0.26667,0.27096 -0.58267,0.5202 -1.00667,0.71319 -0.496,0.22495 -1.37466,0.36683 -1.72799,0.66079 -0.26534,0.21984 0.26,0.52915 0.89466,0.77583 0.74667,0.29141 1.39333,0.32081 2.04,0.33869 1.77599,0.0498 3.36932,0.0525 4.94398,-0.0882 0.98133,-0.0869 2.03333,-0.14316 2.664,-0.46269 0.292,-0.14698 0.68799,-0.38088 0.60933,-0.67485 -0.0587,-0.21984 -0.36267,-0.53426 -0.51867,-0.77199 -0.45466,-0.69403 -0.728,-1.34459 -0.972,-2.00921 -0.44666,-1.2155 -0.67866,-2.44635 -0.45199,-3.49569 0.116,-0.54192 0.22133,-1.02761 1.23466,-1.10941 1.864,-0.15082 4.87732,0.38983 7.19198,0.92791 1.03333,0.24029 2.12,0.45246 3.11866,0.95477 0.18533,0.0933 0.45467,0.21345 0.55333,0.33998 0.0947,0.12398 -0.14133,0.3681 -0.184,0.44734 -0.21333,0.3975 -0.63866,0.69147 -1.08133,0.98288 -0.872,0.57261 -2.10399,1.09791 -2.02133,2.07185 0.0253,0.29908 0.30267,0.61734 0.52267,0.95476 0.648,0.99439 1.36133,2.00283 2.21866,3.00999 0.77467,0.90876 1.79866,1.82772 2.52533,2.71986 0.37066,0.4563 0.68133,0.66335 0.0747,0.79883 -0.61466,0.13931 -0.95999,0.22496 -1.67466,-0.21472 -1.37733,-0.84741 -2.52533,-1.86607 -3.48399,-2.78505 -0.624,-0.59688 -1.73333,-1.62834 -2.93599,-2.05395 -0.54267,-0.19172 -0.90133,-0.13037 -1.04133,0.0703 -0.25067,0.36298 -0.0667,0.9164 -0.032,1.36886 0.0573,0.76432 0.284,1.60406 0.65333,2.43484 0.476,1.06595 1.66666,2.36325 3.12399,3.44328 l -16.57062,1.20655 z m 39.158569,-2.36583 c 1.86399,0.55216 4.88399,1.22701 6.55598,2.29681 0.45867,0.29269 0.632,0.53296 0.19467,0.62499 -0.54,0.11503 -1.47866,-0.2275 -2.18666,-0.45757 -0.93733,-0.30419 -1.928,-0.63139 -2.87733,-0.82823 -1.17466,-0.24411 -2.20666,-0.18915 -3.27599,-0.26968 -1.484,-0.11119 -2.88133,-0.0882 -4.21599,-0.0268 -1.51333,0.0703 -2.77599,0.35404 -4.14266,0.54704 -1.03599,0.14571 -2.13866,0.25179 -3.09199,0.4614 -0.89733,0.19812 -1.72799,0.52403 -2.79199,0.60073 -1.83066,-1.42512 2.20266,-1.06596 2.40399,-1.90186 0.0333,-0.14187 -0.0973,-0.35915 -0.20266,-0.44862 l 12.8373,-0.88958 c 0.29333,0.0882 0.60933,0.23646 0.79333,0.29141 z m -45.185221,-0.046 18.194621,25.92426 73.61048,-5.40137 -18.54528,-25.56126 z"
     style="clip-rule:evenodd;fill:none;fill-rule:nonzero;stroke:#000000;stroke-width:1.30544px;stroke-linecap:round;stroke-linejoin:round;stroke-miterlimit:10"
     id="path119" /></g></svg>
