<?xml version="1.0" encoding="UTF-8" standalone="no"?>
<!-- Created with Inkscape (http://www.inkscape.org/) -->

<svg
   version="1.1"
   id="svg1115"
   width="400"
   height="400"
   viewBox="0 0 400 400"
   sodipodi:docname="klingonArmourAverageFemale.svg"
   inkscape:version="1.4 (e7c3feb1, 2024-10-09)"
   xml:space="preserve"
   xmlns:inkscape="http://www.inkscape.org/namespaces/inkscape"
   xmlns:sodipodi="http://sodipodi.sourceforge.net/DTD/sodipodi-0.dtd"
   xmlns="http://www.w3.org/2000/svg"
   xmlns:svg="http://www.w3.org/2000/svg"><defs
     id="defs1119" /><sodipodi:namedview
     id="namedview1117"
     pagecolor="#ffffff"
     bordercolor="#666666"
     borderopacity="1.0"
     inkscape:showpageshadow="2"
     inkscape:pageopacity="0.0"
     inkscape:pagecheckerboard="0"
     inkscape:deskcolor="#d1d1d1"
     showgrid="false"
     inkscape:zoom="2.325"
     inkscape:cx="189.67742"
     inkscape:cy="310.32258"
     inkscape:window-width="2176"
     inkscape:window-height="1222"
     inkscape:window-x="2228"
     inkscape:window-y="111"
     inkscape:window-maximized="0"
     inkscape:current-layer="svg1115"><inkscape:page
       x="0"
       y="0"
       id="page1121"
       width="400"
       height="400"
       margin="0"
       bleed="0" /></sodipodi:namedview><g
     inkscape:groupmode="layer"
     id="layer1"
     inkscape:label="Chest"
     style="display:inline"
     sodipodi:insensitive="true"><path
       d="m 247.44199,399.9668 h 44.27467 c 5.74267,-12.596 20.224,-62.912 21.93467,-68.52933 1.83066,-6.016 -5.49334,-43.42 -5.49334,-43.42 l -82.65333,5.232 -19.09333,42.11066 c 0,0 18.51333,43.99067 41.03066,64.60667"
       style="display:inline;fill:#cd976d;fill-opacity:1;fill-rule:nonzero;stroke:none;stroke-width:1.33333"
       id="path17555" /><path
       id="path17567"
       style="display:inline;fill:#000000;fill-opacity:1;fill-rule:nonzero;stroke:none;stroke-width:1.33333"
       d="m 247.80469,364.11914 c 13.66665,13.96932 17.93962,29.661 19.15429,35.84766 h 2.35547 2.65821 c -2.248,-9.76133 -7.36689,-18.00334 -12.32423,-24.11133 -6.04798,-7.45466 -11.84374,-11.73633 -11.84374,-11.73633 z" /><path
       d="m 279.58973,399.9668 c -2.22534,-8.456 -6.64267,-28.53867 -1.77334,-39.496 6.27734,-14.12533 5.49334,-16.47867 -2.35333,-11.248 -6.836,4.55733 -15.852,18.04533 -15.81467,26.63333 4.95734,6.108 10.076,14.34934 12.324,24.11067 z"
       style="display:inline;opacity:0.199997;fill:#000000;fill-opacity:1;fill-rule:nonzero;stroke:none;stroke-width:1.33333"
       id="path17577" /></g><g
     id="g1123"
     inkscape:groupmode="layer"
     inkscape:label="Uniform"
     style="display:inline"><path
       id="path14"
       style="clip-rule:evenodd;fill:#242424;fill-rule:nonzero;stroke-width:1.32005;stroke-miterlimit:10"
       d="M 61.677734 268.54688 L 43.568359 292.02148 L 35.244141 330.94727 L 37.148438 335.73242 L 31.816406 338.80859 L 29.222656 364.90039 L 31.056641 371.2832 L 28.736328 400 L 126.16797 400 L 125.75781 377.24414 L 134.24023 330.60547 C 134.24023 330.60547 128.9105 323.76909 125.83984 320.35547 C 122.76918 316.94054 105.68359 294.37109 105.68359 294.37109 L 67.390625 269.23047 L 61.677734 268.54688 z " /><path
       id="path15"
       style="clip-rule:evenodd;fill:#000000;fill-rule:nonzero;stroke-width:1.32005;stroke-miterlimit:10"
       d="M 63.117188 268.18359 C 60.79152 268.16142 57.698246 270.60622 56.21875 271.70703 C 56.070001 271.81762 55.930983 271.93746 55.785156 272.05078 C 55.7146 272.08615 55.632569 272.10846 55.564453 272.14648 C 55.185787 272.3582 54.81641 272.59797 54.455078 272.86328 L 54.867188 272.78516 C 51.98475 275.23115 49.65785 278.19604 47.412109 281.21875 C 46.065446 283.03142 45.088241 284.86163 43.517578 286.54492 C 41.889582 288.28832 40.12256 289.91992 38.726562 291.85938 C 39.145229 291.78877 39.575792 291.88467 39.953125 291.75391 C 40.011795 292.57203 39.465472 293.33496 38.744141 293.7793 C 40.542803 294.26678 37.616875 296.07222 37.296875 296.61328 C 38.150207 298.80756 34.148405 300.39476 33.816406 302.45312 C 34.012405 302.25056 34.51075 302.04039 34.71875 301.85742 C 35.161415 304.61236 31.064355 305.31145 31.429688 307.71875 C 32.096353 307.07838 33.046866 306.77942 33.769531 306.21484 C 33.706861 306.59253 33.866453 307.06177 33.814453 307.43555 C 33.975785 307.40295 34.071089 307.35362 34.232422 307.30664 C 34.647087 309.23431 32.005603 312.27912 31.210938 313.91797 C 30.670939 315.03015 30.475046 316.10271 30.123047 317.20312 C 30.671045 316.12232 31.985799 315.30295 32.841797 314.35938 C 34.055127 319.48111 28.382799 322.47603 27.105469 326.85938 C 28.546799 325.57338 30.361582 324.60505 32.017578 323.65625 C 31.906912 325.50943 31.38048 327.43601 29.896484 328.54688 C 29.088486 329.15328 27.089671 330.1543 28.875 331.2168 C 28.77767 330.12947 31.200096 329.14377 31.996094 328.81836 C 32.540092 330.24811 32.618854 332.25546 32.492188 333.7793 C 31.52419 334.1387 30.808936 335.48638 29.960938 336.17773 C 29.014274 336.94879 28.20051 337.25492 28.089844 338.57227 C 28.395176 338.43896 28.714047 338.53544 28.998047 338.45703 C 29.015377 340.01354 27.99678 340.78451 27.300781 342.01953 C 26.763449 342.97749 26.632473 344.08613 26.119141 345.09375 C 25.440476 346.4294 24.214457 347.74152 23.953125 349.1582 C 24.955789 348.82232 25.926918 348.30562 26.65625 347.52148 C 26.096251 348.40233 25.718907 349.99352 25.878906 351.04297 C 25.962576 350.9723 26.095538 350.84245 26.203125 350.76758 C 25.999343 352.55691 24.694946 354.2506 24.277344 355.99609 C 25.473341 356.74102 23.350937 360.53379 22.710938 361.60938 C 23.20827 361.54928 23.758283 361.44834 24.238281 361.33203 C 24.340948 362.44158 24.005577 363.6201 23.517578 364.59766 C 24.197577 364.4918 24.906907 364.30242 25.378906 363.85938 C 24.234908 364.93234 25.889121 366.14663 26.314453 366.99219 C 26.911785 368.18147 25.970398 369.19228 24.927734 369.83789 C 25.505066 369.90459 26.075444 370.09178 26.662109 370.0957 C 26.032778 371.88223 22.688933 372.47931 20.960938 372.79688 C 22.652933 373.52873 23.59826 375.3815 25.544922 375.56055 C 25.126256 375.72784 24.692291 375.7853 24.265625 375.91992 C 24.765624 376.20743 27.331273 376.15402 26.224609 377.28711 C 27.648606 378.22154 26.852029 379.54285 26.332031 380.63672 C 26.106698 381.11112 25.872029 383.38103 27.193359 382.80469 C 25.688029 383.46075 23.552452 385.80547 23.064453 387.18555 C 23.712451 386.66149 24.615346 385.27003 25.527344 386.01758 C 26.335342 386.67887 25.650848 386.7066 25.353516 387.17578 C 24.662851 388.26965 23.564191 389.29758 23.130859 390.52344 C 22.569527 392.11133 23.247417 392.72236 23.46875 394.21875 C 23.622083 393.47513 24.1656 392.71444 24.572266 392.11719 C 25.75893 393.40317 25.18971 396.94828 24.484375 398.43945 C 24.225259 398.98769 23.835598 399.47561 23.470703 400 L 31.378906 400 C 31.44618 397.82082 31.511534 395.64207 31.580078 393.46289 C 31.672078 390.55504 31.859281 387.63181 31.863281 384.72266 C 31.865981 381.44234 32.81543 381.66201 36.107422 381.86719 C 41.130076 382.17823 46.350543 382.3673 51.394531 382.86523 C 59.109178 383.62585 66.710988 385.27606 74.542969 385.27344 C 82.465617 385.26944 90.374286 385.47185 98.322266 385.86523 C 101.0396 385.99984 115.25334 385.26002 115.63867 387.66211 C 116.216 387.27657 116.92919 386.79789 117.61719 386.69727 C 118.21985 390.04162 113.81366 392.95388 111.375 394.33789 C 111.68966 394.42939 111.94959 394.6253 112.29492 394.7207 C 112.29192 395.8956 110.79414 396.5851 110.13281 397.51953 C 110.72347 397.28168 111.30653 397.39871 111.89453 397.32812 C 111.60786 398.07567 111.1684 398.78646 110.53906 399.31445 C 112.09373 399.18898 113.69092 398.25774 115.15625 397.92188 C 115.01686 398.62651 114.80511 399.31558 114.57227 400 L 115.93164 400 C 116.15203 399.15968 116.35145 398.33907 116.56836 397.69922 C 117.74169 394.23594 118.98942 390.87526 120.21875 387.44727 C 121.18008 384.7642 123.10039 382.91145 123.98438 380.26367 C 125.42838 375.93523 126.49088 371.48915 127.32422 367.01172 C 128.11621 362.75776 129.2387 358.94701 130.33203 354.77539 C 130.81203 352.94181 130.93148 351.02809 131.13281 349.05859 C 131.47281 345.75084 132.8828 340.61943 131.9668 337.36133 C 131.5628 335.92243 129.61427 333.9664 128.46094 332.83594 C 124.05961 328.52317 118.9633 325.1819 114.55664 320.86914 C 111.52998 317.9064 104.98216 316.77765 103.04883 312.98242 C 102.38883 311.68728 102.20214 310.22323 101.35547 309.00781 C 97.432823 303.3803 89.808695 299.46477 84.359375 295.24219 C 78.896722 291.00784 77.434607 282.68749 72.251953 278.27148 C 70.109615 276.44566 65.477608 272.54756 62.503906 271.95508 C 63.159562 271.66464 63.881085 271.44993 64.660156 271.33008 C 64.238333 271.30396 63.678051 271.26307 63.111328 271.22656 L 64.421875 270.97852 C 64.849874 270.74981 65.213845 270.3943 65.589844 270.10156 C 65.074428 268.71421 64.174309 268.19367 63.117188 268.18359 z M 56.707031 277.88281 C 58.42101 278.43911 60.277512 278.79939 61.888672 279.44141 C 63.407335 280.04651 64.414644 280.93342 65.806641 281.6875 C 68.862633 283.34202 70.656777 286.86047 73.023438 289.56445 C 73.400769 289.99442 73.776225 291.11245 73.962891 291.69141 C 74.161557 292.31088 74.149948 293.46224 74.363281 293.99023 C 75.277945 296.25508 78.390607 295.56851 75.613281 298.70898 C 78.774606 301.15549 81.884126 300.0169 82.328125 304.08789 C 82.481458 305.49804 81.893834 307.04651 82.3125 308.55859 C 81.663168 309.31659 81.020609 310.24261 80.724609 311.19141 C 83.12327 310.62683 85.46599 310.55845 87.833984 310.24219 C 88.227316 312.69654 85.904483 314.67471 85.396484 316.9082 C 85.020485 318.55489 85.639705 320.58585 86.595703 321.8457 C 86.878369 319.9128 85.631522 318.27716 86.242188 316.38086 C 86.51952 315.5196 88.117597 313.15462 89.433594 313.42383 C 90.133592 313.56759 90.975292 315.72347 91.140625 316.38477 C 91.461958 317.66814 91.028482 318.73927 90.396484 320.23828 C 91.959146 320.79241 93.660145 320.92334 95.244141 321.4082 C 97.058803 321.96363 96.528366 321.5011 97.207031 322.97266 C 97.736358 324.12012 97.222187 326.2869 98.464844 326.875 C 98.220844 327.72841 98.025576 328.68853 98.878906 329.11719 C 98.854906 330.43063 98.124127 332.13971 97.466797 333.27148 C 100.87478 334.43333 106.84421 335.83059 110.4082 335.34961 C 110.74553 337.78828 113.00329 335.30069 113.14062 337.8125 C 114.47396 337.7603 116.02848 337.4418 117.25781 336.98047 C 117.22981 337.27713 117.53607 337.91895 117.44141 338.35938 C 119.45073 338.32407 121.6146 337.89262 123.55859 337.35156 C 123.59989 339.14986 123.12416 340.94905 123.16016 342.76172 C 126.82015 343.76803 125.71358 347.23054 126.01758 350.03906 C 126.29891 352.65416 127.37896 355.01773 127.04297 357.62891 C 126.6363 360.80075 124.19234 363.48523 123.375 366.43359 C 122.60301 369.22382 122.92146 375.86546 119.10547 376.6875 C 118.56814 378.91184 114.8057 381.53035 112.98438 379.47852 C 112.00171 380.73314 109.93853 381.18833 108.89453 379.72461 C 108.17453 381.09946 107.03285 381.11398 106.24219 379.85938 C 105.92219 380.6631 105.38103 381.3302 104.5957 381.64648 C 103.73837 380.30952 102.72019 378.85418 102.49219 377.25977 C 102.59219 377.93021 102.2588 378.21592 102.10547 378.81055 C 100.67214 378.43417 100.12559 376.68412 99.433594 375.48047 C 99.236261 377.33757 96.959112 383.50795 95.925781 378.70117 C 95.46845 379.31803 95.002999 379.24602 94.375 379.44336 C 94.303 379.13755 93.9895 378.74438 93.9375 378.50391 C 91.112174 382.17891 86.743073 381.57522 82.59375 381.47852 C 77.452429 381.35958 72.176591 380.7117 67.085938 379.79688 C 63.20328 379.09899 59.026865 379.97434 55.046875 378.8125 C 54.250877 378.57987 53.281129 377.64772 52.591797 377.48828 C 52.023798 377.35628 51.084107 377.73022 50.412109 377.62305 C 48.640113 375.1308 40.451019 377.93258 41.791016 373.26172 C 40.33502 373.70868 39.071309 374.56795 37.695312 375.20703 C 38.429977 373.33032 40.360437 371.60243 40.148438 369.42383 C 39.825772 369.60026 39.188974 369.6466 38.931641 369.79297 C 39.478306 367.21708 42.288914 365.68075 43.267578 363.26953 C 41.232917 364.50063 37.993692 365.81046 35.707031 366.01172 C 37.60036 363.89977 40.798787 362.67469 41.189453 359.61523 C 39.237458 360.66076 37.338537 361.75741 35.171875 362.39648 C 34.87321 360.91576 36.018005 359.28229 35.888672 357.75977 C 35.747339 357.81337 35.612468 357.87995 35.480469 357.95312 C 35.763135 356.51162 36.391142 354.83246 37.119141 353.47852 C 36.849808 353.56352 36.576161 353.53043 36.298828 353.58789 C 36.453495 352.30583 37.311107 350.46394 38.148438 349.47461 C 36.735109 350.59332 35.427325 351.98445 34.111328 353.20117 C 34.667327 351.35059 35.313564 349.45786 36.101562 347.64258 C 35.645564 348.1758 35.112957 348.38274 34.515625 348.57617 C 35.387623 346.40148 35.760869 344.9964 35.658203 342.79297 C 35.54487 340.37129 35.540076 338.16016 36.941406 336.03906 C 37.276072 335.53199 38.051636 335.00529 38.292969 334.45508 C 38.707635 333.51411 38.211223 332.37701 38.699219 331.47656 C 39.068551 330.79436 40.253204 330.67271 40.533203 329.91602 C 40.757203 329.31092 40.19315 327.98813 40.146484 327.32031 C 39.946484 324.47127 41.055356 324.03229 41.804688 321.80664 C 42.462019 319.85675 40.909808 318.24331 41.119141 316.34961 C 41.325807 314.46637 43.064756 312.19877 41.246094 310.55469 C 43.299422 306.43404 46.100103 303.16582 47.634766 298.80078 C 48.017432 297.71083 47.713651 297.23544 48.320312 296.06445 C 48.80431 295.13264 51.173412 293.1477 49.21875 292.46289 C 49.822749 291.49448 51.928271 288.9786 49.849609 288.60352 C 50.565607 285.54408 53.545484 282.25331 55.382812 279.76367 C 55.807435 279.18833 56.249168 278.54324 56.707031 277.88281 z " /><path
       id="path288"
       style="clip-rule:evenodd;opacity:0.2;fill:#000000;fill-rule:nonzero;stroke-width:1.32005;stroke-miterlimit:10"
       d="M 52.382812 262.70898 C 52.049577 262.70951 51.677979 262.7387 51.257812 262.80078 C 47.584488 263.34445 47.063289 269.31978 47.75 272.67188 C 48.36224 275.66044 49.627742 278.47889 50.566406 281.38281 C 49.21041 283.03342 47.854044 284.68532 46.498047 286.33594 C 45.355384 287.72779 44.288336 289.30261 43.013672 290.57812 C 42.575007 291.01855 41.946786 291.29867 41.689453 291.87109 C 41.353454 292.61864 41.757486 293.65593 41.660156 294.44922 C 41.534823 295.46207 41.060656 296.32759 40.972656 297.35742 C 40.855323 298.73097 40.887658 299.87876 40.347656 301.1543 C 39.244992 303.75503 37.621077 305.7407 37.205078 308.61719 C 36.702413 312.08047 36.233379 315.54778 35.748047 319.01367 C 34.910715 324.9849 34.071706 330.95716 33.234375 336.92969 C 33.082375 338.00919 32.885963 339.093 32.779297 340.17773 C 32.779297 340.18053 27.631759 392.55803 26.900391 400 L 66.671875 400 C 66.694704 399.48495 66.741078 398.67054 66.748047 398.5625 C 66.926713 395.79711 66.442397 392.45763 68.650391 390.35352 C 69.662389 389.38772 70.775725 388.43609 71.150391 387.04688 C 71.571723 385.48122 71.129378 383.91083 71.748047 382.31641 C 72.264045 380.98468 71.783986 380.41138 71.722656 379.01953 C 71.665326 377.71133 72.506553 376.95278 72.949219 375.81055 C 73.442551 374.53633 72.960894 374.03682 72.351562 372.87891 C 71.170232 370.63889 73.955854 369.17698 74.117188 366.9082 C 74.221187 365.43663 72.893279 365.47753 72.113281 364.50781 C 71.457283 363.69362 71.284147 362.25382 71.382812 361.21484 C 71.485478 360.1275 72.088382 359.11623 72.623047 358.13867 C 73.200379 357.08138 73.205078 356.30726 73.205078 355.08008 C 73.206378 353.82937 73.514293 352.77753 74.015625 351.66797 C 74.334291 350.96355 74.540214 350.71444 74.685547 349.93945 C 74.792213 349.36833 74.807401 349.13021 75.052734 348.59961 C 75.344733 347.97099 75.685613 348.16325 75.488281 347.32031 C 75.300281 346.52179 74.568214 346.27354 74.685547 345.36133 C 74.766877 344.7288 75.352943 344.49075 75.599609 343.99805 C 75.862275 343.47399 75.7916 343.03226 75.822266 342.40234 C 75.875596 341.34245 75.998698 340.28126 75.832031 339.21484 C 75.673365 338.20984 75.806557 336.95757 75.587891 335.92773 C 75.458558 335.32133 75.179896 335.1691 75.226562 334.50781 C 75.270562 333.88703 75.717442 333.57116 75.912109 333.16602 C 76.386774 332.1754 76.058777 331.10017 76.412109 330.06641 C 76.510779 329.7802 76.941261 329.58705 77.058594 329.28516 C 77.151924 329.04338 77.008889 328.7483 77.074219 328.50391 C 77.222219 327.9537 77.381256 327.58746 77.419922 326.99805 C 77.570589 324.67961 75.072394 328.62507 76.400391 326.66602 C 76.875056 325.96553 76.660425 325.78521 77.732422 325.76953 C 78.373754 325.75903 79.103616 326.21476 79.738281 326.06055 C 80.184947 325.95077 80.227054 325.46553 80.761719 325.27734 C 81.627051 324.97544 82.851861 325.44332 83.755859 325.27734 C 84.534523 325.13358 84.810258 324.89281 85.544922 324.83008 C 86.351587 324.76218 87.575866 324.89391 88.394531 325.05078 C 89.490528 325.25988 90.222861 325.77539 91.130859 326.48242 C 92.273523 327.37111 91.737826 328.42526 93.035156 329.09961 C 94.108487 329.65635 94.826106 330.34673 96.023438 330.77148 C 98.463429 331.63534 99.930043 334.24232 101.94336 335.79883 C 103.02869 336.63917 103.60973 337.86242 104.90039 338.44922 C 106.18839 339.03733 107.92428 338.98106 108.84961 340.23438 C 109.23761 340.76105 109.20945 341.27363 109.68945 341.75586 C 110.09878 342.16623 110.85669 342.28019 111.16602 342.74414 C 111.55535 343.32832 111.12617 343.56754 111.79688 344.14258 C 112.42354 344.6784 113.23284 344.71451 113.96484 344.98242 C 115.06084 345.38233 114.48573 345.33312 115.03906 346.09766 C 115.50973 346.7498 116.56598 347.34933 117.33398 347.77539 C 118.67797 348.52293 119.32736 349.24004 120.44336 350.17578 C 122.07536 351.54279 126.9499 346.62491 128.61523 347.70703 C 129.67122 348.39315 129.12501 349.65583 128.90234 350.83203 C 128.65034 352.16507 129.04081 352.87394 129.49414 354.04492 C 130.19281 355.85367 128.94845 357.87722 128.42578 359.57227 C 127.78845 361.64239 127.81553 363.5481 127.79688 365.69141 C 127.75557 370.41846 127.40754 375.14904 126.29688 379.75977 C 124.69155 386.42365 122.10669 392.74514 119.4707 399.01172 C 119.35386 399.28892 119.09511 399.67665 118.91602 400 L 144.73633 400 C 144.51051 397.4312 144.46043 394.82356 144.34766 392.24609 C 143.91033 382.28229 141.98961 363.73726 150.65625 356.24219 C 155.18024 352.32934 163.717 351.94595 169.34766 351.24023 C 172.67394 350.82367 176.0125 350.50454 179.35547 350.22266 L 179.35547 333.25977 C 179.17382 333.25756 178.9922 333.25415 178.81055 333.25195 C 177.66122 333.23755 176.51261 333.22404 175.36328 333.21094 C 170.59129 333.15474 165.81886 333.10239 161.04688 333.05664 C 149.13091 332.94294 134.95463 336.85576 124.22266 331.47656 C 122.43678 332.94504 120.19905 329.19108 118.40039 327.51172 C 117.05373 326.16953 118.36293 319.13288 116.93359 317.88086 C 115.39093 316.52953 114.29142 314.75218 113.10742 313.10156 C 110.88476 310.00682 108.62755 306.89234 106.71289 303.60156 C 104.64622 300.04941 101.17458 297.03732 98.28125 294.1543 C 97.238586 293.11532 96.190951 292.07862 95.126953 291.06055 C 94.450955 290.41363 93.396996 290.02679 93.986328 289.11719 C 94.69166 288.03115 97.038487 287.98679 98.146484 287.50977 C 100.14115 286.65113 102.11448 285.45271 103.00781 283.44531 C 103.15181 283.1225 104.00217 281.21166 103.54883 280.83789 C 103.06483 280.44059 101.98509 281.7886 101.62109 282.08789 C 99.84244 283.5503 97.889312 284.16016 95.583984 284.68945 C 93.609323 285.14165 91.454417 285.57609 89.482422 284.89258 C 87.481094 284.19861 86.112319 282.54874 84.597656 281.1582 C 81.961663 278.73521 79.864018 275.73036 76.693359 273.99219 C 73.394701 272.18212 69.771555 270.75268 66.351562 269.14258 C 63.527569 267.81346 60.598576 266.51834 57.78125 265.25195 C 55.20059 264.09241 54.715464 262.70532 52.382812 262.70898 z " /><path
       d="m 44.711906,393.34327 c 1.814662,-0.33978 3.557324,-0.28359 4.239989,1.67806 0.509332,-0.16598 1.035998,-0.3973 1.53733,-0.60901 0.239999,0.78413 0.341332,1.64015 0.590665,2.39293 1.117331,-0.55805 2.230661,-1.10825 3.378658,-1.60226 0.170667,1.90285 2.547994,0.14376 3.409325,-0.19865 -0.274666,0.10847 1.639996,1.23632 2.207995,1.14092 0.347999,0.6613 0.638665,0.13069 1.227997,-0.0549 0.295999,0.81551 1.647995,0.47441 2.135994,0.23655 0.206666,0.72533 1.618663,0.1124 1.986662,-0.0588 -0.028,1.21672 6.394651,0.22348 6.915983,0 0.04933,0.60248 -0.105333,0.84818 0.573331,0.95143 0.759999,0.115 1.551997,-0.33457 2.179995,-0.69789 -0.185333,1.14093 1.40533,0.55544 1.893329,0.16467 -0.34,0.71487 1.246663,0.39077 1.517329,0.11893 -0.199999,0.18035 -0.403999,0.37116 -0.397332,0.64429 0.950664,0.0366 1.877328,-0.60769 2.833326,-0.64952 0.523999,-0.0222 1.138664,0.0431 1.674663,0.0693 0.03067,0.23785 -0.02133,0.47047 -0.044,0.69919 0.393332,0.13591 1.12933,0.13853 1.461329,-0.15422 0.249333,-0.22087 0.170667,-0.58679 0.451999,-0.73578 0.234666,-0.12416 1.073331,0.013 1.003998,0.36201 -0.07467,0.36593 -0.817332,0.10847 -0.655999,0.70834 0.336,0.017 0.683999,9.8e-4 1.021331,0.0183 -0.09733,0.73187 2.169328,0.37247 2.095995,-0.29928 0.431999,-0.0954 3.042659,-0.12938 3.349325,-0.18035 -0.938664,0.15421 -2.819993,0.91614 -3.510658,1.58005 1.858662,-0.12416 3.258658,0.88999 5.067987,-0.0287 1.071998,0.97625 2.973326,-0.46656 3.922657,-0.17774 0.156,0.0471 0.262666,-0.0928 0.403999,-0.132 0.413332,-0.11369 0.741332,-0.29144 1.061331,-0.0183 0.06533,0.0549 0.129333,0.25745 0.225333,0.3411 0.242666,0.2078 0.610665,0.0248 0.874664,-0.064 0.114666,-0.0392 0.427999,-0.26399 0.537332,-0.19604 0.128002,0.0811 0.145332,0.48487 0.277332,0.62863 0.19067,0.2078 0.46933,0.15683 0.68533,0.11238 0.21067,-0.0444 3.28133,-0.49269 3.54133,-0.42474 0.35066,0.0915 0.0587,0.26139 0.256,0.40645 0.57866,0.42344 1.54933,-0.10847 2.30132,-0.051 -0.096,0.47309 0.272,0.40905 0.62134,0.41036 0.59333,0.004 0.66133,-0.017 1.19199,0.30189 0.75467,0.45218 2.01066,0.69004 2.78,0.17121 0.17866,-0.11894 1.71999,0.42474 2.19466,0.28882 0.85333,-0.24309 1.74533,-1.20235 2.05066,-1.99955 0.24533,-0.643 0.336,-1.79829 0.0507,-2.43737 -0.41067,-0.92528 -1.16667,-0.93443 -2.216,-0.93443 -0.45466,0 -0.91333,0.0601 -1.35999,0.0627 -0.22267,9.8e-4 -0.5,0.0275 -0.708,-0.0771 -0.14533,-0.0718 0.004,-0.31496 -0.12933,-0.37769 -0.44934,-0.2091 -1.03067,0.31366 -1.52267,0.13983 -0.47866,-0.16859 -0.204,-0.42474 -0.85066,-0.36069 -0.41867,0.0405 -2.664,1.04551 -2.468,-0.0366 -0.72799,-0.0954 -1.55466,0.0274 -2.29866,-0.009 -0.80666,-0.0392 -3.76532,0.31888 -4.19865,-0.12024 -0.189336,-0.19212 0.003,-0.26661 -0.292002,-0.36201 -0.245333,-0.0784 -0.722665,0.16729 -0.981331,0.18427 -0.150666,0.009 -0.445332,0.0797 -0.582665,-0.004 -0.06667,-0.0405 -0.12,-0.2274 -0.137333,-0.23655 -0.213333,-0.10193 -0.275999,-0.13592 -0.594665,-0.0771 -0.569332,0.10585 -0.575999,-0.28752 -1.053331,-0.40384 -0.801331,-0.19472 -1.546663,0.4339 -2.541327,0.13331 -1.050664,-0.31758 -1.933328,-1.04552 -3.046659,-1.16184 -1.370663,-0.14376 -3.941324,1.55913 -5.099987,2.33543 -1.694663,-2.85034 -2.066662,-1.2128 -4.365323,-1.35395 -0.979997,-0.0588 -1.735995,-0.5319 -2.799993,-0.48747 -1.946661,0.0811 -4.605322,1.53953 -6.447984,1.09649 -0.546665,-0.13069 -1.06933,-0.74754 -1.662662,-0.92659 -1.031998,-0.31104 -2.357328,0.20518 -3.294659,-0.24569 -1.10533,-0.53192 -1.607995,-2.07014 -2.830659,-2.30276 -0.072,-0.0144 -0.146666,-0.0235 -0.224,-0.0274 -0.434665,-0.0235 -1.142663,0.35417 -1.561329,0.49009 -0.570665,-1.11217 -1.070664,-0.44696 -1.977328,-0.31365 -1.182664,0.17119 -1.874662,-0.25223 -3.078659,-0.15814 -1.290664,0.0993 -6.635984,1.17621 -6.67065,-0.87563 -0.0013,0.10978 -0.146667,1.22196 -0.142667,1.22457 -0.443999,-0.30058 -0.461332,-1.384 -0.911997,-1.72902 -0.09067,0.28229 0.02267,0.86908 -0.168,1.05859 -0.327999,0.32933 -5.746652,-1.01939 -6.135985,-1.22196 -0.369332,-0.19212 -1.191997,-0.66782 -1.513329,-0.38553 -0.05867,0.051 -0.122667,0.66782 -0.176,0.78152 -0.122666,0.26269 -0.294666,0.48879 -0.482665,0.70965 0.02933,-0.15945 -0.03067,-0.36463 -0.02,-0.52799 -0.221333,0.0954 -0.302666,0.38292 -0.290666,0.64299 -0.283999,-0.5881 -0.918664,-1.09518 -1.582663,-1.18666 -0.922664,-0.12676 -0.641331,0.49662 -1.15733,0.8338 -0.982664,0.64169 -2.182661,-1.59311 -2.150661,-2.3119 -0.253333,0.25616 -0.995998,1.51601 -1.286664,1.5735 -0.437332,0.0863 -0.769331,-0.69265 -1.16533,-0.84948 -0.461333,-0.18297 -1.030664,-0.132 -1.518663,-0.16075 -1.375997,-0.0797 -2.809327,-0.2666 -4.17599,-0.29535 -1.314663,-0.0274 -2.871993,0.85994 -3.310658,2.11847 0.530665,0.0875 1.206663,-0.37639 1.790662,-0.38553 0.01733,0.3228 -0.189333,0.62339 -0.18,0.93051 0.579999,-0.20256 1.246664,-0.28098 1.853329,-0.39599 0.310666,0.78022 -0.805331,2.24787 -1.002664,3.06207 -0.07333,0.30188 -0.102666,0.61946 -0.166666,0.9292 0.245332,-0.13199 0.525332,-0.27968 0.770664,-0.41821 -0.07067,0.91091 -0.537332,1.77347 -0.655998,2.67522 0.16,-0.12807 0.375999,-0.23263 0.590665,-0.25223 0.088,0.99716 -0.0053,2.78239 0.666665,3.60835 0.635999,-0.57896 0.983998,-1.43236 1.510663,-2.1198 0.346666,0.67568 0.365333,1.56306 0.687998,2.24787 L 31.450639,400 c 0.149333,-0.82597 0.929331,-1.87722 1.774662,-2.02098 0.246666,-0.0419 0.549332,0.15945 0.781331,0.12938 0.917331,-0.12022 1.867996,-1.86755 2.607994,-2.42168 0.250666,0.48225 0.313332,1.33566 0.717331,1.66238 0.586666,-1.36963 2.335995,-2.92353 3.799991,-3.39794 0.262666,0.58941 1.12933,-0.10586 1.46133,-0.27314 0.699998,-0.35287 1.358663,-0.19212 2.118661,-0.33457"
       style="clip-rule:evenodd;fill:#292929;fill-rule:nonzero;stroke-width:1.32005;stroke-miterlimit:10"
       id="path645"
       sodipodi:nodetypes="cccccccccccccccccccccccccccccccccccccccccccccsccccccccccccccsccccccccccccccccscccccccccccccccccccccccccscccccc" /><path
       d="m 117.14866,391.18559 c -0.0453,0.009 -0.0907,0.0157 -0.13867,0.0223 -0.79199,0.0993 -1.70133,-0.051 -2.49733,-0.0758 -4.21865,-0.13068 -8.43731,-0.27445 -12.65596,-0.42996 -10.843977,-0.39991 -21.715949,-0.75278 -32.531922,-1.65584 -13.267967,-1.10956 -36.669242,-3.45675 -44.30789,-6.71746 -1.687995,-0.7201 -2.459993,-2.64647 -1.723995,-4.2997 0.734665,-1.65323 2.69866,-2.41123 4.386655,-1.69112 4.795988,2.0466 20.970615,4.42254 42.211895,6.19731 13.909298,1.16183 47.025217,2.13155 47.358547,2.142 1.10933,0.0314 1.80267,0.36724 2.00933,1.4206 0.33067,1.68982 -0.168,4.71006 -2.11066,5.08776"
       style="clip-rule:evenodd;fill:#000000;fill-rule:nonzero;stroke-width:1.32005;stroke-miterlimit:10"
       id="path646" /><path
       d="m 116.99973,389.75976 c -0.476,0.24439 -1.14667,0.1333 -1.95333,0.0811 -0.96133,-0.0601 -1.932,-0.0601 -2.89466,-0.0902 -2.77599,-0.0902 -5.55065,-0.18427 -8.32665,-0.2836 -11.4613,-0.41298 -22.955938,-0.76715 -34.386576,-1.7238 -13.186634,-1.10172 -36.421243,-3.42407 -43.887891,-6.6129 -0.490665,-0.2091 -0.867997,-0.59203 -1.063997,-1.0795 -0.194666,-0.48747 -0.185333,-1.01938 0.028,-1.50032 0.318666,-0.71487 1.039997,-1.17751 1.835995,-1.17751 0.274666,0 0.541332,0.0549 0.795998,0.16335 4.921321,2.10019 21.25728,4.51534 42.631894,6.30187 8.814644,0.73709 17.670622,1.0612 26.507933,1.41406 5.010654,0.19996 10.021314,0.38031 15.033294,0.54498 1.50267,0.0497 3.00533,0.098 4.50799,0.14506 1.968,0.0601 2.236,0.46527 1.87066,2.59289 -0.11866,0.69266 -0.35866,1.04944 -0.69866,1.22457"
       style="clip-rule:evenodd;fill:#1a1a1a;fill-opacity:1;fill-rule:nonzero;stroke-width:1.32005;stroke-miterlimit:10"
       id="path647" /><path
       d="m 117.14866,396.63797 c -0.0453,0.009 -0.0907,0.0157 -0.13867,0.0223 -0.79199,0.0993 -1.70133,-0.051 -2.49733,-0.0758 -4.21865,-0.13069 -8.43731,-0.27445 -12.65596,-0.42996 -10.843977,-0.39993 -21.715949,-0.7528 -32.531922,-1.65586 -13.267967,-1.10956 -36.669242,-3.45675 -44.30789,-6.71747 -1.687995,-0.72009 -2.459993,-2.64646 -1.723995,-4.2997 0.734665,-1.65322 2.69866,-2.41122 4.386655,-1.69111 4.795988,2.0466 20.970615,4.42253 42.211895,6.19731 13.909298,1.16183 47.025217,2.13155 47.358547,2.142 1.10933,0.0314 1.80267,0.36724 2.00933,1.4206 0.33067,1.68982 -0.168,4.71006 -2.11066,5.08776"
       style="clip-rule:evenodd;fill:#000000;fill-rule:nonzero;stroke-width:1.32005;stroke-miterlimit:10"
       id="path648" /><path
       d="m 116.99973,395.21214 c -0.476,0.24438 -1.14667,0.1333 -1.95333,0.0811 -0.96133,-0.0601 -1.932,-0.0601 -2.89466,-0.0902 -2.77599,-0.0902 -5.55065,-0.18427 -8.32665,-0.2836 -11.4613,-0.41298 -22.955938,-0.76715 -34.386576,-1.7238 -13.186634,-1.10172 -36.421243,-3.42407 -43.887891,-6.61291 -0.490665,-0.2091 -0.867997,-0.59202 -1.063997,-1.07949 -0.194666,-0.48748 -0.185333,-1.01939 0.028,-1.50032 0.318666,-0.71487 1.039997,-1.17752 1.835995,-1.17752 0.274666,0 0.541332,0.0549 0.795998,0.16336 4.921321,2.10018 21.25728,4.51534 42.631894,6.30187 8.814644,0.73709 17.670622,1.06119 26.507933,1.41406 5.010654,0.19995 10.021314,0.38031 15.033294,0.54498 1.50267,0.0497 3.00533,0.098 4.50799,0.14506 1.968,0.0601 2.236,0.46526 1.87066,2.59289 -0.11866,0.69265 -0.35866,1.04944 -0.69866,1.22457"
       style="clip-rule:evenodd;fill:#1a1a1a;fill-opacity:1;fill-rule:nonzero;stroke-width:1.32005;stroke-miterlimit:10"
       id="path649" /><path
       id="path5"
       style="clip-rule:evenodd;display:inline;fill:#242424;fill-rule:nonzero;stroke-width:1.33333;stroke-miterlimit:10"
       d="M 354.06445 282.58984 L 333.0625 287.55469 L 320.79492 400 L 378.24023 400 C 379.75979 388.05083 381.33024 373.91379 381.09766 367.76367 C 380.65899 356.19037 379.83186 315.6784 378.61719 306.48242 C 377.40253 297.28645 354.06445 282.58984 354.06445 282.58984 z " /><path
       id="path6"
       style="clip-rule:evenodd;display:inline;fill:#000000;fill-rule:nonzero;stroke-width:1.33333;stroke-miterlimit:10"
       d="m 348.83008,277.94922 -2.25391,1.10742 -0.0332,0.32227 c 1.47333,0.20399 2.82005,0.53508 3.74805,1.09375 2.69599,1.62266 5.03207,4.17899 7.30273,6.32031 3.13866,2.96133 6.20946,6.00039 9.18945,9.12305 1.36,1.42399 2.70144,2.86498 3.9961,4.34765 0.65466,0.74933 1.2895,1.22777 1.4375,2.25977 0.16133,1.12 -0.0988,2.24976 -0.0508,3.37109 0.0333,0.764 0.007,1.58385 0.0937,2.33985 0.35199,3.024 1.00781,6.13921 1.86914,9.06054 0.6,2.03466 1.20967,4.42556 1.29101,6.54688 0.11866,3.12933 -0.86735,0.79904 -1.52734,3.8457 -0.31232,1.44236 -0.51388,2.75653 -0.52149,4.18164 0.10789,-0.0578 0.20821,-0.13402 0.32032,-0.18164 0.34003,0.52133 0.35642,1.04425 0.35742,1.65625 0.002,0.55341 0.0853,1.46845 0.0898,2.30078 0.14146,0.34129 0.29618,0.67665 0.45899,1.00391 0.48667,0.97867 1.20205,2.14945 1.49804,3.18945 0.17334,0.61066 -0.14437,1.2873 -0.0137,1.91797 0.12667,0.60666 0.80163,1.37889 0.76563,1.96289 -0.0133,0.20667 -0.33761,0.41576 -0.34961,0.62109 -0.0293,0.52666 0.36265,0.7205 0.36133,1.3125 -10e-4,0.79066 -0.70447,1.40097 -0.70313,2.1543 10e-4,0.62666 0.78672,6.73453 0.66406,7.5332 -0.044,0.29066 -0.20361,0.69886 -0.0996,0.99219 0.11333,0.316 0.58788,0.43439 0.67188,0.78906 0.11066,0.47466 -0.36901,1.04272 -0.40235,1.52539 -0.0707,1.03466 0.81851,2.21591 1.33985,3.00391 0.11466,0.172 0.43217,0.28142 0.4375,0.49609 0.009,0.32 -0.42122,0.60271 -0.58789,0.83204 -0.548,0.752 -0.44378,0.98295 -0.53711,1.76562 -0.0533,0.448 -0.23667,0.70357 -0.38867,1.12891 -0.224,0.62133 -0.42038,1.59338 -0.34571,2.24804 0.17333,1.52267 1.52594,2.49461 2.44727,3.61329 -1.25333,0.80266 -0.44061,1.57771 -0.58594,2.62304 -0.0413,0.3 -0.43895,0.73264 -0.62695,0.91797 -1.12533,1.116 -2.56478,1.75942 -4.02344,2.24609 2.14,0.23333 4.29537,0.41174 6.44336,0.56641 -1.14133,0.47599 -1.85021,1.73375 -3.1582,1.87109 -0.056,0.68666 0.0578,1.21876 -0.24219,1.85743 -0.076,0.16266 -0.32477,-0.0503 -0.38477,0.20703 -0.172,0.74933 0.71383,1.28493 0.67383,1.96094 -0.0213,0.35732 -0.25301,0.40425 -0.40234,0.65624 -0.27867,0.472 -0.53061,0.97837 -0.83594,1.45704 -0.548,0.85866 -0.82615,0.89551 -1.77148,0.32617 -1.792,2.10533 -2.96574,-1.46367 -4.17774,-2.84766 -0.252,1.39599 -1.27825,2.80131 -1.76758,4.16797 -0.296,-0.70266 -0.77168,-1.31836 -1.17968,-1.95703 -0.168,0.43467 -1.71644,2.72376 -2.00977,1.25977 -0.83867,0.43333 -1.18975,0.26495 -1.45508,-0.84571 -0.83467,0.38266 -2.44402,-0.77526 -2.55468,-1.66992 -0.10267,-0.836 0.76432,-1.72453 0.73632,-2.64453 -0.49733,-0.0387 -0.58022,-0.45183 -0.60156,-0.78516 -0.11466,-1.82533 1.59592,-3.67609 0.91992,-5.49609 -0.24667,-0.66266 -0.95445,-1.54283 -0.81445,-2.29883 0.0933,-0.49866 0.73166,-1.29039 0.98633,-1.78906 0.532,-1.036 0.77212,-1.23883 -0.0332,-2.02149 1.396,-2.108 -0.52342,-4.01989 -0.96875,-5.94921 0.91466,-0.072 1.43488,0.68904 2.40821,0.51171 0.22534,-1 -2.05261,-2.03914 -2.58594,-2.61914 -0.91734,-0.99866 -1.59233,-2.48523 -2.09766,-3.72656 0.43733,-0.0773 1.12862,0.15385 1.50196,0.36719 -0.316,-0.52534 -0.62946,-0.88769 -0.68946,-1.54102 1.25599,0.87066 2.28759,2.14816 3.90625,2.29883 -0.49067,-0.512 -0.63242,-1.48047 -0.87109,-2.11914 -0.46399,-1.24533 -1.66114,-8.08327 -1.50781,-9.44727 0.89733,0.076 1.52625,6.85935 2.04492,7.38868 1.15466,1.17733 0.24255,-6.28072 0.44922,-6.99805 0.58133,0.12 0.79037,0.48509 1.23437,-0.004 0.284,-0.31333 0.15314,-1.30014 0.23047,-1.74414 0.20934,0.12 0.44949,0.26458 0.66016,0.39258 0.33199,-0.53466 0.50662,-0.73933 0.89062,-1.11133 0.64266,-0.61867 0.59963,-0.77972 0.6543,-1.78906 1.02933,10e-4 0.81732,0.11475 1.58398,-0.64258 0.91733,-0.90799 2.47703,-0.95955 3.04102,-2.43555 0.18667,-0.48667 0.11548,-0.97232 0.27148,-1.45898 0.26667,-0.83467 1.03851,-1.06564 1.33985,-1.82031 0.13175,-0.33099 0.15534,-0.85295 0.15234,-1.4043 -0.43199,-1.04226 -0.74029,-2.14257 -0.77344,-3.26953 -0.005,-0.17267 0.005,-0.33693 0.006,-0.50586 -1.08536,0.58114 -1.98376,1.61098 -3.00976,2.30469 -3.204,2.16666 -7.54046,2.35867 -10.26312,5.10133 -1.10666,1.11467 -0.51707,4.8857 -1.95173,5.46703 -2.424,0.984 -3.15192,8.43312 -4.28125,10.81445 -1.83733,3.87466 -1.64058,8.30243 -1.16992,12.48242 0.30134,2.67866 0.18959,5.34245 0.29492,8.03711 0.12134,3.12133 0.41503,6.18817 0.0977,9.29883 -0.12667,1.24 -0.3799,2.48684 -0.22656,3.71484 0.0707,0.56933 0.17834,1.11074 0.125,1.66407 -0.0493,0.516 -0.21297,0.93184 -0.1543,1.47851 0.11066,1.03733 0.59577,2.00135 0.62109,3.05469 0.0398,1.61252 -0.29818,3.16478 -0.68164,4.71289 h 5.6543 c 0.0285,-0.19774 0.0841,-0.39265 0.26758,-0.61328 0.50267,-0.604 0.68156,-0.55194 0.82422,-1.33594 0.0827,-0.45867 -0.0923,-0.54677 0.37304,-0.91211 1.00667,-0.78933 2.08778,0.16244 3.03711,0.6211 1.13866,0.54933 2.29253,1.0735 3.50586,1.4375 0.89733,0.26934 1.75836,0.34468 2.67969,0.44335 0.48013,0.0507 0.87231,0.18816 1.24414,0.35938 h 11.14844 c 0.0321,-1.48873 -0.11083,-2.5511 -1.01172,-3.94922 0.57733,0.228 1.29742,0.35885 1.99609,0.35352 -0.148,-2.58799 -1.6927,-5.38803 -1.58203,-7.91602 0.60266,-0.21734 1.06992,-0.66956 1.53125,-1.10156 -0.065,-0.0896 -0.1425,-0.22734 -0.23437,-0.38672 -0.0206,-8.7e-4 -0.042,-0.001 -0.0625,-0.002 -0.0973,-0.15067 -0.39611,-0.73641 -0.41211,-0.78711 0.0724,0.076 0.28754,0.46452 0.47461,0.78906 0.83073,0.0352 1.69851,0.0462 2.52344,-0.0137 0.0415,-0.97762 -0.0387,-2.17514 -0.2461,-3.34375 -0.9425,-0.4653 -1.11926,-2.31971 -1.10547,-3.3086 0.52786,0.88 0.88715,2.07851 1.10547,3.3086 0.23933,0.11815 0.51557,0.17042 0.86524,0.0684 -0.672,-2.312 -2.00633,-4.94185 -1.98633,-7.45117 0.28,0.0347 0.49792,-0.0334 0.80859,0.0586 -0.40134,-1.22533 -0.70725,-2.57316 -0.80859,-3.78516 0.33067,0.124 0.88604,0.0437 1.2207,0.20899 -0.10267,-2.36666 0.0171,-5.07155 -1.01758,-7.15821 0.39467,0.27734 0.96391,0.20186 1.36524,0.36719 0.50667,-3.07599 0.33918,-7.16926 -2.13281,-9.41992 0.44398,0.50799 0.78102,0.43142 1.31835,0.60742 0.0947,-1.80933 -0.0758,-3.46846 -0.36914,-5.20312 -0.24933,-1.47867 -2.26294,-5.65377 0.37305,-5.64844 -0.28667,-0.83333 -0.36145,-1.93111 -0.55078,-2.78711 0.14933,0.68266 0.70232,1.50674 1.57031,1.58008 0.028,-1.608 -4.70722,-10.66825 -0.61523,-10.01758 0.0587,-1.124 0.11125,-2.29639 -0.19141,-3.40039 1.136,2.08667 1.25159,-0.40822 1.04492,-1.46289 -0.492,-2.51066 -1.9187,-4.8764 -2.33203,-7.40039 0.53733,0.45867 0.45698,0.19301 1.07031,0.40234 0.28133,-2.04666 -0.49445,-5.53136 -1.53711,-7.30469 0.556,0.20667 1.10377,-0.0637 1.53711,-0.0664 -0.53734,-2.20532 -2.07863,-4.0551 -3.39062,-5.8711 0.62266,0.0867 1.34475,-0.10181 1.96875,-0.0351 -0.432,-2.29866 -2.86652,-5.26111 -4.61719,-6.89844 0.83334,-0.0453 1.70083,-0.0323 2.54883,-0.0176 -1.07333,-1.264 -2.17645,-2.13201 -3.42578,-3.13867 -1.52133,-1.22666 -2.18825,-3.55414 -3.29492,-5.13281 -1.34799,-1.91999 -2.85803,-3.79049 -4.30469,-5.64649 -2.35599,-3.02132 -4.91403,-7.0789 -8.16602,-9.24023 -3.28533,-2.18399 -12.45684,-1.42573 -12.60351,-1.90039 z"
       sodipodi:nodetypes="ccccccccccsccccccccccccccccccccccccccccccccccccccccccccccccccccccccccccccccccccsccsccccccccccccccccccccccccccccccccccccccccccccccsccccccccccccc" /><path
       id="path16615"
       style="display:inline;fill:#000000;fill-opacity:1;fill-rule:nonzero;stroke:none;stroke-width:1.31578"
       d="M 351.78125 351.19531 C 352.10254 356.20264 350.08597 381.16501 348.45898 400 L 356.57031 400 C 357.78153 378.67166 358.58398 353.23438 358.58398 353.23438 L 351.78125 351.19531 z " /><path
       d="m 381.24038,397.46461 c -0.0453,0.009 -0.0907,0.016 -0.13867,0.0227 -0.79199,0.10133 -1.70133,-0.052 -2.49732,-0.0773 -4.21866,-0.13333 -8.43732,-0.28 -12.65597,-0.43866 -2.48933,-0.0947 -4.97732,-0.18534 -7.46532,-0.28133 -1.46666,-0.056 -4.72265,0.51066 -5.99198,-0.13734 -2.71333,-1.38666 -1.112,-5.78265 1.096,-6.73198 1.24666,-0.536 3.21865,0.0867 4.52798,0.16267 2.29733,0.13599 4.60266,0.18933 6.90265,0.27733 5.43999,0.208 10.88131,0.404 16.32396,0.564 1.10933,0.032 1.80267,0.37466 2.00933,1.44933 0.33067,1.72399 -0.168,4.80532 -2.11066,5.19065"
       style="clip-rule:evenodd;display:inline;fill:#000000;fill-rule:nonzero;stroke-width:1.33333;stroke-miterlimit:10"
       id="path8" /><path
       d="m 381.09105,396.00995 c -0.476,0.24933 -1.14666,0.136 -1.95333,0.0827 -0.96133,-0.0613 -1.93199,-0.0613 -2.89466,-0.092 -2.77599,-0.092 -5.55065,-0.188 -8.32664,-0.28933 -2.664,-0.0987 -5.32932,-0.192 -7.99332,-0.292 -1.19199,-0.0453 -4.74665,0.50267 -5.76532,-0.196 -1.51066,-1.03599 -0.70799,-2.61066 0.73334,-3.48132 1.62266,-0.98133 3.72265,-0.40267 5.48665,-0.33067 5.01065,0.204 10.02131,0.388 15.03329,0.556 1.50267,0.0507 3.00533,0.1 4.50799,0.148 1.968,0.0613 2.236,0.47467 1.87066,2.64533 -0.11866,0.70666 -0.35866,1.07066 -0.69866,1.24933"
       style="clip-rule:evenodd;display:inline;fill:#1a1a1a;fill-opacity:1;fill-rule:nonzero;stroke-width:1.33333;stroke-miterlimit:10"
       id="path9" /><path
       id="path10"
       style="clip-rule:evenodd;display:inline;fill:#000000;fill-rule:nonzero;stroke-width:1.33333;stroke-miterlimit:10"
       d="M 354.33594 395.75 C 353.95529 395.76581 353.59877 395.82889 353.28711 395.96289 C 351.9618 396.53271 350.86366 398.34278 350.77734 400 L 383.12695 400 C 383.16751 399.42704 383.13854 398.87354 383.05078 398.41602 C 382.84412 397.34135 382.15035 396.9988 381.04102 396.9668 C 375.59837 396.8068 370.15679 396.61034 364.7168 396.40234 C 362.41681 396.31434 360.11178 396.26099 357.81445 396.125 C 356.83246 396.06802 355.47787 395.70257 354.33594 395.75 z " /><path
       id="path11"
       style="clip-rule:evenodd;display:inline;fill:#1a1a1a;fill-opacity:1;fill-rule:nonzero;stroke-width:1.33333;stroke-miterlimit:10"
       d="M 356.92773 397.31641 C 356.1032 397.32162 355.30171 397.45348 354.5918 397.88281 C 353.70436 398.41889 353.06115 399.22021 353.04883 400 L 381.60938 400 C 381.72544 398.61208 381.27538 398.30745 379.61914 398.25586 C 378.11648 398.20786 376.614 398.15812 375.11133 398.10742 C 370.09935 397.93942 365.08877 397.75478 360.07812 397.55078 C 359.08587 397.51028 357.98785 397.30971 356.92773 397.31641 z " /><path
       d="m 49.720799,260.87222 c -2.336,2.27341 -4.432,12.32599 2.892,24.28994 l 17.611999,-13.32125 c 0,0 -10.026666,-5.00618 -11.595999,-5.00618 -1.569334,0 -4.490667,-0.75002 -4.490667,-0.75002 z"
       style="fill:#000000;fill-opacity:1;fill-rule:nonzero;stroke:none;stroke-width:1.31535"
       id="path16935" /><path
       id="path16939"
       style="fill:#928d82;fill-opacity:1;fill-rule:nonzero;stroke:none;stroke-width:1.31535"
       d="m 118.00195,325.12684 c 0,0 -6.277,24.09856 -6.625,30.54767 -0.34933,6.4478 -0.69754,17.98749 -1.04687,24.4366 -0.34933,6.44911 0.25733,13.68688 0,19.85571 h 137.11133 c -22.51731,-20.06361 -41.0293,-62.87639 -41.0293,-62.87639 l 3.92968,-8.43382 z m 195.85938,2.8721 c 0.13146,2.39309 0.0968,4.29035 -0.21094,5.2747 -1.71066,5.46682 -16.19093,54.43468 -21.9336,66.69318 l 81.32472,0.0332 0.24276,-14.27972 -10.11044,-30.38602 -4.53516,-25.11519 h -43.9414 z"
       sodipodi:nodetypes="ccscccccccccccccc" /><path
       d="m 310.69519,399.96682 h -9.62533 c 8.65067,-20.52558 13.01333,-42.10482 14.17467,-62.75108 2.588,0.007 3.88133,0.009 6.46933,0.0156 -0.62533,20.50612 -2.952,42.09445 -11.01867,62.73551"
       style="opacity:0.199997;fill:#000000;fill-opacity:1;fill-rule:nonzero;stroke:none;stroke-width:1.31535"
       id="path16949" /><path
       d="m 307.72013,399.96682 h -3.67467 c 8.47067,-20.56062 12.204,-42.14375 13.19867,-62.74588 0.988,0.003 1.48133,0.004 2.46933,0.005 -0.78933,20.55024 -3.74533,42.13596 -11.99333,62.7407"
       style="opacity:0.199997;fill:#000000;fill-opacity:1;fill-rule:nonzero;stroke:none;stroke-width:1.31535"
       id="path16965" /><path
       d="m 311.35213,399.96682 h -1.424 c 8.11333,-20.63198 10.60266,-42.219 11.26933,-62.7368 0.38267,9.7e-4 0.57467,9.7e-4 0.95733,0.003 -0.588,20.49703 -2.776,42.08535 -10.80266,62.7342"
       style="opacity:0.350006;fill:#000000;fill-opacity:1;fill-rule:nonzero;stroke:none;stroke-width:1.31535"
       id="path16981" /><path
       d="m 301.49666,399.96682 h -1.424 c 8.71067,-20.5126 13.284,-42.09185 14.50267,-62.75237 0.38266,9.7e-4 0.57333,9.7e-4 0.956,0.003 -1.13734,20.63977 -5.40934,42.2203 -14.03467,62.74977"
       style="opacity:0.199997;fill:#ffffff;fill-opacity:1;fill-rule:nonzero;stroke:none;stroke-width:1.31535"
       id="path16997" /><path
       d="m 335.31026,399.96682 h -9.62533 c 4.30666,-20.52558 4.10133,-42.10482 0.89333,-62.75108 2.588,0.007 3.88267,0.009 6.472,0.0156 3.716,20.50612 5.95733,42.09445 2.26,62.73551"
       style="opacity:0.199997;fill:#000000;fill-opacity:1;fill-rule:nonzero;stroke:none;stroke-width:1.31535"
       id="path17013" /><path
       d="m 332.33519,399.96682 h -3.67466 c 4.11866,-20.56062 3.284,-42.14375 -0.0827,-62.74588 0.98933,0.003 1.48267,0.004 2.472,0.005 3.56,20.55024 5.172,42.13596 1.28533,62.7407"
       style="opacity:0.199997;fill:#000000;fill-opacity:1;fill-rule:nonzero;stroke:none;stroke-width:1.31535"
       id="path17029" /><path
       d="m 335.96719,399.96682 h -1.424 c 3.74667,-20.63198 1.66667,-42.219 -2.00933,-62.7368 0.38267,9.7e-4 0.57467,9.7e-4 0.95733,0.003 3.75067,20.49703 6.132,42.08535 2.476,62.7342"
       style="opacity:0.350006;fill:#000000;fill-opacity:1;fill-rule:nonzero;stroke:none;stroke-width:1.31535"
       id="path17045" /><path
       d="m 326.11186,399.96682 h -1.424 c 4.36933,-20.5126 4.37467,-42.09185 1.22,-62.75237 0.38267,9.7e-4 0.57467,9.7e-4 0.95733,0.003 3.23067,20.63977 3.52667,42.2203 -0.75333,62.74977"
       style="opacity:0.199997;fill:#ffffff;fill-opacity:1;fill-rule:nonzero;stroke:none;stroke-width:1.31535"
       id="path17061" /><path
       d="m 353.43861,400.07435 h -9.62533 c 2.42775,-33.56898 0.32138,-41.08083 -3.91729,-61.72709 2.21067,0.005 3.316,0.009 5.52667,0.0143 4.66266,20.5061 9.71084,28.06192 8.01595,61.71281"
       style="opacity:0.199997;fill:#000000;fill-opacity:1;fill-rule:nonzero;stroke:none;stroke-width:1.31535"
       id="path17077"
       sodipodi:nodetypes="ccccc" /><path
       d="m 350.46354,400.07435 h -3.67466 c 2.55699,-33.51984 -0.81462,-41.11976 -5.18529,-61.7232 0.84533,0.003 1.26667,0.004 2.11067,0.007 4.532,20.54894 8.63884,28.12421 6.74928,61.71671"
       style="opacity:0.199997;fill:#000000;fill-opacity:1;fill-rule:nonzero;stroke:none;stroke-width:1.31535"
       id="path17093"
       sodipodi:nodetypes="ccccc" /><path
       d="m 354.09568,400.07435 h -1.424 c 1.63802,-33.85038 -3.05996,-41.19632 -7.68929,-61.71412 0.328,9.8e-4 0.49067,9.8e-4 0.81733,0.003 4.692,20.49703 10.05571,28.2627 8.29596,61.71152"
       style="opacity:0.350006;fill:#000000;fill-opacity:1;fill-rule:nonzero;stroke:none;stroke-width:1.31535"
       id="path17109"
       sodipodi:nodetypes="ccccc" /><path
       d="m 344.24021,400.07435 h -1.424 c 2.49175,-33.54951 0.70271,-41.06786 -3.49329,-61.72969 0.328,9.7e-4 0.49067,9.7e-4 0.81867,0.003 4.25733,20.63977 6.49837,28.25786 4.09862,61.72709"
       style="opacity:0.199997;fill:#ffffff;fill-opacity:1;fill-rule:nonzero;stroke:none;stroke-width:1.31535"
       id="path17125"
       sodipodi:nodetypes="ccccc" /><path
       d="m 369.78779,399.99989 h -9.62533 c 1.92,-10.43927 -5.58727,-42.13789 -9.25527,-62.78415 1.69333,0.007 2.54,0.009 4.23333,0.0156 3.988,20.50612 15.9446,52.27092 14.64727,62.76858"
       style="opacity:0.199997;fill:#000000;fill-opacity:1;fill-rule:nonzero;stroke:none;stroke-width:1.31535"
       id="path17141"
       sodipodi:nodetypes="ccccc" /><path
       d="m 366.81259,399.99989 h -3.67467 c 1.728,-10.45743 -7.15526,-42.17682 -10.92193,-62.77895 0.64667,0.003 0.96933,0.004 1.616,0.005 3.88933,20.55024 14.47127,52.29428 12.9806,62.77377"
       style="opacity:0.199997;fill:#000000;fill-opacity:1;fill-rule:nonzero;stroke:none;stroke-width:1.31535"
       id="path17157"
       sodipodi:nodetypes="ccccc" /><path
       d="m 370.44472,399.99989 h -1.424 c 1.348,-10.49377 -10.25526,-42.25207 -14.21793,-62.76987 0.25067,9.7e-4 0.376,9.7e-4 0.62667,0.003 4.00933,20.49703 16.26993,52.26572 15.01526,62.76727"
       style="opacity:0.350006;fill:#000000;fill-opacity:1;fill-rule:nonzero;stroke:none;stroke-width:1.31535"
       id="path17173"
       sodipodi:nodetypes="ccccc" /><path
       d="m 360.58926,399.99989 h -1.424 c 1.984,-10.43278 -5.06194,-42.12492 -8.69527,-62.78544 0.24933,9.7e-4 0.37467,9.7e-4 0.62533,0.003 3.68134,20.63977 11.38594,52.34098 9.49394,62.78284"
       style="opacity:0.199997;fill:#ffffff;fill-opacity:1;fill-rule:nonzero;stroke:none;stroke-width:1.31535"
       id="path17189"
       sodipodi:nodetypes="ccccc" /><path
       d="m 230.55199,399.96682 h -13.36933 c -18.736,-21.79205 -23.05466,-44.70393 -28.44666,-66.62443 3.596,0.007 5.39333,0.0104 8.98933,0.0168 6.092,21.77128 13.10533,44.69225 32.82666,66.60757"
       style="opacity:0.199997;fill:#000000;fill-opacity:1;fill-rule:nonzero;stroke:none;stroke-width:1.31535"
       id="path17205" /><path
       d="m 226.41959,399.96682 h -5.10533 c -19.03867,-21.82968 -24.19066,-44.74415 -29.8,-66.61924 1.37334,0.003 2.06,0.004 3.43334,0.007 5.87599,21.81799 12.05599,44.73636 31.47199,66.61275"
       style="opacity:0.199997;fill:#000000;fill-opacity:1;fill-rule:nonzero;stroke:none;stroke-width:1.31535"
       id="path17221" /><path
       d="m 231.46453,399.96682 h -1.97734 c -19.64266,-21.90494 -26.44133,-44.8259 -32.47733,-66.60886 0.532,9.7e-4 0.79734,9.7e-4 1.32934,0.003 6.13866,21.7609 13.33599,44.68316 33.12533,66.60627"
       style="opacity:0.350006;fill:#000000;fill-opacity:1;fill-rule:nonzero;stroke:none;stroke-width:1.31535"
       id="path17237" /><path
       d="m 217.77546,399.96682 h -1.97733 c -18.63467,-21.77907 -22.67467,-44.68966 -27.99333,-66.62574 0.532,9.8e-4 0.79733,9.8e-4 1.32933,0.003 5.424,21.91402 9.86133,44.82591 28.64133,66.62314"
       style="opacity:0.199997;fill:#ffffff;fill-opacity:1;fill-rule:nonzero;stroke:none;stroke-width:1.31535"
       id="path17253" /><path
       d="m 198.4604,399.96682 h -10.65067 c -11.60133,-21.79205 -11.54667,-44.70393 -12.49867,-66.62443 2.864,0.007 4.296,0.0104 7.16,0.0168 1.53067,21.77128 3.62134,44.69225 15.98934,66.60757"
       style="opacity:0.199997;fill:#000000;fill-opacity:1;fill-rule:nonzero;stroke:none;stroke-width:1.31535"
       id="path17269" /><path
       d="m 195.16853,399.96682 h -4.06667 c -11.83733,-21.82968 -12.44533,-44.74415 -13.57733,-66.61924 1.09333,0.003 1.64,0.004 2.73333,0.007 1.35334,21.81799 2.78134,44.73636 14.91067,66.61275"
       style="opacity:0.199997;fill:#000000;fill-opacity:1;fill-rule:nonzero;stroke:none;stroke-width:1.31535"
       id="path17285" /><path
       d="m 199.18733,399.96682 h -1.57467 c -12.30666,-21.90494 -14.22666,-44.8259 -15.712,-66.60886 0.424,9.7e-4 0.63467,9.7e-4 1.05867,0.003 1.57067,21.7609 3.808,44.68316 16.228,66.60627"
       style="opacity:0.350006;fill:#000000;fill-opacity:1;fill-rule:nonzero;stroke:none;stroke-width:1.31535"
       id="path17301" /><path
       d="m 188.2824,399.96682 h -1.57467 c -11.524,-21.77907 -11.24667,-44.68966 -12.13733,-66.62574 0.424,9.8e-4 0.63466,9.8e-4 1.05866,0.003 0.97734,21.91402 1.01867,44.82591 12.65334,66.62314"
       style="opacity:0.199997;fill:#ffffff;fill-opacity:1;fill-rule:nonzero;stroke:none;stroke-width:1.31535"
       id="path17317" /><path
       d="m 173.50613,399.96682 h -12.624 c -6.976,-21.79205 -1.51867,-44.70393 -0.192,-66.62443 2.86267,0.007 4.29467,0.0104 7.15733,0.0168 -0.73066,21.77128 -2.188,44.69225 5.65867,66.60757"
       style="opacity:0.199997;fill:#000000;fill-opacity:1;fill-rule:nonzero;stroke:none;stroke-width:1.31535"
       id="path17333" /><path
       d="m 169.6044,399.96682 h -4.82 c -7.244,-21.82968 -3.024,-44.74415 -1.88134,-66.61924 1.092,0.003 1.63867,0.004 2.732,0.007 -0.91466,21.81799 -3.60666,44.73636 3.96934,66.61275"
       style="opacity:0.199997;fill:#000000;fill-opacity:1;fill-rule:nonzero;stroke:none;stroke-width:1.31535"
       id="path17349" /><path
       d="m 174.36773,399.96682 h -1.86667 c -7.77733,-21.90494 -6.00266,-44.8259 -5.224,-66.60886 0.424,9.7e-4 0.636,9.7e-4 1.05867,0.003 -0.69067,21.7609 -1.87333,44.68316 6.032,66.60627"
       style="opacity:0.350006;fill:#000000;fill-opacity:1;fill-rule:nonzero;stroke:none;stroke-width:1.31535"
       id="path17365" /><path
       d="m 161.44253,399.96682 h -1.86667 c -6.88666,-21.77907 -1.01466,-44.68966 0.37334,-66.62574 0.42266,9.8e-4 0.63466,9.8e-4 1.05866,0.003 -1.3,21.91402 -6.58,44.82591 0.43467,66.62314"
       style="opacity:0.199997;fill:#ffffff;fill-opacity:1;fill-rule:nonzero;stroke:none;stroke-width:1.31535"
       id="path17381" /><path
       d="m 149.2584,399.96682 h -12.624 c -0.29334,-21.79205 4.16933,-44.70393 7.80533,-66.62443 2.86267,0.007 4.29333,0.0104 7.156,0.0168 -3.02667,21.77128 -3.464,44.69225 -2.33733,66.60757"
       style="opacity:0.199997;fill:#000000;fill-opacity:1;fill-rule:nonzero;stroke:none;stroke-width:1.31535"
       id="path17397" /><path
       d="m 145.35666,399.96682 h -4.82 c -0.55066,-21.82968 2.668,-44.74415 6.11467,-66.61924 1.09333,0.003 1.64,0.004 2.732,0.007 -3.21333,21.81799 -4.89467,44.73636 -4.02667,66.61275"
       style="opacity:0.199997;fill:#000000;fill-opacity:1;fill-rule:nonzero;stroke:none;stroke-width:1.31535"
       id="path17413" /><path
       d="m 150.12013,399.96682 h -1.86667 c -1.06,-21.90494 -0.30266,-44.8259 2.772,-66.60886 0.424,9.7e-4 0.63467,9.7e-4 1.05867,0.003 -2.98533,21.7609 -3.148,44.68316 -1.964,66.60627"
       style="opacity:0.350006;fill:#000000;fill-opacity:1;fill-rule:nonzero;stroke:none;stroke-width:1.31535"
       id="path17429" /><path
       d="m 137.1948,399.96682 h -1.86667 c -0.20933,-21.77907 4.67067,-44.68966 8.37067,-66.62574 0.42266,9.8e-4 0.63466,9.8e-4 1.05866,0.003 -3.60933,21.91402 -7.89333,44.82591 -7.56266,66.62314"
       style="opacity:0.199997;fill:#ffffff;fill-opacity:1;fill-rule:nonzero;stroke:none;stroke-width:1.31535"
       id="path17445" /><path
       d="m 126.1684,399.96682 h -12.624 c -0.10667,-21.79205 7.6,-48.05046 13.752,-68.55009 2.86266,0.66697 4.29333,1.00175 7.15466,1.66873 -5.52533,20.49573 -9.22133,44.96604 -8.28266,66.88136"
       style="opacity:0.199997;fill:#000000;fill-opacity:1;fill-rule:nonzero;stroke:none;stroke-width:1.31535"
       id="path17461" /><path
       d="m 122.26666,399.96682 h -4.82 c -0.36266,-21.82968 6.104,-47.53661 12.06134,-68.03494 1.09333,0.25563 1.63866,0.3828 2.732,0.63713 -5.71867,20.49703 -10.65334,45.52142 -9.97334,67.39781"
       style="opacity:0.199997;fill:#000000;fill-opacity:1;fill-rule:nonzero;stroke:none;stroke-width:1.31535"
       id="path17477" /><path
       d="m 127.03,399.96682 h -1.86667 c -0.872,-21.90494 3.144,-46.51799 8.71733,-67.01371 0.424,0.0986 0.63467,0.14792 1.05867,0.24654 -5.48267,20.49573 -8.904,44.84406 -7.90933,66.76717"
       style="opacity:0.350006;fill:#000000;fill-opacity:1;fill-rule:nonzero;stroke:none;stroke-width:1.31535"
       id="path17493" /><path
       d="m 114.1048,399.96682 h -1.86667 c -0.0227,-21.77907 8.1,-48.22305 14.31867,-68.72397 0.42266,0.0999 0.63466,0.14923 1.05733,0.24785 -6.124,20.49832 -13.65333,46.67889 -13.50933,68.47612"
       style="opacity:0.199997;fill:#ffffff;fill-opacity:1;fill-rule:nonzero;stroke:none;stroke-width:1.31535"
       id="path17509" /><path
       d="m 371.32146,367.77262 c -3,-6.42316 -6.70267,-15.7932 -8.124,-22.6861 -1.616,-7.83626 -2.90134,-17.06096 -4.07067,-24.98546 -1.67467,-11.35408 -5.39467,-33.23436 -5.844,-34.22963 -0.94533,-2.08915 -1.79867,-3.04159 -3.48533,-4.62727 1.748,11.32294 3.65066,22.63549 5.88533,33.87927 1.26267,6.3531 1.456,13.01372 2.35333,19.45506 1.07867,7.73504 2.82267,15.31049 4.66134,22.88333 0.72978,3.00545 2.88652,8.06221 4.9112,13.91749 3.85209,11.14004 2.53978,21.46506 1.14334,28.62069 h 5.984 c 0.83712,-8.01299 2.07659,-19.37985 -3.41454,-32.22738"
       style="fill:#000000;fill-opacity:1;fill-rule:nonzero;stroke:none;stroke-width:1.31535"
       id="path17519"
       sodipodi:nodetypes="cccccsccsccc" /><path
       d="m 106.00346,399.96682 h 9.628 c -0.21333,-6.65284 -1.54533,-13.42117 -1.70933,-20.0792 -0.28133,-11.49163 0.072,-23.2804 3.03467,-34.41909 1.56933,-5.89892 3.13866,-17.15957 3.13866,-17.15957 l -6.27733,-6.97205 c 0,0 -0.52267,6.43484 -3.13867,22.52259 -1.73066,10.6417 -3.592,21.28598 -4.45066,32.04835 -0.45067,5.65368 -0.63067,11.33202 -0.40134,17.00127 0.0693,1.7427 -0.044,4.4508 0.176,7.0577"
       style="fill:#000000;fill-opacity:1;fill-rule:nonzero;stroke:none;stroke-width:1.31535"
       id="path17551" /><path
       d="m 208.50319,335.30942 h -4.708 c 13.348,36.00087 32.316,56.29418 41.624,64.65727 h 5.14267 c -9.46,-8.36309 -28.71067,-28.6564 -42.05867,-64.65727"
       style="fill:#000000;fill-opacity:1;fill-rule:nonzero;stroke:none;stroke-width:1.31535"
       id="path17559" /><path
       d="m 313.29786,336.29769 -3.056,-2.54981 v 0.56706 c 0,0 -11.412,49.6037 -19.91467,65.65253 h 3.448 c 3.30267,-7.05251 11.76934,-27.27314 19.52267,-63.66978"
       style="fill:#000000;fill-opacity:1;fill-rule:nonzero;stroke:none;stroke-width:1.31535"
       id="path17563" /><path
       d="m 107.03665,311.17465 c 3.13867,5.09052 20.54289,7.29177 34.14422,8.3104 13.60134,1.01863 62.96366,2.2484 62.96366,2.2484 l 4.184,-3.05456 8.37066,-12.89694 c 0,0 7.324,-6.11044 29.29467,-6.78909 21.97067,-0.67866 42.19867,-0.33868 55.8,1.69727 13.60133,2.03595 18.13467,22.74059 24.06267,23.07927 5.92933,0.33998 27.90649,2.69428 31.04516,3.03426 3.13867,0.33868 9.416,-4.75184 8.37067,-9.84366 -1.04667,-5.09053 -11.85734,-52.94634 -11.85734,-52.94634 l -19.25183,-4.01785 1.44133,0.63583 -33.20133,-11.10624 -55.712,16.03716 -67.74399,-43.5296 -21.448,3.3102 -37.66534,16.54582 -39.495995,14.25423 -7.445994,3.15287 c -1.115999,-0.45935 -0.644673,-1.46987 -1.620673,-1.82542 v 0.11549 c 0,0 10.434021,9.33837 13.64872,12.12901 3.2147,2.79062 11.2834,23.88856 22.116732,41.45949 z"
       style="fill:#928d82;fill-opacity:1;fill-rule:nonzero;stroke:none;stroke-width:1.31535"
       id="path17607"
       sodipodi:nodetypes="cscccssccccccccccccccccc" /><path
       d="m 282.75613,251.13678 c 31.25333,7.02266 62.93127,13.38548 72.2046,16.4154 1.788,0.58393 2.83867,1.69987 2.34533,2.49271 -0.412,0.66438 -1.77333,0.89146 -3.25466,0.60468 -0.28934,-0.0558 -0.58134,-0.12976 -0.87334,-0.22578 -8.62666,-2.81711 -41.2806,-9.40053 -70.88993,-16.05337 z"
       style="opacity:0.199997;fill:#000000;fill-opacity:1;fill-rule:nonzero;stroke:none;stroke-width:1.31535"
       id="path17617"
       sodipodi:nodetypes="ccccccc" /><path
       d="m 282.74253,254.16825 c 31.10933,6.98892 62.66193,13.32579 71.67793,16.27008 0.22267,0.0727 0.344,0.16739 0.40667,0.23357 0.0627,0.0674 0.124,0.16739 0.064,0.26471 -0.0947,0.15182 -0.404,0.16998 -0.65067,0.12197 -0.0587,-0.0117 -0.11733,-0.026 -0.176,-0.0455 -8.88933,-2.90405 -41.67127,-9.51471 -71.41527,-16.1987 z"
       style="opacity:0.199997;fill:#ffffff;fill-opacity:1;fill-rule:nonzero;stroke:none;stroke-width:1.31535"
       id="path17633"
       sodipodi:nodetypes="cscccccc" /><path
       d="m 282.04559,250.60722 c 31.10934,6.98893 62.66194,13.3258 71.67794,16.27007 0.22267,0.0727 0.344,0.1674 0.40667,0.23357 0.0627,0.0675 0.124,0.1674 0.064,0.26472 -0.0947,0.15182 -0.404,0.16999 -0.65067,0.12197 -0.0587,-0.0117 -0.11733,-0.026 -0.176,-0.0454 -8.88933,-2.90405 -41.67127,-9.51473 -71.41527,-16.19871 z"
       style="opacity:0.350006;fill:#000000;fill-opacity:1;fill-rule:nonzero;stroke:none;stroke-width:1.31535"
       id="path17649"
       sodipodi:nodetypes="cscccccc" /><path
       d="m 282.61533,252.10687 c 31.14533,6.998 62.7286,13.34007 71.80993,16.30641 0.34667,0.11289 0.63467,0.27898 0.812,0.46714 0.17734,0.18815 0.22267,0.3763 0.12667,0.53072 -0.16133,0.25822 -0.696,0.35814 -1.3,0.24265 -0.11733,-0.0234 -0.236,-0.0545 -0.352,-0.0922 -8.82533,-2.88199 -41.5726,-9.48617 -71.28327,-16.16107 z"
       style="opacity:0.199997;fill:#000000;fill-opacity:1;fill-rule:nonzero;stroke:none;stroke-width:1.31535"
       id="path17665"
       sodipodi:nodetypes="ccsccccc" /><path
       d="m 182.844,238.63989 c -49.404,8.92366 -92.070669,16.63016 -106.698669,20.55413 -2.819999,0.75651 -4.450666,2.24486 -3.643999,3.32447 0.676,0.90314 2.846666,1.23403 5.187999,0.87459 0.457334,-0.0701 0.92,-0.16609 1.381334,-0.28936 C 92.678664,259.45354 136.888,251.46806 183.692,243.01413 Z"
       style="opacity:0.199997;fill:#000000;fill-opacity:1;fill-rule:nonzero;stroke:none;stroke-width:1.31535"
       id="path17681" /><path
       d="m 182.96386,242.73307 c -49.176,8.88214 -91.645329,16.5523 -105.867995,20.36727 -0.349334,0.0947 -0.538667,0.2206 -0.636,0.30883 -0.09733,0.0895 -0.192,0.2232 -0.09333,0.35685 0.154667,0.20632 0.645334,0.23616 1.036,0.17517 0.09467,-0.0143 0.185334,-0.0338 0.28,-0.0584 14.021333,-3.76176 58.431995,-11.78229 105.450665,-20.27514 z"
       style="opacity:0.199997;fill:#ffffff;fill-opacity:1;fill-rule:nonzero;stroke:none;stroke-width:1.31535"
       id="path17697" /><path
       d="m 183.9552,237.93762 c -49.176,8.88214 -91.645336,16.55231 -105.868002,20.36728 -0.349333,0.0947 -0.538667,0.22059 -0.636,0.30883 -0.09733,0.0895 -0.193333,0.22319 -0.09333,0.35684 0.154666,0.20632 0.645333,0.23617 1.036,0.17518 0.09467,-0.0143 0.185333,-0.0338 0.28,-0.0584 14.021333,-3.76176 58.431992,-11.78228 105.450662,-20.27513 z"
       style="opacity:0.350006;fill:#000000;fill-opacity:1;fill-rule:nonzero;stroke:none;stroke-width:1.31535"
       id="path17713" /><path
       d="m 183.09893,239.95216 c -49.23333,8.89252 -91.750666,16.57177 -106.075999,20.41399 -0.545333,0.14663 -0.997333,0.36592 -1.273333,0.61766 -0.274667,0.25044 -0.34,0.50347 -0.184,0.71239 0.264,0.35295 1.117333,0.49828 2.073333,0.35035 0.185334,-0.0273 0.373334,-0.0674 0.554667,-0.11678 13.921333,-3.73322 58.280002,-11.74595 105.244002,-20.22842 z"
       style="opacity:0.199997;fill:#000000;fill-opacity:1;fill-rule:nonzero;stroke:none;stroke-width:1.31535"
       id="path17729" /><path
       d="m 161.86946,228.17947 c -20.088,5.79513 -37.43333,11.41377 -43.36,13.74558 -1.144,0.45027 -1.78666,1.43126 -1.43866,2.19296 0.292,0.63583 1.18533,0.91611 2.14,0.72796 0.18533,-0.0377 0.37333,-0.0922 0.56,-0.1648 5.51466,-2.17089 23.492,-6.83191 42.52266,-12.32209 z"
       style="opacity:0.199997;fill:#000000;fill-opacity:1;fill-rule:nonzero;stroke:none;stroke-width:1.31535"
       id="path17745" /><path
       d="m 161.9904,232.05466 c -19.99467,5.76787 -37.264,10.3082 -43.028,12.57512 -0.14134,0.0558 -0.21734,0.13756 -0.256,0.19595 -0.0387,0.0597 -0.0747,0.14922 -0.032,0.24265 0.0667,0.14533 0.268,0.17777 0.42666,0.14663 0.0387,-0.008 0.076,-0.0182 0.11334,-0.0338 5.68266,-2.23578 23.744,-6.77481 42.86133,-12.29095 z"
       style="opacity:0.199997;fill:#ffffff;fill-opacity:1;fill-rule:nonzero;stroke:none;stroke-width:1.31535"
       id="path17761" /><path
       d="m 162.31253,227.57505 c -19.99467,5.76787 -37.25867,11.52017 -43.02267,13.7884 -0.14133,0.0558 -0.21733,0.13754 -0.256,0.19593 -0.0387,0.0584 -0.0747,0.14923 -0.032,0.24265 0.0667,0.14534 0.268,0.17778 0.42667,0.14664 0.0387,-0.008 0.076,-0.0195 0.11467,-0.0338 5.68133,-2.23578 23.73733,-7.98808 42.85466,-13.50422 z"
       style="opacity:0.350006;fill:#000000;fill-opacity:1;fill-rule:nonzero;stroke:none;stroke-width:1.31535"
       id="path17777" /><path
       d="m 161.99693,229.43349 c -20.01733,5.77565 -37.304,11.03357 -43.10933,13.31866 -0.22134,0.0869 -0.40267,0.22578 -0.512,0.39188 -0.108,0.16609 -0.13067,0.33737 -0.064,0.4853 0.11466,0.24784 0.46666,0.36852 0.856,0.29066 0.0747,-0.0143 0.152,-0.0363 0.22533,-0.0662 5.64133,-2.21891 23.67867,-7.23937 42.77333,-12.74901 z"
       style="opacity:0.199997;fill:#000000;fill-opacity:1;fill-rule:nonzero;stroke:none;stroke-width:1.31535"
       id="path17793" /><path
       d="m 361.59926,315.59058 c -0.248,0 -0.50133,-0.0363 -0.752,-0.1116 -7.43066,-2.24746 -36.17527,-4.28016 -61.64593,-6.11368 -13.94,-1.00435 -30.14254,-1.27446 -43.72654,-1.60275 -51.91867,-1.25998 -123.48935,-3.39288 -150.20401,-2.31846 -1.08534,0.0441 -2.08568,0.0405 -2.19501,0.0405 -1.59467,0 -2.88667,-1.45202 -2.88667,-3.24401 0,-1.78552 1.28267,-3.23365 2.86934,-3.24402 0.152,-0.003 1.08434,8.8e-4 2.00567,-0.0354 26.816,-1.07962 98.60934,1.19991 150.84268,2.46639 13.532,0.32699 29.7492,0.46084 43.66387,1.46259 26.88533,1.93604 54.79127,3.90775 62.77794,6.32261 1.54,0.46584 2.452,2.24616 2.03733,3.97587 -0.34667,1.44813 -1.51333,2.40188 -2.78667,2.40188"
       style="opacity:0.199997;fill:#000000;fill-opacity:1;fill-rule:nonzero;stroke:none;stroke-width:1.31535"
       id="path17809"
       sodipodi:nodetypes="cccccssccccccc" /><path
       d="m 362.36387,316.61453 c -0.0507,0 -0.10133,-0.008 -0.152,-0.0234 -7.656,-2.31493 -37.10948,-4.65324 -62.69614,-6.49584 -5.22134,-0.37631 -10.552,-0.90054 -15.708,-1.40661 -8.564,-0.84344 -19.57054,0.006 -28.11721,-0.20133 -52.864,-1.28203 -88.97141,-2.78895 -115.04474,-2.78895 -11.88,0 -28.7486,0.20968 -35.29127,0.47309 -1.008,0.0402 -1.604,0.0636 -1.74533,0.0649 -0.30934,0 -0.568,-0.29066 -0.568,-0.6488 0,-0.35555 0.25733,-0.64621 0.57333,-0.64881 0.14267,-0.003 1.69867,-0.0649 1.69867,-0.0649 6.14666,-0.24654 22.35527,-0.44844 33.3326,-0.44844 31.55067,0 75.92074,1.91178 117.37807,2.91613 8.56267,0.20761 19.69721,-0.67067 28.38521,0.14553 4.976,0.46713 10.12133,0.94985 15.18,1.31317 26.76133,1.92695 55.15748,4.19 62.92281,6.53867 0.192,0.0571 0.296,0.19594 0.35067,0.30234 0.0547,0.1064 0.10933,0.27769 0.0573,0.49179 -0.0787,0.33089 -0.344,0.48142 -0.556,0.48142"
       style="opacity:0.199997;fill:#ffffff;fill-opacity:1;fill-rule:nonzero;stroke:none;stroke-width:1.31535"
       id="path17825"
       sodipodi:nodetypes="cccccsccsccsccccscc" /><path
       d="m 361.13206,309.64091 c -0.0507,0 -0.10133,-0.008 -0.152,-0.0234 -7.656,-2.31493 -36.51127,-4.35412 -62.09793,-6.19673 -5.22134,-0.37631 -10.552,-0.90054 -15.708,-1.40661 -8.564,-0.84345 -19.57054,0.006 -28.11721,-0.20133 -52.864,-1.28204 -88.97141,-2.78896 -115.04474,-2.78896 -11.88,0 -28.7486,0.20968 -35.29127,0.4731 -1.008,0.0402 -2.51798,0.0367 -2.65931,0.038 -0.30934,0 -0.568,-0.29067 -0.568,-0.64881 0,-0.35554 0.25733,-0.6462 0.57333,-0.6488 0.14267,-0.003 2.61265,-0.038 2.61265,-0.038 6.14666,-0.24655 22.35527,-0.44844 33.3326,-0.44844 31.55067,0 75.92074,1.91177 117.37807,2.91612 8.56267,0.20762 19.69721,-0.67066 28.38521,0.14553 4.976,0.46714 10.12133,0.94985 15.18,1.31319 26.76133,1.92695 54.55927,3.89087 62.3246,6.23955 0.192,0.0571 0.296,0.19594 0.35067,0.30234 0.0547,0.10641 0.10933,0.27769 0.0573,0.4918 -0.0787,0.33089 -0.344,0.48141 -0.556,0.48141"
       style="opacity:0.350006;fill:#000000;fill-opacity:1;fill-rule:nonzero;stroke:none;stroke-width:1.31535"
       id="path17841"
       sodipodi:nodetypes="cccccsccsccsccccscc" /><path
       d="m 361.59926,313.64416 c -0.10133,0 -0.20266,-0.0156 -0.30266,-0.0455 -7.6,-2.29935 -36.42727,-4.33596 -61.98461,-6.17596 -5.228,-0.37631 -10.56266,-0.90055 -15.72,-1.40791 -8.556,-0.84215 -19.5532,0.008 -28.07987,-0.19873 -52.86,-1.28204 -88.96341,-2.78896 -115.03274,-2.78896 -11.87333,0 -28.73527,0.20968 -35.26994,0.47179 -1.02933,0.0416 -1.63066,0.0649 -1.76133,0.0662 -0.632,0 -1.15067,-0.58132 -1.15067,-1.2976 0,-0.7111 0.51467,-1.29372 1.148,-1.29761 0.13467,-9.7e-4 1.68,-0.0636 1.68,-0.0636 6.15467,-0.24784 22.36994,-0.44974 33.35394,-0.44974 31.556,0 75.93007,1.91177 117.39007,2.91612 8.58,0.20763 19.72388,-0.66806 28.42121,0.14684 4.97333,0.46714 10.116,0.94985 15.16933,1.31317 26.792,1.92955 54.61661,3.89349 62.43794,6.26033 0.29733,0.0908 0.54667,0.30493 0.7,0.60468 0.15467,0.30104 0.19467,0.6501 0.11467,0.98488 -0.136,0.56576 -0.59334,0.96153 -1.11334,0.96153"
       style="opacity:0.199997;fill:#000000;fill-opacity:1;fill-rule:nonzero;stroke:none;stroke-width:1.31535"
       id="path17857"
       sodipodi:nodetypes="ccsccsccsccsccccccc" /><path
       d="m 359.46166,294.83571 c -0.26533,0 -0.53466,-0.0363 -0.80266,-0.11159 -7.93067,-2.24747 -38.29927,-4.28017 -65.48861,-6.11369 -14.88,-1.00435 -30.64495,-7.41698 -45.25561,-6.87717 -55.84533,2.06449 -127.53379,4.08439 -156.249782,6.85479 -1.168,0.11289 -1.837333,0.17647 -1.956,0.18296 -1.714666,0.10251 -2.967934,-1.86435 -2.9866,-3.64206 -0.01733,-1.77124 1.348,-2.30101 3.053333,-2.41261 0.164,-0.0129 0.761333,-0.0713 1.752,-0.1661 28.825329,-2.78206 100.603049,-5.05108 156.787049,-7.12856 14.55466,-0.5385 30.39695,5.71192 45.25028,6.71368 28.69867,1.93603 58.17127,3.90775 66.6966,6.3226 1.644,0.46584 2.61734,2.24616 2.17467,3.97587 -0.37067,1.44813 -1.616,2.40188 -2.97467,2.40188"
       style="opacity:0.199997;fill:#000000;fill-opacity:1;fill-rule:nonzero;stroke:none;stroke-width:1.31535"
       id="path17873"
       sodipodi:nodetypes="ccccccccccccsc" /><path
       d="m 359.63926,295.56055 c -0.0547,0 -0.108,-0.008 -0.16266,-0.0234 -8.172,-2.31493 -38.65661,-4.35412 -65.96994,-6.19673 -5.57333,-0.3763 -11.264,-0.90054 -16.76667,-1.40661 -9.14266,-0.84344 -19.3911,-5.77941 -28.58495,-5.49392 -57.16646,1.77515 -101.1616,3.96684 -129.21465,5.36719 -12.84159,0.64103 -20.676689,1.04617 -28.014155,1.2686 -1.085333,0.10511 -1.725333,0.16609 -1.877333,0.17648 -0.332,0.0195 -0.613333,-0.25174 -0.617333,-0.60729 -0.004,-0.35295 0.269333,-0.65788 0.610666,-0.67995 0.152,-0.0117 1.825334,-0.17257 1.825334,-0.17257 6.834765,-0.333 16.549181,-0.88615 28.646011,-1.49954 33.94544,-1.72128 84.17759,-4.27063 128.9868,-5.01169 9.66618,-0.15986 19.60628,4.63492 28.87961,5.45111 5.312,0.46713 10.80534,0.94985 16.20534,1.31318 28.56666,1.92695 57.92327,3.89088 66.2126,6.23956 0.204,0.0571 0.316,0.19593 0.37333,0.30233 0.0587,0.10641 0.116,0.2777 0.0613,0.4918 -0.084,0.33089 -0.36667,0.48141 -0.59334,0.48141"
       style="opacity:0.199997;fill:#ffffff;fill-opacity:1;fill-rule:nonzero;stroke:none;stroke-width:1.31535"
       id="path17889"
       sodipodi:nodetypes="ccccssccsccsscccccc" /><path
       d="m 358.963,288.88604 c -0.0547,0 -0.108,-0.008 -0.16267,-0.0234 -8.172,-2.31494 -38.6566,-4.35413 -65.96994,-6.19674 -5.57333,-0.37631 -11.264,-0.90054 -16.76666,-1.40661 -9.14267,-0.84344 -19.39159,-5.05617 -28.58359,-4.7162 -56.86266,1.72196 -97.83053,3.47556 -126.32406,4.6829 -12.776,0.7591 -22.882983,1.04616 -29.916316,1.72479 -1.084,0.1051 -1.725333,0.16609 -1.876,0.17647 -0.333333,0.0195 -0.614667,-0.25173 -0.617333,-0.60728 -0.004,-0.35295 0.269333,-0.65789 0.609333,-0.67994 0.153333,-0.0117 1.825333,-0.17259 1.825333,-0.17259 6.608,-0.63712 16.006983,-0.87486 27.810983,-1.57557 34.30816,-1.70975 84.01329,-4.3747 128.83473,-4.70624 9.20933,-0.34127 19.60358,3.85588 28.87692,4.67208 5.312,0.46714 10.80533,0.94985 16.20533,1.31318 28.56667,1.92695 57.92327,3.89088 66.2126,6.23955 0.204,0.0571 0.316,0.19594 0.37334,0.30235 0.0587,0.1064 0.116,0.27768 0.0613,0.49179 -0.084,0.33089 -0.36667,0.48141 -0.59333,0.48141"
       style="opacity:0.350006;fill:#000000;fill-opacity:1;fill-rule:nonzero;stroke:none;stroke-width:1.31535"
       id="path17905"
       sodipodi:nodetypes="ccccccccccccccccccc" /><path
       d="m 359.46166,292.88929 c -0.108,0 -0.21733,-0.0156 -0.32266,-0.0455 -8.11334,-2.29936 -38.56861,-4.33596 -65.84994,-6.17597 -5.58,-0.37631 -11.27467,-0.90054 -16.78133,-1.40791 -9.132,-0.84215 -19.616,-5.85961 -28.788,-5.51964 -56.85867,2.10213 -97.9811,3.89268 -126.08264,5.1391 -12.77791,0.56675 -23.109458,1.33368 -30.438923,1.70691 -1.105334,0.10641 -1.752,0.16869 -1.893334,0.17777 -0.68,0.0402 -1.244,-0.50347 -1.250666,-1.21327 -0.008,-0.70589 0.54,-1.31707 1.22,-1.36118 0.146666,-0.0104 1.808,-0.16999 1.808,-0.16999 6.994831,-0.41033 16.556423,-1.03742 28.376263,-1.56288 33.85258,-1.50493 84.02396,-3.51449 128.61996,-5.16374 9.22934,-0.34128 19.892,4.65672 29.176,5.47162 5.30934,0.46714 10.79867,0.94985 16.192,1.31318 28.6,1.92954 57.98461,3.89348 66.33394,6.26032 0.31867,0.0908 0.584,0.30493 0.748,0.60468 0.164,0.30105 0.208,0.6501 0.12267,0.98488 -0.14534,0.56577 -0.63467,0.96153 -1.18934,0.96153"
       style="opacity:0.199997;fill:#000000;fill-opacity:1;fill-rule:nonzero;stroke:none;stroke-width:1.31535"
       id="path17921"
       sodipodi:nodetypes="ccsccscccccsscccccc" /><path
       d="m 355.799,280.50596 c -0.27467,-0.0234 -0.55467,-0.074 -0.832,-0.15702 -8.224,-2.43691 -39.53794,-6.31222 -67.72861,-10.09864 -15.428,-2.07358 -43.192,-13.839 -57.30933,-12.58422 -53.95866,4.79597 -122.60933,11.13219 -148.769329,14.88488 -1.064,0.15311 -1.676,0.23876 -1.786666,0.25043 -1.622667,0.17649 -4.288,-0.76299 -5.956,-2.09952 -1.661333,-1.33135 -1.704,-2.5524 -0.1,-2.73537 0.152,-0.0182 0.694666,-0.0973 1.597333,-0.22708 26.260002,-3.76565 95.273332,-10.01753 149.558662,-14.84464 14.06267,-1.2496 47.77333,10.28355 63.17333,12.35324 29.75734,3.99663 60.14194,7.74867 68.98194,10.36724 1.704,0.50477 2.71333,1.97366 2.25467,3.28165 -0.384,1.09389 -1.67467,1.72712 -3.084,1.60905"
       style="opacity:0.199997;fill:#000000;fill-opacity:1;fill-rule:nonzero;stroke:none;stroke-width:1.31535"
       id="path17937"
       sodipodi:nodetypes="cccscccccccscc" /><path
       d="m 355.98313,281.08507 c -0.0573,-0.005 -0.112,-0.0156 -0.168,-0.0324 -8.47333,-2.50957 -39.90994,-6.40175 -68.22994,-10.20634 -5.77733,-0.77597 -11.67733,2.0632 -17.384,1.67002 -9.48,-0.65659 -30.49466,-15.12234 -39.37733,-14.33339 -54.94133,4.88421 -94.536,8.65765 -121.044,11.53705 -12.079996,1.31318 -21.451996,2.44469 -27.858662,3.3634 -0.988,0.14144 -1.573333,0.22448 -1.714667,0.24136 -0.314666,0.035 -0.848,-0.15442 -1.181333,-0.42043 -0.330667,-0.26471 -0.34,-0.51126 -0.02,-0.54759 0.141333,-0.0168 1.665333,-0.23487 1.665333,-0.23487 6.02,-0.86421 14.730667,-1.91657 25.890669,-3.12854 32.07866,-3.48537 80.44933,-7.87129 123.53599,-11.70054 8.89867,-0.79154 31.15334,13.65474 40.76934,14.28927 5.50666,0.36204 11.20266,-2.48751 16.80133,-1.7349 29.61867,3.97717 59.8846,7.71234 68.47927,10.25955 0.212,0.0623 0.328,0.18036 0.388,0.26731 0.06,0.0883 0.12,0.22708 0.064,0.38798 -0.088,0.25044 -0.38133,0.34257 -0.616,0.3231"
       style="opacity:0.199997;fill:#ffffff;fill-opacity:1;fill-rule:nonzero;stroke:none;stroke-width:1.31535"
       id="path17953"
       sodipodi:nodetypes="ccccccccccccccccccc" /><path
       d="m 355.28193,275.83508 c -0.0573,-0.005 -0.112,-0.0156 -0.168,-0.0324 -8.47333,-2.50958 -39.90994,-6.40176 -68.22994,-10.20634 -5.77733,-0.77598 -11.67733,2.12288 -17.384,1.72841 -9.48,-0.6553 -36.65066,-14.83687 -45.532,-14.04792 -54.94133,4.88421 -94.53599,8.65765 -121.04533,11.53705 -12.078662,1.31318 -21.450662,2.44469 -27.858662,3.3634 -0.988,0.14144 -1.572,0.22448 -1.713333,0.24136 -0.314667,0.0338 -0.848,-0.15442 -1.181333,-0.42043 -0.330667,-0.26602 -0.341334,-0.51126 -0.02133,-0.54759 0.142667,-0.0168 1.666667,-0.23617 1.666667,-0.23617 6.02,-0.86291 14.730666,-1.91527 25.890666,-3.12724 32.078665,-3.48537 80.447995,-7.87129 123.534655,-11.70054 8.89867,-0.79154 37.30934,13.36927 46.92534,14.0038 5.50666,0.36333 11.20266,-2.54591 16.80133,-1.7933 29.61867,3.97718 59.8846,7.71234 68.47927,10.25955 0.212,0.0623 0.328,0.18037 0.388,0.26731 0.06,0.0883 0.12,0.22708 0.064,0.38798 -0.088,0.25044 -0.38133,0.34257 -0.616,0.32311"
       style="opacity:0.350006;fill:#000000;fill-opacity:1;fill-rule:nonzero;stroke:none;stroke-width:1.31535"
       id="path17969"
       sodipodi:nodetypes="cccscccccccccsccccc" /><path
       d="m 355.799,278.99204 c -0.112,-0.009 -0.22534,-0.0312 -0.33467,-0.0636 -8.412,-2.4927 -39.8166,-6.37969 -68.1046,-10.17909 -5.78534,-0.77726 -11.68934,2.08137 -17.39867,1.6869 -9.468,-0.654 -32.94267,-15.01334 -41.804,-14.22439 -54.93866,4.8829 -94.528,8.65634 -121.03333,11.53574 -12.070666,1.31188 -21.437332,2.4421 -27.837332,3.35951 -1.008,0.14533 -1.597333,0.22838 -1.729333,0.24395 -0.644,0.0701 -1.712,-0.30624 -2.378667,-0.83955 -0.661333,-0.53072 -0.68,-1.02252 -0.04,-1.09518 0.136,-0.0156 1.649333,-0.23357 1.649333,-0.23357 6.025334,-0.86421 14.744,-1.91658 25.910669,-3.12984 32.084,-3.48667 80.45866,-7.8726 123.54799,-11.70314 8.91734,-0.79283 34.86267,13.51201 44.488,14.14654 5.50534,0.36333 11.19734,-2.4992 16.78934,-1.74788 29.65333,3.98366 59.9486,7.72142 68.60593,10.2868 0.32934,0.0986 0.60534,0.28807 0.77467,0.53591 0.17067,0.24784 0.216,0.52423 0.128,0.77597 -0.15067,0.42821 -0.65733,0.69292 -1.23333,0.64491"
       style="opacity:0.199997;fill:#000000;fill-opacity:1;fill-rule:nonzero;stroke:none;stroke-width:1.31535"
       id="path17985"
       sodipodi:nodetypes="ccccccccccccccccccc" /><path
       d="m 157.49893,223.56077 c 0,0 -60.158666,28.25543 -91.285332,34.87324 l 4.970667,3.05458 c 0,0 53.619995,-16.03586 83.437335,-31.56435 8.35733,-4.35088 2.87733,-6.36347 2.87733,-6.36347"
       style="fill:#000000;fill-opacity:1;fill-rule:nonzero;stroke:none;stroke-width:1.31535"
       id="path17995" /><path
       d="m 374.37388,300.35055 c -2.276,-13.55613 -10.28,-36.72753 -10.53867,-37.6657 l -15.44933,-6.51789 -3.96667,3.40103 -0.0867,0.12846 8.08533,3.02083 c 0,0 10.81067,47.85583 11.85733,52.94765 1.04667,5.09051 -5.232,10.18104 -8.37066,9.84236 -3.13867,-0.33997 -24.11882,-1.39817 -30.04816,-1.73814 -5.928,-0.33868 -10.46133,-21.04204 -24.06266,-23.07928 -13.60134,-2.03595 -33.82934,-2.37592 -55.8,-1.69727 -21.97067,0.67995 -29.29467,6.78909 -29.29467,6.78909 l -8.37067,12.89693 -4.184,3.05458 c 0,0 -50.12265,-1.68599 -63.72398,-2.70461 -13.60133,-1.01732 -30.09316,-4.43641 -33.23183,-9.52694 -10.833326,-17.57091 -18.445831,-36.2345 -21.584498,-38.95039 -3.138666,-2.7146 -16.145684,-12.61913 -16.145684,-12.61913 -1.812666,-0.71823 -4.355333,-2.41592 -4.842,-2.5353 l -13.205293,6.54903 c -0.016,0.0649 0.0013,0.12717 0.01467,0.14663 l 2.713333,3.99275 c 19.573333,1.52728 34.126846,36.67923 43.958846,53.60265 2.547996,4.38462 14.607396,16.86726 41.352726,16.86726 0.69334,0 1.396,-0.009 2.11067,-0.0299 4.696,-0.12976 19.58309,-1.41246 24.15242,-1.41246 12.61067,0 22.63867,0.49438 30.69733,0.89275 5.67733,0.28028 10.58,0.52164 14.904,0.52164 1.66933,0 3.16667,-0.0338 4.58133,-0.10771 5.37734,-0.27509 7.15467,-4.16272 9.44134,-10.53268 1.79466,-5.00099 3.82933,-10.66895 9.80133,-11.83161 2.74933,-0.5359 7.06133,-0.79543 13.184,-0.79543 8.11333,0 17.97867,0.45417 26.68267,0.85513 6.76266,0.31142 12.604,0.58132 16.32533,0.58132 7.38667,0 11.116,6.45431 14.40533,12.14822 2.60667,4.51179 5.06934,8.77313 8.68134,8.8951 9.93066,0.33738 37.57482,2.18583 38.31348,2.27666 l 0.12534,0.0156 0.124,0.0311 c 1.94933,0.4905 3.80933,0.73835 5.532,0.73835 4.05733,0 7.512,-1.38585 10.268,-4.11991 5.24,-5.19823 6.99733,-14.37232 6.90133,-19.2708 -0.108,-5.39026 -0.56,-10.59886 -1.308,-15.06004"
       style="fill:#928d82;fill-opacity:1;fill-rule:nonzero;stroke:none;stroke-width:1.31535"
       id="path17999"
       sodipodi:nodetypes="cccccccccccccccccccccccscscscccscscccccsscc" /><path
       d="m 314.48706,333.79489 c -2.488,-0.0844 -4.68267,-3.88244 -7.00667,-7.90373 -3.38266,-5.85481 -7.59333,-13.14219 -16.14933,-13.14219 -3.67333,0 -9.492,-0.26731 -16.23067,-0.57744 -8.72666,-0.40225 -18.616,-0.85901 -26.77733,-0.85901 -6.256,0 -10.69733,0.2725 -13.576,0.83436 -7.09067,1.38066 -9.424,7.87648 -11.29733,13.09807 -2.248,6.26096 -3.652,9.02616 -7.65867,9.23119 -1.37867,0.0713 -2.84267,0.1051 -4.476,0.1051 -4.27333,0 -9.15333,-0.24006 -14.80266,-0.51904 -19.84909,0.10821 -39.72235,0.14615 -59.5704,0.67047 -5.31439,0.13923 -29.84644,-0.20144 -39.99067,-17.67479 C 87.098,300.09809 75.492398,266.78756 55.287065,264.24554 l -1.044,-1.53506 10.588,-5.23716 c 3.824,1.00955 5.615197,5.76658 16.605863,17.46063 5.747996,6.11693 11.348254,14.06318 15.924128,22.42601 2.424569,4.43113 4.262274,9.22099 6.730274,12.62072 3.384,4.66491 14.11726,10.86327 20.6466,11.29018 6.46212,0.26617 69.90676,1.97956 79.40646,1.97956 5.352,0 7.26667,-4.23929 8.80667,-7.64421 2.60667,-5.77047 6.176,-13.67161 27.54,-14.07906 8.82533,-0.16739 16.86933,-0.25303 23.908,-0.25303 20.77067,0 34.32533,0.72146 41.43867,2.20463 3.57733,0.74613 6.40266,6.06373 8.89466,10.75588 2.72134,5.12296 5.292,9.96175 9.90934,10.95961 6.268,1.356 29.76458,1.85774 31.19925,1.95377 0.256,0.0285 0.51733,0.0428 0.78267,0.0428 2.26266,0 4.56933,-1.0316 6.32933,-2.82879 2.00267,-2.04503 3.02667,-4.78558 2.88267,-7.71428 -0.18667,-3.72674 -0.66267,-8.28783 -1.41734,-13.55613 -1.64666,-11.48254 -6.75333,-37.91614 -11.204,-41.66752 l -0.43866,-0.36852 -4.54267,-2.0061 0.82267,-0.7046 12.89733,3.9019 c 1.492,4.37165 8.708,26.17148 10.74667,38.3171 0.73333,4.37294 1.176,9.48422 1.28133,14.78496 0.0907,4.56888 -1.6734,12.75721 -6.4814,17.52722 -2.39867,2.37981 -4.81602,3.23427 -8.36535,3.23431 -15.3175,4.9e-4 -26.91087,-1.71614 -44.64717,-2.31547 z m 11.02133,-12.4013 c -6.27733,-1.35729 -9.068,-19.68472 -18.832,-21.72198 -9.76533,-2.03595 -30.69066,-2.71459 -66.26266,-2.03595 -35.572,0.67866 -27.9,21.72198 -36.26934,21.72198 -8.37066,0 -60.2398,-0.73904 -79.13846,-1.97177 -5.444,-0.35425 -15.06527,-6.08936 -17.64793,-9.6513 -2.392,-3.29593 -4.22577,-8.10969 -6.57694,-12.39235 -5.263419,-9.58728 -10.380136,-16.63737 -16.392132,-23.03588 -13.134666,-13.97395 -18.64853,-18.64016 -19.479196,-18.8322 -0.362667,-0.0817 -0.742667,-0.0377 -1.082667,0.12976 l -13.38,6.6178 c -0.489333,0.24266 -0.852,0.71628 -0.986666,1.28983 -0.134667,0.57225 -0.02533,1.18082 0.296,1.65446 l 2.769333,4.07319 c 0.309333,0.45546 0.785333,0.73834 1.3,0.77467 18.632,1.28463 30.174932,34.66264 39.637598,50.95153 1.18667,2.04113 11.88533,20.53466 43.592,19.65747 33.50533,-0.92649 65.69306,0.41952 78.9464,-0.25913 13.252,-0.67865 9.06666,-20.36337 19.52933,-22.40063 10.46267,-2.03594 43.94267,0.67866 55.8,0.67866 11.85733,0 13.06267,20.70594 23.01733,21.04332 9.95334,0.33738 38.42992,2.16268 38.42992,2.16268 3.96971,0.0486 8.89462,0.38166 11.76598,-0.57654 9.92972,-3.31364 13.56837,-17.31573 13.43536,-23.99757 -0.1,-5.04641 -0.5,-10.37569 -1.33334,-15.33645 -2.30933,-13.76374 -10.35733,-37.03246 -10.69866,-38.01605 -0.17867,-0.51644 -0.54934,-0.9239 -1.01734,-1.12114 l -15.68666,-6.6191 c -0.57467,-0.24265 -1.22534,-0.13625 -1.71334,0.28158 l -4.15199,3.56454 c -0.49867,0.42821 -0.752,1.11724 -0.664,1.80756 0.088,0.69034 0.50533,1.27685 1.09199,1.53508 l 6.78934,2.99748 c 2.176,1.83352 7.12533,20.1882 9.86,39.26305 0.81733,5.69521 1.22533,10.00975 1.384,13.20576 0.20666,4.17961 -3.256,6.75277 -5.61734,6.43614 0,0 -24.43658,-0.5212 -30.71392,-1.8785"
       style="fill:#000000;fill-opacity:1;fill-rule:nonzero;stroke:none;stroke-width:1.31535"
       id="path18003"
       sodipodi:nodetypes="ccscscccscccccccsccsccsccccssccccccccssccccssccsccccccccccscsscscccccccscccccc" /><path
       d="m 274.41666,233.23379 c 1.02933,0 7.35067,4.64285 9.416,5.34615 5.04667,1.71804 16.104,6.42836 22.48,9.23639 0.64,2.603 -2.14133,16.9273 -13.504,36.64318 -10.84933,18.82441 -18.548,27.99202 -20.596,28.54091 -6.572,-0.11678 -73.25466,-35.60639 -93.732,-54.20632 -19.372,-17.59558 -27.25733,-29.54916 -26.48,-33.59121 0.0893,-0.46324 0.296,-0.82917 1.00934,-1.10816 7.63333,-2.97152 25.04003,-8.57548 31.96003,-13.69713 6.83066,-5.05679 9.54222,-10.62656 11.37288,-9.60793 1.832,1.01862 30.59242,32.68937 63.16442,34.73571 8.10933,0.50865 14.90933,-2.29159 14.90933,-2.29159"
       style="fill:#3d3d3d;fill-opacity:1;fill-rule:nonzero;stroke:none;stroke-width:1.31535"
       id="path18007"
       sodipodi:nodetypes="cccccccccccc" /><path
       d="m 153.9408,225.83003 c -0.0787,3.15837 6.67733,14.07775 25.904,31.54098 20.75466,18.85166 84.49333,52.20541 92.03199,53.63667 1.792,-1.22365 8.69734,-9.29867 19.18667,-27.50023 10.37467,-17.99913 13.21067,-30.74944 13.34667,-34.39053 -7.44667,-3.26219 -18.61526,-8.21529 -22.92059,-9.68159 -1.156,-0.39317 -2.896,-1.47409 -5.42,-3.07533 -1.048,-0.66568 -2.53733,-1.61034 -3.324,-2.02427 -2.07733,0.73834 -6.39541,3.56077 -13.36608,3.13125 -28.55867,-1.79329 -55.23642,-25.12778 -62.32708,-33.32088 -0.49867,-0.57613 -1.008,-1.16395 -1.38134,-1.57919 -0.66,0.52553 -1.69866,1.59866 -2.57199,2.4992 -1.836,1.8958 -4.35067,4.49232 -7.576,6.87992 -5.652,4.18478 -15.34092,7.95003 -25.12625,11.50288 -2.58267,0.93688 -4.82267,1.74918 -6.456,2.38112 m 118.27199,89.11719 c -0.012,0 -0.024,0 -0.036,-9.7e-4 -8.14933,-0.14533 -75.58266,-37.03636 -95.06133,-54.72926 -17.792,-16.16171 -28.16933,-29.71524 -27.08,-35.37152 0.23467,-1.21196 0.98534,-2.07098 2.232,-2.55629 1.66934,-0.6501 4.01334,-1.50133 6.732,-2.48752 9.564,-3.4724 18.92092,-7.11825 24.10092,-10.95269 2.964,-2.19426 5.25067,-4.5559 7.088,-6.45171 2.77333,-2.86512 4.776,-4.93481 7.148,-3.61774 0.56,0.31273 1.00133,0.80841 2.776,2.85864 6.81866,7.88038 32.66841,30.25852 59.52441,31.94411 7.54534,0.47623 12.25542,-3.09622 12.31808,-3.12217 0.248,-0.10122 0.512,-0.15312 0.78,-0.15312 1.008,0 2.00934,0.56446 5.52,2.79245 1.59067,1.01084 3.79208,2.34218 4.55734,2.6614 6.01985,2.51111 18.41792,7.68068 24.32592,10.28368 0.56266,0.24784 0.976,0.73575 1.12,1.31967 0.83066,3.37898 -2.42267,18.47016 -13.70667,38.04849 -8.012,13.90258 -17.86267,28.40726 -21.80667,29.46481 -0.17333,0.0467 -0.352,0.0701 -0.532,0.0701"
       style="fill:#000000;fill-opacity:1;fill-rule:nonzero;stroke:none;stroke-width:1.31535"
       id="path18011"
       sodipodi:nodetypes="cccccccccscccccccccccccccccscsscccc" /><path
       d="m 306.06546,248.7615 44.13439,13.46963 c 0,0 6.58666,6.52827 -0.20267,3.53209 -6.78933,-2.99748 -44.45439,-14.20148 -44.45439,-14.20148 z"
       style="fill:#000000;fill-opacity:1;fill-rule:nonzero;stroke:none;stroke-width:1.31535"
       id="path18015"
       sodipodi:nodetypes="ccccc" /><path
       d="m 85.688983,297.25992 c 3.117228,0.80702 5.946087,-0.92692 7.5539,-2.81749 1.921022,-2.25986 3.629526,-6.40726 2.641901,-8.45503 -4.473101,-9.26874 -21.305288,-25.02546 -26.904907,-27.72975 -0.09063,-0.0436 -1.702545,-0.99037 -2.251125,-1.13237 -4.799115,-1.24244 -12.843305,1.55601 -17.918275,2.61866 5.833475,2.64687 18.816641,8.82021 29.141371,29.61925 2.196106,4.42352 4.871607,7.15491 7.735844,7.89643 z"
       style="fill:#928d82;fill-opacity:1;fill-rule:nonzero;stroke:none;stroke-width:1.31535"
       id="path18019"
       sodipodi:nodetypes="sccccccss" /><path
       d="m 300.18733,333.93967 c 2.66133,6.25837 5.87866,8.49674 5.87866,8.49674 -0.624,5.01267 -8.83333,36.96889 -18.49066,57.5308 h 4.98933 l 14.808,-44.21473 1.56933,-11.02449 2.09334,-4.07319 c 20.92533,3.81886 48.91199,1.78161 48.91199,1.78161 l 9.13462,-11.31104 c -4.44667,4.32752 -21.95195,2.91163 -37.90661,1.893 -15.95467,-1.01862 -20.14,-4.58186 -21.70934,-8.90938 -1.56933,-4.32753 -9.94,-12.98258 -14.124,-13.74557 -4.18533,-0.7643 -12.81733,-1.27296 -18.83333,-1.01863 -6.016,0.25433 -4.296,3.65537 -5.56667,3.56323 -0.512,-0.0377 -1.536,-0.54369 -2.57466,-1.1315 0.95066,0.43339 1.81466,0.81489 2.57466,1.1315 0,0 1.32667,-3.65795 -4.64133,-6.6697 -5.968,-3.01176 -57.916,-31.83814 -73.168,-42.81072 -15.25333,-10.97129 -15.25333,-13.33813 -12.6,-16.13447 2.652,-2.79635 31.38933,-21.08226 31.38933,-21.08226 0,0 7.07334,1.93604 14.368,3.44126 0,0 -9.23476,-7.04582 -13.484,-9.89557 -6.31299,-4.23379 -19.07018,-10.34671 -9.96663,-12.27798 l -5.83867,-6.68917 c 0,0 -5.55823,5.03819 -10.64357,8.91155 -5.084,3.87207 -30.80446,12.42244 -33.01512,13.71227 -2.20934,1.29112 -0.44134,5.16319 -0.44134,5.16319 l -38.02133,16.13576 -40.466665,13.97525 -9.797333,-3.29073 c 0,0 -13.36,5.4785 -13.204,6.54903 0.03467,0.24525 0.189333,1.07961 0.401333,2.19555 0.357334,1.87764 -0.694666,4.38462 -0.104,6.69567 0.541334,2.1138 2.361334,4.65322 2.313334,6.82802 -0.06667,3.05716 -2.310667,3.73322 -4.530667,5.42011 -2.66,2.01778 -4.394666,4.3431 -6.192,7.1083 -3.526666,5.4279 -4.109333,11.75893 -6.536,17.56443 -1.501333,3.59308 -1.205808,8.35079 -2.745808,11.93349 -3.356,7.80901 0.116565,14.59224 -2.000768,22.83335 -1.941333,7.55727 -5.198666,57.44256 -5.198666,57.44256 h 30.279909 c 3.054666,0 -1.486667,-11.47216 -1.933334,-13.26546 -1.528,-6.12211 -1.466666,-12.63092 -0.998666,-18.87632 1.178666,-15.74907 6.777333,-31.01026 9.109333,-46.6127 0.906666,-6.06244 0.54,-13.92724 5.96,-18.12111 8.957333,-6.93183 12.313333,6.91366 15.638666,12.5323 3.009333,5.08793 7.504,8.25409 12.177333,11.89778 4.261329,3.32447 10.158669,6.22333 13.703999,10.40942 3.72533,4.39889 1.152,12.62833 0.62133,17.7435 -0.872,8.40072 0,29.27277 0,29.27277 l 0.34934,14.79793 37.532,0.22189 c -9,-41.34442 12.41066,-57.9071 18.744,-59.17227 6.33333,-1.26387 40.50133,0.36982 40.50133,0.36982 l 1.83066,2.79894 c 0,0 5.75467,1.27296 9.15467,-0.50866 3.4,-1.78162 11.24667,-23.16362 12.29333,-23.92791 1.04667,-0.76299 23.016,2.29158 38.44934,2.29158 7.55733,0 10.944,-2.48232 19.31066,-1.69208 5.07734,0.48011 7.984,7.55467 10.64534,13.81304"
       style="display:inline;opacity:0.199997;fill:#000000;fill-opacity:1;fill-rule:nonzero;stroke:none;stroke-width:1.31535"
       id="path18029"
       sodipodi:nodetypes="cccccccccsscscccsccccsccccccccccccccccccsccccccccccccccscscc" /><path
       d="m 86.304421,294.75178 c 2.989512,0.74661 5.682499,-0.93478 7.204164,-2.75755 1.820831,-2.17873 2.374714,-4.84774 1.412412,-6.80003 -4.356502,-8.83191 -19.360009,-23.55016 -24.740389,-26.09224 -0.08614,-0.0403 -0.347112,-0.15091 -0.873609,-0.28239 -4.602634,-1.14948 -13.752158,-0.72214 -18.599875,0.33685 5.605026,2.4845 18.077866,8.28515 28.12872,28.10339 2.138478,4.21479 4.719679,6.80543 7.467288,7.49163 z M 71.331628,257.85535 c 5.754456,2.71709 20.68997,17.26186 25.251379,26.51143 4.562703,9.24989 -11.864276,23.50272 -21.366116,4.76582 -11.058574,-21.80327 -24.777134,-24.59142 -27.86386,-26.59412 -8.554902,-5.55241 17.579295,-8.04664 23.333436,-5.32829"
       style="fill:#000000;fill-opacity:1;fill-rule:nonzero;stroke:none;stroke-width:1.31535"
       id="path18055"
       sodipodi:nodetypes="sccccccssccccc" /><g
       id="g1"
       transform="rotate(3.4960488,92.383552,289.56824)"><path
         d="m 52.181259,266.03753 c 0,0 8.722666,-7.15372 12.741333,-7.43919 0,0 2.352,-2.67178 -1.96,-4.48325 -4.313333,-1.81275 6.173333,-7.15371 8.036,-5.05547 0,0 -5.010667,-5.43828 -11.074667,-4.674 -10.585333,1.33524 -19.307999,7.82199 -29.598666,16.21492 0,0 9.105333,-1.68039 11.565333,0 0,0 -5.194666,2.00351 -0.882666,3.14801 4.313333,1.14449 8.526666,4.29249 11.173333,2.28898"
         style="fill:#928d82;fill-opacity:1;fill-rule:nonzero;stroke:none;stroke-width:1.31535"
         id="path18059" /><path
         d="m 63.316459,252.64452 z m -21.773333,9.73336 c 1.393333,0.3815 2.726666,0.93299 4.017333,1.4663 2.441333,1.00954 4.552,1.88153 5.68,1.05496 0.990666,-0.80971 8.278666,-6.68009 12.753333,-7.63643 0.05733,-0.15312 0.09333,-0.33349 0.048,-0.50478 -0.109334,-0.4269 -0.72,-0.90183 -1.674667,-1.30279 -1.801333,-0.75781 -1.953333,-2.06061 -1.936,-2.58744 0.088,-2.46415 3.833333,-4.39889 6.032,-5.1541 0.114667,-0.0389 0.232,-0.0779 0.350667,-0.11549 -1.776,-1.09778 -4.154667,-2.08525 -6.697333,-1.76474 -8.850667,1.11724 -16.409333,6.03128 -24.793333,12.6413 2.813333,-0.20632 5.884,-0.12457 7.429333,0.93039 0.450667,0.30883 0.690667,0.83306 0.626667,1.36508 -0.06267,0.53203 -0.422667,0.98749 -0.934667,1.18732 -0.297333,0.11549 -0.617333,0.266 -0.901333,0.42042 m 10.637333,3.65926 h 0.01333 z m -2.042667,2.1138 c -1.832,0 -3.812,-0.81749 -5.750666,-1.61941 -1.241334,-0.51256 -2.525334,-1.04328 -3.773334,-1.37417 -1.801333,-0.47882 -2.748,-1.3041 -2.814666,-2.45378 -0.02933,-0.51645 0.141333,-0.97969 0.430666,-1.39104 -2.153333,-0.0246 -5.094666,0.25693 -7.625333,0.72277 -0.672,0.12457 -1.342666,-0.20892 -1.634666,-0.80971 -0.292,-0.60079 -0.130667,-1.31707 0.392,-1.74398 10.447999,-8.52011 19.317333,-15.14959 30.369332,-16.54322 6.408,-0.80711 11.584,4.31066 12.306667,5.06327 0.032,0.0338 0.064,0.0688 0.096,0.10381 0.538666,0.60598 0.473333,1.52079 -0.144,2.05022 -0.617334,0.52813 -1.56,0.47363 -2.108,-0.12197 -0.0013,-9.8e-4 -0.008,-0.008 -0.02,-0.0195 -0.198667,-0.0571 -1.484,0.0182 -3.284,0.79543 -1.625334,0.70331 -2.633334,1.51691 -3.002667,1.97237 1.918667,0.81101 3.06,1.93085 3.393333,3.32966 0.437334,1.84131 -0.768,3.27776 -0.908,3.43608 -0.26,0.29585 -0.630666,0.47752 -1.029333,0.50606 -2.570666,0.18297 -8.653333,4.4521 -11.882666,7.10052 -0.016,0.0117 -0.03067,0.0234 -0.04667,0.035 -0.916,0.69421 -1.916,0.96152 -2.964,0.96152"
         style="fill:#000000;fill-opacity:1;fill-rule:nonzero;stroke:none;stroke-width:1.31535"
         id="path18063" /><path
         d="m 32.285793,260.31456 c 0,0 5.715999,-4.92832 13.230666,-4.19647 2.94,0.28547 0.588,2.86123 0.490667,3.52819 -0.09867,0.66828 1.568,2.48103 3.233333,2.67178 1.666666,0.19075 9.310666,-7.24974 14.505333,-6.58147 5.194666,0.66697 1.176,2.86123 1.176,2.86123 0,0 -7.546667,3.52949 -9.604,5.24623 -2.058667,1.71673 -3.430667,4.38721 -7.841333,2.38371 -4.409333,-2.00222 -9.212,-3.43347 -8.428,-3.9097 0.784,-0.47752 1.764,-2.48103 -0.09867,-2.48103 -1.861333,0 -5.095999,0 -6.663999,0.47753"
         style="opacity:0.199997;fill:#000000;fill-opacity:1;fill-rule:nonzero;stroke:none;stroke-width:1.31535"
         id="path18073" /></g><path
       d="m 345.78605,260.23414 c 3.80266,1.45333 10.136,6.46598 12.48666,18.65442 2.34934,12.18715 15.732,8.81856 14.2,2.15793 -1.532,-6.66062 -5.108,-19.06058 -7.356,-21.5455 -2.24666,-2.48622 -13.996,-4.67399 -13.996,-4.67399 z"
       style="fill:#928d82;fill-opacity:1;fill-rule:nonzero;stroke:none;stroke-width:1.31535"
       id="path18083"
       sodipodi:nodetypes="ccsccc" /><path
       d="m 348.76391,259.30051 c 3.992,2.53423 9.428,7.652 11.61467,18.9957 0.58133,3.01954 1.93467,5.15281 3.912,6.17013 1.92267,0.99007 4.37733,0.84734 6.10667,-0.35685 1.31866,-0.9187 1.89333,-2.23707 1.57466,-3.61643 -1.77866,-7.72985 -5.24933,-18.73229 -7.05866,-20.7332 -1.27467,-1.4092 -7.86,-3.19471 -12.53734,-4.11861 z m 16.604,28.80562 c -0.83066,-0.1609 -1.648,-0.43989 -2.424,-0.83955 -2.90533,-1.49614 -4.92666,-4.5079 -5.69333,-8.48377 -2.296,-11.90686 -8.37333,-16.08387 -11.66533,-17.34125 l -1.85333,-0.70849 7.21466,-7.31203 0.712,0.13106 c 2.036,0.3802 12.32,2.40707 14.74667,5.09052 2.58133,2.85604 6.25866,16.19936 7.652,22.26049 0.544,2.36294 -0.32,4.53903 -2.37067,5.9677 -1.788,1.24571 -4.09467,1.66743 -6.31867,1.23532"
       style="fill:#000000;fill-opacity:1;fill-rule:nonzero;stroke:none;stroke-width:1.31535"
       id="path18087"
       sodipodi:nodetypes="ccccccccccsccccccsc" /><path
       d="m 360.68921,260.6498 c 0,0 -9.16666,-3.99533 -12.76,-3.51911 0,0 -2.628,-1.64796 0.78534,-3.79291 3.41333,-2.14365 -6.92667,-4.43782 -8.124,-2.49919 0,0 3.268,-5.05808 8.76133,-5.52003 9.58667,-0.80842 18.61467,2.67307 29.42,7.35225 0,0 -8.35867,0.28547 -10.17067,2.0061 0,0 4.98667,0.64102 1.43467,2.27082 -3.55333,1.6298 -6.6,4.78558 -9.34667,3.70207"
       style="fill:#928d82;fill-opacity:1;fill-rule:nonzero;stroke:none;stroke-width:1.31535"
       id="path18091"
       sodipodi:nodetypes="ccccccccc" /><path
       d="m 368.69658,255.71794 c -0.49067,-0.0636 -0.90267,-0.35295 -1.07067,-0.75261 -0.16666,-0.39837 -0.0653,-0.84345 0.26667,-1.15877 1.13733,-1.0809 3.82133,-1.6765 6.33867,-2.0061 -8.756,-3.6359 -16.43067,-6.10914 -24.448,-5.43309 -2.30267,0.19334 -4.18667,1.36638 -5.51867,2.52125 0.112,0.008 0.22133,0.0168 0.33067,0.0273 2.092,0.19983 5.79066,1.04068 6.38266,2.92352 0.12667,0.40225 0.26534,1.43126 -1.16,2.32791 -0.75733,0.47492 -1.19466,0.94725 -1.20133,1.29502 -0.003,0.13883 0.0667,0.27119 0.148,0.37889 4.13467,-0.0389 11.77333,3.21808 12.812,3.66965 1.16533,0.43988 2.84,-0.59821 4.776,-1.79849 1.02267,-0.63453 2.08,-1.29113 3.22533,-1.82704 -0.28266,-0.0688 -0.59466,-0.12976 -0.88133,-0.16739 m -7.72,4.83489 0.012,-0.003 z m -0.55733,1.04458 c -0.016,-0.007 -0.032,-0.0129 -0.048,-0.0195 -3.39334,-1.47928 -9.636,-3.71247 -11.93467,-3.40623 -0.356,0.0467 -0.72133,-0.0285 -1.01067,-0.21151 -0.156,-0.0973 -1.51733,-0.99397 -1.51733,-2.48881 0,-1.13411 0.76933,-2.19556 2.288,-3.15319 -0.42133,-0.28678 -1.47733,-0.73835 -3.05467,-0.99786 -1.74399,-0.28548 -2.89066,-0.12068 -3.05333,-0.0428 -0.008,0.0117 -0.012,0.0182 -0.0147,0.0195 -0.35734,0.55278 -1.17334,0.7578 -1.82667,0.45935 -0.65467,-0.30105 -0.90267,-0.99397 -0.556,-1.55454 0.02,-0.0324 0.0413,-0.0649 0.0627,-0.0973 0.47733,-0.7046 3.96,-5.54468 9.76266,-6.03388 10.01067,-0.84474 19.19733,2.72109 30.16667,7.47033 0.54933,0.23877 0.84133,0.763 0.71066,1.27556 -0.132,0.51385 -0.652,0.88627 -1.26933,0.90703 -2.32267,0.0805 -4.968,0.37371 -6.856,0.76688 0.34133,0.26601 0.58667,0.59431 0.66933,0.99657 0.18267,0.89664 -0.47733,1.69727 -1.96133,2.37722 -1.028,0.47233 -2.04667,1.10296 -3.03067,1.71414 -1.53733,0.95374 -3.10666,1.92695 -4.71866,2.24486 -0.92134,0.18166 -1.85734,0.14923 -2.808,-0.22578"
       style="fill:#000000;fill-opacity:1;fill-rule:nonzero;stroke:none;stroke-width:1.31535"
       id="path18095"
       sodipodi:nodetypes="ccccccccccccccccccccccscccccscccccccccsc" /><path
       d="m 342.85645,249.02266 c 0,0 6.316,-2.50178 9.76933,-0.57224 3.452,1.93084 3.15733,4.00313 2.056,4.64674 -1.10133,0.64361 2.644,3.28814 5.43467,4.14586 2.792,0.85772 11.532,-1.85817 11.532,-1.85817 l -4.7,3.71634 c 0,0 -5.216,2.43043 -6.464,1.64408 -1.24934,-0.78635 -13.148,-4.00313 -13.07467,-4.2886 0.0733,-0.28547 -0.19867,-1.77253 0.12133,-1.99442 0.32,-0.22189 2.156,-2.08008 2.156,-2.08008 l -1.46933,-2.07227 -6.684,-0.28678 z"
       style="opacity:0.199997;fill:#000000;fill-opacity:1;fill-rule:nonzero;stroke:none;stroke-width:1.31535"
       id="path18105"
       sodipodi:nodetypes="ccsccccsscccc" /><path
       d="m 232.92013,233.43026 c 0,0 21.71066,12.37399 39.988,5.18654 0,0 -2.408,2.97412 -3.85467,3.59308 0,0 10.472,19.53809 21.668,34.52029 0,0 -16.42133,-15.06394 -25.308,-33.15651 0,0 -11.73733,1.87765 -18.35867,-0.84864 0,0 -9.80533,22.18264 -25.72266,36.06186 0,0 17.31866,-23.04943 22.02933,-37.17779 0,0 -7.00267,-4.08878 -10.44133,-8.17883"
       style="opacity:0.199997;fill:#000000;fill-opacity:1;fill-rule:nonzero;stroke:none;stroke-width:1.31535"
       id="path18121" /><path
       d="m 296.65333,247.45196 3.85866,1.45332 c 0,0 -0.87066,8.72253 -4.73066,16.83907 0,0 4.60666,-15.02112 0.872,-18.29239"
       style="opacity:0.199997;fill:#000000;fill-opacity:1;fill-rule:nonzero;stroke:none;stroke-width:1.31535"
       id="path18137" /></g></svg>
