<?xml version="1.0" encoding="UTF-8" standalone="no"?>
<svg
   width="100%"
   height="100%"
   viewBox="0 0 400 400"
   version="1.1"
   xml:space="preserve"
   style="fill-rule:evenodd;clip-rule:evenodd;stroke-linejoin:round;stroke-miterlimit:2;"
   id="svg19"
   sodipodi:docname="klingonSash.svg"
   inkscape:version="1.4 (e7c3feb1, 2024-10-09)"
   xmlns:inkscape="http://www.inkscape.org/namespaces/inkscape"
   xmlns:sodipodi="http://sodipodi.sourceforge.net/DTD/sodipodi-0.dtd"
   xmlns="http://www.w3.org/2000/svg"
   xmlns:svg="http://www.w3.org/2000/svg"><defs
   id="defs19">
        
    
            
            
            
            
            
            
            
            
            
            
            
            
        
                
            
                
            
                
            
                
            
                
            
                
            
                
            
                
            
                
            
                
            
                
            
                
            
                    
                
                    
                
                    
                
                    
                
                    
                
                    
                </defs><sodipodi:namedview
   id="namedview19"
   pagecolor="#ffffff"
   bordercolor="#666666"
   borderopacity="1.0"
   inkscape:showpageshadow="2"
   inkscape:pageopacity="0.0"
   inkscape:pagecheckerboard="0"
   inkscape:deskcolor="#d1d1d1"
   showgrid="false"
   inkscape:zoom="1.685"
   inkscape:cx="200"
   inkscape:cy="199.70326"
   inkscape:window-width="1920"
   inkscape:window-height="1080"
   inkscape:window-x="2550"
   inkscape:window-y="155"
   inkscape:window-maximized="0"
   inkscape:current-layer="svg19" />
    
<g
   inkscape:groupmode="layer"
   id="layer2"
   inkscape:label="Main"><path
     d="m 106.7348,255.25536 c 1.63733,3.47999 8.61198,23.02928 17.44396,47.77855 11.97463,33.56125 27.82259,77.97847 35.67991,96.93175 h 45.21855 c -8.54931,-15.82395 -20.49461,-40.07322 -30.27859,-68.00782 -16.74129,-47.79988 -26.4786,-73.59315 -33.23725,-81.91313 -7.37198,-9.07198 -17.99062,-16.08663 -29.90126,-19.75195 -1.61333,-0.496 -3.56399,-0.748 -5.79998,-0.748 -12.090641,0 -25.702607,6.76664 -26.545271,9.30397 0.07333,0.0613 0.207999,0.156 0.435998,0.26801 2.939993,0.85466 22.626613,6.87998 26.983933,16.13862"
     style="clip-rule:evenodd;fill:#c7b799;fill-rule:nonzero;stroke-width:1.33333;stroke-linejoin:round;stroke-miterlimit:2"
     id="path1" /><path
     d="m 79.044736,240.99406 c 0,0 21.694614,6.21998 25.879934,15.1133 3.82799,8.13331 39.16124,110.78239 52.77054,143.8583 h 4.33065 c -7.68531,-18.35195 -23.81594,-63.55717 -35.96391,-97.60375 -10.11597,-28.3506 -15.91596,-44.55589 -17.51729,-47.95855 -2.18533,-4.64132 -7.57998,-8.84131 -16.49329,-12.83863 -3.474658,-1.55733 -6.757316,-2.74666 -8.993311,-3.49599 4.15599,-2.69466 13.889299,-6.52398 22.801281,-6.52398 2.03732,0 3.79065,0.22266 5.21332,0.65999 11.53597,3.54933 21.81194,10.33331 28.93592,19.10129 6.53599,8.04531 16.60663,34.78524 32.90259,81.31313 9.62664,27.4866 21.34394,51.43186 29.89592,67.34649 h 4.52533 c -8.51465,-15.65996 -20.65595,-40.1439 -30.64659,-68.66782 -17.35596,-49.55855 -26.77327,-74.14515 -33.57325,-82.51446 -6.79999,-8.37065 -17.26263,-16.2173 -30.86393,-20.40128 -13.601296,-4.18533 -42.343891,8.48398 -33.203914,12.61196"
     style="clip-rule:evenodd;fill:#000000;fill-opacity:1;fill-rule:nonzero;stroke-width:1.33333;stroke-linejoin:round;stroke-miterlimit:2"
     id="path2" /><path
     d="m 84.357869,243.50184 c -5.724439,0.1592 -9.53684,-0.76184 -9.712898,-2.34422 -0.597238,-5.36012 5.713717,-9.99334 18.757605,-13.77474 3.903373,-1.13162 8.256584,-1.77154 12.938764,-1.90175 14.35042,-0.39909 25.19406,3.89844 25.34432,5.84834 0.15889,2.06838 0.78542,4.26114 1.40616,6.00589 -0.53084,-0.38273 -1.12285,-0.80643 -1.7678,-1.26335 -2.17017,-1.53492 -5.599,-3.3403 -9.61344,-3.22866 -0.68773,0.0191 -1.37787,0.0958 -2.05046,0.22776 -1.15817,0.22563 -3.81649,0.65835 -7.18391,1.20551 -11.28,1.83428 -21.621158,3.56643 -24.232148,4.59807 -1.501397,0.59397 -2.496834,1.49132 -2.957691,2.66592 -0.276537,0.70395 -0.309724,1.38114 -0.25158,1.93707 -0.205142,0.01 -0.431693,0.017 -0.676931,0.0238"
     style="clip-rule:evenodd;fill:#c7b799;fill-rule:nonzero;stroke-width:1.33333;stroke-linejoin:round;stroke-miterlimit:2"
     id="path3" /><path
     d="m 84.355068,241.17569 c 0.38989,-0.99255 1.317597,-2.35886 3.522195,-3.23116 2.702027,-1.06752 13.102867,-2.812 24.438617,-4.65584 3.35817,-0.54422 6.00983,-0.97677 7.15207,-1.19927 0.72702,-0.1416 1.47165,-0.225 2.21536,-0.24568 3.92247,-0.10909 7.44425,2.21958 9.74719,3.73214 -0.2726,-1.07283 -0.63629,-2.93846 -0.73074,-4.03225 -1.10433,-1.7233 -11.42444,-5.42182 -24.33009,-5.06292 -4.59821,0.12788 -8.86775,0.75482 -12.689083,1.8628 -12.506694,3.62508 -18.576865,7.89947 -18.041806,12.70244 0.04093,0.36834 2.158584,1.59794 8.398602,1.46442 0.04019,-0.42529 0.137029,-0.87615 0.317685,-1.33468 m -10.704211,0.0923 c -0.465547,-4.17401 2.168913,-9.82941 19.473439,-14.84572 17.304534,-5.01633 39.236314,0.66817 39.557464,4.83017 0.3212,4.16334 1.95063,9.88681 1.95063,9.88681 0,0 -1.7821,-1.79075 -4.62854,-3.80573 -2.84773,-2.01359 -5.98889,-4.09538 -10.15186,-3.28201 -4.16429,0.81474 -27.444326,4.25257 -31.240063,5.75333 -3.795737,1.50077 -2.314323,4.60077 -2.314323,4.60077 0,0 -12.1812,1.03637 -12.646747,-3.13762"
     style="clip-rule:evenodd;fill:#000000;fill-opacity:1;fill-rule:nonzero;stroke-width:1.33333;stroke-linejoin:round;stroke-miterlimit:2"
     id="path4"
     sodipodi:nodetypes="cccssccscccccsccccscc" /><path
     d="m 183.77821,358.4111 0.16533,0.356 c 0,0 -0.036,-0.156 -0.16533,-0.356"
     style="clip-rule:evenodd;opacity:0.2;fill-rule:nonzero;stroke-width:1.33333;stroke-linejoin:round;stroke-miterlimit:2"
     id="path5" /><path
     d="m 188.5222,369.5324 0.16533,0.356 c 0,0 -0.036,-0.156 -0.16533,-0.356"
     style="clip-rule:evenodd;opacity:0.2;fill-rule:nonzero;stroke-width:1.33333;stroke-linejoin:round;stroke-miterlimit:2"
     id="path6" /><path
     d="m 190.61552,374.48572 c 0.59333,2.224 -2.81733,4.3 -2.81733,4.3 0,0 -9.19331,3.41065 -15.56929,5.19065 -4.94665,1.37999 -8.89998,-0.71467 -10.42931,-1.72532 -0.588,-1.29334 -1.19066,-2.628 -1.80666,-4.00267 1.272,-0.0853 2.65999,-0.56933 3.78399,-1.09332 2.22399,-1.03867 16.45863,-6.96932 20.46262,-8.15598 2.91332,-0.86266 3.93865,0 4.28265,0.53466 l -2.79999,-6.02132 c 0.59333,2.22533 -2.81733,4.29999 -2.81733,4.29999 0,0 -9.19331,3.41066 -15.56929,5.19066 -4.91332,1.37066 -8.84798,-0.68667 -10.39864,-1.70533 -0.59067,-1.36534 -1.18667,-2.756 -1.78533,-4.17199 1.29866,-0.0653 2.72666,-0.55334 3.87999,-1.092 2.22399,-1.03866 16.45862,-6.96932 20.46261,-8.15598 2.91333,-0.86266 3.93866,0 4.28266,0.53466 l -2.79999,-6.01998 c 0.59333,2.22399 -2.81733,4.29999 -2.81733,4.29999 0,0 -9.19331,3.40933 -15.56929,5.18932 -4.79732,1.33866 -8.67065,-0.59599 -10.29464,-1.636 -2.79733,-6.87198 -5.58666,-14.14396 -8.13732,-21.48527 -11.50797,-33.13059 -32.31325,-87.88912 -34.75458,-91.72511 -2.44132,-3.83598 -14.069295,-7.31864 -14.069295,-7.31864 l 3.821324,-0.72133 c 2.225331,0.39466 10.078641,2.38932 12.770631,6.30531 3.16,4.59866 20.60395,49.31055 20.60395,49.31055 l 21.26528,59.77451 21.26662,-7.47198 c 0,0 -11.49598,-34.19858 -21.55328,-62.36118 -9.47331,-26.5226 -22.62128,-44.12922 -34.33992,-48.48121 l 5.80799,-0.88933 8.61064,2.95333 -1.23866,-5.15244 c 0,0 -4.09477,-2.17806 -9.06169,-2.64764 -6.589,-0.62293 -15.38922,-0.25676 -24.814226,2.05742 -14.293051,3.50947 -16.304836,6.86293 -16.304836,6.86293 l -6.557317,-2.53733 -1.045331,2.78932 1.545329,2.69333 9.268854,0.73839 3.677324,-0.084 c 0,0 14.995963,5.57998 16.041293,8.36932 1.04666,2.79065 29.29593,76.7238 33.13192,91.02243 3.21866,11.99864 16.99196,46.81989 21.34128,57.71985 h 10.64264 c -1.24,-2.49865 -3.04399,-6.19064 -5.19332,-10.75863 1.23466,-0.10934 2.56399,-0.57467 3.64932,-1.08 2.224,-1.03867 16.45863,-6.96932 20.46262,-8.15598 2.91332,-0.86266 3.93865,-10e-4 4.28265,0.53333 z"
     style="clip-rule:evenodd;opacity:0.2;fill:#000000;fill-opacity:1;fill-rule:nonzero;stroke-width:1.33333;stroke-linejoin:round;stroke-miterlimit:2"
     id="path8"
     sodipodi:nodetypes="cccccccccccccscccccccscccccccccccssccccccccccccccc" /><path
     d="m 193.41552,380.5057 0.16533,0.35601 c 0,0 -0.036,-0.156 -0.16533,-0.35601"
     style="clip-rule:evenodd;opacity:0.2;fill-rule:nonzero;stroke-width:1.33333;stroke-linejoin:round;stroke-miterlimit:2"
     id="path10" /><path
     d="m 161.7956,334.6085 c -2.54133,-2.74 -4.86799,-4.94266 -6.91465,-6.54798 -6.13065,-4.80933 -9.70264,-7.92532 -9.82397,-9.63065 l -0.06,-0.80666 3.56399,-1.00401 c 0.3,-0.084 0.5,-0.35866 0.48533,-0.66933 l -0.21067,-4.89732 c -0.008,-0.18267 -0.092,-0.356 -0.232,-0.476 -0.12,-0.10533 -0.27466,-0.16266 -0.43466,-0.16266 l -3.41866,0.356 -0.628,-2.108 4.39199,-1.11599 c 0.172,-0.0441 0.32133,-0.15733 0.412,-0.31067 0.0893,-0.15333 0.11333,-0.33867 0.0667,-0.51067 l -2.22133,-8.18664 c -0.0507,-0.18534 -0.17734,-0.34001 -0.35067,-0.424 -0.0893,-0.044 -0.192,-0.0679 -0.29333,-0.0679 -0.088,0 -0.17467,0.0173 -0.256,0.052 l -5.30799,2.22 -0.58533,-2.55333 5.21599,-2.09333 c 0.312,-0.12533 0.48133,-0.46533 0.39466,-0.79067 -0.0813,-0.30933 -2.06666,-7.61331 -6.55865,-10.17463 -1.02266,-0.58267 -2.09866,-0.87733 -3.19999,-0.87733 -0.25066,0 -0.504,0.0146 -0.75733,0.044 l -0.52267,0.0627 -5.89865,-15.9973 6.63732,-2.21865 1.348,2.72666 -2.676,1.2 c -0.316,0.14133 -0.472,0.50666 -0.35733,0.83199 l 3.83999,10.75998 c 0.0933,0.25999 0.332,0.43333 0.60667,0.44266 l 0.13733,10e-4 c 1.376,0 3.45466,-0.53734 4.78799,-2.05333 l 0.75466,-0.85733 19.18395,55.16519 z"
     style="clip-rule:evenodd;fill:#c7b799;fill-rule:nonzero;stroke-width:1.33333;stroke-linejoin:round;stroke-miterlimit:2"
     id="path12" /><path
     d="m 145.7023,318.11786 c 0.007,0.088 0.0133,0.176 0.02,0.26533 0.12267,1.74267 6.26798,6.56399 9.56931,9.15332 2.43599,1.90933 4.93865,4.40532 6.99332,6.61865 l -18.80929,-54.08653 c -1.604,1.82399 -4.04132,2.31866 -5.44665,2.27866 -0.548,-0.0173 -1.028,-0.36801 -1.21333,-0.88534 L 132.977,270.70199 c -0.23467,-0.65467 0.0747,-1.38001 0.71066,-1.66533 l 2.044,-0.91601 -0.78267,-1.58399 -5.43465,1.816 5.47999,14.85862 c 1.51866,-0.17999 2.98266,0.12801 4.36532,0.91467 4.72799,2.69599 6.78798,10.26264 6.87332,10.58397 0.17333,0.65067 -0.16667,1.32933 -0.79067,1.58 l -4.68665,1.88132 0.28,1.22534 4.57865,-1.91333 c 0.35333,-0.148 0.75466,-0.136 1.1,0.032 0.34533,0.168 0.6,0.47733 0.70133,0.84933 l 2.22133,8.18664 c 0.0933,0.344 0.044,0.71201 -0.136,1.02134 -0.18,0.308 -0.47733,0.532 -0.82267,0.62 l -3.71999,0.94533 0.272,0.91066 2.79999,-0.29333 c 0.36667,-0.0373 0.73067,0.076 1.00933,0.31599 0.27867,0.24134 0.44534,0.58534 0.46134,0.95334 l 0.212,4.89732 c 0.0267,0.61733 -0.37467,1.17199 -0.97067,1.34 z m 20.11728,23.47594 c -0.39466,0 -0.78133,-0.17466 -1.04133,-0.50133 -0.0587,-0.072 -5.89332,-7.34931 -11.13197,-11.4573 -7.17598,-5.62932 -10.40664,-8.56265 -10.58397,-11.06265 -0.0187,-0.25732 -0.036,-0.45732 -0.052,-0.61199 -0.20267,-0.284 -0.28934,-0.63999 -0.23067,-0.99333 0.15333,-0.928 0.828,-1.30799 1.45066,-1.28666 0.0733,0.004 0.14267,0.012 0.20934,0.0227 l 2.56399,-0.72266 -0.10533,-2.42533 -2.48933,0.26133 c -0.63333,0.0613 -1.23333,-0.33066 -1.416,-0.94533 l -0.98666,-3.30265 c -0.104,-0.34667 -0.0613,-0.72267 0.11733,-1.03867 0.18,-0.316 0.48,-0.54533 0.83067,-0.63467 l 3.75332,-0.95332 -1.468,-5.41199 -4.63465,1.93733 c -0.36267,0.15199 -0.77333,0.13599 -1.124,-0.044 -0.34933,-0.17867 -0.60133,-0.504 -0.68933,-0.888 l -0.89066,-3.87999 c -0.14667,-0.64 0.19333,-1.29067 0.80266,-1.536 l 4.59732,-1.844 c -0.70133,-2.02398 -2.44532,-6.22931 -5.26532,-7.83464 -1.11999,-0.636 -2.27733,-0.77333 -3.53866,-0.41866 -0.67199,0.18666 -1.37199,-0.16934 -1.61199,-0.82134 l -6.34932,-17.21596 c -0.124,-0.33866 -0.10667,-0.71332 0.0507,-1.03732 0.15466,-0.32667 0.436,-0.57466 0.77866,-0.688 l 7.83998,-2.62 c 0.628,-0.21466 1.32267,0.0747 1.61867,0.67334 l 1.91332,3.86799 c 0.16134,0.32533 0.18267,0.70133 0.06,1.04266 -0.12266,0.34 -0.37866,0.61733 -0.70933,0.76533 l -2.18533,0.97866 3.084,8.64131 c 1.13066,-0.19066 2.96399,-0.87599 3.36132,-3.27598 0.1,-0.60267 0.59467,-1.06 1.20133,-1.112 0.60533,-0.0574 1.17333,0.31466 1.37333,0.89067 l 22.15595,63.71183 c 0.21333,0.61334 -0.0453,1.292 -0.61467,1.60534 -0.20266,0.11199 -0.424,0.16532 -0.644,0.16532"
     style="clip-rule:evenodd;fill:#000000;fill-opacity:1;fill-rule:nonzero;stroke-width:1.33333;stroke-linejoin:round;stroke-miterlimit:2"
     id="path13" /><path
     d="m 143.89031,302.55391 -4.63466,1.93733 c -0.36266,0.152 -0.77333,0.136 -1.12266,-0.0441 -0.35066,-0.17866 -0.60266,-0.50399 -0.69066,-0.88799 0,0 -0.888,-3.86666 -0.89067,-3.87999 -0.34933,-1.524 1.62533,-3.26933 2.79599,-3.86132 0.492,-0.24801 1.58133,-0.40534 1.82267,-0.976 0.26533,-0.62801 -0.59867,-1.80933 -0.912,-2.364 -0.87333,-1.55066 -1.99466,-3.11732 -3.57199,-4.01333 -1.12,-0.63599 -2.27733,-0.77333 -3.53866,-0.41866 -0.672,0.18667 -1.37066,-0.16933 -1.612,-0.82266 -0.82933,-2.248 -1.65866,-4.49733 -2.48799,-6.74532 -0.97333,-2.63999 -2.47466,-5.11065 -3.05333,-7.88931 -0.27066,-1.30133 -0.20133,-2.26266 0.25067,-3.47733 0.408,-1.09332 0.508,-2.86666 1.844,-3.26532 1.31466,-0.39334 1.88799,1.604 2.35066,2.55866 1.36799,2.82799 1.97466,5.51866 2.96266,8.46264 0.47466,1.41333 0.91199,3.192 1.61999,4.51066 0.66533,1.23733 2.316,0.97199 3.58133,1.448 1.35333,0.50933 2.63732,1.06133 3.63332,2.12266 1.90133,2.02799 3.36666,5.81465 3.73466,8.51731 0.212,1.55466 -0.32267,2.42799 -1.708,3.05333 -0.94266,0.42532 -5.23465,0.44399 -4.09999,2.07199 1.38267,-0.28666 2.908,-0.52934 4.28266,-1.00666 0.86,-0.29867 1.22533,-0.57067 1.83066,0.21599 0.39867,0.51867 0.49067,1.48934 0.67733,2.11734 0.42933,1.43199 2.32933,4.82131 1.15333,6.24931 -0.26133,0.31733 -0.64266,0.37333 -0.98533,0.556 -1.28933,0.68933 -2.46399,1.06 -3.77599,1.52267 0.11467,0.47199 0.284,0.93199 0.44133,1.39466 1.028,-0.26401 2.252,-0.0747 3.33466,-0.188 0.516,-0.0533 1.084,-0.276 1.65066,-0.17734 0.47067,0.0827 0.24934,4.71599 0.144,5.11866 -0.28,1.06533 -1.64799,1.52132 -1.72799,2.63599 -0.0987,1.37066 1.56666,2.66399 2.49866,3.40532 3.01732,2.40266 6.10932,4.73599 8.84798,7.46265 2.85199,2.83866 4.50265,6.31066 7.00798,9.37465 0.64933,0.79466 2.11066,2.67466 1.312,3.74798 -0.26534,0.35734 -1.29333,0.82533 -1.68267,1.11733 -1.54399,1.15734 -2.26532,0.32267 -3.36532,-0.96399 -2.90533,-3.39332 -5.98799,-6.75198 -9.51064,-9.51464 -7.17599,-5.62932 -10.40665,-8.56265 -10.58398,-11.06264 -0.10533,-1.48267 0.0613,-2.86533 1.14667,-4.10132 0.88799,-1.01067 2.76132,-0.25067 2.68932,-1.916 l -2.48932,0.26134 c -0.63334,0.0613 -1.232,-0.33068 -1.416,-0.94533 -0.63867,-2.13867 -1.16266,-4.12267 0.312,-6.03599 0.53733,-0.69601 1.204,-0.784 2.01066,-1.13333 1.25466,-0.54401 1.00933,-0.636 0.57867,-1.756 -0.0547,-0.14134 -0.69067,-2.40133 -0.65467,-2.41599"
     style="clip-rule:evenodd;opacity:0.2;fill:#000000;fill-opacity:1;fill-rule:nonzero;stroke-width:1.33333;stroke-linejoin:round;stroke-miterlimit:2"
     id="path14" /><path
     d="m 175.02999,399.96596 -4.96132,-9.07197 20.06471,-7.16623 8.92942,16.23887 z"
     style="clip-rule:evenodd;opacity:0.2;fill:#000000;fill-opacity:1;fill-rule:nonzero;stroke-width:1.33333;stroke-linejoin:round;stroke-miterlimit:2"
     id="path16" /></g></svg>
