<?xml version="1.0" encoding="UTF-8" standalone="no"?>
<!-- Created with Inkscape (http://www.inkscape.org/) -->

<svg
   version="1.1"
   id="svg1115"
   width="400"
   height="400"
   viewBox="0 0 400 400"
   sodipodi:docname="klingonArmourAverageMale.svg"
   inkscape:version="1.4 (e7c3feb1, 2024-10-09)"
   xml:space="preserve"
   xmlns:inkscape="http://www.inkscape.org/namespaces/inkscape"
   xmlns:sodipodi="http://sodipodi.sourceforge.net/DTD/sodipodi-0.dtd"
   xmlns="http://www.w3.org/2000/svg"
   xmlns:svg="http://www.w3.org/2000/svg"><defs
     id="defs1119" /><sodipodi:namedview
     id="namedview1117"
     pagecolor="#ffffff"
     bordercolor="#666666"
     borderopacity="1.0"
     inkscape:showpageshadow="2"
     inkscape:pageopacity="0.0"
     inkscape:pagecheckerboard="0"
     inkscape:deskcolor="#d1d1d1"
     showgrid="false"
     inkscape:zoom="2.065"
     inkscape:cx="200"
     inkscape:cy="199.75787"
     inkscape:window-width="1920"
     inkscape:window-height="1080"
     inkscape:window-x="1948"
     inkscape:window-y="65"
     inkscape:window-maximized="0"
     inkscape:current-layer="g1123"><inkscape:page
       x="0"
       y="0"
       id="page1121"
       width="400"
       height="400"
       margin="0"
       bleed="0" /></sodipodi:namedview><g
     id="g1123"
     inkscape:groupmode="layer"
     inkscape:label="Uniform"
     style="display:inline"><path
       d="m 12.476502,399.96567 2.665327,-33.65458 -1.833329,-6.51199 2.59466,-26.61993 5.330653,-3.13866 -1.903995,-4.88265 8.325313,-39.7119 18.109288,-23.95061 5.711985,0.69733 38.293238,25.64927 c 0,0 17.085288,23.02661 20.155948,26.5106 3.07066,3.48266 8.39998,10.45731 8.39998,10.45731 l -8.48264,47.58255 0.48799,27.57326 z"
       style="clip-rule:evenodd;fill:#242424;fill-rule:nonzero;stroke-width:1.33333;stroke-miterlimit:10"
       id="path14" /><path
       d="m 48.508279,263.97667 c 0.427999,-0.23333 0.790665,-0.596 1.166664,-0.89466 -1.649329,-4.52932 -7.218649,0.005 -9.370643,1.63866 -3.527992,2.67599 -6.218652,6.15199 -8.805312,9.70398 -1.346663,1.84933 -2.323994,3.71599 -3.894657,5.43332 -1.627996,1.77866 -3.395991,3.44265 -4.791988,5.42132 0.418666,-0.072 0.849331,0.0267 1.226664,-0.10667 0.05867,0.83466 -0.486666,1.61333 -1.207997,2.06666 1.798662,0.49733 -1.127997,2.33866 -1.447997,2.89066 0.853332,2.23866 -3.149325,3.85866 -3.481324,5.95865 0.195999,-0.20666 0.695998,-0.42266 0.903998,-0.60933 0.442665,2.81066 -3.655991,3.52533 -3.290659,5.98132 0.666665,-0.65333 1.618663,-0.95866 2.341328,-1.53466 -0.06267,0.38533 0.096,0.86399 0.044,1.24533 0.161332,-0.0333 0.255999,-0.0827 0.417332,-0.13067 0.414665,1.96666 -2.225328,5.07199 -3.019993,6.74398 -0.539998,1.13467 -0.737331,2.22933 -1.08933,3.352 0.547998,-1.10267 1.863995,-1.93867 2.719993,-2.90133 1.21333,5.22532 -4.459989,8.28131 -5.737319,12.7533 1.44133,-1.312 3.257325,-2.30133 4.913321,-3.26932 -0.110666,1.89066 -0.638665,3.85732 -2.122661,4.99065 -0.807998,0.61866 -2.805327,1.64 -1.019998,2.72399 -0.09733,-1.10933 2.325328,-2.11466 3.121326,-2.44666 0.543998,1.45867 0.621332,3.50533 0.494665,5.05999 -0.967997,0.36667 -1.682662,1.74133 -2.53066,2.44666 -0.946664,0.78666 -1.759996,1.1 -1.870662,2.44399 0.305332,-0.136 0.623998,-0.0387 0.907998,-0.11866 0.01733,1.58799 -1.001331,2.37599 -1.69733,3.63599 -0.537332,0.97733 -0.667998,2.10799 -1.18133,3.13599 -0.6786649,1.36266 -1.9053285,2.70133 -2.1666612,4.14666 1.0026642,-0.34267 1.9733282,-0.86933 2.7026602,-1.66933 -0.559999,0.89866 -0.9373312,2.52132 -0.7773316,3.59199 0.086667,-0.0747 0.2279996,-0.216 0.3373326,-0.29067 0.05733,-0.0627 0.05333,-0.064 -0.01067,-0.004 -0.198666,1.83067 -1.5093293,3.56266 -1.927995,5.34799 1.195997,0.76 -0.9266643,4.62932 -1.5666627,5.72665 0.4973321,-0.0613 1.0479974,-0.164 1.5279962,-0.28266 0.1026664,1.13199 -0.2319995,2.33466 -0.7199982,3.33199 0.6799983,-0.108 1.3879965,-0.30133 1.8599953,-0.75333 -1.1439971,1.09466 0.5106654,2.33332 0.9359974,3.19599 0.597332,1.21333 -0.343999,2.24533 -1.3866629,2.90399 0.5773319,0.068 1.1479969,0.25867 1.7346619,0.26267 -0.629331,1.82266 -3.973323,2.43199 -5.7013187,2.75599 1.6919958,0.74666 2.6373268,2.63599 4.5839886,2.81866 -0.4186657,0.17067 -0.8533312,0.22933 -1.2799968,0.36667 0.4999987,0.29333 3.0666589,0.23999 1.9599949,1.39599 1.423997,0.95333 0.626665,2.3 0.106667,3.41599 -0.225333,0.484 -0.4599993,2.8 0.861331,2.212 -1.5053298,0.66933 -3.6399912,3.06266 -4.1279899,4.47065 0.6479983,-0.53466 1.5506628,-1.95466 2.4626605,-1.19199 0.8079984,0.67466 0.1239997,0.70266 -0.1733329,1.18133 -0.690665,1.11599 -1.7893289,2.16399 -2.2226611,3.41465 -0.561332,1.62 0.1159997,2.244 0.3373325,3.77066 0.1533329,-0.75866 0.6959982,-1.53466 1.1026639,-2.14399 1.1866637,1.31199 0.6186651,4.92799 -0.086666,6.44931 -0.411999,0.88934 -1.1639971,1.61333 -1.599996,2.6 0.254666,-0.128 0.7786647,-0.0933 1.0559974,-0.236 0.9346643,1.132 0.8613312,2.21866 0.8319979,3.58666 h 6.4733167 c 0.109333,-3.67599 0.221333,-7.35199 0.334666,-11.02798 0.092,-2.96666 0.278666,-5.94798 0.282666,-8.91597 0.0027,-3.34666 0.951997,-3.12266 4.243989,-2.91333 5.022654,0.31733 10.242641,0.50933 15.286629,1.01733 7.714647,0.776 15.315961,2.46133 23.147942,2.45866 7.922648,-0.004 15.83196,0.20133 23.77994,0.60267 2.717327,0.13733 16.930626,-0.61734 17.315957,1.83333 0.577332,-0.39334 1.292002,-0.88134 1.980002,-0.984 0.60266,3.41199 -3.80533,6.38265 -6.24399,7.79465 0.314666,0.0933 0.574664,0.29333 0.919996,0.39066 -0.0027,1.19866 -1.499995,1.90266 -2.161328,2.85599 0.590666,-0.24266 1.173332,-0.124 1.76133,-0.196 -0.286666,0.76267 -0.725331,1.488 -1.354663,2.02667 1.554663,-0.128 3.151992,-1.07733 4.617322,-1.42 -0.414666,2.13866 -1.374663,4.14932 -2.095995,6.25065 2.479994,-0.32133 2.806659,-4.37199 3.506658,-6.47865 1.17333,-3.53332 2.42133,-6.96132 3.65066,-10.45864 0.96133,-2.73733 2.88133,-4.62799 3.76532,-7.32932 1.444,-4.41598 2.50666,-8.95197 3.34,-13.51996 0.79199,-4.33999 1.91466,-8.22798 3.00799,-12.48397 0.48,-1.87066 0.6,-3.82266 0.80133,-5.83199 0.34,-3.37465 1.74933,-8.60931 0.83333,-11.9333 -0.404,-1.468 -2.35199,-3.46399 -3.50532,-4.61732 -4.40133,-4.39999 -9.49731,-7.80932 -13.903972,-12.2093 -3.026659,-3.02266 -6.989316,-7.12132 -8.922644,-10.99331 -0.659998,-1.32133 -0.846665,-2.81466 -1.693329,-4.05466 -3.922657,-5.74132 -11.547971,-9.73731 -16.997291,-14.04529 -5.462653,-4.31999 -9.507976,-9.85998 -14.69063,-14.3653 -2.421327,-2.10533 -8.02798,-6.92132 -10.819973,-6.50399 -2.431994,0.36267 -5.307987,3.56266 -7.106649,5.06532 2.178661,1.35867 5.158654,1.65333 7.562648,2.63066 1.518663,0.61734 2.52666,1.52267 3.918657,2.292 3.055992,1.68799 7.434648,2.33066 9.801309,5.08932 0.377332,0.43867 0.751998,1.57866 0.938664,2.16933 0.198666,0.632 0.186666,1.80666 0.399999,2.34533 0.914664,2.31066 4.02799,1.61066 1.250664,4.81465 3.161325,2.49599 6.271984,1.33333 6.715983,5.48665 0.153333,1.43867 -0.434666,3.02 -0.016,4.56266 -0.649332,0.77333 -1.29333,1.71733 -1.58933,2.68532 2.398661,-0.57599 4.741322,-0.64533 7.109316,-0.96799 0.393332,2.50399 -1.927995,4.52265 -2.435994,6.80131 -0.375999,1.68 0.242666,3.75199 1.198664,5.03732 0.282666,-1.97199 -0.963998,-3.64132 -0.353333,-5.57598 0.277333,-0.87867 1.874662,-3.29199 3.190659,-3.01733 0.699998,0.14667 1.541329,2.34666 1.706662,3.02133 0.321333,1.30933 -0.110666,2.40133 -0.742664,3.93065 1.562662,0.56534 3.262658,0.7 4.846654,1.19467 1.814662,0.56666 1.28533,0.0947 1.963995,1.59599 0.529331,1.17067 0.01467,3.38 1.257329,3.97999 -0.243999,0.87067 -0.439998,1.852 0.413333,2.28933 -0.024,1.34 -0.753332,3.08266 -1.410663,4.23732 3.407991,1.18534 10.289307,0.43867 13.853298,-0.052 0.337333,2.48799 -0.902664,5.07065 -0.765331,7.63331 1.33333,-0.0533 2.887999,-0.37867 4.117329,-0.84933 -0.028,0.30266 0.27866,0.95733 0.184,1.40666 2.00932,-0.036 4.17199,-0.476 6.11598,-1.028 0.0413,1.83467 -0.43333,3.66933 -0.39733,5.51866 3.65999,1.02666 2.55333,4.55999 2.85733,7.42531 0.28133,2.66799 1.36132,5.07866 1.02533,7.74265 -0.40667,3.23599 -2.85066,5.97465 -3.668,8.98264 -0.77199,2.84666 -0.45466,9.62398 -4.27065,10.46264 -0.53733,2.26933 -4.299993,4.93999 -6.121322,2.84666 -0.982664,1.28 -3.045326,1.744 -4.089323,0.25067 -0.719998,1.40266 -1.861329,1.41866 -2.651994,0.13867 -0.319999,0.81999 -0.861331,1.49999 -1.646662,1.82266 -0.857331,-1.364 -1.874662,-2.848 -2.102662,-4.47466 0.1,0.684 -0.233332,0.97467 -0.386665,1.58133 -1.433329,-0.384 -1.979995,-2.16933 -2.671993,-3.39732 -0.197333,1.89466 -2.475994,8.18931 -3.509325,3.28532 -0.457331,0.62933 -0.922664,0.556 -1.550663,0.75733 -0.072,-0.312 -0.385332,-0.71333 -0.437332,-0.95866 -2.825326,3.74932 -7.193315,3.13332 -11.342638,3.03466 -5.141321,-0.12134 -10.417308,-0.78133 -15.507962,-1.71466 -3.882657,-0.712 -8.05998,0.18 -12.03997,-1.00534 -0.795998,-0.23733 -1.765328,-1.18666 -2.45466,-1.34933 -0.567999,-0.13466 -1.506663,0.24667 -2.178661,0.13734 -1.771996,-2.54266 -9.961309,0.31466 -8.621312,-4.45066 -1.455996,0.456 -2.719993,1.33333 -4.09599,1.98533 0.734665,-1.91466 2.665327,-3.67732 2.453327,-5.89998 -0.322666,0.17999 -0.959997,0.22666 -1.21733,0.37599 0.546665,-2.62799 3.357325,-4.19599 4.335989,-6.65598 -2.034661,1.256 -5.27332,2.59333 -7.559981,2.79866 1.893329,-2.15466 5.091987,-3.40399 5.482653,-6.52532 -1.951995,1.06667 -3.85199,2.184 -6.018652,2.836 -0.298665,-1.51067 0.846665,-3.176 0.717332,-4.72932 -0.141333,0.0547 -0.277333,0.12133 -0.409332,0.19599 0.282666,-1.47066 0.911997,-3.18265 1.639996,-4.56398 -0.269333,0.0867 -0.543999,0.052 -0.821332,0.11066 0.154667,-1.30799 1.013331,-3.18666 1.850662,-4.19599 -1.413329,1.14133 -2.721326,2.56 -4.037323,3.80133 0.555999,-1.888 1.202664,-3.81733 1.990662,-5.66932 -0.455999,0.544 -0.989331,0.75466 -1.586663,0.952 0.871998,-2.21867 1.24533,-3.652 1.142664,-5.89999 -0.113333,-2.47066 -0.117333,-4.72665 1.283997,-6.89065 0.334666,-0.51733 1.10933,-1.056 1.350663,-1.61733 0.414666,-0.96 -0.08133,-2.11866 0.406666,-3.03732 0.369332,-0.696 1.553329,-0.82134 1.833328,-1.59333 0.224,-0.61734 -0.339999,-1.96533 -0.386665,-2.64666 -0.2,-2.90666 0.909331,-3.35466 1.658662,-5.62532 0.657332,-1.98933 -0.894664,-3.63599 -0.685331,-5.56799 0.206666,-1.92133 1.945328,-4.23599 0.126666,-5.91332 2.053328,-4.20399 4.853321,-7.53731 6.387984,-11.99063 0.382666,-1.112 0.07867,-1.59733 0.685332,-2.792 0.483998,-0.95066 2.854659,-2.97466 0.899997,-3.67332 0.603999,-0.988 2.707994,-3.55599 0.629332,-3.93866 0.715998,-3.12132 3.697324,-6.47732 5.534653,-9.01731 1.813329,-2.50666 3.874657,-6.18798 6.65465,-7.77198 0.751998,-0.428 1.662662,-0.68266 2.62266,-0.83333 -2.131995,-0.13467 -6.515984,-0.636 -9.095977,0.83333 -0.378666,0.216 -0.749332,0.46133 -1.110664,0.732"
       style="clip-rule:evenodd;fill:#000000;fill-rule:nonzero;stroke-width:1.33333;stroke-miterlimit:10"
       id="path15" /><path
       d="m 162.89693,327.50985 c -1.14933,-0.0147 -2.29866,-0.028 -3.44799,-0.0413 -4.77199,-0.0573 -9.54398,-0.112 -14.31597,-0.15867 -11.91597,-0.116 -23.51194,-1.82799 -34.24391,-7.31598 -2.21599,-1.13466 -4.02266,-2.33199 -5.82132,-4.04532 -1.34666,-1.36933 -2.61866,-2.84399 -4.04799,-4.12133 -1.542661,-1.37866 -2.642659,-3.19065 -3.826656,-4.87465 -2.222661,-3.15733 -4.478655,-6.33598 -6.393317,-9.69331 -2.066662,-3.62399 -5.539986,-6.69732 -8.433312,-9.63864 -1.042664,-1.06 -2.089328,-2.11733 -3.153326,-3.15599 -0.675998,-0.66 -1.729329,-1.05333 -1.139997,-1.98133 0.705332,-1.108 3.050659,-1.15333 4.158656,-1.64 1.994662,-0.876 3.96799,-2.09999 4.861322,-4.14799 0.143999,-0.32933 0.995997,-2.27866 0.542665,-2.65999 -0.483999,-0.40533 -1.56533,0.97066 -1.929329,1.276 -1.778662,1.49199 -3.730657,2.11332 -6.035985,2.65332 -1.974661,0.46134 -4.130656,0.90533 -6.102651,0.208 -2.001328,-0.708 -3.369325,-2.39199 -4.883988,-3.81065 -2.635993,-2.472 -4.733321,-5.53732 -7.90398,-7.31065 -3.298658,-1.84667 -6.922649,-3.30533 -10.342641,-4.94799 -2.823993,-1.356 -5.753319,-2.67599 -8.570645,-3.96799 -2.949326,-1.352 -7.114649,-3.47466 -10.475974,-2.96799 -3.673324,0.55466 -0.211999,8.46131 0.445332,10.5373 0.938665,2.96133 1.877329,5.92399 2.815993,8.88665 -1.355996,1.68399 -2.711993,3.36932 -4.06799,5.05332 -1.142663,1.42 -2.209327,3.02666 -3.483991,4.32799 -0.438665,0.44933 -1.067997,0.73466 -1.32533,1.31866 -0.335999,0.76267 0.068,1.82133 -0.02933,2.63066 -0.125333,1.03333 -0.598665,1.91733 -0.686665,2.96799 -0.117333,1.40133 -0.08533,2.57066 -0.625332,3.87199 -1.102664,2.65333 -2.72666,4.67999 -3.142659,7.61465 -0.502665,3.53333 -0.971997,7.07065 -1.457329,10.60664 -0.837332,6.09199 -1.674663,12.1853 -2.511994,18.27862 -0.152,1.10133 -0.349333,2.20666 -0.455999,3.31333 0,0.003 -6.298651,65.3905 -6.298651,65.3905 h 39.551901 c 0.553332,0 0.685332,-5.36132 0.714665,-5.82532 0.178666,-2.82132 -0.305332,-6.22665 1.902662,-8.37331 1.011998,-0.98533 2.126661,-1.95733 2.501327,-3.37466 0.421332,-1.59733 -0.02267,-3.19999 0.595999,-4.82665 0.515998,-1.35867 0.03733,-1.94266 -0.024,-3.36266 -0.05733,-1.33466 0.782664,-2.108 1.22533,-3.27333 0.493332,-1.29999 0.012,-1.80933 -0.597332,-2.99066 -1.18133,-2.28532 1.603996,-3.77865 1.765329,-6.09331 0.104,-1.50133 -1.223997,-1.45867 -2.003995,-2.448 -0.655998,-0.83066 -0.827998,-2.29999 -0.729331,-3.35999 0.102666,-1.10933 0.705331,-2.13999 1.239996,-3.13732 0.577332,-1.07867 0.581332,-1.86933 0.581332,-3.12133 0.0013,-1.276 0.309333,-2.34799 0.810665,-3.47999 0.318666,-0.71867 0.525332,-0.97467 0.670665,-1.76533 0.106666,-0.58267 0.121333,-0.82533 0.366666,-1.36666 0.291999,-0.64134 0.633331,-0.44534 0.435999,-1.30533 -0.188,-0.81467 -0.919998,-1.06667 -0.802665,-1.99733 0.08133,-0.64533 0.666665,-0.88933 0.913331,-1.392 0.262666,-0.53466 0.193333,-0.984 0.223999,-1.62666 0.05333,-1.08133 0.174667,-2.164 0.008,-3.25199 -0.158666,-1.02533 -0.024,-2.304 -0.242666,-3.35466 -0.129333,-0.61867 -0.407999,-0.77333 -0.361332,-1.448 0.044,-0.63333 0.490665,-0.956 0.685332,-1.36933 0.474665,-1.01066 0.145333,-2.10666 0.498665,-3.16132 0.09867,-0.292 0.529332,-0.48933 0.646665,-0.79733 0.09333,-0.24667 -0.048,-0.548 0.01733,-0.79734 0.148,-0.56133 0.305333,-0.93466 0.343999,-1.53599 0.150667,-2.36533 0.233333,-4.04532 1.56133,-6.04399 0.474665,-0.71466 0.261333,-0.89866 1.33333,-0.91466 0.641332,-0.0107 1.370663,0.45466 2.005328,0.29733 0.446666,-0.112 0.487999,-0.608 1.022664,-0.8 0.865332,-0.308 2.090662,0.16934 2.99466,0 0.778664,-0.14666 1.054664,-0.392 1.789328,-0.456 0.806665,-0.0693 2.030662,0.0653 2.849327,0.22534 1.095997,0.21333 1.829328,0.74 2.737326,1.46133 1.142664,0.90666 0.606665,1.98133 1.903995,2.66932 1.073331,0.568 1.789329,1.27333 2.98666,1.70667 2.439993,0.88133 3.906656,3.53999 5.919985,5.12798 1.08533,0.85733 1.667996,2.10533 2.958659,2.704 1.287997,0.6 3.023992,0.544 3.949323,1.82266 0.387999,0.53733 0.358666,1.06 0.838665,1.55199 0.409332,0.41867 1.166664,0.53334 1.475996,1.00667 0.389333,0.596 -0.03867,0.84133 0.631999,1.428 0.626665,0.54666 1.435996,0.58266 2.167992,0.85599 1.096,0.408 0.52,0.35867 1.07333,1.13867 0.47067,0.66533 1.528,1.27599 2.296,1.71066 1.34399,0.76266 1.99199,1.49466 3.10799,2.44933 1.632,1.39466 3.92666,2.08132 5.59199,3.18532 1.05599,0.7 0.50933,1.988 0.28666,3.18799 -0.252,1.36 0.14,2.084 0.59333,3.27866 0.69867,1.84533 -0.54666,3.90933 -1.06933,5.63866 -0.63733,2.11199 -0.61066,4.05599 -0.62933,6.24265 -0.0413,4.82265 -0.38933,9.64931 -1.5,14.35329 -1.60532,6.79865 -4.18932,13.24797 -6.82531,19.64129 -0.56133,1.35866 -1.94266,3.31199 -3.16799,5.36665 h 29.02792 c -0.83599,-3.97466 -0.80666,-8.16398 -0.98266,-12.26797 -0.43733,-10.16531 -2.35866,-29.08526 6.30798,-36.73191 4.52399,-3.99199 13.0613,-4.38399 18.69196,-5.10398 10.4773,-1.33867 21.05861,-1.89067 31.60658,-2.32 5.96132,-0.24133 11.92531,-0.416 17.89063,-0.55333 2.95199,-0.068 6.02398,-0.376 8.96931,-0.18267 1.66799,0.10934 2.94532,1.172 4.50132,1.38133 -0.15867,-1.70266 -1.76,-3.78799 -2.54266,-5.35065 -1.07866,-2.15066 -2.12266,-4.31999 -3.03066,-6.54798 -2.17466,-5.33199 -9.89998,-4.26933 -14.42796,-4.33333 -6.52265,-0.092 -13.04664,-0.18133 -19.56929,-0.26666 -4.64532,-0.0613 -9.28931,-0.12133 -13.93463,-0.17867"
       style="clip-rule:evenodd;opacity:0.2;fill:#000000;fill-rule:nonzero;stroke-width:1.33333;stroke-miterlimit:10"
       id="path288" /><path
       d="m 101.23468,386.61504 c -0.0453,0.009 -0.0907,0.016 -0.13867,0.0227 -0.79199,0.10134 -1.701325,-0.052 -2.497323,-0.0773 -4.218657,-0.13333 -8.437313,-0.28 -12.655969,-0.43866 -10.843973,-0.408 -21.715945,-0.768 -32.531918,-1.68933 -13.267967,-1.132 -36.669242,-3.52666 -44.3078897,-6.85332 -1.6879958,-0.73466 -2.4599938,-2.69999 -1.7239957,-4.38666 0.7346649,-1.68666 2.6986604,-2.45999 4.3866554,-1.72532 4.795988,2.08799 20.970615,4.51198 42.211895,6.32265 13.909298,1.18533 47.025215,2.17466 47.358545,2.18532 1.10933,0.032 1.80267,0.37467 2.00933,1.44933 0.33067,1.724 -0.168,4.80532 -2.11066,5.19066"
       style="clip-rule:evenodd;fill:#000000;fill-rule:nonzero;stroke-width:1.33333;stroke-miterlimit:10"
       id="path646" /><path
       d="m 101.23468,392.17769 c -0.0453,0.009 -0.0907,0.016 -0.13867,0.0227 -0.79199,0.10134 -1.701325,-0.052 -2.497323,-0.0773 -4.218657,-0.13333 -8.437313,-0.28 -12.655969,-0.43866 -10.843973,-0.408 -21.715945,-0.768 -32.531918,-1.68933 -13.267967,-1.132 -36.669242,-3.52666 -44.3078897,-6.85332 -1.6879958,-0.73466 -2.4599938,-2.69999 -1.7239957,-4.38666 0.7346649,-1.68666 2.6986604,-2.45999 4.3866554,-1.72532 4.795988,2.08799 20.970615,4.51198 42.211895,6.32265 13.909298,1.18533 47.025215,2.17466 47.358545,2.18532 1.10933,0.032 1.80267,0.37467 2.00933,1.44933 0.33067,1.724 -0.168,4.80532 -2.11066,5.19066"
       style="clip-rule:evenodd;fill:#000000;fill-rule:nonzero;stroke-width:1.33333;stroke-miterlimit:10"
       id="path648" /><path
       d="m 101.08575,390.72302 c -0.476,0.24933 -1.146664,0.136 -1.953328,0.0827 -0.961331,-0.0613 -1.931996,-0.0613 -2.89466,-0.092 -2.775993,-0.092 -5.550653,-0.188 -8.326646,-0.28934 -11.461304,-0.42133 -22.955942,-0.78266 -34.38658,-1.75866 -13.186634,-1.124 -36.421243,-3.49332 -43.8878907,-6.74665 -0.4906654,-0.21333 -0.8679978,-0.604 -1.0639973,-1.10133 -0.1946662,-0.49733 -0.1853329,-1.04 0.028,-1.53066 0.3186659,-0.72933 1.0399974,-1.20133 1.835995,-1.20133 0.274666,0 0.541332,0.056 0.795998,0.16666 4.921321,2.14266 21.25728,4.60666 42.631894,6.42932 8.814644,0.752 17.670622,1.08266 26.507933,1.44266 5.010655,0.204 10.021309,0.388 15.033296,0.556 1.502663,0.0507 3.005326,0.1 4.507989,0.148 1.967997,0.0613 2.235997,0.47467 1.870657,2.64533 -0.11866,0.70666 -0.35866,1.07066 -0.69866,1.24933"
       style="clip-rule:evenodd;fill:#1a1a1a;fill-opacity:1;fill-rule:nonzero;stroke-width:1.33333;stroke-miterlimit:10"
       id="path649" /><path
       d="m 388.17236,399.96567 c 1.67333,-12.03597 4.81332,-36.03325 4.49066,-44.56523 -0.43867,-11.5733 -1.26533,-52.0852 -2.48,-61.28118 -1.21466,-9.19597 -24.55327,-23.89327 -24.55327,-23.89327 l -21.00128,4.96665 -13.61463,124.77303 z"
       style="clip-rule:evenodd;fill:#242424;fill-rule:nonzero;stroke-width:1.33333;stroke-miterlimit:10"
       id="path5" /><path
       d="m 361.85643,268.11 c 2.69599,1.62266 5.03199,4.17866 7.30265,6.31998 3.13866,2.96133 6.20932,5.99999 9.18931,9.12265 1.36,1.42399 2.70133,2.86532 3.99599,4.34799 0.65466,0.74933 1.28933,1.22799 1.43733,2.25999 0.16133,1.12 -0.0987,2.24933 -0.0507,3.37066 0.0333,0.764 0.007,1.584 0.0933,2.33999 0.35199,3.024 1.00799,6.13865 1.86932,9.05998 0.6,2.03466 1.20933,4.42666 1.29067,6.54798 0.11866,3.12933 -0.40934,6.27332 -1.06933,9.31998 -0.34934,1.61333 -0.576,3.05733 -0.528,4.68666 0.044,1.49599 0.572,2.94799 1.23199,4.27465 0.48667,0.97867 1.20134,2.14933 1.49733,3.18933 0.17334,0.61066 -0.144,1.28666 -0.0133,1.91733 0.12667,0.60666 0.80267,1.37999 0.76667,1.96399 -0.0133,0.20667 -0.33867,0.41467 -0.35067,0.62 -0.0293,0.52666 0.364,0.72 0.36267,1.312 -0.001,0.79066 -0.70534,1.40133 -0.704,2.15466 10e-4,0.62666 0.33066,1.25999 0.208,2.05866 -0.044,0.29066 -0.204,0.7 -0.1,0.99333 0.11333,0.316 0.588,0.43333 0.672,0.788 0.11066,0.47466 -0.368,1.04266 -0.40134,1.52533 -0.0707,1.03466 0.81733,2.21599 1.33867,3.00399 0.11466,0.172 0.432,0.28133 0.43733,0.496 0.009,0.32 -0.42,0.604 -0.58667,0.83333 -0.548,0.752 -0.444,0.98266 -0.53733,1.76533 -0.0533,0.448 -0.23733,0.70266 -0.38933,1.128 -0.224,0.62133 -0.42,1.59466 -0.34533,2.24932 0.17333,1.52267 1.52533,2.49466 2.44666,3.61333 -1.25333,0.80266 -0.44,1.57599 -0.58533,2.62132 -0.0413,0.3 -0.43867,0.73334 -0.62667,0.91867 -1.12533,1.116 -2.56533,1.75999 -4.02399,2.24666 2.14,0.23333 4.29466,0.412 6.44265,0.56667 -1.14133,0.47599 -1.84933,1.73332 -3.15732,1.87066 -0.056,0.68666 0.0573,1.21866 -0.24267,1.85733 -0.076,0.16266 -0.324,-0.0507 -0.384,0.20666 -0.172,0.74933 0.71333,1.28533 0.67333,1.96133 -0.0213,0.35733 -0.252,0.404 -0.40133,0.656 -0.27867,0.472 -0.532,0.97866 -0.83733,1.45733 -0.548,0.85866 -0.82533,0.896 -1.77066,0.32666 -1.792,2.10533 -2.96666,-1.46533 -4.17866,-2.84932 -0.252,1.39599 -1.27733,2.80266 -1.76666,4.16932 -0.296,-0.70266 -0.772,-1.31866 -1.18,-1.95733 -0.168,0.43467 -1.71733,2.724 -2.01066,1.26 -0.83867,0.43333 -1.18933,0.26533 -1.45466,-0.84533 -0.83467,0.38266 -2.44266,-0.776 -2.55333,-1.67066 -0.10267,-0.836 0.76266,-1.724 0.73466,-2.644 -0.49733,-0.0387 -0.57999,-0.45333 -0.60133,-0.78666 -0.11466,-1.82533 1.596,-3.67466 0.92,-5.49466 -0.24667,-0.66266 -0.95466,-1.54399 -0.81466,-2.29999 0.0933,-0.49866 0.73199,-1.29066 0.98666,-1.78933 0.532,-1.036 0.77333,-1.23733 -0.032,-2.01999 1.396,-2.108 -0.524,-4.01999 -0.96933,-5.94932 0.91466,-0.072 1.43466,0.68933 2.40799,0.512 0.22534,-1 -2.05199,-2.04 -2.58532,-2.62 -0.91734,-0.99866 -1.592,-2.48532 -2.09733,-3.72665 0.43733,-0.0773 1.12799,0.15466 1.50133,0.368 -0.316,-0.52534 -0.62933,-0.888 -0.68933,-1.54133 1.25599,0.87066 2.28666,2.14799 3.90532,2.29866 -0.49067,-0.512 -0.632,-1.48133 -0.87067,-2.12 -0.46399,-1.24533 -1.20399,-2.60799 -1.05066,-3.97199 0.89733,0.076 1.06933,1.384 1.588,1.91333 1.15466,1.17733 0.69866,-0.80533 0.90533,-1.52266 0.58133,0.12 0.79066,0.484 1.23466,-0.005 0.284,-0.31333 0.152,-1.29866 0.22933,-1.74266 0.20934,0.12 0.45067,0.264 0.66134,0.392 0.33199,-0.53466 0.50533,-0.73866 0.88933,-1.11066 0.64266,-0.61867 0.60133,-0.78133 0.656,-1.79067 1.02933,10e-4 0.81733,0.116 1.58399,-0.64133 0.91733,-0.90799 2.476,-0.95999 3.03999,-2.43599 0.18667,-0.48667 0.116,-0.972 0.272,-1.45866 0.26667,-0.83467 1.03733,-1.06533 1.33867,-1.82 0.33066,-0.83066 0.0667,-2.78533 0.0627,-3.70532 -0.001,-0.612 -0.0173,-1.13467 -0.35733,-1.656 -1.24,0.52667 -2.20133,1.724 -3.32932,2.48666 -3.204,2.16666 -6.17199,4.90532 -8.89465,7.64798 -1.10666,1.11467 -1.88666,2.33733 -3.32132,2.91866 -2.424,0.984 -3.60666,2.95866 -4.73599,5.33999 -1.83733,3.87466 -1.64133,8.30264 -1.17067,12.48263 0.30134,2.67866 0.19067,5.34399 0.296,8.03865 0.12134,3.12133 0.41467,6.18665 0.0973,9.29731 -0.12667,1.24 -0.38134,2.48666 -0.228,3.71466 0.0707,0.56933 0.18,1.11066 0.12666,1.66399 -0.0493,0.516 -0.21333,0.93333 -0.15466,1.48 0.11066,1.03733 0.596,1.99999 0.62133,3.05333 0.0933,3.77865 -1.796,7.24531 -1.82266,11.0333 -0.008,1.11867 -0.0773,2.29066 0.43466,3.31466 0.74933,1.49866 1.60266,1.64666 3.11466,2.22133 0.96667,0.368 2.05333,-0.152 3.03733,-0.42667 0.65466,-0.18266 1.83866,-0.468 2.29332,-1.00266 -0.208,-0.48933 -0.83066,-0.112 -1.11333,-0.672 -0.20933,-0.41333 0.0293,-0.90133 -0.20533,-1.35733 1.11466,-0.052 2.44399,0.0173 3.28266,-0.60267 -2.03066,-0.20533 -3.82932,-1.70799 -5.67199,-2.45999 0.28667,-0.49333 1.20267,-0.27467 1.71467,-0.43867 -0.21734,-0.66799 -1.512,-0.66399 -1.552,-1.52132 -0.0107,-0.24134 0.25733,-0.60934 0.36267,-0.832 0.20266,-0.424 0.27866,-0.932 0.53999,-1.368 0.10667,-0.18 0.37334,-0.36133 0.43867,-0.53466 0.17467,-0.468 0.016,-0.808 0.38533,-1.252 0.50267,-0.604 0.68267,-0.55333 0.82533,-1.33733 0.0827,-0.45867 -0.092,-0.54533 0.37334,-0.91067 1.00666,-0.78933 2.08666,0.16134 3.03599,0.62 1.13866,0.54933 2.29333,1.07333 3.50666,1.43733 0.89733,0.26934 1.75866,0.34533 2.67999,0.444 1.136,0.12 1.81333,0.66267 2.76799,1.224 0.71067,0.41733 1.34533,0.804 1.48,1.60933 0.252,1.50133 -0.78933,2.24799 -1.432,3.46932 0.39467,0.0827 0.77333,0.007 1.04533,-0.28 -0.99066,1.28533 -2.69199,2.232 -4.15732,2.94 0.27333,0.0293 0.588,0.044 0.86266,-0.0107 0.30134,-0.0613 1.372,-0.764 1.64533,-0.69067 0.504,0.13467 0.15067,0.53334 -0.003,0.93067 0.23466,-0.016 0.516,0.005 0.73866,-0.052 -0.0173,0.23466 0.0427,0.50133 0.0227,0.736 0.90133,-0.15334 0.624,0.24533 0.74933,0.81866 0.0147,0.072 0.43067,1.99333 0.192,1.99333 h 6.25198 c 0.032,-0.80133 0.092,-8.29998 0.0307,-8.31465 0.38933,0.0907 0.94533,-0.14 1.332,-0.0587 0.16266,-0.868 -0.0813,-1.82533 -0.36133,-2.59466 0.33866,0.072 0.85599,-0.12 1.17866,-0.0707 0.112,-2.26666 0.17866,-3.46532 -0.964,-5.23865 0.57733,0.228 1.29733,0.35866 1.996,0.35333 -0.148,-2.58799 -1.692,-5.38932 -1.58133,-7.91731 0.60266,-0.21734 1.07066,-0.668 1.53199,-1.1 -0.19733,-0.272 -0.60133,-1.06267 -0.70933,-1.176 0.016,0.0507 0.31467,0.636 0.412,0.78667 0.84933,0.0373 1.74,0.0493 2.58533,-0.012 0.0853,-2.00667 -0.32267,-4.93599 -1.352,-6.65199 -0.0173,1.24 0.244,3.88133 1.97066,3.37733 -0.672,-2.312 -2.00533,-4.94266 -1.98533,-7.45198 0.28,0.0347 0.49867,-0.0333 0.80934,0.0587 -0.40134,-1.22533 -0.708,-2.57332 -0.80934,-3.78532 0.33067,0.124 0.88534,0.044 1.22,0.20933 -0.10267,-2.36666 0.0173,-5.07199 -1.01733,-7.15865 0.39467,0.27734 0.964,0.20267 1.36533,0.368 0.50667,-3.07599 0.34,-7.16931 -2.13199,-9.41997 0.44399,0.50799 0.78133,0.43066 1.31866,0.60666 0.0947,-1.80933 -0.0773,-3.46799 -0.37067,-5.20265 -0.24933,-1.47867 -2.26132,-5.65332 0.37467,-5.64799 -0.28667,-0.83333 -0.36267,-1.93199 -0.552,-2.78799 0.14933,0.68266 0.70267,1.50799 1.57066,1.58133 0.028,-1.608 -4.70665,-10.66931 -0.61466,-10.01864 0.0587,-1.124 0.11066,-2.296 -0.192,-3.4 1.136,2.08667 1.252,-0.40799 1.04533,-1.46266 -0.492,-2.51066 -1.92,-4.87599 -2.33333,-7.39998 0.53733,0.45867 0.45867,0.192 1.072,0.40133 0.28133,-2.04666 -0.49467,-5.53065 -1.53733,-7.30398 0.556,0.20667 1.10266,-0.064 1.536,-0.0667 -0.53734,-2.20532 -2.07867,-4.05465 -3.39066,-5.87065 0.62266,0.0867 1.34533,-0.10266 1.96933,-0.036 -0.432,-2.29866 -2.86666,-5.26132 -4.61733,-6.89865 0.83334,-0.0453 1.70133,-0.032 2.54933,-0.0173 -1.07333,-1.264 -2.17599,-2.132 -3.42532,-3.13866 -1.52133,-1.22666 -2.18933,-3.55332 -3.296,-5.13199 -1.34799,-1.91999 -2.85866,-3.79065 -4.30532,-5.64665 -2.35599,-3.02132 -4.91332,-7.07865 -8.16531,-9.23998 -3.28533,-2.18399 -12.45597,-1.42666 -12.60264,-1.90132 l -2.25466,1.10666 -0.0333,0.32267 c 1.47333,0.20399 2.81999,0.53599 3.74799,1.09466"
       style="clip-rule:evenodd;fill:#000000;fill-rule:nonzero;stroke-width:1.33333;stroke-miterlimit:10"
       id="path6" /><path
       d="m 386.24052,292.05583 c -1.42,-0.21036 -4.59866,0.44538 -5.69866,1.28158 -0.888,0.67521 -0.40667,0.74402 -0.86667,1.64775 -0.30667,0.5986 -1.21733,1.14266 -1.356,1.82435 -0.52133,2.57355 8.65733,1.73864 10.54933,2.11 0.212,-1.12706 -0.94666,-2.21128 -1.256,-3.23966 -0.34266,-1.13616 0.19067,-2.84105 -1.372,-3.62402"
       style="opacity:0.199997;fill:#000000;fill-opacity:1;fill-rule:nonzero;stroke:none;stroke-width:1.31578"
       id="path15537" /><path
       id="path15571"
       style="fill:#928d82;fill-opacity:1;fill-rule:nonzero;stroke:none;stroke-width:1.31578"
       d="M 148.89258 224.99219 C 148.40591 224.99219 147.65955 225.20969 146.79688 225.46289 C 146.38355 225.58365 145.94094 225.71325 145.46094 225.8418 L 142.37109 226.66016 C 109.72976 235.32612 76.00841 244.28119 45.455078 260.38086 C 56.491078 267.75873 96.928329 295.81072 106.23633 316.66016 C 110.30966 325.78318 137.17403 330.4082 186.08203 330.4082 C 202.05402 330.4082 218.17381 329.96374 232.39648 329.57031 C 243.62581 329.26128 253.32417 328.99219 260.9375 328.99219 C 265.15617 328.99219 268.41381 329.07536 270.89648 329.24805 C 282.87248 330.08037 298.34078 330.32095 313.30078 330.55078 C 335.69678 330.89487 356.85173 331.21948 368.42773 333.35156 C 368.81307 333.42423 369.18768 333.45898 369.54102 333.45898 C 372.40902 333.45898 374.58267 330.95826 376 326.02539 C 380.91467 308.91941 373.43891 272.28112 363.87891 266.62891 C 351.18024 259.11988 310.95665 250.62463 302.33398 248.86133 L 284.83398 291.63086 L 261.97656 299.66016 L 211.83398 278.88086 L 189.47852 261.69336 C 186.58385 259.46909 183.49767 257.22899 180.51367 255.06445 C 170.94701 248.12935 161.05497 240.95767 153.9043 231.84375 C 153.1003 230.81926 152.52156 229.70533 151.96289 228.62891 C 151.46822 227.67583 151.00184 226.77676 150.45117 226.10156 C 149.54717 224.99137 149.12191 224.99219 148.89258 224.99219 z M 116.43359 329.66211 L 112.25 350.55078 C 112.25 350.55078 114.72169 370.09432 101.06836 399.9668 L 363.90625 399.9668 L 368.42773 333.35352 L 116.43359 329.66211 z " /><path
       d="m 350.03506,399.96681 h -5.81467 l 4.91867,-62.79246 5.81466,0.0156 z"
       style="opacity:0.199997;fill:#000000;fill-opacity:1;fill-rule:nonzero;stroke:none;stroke-width:1.31578"
       id="path15581" /><path
       d="m 348.23786,399.96681 h -2.22 l 4.91866,-62.78726 2.22,0.007 z"
       style="opacity:0.199997;fill:#000000;fill-opacity:1;fill-rule:nonzero;stroke:none;stroke-width:1.31578"
       id="path15597" /><path
       d="m 350.43199,399.96681 h -0.86 l 4.91867,-62.77817 0.86,0.003 z"
       style="opacity:0.350006;fill:#000000;fill-opacity:1;fill-rule:nonzero;stroke:none;stroke-width:1.31578"
       id="path15613" /><path
       d="m 344.47826,399.96681 h -0.86 l 4.91866,-62.79375 0.86,0.003 z"
       style="opacity:0.199997;fill:#ffffff;fill-opacity:1;fill-rule:nonzero;stroke:none;stroke-width:1.31578"
       id="path15629" /><path
       d="m 121.6448,399.96681 h -8.29067 l 8.09067,-65.84904 8.29333,0.0156 z"
       style="opacity:0.199997;fill:#000000;fill-opacity:1;fill-rule:nonzero;stroke:none;stroke-width:1.31578"
       id="path15645" /><path
       d="m 119.08213,399.96681 h -3.16533 l 8.092,-65.84385 3.16666,0.005 z"
       style="opacity:0.199997;fill:#000000;fill-opacity:1;fill-rule:nonzero;stroke:none;stroke-width:1.31578"
       id="path15661" /><path
       d="M 122.21066,399.96681 H 120.984 l 8.09466,-65.83475 1.22667,0.003 z"
       style="opacity:0.350006;fill:#000000;fill-opacity:1;fill-rule:nonzero;stroke:none;stroke-width:1.31578"
       id="path15677" /><path
       d="m 113.72186,399.96681 h -1.22666 l 8.09066,-65.85033 1.22667,0.003 z"
       style="opacity:0.199997;fill:#ffffff;fill-opacity:1;fill-rule:nonzero;stroke:none;stroke-width:1.31578"
       id="path15693" /><path
       d="m 152.71906,399.96681 h -8.13466 l 1.296,-63.57543 8.104,-0.39344 z"
       style="opacity:0.199997;fill:#000000;fill-opacity:1;fill-rule:nonzero;stroke:none;stroke-width:1.31578"
       id="path15709" /><path
       d="m 150.20493,399.96681 h -3.10533 l 1.28533,-63.69619 3.09467,-0.15061 z"
       style="opacity:0.199997;fill:#000000;fill-opacity:1;fill-rule:nonzero;stroke:none;stroke-width:1.31578"
       id="path15725" /><path
       d="m 153.27426,399.96681 h -1.20266 l 1.26666,-63.9377 1.19867,-0.0584 z"
       style="opacity:0.350006;fill:#000000;fill-opacity:1;fill-rule:nonzero;stroke:none;stroke-width:1.31578"
       id="path15741" /><path
       d="m 144.94573,399.96681 h -1.20267 l 1.29867,-63.53388 1.19867,-0.0584 z"
       style="opacity:0.199997;fill:#ffffff;fill-opacity:1;fill-rule:nonzero;stroke:none;stroke-width:1.31578"
       id="path15757" /><path
       d="m 185.3744,399.96681 h -8.89867 l -5.06267,-63.57543 8.88134,-0.39344 z"
       style="opacity:0.199997;fill:#000000;fill-opacity:1;fill-rule:nonzero;stroke:none;stroke-width:1.31578"
       id="path15773" /><path
       d="m 182.62386,399.96681 h -3.39733 l -5.068,-63.69619 3.39067,-0.15061 z"
       style="opacity:0.199997;fill:#000000;fill-opacity:1;fill-rule:nonzero;stroke:none;stroke-width:1.31578"
       id="path15789" /><path
       d="m 185.98186,399.96681 h -1.316 l -5.07866,-63.9377 1.31333,-0.0584 z"
       style="opacity:0.350006;fill:#000000;fill-opacity:1;fill-rule:nonzero;stroke:none;stroke-width:1.31578"
       id="path15805" /><path
       d="m 176.87,399.96681 h -1.316 l -5.06134,-63.53388 1.31334,-0.0584 z"
       style="opacity:0.199997;fill:#ffffff;fill-opacity:1;fill-rule:nonzero;stroke:none;stroke-width:1.31578"
       id="path15821" /><path
       d="m 218.93426,399.96681 h -8.524 l -9.18267,-63.57543 8.49734,-0.39344 z"
       style="opacity:0.199997;fill:#000000;fill-opacity:1;fill-rule:nonzero;stroke:none;stroke-width:1.31578"
       id="path15837" /><path
       d="m 216.29959,399.96681 h -3.25466 l -9.19067,-63.69619 3.244,-0.15061 z"
       style="opacity:0.199997;fill:#000000;fill-opacity:1;fill-rule:nonzero;stroke:none;stroke-width:1.31578"
       id="path15853" /><path
       d="m 219.51613,399.96681 h -1.26134 l -9.20666,-63.9377 1.256,-0.0584 z"
       style="opacity:0.350006;fill:#000000;fill-opacity:1;fill-rule:nonzero;stroke:none;stroke-width:1.31578"
       id="path15869" /><path
       d="m 210.78826,399.96681 h -1.26133 l -9.17867,-63.53388 1.256,-0.0584 z"
       style="opacity:0.199997;fill:#ffffff;fill-opacity:1;fill-rule:nonzero;stroke:none;stroke-width:1.31578"
       id="path15885" /><path
       d="m 251.49266,399.96681 h -10.584 l -11.06533,-63.57543 10.584,-0.39344 z"
       style="opacity:0.199997;fill:#000000;fill-opacity:1;fill-rule:nonzero;stroke:none;stroke-width:1.31578"
       id="path15901" /><path
       d="m 248.22133,399.96681 h -4.04134 l -11.06533,-63.69619 4.04133,-0.15061 z"
       style="opacity:0.199997;fill:#000000;fill-opacity:1;fill-rule:nonzero;stroke:none;stroke-width:1.31578"
       id="path15917" /><path
       d="m 252.21506,399.96681 h -1.56533 l -11.06667,-63.9377 1.56667,-0.0584 z"
       style="opacity:0.350006;fill:#000000;fill-opacity:1;fill-rule:nonzero;stroke:none;stroke-width:1.31578"
       id="path15933" /><path
       d="m 241.37799,399.96681 h -1.56533 l -11.06667,-63.53388 1.56667,-0.0584 z"
       style="opacity:0.199997;fill:#ffffff;fill-opacity:1;fill-rule:nonzero;stroke:none;stroke-width:1.31578"
       id="path15949" /><path
       d="m 327.95573,399.96681 h -5.81334 l 9.31867,-62.79246 5.81466,0.0156 z"
       style="opacity:0.199997;fill:#000000;fill-opacity:1;fill-rule:nonzero;stroke:none;stroke-width:1.31578"
       id="path15965" /><path
       d="m 326.15879,399.96681 h -2.22 l 9.32,-62.78726 2.22,0.007 z"
       style="opacity:0.199997;fill:#000000;fill-opacity:1;fill-rule:nonzero;stroke:none;stroke-width:1.31578"
       id="path15981" /><path
       d="m 328.35253,399.96681 h -0.86 l 9.31999,-62.77817 0.86,0.003 z"
       style="opacity:0.350006;fill:#000000;fill-opacity:1;fill-rule:nonzero;stroke:none;stroke-width:1.31578"
       id="path15997" /><path
       d="m 322.39986,399.96681 h -0.86 l 9.32,-62.79375 0.86,0.003 z"
       style="opacity:0.199997;fill:#ffffff;fill-opacity:1;fill-rule:nonzero;stroke:none;stroke-width:1.31578"
       id="path16013" /><path
       d="m 306.42439,399.96681 h -7.85333 l 13.46667,-62.79246 7.85333,0.0156 z"
       style="opacity:0.199997;fill:#000000;fill-opacity:1;fill-rule:nonzero;stroke:none;stroke-width:1.31578"
       id="path16029" /><path
       d="m 303.99693,399.96681 h -2.99867 l 13.46667,-62.78726 2.99866,0.007 z"
       style="opacity:0.199997;fill:#000000;fill-opacity:1;fill-rule:nonzero;stroke:none;stroke-width:1.31578"
       id="path16045" /><path
       d="m 306.96039,399.96681 h -1.16133 l 13.46667,-62.77817 1.16133,0.003 z"
       style="opacity:0.350006;fill:#000000;fill-opacity:1;fill-rule:nonzero;stroke:none;stroke-width:1.31578"
       id="path16061" /><path
       d="m 298.91906,399.96681 h -1.16133 l 13.46666,-62.79375 1.16134,0.003 z"
       style="opacity:0.199997;fill:#ffffff;fill-opacity:1;fill-rule:nonzero;stroke:none;stroke-width:1.31578"
       id="path16077" /><path
       d="m 280.10826,399.96681 h -10.688 l 17.132,-62.79246 10.688,0.0156 z"
       style="opacity:0.199997;fill:#000000;fill-opacity:1;fill-rule:nonzero;stroke:none;stroke-width:1.31578"
       id="path16093" /><path
       d="m 276.80479,399.96681 h -4.08 l 17.13067,-62.78726 4.08133,0.007 z"
       style="opacity:0.199997;fill:#000000;fill-opacity:1;fill-rule:nonzero;stroke:none;stroke-width:1.31578"
       id="path16109" /><path
       d="m 280.83773,399.96681 h -1.58134 l 17.132,-62.77817 1.58134,0.003 z"
       style="opacity:0.350006;fill:#000000;fill-opacity:1;fill-rule:nonzero;stroke:none;stroke-width:1.31578"
       id="path16125" /><path
       d="m 269.89479,399.96681 h -1.58133 l 17.132,-62.79375 1.58133,0.003 z"
       style="opacity:0.199997;fill:#ffffff;fill-opacity:1;fill-rule:nonzero;stroke:none;stroke-width:1.31578"
       id="path16141" /><path
       d="m 377.99679,315.58882 c -0.28667,0 -0.57867,-0.0363 -0.868,-0.11168 -8.57733,-2.24893 -36.35333,-3.98369 -65.76,-5.81842 -16.09333,-1.00501 -32.316,-2.99685 -47.99733,-3.32536 -59.94,-1.26081 -136.49066,-2.58654 -167.331996,-1.51141 -1.253333,0.0441 -1.973333,0.0675 -2.1,0.0675 -1.841333,0 -3.333333,-1.45298 -3.333333,-3.24615 0,-1.78669 1.481333,-3.23578 3.313333,-3.24617 0.176,-0.003 0.817334,-0.026 1.881334,-0.0623 30.957332,-1.08032 107.766662,0.39214 168.069332,1.65944 15.62133,0.32721 31.86133,2.18273 47.92533,3.18514 31.03866,1.9373 57.84533,3.61103 67.06533,6.02747 1.77867,0.46615 2.83067,2.24764 2.35333,3.9785 -0.40133,1.44909 -1.74666,2.40346 -3.21733,2.40346"
       style="opacity:0.199997;fill:#000000;fill-opacity:1;fill-rule:nonzero;stroke:none;stroke-width:1.31578"
       id="path16161" /><path
       d="m 378.18879,316.31414 c -0.0587,0 -0.116,-0.008 -0.176,-0.0234 -8.83867,-2.31647 -36.74,-4.05771 -66.28133,-5.90153 -6.02667,-0.37655 -12.18133,-0.90114 -18.13333,-1.40754 -9.888,-0.84399 -20.112,-1.71527 -29.97734,-1.92302 -61.032,-1.28289 -105.33199,-1.90615 -135.43199,-1.90615 -13.716,0 -24.5,0.13375 -32.053336,0.39733 -1.164,0.0402 -1.852,0.0636 -2.014666,0.065 -0.357334,0 -0.656,-0.29086 -0.656,-0.64924 0,-0.35578 0.297333,-0.64664 0.662666,-0.64923 0.164,-0.003 1.96,-0.065 1.96,-0.065 7.095996,-0.24671 17.119996,-0.37266 29.791996,-0.37266 36.424,0 90.26267,1.02838 138.12533,2.03339 9.88534,0.20776 20.25734,1.05046 30.28667,1.8672 5.74533,0.46745 11.68533,0.95048 17.52533,1.31404 30.896,1.92822 57.57867,3.59416 66.54267,5.94437 0.22133,0.0572 0.34266,0.19607 0.40533,0.30255 0.0627,0.10647 0.12533,0.27787 0.0653,0.49211 -0.0907,0.33111 -0.396,0.48174 -0.64133,0.48174"
       style="opacity:0.199997;fill:#ffffff;fill-opacity:1;fill-rule:nonzero;stroke:none;stroke-width:1.31578"
       id="path16177" /><path
       d="m 377.45732,309.6351 c -0.0587,0 -0.116,-0.008 -0.176,-0.0234 -8.83866,-2.31646 -36.74133,-4.0577 -66.28133,-5.90152 -6.02666,-0.37656 -12.18133,-0.90114 -18.13333,-1.40754 -9.888,-0.844 -20.112,-1.71527 -29.97733,-1.92302 -61.032,-1.28289 -105.332,-1.90615 -135.432,-1.90615 -13.716,0 -24.5,0.13375 -32.053332,0.39733 -1.164,0.0402 -1.852,0.0636 -2.014667,0.065 -0.357333,0 -0.656,-0.29086 -0.656,-0.64923 0,-0.35578 0.297333,-0.64664 0.662667,-0.64923 0.164,-0.003 1.96,-0.065 1.96,-0.065 7.096002,-0.24671 17.120002,-0.37267 29.792002,-0.37267 36.424,0 90.26266,1.02839 138.12533,2.0334 9.88533,0.20776 20.25733,1.05046 30.28666,1.8672 5.74534,0.46744 11.68534,0.95047 17.52534,1.31404 30.89599,1.92822 57.57866,3.59415 66.54266,5.94437 0.22133,0.0572 0.34267,0.19607 0.40533,0.30255 0.0627,0.10647 0.12534,0.27787 0.0653,0.49211 -0.0907,0.33111 -0.396,0.48174 -0.64134,0.48174"
       style="opacity:0.350006;fill:#000000;fill-opacity:1;fill-rule:nonzero;stroke:none;stroke-width:1.31578"
       id="path16193" /><path
       d="m 377.99679,313.64112 c -0.116,0 -0.23467,-0.0156 -0.34933,-0.0455 -8.77467,-2.30088 -36.644,-4.03952 -66.15067,-5.88075 -6.03466,-0.37655 -12.19333,-0.90113 -18.148,-1.40883 -9.87733,-0.84271 -20.09066,-1.71397 -29.93466,-1.92043 -61.02667,-1.28289 -105.32133,-1.90615 -135.41733,-1.90615 -13.70667,0 -24.484,0.13375 -32.028002,0.39604 -1.188,0.0416 -1.882667,0.065 -2.033334,0.0662 -0.730666,0 -1.329333,-0.58171 -1.329333,-1.29846 0,-0.71157 0.594667,-1.29458 1.325333,-1.29847 0.156,-9.8e-4 1.94,-0.0636 1.94,-0.0636 7.103996,-0.24801 17.135996,-0.37395 29.815996,-0.37395 36.43067,0 90.27467,1.02838 138.14,2.03339 9.90533,0.20775 20.28667,1.05305 30.328,1.86849 5.74133,0.46745 11.67867,0.95048 17.512,1.31405 30.932,1.93082 57.644,3.59674 66.67333,5.96514 0.34533,0.0909 0.632,0.30515 0.80933,0.60509 0.17867,0.30124 0.22534,0.65053 0.132,0.98554 -0.156,0.56612 -0.68533,0.96216 -1.28533,0.96216"
       style="opacity:0.199997;fill:#000000;fill-opacity:1;fill-rule:nonzero;stroke:none;stroke-width:1.31578"
       id="path16209" /><path
       d="m 377.84066,299.88415 c -0.30934,-0.0246 -0.62134,-0.0831 -0.93334,-0.1805 -9.208,-2.88259 -39.064,-6.87796 -70.67333,-11.10836 -17.29866,-2.31516 -38.376,-6.51699 -54.85333,-6.14823 -62.98,1.40623 -139.89733,4.62773 -172.302662,6.8494 -1.317333,0.0896 -2.073333,0.14024 -2.206667,0.14543 -1.934666,0.0688 -3.502666,-1.30625 -3.502666,-3.07217 0,-1.75812 1.557333,-3.24226 3.482666,-3.32017 0.184,-0.0104 0.857334,-0.0572 1.976,-0.13374 32.527999,-2.22947 109.715999,-7.70379 173.077329,-9.11912 16.41467,-0.36747 37.564,6.29236 54.832,8.60362 33.364,4.46543 62.17866,8.32187 72.07733,11.42 1.908,0.59729 3.028,2.39827 2.50267,4.02265 -0.44134,1.35949 -1.89467,2.16453 -3.476,2.04119"
       style="opacity:0.199997;fill:#000000;fill-opacity:1;fill-rule:nonzero;stroke:none;stroke-width:1.31578"
       id="path16225" /><path
       d="m 378.04226,300.59778 c -0.064,-0.005 -0.12534,-0.0168 -0.18934,-0.0363 -9.488,-2.96959 -39.48,-6.98314 -71.23333,-11.23301 -6.47866,-0.86738 -13.09333,-1.88797 -19.49066,-2.8748 -10.62667,-1.63997 -25.12,-3.26305 -35.48667,-3.03193 -64.12666,1.43221 -107.156,3.85385 -138.784,4.98741 -14.410662,0.51679 -25.742662,1.05565 -33.678662,1.59971 -1.224,0.0831 -1.946667,0.13244 -2.117333,0.14023 -0.376,0.0129 -0.689334,-0.26229 -0.689334,-0.61547 0,-0.34928 0.312,-0.64793 0.696,-0.66352 0.172,-0.009 2.058667,-0.13763 2.058667,-0.13763 7.457333,-0.5103 17.989333,-1.01151 31.304002,-1.48934 38.27333,-1.37248 91.32399,-4.27844 141.61466,-5.40161 10.38667,-0.23243 25.05733,1.88926 35.83733,3.51494 6.17334,0.931 12.55867,1.89316 18.836,2.73327 33.21067,4.44465 61.89067,8.2829 71.516,11.29404 0.236,0.074 0.36533,0.21815 0.432,0.32592 0.068,0.10777 0.13333,0.27787 0.068,0.47913 -0.1,0.31033 -0.43067,0.42979 -0.69333,0.40902"
       style="opacity:0.199997;fill:#ffffff;fill-opacity:1;fill-rule:nonzero;stroke:none;stroke-width:1.31578"
       id="path16241" /><path
       d="m 377.30092,294.11351 c -0.064,-0.005 -0.12533,-0.0169 -0.18933,-0.0363 -9.488,-2.96958 -39.48,-6.98313 -71.23333,-11.23301 -6.47867,-0.86737 -13.09333,-1.88797 -19.49067,-2.8748 -10.62666,-1.63996 -25.14666,-5.82881 -35.51333,-5.59638 -64.128,1.4309 -107.15733,6.35338 -138.784,7.48694 -14.411996,0.5168 -25.742662,1.05566 -33.678662,1.59972 -1.224,0.0831 -1.948,0.13244 -2.118667,0.14023 -0.374666,0.0129 -0.689333,-0.2623 -0.689333,-0.61547 0,-0.34929 0.312,-0.64794 0.696,-0.66352 0.173333,-0.009 2.06,-0.13764 2.06,-0.13764 7.456,-0.51159 17.988,-1.0128 31.304002,-1.48933 38.272,-1.37249 91.32399,-6.77799 141.61466,-7.90117 10.38667,-0.23242 25.084,4.45374 35.864,6.07942 6.17333,0.931 12.55867,1.89316 18.836,2.73327 33.21066,4.44464 61.89066,8.2829 71.516,11.29404 0.236,0.074 0.36533,0.21814 0.432,0.32592 0.0667,0.10776 0.13333,0.27787 0.068,0.47913 -0.1,0.31033 -0.43067,0.42979 -0.69334,0.40902"
       style="opacity:0.350006;fill:#000000;fill-opacity:1;fill-rule:nonzero;stroke:none;stroke-width:1.31578"
       id="path16257" /><path
       d="m 377.85386,298.0111 c -0.12534,-0.0104 -0.252,-0.0338 -0.37467,-0.0727 -9.42,-2.94752 -39.37733,-6.95718 -71.09466,-11.20186 -6.48667,-0.86738 -13.10534,-1.88927 -19.50534,-2.8761 -10.616,-1.63866 -25.11066,-4.29662 -35.45333,-4.06549 -64.12266,1.43221 -107.14666,4.85626 -138.76933,5.98982 -14.402666,0.51678 -25.725332,1.05435 -33.653332,1.59711 -1.248,0.0857 -1.977333,0.13503 -2.136,0.14153 -0.768,0.0273 -1.397333,-0.52328 -1.397333,-1.22835 0,-0.70117 0.625333,-1.29716 1.393333,-1.32832 0.164,-0.008 2.038667,-0.13634 2.038667,-0.13634 7.464,-0.5116 18.003999,-1.01281 31.327995,-1.49064 38.28,-1.37248 91.336,-5.76908 141.62933,-6.89225 10.408,-0.23243 25.112,3.45391 35.904,5.07959 6.17067,0.931 12.552,1.89316 18.82267,2.73197 33.248,4.44983 61.96266,8.292 71.656,11.3252 0.36933,0.11687 0.676,0.34669 0.86533,0.65054 0.18933,0.30384 0.23733,0.64534 0.136,0.95957 -0.17333,0.53107 -0.744,0.86737 -1.38933,0.81673"
       style="opacity:0.199997;fill:#000000;fill-opacity:1;fill-rule:nonzero;stroke:none;stroke-width:1.31578"
       id="path16273" /><path
       d="m 370.33639,280.88488 c -0.324,-0.0441 -0.65333,-0.11557 -0.98133,-0.21685 -9.68267,-2.97738 -41.07333,-8.54129 -74.30667,-14.43113 -18.188,-3.22409 -36.368,-2.36061 -52.852,-3.17085 -63.00799,-3.09944 -144.938659,7.09351 -177.501325,13.21966 -1.324,0.24931 -2.084,0.39085 -2.218667,0.41291 -1.944,0.31684 -3.518666,-0.52587 -3.517333,-1.88277 0,-1.3517 1.565333,-2.7034 3.5,-3.02672 0.185333,-0.0324 0.862667,-0.161 1.986667,-0.37135 32.686666,-6.14954 114.241328,-19.97299 177.629328,-16.85537 16.42133,0.80764 35.34267,3.76164 53.49867,6.97924 35.07866,6.21705 65.37466,11.5875 75.78266,14.78691 2.00667,0.61807 3.18533,2.08924 2.63333,3.28771 -0.46266,1.00243 -1.992,1.49584 -3.65333,1.26861"
       style="opacity:0.199997;fill:#000000;fill-opacity:1;fill-rule:nonzero;stroke:none;stroke-width:1.31578"
       id="path16289" /><path
       d="m 370.54866,281.4475 c -0.0667,-0.009 -0.132,-0.0234 -0.19867,-0.0441 -9.97733,-3.06827 -41.51066,-8.65686 -74.896,-14.57396 -6.812,-1.20628 -13.352,1.0933 -20.02533,0.26229 -11.08533,-1.38157 -22.52533,-2.53461 -32.89733,-3.04491 -64.15467,-3.15527 -112.00533,4.43427 -143.898666,6.77669 -14.533333,1.06734 -25.861332,4.49529 -33.837332,5.99631 -1.229334,0.23113 -1.956,0.36617 -2.128,0.39604 -0.376,0.0611 -0.692,-0.10778 -0.692,-0.37786 0,-0.27008 0.314666,-0.54146 0.7,-0.60638 0.173333,-0.0299 2.069333,-0.38565 2.069333,-0.38565 7.493333,-1.41013 18.014666,-4.8173 31.441333,-5.80283 38.596002,-2.83455 96.320002,-10.00208 146.631992,-7.52721 10.392,0.5103 22.15067,2.36581 33.396,3.73829 6.44134,0.78557 12.744,-1.53219 19.344,-0.36227 34.91734,6.18718 65.07333,11.53166 75.19333,14.64408 0.248,0.0766 0.384,0.19737 0.45467,0.28436 0.0707,0.0883 0.14,0.22464 0.072,0.37266 -0.10533,0.22854 -0.452,0.29216 -0.72933,0.2545"
       style="opacity:0.199997;fill:#ffffff;fill-opacity:1;fill-rule:nonzero;stroke:none;stroke-width:1.31578"
       id="path16305" /><path
       d="m 369.76586,276.4266 c -0.0667,-0.009 -0.132,-0.0234 -0.19867,-0.0441 -9.97733,-3.06827 -41.51066,-8.65687 -74.896,-14.57397 -6.812,-1.20627 -13.35066,1.1076 -20.02266,0.27657 -11.08667,-1.38156 -23.192,-6.51699 -33.56267,-7.02729 -64.15466,-3.15527 -111.33066,8.44522 -143.225329,10.78635 -14.532,1.06734 -25.858666,4.54592 -33.833333,6.04695 -1.230666,0.23113 -1.957333,0.36747 -2.129333,0.39734 -0.376,0.0611 -0.692,-0.10778 -0.692,-0.37916 0.0013,-0.26879 0.314667,-0.54016 0.7,-0.60508 0.173333,-0.0299 2.069333,-0.38694 2.069333,-0.38694 7.493334,-1.40884 18.012,-4.86666 31.44,-5.85349 38.594662,-2.83324 95.645332,-14.01173 145.957332,-11.53686 10.39066,0.5103 22.81466,6.3482 34.06,7.72067 6.44133,0.78558 12.74266,-1.54647 19.34266,-0.37654 34.91734,6.18718 65.07333,11.53166 75.192,14.64408 0.24933,0.0766 0.38533,0.19737 0.456,0.28436 0.0707,0.0883 0.14,0.22464 0.072,0.37266 -0.10533,0.22853 -0.452,0.29216 -0.72933,0.2545"
       style="opacity:0.350006;fill:#000000;fill-opacity:1;fill-rule:nonzero;stroke:none;stroke-width:1.31578"
       id="path16321" /><path
       d="m 370.34919,279.45358 c -0.132,-0.0182 -0.26533,-0.0467 -0.39467,-0.087 -9.90533,-3.0462 -41.40266,-8.6283 -74.74933,-14.53761 -6.82,-1.20887 -13.364,1.09201 -20.04133,0.25969 -11.07333,-1.37896 -22.772,-4.12911 -33.12,-4.63811 -64.15066,-3.15527 -111.724,6.03007 -143.613329,8.3725 -14.524,1.06604 -25.843999,4.50308 -33.810666,6.0015 -1.253333,0.23632 -1.988,0.37396 -2.146667,0.39993 -0.772,0.12595 -1.402666,-0.21165 -1.402666,-0.75311 0,-0.53887 0.628,-1.08162 1.4,-1.21017 0.165333,-0.0285 2.048,-0.38304 2.048,-0.38304 7.501333,-1.41144 18.030666,-4.8277 31.466666,-5.81453 38.601332,-2.83455 95.928002,-12.36138 146.242662,-9.88651 10.41333,0.51159 22.59867,4.75108 33.856,6.12356 6.43867,0.78557 12.73867,-1.5192 19.332,-0.35059 34.95733,6.19628 65.14666,11.54595 75.34,14.68045 0.388,0.11945 0.712,0.32201 0.91066,0.57002 0.19867,0.24931 0.24934,0.5129 0.14267,0.74532 -0.18133,0.39084 -0.78133,0.59989 -1.46,0.5077"
       style="opacity:0.199997;fill:#000000;fill-opacity:1;fill-rule:nonzero;stroke:none;stroke-width:1.31578"
       id="path16337" /><path
       d="m 299.10986,251.11576 c 31.25333,7.02729 58.24533,13.09501 67.51866,16.12693 1.788,0.58431 2.83867,1.70098 2.34534,2.49435 -0.412,0.66482 -1.77334,0.89204 -3.25467,0.60508 -0.28933,-0.0558 -0.58133,-0.12984 -0.87333,-0.22593 -8.62667,-2.81896 -36.59467,-9.10743 -66.204,-15.76466 z"
       style="opacity:0.199997;fill:#000000;fill-opacity:1;fill-rule:nonzero;stroke:none;stroke-width:1.31578"
       id="path16353" /><path
       d="m 299.09613,254.14936 c 31.10933,6.99353 57.97599,13.03529 66.99199,15.9815 0.22267,0.0728 0.344,0.16751 0.40667,0.23373 0.0627,0.0675 0.124,0.1675 0.064,0.26488 -0.0947,0.15192 -0.404,0.17011 -0.65067,0.12206 -0.0587,-0.0117 -0.11733,-0.026 -0.176,-0.0455 -8.88933,-2.90597 -36.98533,-9.2217 -66.72933,-15.9101 z"
       style="opacity:0.199997;fill:#ffffff;fill-opacity:1;fill-rule:nonzero;stroke:none;stroke-width:1.31578"
       id="path16369" /><path
       d="m 298.39919,250.58599 c 31.10934,6.99352 57.976,13.03528 66.992,15.98149 0.22267,0.0727 0.344,0.16751 0.40667,0.23373 0.0627,0.0675 0.124,0.1675 0.064,0.26488 -0.0947,0.15192 -0.404,0.17011 -0.65067,0.12207 -0.0587,-0.0117 -0.11733,-0.026 -0.176,-0.0455 -8.88933,-2.90597 -36.98533,-9.22169 -66.72933,-15.91009 z"
       style="opacity:0.350006;fill:#000000;fill-opacity:1;fill-rule:nonzero;stroke:none;stroke-width:1.31578"
       id="path16385" /><path
       d="m 298.96906,252.08662 c 31.14533,7.00262 58.04266,13.04957 67.124,16.01786 0.34666,0.11297 0.63466,0.27917 0.812,0.46745 0.17733,0.18827 0.22266,0.37656 0.12666,0.53107 -0.16133,0.2584 -0.696,0.35837 -1.3,0.24282 -0.11733,-0.0234 -0.236,-0.0545 -0.352,-0.0922 -8.82533,-2.88388 -36.88666,-9.19313 -66.59733,-15.87243 z"
       style="opacity:0.199997;fill:#000000;fill-opacity:1;fill-rule:nonzero;stroke:none;stroke-width:1.31578"
       id="path16401" /><path
       d="m 226.96053,246.62696 c -65.69333,-1.24003 -137.895999,14.039 -169.769331,19.10951 -1.302667,0.20646 -2.049334,0.32461 -2.181334,0.3415 -1.913333,0.2545 -3.485333,-0.65053 -3.514666,-2.02302 -0.028,-1.36728 1.489333,-2.68132 3.392,-2.94231 0.182666,-0.0273 0.848,-0.13374 1.953333,-0.30903 31.943999,-5.0809 104.575998,-21.66619 170.666658,-20.41966 z"
       style="opacity:0.199997;fill:#000000;fill-opacity:1;fill-rule:nonzero;stroke:none;stroke-width:1.31578"
       id="path16417" /><path
       d="m 227.23413,247.34164 c -66.90133,-1.2634 -105.36267,7.38956 -136.635999,12.61589 -14.250666,2.38138 -25.451999,5.07439 -33.295999,6.32092 -1.209333,0.19347 -1.924,-0.10648 -2.092,-0.074 -0.372,0.0662 -0.686667,0.27139 -0.692,-0.003 -0.0053,-0.27268 0.298667,-0.53627 0.677333,-0.5882 0.170667,-0.0246 2.036,-0.32073 2.036,-0.32073 7.369333,-1.17251 17.781333,-3.95512 30.946666,-6.15602 37.843999,-6.32482 87.010669,-13.91435 139.477329,-12.92362 z"
       style="opacity:0.199997;fill:#ffffff;fill-opacity:1;fill-rule:nonzero;stroke:none;stroke-width:1.31578"
       id="path16433" /><path
       d="m 226.43226,240.76466 c -66.90133,-1.26341 -105.42666,7.68301 -136.698662,12.90933 -14.250667,2.38138 -25.452,6.34689 -33.295999,7.59473 -1.209334,0.19217 -1.924,0.30513 -2.093334,0.3285 -0.370666,0.0494 -0.685333,-0.13114 -0.690666,-0.40512 -0.0053,-0.27267 0.297333,-0.53756 0.677333,-0.5895 0.170667,-0.0246 2.036,-0.32072 2.036,-0.32072 7.369333,-1.17121 17.781333,-5.22762 30.946666,-7.42852 37.844002,-6.32481 87.073332,-14.2078 139.539992,-13.21707 z"
       style="opacity:0.350006;fill:#000000;fill-opacity:1;fill-rule:nonzero;stroke:none;stroke-width:1.31578"
       id="path16449" /><path
       d="m 227.00786,244.7094 c -66.89733,-1.26342 -105.38266,7.48953 -136.651996,12.71586 -14.239999,2.38008 -25.434666,5.5847 -33.269332,6.83122 -1.233333,0.19607 -1.954667,0.30903 -2.112,0.33111 -0.758667,0.10128 -1.389333,-0.26099 -1.401333,-0.80895 -0.01067,-0.54535 0.597333,-1.07383 1.357333,-1.1777 0.162667,-0.0234 2.014667,-0.31813 2.014667,-0.31813 7.377333,-1.17251 17.797332,-4.72251 30.971999,-6.92471 37.850662,-6.32612 87.073332,-14.04679 139.542662,-13.05606 z"
       style="opacity:0.199997;fill:#000000;fill-opacity:1;fill-rule:nonzero;stroke:none;stroke-width:1.31578"
       id="path16465" /><path
       d="m 172.7344,235.73025 c -44.16267,-0.46095 -92.370669,12.18998 -113.784001,18.96407 -0.617334,0.19477 -2.901334,0.91542 -1.953334,-0.6687 0.388,-0.64794 1.412,-0.91542 2.081334,-1.19589 1.495999,-0.62586 2.873333,-1.35819 4.258666,-2.14377 2.182667,-1.23873 4.473333,-2.0256 6.868,-2.80598 2.350667,-0.76479 4.785333,-0.97255 7.013333,-2.09442 0.664,-0.33501 1.061333,-0.39603 1.826667,-0.63365 1.485333,-0.46096 2.998666,-1.14524 4.422666,-1.78279 2.322667,-1.04137 4.906667,-1.56206 7.28,-2.56577 1.182667,-0.5012 2.652,-0.92191 3.936,-1.23614 0.588,-0.14283 1.130667,-0.38954 1.68,-0.63365 2.596,-1.14914 5.625329,-1.46336 8.413329,-2.00613 3.04534,-0.59339 6.09867,-1.15563 9.156,-1.6854 6.37867,-1.105 12.784,-2.06976 19.20934,-2.86831 13.21333,-1.64256 26.54,-2.61251 39.86533,-2.47358 z"
       style="opacity:0.199997;fill:#000000;fill-opacity:1;fill-rule:nonzero;stroke:none;stroke-width:1.31578"
       id="path16481" /><path
       d="m 172.92893,236.39415 c -44.96667,-0.47004 -70.69333,7.04547 -91.618665,12.64186 -9.536,2.55018 -17.029333,4.68356 -22.273333,6.343 -0.809333,0.2558 -1.286667,0.40641 -1.4,0.43758 -0.248,0.0662 -0.462667,-0.15841 -0.472,-0.5051 -0.0093,-0.3441 0.189333,-0.6804 0.442667,-0.75052 0.114666,-0.0338 1.361333,-0.42719 1.361333,-0.42719 4.926666,-1.55816 11.892,-3.54351 20.702666,-5.90022 25.322662,-6.7715 58.258662,-13.26512 93.522662,-12.89765 z"
       style="opacity:0.199997;fill:#ffffff;fill-opacity:1;fill-rule:nonzero;stroke:none;stroke-width:1.31578"
       id="path16497" /><path
       d="m 172.29133,230.26566 c -0.0813,0.32332 -10.99733,0.0402 -12.10267,0.065 -11.368,0.24672 -22.728,1.04397 -33.99333,2.56058 -4.65867,0.62716 -9.3,1.37637 -13.91733,2.24634 -2.116,0.39863 -4.22534,0.82323 -6.33067,1.2712 -0.96267,0.20515 -5.30533,1.73994 -5.963999,1.07513 1.426669,-1.62698 5.165329,-1.66464 7.177329,-2.05158 2.69467,-0.51679 5.39467,-1.00631 8.1,-1.46467 5.624,-0.95307 11.272,-1.7763 16.93734,-2.45929 13.38266,-1.61269 26.87333,-2.44111 40.35866,-2.30088 0,0 -0.264,1.05565 -0.26533,1.05825"
       style="opacity:0.350006;fill:#000000;fill-opacity:1;fill-rule:nonzero;stroke:none;stroke-width:1.31578"
       id="path16513" /><path
       d="m 172.73733,233.94044 c -44.964,-0.47003 -70.708,6.95069 -91.630665,12.54707 -2.48,0.66352 -4.958667,1.33482 -7.433334,2.01781 -1.146666,0.31683 -2.293333,0.63626 -3.439999,0.95827 -0.821334,0.23113 -1.976,0.85309 -2.776,0.31163 0.568,-0.78427 1.808,-0.95177 2.669333,-1.32054 1.692,-0.72324 3.232,-1.42051 4.838666,-2.33853 0.661334,-0.37785 1.376,-0.64924 2.037334,-0.94529 2.897333,-1.29975 6.409333,-1.79577 9.504,-2.56706 3.394666,-0.8453 6.801333,-1.64905 10.218666,-2.40735 11.919999,-2.64757 23.970669,-4.75498 36.105329,-6.21705 13.32134,-1.60491 26.74934,-2.43073 40.17467,-2.29049 z"
       style="opacity:0.199997;fill:#000000;fill-opacity:1;fill-rule:nonzero;stroke:none;stroke-width:1.31578"
       id="path16529" /><path
       id="path16539"
       style="fill:#3d3d3d;fill-opacity:1;fill-rule:nonzero;stroke:none;stroke-width:1.31578"
       d="M 190.61914 191.12891 C 190.08848 191.12891 189.41612 191.2362 188.68945 191.42578 C 186.49346 192.35418 178.99245 206.03646 171.20312 217.01367 L 170.49609 217.16992 C 170.49609 217.16992 169.63207 216.51749 168.43555 217.44922 L 160.62305 215.7207 L 153.0293 217.89258 L 153.9043 231.84375 L 209.02539 279.22852 L 261.97461 299.66016 L 288.01758 283.30469 L 300.57227 248.15234 L 278.08203 237.69727 C 277.08838 236.23888 276.07088 234.68497 275.03516 232.7832 C 273.61116 234.31669 273.0611 234.48066 270.88477 237.62695 C 269.01129 240.15066 268.98011 241.35962 267.41211 242.61523 C 265.615 241.20984 263.76196 239.87487 261.92578 238.54492 C 260.02178 237.41005 257.90931 236.60415 255.80664 235.90039 C 226.11867 225.96195 193.6733 196.31551 192.30664 195.05859 L 191.57617 194.38477 L 191.69531 193.41211 C 191.84331 192.19935 191.68009 191.53459 191.49609 191.33203 C 191.38142 191.20606 191.05381 191.12891 190.61914 191.12891 z " /><path
       d="m 150.11586,224.12613 c 0.27067,-0.82323 -1.252,-1.20757 -5.18133,-0.1636 -19.45467,5.16919 -38.95867,10.25916 -57.999999,16.76057 -9.628,3.28772 -19.131999,6.93251 -28.394666,11.10448 -4.221333,1.90095 -9.232,3.65907 -13.101333,6.10668 -2.008,1.27119 -4.504,5.00948 0.202667,5.35617 2.269333,0.1636 3.561333,-2.30349 5.130666,-3.37731 2.224,-1.52051 5.062667,-2.53201 7.538667,-3.67596 5.681333,-2.62549 11.452,-5.06531 17.279999,-7.36229 11.405333,-4.49529 23.033333,-8.43613 34.733329,-12.13545 8.548,-2.7034 17.15334,-5.2393 25.808,-7.59602 3.00534,-0.81674 6.01467,-1.61789 9.03467,-2.37619 2.88133,-0.72454 4.69733,-1.87368 4.94933,-2.64108"
       style="fill:#000000;fill-opacity:1;fill-rule:nonzero;stroke:none;stroke-width:1.31578"
       id="path16571" /><path
       d="m 364.91519,264.96311 c -9.77067,-5.77687 -21.93867,-8.44652 -32.868,-11.26938 -5.952,-1.53868 -11.936,-2.9592 -17.93733,-4.30182 -5.2,-1.16341 -10.67733,-3.50065 -16,-2.08273 -0.91467,4.25767 13.31867,6.03656 16.65733,6.81694 6.60267,1.54387 13.25067,2.90597 19.81867,4.59137 6.60933,1.69449 13.3,3.14099 19.77733,5.28735 3.2,1.05955 6.46933,2.21907 9.436,3.81489 0.52533,0.28307 5.95467,3.47598 5.96533,3.52662 -0.51066,-2.66055 -2.50533,-4.99779 -4.84933,-6.38324"
       style="fill:#000000;fill-opacity:1;fill-rule:nonzero;stroke:none;stroke-width:1.31578"
       id="path16575" /><path
       d="m 360.56186,338.95104 c -8.69067,-2.22686 -63.47333,-3.03451 -98.17733,-3.03451 -6.996,0 -18.26934,-0.0416 -31.19467,-0.0896 l -0.268,-9.8e-4 c -16.62267,-0.0597 -37.30933,-0.13504 -54.29333,-0.13504 -17.00933,0 -27.62267,0.074 -32.448,0.22464 -2.56,0.0805 -36.55867,-2.05936 -46.683999,-16.55543 -10.357333,-14.83106 -41.619999,-51.35038 -64.281332,-52.72935 -0.194666,-0.0117 -0.374666,-0.10517 -0.492,-0.25839 l -3.138666,-4.07588 c -0.121334,-0.15841 -0.162667,-0.35968 -0.110667,-0.55055 0.05067,-0.19347 0.185333,-0.34929 0.372,-0.43109 l 15.170666,-6.62217 c 0.08267,-0.0363 0.178667,-0.0558 0.274667,-0.0558 0.048,0 0.09467,0.004 0.141333,0.0143 0.918667,0.18698 22.846666,4.78224 37.461333,18.50702 6.721333,6.31054 12.749333,14.85573 18.067995,22.39462 6.20667,8.7958 12.068,17.10207 17.3,19.24714 8.29467,3.40197 85.25867,5.05232 124.79733,5.44966 l 1.01867,0.009 0.27733,-0.95437 c 2.536,-8.73867 10.45734,-14.84275 19.26534,-14.84275 9.01733,0 16.99066,6.27418 19.39066,15.25566 l 0.25334,0.94658 1.004,0.0246 c 30.19866,0.73883 76.72933,2.93843 85.54799,5.14841 l 1.19467,0.29995 0.4,-1.13616 c 0.36667,-1.04266 1.36533,-5.65481 -1.16667,-21.23769 -2.68533,-16.52945 -8.376,-37.65417 -11.688,-40.11736 l -0.144,-0.10777 -7.868,-3.06438 c -0.22133,-0.087 -0.37866,-0.28306 -0.412,-0.51289 -0.0333,-0.22983 0.0627,-0.46096 0.25067,-0.60249 l 4.708,-3.56688 c 0.116,-0.0883 0.26133,-0.13634 0.41067,-0.13634 0.0813,0 0.16,0.0143 0.236,0.0416 l 17.78666,6.62347 c 0.17734,0.0662 0.31734,0.20256 0.384,0.37395 0.38667,0.98164 9.48,24.21767 12.06534,37.8139 1.152,6.05473 2.46666,22.72442 -3.2,30.54378 -6.39334,8.82436 -20.04934,8.4543 -22.212,7.89985"
       style="fill:#928d82;fill-opacity:1;fill-rule:nonzero;stroke:none;stroke-width:1.31578"
       id="path16579" /><path
       d="m 361.24092,336.43968 c -12.084,-2.92024 -95.31733,-3.1202 -98.85599,-3.1202 -6.99467,0 -18.264,-0.0416 -31.184,-0.0883 -17.03734,-0.0636 -37.43867,-0.13763 -54.51467,-0.13763 -14.84666,0 -27.176,0.18698 -32.59066,0.22723 -30.036,0.22203 -45.236002,-16.94237 -47.412002,-20.05739 C 84.520931,295.85488 56.016932,266.22391 34.316932,264.11261 l -1.097333,-1.42441 12.276,-5.36006 c 3.668,0.85309 22.827999,5.75349 35.547999,17.69807 6.525333,6.12875 12.473333,14.55968 17.721333,21.99728 2.263999,3.20851 4.542669,6.18719 6.519999,9.01135 6.03867,8.61921 19.136,12.66912 26.39733,13.27291 33.18534,2.76053 109.04,3.51623 112.93467,3.5526 0.90133,-0.0195 1.784,-0.64015 1.97866,-1.55167 1.75867,-8.25693 8.92,-14.24935 17.02534,-14.24935 8.27866,0 15.472,6.14044 17.10533,14.59993 0.17467,0.90373 0.97467,1.56595 1.91867,1.58673 30.032,0.69857 66.28666,1.75942 80.86533,4.20183 10.436,1.74773 11.18933,-6.32612 10.99333,-10.17477 -0.48267,-9.44892 -3.11733,-22.25049 -3.82267,-25.546 -1.804,-8.42963 -6.50266,-28.28185 -11.14666,-30.54378 -0.0493,-0.0234 -0.1,-0.0455 -0.152,-0.065 l -4.60934,-1.79577 1.06667,-0.80765 15.89333,5.9184 c 1.65334,4.28623 9.33467,24.5306 11.61867,36.54529 1.03867,5.46134 1.45333,11.47324 1.46533,16.98132 0.016,6.95587 -7.05866,22.47123 -23.576,18.47974 m 26.044,-36.16872 c -2.61866,-13.77282 -11.744,-37.05688 -12.13066,-38.04112 -0.20267,-0.51679 -0.62267,-0.92581 -1.15334,-1.12317 l -17.78666,-6.62217 c -0.65067,-0.24282 -1.38934,-0.13764 -1.94134,0.28176 l -4.708,3.56558 c -0.56666,0.4285 -0.85333,1.11929 -0.75333,1.81007 0.1,0.69078 0.572,1.27769 1.23733,1.53608 l 7.69867,2.99815 c 2.46667,1.83603 8.07867,20.20281 11.18,39.28895 0.92667,5.69896 1.38933,10.01635 1.56933,13.21577 0.23467,4.18235 -3.692,6.75591 -6.36933,6.43909 -15.90133,-1.87758 -53.58533,-3.58766 -79.82666,-4.2304 -2.536,-9.49178 -10.99867,-16.22562 -20.68,-16.22562 -9.46534,0 -17.868,6.54816 -20.548,15.78674 -36.85067,-0.37006 -88.71067,-1.57245 -112.33867,-3.59675 -6.156,-0.52718 -17.25333,-5.48601 -20.18266,-9.049 -2.712,-3.2981 -5.56267,-7.33762 -8.49067,-11.48751 -5.354666,-7.59083 -11.425332,-16.19315 -18.241332,-22.59459 -14.892,-13.98447 -37.178666,-18.65244 -38.121332,-18.84461 -0.410667,-0.0818 -0.841334,-0.039 -1.228,0.12854 l -15.170667,6.62347 c -0.554666,0.24151 -0.965333,0.71675 -1.117333,1.28938 -0.152,0.57391 -0.028,1.1829 0.336,1.65683 l 3.138667,4.07458 c 0.352,0.45707 0.890666,0.74013 1.474666,0.77519 21.125333,1.28678 50.937332,33.3173 61.666665,49.61563 1.344,2.04249 13.466666,20.23268 49.425336,19.67174 11.572,-0.18179 55.144,-0.20385 86.96133,-0.0883 12.92666,0.048 24.20266,0.0896 31.2,0.0896 34.63333,0 89.19999,1.07383 97.83733,2.99166 23.45466,5.20685 28.76,-16.34637 28.57466,-24.58902 -0.11333,-5.04973 -0.568,-10.38382 -1.512,-15.34655"
       style="fill:#000000;fill-opacity:1;fill-rule:nonzero;stroke:none;stroke-width:1.31578"
       id="path16583" /><path
       d="m 258.50066,320.34171 c -0.668,0 -1.36267,-9.7e-4 -2.08533,-0.004 2.00266,-2.76833 4.50533,-4.33558 7.17066,-4.33558 2.65867,0 5.19867,1.63217 7.22267,4.45633 -4.38,-0.0779 -8.50133,-0.11686 -12.308,-0.11686 m 5.09467,-6.87797 c -4.40134,0 -8.484,2.63589 -10.39867,6.71566 -0.28133,0.6012 -0.23067,1.30106 0.13467,1.8581 0.36533,0.55705 0.99733,0.89594 1.676,0.89855 1.95733,0.009 3.736,0.0143 5.28533,0.0143 3.572,0 7.576,0.0324 11.90133,0.0961 h 0.0307 c 0.67067,0 1.29867,-0.32721 1.668,-0.87257 0.37733,-0.55314 0.43733,-1.25561 0.16133,-1.86329 -1.89066,-4.15899 -5.996,-6.84681 -10.45866,-6.84681"
       style="fill:#000000;fill-opacity:1;fill-rule:nonzero;stroke:none;stroke-width:1.31578"
       id="path16587" /><path
       d="m 41.692399,266.43375 c 0,0 15.069333,5.27825 26.018666,15.94124 10.949333,10.663 28.186666,-4.43425 18.970666,-11.71864 -9.214666,-7.28438 -25.583999,-15.09725 -30.570666,-16.1529 -4.986666,-1.05565 -10.515999,-0.73882 -14.310666,2.9566 -3.793333,3.69544 -8.238667,5.59509 -0.108,8.9737"
       style="fill:#928d82;fill-opacity:1;fill-rule:nonzero;stroke:none;stroke-width:1.31578"
       id="path16591" /><path
       d="m 42.304132,264.92324 c 1.12,0.39733 15.7,5.70416 26.585333,16.30482 4.078667,3.96941 8.557333,3.41497 10.864,2.72678 3.889333,-1.15564 7.161333,-4.2304 7.777333,-7.31036 0.370666,-1.84771 -0.268,-3.43833 -1.898667,-4.7277 -9.32,-7.3675 -25.386666,-14.87651 -29.875999,-15.82699 -3.817333,-0.80765 -9.134666,-1.02838 -12.777333,2.51772 -0.625333,0.60898 -1.268,1.17381 -1.873333,1.70229 -0.858667,0.75181 -2.297334,2.01002 -2.317334,2.46449 0.0013,0 0.212,0.76998 3.516,2.14895 m 33.538666,23.60998 c -3.664,0 -7.152,-1.42961 -9.96,-4.16547 C 55.337465,274.0982 40.624132,268.85629 40.477466,268.80565 l -0.09067,-0.0351 c -3.582667,-1.48933 -5.238667,-2.8722 -5.537333,-4.62773 -0.362667,-2.13078 1.453333,-3.7201 3.377333,-5.40291 0.564,-0.49342 1.162667,-1.0154 1.745333,-1.58282 3.669334,-3.57468 9.296,-4.78096 15.842667,-3.39549 5.490666,1.16343 22.029332,9.17625 31.266665,16.47881 2.588,2.04508 3.678667,4.84068 3.070667,7.87 -0.852,4.25636 -4.996,8.2842 -10.074666,9.79432 -1.418667,0.422 -2.838667,0.62845 -4.234667,0.62845"
       style="fill:#000000;fill-opacity:1;fill-rule:nonzero;stroke:none;stroke-width:1.31578"
       id="path16595" /><path
       d="m 247.83066,302.7544 c -0.368,0 -0.66667,-0.29086 -0.66667,-0.64924 0,-0.92061 0.164,-1.88017 0.48534,-2.84883 l 0.872,-2.62549 -2.63467,1.0193 c -0.096,0.0377 -0.18,0.0572 -0.24133,0.0572 -0.0787,0 -0.15467,-0.0117 -0.22667,-0.0389 -0.708,-0.248 -71.2,-25.51613 -103.83333,-73.16199 -0.30133,-0.44148 -0.36933,-0.96346 -0.196,-1.50622 0.77467,-2.41904 9.50822,-3.87046 20.05755,-7.95673 0.0787,-0.0299 0.16267,-0.0455 0.24667,-0.0455 0.144,0 0.28,0.0441 0.39466,0.12726 l 0.68301,1.83992 c 0.20667,0.14802 0.30667,0.40122 0.25733,0.64534 -0.048,0.24411 -0.24133,0.44147 -0.488,0.5038 -4.7077,-1.63078 -4.00857,-0.50768 -5.51255,0.48926 l 1.08666,1.53089 c 6.96267,9.8112 34.47334,43.83487 96.164,69.70548 0.20133,0.0844 0.34667,0.26618 0.38533,0.48693 l 0.27067,1.5127 1.48667,-0.51029 c 2.06266,-0.70896 4.24533,-1.06864 6.48666,-1.06864 2.23867,0 4.42134,0.35968 6.484,1.06734 l 1.48934,0.5103 0.268,-1.51401 c 0.0213,-0.12466 0.076,-0.23633 0.15733,-0.32462 0.25733,-0.27527 25.61333,-27.84298 20.37733,-49.73509 -0.0613,-0.2506 0.0373,-0.5129 0.24934,-0.66741 0.116,-0.0844 0.25466,-0.12855 0.4,-0.12855 0.11466,0 0.228,0.0285 0.32933,0.0844 l 12.468,6.88186 c 0.19867,0.10907 0.324,0.30774 0.33733,0.52977 0.056,0.97385 1.072,24.16703 -24.96533,51.02188 -0.172,0.17658 -0.37867,0.20385 -0.48533,0.20385 l -0.13467,-0.0441 -2.092,-0.40383 0.544,2.00873 c 0.21067,0.77778 0.31733,1.56984 0.31733,2.35411 0,0.35838 -0.29866,0.64924 -0.66666,0.64924 z"
       style="fill:#928d82;fill-opacity:1;fill-rule:nonzero;stroke:none;stroke-width:1.31578"
       id="path16599"
       sodipodi:nodetypes="sscccsccccsccccccscccsccccccscccccccssss" /><path
       d="m 301.47506,261.98131 c -2.536,7.92583 -9.73867,21.41298 -21.96933,34.45086 l -6.49867,-5.41199 c 2.22267,-2.57486 7.94933,-9.03732 12.28667,-16.33209 6.88133,-11.57972 8.76475,-22.1799 7.95675,-31.12114 l 9.03125,4.57013 c 1.80666,0.95177 1.24266,7.43631 -0.80667,13.84423 m -52.87467,39.2357 c 1.41867,-5.37694 7.296,-9.41775 14.308,-9.41775 7.012,0 12.888,4.04081 14.30667,9.41775 z m -2.10933,-4.90689 c -8.84667,-3.31758 -73.19066,-28.5896 -103.29066,-72.09595 0.96,-1.24134 8.33857,-2.99943 13.4119,-5.33796 -0.15733,0.51419 1.91195,2.40539 2.19459,2.87284 1.024,1.69969 23.70417,38.95068 94.0415,69.27113 z m 60.30796,-49.41824 c -0.0387,-0.66222 -0.41867,-1.25951 -1.01067,-1.58672 -3.24533,-1.79059 -7.53125,-4.06373 -10.89658,-5.64395 -1.60933,-0.75571 -3.65754,-1.15971 -5.41087,-1.53496 -1.37334,-0.29345 -3.21693,-0.76191 -4.64493,-0.83203 -1.33467,-0.0636 -5.50595,-0.12259 -6.86595,-0.0551 -0.92667,2.06326 2.58005,4.32231 5.41875,4.69987 1.40531,0.18691 4.74926,0.78602 5.3546,1.42745 1.91333,2.02691 1.7601,5.26277 1.3801,7.88826 -0.43733,3.03062 -0.6578,5.98719 -1.70045,8.87109 -2.044,5.6587 -4.952,11.00968 -8.24667,16.06719 -2.936,4.50828 -6.168,8.97109 -9.85733,12.93531 -0.256,0.27528 -0.42,0.61547 -0.484,0.97514 -2.12,-0.72713 -4.46,-1.14135 -6.92667,-1.14135 -2.468,0 -4.80933,0.41422 -6.93066,1.14266 -0.116,-0.64664 -0.55067,-1.19719 -1.172,-1.45818 -61.87467,-25.94722 -88.58625,-61.898 -94.92759,-70.83403 l 7.52479,2.70215 c 0.74667,-0.18698 1.43392,-1.24817 1.58192,-1.9844 0.148,-0.73623 0.26208,-1.19583 -0.35792,-1.64249 l -5.71237,-1.64498 c -1.38147,-0.0501 -3.64649,-0.61394 -4.28916,-0.36464 -5.4,2.09053 -17.18767,3.60715 -18.509,7.73497 -0.29334,0.91801 -0.16534,1.84511 0.36,2.61381 32.89333,48.02371 103.77599,73.4126 104.48799,73.6632 0.22134,0.0779 0.452,0.11556 0.68134,0.11556 0.252,0 0.49866,-0.0572 0.73466,-0.14933 -0.34666,1.04138 -0.54933,2.12559 -0.54933,3.24876 0,1.07644 0.89467,1.9477 2,1.9477 h 30.15333 c 1.10534,0 2,-0.87126 2,-1.9477 0,-0.92061 -0.12533,-1.81784 -0.36,-2.68522 0.13067,0.026 0.26,0.0688 0.392,0.0688 0.532,0 1.06267,-0.20516 1.456,-0.61028 26.424,-27.25347 25.384,-50.98941 25.32667,-51.98663"
       style="fill:#000000;fill-opacity:1;fill-rule:nonzero;stroke:none;stroke-width:1.31578"
       id="path16603"
       sodipodi:nodetypes="ccccccccsccccccccccscccsccccccsccccscccccsscsssscscc" /><path
       d="m 267.74773,282.15971 c -4.668,0.82712 -14.00667,-3.09943 -15.916,-4.33947 -1.91067,-1.24004 -30.136,-15.50107 -47.53867,-28.10786 -17.40266,-12.6081 -33.53894,-25.9465 -34.36561,-28.50059 -0.82533,-2.55407 2.14534,-2.51302 4.05601,-0.65232 0,0 21.70276,20.18529 31.15893,26.66882 13.01754,8.92534 39.72934,25.06569 48.38667,28.5248 9.92933,3.9668 15.068,4.75367 16.34133,2.68652 1.27334,-2.06716 6.44056,-8.15999 10.61068,-17.12297 4.30106,-9.24443 3.37217,-13.30735 3.37217,-13.30735 0,0 2.50028,-0.42285 2.71228,1.02365 0.212,1.44778 -2.14653,10.00843 -4.05586,13.72853 -1.91067,3.7201 -10.0926,18.57112 -14.76193,19.39824 z m -76.52091,-87.99772 c 0.0813,-0.0195 0.15867,-0.0363 0.232,-0.0519 l -0.236,1.93472 1.46267,1.3465 c 1.38,1.2686 32.37824,30.27707 62.47024,40.34927 3.01066,1.0076 5.668,2.59952 8.21333,4.62383 1.436,1.14264 2.86667,2.4541 3.288,4.58488 0.42,2.13078 -0.28506,26.39955 -0.28506,26.39955 0,0 1.53706,-23.61955 3.22506,-28.77964 0.64133,-1.95809 1.61325,-3.73798 2.74359,-5.4249 1.34537,-2.00784 2.56017,-3.96253 2.21083,-5.53886 l 7.10886,17.37841 c -1.34267,3.6357 -5.23616,17.63127 -13.0775,25.26753 -0.50533,0.49212 -1.51792,1.14396 -3.46058,1.14396 -1.84267,0 -7.67324,-1.46891 -13.18694,-4.23192 -1.39459,-0.69885 -4.18914,-2.00883 -6.54657,-3.28495 -6.77281,-3.66624 -12.7419,-7.03529 -19.00379,-11.0163 -18.22668,-11.06112 -34.29565,-23.01915 -52.34079,-41.54394 7.56236,-9.24856 14.69465,-21.42924 17.18265,-23.1562 m 91.82826,50.70535 -7.75911,-14.79023 -3.71808,-0.88779 c 0,0 1.06873,3.3281 -1.79177,6.87762 -2.08843,2.59148 -3.21573,5.12361 -3.21573,5.12361 0,0 1.04534,-3.39678 -10.11466,-7.13247 -29.62,-9.91636 -61.02358,-39.49876 -61.02358,-39.49876 0.51467,-4.20572 -2.74926,-5.58162 -5.58,-4.07588 -3.48785,1.85527 -15.16729,21.86883 -18.89291,25.92465 -0.868,-0.21555 -1.78327,0.23023 -2.55527,0.79376 -1.69734,1.24004 -4.53939,1.15264 -0.50739,6.11277 4.032,4.96013 27.83515,23.38791 47.43248,36.11027 21.00933,13.64167 43.71733,25.42134 50.29733,25.21488 6.57867,-0.20645 9.97467,-6.61307 12.73334,-10.12672 2.75866,-3.51364 10.75246,-22.37938 9.90313,-25.68657 -0.60134,-2.34503 -3.85312,-3.57999 -5.20778,-3.95914 z"
       style="fill:#000000;fill-opacity:1;fill-rule:nonzero;stroke:none;stroke-width:1.31578"
       id="path16611"
       sodipodi:nodetypes="cccccscsscccccccccccccsccssssccccccscccsccscsscc" /><path
       d="m 358.94719,399.96681 h 8.40667 c 1.644,-22.14661 2.79466,-59.09573 2.79466,-59.09573 l -6.80133,-2.03858 c 0.39733,6.19238 -2.82667,43.53362 -4.4,61.13431"
       style="fill:#000000;fill-opacity:1;fill-rule:nonzero;stroke:none;stroke-width:1.31578"
       id="path16615" /><path
       d="m 104.38653,399.96681 c 6.10933,-10.77206 9.56,-26.10953 10.61867,-38.20863 1.828,-20.8871 3.41866,-28.76488 3.41866,-28.76488 l -5.49866,-1.29197 c 0,0 -1.33334,33.40689 -14.616002,68.26548 z"
       style="fill:#000000;fill-opacity:1;fill-rule:nonzero;stroke:none;stroke-width:1.31578"
       id="path16619" /><path
       d="m 28.372399,261.09017 c 0,0 -3.362666,3.79801 3.294667,18.14085 1.641333,3.53572 15.191999,-8.66336 15.191999,-8.66336 l -16.502666,-6.74032 z"
       style="fill:#000000;fill-opacity:1;fill-rule:nonzero;stroke:none;stroke-width:1.31578"
       id="path16623" /><path
       d="m 50.119732,399.96681 c 0.553333,0 0.684,-5.22112 0.713333,-5.67299 0.178667,-2.74885 -0.305333,-6.06383 1.902667,-8.15566 1.013333,-0.95827 2.126667,-1.90485 2.501333,-3.28511 0.421334,-1.55557 -0.02133,-3.11762 0.596,-4.70045 0.517334,-1.32443 0.03733,-1.89186 -0.02267,-3.27473 -0.05733,-1.30106 0.782666,-2.05287 1.225333,-3.18902 0.493333,-1.26471 0.012,-1.76072 -0.598667,-2.91117 -1.18,-2.22556 1.605334,-3.68114 1.765334,-5.93527 0.104,-1.46208 -1.222667,-1.41923 -2.002667,-2.38269 -0.656,-0.80894 -0.828,-2.23985 -0.729333,-3.27342 0.102666,-1.07903 0.705333,-2.08274 1.238666,-3.05399 0.578667,-1.05046 0.582667,-1.82046 0.582667,-3.04101 0,-1.24263 0.309333,-2.2866 0.810667,-3.3877 0.318666,-0.69986 0.525333,-0.95047 0.669333,-1.71916 0.108,-0.56743 0.121333,-0.80375 0.368,-1.33093 0.290667,-0.62456 0.633333,-0.43498 0.434667,-1.27249 -0.186667,-0.79207 -0.918667,-1.03748 -0.801334,-1.9438 0.08133,-0.62976 0.666667,-0.86608 0.913334,-1.3569 0.261333,-0.52068 0.192,-0.95827 0.224,-1.58283 0.05333,-1.05436 0.174666,-2.10741 0.0067,-3.16695 -0.158666,-0.99852 -0.024,-2.24375 -0.242666,-3.26824 -0.128,-0.60248 -0.406667,-0.75311 -0.36,-1.40883 0.04267,-0.61677 0.490666,-0.9323 0.685333,-1.33482 0.474666,-0.98294 0.145333,-2.05158 0.498666,-3.07736 0.09733,-0.28437 0.528,-0.47784 0.645334,-0.77648 0.09467,-0.24022 -0.048,-0.53367 0.01733,-0.77649 0.148,-0.54795 0.306667,-0.91022 0.345333,-1.49713 0.150667,-2.30347 0.233334,-3.93954 1.561334,-5.88594 0.474666,-0.69598 0.26,-0.87517 1.333333,-0.89075 0.641333,-0.009 1.370667,0.44408 2.005333,0.28957 0.445334,-0.10778 0.486667,-0.5921 1.022667,-0.77779 0.865333,-0.30124 2.090667,0.16491 2.994667,0 0.777333,-0.14283 1.054666,-0.38304 1.788,-0.44407 0.808,-0.0675 2.030666,0.0636 2.849333,0.21814 1.096,0.20775 1.829333,0.72194 2.737333,1.42311 1.142667,0.88426 0.606667,1.93083 1.905333,2.60083 1.072,0.55315 1.789334,1.24003 2.985334,1.66074 2.441333,0.85829 3.908,3.44742 5.919999,4.9952 1.086667,0.83361 1.668,2.04897 2.958667,2.63328 1.289333,0.58301 3.024,0.52847 3.949333,1.7737 0.389334,0.52458 0.358667,1.03358 0.84,1.51271 0.408,0.40772 1.166667,0.51809 1.476,0.98034 0.388,0.58042 -0.04,0.81933 0.632,1.39066 0.626667,0.53236 1.436,0.56742 2.167999,0.83231 1.096,0.39733 0.52,0.34929 1.072,1.10889 0.472,0.64924 1.528,1.24263 2.296,1.66723 1.344,0.74272 1.992,1.45428 3.10934,2.38528 1.63066,1.35819 3.92666,2.02691 5.59066,3.10073 1.05734,0.683 0.51067,1.93601 0.288,3.10593 -0.252,1.32313 0.14,2.0282 0.592,3.19163 0.7,1.79837 -0.54533,3.8084 -1.068,5.4925 -0.63866,2.05677 -0.61066,3.94993 -0.62933,6.07942 -0.0413,4.69524 -0.38933,9.39698 -1.5,13.97797 -1.60533,6.62087 -4.18933,12.90154 -6.82667,19.12767 -0.56,1.32314 -1.94133,3.22539 -3.168,5.22633 h 29.02934 c -0.836,-3.87202 -0.80667,-7.9505 -0.98267,-11.94718 -0.43733,-9.89949 -2.35867,-28.3247 6.30667,-35.7714 11.85866,-10.18905 112.64666,-7.13246 130.08399,-9.16976 17.43734,-2.03858 101.136,2.71639 101.136,2.71639 l 7.01333,-5.22242 10.50134,-9.52034 c 0,0 1.31333,-4.02005 -3.01067,-0.97775 -11.93867,8.40237 -42.404,2.13598 -54.26133,1.79578 -1.804,-0.0519 -3.61067,-0.0818 -5.416,-0.11557 -3.42133,-0.065 -6.84267,-0.12465 -10.264,-0.18437 -4.74267,-0.0818 -9.48667,-0.15972 -14.23067,-0.23762 -5.77333,-0.0935 -11.54666,-0.18569 -17.32,-0.27658 -6.50933,-0.10257 -13.01866,-0.20256 -19.528,-0.30254 -6.952,-0.10518 -13.90533,-0.21035 -20.85733,-0.31293 -7.10267,-0.10517 -14.20533,-0.20775 -21.308,-0.31033 -6.96,-0.0987 -13.91867,-0.19607 -20.87866,-0.29085 -6.524,-0.0896 -13.04667,-0.1766 -19.57067,-0.261 -5.79333,-0.074 -11.588,-0.14673 -17.38267,-0.21424 -4.77066,-0.0558 -9.54266,-0.10778 -14.31466,-0.15323 -11.91734,-0.11296 -23.51334,-1.78019 -34.244,-7.12597 -2.216,-1.10369 -4.02267,-2.26972 -5.82134,-3.93824 -1.34666,-1.33352 -2.61866,-2.77092 -4.04933,-4.01486 -1.542669,-1.34131 -2.641335,-3.10722 -3.826669,-4.74588 -2.221333,-3.07476 -4.477333,-6.17031 -6.392,-9.43984 -2.066666,-3.52922 -5.539999,-6.52349 -8.434666,-9.3879 -1.042667,-1.03098 -2.088,-2.06066 -3.152,-3.07217 -0.677333,-0.64403 -1.730667,-1.02709 -1.14,-1.92951 0.705333,-1.08033 3.049333,-1.12448 4.157333,-1.59842 1.994667,-0.85179 3.969334,-2.04508 4.862667,-4.03952 0.144,-0.32072 0.994666,-2.21907 0.541333,-2.58913 -0.482667,-0.39474 -1.564,0.94527 -1.929333,1.24263 -1.778667,1.45167 -3.729333,2.05676 -6.036,2.58264 -1.973333,0.45056 -4.129333,0.88295 -6.101333,0.20386 -2.002667,-0.68949 -3.370667,-2.32945 -4.884,-3.71231 -0.364,-0.33241 -5.326667,-5.27177 -5.636,-5.08868 0.004,-0.003 13.768,-8.12969 13.768,-8.12969 l 11.815999,7.60121 c 27.899999,-16.64112 70.115999,-19.36271 70.115999,-19.36271 0,0 3.81067,2.47358 7.62,5.97814 3.81067,3.50455 24.97867,17.31502 40.85333,25.76673 15.876,8.4517 36.408,15.87373 36.408,15.87373 l 5.292,0.41161 -2.116,2.68003 15.24,-0.61806 c 0,0 -4.44533,2.67872 -9.52533,5.35875 -5.08,2.68004 -9.52533,13.39886 -10.16,14.01823 -0.636,0.61807 5.50267,0.41162 5.50267,0.41162 0,0 0.636,-1.85551 2.964,-7.00782 2.328,-5.1536 12.7,-10.72012 12.7,-10.72012 l 14.60533,-1.64906 0.84667,-3.29809 -4.656,-6.80266 c 0,0 1.54544,-2.5887 7.832,-10.51237 7.40786,-9.33697 11.93716,-21.16262 13.33466,-27.41708 1.02711,-4.59682 1.27067,-11.95626 1.27067,-11.95626 l -6.56267,-3.29811 2.752,8.45171 -6.13866,22.88155 -16.93334,19.78989 7.408,8.45171 c 0,0 -22.64933,0.41162 -21.80266,-1.8555 0.848,-2.26842 10.796,-7.00912 10.796,-7.00912 h -8.46667 l -9.292,6.03527 c -48.04133,-18.59921 -83.78533,-50.34667 -83.78533,-50.34667 l 18.48267,1.0193 8.37066,6.45207 17.43733,0.67909 c 0,0 15.34534,9.50996 25.80667,15.28423 10.46267,5.77297 27.9,12.90544 27.9,12.90544 -2.44133,-3.05659 5.232,-4.07588 5.232,-4.07588 0,0 2.092,-16.98132 2.092,-23.09449 0,-6.11317 4.88267,-17.66042 4.88267,-17.66042 0,0 -4.18534,2.03729 -6.27734,4.41478 -2.092,2.37749 -4.18533,36.68033 -4.18533,36.68033 l -1.744,-2.03859 c 0,0 1.744,-19.35881 1.744,-24.45269 0,-5.09387 -1.744,-6.79226 -4.53333,-9.16976 -2.79067,-2.37748 -15.69334,-7.13246 -23.71467,-10.86815 -8.02133,-3.73568 -37.66533,-25.13308 -41.50133,-30.22695 -3.836,-5.09388 -3.032,-8.72049 -3.032,-8.72049 l -1.85067,-1.80746 -4.74875,6.19722 -13.83274,19.52006 -6.11392,0.11674 -7.15407,-1.40039 -16.60652,6.96059 0.98267,3.66167 -30.09467,8.47638 -41.006665,13.18461 -17.785333,8.15177 -8.053333,-1.82305 -15.846666,7.64666 5.066666,15.57248 c -1.355999,1.64127 -2.711999,3.28123 -4.067999,4.92248 -1.142667,1.38287 -2.209334,2.94752 -3.482667,4.21482 -0.44,0.43628 -1.069333,0.71415 -1.326667,1.28418 -0.334666,0.74272 0.068,1.7737 -0.02933,2.56187 -0.124,1.00501 -0.597333,1.86589 -0.685333,2.88909 -0.117334,1.36598 -0.08667,2.50473 -0.626667,3.77203 -1.101333,2.58265 -2.725333,4.55761 -3.142667,7.41424 -0.501333,3.44093 -0.972,6.88706 -1.457333,10.32928 -0.837333,5.93399 -1.674666,11.86797 -2.512,17.80066 -0.150666,1.07252 -0.348,2.15025 -0.454666,3.22797 0,0.003 -6.298667,63.68061 -6.298667,63.68061 z"
       style="display:inline;opacity:0.199997;fill:#000000;fill-opacity:1;fill-rule:nonzero;stroke:none;stroke-width:1.31578"
       id="path16633"
       sodipodi:nodetypes="scccccccccccssccccccccccccccccccccccccccccccccccccccccccccccccccccccccccccccccsccccccccccccccccccccccscccccccsscccccccccccccccccscsccscsscccccccccccccccccccccccccs" /><path
       d="m 42.766266,266.92859 c 0,0 8.722666,-7.15843 12.741333,-7.4441 0,0 2.352,-2.67354 -1.96,-4.48619 -4.313334,-1.81396 6.173333,-7.15844 8.035999,-5.05882 0,0 -5.010666,-5.44187 -11.074666,-4.67707 -10.585333,1.33612 -19.307999,7.82715 -29.598666,16.22562 0,0 9.105333,-1.68152 11.565333,0 0,0 -5.194666,2.00482 -0.882666,3.15007 4.313333,1.14524 8.526666,4.29532 11.173333,2.29049"
       style="fill:#928d82;fill-opacity:1;fill-rule:nonzero;stroke:none;stroke-width:1.31578"
       id="path16731" /><path
       d="m 53.901599,253.52675 z m -21.773333,9.73978 c 1.393333,0.38175 2.726666,0.9336 4.017333,1.46727 2.441333,1.0102 4.552,1.88277 5.68,1.05565 0.990667,-0.81024 8.278666,-6.6845 12.753333,-7.64147 0.05733,-0.15322 0.09333,-0.3337 0.048,-0.5051 -0.109333,-0.42719 -0.72,-0.90243 -1.674667,-1.30366 -1.801333,-0.75831 -1.953333,-2.06196 -1.936,-2.58914 0.088,-2.46578 3.833334,-4.4018 6.032,-5.1575 0.114667,-0.039 0.232,-0.0779 0.350667,-0.11556 -1.776,-1.0985 -4.154667,-2.08663 -6.697333,-1.76592 -8.850667,1.11798 -16.409333,6.03527 -24.793333,12.64965 2.813333,-0.20645 5.884,-0.12465 7.429333,0.931 0.450667,0.30903 0.690667,0.83362 0.626667,1.36598 -0.06267,0.53237 -0.422667,0.98813 -0.934667,1.18809 -0.297333,0.11557 -0.617333,0.2662 -0.901333,0.42071 m 10.637333,3.66167 h 0.01333 z m -2.042667,2.1152 c -1.832,0 -3.812,-0.81804 -5.750666,-1.62049 -1.241334,-0.51288 -2.525333,-1.04396 -3.773333,-1.37507 -1.801334,-0.47914 -2.748,-1.30496 -2.814667,-2.4554 -0.02933,-0.51679 0.141333,-0.98034 0.430667,-1.39195 -2.153334,-0.0246 -5.094667,0.2571 -7.625334,0.72324 -0.672,0.12466 -1.342666,-0.20904 -1.634666,-0.81024 -0.292,-0.60119 -0.130667,-1.31794 0.392,-1.74514 10.448,-8.52571 19.317333,-15.15956 30.369332,-16.55412 6.408,-0.80765 11.584,4.3135 12.306667,5.06661 0.032,0.0338 0.064,0.0688 0.096,0.10388 0.538666,0.60638 0.473333,1.5218 -0.144,2.05157 -0.617334,0.52847 -1.56,0.47394 -2.108,-0.12206 -0.0013,-9.7e-4 -0.008,-0.008 -0.02,-0.0195 -0.198667,-0.0572 -1.484,0.0182 -3.284,0.79596 -1.625333,0.70376 -2.633333,1.5179 -3.002667,1.97366 1.918667,0.81155 3.06,1.93212 3.393334,3.33187 0.437333,1.84252 -0.768,3.27992 -0.908,3.43833 -0.26,0.29605 -0.630667,0.47783 -1.029334,0.5064 -2.570666,0.18308 -8.653333,4.45503 -11.882666,7.1052 -0.016,0.0117 -0.03067,0.0234 -0.04667,0.0351 -0.916,0.69469 -1.916,0.96217 -2.964,0.96217"
       style="fill:#000000;fill-opacity:1;fill-rule:nonzero;stroke:none;stroke-width:1.31578"
       id="path16735" /><path
       d="m 22.870799,261.20184 c 0,0 5.716,-4.93157 13.230667,-4.19923 2.94,0.28566 0.588,2.86311 0.490666,3.53052 -0.09867,0.66871 1.568,2.48267 3.233334,2.67354 1.666666,0.19088 9.310666,-7.25452 14.505333,-6.58581 5.194666,0.66741 1.176,2.86311 1.176,2.86311 0,0 -7.546667,3.53183 -9.604,5.2497 -2.058667,1.71787 -3.430667,4.39011 -7.841333,2.38528 -4.409334,-2.00353 -9.212,-3.43574 -8.428,-3.91228 0.784,-0.47783 1.764,-2.48267 -0.09867,-2.48267 -1.861333,0 -5.096,0 -6.664,0.47784"
       style="opacity:0.199997;fill:#000000;fill-opacity:1;fill-rule:nonzero;stroke:none;stroke-width:1.31578"
       id="path16745" /><path
       d="m 357.26106,260.34953 c 2.17466,1.70229 7.968,6.70137 10.38133,20.7222 2.41467,14.02082 18.592,9.56709 15.84533,0.0883 -2.74666,-9.47879 -5.36266,-17.85129 -6.408,-20.39888 -1.04666,-2.54758 -13.20933,-4.83938 -13.20933,-4.83938 0,0 -12.82667,-0.44147 -6.60933,4.42777"
       style="fill:#928d82;fill-opacity:1;fill-rule:nonzero;stroke:none;stroke-width:1.31578"
       id="path16755" /><path
       d="m 358.30506,259.08482 c 0.82266,0.64405 8.116,5.34189 10.98,21.97262 0.57866,3.35913 2.03866,5.68209 4.22266,6.71956 2.104,1.00111 4.77067,0.68429 6.63467,-0.78817 1.74533,-1.37767 2.38267,-3.42794 1.74667,-5.62235 -2.8,-9.66577 -5.40267,-17.67989 -6.35734,-20.00285 -0.65866,-0.94269 -6.18933,-2.74626 -11.848,-3.82397 -2.572,-0.0701 -5.30933,0.24151 -6.292,0.69207 0.152,0.18698 0.42534,0.47134 0.91334,0.85309 m 16.45066,32.76416 c -0.91066,-0.14542 -1.81066,-0.4207 -2.66933,-0.82841 -1.96267,-0.931 -5.412,-3.42016 -6.47867,-9.61384 -2.70133,-15.68805 -9.496,-19.18481 -9.784,-19.40945 -1.97333,-1.54518 -2.69733,-3.05139 -2.152,-4.47581 1.04267,-2.73067 6.628,-2.94621 9.86534,-2.83974 l 0.25733,0.0285 c 4.876,0.91801 13.236,2.89817 14.44,5.8301 1.14133,2.78002 3.79333,11.53297 6.45867,20.73259 0.984,3.39548 0.007,6.65982 -2.61734,8.73088 -2.048,1.61788 -4.728,2.25673 -7.32,1.84511"
       style="fill:#000000;fill-opacity:1;fill-rule:nonzero;stroke:none;stroke-width:1.31578"
       id="path16759" /><path
       d="m 368.48226,262.83895 c 0,0 -9.88667,-3.99798 -13.76267,-3.52144 0,0 -2.83333,-1.64905 0.848,-3.79542 3.68133,-2.14505 -7.47067,-4.44074 -8.76267,-2.50084 0,0 3.52534,-5.06141 9.44934,-5.52367 10.34,-0.80893 20.076,2.67484 31.72933,7.35711 0,0 -9.01333,0.28566 -10.968,2.00742 0,0 5.37867,0.64144 1.54667,2.27232 -3.832,1.63086 -7.11867,4.78873 -10.08,3.70452"
       style="fill:#928d82;fill-opacity:1;fill-rule:nonzero;stroke:none;stroke-width:1.31578"
       id="path16763" /><path
       d="m 354.89892,254.451 z m 21.89734,3.5526 c -0.53067,-0.0636 -0.97467,-0.35319 -1.15467,-0.75312 -0.18133,-0.39862 -0.0707,-0.84399 0.28667,-1.15952 1.22666,-1.08163 4.12266,-1.67762 6.836,-2.00743 -9.44267,-3.6383 -17.72,-6.11317 -26.36667,-5.43667 -2.484,0.19347 -4.516,1.36728 -5.95333,2.52291 0.12133,0.008 0.24,0.0169 0.35866,0.0273 2.256,0.19997 6.244,1.04137 6.88267,2.92544 0.136,0.40253 0.28667,1.43221 -1.25067,2.32944 -0.816,0.47524 -1.288,0.94789 -1.296,1.29588 -0.003,0.13893 0.072,0.27138 0.16,0.37914 4.46,-0.0389 12.69734,3.2202 13.81867,3.67207 1.256,0.44018 3.06133,-0.5986 5.14933,-1.79968 1.104,-0.63495 2.244,-1.29197 3.47867,-1.82823 -0.304,-0.0688 -0.64133,-0.12985 -0.94933,-0.1675 m -9.81334,4.28883 0.0107,-0.003 z m 0.88534,1.59451 c -0.016,-0.007 -0.0347,-0.013 -0.0507,-0.0195 -3.66133,-1.48025 -10.39333,-3.71491 -12.87333,-3.40847 -0.384,0.0467 -0.77734,-0.0285 -1.08934,-0.21165 -0.168,-0.0974 -1.636,-0.99463 -1.636,-2.49046 0,-1.13485 0.82934,-2.197 2.46667,-3.15527 -0.45333,-0.28695 -1.592,-0.73882 -3.29333,-0.99851 -1.88267,-0.28566 -3.11867,-0.12076 -3.29467,-0.0429 -0.008,0.0117 -0.012,0.0182 -0.0147,0.0195 -0.38533,0.55315 -1.26533,0.75831 -1.97066,0.45966 -0.70534,-0.30124 -0.97334,-0.99462 -0.6,-1.55556 0.0227,-0.0324 0.0453,-0.065 0.0693,-0.0974 0.51467,-0.70507 4.26933,-5.54835 10.528,-6.03786 10.79733,-0.8453 20.70533,2.72288 32.536,7.47526 0.592,0.23891 0.90667,0.7635 0.76533,1.27638 -0.14133,0.5142 -0.70266,0.88686 -1.368,0.90763 -2.50533,0.0805 -5.35866,0.37396 -7.39466,0.76739 0.36666,0.26619 0.63333,0.5947 0.72133,0.99722 0.19733,0.89725 -0.51467,1.6984 -2.116,2.37879 -1.108,0.47264 -2.20667,1.1037 -3.268,1.71527 -1.65733,0.95437 -3.35067,1.92822 -5.088,2.24635 -0.99467,0.18179 -2.004,0.14932 -3.02933,-0.22593"
       style="fill:#000000;fill-opacity:1;fill-rule:nonzero;stroke:none;stroke-width:1.31578"
       id="path16767" /><path
       d="m 348.92679,251.30377 c 0,0 6.812,-2.50343 10.536,-0.57262 3.72267,1.93211 3.40667,4.00577 2.21733,4.6498 -1.188,0.64404 2.852,3.29032 5.86267,4.1486 3.01067,0.85828 12.43733,-1.8594 12.43733,-1.8594 l -5.07066,3.7188 c 0,0 -5.624,2.43203 -6.97067,1.64516 -1.34667,-0.78687 -14.18,-4.00577 -14.1,-4.29143 0.0787,-0.28566 -0.216,-1.7737 0.12933,-1.99574 0.34534,-0.22203 2.32534,-2.08144 2.32534,-2.08144 l -1.584,-2.07365 -7.208,-0.28696 z"
       style="opacity:0.199997;fill:#000000;fill-opacity:1;fill-rule:nonzero;stroke:none;stroke-width:1.31578"
       id="path16777" /><path
       d="m 392.80568,385.1017 c -0.0453,0.009 -0.0907,0.016 -0.13867,0.0227 -0.79199,0.10133 -1.70133,-0.052 -2.49732,-0.0773 -4.21866,-0.13333 -8.43732,-0.28 -12.65597,-0.43866 -2.48933,-0.0947 -4.97732,-0.18534 -7.46532,-0.28133 -1.46666,-0.056 -4.72265,0.51066 -5.99198,-0.13734 -2.71333,-1.38666 -1.112,-5.78265 1.096,-6.73198 1.24666,-0.536 3.21865,0.0867 4.52798,0.16267 2.29733,0.13599 4.60266,0.18933 6.90265,0.27733 5.43999,0.208 10.88131,0.404 16.32396,0.564 1.10933,0.032 1.80267,0.37466 2.00933,1.44933 0.33067,1.72399 -0.168,4.80532 -2.11066,5.19065"
       style="clip-rule:evenodd;fill:#000000;fill-rule:nonzero;stroke-width:1.33333;stroke-miterlimit:10"
       id="path8" /><path
       d="m 392.65635,383.64704 c -0.476,0.24933 -1.14666,0.136 -1.95333,0.0827 -0.96133,-0.0613 -1.93199,-0.0613 -2.89466,-0.092 -2.77599,-0.092 -5.55065,-0.188 -8.32664,-0.28933 -2.664,-0.0987 -5.32932,-0.192 -7.99332,-0.292 -1.19199,-0.0453 -4.74665,0.50267 -5.76532,-0.196 -1.51066,-1.03599 -0.70799,-2.61066 0.73334,-3.48132 1.62266,-0.98133 3.72265,-0.40267 5.48665,-0.33067 5.01065,0.204 10.02131,0.388 15.03329,0.556 1.50267,0.0507 3.00533,0.1 4.50799,0.148 1.968,0.0613 2.236,0.47467 1.87066,2.64533 -0.11866,0.70666 -0.35866,1.07066 -0.69866,1.24933"
       style="clip-rule:evenodd;fill:#1a1a1a;fill-opacity:1;fill-rule:nonzero;stroke-width:1.33333;stroke-miterlimit:10"
       id="path9" /><path
       d="m 392.50569,391.24302 c -0.0453,0.009 -0.0907,0.016 -0.13867,0.0227 -0.79199,0.10133 -1.70133,-0.052 -2.49732,-0.0773 -4.21866,-0.13333 -8.43865,-0.28 -12.65597,-0.43866 -2.48933,-0.0947 -4.97732,-0.18534 -7.46532,-0.28133 -1.46666,-0.056 -4.72265,0.51066 -5.99198,-0.13734 -2.71333,-1.38666 -1.112,-5.78265 1.096,-6.73198 1.24666,-0.536 3.21865,0.0867 4.52798,0.16267 2.29733,0.13599 4.60266,0.18933 6.90265,0.27733 5.43999,0.208 10.88131,0.404 16.32396,0.564 1.10933,0.032 1.80267,0.37466 2.00933,1.44933 0.33067,1.72399 -0.168,4.80532 -2.11066,5.19065"
       style="clip-rule:evenodd;fill:#000000;fill-rule:nonzero;stroke-width:1.33333;stroke-miterlimit:10"
       id="path10" /><path
       d="m 392.35635,389.78703 c -0.476,0.24933 -1.14666,0.136 -1.95333,0.0827 -0.96133,-0.0613 -1.93199,-0.0613 -2.89466,-0.092 -2.77599,-0.092 -5.55065,-0.188 -8.32664,-0.28933 -2.664,-0.0987 -5.32932,-0.192 -7.99332,-0.292 -1.19199,-0.0453 -4.74665,0.50267 -5.76532,-0.196 -1.51066,-1.03599 -0.70799,-2.61066 0.73334,-3.48132 1.62266,-0.98133 3.72265,-0.40267 5.48665,-0.33067 5.01065,0.204 10.02131,0.388 15.03329,0.556 1.50267,0.0507 3.00533,0.1 4.50799,0.148 1.968,0.0613 2.236,0.47467 1.87066,2.64533 -0.11866,0.70666 -0.35866,1.07066 -0.69866,1.24933"
       style="clip-rule:evenodd;fill:#1a1a1a;fill-opacity:1;fill-rule:nonzero;stroke-width:1.33333;stroke-miterlimit:10"
       id="path11" /></g><g
     inkscape:groupmode="layer"
     id="layer3"
     inkscape:label="Colour Swatches"
     sodipodi:insensitive="true"
     style="display:none"><rect
       style="display:inline;opacity:1;fill:#7f755d;fill-opacity:1;fill-rule:evenodd;stroke-width:1.7;stroke-linecap:round;stroke-miterlimit:10"
       id="rect75721"
       width="40"
       height="36.279068"
       x="297.20929"
       y="41.395348" /><rect
       style="display:inline;opacity:1;fill:#9f9274;fill-opacity:1;fill-rule:evenodd;stroke-width:1.7;stroke-linecap:round;stroke-miterlimit:10"
       id="rect86535"
       width="40"
       height="36.279068"
       x="297.20929"
       y="77.790695" /></g></svg>
