<?xml version="1.0" encoding="UTF-8" standalone="no"?>
<svg
   width="400"
   height="400"
   viewBox="0 0 400 400"
   version="1.1"
   xml:space="preserve"
   style="clip-rule:evenodd;fill-rule:evenodd"
   id="svg346"
   sodipodi:docname="TzenkethiSymbol.svg"
   inkscape:version="1.4 (e7c3feb1, 2024-10-09)"
   xmlns:inkscape="http://www.inkscape.org/namespaces/inkscape"
   xmlns:sodipodi="http://sodipodi.sourceforge.net/DTD/sodipodi-0.dtd"
   xmlns="http://www.w3.org/2000/svg"
   xmlns:svg="http://www.w3.org/2000/svg"><defs
   id="defs346">
        
        
        
        
        
        
        
        
        
        
        
        
        
        
        
        
        
        
        
        
        
        
        
        
        
        
        
        
        
        
        
        
        
        
        
        
        
        
        
        
        
        
        
        
        
        
        
        
        
        
        
        
        
        
        
        
        
        
        
        
        
        
        
        
        
        
        
        
        
        
        
        
        
        
        
        
        
        
        
        
        
        
        
        
        
        
        
        
        
        
        
        
        
        
        
        
        
        
        
        
        
        
        
        
        
        
        
        
        
        
        
        
        
        
        
        
        
        
        
        
        
        
        
        
        
        
        
        
        
        
        
        
        
        
        
        
        
        
        
        
        
        
        
        
        
        
        
        
        
        
        
        
        
        
        
        
        
        
        
        
        
        
        
        
        
        
        
        
        
        
        
        
        
        
        
        
        
        
        
        
        
        
        
        
        
        
        
        
        
        
        
        
        
        
        
        
        
        
        
        
        
        
        
        
        
        
        
        
        
        
        
        
        
        
        
        
        
        
        
        
        
        
        
        
        
        
        
        
        
        
        
        
        
        
        
        
        
        
        
        
        
        
        
        
        
        
        
        
        
        
        
        
        
        
        
        
        
        
        
        
        
        
        
        
        
        
        
        
        
        
        
        
        
        
        
        
        
        
        
        
        
        
        
        
        
        
    
            
        
            
        
            
        
            
        
            
        
            
        
            
        
            
        
            
        
            
        
            
        
            
        
            
        
            
        
            
        
            
        
            
        
            
        
            
        
            
        
            
        
            
        
            
        </defs><sodipodi:namedview
   id="namedview346"
   pagecolor="#ffffff"
   bordercolor="#666666"
   borderopacity="1.0"
   inkscape:showpageshadow="2"
   inkscape:pageopacity="0.0"
   inkscape:pagecheckerboard="0"
   inkscape:deskcolor="#d1d1d1"
   inkscape:zoom="2.145"
   inkscape:cx="200"
   inkscape:cy="200"
   inkscape:window-width="1952"
   inkscape:window-height="1161"
   inkscape:window-x="2502"
   inkscape:window-y="59"
   inkscape:window-maximized="0"
   inkscape:current-layer="svg346"
   showguides="true"><sodipodi:guide
     position="36.476578,5.8859479"
     orientation="1,0"
     id="guide1"
     inkscape:locked="false" /><sodipodi:guide
     position="42.342158,7.9022412"
     orientation="0,-1"
     id="guide3"
     inkscape:locked="false" /></sodipodi:namedview>
    
<g
   inkscape:groupmode="layer"
   id="layer5"
   inkscape:label="Symbol"><path
     id="path1"
     style="fill:#34b6d8;fill-opacity:1;stroke:#000000;stroke-width:3.71746;stroke-linecap:butt;stroke-linejoin:miter;stroke-dasharray:none;stroke-opacity:1"
     d="m 343.128,286.26528 c -3.49038,0.0167 -7.26303,0.0878 -10.38729,0.30519 0.51335,1.42611 1.35238,3.37535 2.69856,5.37569 2.50666,3.72476 6.33912,7.21768 12.91986,7.18543 6.60765,-0.0324 10.62086,-3.48154 13.25182,-7.12118 1.5294,-2.11576 2.43858,-4.13543 2.97697,-5.53096 -4.41482,-0.27263 -10.36255,-0.17772 -15.05621,-0.20347 -1.80454,-0.01 -4.03764,-0.022 -6.40371,-0.0107 z m 26.05924,0.80849 c -0.53565,1.57281 -1.70496,4.53312 -3.90862,7.58165 -2.87013,3.97051 -7.65225,8.113 -14.65464,8.88274 l -0.49795,88.41509 c 3.40831,-0.1911 6.36376,-0.67098 7.13189,-1.46707 1.46313,-1.51639 7.82154,-21.57164 9.54667,-24.45832 1.88928,-3.16136 17.7247,-15.63625 19.76262,-20.09993 1.81169,-3.96816 0.28932,-24.99965 -1.00125,-28.47402 -1.06136,-2.85731 -12.97024,-27.98351 -15.07763,-29.81259 -0.25911,-0.22489 -0.71419,-0.41059 -1.30109,-0.56755 z m -41.02978,0.0482 c -0.9228,0.18939 -1.62309,0.41635 -1.96502,0.69605 -2.05055,1.67737 -15.6978,25.48287 -17.00517,29.97322 -1.41798,4.87024 -2.22393,25.2708 -0.66928,28.47402 1.75108,3.60793 18.50126,17.83899 20.09993,20.43725 1.66258,2.70211 6.99638,22.00395 8.64715,23.92289 0.74354,0.86432 4.3632,1.3095 8.32054,1.39211 l 0.5033,-88.46864 c -6.98063,-0.74594 -11.66713,-4.99685 -14.40834,-9.07013 -1.94711,-2.89329 -2.9847,-5.65615 -3.52311,-7.35677 z" /><path
     id="path5"
     style="fill:#b68a20;fill-opacity:1;stroke:#000000;stroke-width:3.37174;stroke-miterlimit:20;stroke-dasharray:none;stroke-opacity:1"
     d="m 352.06512,337.3877 c 0,2.12765 -1.87478,3.85246 -4.18745,3.85246 -2.31267,0 -4.18746,-1.72481 -4.18746,-3.85246 0,-2.12765 1.87479,-3.85246 4.18746,-3.85246 2.31267,0 4.18745,1.72481 4.18745,3.85246 z m -51.25445,-31.32216 c -0.57926,-1.62772 4.64268,-4.8686 7.70492,-5.02495 3.33318,-0.17018 27.20483,14.32053 29.64718,16.91732 1.61094,1.7128 1.81726,18.05956 3.51746,20.26728 1.4696,1.90829 3.97124,5.59499 6.02994,5.52744 1.74547,-0.0573 5.11429,-2.98912 6.19743,-5.69494 0.97467,-2.43485 3.15274,-18.87277 4.35495,-20.76978 1.8556,-2.92798 26.44412,-17.10303 28.4747,-17.08481 1.97936,0.0178 7.60562,2.0745 7.53742,4.52245 -0.0491,1.76221 -25.67771,18.37535 -26.79972,20.60228 -1.01463,2.01382 -3.74256,16.85385 -4.35495,18.7598 -0.75642,2.35423 -13.52949,14.26671 -15.74483,14.23735 -2.21534,-0.0294 -12.04911,-9.70956 -14.06985,-12.05988 -1.5586,-1.81279 -3.41237,-19.38291 -4.85745,-21.10477 -1.52838,-1.82111 -26.76045,-16.63116 -27.6372,-19.09479 z"
     sodipodi:nodetypes="sssssssssssssssszsss" /></g></svg>
